<?xml version="1.0" encoding="utf-8" standalone="no"?>
<!DOCTYPE svg PUBLIC "-//W3C//DTD SVG 1.1//EN"
  "http://www.w3.org/Graphics/SVG/1.1/DTD/svg11.dtd">
<svg height="576pt" version="1.1" viewBox="0 0 576 576" width="576pt" xmlns="http://www.w3.org/2000/svg" xmlns:xlink="http://www.w3.org/1999/xlink">
 <metadata>
  <rdf:RDF xmlns:cc="http://creativecommons.org/ns#" xmlns:dc="http://purl.org/dc/elements/1.1/" xmlns:rdf="http://www.w3.org/1999/02/22-rdf-syntax-ns#">
   <cc:Work>
    <dc:type rdf:resource="http://purl.org/dc/dcmitype/StillImage"/>
    <dc:date>2021-06-20T19:56:06.663577</dc:date>
    <dc:format>image/svg+xml</dc:format>
    <dc:creator>
     <cc:Agent>
      <dc:title>Matplotlib v3.4.1, https://matplotlib.org/</dc:title>
     </cc:Agent>
    </dc:creator>
   </cc:Work>
  </rdf:RDF>
 </metadata>
 <defs>
  <style type="text/css">*{stroke-linecap:butt;stroke-linejoin:round;}</style>
 </defs>
 <g id="figure_1">
  <g id="patch_1">
   <path d="M 0 576 
L 576 576 
L 576 0 
L 0 0 
z
" style="fill:#ffffff;"/>
  </g>
  <g id="axes_1">
   <g id="patch_2">
    <path d="M 72 512.64 
L 518.4 512.64 
L 518.4 69.12 
L 72 69.12 
z
" style="fill:#ffffff;"/>
   </g>
   <g id="PathCollection_1">
    <defs>
     <path d="M 0 0.707107 
C 0.187527 0.707107 0.367398 0.632602 0.5 0.5 
C 0.632602 0.367398 0.707107 0.187527 0.707107 0 
C 0.707107 -0.187527 0.632602 -0.367398 0.5 -0.5 
C 0.367398 -0.632602 0.187527 -0.707107 0 -0.707107 
C -0.187527 -0.707107 -0.367398 -0.632602 -0.5 -0.5 
C -0.632602 -0.367398 -0.707107 -0.187527 -0.707107 0 
C -0.707107 0.187527 -0.632602 0.367398 -0.5 0.5 
C -0.367398 0.632602 -0.187527 0.707107 0 0.707107 
z
" id="mf00a81e853" style="stroke:#000000;"/>
    </defs>
    <g clip-path="url(#p8f8337b811)">
     <use style="stroke:#000000;" x="92.290909" xlink:href="#mf00a81e853" y="340.037522"/>
     <use style="stroke:#000000;" x="94.388763" xlink:href="#mf00a81e853" y="336.356124"/>
     <use style="stroke:#000000;" x="95.787332" xlink:href="#mf00a81e853" y="335.904484"/>
     <use style="stroke:#000000;" x="96.719712" xlink:href="#mf00a81e853" y="320.573734"/>
     <use style="stroke:#000000;" x="96.719712" xlink:href="#mf00a81e853" y="313.948448"/>
     <use style="stroke:#000000;" x="97.185902" xlink:href="#mf00a81e853" y="321.80698"/>
     <use style="stroke:#000000;" x="98.584471" xlink:href="#mf00a81e853" y="323.64742"/>
     <use style="stroke:#000000;" x="99.050661" xlink:href="#mf00a81e853" y="326.044219"/>
     <use style="stroke:#000000;" x="99.98304" xlink:href="#mf00a81e853" y="301.959399"/>
     <use style="stroke:#000000;" x="101.847799" xlink:href="#mf00a81e853" y="295.831148"/>
     <use style="stroke:#000000;" x="102.780179" xlink:href="#mf00a81e853" y="292.581284"/>
     <use style="stroke:#000000;" x="104.644938" xlink:href="#mf00a81e853" y="314.870928"/>
     <use style="stroke:#000000;" x="106.043507" xlink:href="#mf00a81e853" y="305.432097"/>
     <use style="stroke:#000000;" x="107.442076" xlink:href="#mf00a81e853" y="305.462819"/>
     <use style="stroke:#000000;" x="107.908266" xlink:href="#mf00a81e853" y="298.40182"/>
     <use style="stroke:#000000;" x="109.773025" xlink:href="#mf00a81e853" y="298.870355"/>
     <use style="stroke:#000000;" x="110.938499" xlink:href="#mf00a81e853" y="309.000983"/>
     <use style="stroke:#000000;" x="111.171594" xlink:href="#mf00a81e853" y="313.770138"/>
     <use style="stroke:#000000;" x="111.404689" xlink:href="#mf00a81e853" y="306.047712"/>
     <use style="stroke:#000000;" x="112.570163" xlink:href="#mf00a81e853" y="303.11268"/>
     <use style="stroke:#000000;" x="113.036353" xlink:href="#mf00a81e853" y="301.348622"/>
     <use style="stroke:#000000;" x="114.668017" xlink:href="#mf00a81e853" y="288.233203"/>
     <use style="stroke:#000000;" x="116.765871" xlink:href="#mf00a81e853" y="297.863296"/>
     <use style="stroke:#000000;" x="118.397535" xlink:href="#mf00a81e853" y="323.983255"/>
     <use style="stroke:#000000;" x="120.495389" xlink:href="#mf00a81e853" y="339.828357"/>
     <use style="stroke:#000000;" x="121.660864" xlink:href="#mf00a81e853" y="328.835928"/>
     <use style="stroke:#000000;" x="123.525623" xlink:href="#mf00a81e853" y="360.340596"/>
     <use style="stroke:#000000;" x="123.758718" xlink:href="#mf00a81e853" y="366.483432"/>
     <use style="stroke:#000000;" x="125.157287" xlink:href="#mf00a81e853" y="354.514688"/>
     <use style="stroke:#000000;" x="127.255141" xlink:href="#mf00a81e853" y="380.018367"/>
     <use style="stroke:#000000;" x="128.18752" xlink:href="#mf00a81e853" y="393.246929"/>
     <use style="stroke:#000000;" x="128.886805" xlink:href="#mf00a81e853" y="391.403224"/>
     <use style="stroke:#000000;" x="130.518469" xlink:href="#mf00a81e853" y="407.785105"/>
     <use style="stroke:#000000;" x="132.383228" xlink:href="#mf00a81e853" y="422.645257"/>
     <use style="stroke:#000000;" x="132.383228" xlink:href="#mf00a81e853" y="436.511834"/>
     <use style="stroke:#000000;" x="133.781797" xlink:href="#mf00a81e853" y="442.638341"/>
     <use style="stroke:#000000;" x="134.947272" xlink:href="#mf00a81e853" y="449.856432"/>
     <use style="stroke:#000000;" x="135.879651" xlink:href="#mf00a81e853" y="446.069086"/>
     <use style="stroke:#000000;" x="137.27822" xlink:href="#mf00a81e853" y="443.628296"/>
     <use style="stroke:#000000;" x="138.909885" xlink:href="#mf00a81e853" y="428.45244"/>
     <use style="stroke:#000000;" x="140.774644" xlink:href="#mf00a81e853" y="394.251475"/>
     <use style="stroke:#000000;" x="141.940118" xlink:href="#mf00a81e853" y="371.399864"/>
     <use style="stroke:#000000;" x="141.940118" xlink:href="#mf00a81e853" y="382.820301"/>
     <use style="stroke:#000000;" x="143.804877" xlink:href="#mf00a81e853" y="383.150154"/>
     <use style="stroke:#000000;" x="143.804877" xlink:href="#mf00a81e853" y="388.676832"/>
     <use style="stroke:#000000;" x="145.203446" xlink:href="#mf00a81e853" y="382.045053"/>
     <use style="stroke:#000000;" x="145.669636" xlink:href="#mf00a81e853" y="382.692036"/>
     <use style="stroke:#000000;" x="145.669636" xlink:href="#mf00a81e853" y="376.536347"/>
     <use style="stroke:#000000;" x="147.3013" xlink:href="#mf00a81e853" y="352.890943"/>
     <use style="stroke:#000000;" x="149.166059" xlink:href="#mf00a81e853" y="358.567365"/>
     <use style="stroke:#000000;" x="149.166059" xlink:href="#mf00a81e853" y="364.2208"/>
     <use style="stroke:#000000;" x="151.263913" xlink:href="#mf00a81e853" y="353.121718"/>
     <use style="stroke:#000000;" x="152.196293" xlink:href="#mf00a81e853" y="382.555819"/>
     <use style="stroke:#000000;" x="153.594862" xlink:href="#mf00a81e853" y="400.485622"/>
     <use style="stroke:#000000;" x="153.594862" xlink:href="#mf00a81e853" y="380.257649"/>
     <use style="stroke:#000000;" x="155.226526" xlink:href="#mf00a81e853" y="386.97708"/>
     <use style="stroke:#000000;" x="155.692716" xlink:href="#mf00a81e853" y="387.946079"/>
     <use style="stroke:#000000;" x="155.692716" xlink:href="#mf00a81e853" y="404.908153"/>
     <use style="stroke:#000000;" x="155.692716" xlink:href="#mf00a81e853" y="390.282259"/>
     <use style="stroke:#000000;" x="155.925811" xlink:href="#mf00a81e853" y="405.989115"/>
     <use style="stroke:#000000;" x="155.925811" xlink:href="#mf00a81e853" y="374.726927"/>
     <use style="stroke:#000000;" x="156.625095" xlink:href="#mf00a81e853" y="369.378491"/>
     <use style="stroke:#000000;" x="157.32438" xlink:href="#mf00a81e853" y="391.114509"/>
     <use style="stroke:#000000;" x="157.79057" xlink:href="#mf00a81e853" y="372.76996"/>
     <use style="stroke:#000000;" x="159.189139" xlink:href="#mf00a81e853" y="374.518588"/>
     <use style="stroke:#000000;" x="160.354613" xlink:href="#mf00a81e853" y="335.171194"/>
     <use style="stroke:#000000;" x="161.053898" xlink:href="#mf00a81e853" y="335.265183"/>
     <use style="stroke:#000000;" x="161.286993" xlink:href="#mf00a81e853" y="321.512034"/>
     <use style="stroke:#000000;" x="162.918657" xlink:href="#mf00a81e853" y="341.380239"/>
     <use style="stroke:#000000;" x="164.084131" xlink:href="#mf00a81e853" y="334.553208"/>
     <use style="stroke:#000000;" x="165.94889" xlink:href="#mf00a81e853" y="327.545628"/>
     <use style="stroke:#000000;" x="166.181985" xlink:href="#mf00a81e853" y="343.59102"/>
     <use style="stroke:#000000;" x="166.648175" xlink:href="#mf00a81e853" y="359.423458"/>
     <use style="stroke:#000000;" x="167.580555" xlink:href="#mf00a81e853" y="368.03719"/>
     <use style="stroke:#000000;" x="168.746029" xlink:href="#mf00a81e853" y="395.885166"/>
     <use style="stroke:#000000;" x="170.144598" xlink:href="#mf00a81e853" y="400.374738"/>
     <use style="stroke:#000000;" x="171.310073" xlink:href="#mf00a81e853" y="367.594206"/>
     <use style="stroke:#000000;" x="171.310073" xlink:href="#mf00a81e853" y="377.380498"/>
     <use style="stroke:#000000;" x="171.776262" xlink:href="#mf00a81e853" y="374.337448"/>
     <use style="stroke:#000000;" x="172.941737" xlink:href="#mf00a81e853" y="370.017966"/>
     <use style="stroke:#000000;" x="175.039591" xlink:href="#mf00a81e853" y="355.887335"/>
     <use style="stroke:#000000;" x="177.137445" xlink:href="#mf00a81e853" y="357.807531"/>
     <use style="stroke:#000000;" x="179.235298" xlink:href="#mf00a81e853" y="348.597593"/>
     <use style="stroke:#000000;" x="180.866963" xlink:href="#mf00a81e853" y="316.326211"/>
     <use style="stroke:#000000;" x="181.333152" xlink:href="#mf00a81e853" y="306.979041"/>
     <use style="stroke:#000000;" x="182.265532" xlink:href="#mf00a81e853" y="314.456548"/>
     <use style="stroke:#000000;" x="183.664101" xlink:href="#mf00a81e853" y="310.662639"/>
     <use style="stroke:#000000;" x="183.897196" xlink:href="#mf00a81e853" y="327.494523"/>
     <use style="stroke:#000000;" x="184.363386" xlink:href="#mf00a81e853" y="349.535526"/>
     <use style="stroke:#000000;" x="185.06267" xlink:href="#mf00a81e853" y="356.844552"/>
     <use style="stroke:#000000;" x="186.46124" xlink:href="#mf00a81e853" y="345.953586"/>
     <use style="stroke:#000000;" x="188.092904" xlink:href="#mf00a81e853" y="314.496764"/>
     <use style="stroke:#000000;" x="190.190758" xlink:href="#mf00a81e853" y="323.966083"/>
     <use style="stroke:#000000;" x="190.890042" xlink:href="#mf00a81e853" y="324.18259"/>
     <use style="stroke:#000000;" x="192.521706" xlink:href="#mf00a81e853" y="349.358093"/>
     <use style="stroke:#000000;" x="193.920276" xlink:href="#mf00a81e853" y="355.866505"/>
     <use style="stroke:#000000;" x="195.08575" xlink:href="#mf00a81e853" y="357.488355"/>
     <use style="stroke:#000000;" x="195.55194" xlink:href="#mf00a81e853" y="353.889833"/>
     <use style="stroke:#000000;" x="197.649794" xlink:href="#mf00a81e853" y="353.406406"/>
     <use style="stroke:#000000;" x="198.815268" xlink:href="#mf00a81e853" y="367.974517"/>
     <use style="stroke:#000000;" x="200.446932" xlink:href="#mf00a81e853" y="343.725653"/>
     <use style="stroke:#000000;" x="200.913122" xlink:href="#mf00a81e853" y="330.027535"/>
     <use style="stroke:#000000;" x="202.078596" xlink:href="#mf00a81e853" y="332.657298"/>
     <use style="stroke:#000000;" x="202.777881" xlink:href="#mf00a81e853" y="336.132475"/>
     <use style="stroke:#000000;" x="202.777881" xlink:href="#mf00a81e853" y="365.167754"/>
     <use style="stroke:#000000;" x="204.64264" xlink:href="#mf00a81e853" y="404.762224"/>
     <use style="stroke:#000000;" x="205.10883" xlink:href="#mf00a81e853" y="413.026912"/>
     <use style="stroke:#000000;" x="206.740494" xlink:href="#mf00a81e853" y="418.098347"/>
     <use style="stroke:#000000;" x="207.905968" xlink:href="#mf00a81e853" y="440.778495"/>
     <use style="stroke:#000000;" x="208.372158" xlink:href="#mf00a81e853" y="420.490003"/>
     <use style="stroke:#000000;" x="210.236917" xlink:href="#mf00a81e853" y="466.537612"/>
     <use style="stroke:#000000;" x="211.868581" xlink:href="#mf00a81e853" y="492.48"/>
     <use style="stroke:#000000;" x="213.73334" xlink:href="#mf00a81e853" y="478.585633"/>
     <use style="stroke:#000000;" x="214.432625" xlink:href="#mf00a81e853" y="491.95121"/>
     <use style="stroke:#000000;" x="214.432625" xlink:href="#mf00a81e853" y="461.834079"/>
     <use style="stroke:#000000;" x="215.598099" xlink:href="#mf00a81e853" y="462.604874"/>
     <use style="stroke:#000000;" x="215.598099" xlink:href="#mf00a81e853" y="455.51741"/>
     <use style="stroke:#000000;" x="216.064289" xlink:href="#mf00a81e853" y="447.768568"/>
     <use style="stroke:#000000;" x="217.229763" xlink:href="#mf00a81e853" y="446.299076"/>
     <use style="stroke:#000000;" x="217.929048" xlink:href="#mf00a81e853" y="456.032225"/>
     <use style="stroke:#000000;" x="219.793807" xlink:href="#mf00a81e853" y="455.888571"/>
     <use style="stroke:#000000;" x="220.259997" xlink:href="#mf00a81e853" y="438.960335"/>
     <use style="stroke:#000000;" x="220.959281" xlink:href="#mf00a81e853" y="401.395721"/>
     <use style="stroke:#000000;" x="222.124756" xlink:href="#mf00a81e853" y="396.68999"/>
     <use style="stroke:#000000;" x="222.590946" xlink:href="#mf00a81e853" y="396.355386"/>
     <use style="stroke:#000000;" x="224.6888" xlink:href="#mf00a81e853" y="416.93705"/>
     <use style="stroke:#000000;" x="226.087369" xlink:href="#mf00a81e853" y="411.167272"/>
     <use style="stroke:#000000;" x="227.719033" xlink:href="#mf00a81e853" y="416.214275"/>
     <use style="stroke:#000000;" x="227.719033" xlink:href="#mf00a81e853" y="392.672917"/>
     <use style="stroke:#000000;" x="229.117602" xlink:href="#mf00a81e853" y="416.967976"/>
     <use style="stroke:#000000;" x="229.117602" xlink:href="#mf00a81e853" y="418.530016"/>
     <use style="stroke:#000000;" x="229.583792" xlink:href="#mf00a81e853" y="416.638071"/>
     <use style="stroke:#000000;" x="230.516171" xlink:href="#mf00a81e853" y="410.502722"/>
     <use style="stroke:#000000;" x="230.982361" xlink:href="#mf00a81e853" y="431.775916"/>
     <use style="stroke:#000000;" x="232.38093" xlink:href="#mf00a81e853" y="427.000754"/>
     <use style="stroke:#000000;" x="233.7795" xlink:href="#mf00a81e853" y="406.392326"/>
     <use style="stroke:#000000;" x="235.411164" xlink:href="#mf00a81e853" y="424.923814"/>
     <use style="stroke:#000000;" x="235.877354" xlink:href="#mf00a81e853" y="395.6624"/>
     <use style="stroke:#000000;" x="236.809733" xlink:href="#mf00a81e853" y="412.117976"/>
     <use style="stroke:#000000;" x="238.674492" xlink:href="#mf00a81e853" y="396.818888"/>
     <use style="stroke:#000000;" x="239.606872" xlink:href="#mf00a81e853" y="393.041913"/>
     <use style="stroke:#000000;" x="240.772346" xlink:href="#mf00a81e853" y="411.344371"/>
     <use style="stroke:#000000;" x="242.40401" xlink:href="#mf00a81e853" y="376.527629"/>
     <use style="stroke:#000000;" x="242.40401" xlink:href="#mf00a81e853" y="372.079586"/>
     <use style="stroke:#000000;" x="242.40401" xlink:href="#mf00a81e853" y="387.220668"/>
     <use style="stroke:#000000;" x="242.8702" xlink:href="#mf00a81e853" y="380.681572"/>
     <use style="stroke:#000000;" x="244.501864" xlink:href="#mf00a81e853" y="395.234002"/>
     <use style="stroke:#000000;" x="244.734959" xlink:href="#mf00a81e853" y="392.530913"/>
     <use style="stroke:#000000;" x="244.734959" xlink:href="#mf00a81e853" y="394.682379"/>
     <use style="stroke:#000000;" x="244.968054" xlink:href="#mf00a81e853" y="361.037585"/>
     <use style="stroke:#000000;" x="244.968054" xlink:href="#mf00a81e853" y="365.009549"/>
     <use style="stroke:#000000;" x="246.366623" xlink:href="#mf00a81e853" y="352.741452"/>
     <use style="stroke:#000000;" x="247.532098" xlink:href="#mf00a81e853" y="377.501734"/>
     <use style="stroke:#000000;" x="249.163762" xlink:href="#mf00a81e853" y="388.80523"/>
     <use style="stroke:#000000;" x="251.028521" xlink:href="#mf00a81e853" y="410.43247"/>
     <use style="stroke:#000000;" x="252.660185" xlink:href="#mf00a81e853" y="419.155236"/>
     <use style="stroke:#000000;" x="253.825659" xlink:href="#mf00a81e853" y="435.90554"/>
     <use style="stroke:#000000;" x="254.758039" xlink:href="#mf00a81e853" y="417.678596"/>
     <use style="stroke:#000000;" x="256.855893" xlink:href="#mf00a81e853" y="401.235831"/>
     <use style="stroke:#000000;" x="258.487557" xlink:href="#mf00a81e853" y="420.962916"/>
     <use style="stroke:#000000;" x="260.119221" xlink:href="#mf00a81e853" y="404.591924"/>
     <use style="stroke:#000000;" x="261.51779" xlink:href="#mf00a81e853" y="409.213905"/>
     <use style="stroke:#000000;" x="263.382549" xlink:href="#mf00a81e853" y="390.167288"/>
     <use style="stroke:#000000;" x="263.848739" xlink:href="#mf00a81e853" y="385.935531"/>
     <use style="stroke:#000000;" x="263.848739" xlink:href="#mf00a81e853" y="383.082961"/>
     <use style="stroke:#000000;" x="264.781118" xlink:href="#mf00a81e853" y="383.621932"/>
     <use style="stroke:#000000;" x="264.781118" xlink:href="#mf00a81e853" y="398.609986"/>
     <use style="stroke:#000000;" x="266.645877" xlink:href="#mf00a81e853" y="384.843948"/>
     <use style="stroke:#000000;" x="267.112067" xlink:href="#mf00a81e853" y="377.42047"/>
     <use style="stroke:#000000;" x="267.578257" xlink:href="#mf00a81e853" y="384.350138"/>
     <use style="stroke:#000000;" x="269.676111" xlink:href="#mf00a81e853" y="368.548566"/>
     <use style="stroke:#000000;" x="270.142301" xlink:href="#mf00a81e853" y="362.337872"/>
     <use style="stroke:#000000;" x="270.60849" xlink:href="#mf00a81e853" y="316.48434"/>
     <use style="stroke:#000000;" x="272.240155" xlink:href="#mf00a81e853" y="313.014674"/>
     <use style="stroke:#000000;" x="272.939439" xlink:href="#mf00a81e853" y="299.536848"/>
     <use style="stroke:#000000;" x="274.571103" xlink:href="#mf00a81e853" y="291.533709"/>
     <use style="stroke:#000000;" x="276.202767" xlink:href="#mf00a81e853" y="327.66385"/>
     <use style="stroke:#000000;" x="278.300621" xlink:href="#mf00a81e853" y="379.277257"/>
     <use style="stroke:#000000;" x="279.466096" xlink:href="#mf00a81e853" y="374.223877"/>
     <use style="stroke:#000000;" x="280.864665" xlink:href="#mf00a81e853" y="355.985094"/>
     <use style="stroke:#000000;" x="280.864665" xlink:href="#mf00a81e853" y="390.885211"/>
     <use style="stroke:#000000;" x="282.030139" xlink:href="#mf00a81e853" y="419.935759"/>
     <use style="stroke:#000000;" x="282.496329" xlink:href="#mf00a81e853" y="439.243258"/>
     <use style="stroke:#000000;" x="284.361088" xlink:href="#mf00a81e853" y="443.08939"/>
     <use style="stroke:#000000;" x="285.293468" xlink:href="#mf00a81e853" y="438.054393"/>
     <use style="stroke:#000000;" x="285.293468" xlink:href="#mf00a81e853" y="432.498589"/>
     <use style="stroke:#000000;" x="287.158227" xlink:href="#mf00a81e853" y="445.089992"/>
     <use style="stroke:#000000;" x="289.256081" xlink:href="#mf00a81e853" y="466.643871"/>
     <use style="stroke:#000000;" x="290.65465" xlink:href="#mf00a81e853" y="453.754109"/>
     <use style="stroke:#000000;" x="290.887745" xlink:href="#mf00a81e853" y="447.40605"/>
     <use style="stroke:#000000;" x="292.053219" xlink:href="#mf00a81e853" y="454.227719"/>
     <use style="stroke:#000000;" x="292.985599" xlink:href="#mf00a81e853" y="469.027482"/>
     <use style="stroke:#000000;" x="295.083453" xlink:href="#mf00a81e853" y="480.529072"/>
     <use style="stroke:#000000;" x="296.482022" xlink:href="#mf00a81e853" y="476.060775"/>
     <use style="stroke:#000000;" x="297.880591" xlink:href="#mf00a81e853" y="463.613786"/>
     <use style="stroke:#000000;" x="299.512255" xlink:href="#mf00a81e853" y="460.938773"/>
     <use style="stroke:#000000;" x="301.143919" xlink:href="#mf00a81e853" y="460.118094"/>
     <use style="stroke:#000000;" x="301.610109" xlink:href="#mf00a81e853" y="426.0741"/>
     <use style="stroke:#000000;" x="302.309394" xlink:href="#mf00a81e853" y="386.103174"/>
     <use style="stroke:#000000;" x="304.407248" xlink:href="#mf00a81e853" y="408.190664"/>
     <use style="stroke:#000000;" x="305.572722" xlink:href="#mf00a81e853" y="421.892453"/>
     <use style="stroke:#000000;" x="306.505102" xlink:href="#mf00a81e853" y="400.973848"/>
     <use style="stroke:#000000;" x="307.903671" xlink:href="#mf00a81e853" y="364.805765"/>
     <use style="stroke:#000000;" x="308.136766" xlink:href="#mf00a81e853" y="360.727412"/>
     <use style="stroke:#000000;" x="308.369861" xlink:href="#mf00a81e853" y="355.156818"/>
     <use style="stroke:#000000;" x="309.535335" xlink:href="#mf00a81e853" y="383.477504"/>
     <use style="stroke:#000000;" x="311.166999" xlink:href="#mf00a81e853" y="386.132386"/>
     <use style="stroke:#000000;" x="312.332474" xlink:href="#mf00a81e853" y="377.776918"/>
     <use style="stroke:#000000;" x="313.264853" xlink:href="#mf00a81e853" y="387.40651"/>
     <use style="stroke:#000000;" x="315.362707" xlink:href="#mf00a81e853" y="372.417551"/>
     <use style="stroke:#000000;" x="316.061992" xlink:href="#mf00a81e853" y="395.623257"/>
     <use style="stroke:#000000;" x="316.528181" xlink:href="#mf00a81e853" y="406.149853"/>
     <use style="stroke:#000000;" x="316.528181" xlink:href="#mf00a81e853" y="415.526351"/>
     <use style="stroke:#000000;" x="318.159845" xlink:href="#mf00a81e853" y="406.261964"/>
     <use style="stroke:#000000;" x="319.32532" xlink:href="#mf00a81e853" y="405.457549"/>
     <use style="stroke:#000000;" x="319.32532" xlink:href="#mf00a81e853" y="414.808616"/>
     <use style="stroke:#000000;" x="319.558415" xlink:href="#mf00a81e853" y="400.185483"/>
     <use style="stroke:#000000;" x="319.558415" xlink:href="#mf00a81e853" y="387.597917"/>
     <use style="stroke:#000000;" x="319.79151" xlink:href="#mf00a81e853" y="371.597283"/>
     <use style="stroke:#000000;" x="320.490794" xlink:href="#mf00a81e853" y="356.8077"/>
     <use style="stroke:#000000;" x="322.588648" xlink:href="#mf00a81e853" y="373.895274"/>
     <use style="stroke:#000000;" x="323.987217" xlink:href="#mf00a81e853" y="380.049034"/>
     <use style="stroke:#000000;" x="325.385787" xlink:href="#mf00a81e853" y="385.828166"/>
     <use style="stroke:#000000;" x="326.551261" xlink:href="#mf00a81e853" y="381.498003"/>
     <use style="stroke:#000000;" x="327.250546" xlink:href="#mf00a81e853" y="334.800965"/>
     <use style="stroke:#000000;" x="328.88221" xlink:href="#mf00a81e853" y="334.748297"/>
     <use style="stroke:#000000;" x="329.581494" xlink:href="#mf00a81e853" y="330.877634"/>
     <use style="stroke:#000000;" x="330.047684" xlink:href="#mf00a81e853" y="347.291565"/>
     <use style="stroke:#000000;" x="330.746969" xlink:href="#mf00a81e853" y="357.063675"/>
     <use style="stroke:#000000;" x="332.844823" xlink:href="#mf00a81e853" y="362.076228"/>
     <use style="stroke:#000000;" x="333.311012" xlink:href="#mf00a81e853" y="366.839578"/>
     <use style="stroke:#000000;" x="333.544107" xlink:href="#mf00a81e853" y="343.061691"/>
     <use style="stroke:#000000;" x="335.408866" xlink:href="#mf00a81e853" y="361.888422"/>
     <use style="stroke:#000000;" x="337.040531" xlink:href="#mf00a81e853" y="364.96491"/>
     <use style="stroke:#000000;" x="337.040531" xlink:href="#mf00a81e853" y="351.44944"/>
     <use style="stroke:#000000;" x="337.50672" xlink:href="#mf00a81e853" y="353.131556"/>
     <use style="stroke:#000000;" x="338.90529" xlink:href="#mf00a81e853" y="353.236808"/>
     <use style="stroke:#000000;" x="340.770049" xlink:href="#mf00a81e853" y="334.533625"/>
     <use style="stroke:#000000;" x="340.770049" xlink:href="#mf00a81e853" y="328.050148"/>
     <use style="stroke:#000000;" x="342.867902" xlink:href="#mf00a81e853" y="350.76637"/>
     <use style="stroke:#000000;" x="344.266472" xlink:href="#mf00a81e853" y="351.158739"/>
     <use style="stroke:#000000;" x="344.499567" xlink:href="#mf00a81e853" y="371.694824"/>
     <use style="stroke:#000000;" x="346.131231" xlink:href="#mf00a81e853" y="354.373486"/>
     <use style="stroke:#000000;" x="346.364326" xlink:href="#mf00a81e853" y="366.845852"/>
     <use style="stroke:#000000;" x="347.762895" xlink:href="#mf00a81e853" y="369.444719"/>
     <use style="stroke:#000000;" x="348.229085" xlink:href="#mf00a81e853" y="374.921069"/>
     <use style="stroke:#000000;" x="349.860749" xlink:href="#mf00a81e853" y="357.997441"/>
     <use style="stroke:#000000;" x="349.860749" xlink:href="#mf00a81e853" y="371.990497"/>
     <use style="stroke:#000000;" x="350.093844" xlink:href="#mf00a81e853" y="347.453903"/>
     <use style="stroke:#000000;" x="350.093844" xlink:href="#mf00a81e853" y="339.565212"/>
     <use style="stroke:#000000;" x="352.191698" xlink:href="#mf00a81e853" y="327.178502"/>
     <use style="stroke:#000000;" x="353.590267" xlink:href="#mf00a81e853" y="306.58628"/>
     <use style="stroke:#000000;" x="354.755741" xlink:href="#mf00a81e853" y="300.740363"/>
     <use style="stroke:#000000;" x="355.688121" xlink:href="#mf00a81e853" y="286.51286"/>
     <use style="stroke:#000000;" x="357.319785" xlink:href="#mf00a81e853" y="271.028155"/>
     <use style="stroke:#000000;" x="357.785975" xlink:href="#mf00a81e853" y="262.445169"/>
     <use style="stroke:#000000;" x="359.883829" xlink:href="#mf00a81e853" y="275.061314"/>
     <use style="stroke:#000000;" x="361.981682" xlink:href="#mf00a81e853" y="287.00925"/>
     <use style="stroke:#000000;" x="363.380252" xlink:href="#mf00a81e853" y="299.436258"/>
     <use style="stroke:#000000;" x="364.312631" xlink:href="#mf00a81e853" y="306.799391"/>
     <use style="stroke:#000000;" x="364.312631" xlink:href="#mf00a81e853" y="280.29896"/>
     <use style="stroke:#000000;" x="365.011916" xlink:href="#mf00a81e853" y="288.824144"/>
     <use style="stroke:#000000;" x="365.478106" xlink:href="#mf00a81e853" y="281.213132"/>
     <use style="stroke:#000000;" x="366.876675" xlink:href="#mf00a81e853" y="297.410564"/>
     <use style="stroke:#000000;" x="368.508339" xlink:href="#mf00a81e853" y="272.121694"/>
     <use style="stroke:#000000;" x="370.140003" xlink:href="#mf00a81e853" y="274.854068"/>
     <use style="stroke:#000000;" x="372.004762" xlink:href="#mf00a81e853" y="271.787224"/>
     <use style="stroke:#000000;" x="373.869521" xlink:href="#mf00a81e853" y="285.036988"/>
     <use style="stroke:#000000;" x="374.801901" xlink:href="#mf00a81e853" y="305.865645"/>
     <use style="stroke:#000000;" x="376.66666" xlink:href="#mf00a81e853" y="305.968661"/>
     <use style="stroke:#000000;" x="378.531419" xlink:href="#mf00a81e853" y="328.699897"/>
     <use style="stroke:#000000;" x="379.463798" xlink:href="#mf00a81e853" y="319.356899"/>
     <use style="stroke:#000000;" x="381.328557" xlink:href="#mf00a81e853" y="328.289923"/>
     <use style="stroke:#000000;" x="381.794747" xlink:href="#mf00a81e853" y="314.285455"/>
     <use style="stroke:#000000;" x="382.727127" xlink:href="#mf00a81e853" y="321.470555"/>
     <use style="stroke:#000000;" x="384.591886" xlink:href="#mf00a81e853" y="276.728415"/>
     <use style="stroke:#000000;" x="385.990455" xlink:href="#mf00a81e853" y="261.275177"/>
     <use style="stroke:#000000;" x="386.689739" xlink:href="#mf00a81e853" y="250.763476"/>
     <use style="stroke:#000000;" x="388.321404" xlink:href="#mf00a81e853" y="239.917095"/>
     <use style="stroke:#000000;" x="389.953068" xlink:href="#mf00a81e853" y="261.548092"/>
     <use style="stroke:#000000;" x="391.118542" xlink:href="#mf00a81e853" y="253.582912"/>
     <use style="stroke:#000000;" x="392.750206" xlink:href="#mf00a81e853" y="270.365478"/>
     <use style="stroke:#000000;" x="393.449491" xlink:href="#mf00a81e853" y="248.531259"/>
     <use style="stroke:#000000;" x="395.547345" xlink:href="#mf00a81e853" y="248.310836"/>
     <use style="stroke:#000000;" x="395.547345" xlink:href="#mf00a81e853" y="245.97387"/>
     <use style="stroke:#000000;" x="396.013535" xlink:href="#mf00a81e853" y="271.125175"/>
     <use style="stroke:#000000;" x="396.479724" xlink:href="#mf00a81e853" y="252.494654"/>
     <use style="stroke:#000000;" x="396.712819" xlink:href="#mf00a81e853" y="240.786513"/>
     <use style="stroke:#000000;" x="397.179009" xlink:href="#mf00a81e853" y="227.188587"/>
     <use style="stroke:#000000;" x="397.878294" xlink:href="#mf00a81e853" y="221.505966"/>
     <use style="stroke:#000000;" x="397.878294" xlink:href="#mf00a81e853" y="219.400172"/>
     <use style="stroke:#000000;" x="399.276863" xlink:href="#mf00a81e853" y="244.001504"/>
     <use style="stroke:#000000;" x="401.374717" xlink:href="#mf00a81e853" y="215.796994"/>
     <use style="stroke:#000000;" x="402.307096" xlink:href="#mf00a81e853" y="226.473514"/>
     <use style="stroke:#000000;" x="403.472571" xlink:href="#mf00a81e853" y="212.528586"/>
     <use style="stroke:#000000;" x="404.171855" xlink:href="#mf00a81e853" y="220.486276"/>
     <use style="stroke:#000000;" x="406.036614" xlink:href="#mf00a81e853" y="210.094256"/>
     <use style="stroke:#000000;" x="406.735899" xlink:href="#mf00a81e853" y="216.287874"/>
     <use style="stroke:#000000;" x="407.202089" xlink:href="#mf00a81e853" y="204.787807"/>
     <use style="stroke:#000000;" x="408.833753" xlink:href="#mf00a81e853" y="206.035809"/>
     <use style="stroke:#000000;" x="409.999227" xlink:href="#mf00a81e853" y="210.199909"/>
     <use style="stroke:#000000;" x="410.232322" xlink:href="#mf00a81e853" y="179.223419"/>
     <use style="stroke:#000000;" x="411.863986" xlink:href="#mf00a81e853" y="192.101197"/>
     <use style="stroke:#000000;" x="412.097081" xlink:href="#mf00a81e853" y="199.905478"/>
     <use style="stroke:#000000;" x="412.563271" xlink:href="#mf00a81e853" y="214.995169"/>
     <use style="stroke:#000000;" x="413.96184" xlink:href="#mf00a81e853" y="220.829332"/>
     <use style="stroke:#000000;" x="414.89422" xlink:href="#mf00a81e853" y="195.728319"/>
     <use style="stroke:#000000;" x="415.593504" xlink:href="#mf00a81e853" y="230.754663"/>
     <use style="stroke:#000000;" x="416.525884" xlink:href="#mf00a81e853" y="226.014197"/>
     <use style="stroke:#000000;" x="416.992074" xlink:href="#mf00a81e853" y="223.297561"/>
     <use style="stroke:#000000;" x="419.089927" xlink:href="#mf00a81e853" y="239.380703"/>
     <use style="stroke:#000000;" x="421.187781" xlink:href="#mf00a81e853" y="239.748906"/>
     <use style="stroke:#000000;" x="422.120161" xlink:href="#mf00a81e853" y="247.057596"/>
     <use style="stroke:#000000;" x="423.05254" xlink:href="#mf00a81e853" y="248.812013"/>
     <use style="stroke:#000000;" x="423.751825" xlink:href="#mf00a81e853" y="289.519501"/>
     <use style="stroke:#000000;" x="423.751825" xlink:href="#mf00a81e853" y="299.554908"/>
     <use style="stroke:#000000;" x="423.751825" xlink:href="#mf00a81e853" y="283.493889"/>
     <use style="stroke:#000000;" x="423.751825" xlink:href="#mf00a81e853" y="272.269751"/>
     <use style="stroke:#000000;" x="423.751825" xlink:href="#mf00a81e853" y="259.488893"/>
     <use style="stroke:#000000;" x="424.45111" xlink:href="#mf00a81e853" y="250.054798"/>
     <use style="stroke:#000000;" x="425.849679" xlink:href="#mf00a81e853" y="245.5192"/>
     <use style="stroke:#000000;" x="425.849679" xlink:href="#mf00a81e853" y="244.516958"/>
     <use style="stroke:#000000;" x="426.315869" xlink:href="#mf00a81e853" y="224.799604"/>
     <use style="stroke:#000000;" x="426.315869" xlink:href="#mf00a81e853" y="212.904075"/>
     <use style="stroke:#000000;" x="427.015153" xlink:href="#mf00a81e853" y="190.767047"/>
     <use style="stroke:#000000;" x="428.879912" xlink:href="#mf00a81e853" y="167.829375"/>
     <use style="stroke:#000000;" x="430.278482" xlink:href="#mf00a81e853" y="190.621202"/>
     <use style="stroke:#000000;" x="431.443956" xlink:href="#mf00a81e853" y="186.581216"/>
     <use style="stroke:#000000;" x="432.143241" xlink:href="#mf00a81e853" y="173.14892"/>
     <use style="stroke:#000000;" x="432.143241" xlink:href="#mf00a81e853" y="195.130024"/>
     <use style="stroke:#000000;" x="433.54181" xlink:href="#mf00a81e853" y="191.467675"/>
     <use style="stroke:#000000;" x="435.406569" xlink:href="#mf00a81e853" y="179.510761"/>
     <use style="stroke:#000000;" x="435.406569" xlink:href="#mf00a81e853" y="141.763458"/>
     <use style="stroke:#000000;" x="436.105853" xlink:href="#mf00a81e853" y="145.68192"/>
     <use style="stroke:#000000;" x="438.203707" xlink:href="#mf00a81e853" y="143.534193"/>
     <use style="stroke:#000000;" x="438.902992" xlink:href="#mf00a81e853" y="134.615224"/>
     <use style="stroke:#000000;" x="440.767751" xlink:href="#mf00a81e853" y="117.419807"/>
     <use style="stroke:#000000;" x="441.233941" xlink:href="#mf00a81e853" y="112.977159"/>
     <use style="stroke:#000000;" x="442.16632" xlink:href="#mf00a81e853" y="109.162581"/>
     <use style="stroke:#000000;" x="442.63251" xlink:href="#mf00a81e853" y="121.17195"/>
     <use style="stroke:#000000;" x="443.0987" xlink:href="#mf00a81e853" y="99.258635"/>
     <use style="stroke:#000000;" x="443.56489" xlink:href="#mf00a81e853" y="96.576061"/>
     <use style="stroke:#000000;" x="444.497269" xlink:href="#mf00a81e853" y="90.356865"/>
     <use style="stroke:#000000;" x="445.662743" xlink:href="#mf00a81e853" y="91.777751"/>
     <use style="stroke:#000000;" x="446.828218" xlink:href="#mf00a81e853" y="116.532501"/>
     <use style="stroke:#000000;" x="447.061313" xlink:href="#mf00a81e853" y="101.424451"/>
     <use style="stroke:#000000;" x="448.459882" xlink:href="#mf00a81e853" y="120.083019"/>
     <use style="stroke:#000000;" x="449.625356" xlink:href="#mf00a81e853" y="134.985692"/>
     <use style="stroke:#000000;" x="451.490115" xlink:href="#mf00a81e853" y="131.619093"/>
     <use style="stroke:#000000;" x="453.587969" xlink:href="#mf00a81e853" y="157.666083"/>
     <use style="stroke:#000000;" x="454.986539" xlink:href="#mf00a81e853" y="164.296581"/>
     <use style="stroke:#000000;" x="455.452728" xlink:href="#mf00a81e853" y="161.193362"/>
     <use style="stroke:#000000;" x="457.084392" xlink:href="#mf00a81e853" y="151.139907"/>
     <use style="stroke:#000000;" x="457.084392" xlink:href="#mf00a81e853" y="129.141903"/>
     <use style="stroke:#000000;" x="458.949151" xlink:href="#mf00a81e853" y="143.883921"/>
     <use style="stroke:#000000;" x="459.881531" xlink:href="#mf00a81e853" y="173.779228"/>
     <use style="stroke:#000000;" x="461.979385" xlink:href="#mf00a81e853" y="158.548706"/>
     <use style="stroke:#000000;" x="463.844144" xlink:href="#mf00a81e853" y="149.866782"/>
     <use style="stroke:#000000;" x="464.543429" xlink:href="#mf00a81e853" y="166.393763"/>
     <use style="stroke:#000000;" x="465.242713" xlink:href="#mf00a81e853" y="152.813788"/>
     <use style="stroke:#000000;" x="465.242713" xlink:href="#mf00a81e853" y="140.143534"/>
     <use style="stroke:#000000;" x="467.340567" xlink:href="#mf00a81e853" y="162.430856"/>
     <use style="stroke:#000000;" x="468.739136" xlink:href="#mf00a81e853" y="169.250692"/>
     <use style="stroke:#000000;" x="470.83699" xlink:href="#mf00a81e853" y="170.362076"/>
     <use style="stroke:#000000;" x="470.83699" xlink:href="#mf00a81e853" y="172.915111"/>
     <use style="stroke:#000000;" x="470.83699" xlink:href="#mf00a81e853" y="187.332015"/>
     <use style="stroke:#000000;" x="471.30318" xlink:href="#mf00a81e853" y="226.757803"/>
     <use style="stroke:#000000;" x="472.002465" xlink:href="#mf00a81e853" y="230.27701"/>
     <use style="stroke:#000000;" x="473.167939" xlink:href="#mf00a81e853" y="232.092061"/>
     <use style="stroke:#000000;" x="473.867224" xlink:href="#mf00a81e853" y="237.339836"/>
     <use style="stroke:#000000;" x="475.032698" xlink:href="#mf00a81e853" y="227.32719"/>
     <use style="stroke:#000000;" x="475.731983" xlink:href="#mf00a81e853" y="225.496753"/>
     <use style="stroke:#000000;" x="476.664362" xlink:href="#mf00a81e853" y="204.221838"/>
     <use style="stroke:#000000;" x="477.130552" xlink:href="#mf00a81e853" y="208.111124"/>
     <use style="stroke:#000000;" x="477.596742" xlink:href="#mf00a81e853" y="211.477647"/>
     <use style="stroke:#000000;" x="478.762216" xlink:href="#mf00a81e853" y="211.972444"/>
     <use style="stroke:#000000;" x="478.762216" xlink:href="#mf00a81e853" y="212.419109"/>
     <use style="stroke:#000000;" x="479.228406" xlink:href="#mf00a81e853" y="217.402907"/>
     <use style="stroke:#000000;" x="480.160785" xlink:href="#mf00a81e853" y="183.671705"/>
     <use style="stroke:#000000;" x="481.792449" xlink:href="#mf00a81e853" y="179.224025"/>
     <use style="stroke:#000000;" x="483.657209" xlink:href="#mf00a81e853" y="175.463474"/>
     <use style="stroke:#000000;" x="484.822683" xlink:href="#mf00a81e853" y="172.372038"/>
     <use style="stroke:#000000;" x="485.988157" xlink:href="#mf00a81e853" y="150.838991"/>
     <use style="stroke:#000000;" x="487.153632" xlink:href="#mf00a81e853" y="150.951949"/>
     <use style="stroke:#000000;" x="487.386727" xlink:href="#mf00a81e853" y="133.448351"/>
     <use style="stroke:#000000;" x="488.319106" xlink:href="#mf00a81e853" y="112.409814"/>
     <use style="stroke:#000000;" x="490.183865" xlink:href="#mf00a81e853" y="128.996224"/>
     <use style="stroke:#000000;" x="490.41696" xlink:href="#mf00a81e853" y="148.76343"/>
     <use style="stroke:#000000;" x="491.349339" xlink:href="#mf00a81e853" y="115.113786"/>
     <use style="stroke:#000000;" x="491.349339" xlink:href="#mf00a81e853" y="129.953966"/>
     <use style="stroke:#000000;" x="492.281719" xlink:href="#mf00a81e853" y="100.351638"/>
     <use style="stroke:#000000;" x="493.214098" xlink:href="#mf00a81e853" y="115.868815"/>
     <use style="stroke:#000000;" x="493.447193" xlink:href="#mf00a81e853" y="105.976113"/>
     <use style="stroke:#000000;" x="494.146478" xlink:href="#mf00a81e853" y="115.15824"/>
     <use style="stroke:#000000;" x="495.078858" xlink:href="#mf00a81e853" y="109.493476"/>
     <use style="stroke:#000000;" x="496.244332" xlink:href="#mf00a81e853" y="99.724154"/>
     <use style="stroke:#000000;" x="496.477427" xlink:href="#mf00a81e853" y="104.826161"/>
     <use style="stroke:#000000;" x="496.477427" xlink:href="#mf00a81e853" y="90.814052"/>
     <use style="stroke:#000000;" x="496.477427" xlink:href="#mf00a81e853" y="89.28"/>
     <use style="stroke:#000000;" x="498.109091" xlink:href="#mf00a81e853" y="89.490989"/>
    </g>
   </g>
   <g id="matplotlib.axis_1">
    <g id="xtick_1">
     <g id="line2d_1">
      <defs>
       <path d="M 0 0 
L 0 3.5 
" id="made93a001b" style="stroke:#000000;stroke-width:0.8;"/>
      </defs>
      <g>
       <use style="stroke:#000000;stroke-width:0.8;" x="90.193055" xlink:href="#made93a001b" y="512.64"/>
      </g>
     </g>
     <g id="text_1">
      <!-- 0 -->
      <g transform="translate(87.011805 527.238438)scale(0.1 -0.1)">
       <defs>
        <path d="M 2034 4250 
Q 1547 4250 1301 3770 
Q 1056 3291 1056 2328 
Q 1056 1369 1301 889 
Q 1547 409 2034 409 
Q 2525 409 2770 889 
Q 3016 1369 3016 2328 
Q 3016 3291 2770 3770 
Q 2525 4250 2034 4250 
z
M 2034 4750 
Q 2819 4750 3233 4129 
Q 3647 3509 3647 2328 
Q 3647 1150 3233 529 
Q 2819 -91 2034 -91 
Q 1250 -91 836 529 
Q 422 1150 422 2328 
Q 422 3509 836 4129 
Q 1250 4750 2034 4750 
z
" id="DejaVuSans-30" transform="scale(0.015625)"/>
       </defs>
       <use xlink:href="#DejaVuSans-30"/>
      </g>
     </g>
    </g>
    <g id="xtick_2">
     <g id="line2d_2">
      <g>
       <use style="stroke:#000000;stroke-width:0.8;" x="148.466775" xlink:href="#made93a001b" y="512.64"/>
      </g>
     </g>
     <g id="text_2">
      <!-- 250 -->
      <g transform="translate(138.923025 527.238438)scale(0.1 -0.1)">
       <defs>
        <path d="M 1228 531 
L 3431 531 
L 3431 0 
L 469 0 
L 469 531 
Q 828 903 1448 1529 
Q 2069 2156 2228 2338 
Q 2531 2678 2651 2914 
Q 2772 3150 2772 3378 
Q 2772 3750 2511 3984 
Q 2250 4219 1831 4219 
Q 1534 4219 1204 4116 
Q 875 4013 500 3803 
L 500 4441 
Q 881 4594 1212 4672 
Q 1544 4750 1819 4750 
Q 2544 4750 2975 4387 
Q 3406 4025 3406 3419 
Q 3406 3131 3298 2873 
Q 3191 2616 2906 2266 
Q 2828 2175 2409 1742 
Q 1991 1309 1228 531 
z
" id="DejaVuSans-32" transform="scale(0.015625)"/>
        <path d="M 691 4666 
L 3169 4666 
L 3169 4134 
L 1269 4134 
L 1269 2991 
Q 1406 3038 1543 3061 
Q 1681 3084 1819 3084 
Q 2600 3084 3056 2656 
Q 3513 2228 3513 1497 
Q 3513 744 3044 326 
Q 2575 -91 1722 -91 
Q 1428 -91 1123 -41 
Q 819 9 494 109 
L 494 744 
Q 775 591 1075 516 
Q 1375 441 1709 441 
Q 2250 441 2565 725 
Q 2881 1009 2881 1497 
Q 2881 1984 2565 2268 
Q 2250 2553 1709 2553 
Q 1456 2553 1204 2497 
Q 953 2441 691 2322 
L 691 4666 
z
" id="DejaVuSans-35" transform="scale(0.015625)"/>
       </defs>
       <use xlink:href="#DejaVuSans-32"/>
       <use x="63.623047" xlink:href="#DejaVuSans-35"/>
       <use x="127.246094" xlink:href="#DejaVuSans-30"/>
      </g>
     </g>
    </g>
    <g id="xtick_3">
     <g id="line2d_3">
      <g>
       <use style="stroke:#000000;stroke-width:0.8;" x="206.740494" xlink:href="#made93a001b" y="512.64"/>
      </g>
     </g>
     <g id="text_3">
      <!-- 500 -->
      <g transform="translate(197.196744 527.238438)scale(0.1 -0.1)">
       <use xlink:href="#DejaVuSans-35"/>
       <use x="63.623047" xlink:href="#DejaVuSans-30"/>
       <use x="127.246094" xlink:href="#DejaVuSans-30"/>
      </g>
     </g>
    </g>
    <g id="xtick_4">
     <g id="line2d_4">
      <g>
       <use style="stroke:#000000;stroke-width:0.8;" x="265.014213" xlink:href="#made93a001b" y="512.64"/>
      </g>
     </g>
     <g id="text_4">
      <!-- 750 -->
      <g transform="translate(255.470463 527.238438)scale(0.1 -0.1)">
       <defs>
        <path d="M 525 4666 
L 3525 4666 
L 3525 4397 
L 1831 0 
L 1172 0 
L 2766 4134 
L 525 4134 
L 525 4666 
z
" id="DejaVuSans-37" transform="scale(0.015625)"/>
       </defs>
       <use xlink:href="#DejaVuSans-37"/>
       <use x="63.623047" xlink:href="#DejaVuSans-35"/>
       <use x="127.246094" xlink:href="#DejaVuSans-30"/>
      </g>
     </g>
    </g>
    <g id="xtick_5">
     <g id="line2d_5">
      <g>
       <use style="stroke:#000000;stroke-width:0.8;" x="323.287933" xlink:href="#made93a001b" y="512.64"/>
      </g>
     </g>
     <g id="text_5">
      <!-- 1000 -->
      <g transform="translate(310.562933 527.238438)scale(0.1 -0.1)">
       <defs>
        <path d="M 794 531 
L 1825 531 
L 1825 4091 
L 703 3866 
L 703 4441 
L 1819 4666 
L 2450 4666 
L 2450 531 
L 3481 531 
L 3481 0 
L 794 0 
L 794 531 
z
" id="DejaVuSans-31" transform="scale(0.015625)"/>
       </defs>
       <use xlink:href="#DejaVuSans-31"/>
       <use x="63.623047" xlink:href="#DejaVuSans-30"/>
       <use x="127.246094" xlink:href="#DejaVuSans-30"/>
       <use x="190.869141" xlink:href="#DejaVuSans-30"/>
      </g>
     </g>
    </g>
    <g id="xtick_6">
     <g id="line2d_6">
      <g>
       <use style="stroke:#000000;stroke-width:0.8;" x="381.561652" xlink:href="#made93a001b" y="512.64"/>
      </g>
     </g>
     <g id="text_6">
      <!-- 1250 -->
      <g transform="translate(368.836652 527.238438)scale(0.1 -0.1)">
       <use xlink:href="#DejaVuSans-31"/>
       <use x="63.623047" xlink:href="#DejaVuSans-32"/>
       <use x="127.246094" xlink:href="#DejaVuSans-35"/>
       <use x="190.869141" xlink:href="#DejaVuSans-30"/>
      </g>
     </g>
    </g>
    <g id="xtick_7">
     <g id="line2d_7">
      <g>
       <use style="stroke:#000000;stroke-width:0.8;" x="439.835372" xlink:href="#made93a001b" y="512.64"/>
      </g>
     </g>
     <g id="text_7">
      <!-- 1500 -->
      <g transform="translate(427.110372 527.238438)scale(0.1 -0.1)">
       <use xlink:href="#DejaVuSans-31"/>
       <use x="63.623047" xlink:href="#DejaVuSans-35"/>
       <use x="127.246094" xlink:href="#DejaVuSans-30"/>
       <use x="190.869141" xlink:href="#DejaVuSans-30"/>
      </g>
     </g>
    </g>
    <g id="xtick_8">
     <g id="line2d_8">
      <g>
       <use style="stroke:#000000;stroke-width:0.8;" x="498.109091" xlink:href="#made93a001b" y="512.64"/>
      </g>
     </g>
     <g id="text_8">
      <!-- 1750 -->
      <g transform="translate(485.384091 527.238438)scale(0.1 -0.1)">
       <use xlink:href="#DejaVuSans-31"/>
       <use x="63.623047" xlink:href="#DejaVuSans-37"/>
       <use x="127.246094" xlink:href="#DejaVuSans-35"/>
       <use x="190.869141" xlink:href="#DejaVuSans-30"/>
      </g>
     </g>
    </g>
    <g id="text_9">
     <!-- Time -->
     <g transform="translate(282.966406 540.916563)scale(0.1 -0.1)">
      <defs>
       <path d="M -19 4666 
L 3928 4666 
L 3928 4134 
L 2272 4134 
L 2272 0 
L 1638 0 
L 1638 4134 
L -19 4134 
L -19 4666 
z
" id="DejaVuSans-54" transform="scale(0.015625)"/>
       <path d="M 603 3500 
L 1178 3500 
L 1178 0 
L 603 0 
L 603 3500 
z
M 603 4863 
L 1178 4863 
L 1178 4134 
L 603 4134 
L 603 4863 
z
" id="DejaVuSans-69" transform="scale(0.015625)"/>
       <path d="M 3328 2828 
Q 3544 3216 3844 3400 
Q 4144 3584 4550 3584 
Q 5097 3584 5394 3201 
Q 5691 2819 5691 2113 
L 5691 0 
L 5113 0 
L 5113 2094 
Q 5113 2597 4934 2840 
Q 4756 3084 4391 3084 
Q 3944 3084 3684 2787 
Q 3425 2491 3425 1978 
L 3425 0 
L 2847 0 
L 2847 2094 
Q 2847 2600 2669 2842 
Q 2491 3084 2119 3084 
Q 1678 3084 1418 2786 
Q 1159 2488 1159 1978 
L 1159 0 
L 581 0 
L 581 3500 
L 1159 3500 
L 1159 2956 
Q 1356 3278 1631 3431 
Q 1906 3584 2284 3584 
Q 2666 3584 2933 3390 
Q 3200 3197 3328 2828 
z
" id="DejaVuSans-6d" transform="scale(0.015625)"/>
       <path d="M 3597 1894 
L 3597 1613 
L 953 1613 
Q 991 1019 1311 708 
Q 1631 397 2203 397 
Q 2534 397 2845 478 
Q 3156 559 3463 722 
L 3463 178 
Q 3153 47 2828 -22 
Q 2503 -91 2169 -91 
Q 1331 -91 842 396 
Q 353 884 353 1716 
Q 353 2575 817 3079 
Q 1281 3584 2069 3584 
Q 2775 3584 3186 3129 
Q 3597 2675 3597 1894 
z
M 3022 2063 
Q 3016 2534 2758 2815 
Q 2500 3097 2075 3097 
Q 1594 3097 1305 2825 
Q 1016 2553 972 2059 
L 3022 2063 
z
" id="DejaVuSans-65" transform="scale(0.015625)"/>
      </defs>
      <use xlink:href="#DejaVuSans-54"/>
      <use x="57.958984" xlink:href="#DejaVuSans-69"/>
      <use x="85.742188" xlink:href="#DejaVuSans-6d"/>
      <use x="183.154297" xlink:href="#DejaVuSans-65"/>
     </g>
    </g>
   </g>
   <g id="matplotlib.axis_2">
    <g id="ytick_1">
     <g id="line2d_9">
      <defs>
       <path d="M 0 0 
L -3.5 0 
" id="md2cc935dd5" style="stroke:#000000;stroke-width:0.8;"/>
      </defs>
      <g>
       <use style="stroke:#000000;stroke-width:0.8;" x="72" xlink:href="#md2cc935dd5" y="498.781276"/>
      </g>
     </g>
     <g id="text_10">
      <!-- −10 -->
      <g transform="translate(43.895313 502.580495)scale(0.1 -0.1)">
       <defs>
        <path d="M 678 2272 
L 4684 2272 
L 4684 1741 
L 678 1741 
L 678 2272 
z
" id="DejaVuSans-2212" transform="scale(0.015625)"/>
       </defs>
       <use xlink:href="#DejaVuSans-2212"/>
       <use x="83.789062" xlink:href="#DejaVuSans-31"/>
       <use x="147.412109" xlink:href="#DejaVuSans-30"/>
      </g>
     </g>
    </g>
    <g id="ytick_2">
     <g id="line2d_10">
      <g>
       <use style="stroke:#000000;stroke-width:0.8;" x="72" xlink:href="#md2cc935dd5" y="417.744847"/>
      </g>
     </g>
     <g id="text_11">
      <!-- −5 -->
      <g transform="translate(50.257812 421.544066)scale(0.1 -0.1)">
       <use xlink:href="#DejaVuSans-2212"/>
       <use x="83.789062" xlink:href="#DejaVuSans-35"/>
      </g>
     </g>
    </g>
    <g id="ytick_3">
     <g id="line2d_11">
      <g>
       <use style="stroke:#000000;stroke-width:0.8;" x="72" xlink:href="#md2cc935dd5" y="336.708418"/>
      </g>
     </g>
     <g id="text_12">
      <!-- 0 -->
      <g transform="translate(58.6375 340.507636)scale(0.1 -0.1)">
       <use xlink:href="#DejaVuSans-30"/>
      </g>
     </g>
    </g>
    <g id="ytick_4">
     <g id="line2d_12">
      <g>
       <use style="stroke:#000000;stroke-width:0.8;" x="72" xlink:href="#md2cc935dd5" y="255.671989"/>
      </g>
     </g>
     <g id="text_13">
      <!-- 5 -->
      <g transform="translate(58.6375 259.471207)scale(0.1 -0.1)">
       <use xlink:href="#DejaVuSans-35"/>
      </g>
     </g>
    </g>
    <g id="ytick_5">
     <g id="line2d_13">
      <g>
       <use style="stroke:#000000;stroke-width:0.8;" x="72" xlink:href="#md2cc935dd5" y="174.63556"/>
      </g>
     </g>
     <g id="text_14">
      <!-- 10 -->
      <g transform="translate(52.275 178.434778)scale(0.1 -0.1)">
       <use xlink:href="#DejaVuSans-31"/>
       <use x="63.623047" xlink:href="#DejaVuSans-30"/>
      </g>
     </g>
    </g>
    <g id="ytick_6">
     <g id="line2d_14">
      <g>
       <use style="stroke:#000000;stroke-width:0.8;" x="72" xlink:href="#md2cc935dd5" y="93.59913"/>
      </g>
     </g>
     <g id="text_15">
      <!-- 15 -->
      <g transform="translate(52.275 97.398349)scale(0.1 -0.1)">
       <use xlink:href="#DejaVuSans-31"/>
       <use x="63.623047" xlink:href="#DejaVuSans-35"/>
      </g>
     </g>
    </g>
    <g id="text_16">
     <!-- Value -->
     <g transform="translate(37.815625 304.61125)rotate(-90)scale(0.1 -0.1)">
      <defs>
       <path d="M 1831 0 
L 50 4666 
L 709 4666 
L 2188 738 
L 3669 4666 
L 4325 4666 
L 2547 0 
L 1831 0 
z
" id="DejaVuSans-56" transform="scale(0.015625)"/>
       <path d="M 2194 1759 
Q 1497 1759 1228 1600 
Q 959 1441 959 1056 
Q 959 750 1161 570 
Q 1363 391 1709 391 
Q 2188 391 2477 730 
Q 2766 1069 2766 1631 
L 2766 1759 
L 2194 1759 
z
M 3341 1997 
L 3341 0 
L 2766 0 
L 2766 531 
Q 2569 213 2275 61 
Q 1981 -91 1556 -91 
Q 1019 -91 701 211 
Q 384 513 384 1019 
Q 384 1609 779 1909 
Q 1175 2209 1959 2209 
L 2766 2209 
L 2766 2266 
Q 2766 2663 2505 2880 
Q 2244 3097 1772 3097 
Q 1472 3097 1187 3025 
Q 903 2953 641 2809 
L 641 3341 
Q 956 3463 1253 3523 
Q 1550 3584 1831 3584 
Q 2591 3584 2966 3190 
Q 3341 2797 3341 1997 
z
" id="DejaVuSans-61" transform="scale(0.015625)"/>
       <path d="M 603 4863 
L 1178 4863 
L 1178 0 
L 603 0 
L 603 4863 
z
" id="DejaVuSans-6c" transform="scale(0.015625)"/>
       <path d="M 544 1381 
L 544 3500 
L 1119 3500 
L 1119 1403 
Q 1119 906 1312 657 
Q 1506 409 1894 409 
Q 2359 409 2629 706 
Q 2900 1003 2900 1516 
L 2900 3500 
L 3475 3500 
L 3475 0 
L 2900 0 
L 2900 538 
Q 2691 219 2414 64 
Q 2138 -91 1772 -91 
Q 1169 -91 856 284 
Q 544 659 544 1381 
z
M 1991 3584 
L 1991 3584 
z
" id="DejaVuSans-75" transform="scale(0.015625)"/>
      </defs>
      <use xlink:href="#DejaVuSans-56"/>
      <use x="60.658203" xlink:href="#DejaVuSans-61"/>
      <use x="121.9375" xlink:href="#DejaVuSans-6c"/>
      <use x="149.720703" xlink:href="#DejaVuSans-75"/>
      <use x="213.099609" xlink:href="#DejaVuSans-65"/>
     </g>
    </g>
   </g>
   <g id="line2d_15">
    <path clip-path="url(#p8f8337b811)" d="M 92.290909 321.610948 
L 94.388763 321.448455 
L 95.787332 322.094031 
L 96.719712 321.063425 
L 96.719712 320.154195 
L 97.185902 318.983937 
L 98.584471 318.230032 
L 99.98304 316.544677 
L 101.847799 315.029257 
L 102.780179 313.183015 
L 104.644938 311.24857 
L 106.043507 308.842424 
L 107.442076 306.940364 
L 107.908266 307.11084 
L 109.773025 308.404836 
L 110.938499 308.756283 
L 111.404689 312.612903 
L 112.570163 315.240667 
L 113.036353 319.450028 
L 114.668017 324.48331 
L 116.765871 328.309925 
L 118.397535 333.427575 
L 120.495389 339.286697 
L 121.660864 346.192198 
L 123.525623 353.380597 
L 123.758718 360.42337 
L 125.157287 367.038317 
L 127.255141 373.917346 
L 128.886805 384.829477 
L 130.518469 388.98781 
L 132.383228 393.23566 
L 132.383228 396.194005 
L 133.781797 398.636429 
L 134.947272 401.296885 
L 135.879651 402.414457 
L 137.27822 402.917103 
L 138.909885 402.835916 
L 140.774644 401.763366 
L 141.940118 400.312059 
L 141.940118 398.397984 
L 143.804877 397.13652 
L 143.804877 396.028538 
L 145.203446 393.215829 
L 145.669636 390.432766 
L 145.669636 387.337248 
L 147.3013 385.279201 
L 149.166059 382.611899 
L 149.166059 381.488733 
L 151.263913 380.512506 
L 152.196293 380.411437 
L 153.594862 380.826148 
L 153.594862 380.307138 
L 155.226526 379.599226 
L 155.692716 377.255533 
L 155.692716 372.132974 
L 155.925811 371.557439 
L 155.925811 370.356731 
L 156.625095 368.522973 
L 157.32438 368.046438 
L 157.79057 366.88982 
L 159.189139 365.267398 
L 160.354613 366.048774 
L 161.053898 366.718657 
L 161.286993 365.701063 
L 162.918657 364.324681 
L 164.084131 363.52744 
L 165.94889 361.728883 
L 166.181985 360.786903 
L 166.648175 360.208355 
L 168.746029 355.260322 
L 170.144598 351.883344 
L 171.310073 350.847612 
L 171.310073 349.617485 
L 171.776262 349.916609 
L 172.941737 350.324374 
L 175.039591 351.438941 
L 177.137445 352.359339 
L 179.235298 350.904626 
L 180.866963 349.131757 
L 181.333152 346.939027 
L 182.265532 344.612674 
L 183.897196 341.881969 
L 184.363386 340.707436 
L 185.06267 339.660884 
L 186.46124 339.558712 
L 188.092904 338.950627 
L 190.190758 337.561628 
L 190.890042 336.764613 
L 192.521706 337.754926 
L 193.920276 340.664362 
L 195.08575 345.179646 
L 195.55194 350.297859 
L 197.649794 354.82805 
L 198.815268 359.390199 
L 200.446932 362.572471 
L 200.913122 368.601673 
L 202.078596 377.500835 
L 202.777881 385.231812 
L 202.777881 393.620243 
L 204.64264 399.244042 
L 205.10883 404.580961 
L 206.740494 409.482414 
L 207.905968 414.17635 
L 208.372158 418.820984 
L 210.236917 423.223869 
L 211.868581 428.832015 
L 213.73334 434.278655 
L 214.432625 437.715576 
L 214.432625 440.743452 
L 215.598099 442.302833 
L 215.598099 442.911575 
L 216.064289 442.818593 
L 217.229763 442.724389 
L 217.929048 440.31911 
L 219.793807 440.143009 
L 220.959281 433.950533 
L 222.124756 430.546387 
L 222.590946 427.537622 
L 224.6888 425.795956 
L 226.087369 422.985329 
L 227.719033 421.455649 
L 227.719033 418.850341 
L 229.117602 417.141286 
L 229.117602 414.180619 
L 229.583792 411.038286 
L 230.516171 409.657488 
L 230.982361 408.414083 
L 232.38093 407.183563 
L 233.7795 406.726827 
L 235.411164 404.914053 
L 235.877354 404.11739 
L 236.809733 402.933222 
L 238.674492 403.033695 
L 239.606872 400.237175 
L 240.772346 397.561152 
L 242.40401 394.366321 
L 242.40401 390.567737 
L 242.8702 389.739323 
L 244.501864 390.377468 
L 244.734959 390.926555 
L 244.734959 392.027364 
L 244.968054 391.483257 
L 244.968054 392.690459 
L 246.366623 393.267959 
L 247.532098 393.161436 
L 251.028521 394.536216 
L 252.660185 394.329331 
L 254.758039 394.645148 
L 256.855893 394.2608 
L 258.487557 393.397704 
L 260.119221 394.563332 
L 261.51779 394.740283 
L 263.382549 395.220104 
L 263.848739 392.169234 
L 263.848739 388.379706 
L 264.781118 382.834925 
L 264.781118 376.453849 
L 266.645877 371.041764 
L 267.112067 369.121697 
L 267.578257 367.7711 
L 270.142301 363.836873 
L 270.60849 364.372966 
L 272.240155 366.826764 
L 272.939439 369.684457 
L 274.571103 372.433029 
L 276.202767 374.876862 
L 278.300621 377.200862 
L 279.466096 381.290858 
L 280.864665 385.10754 
L 280.864665 388.260335 
L 282.030139 392.544293 
L 282.496329 397.878774 
L 284.361088 406.08101 
L 285.293468 414.233315 
L 285.293468 422.437162 
L 287.158227 430.907415 
L 289.256081 437.530128 
L 290.887745 440.463935 
L 292.053219 443.074213 
L 292.985599 444.624575 
L 295.083453 443.67648 
L 296.482022 439.954605 
L 297.880591 435.836506 
L 299.512255 431.691627 
L 301.143919 429.240573 
L 302.309394 421.849345 
L 304.407248 418.531965 
L 306.505102 411.852317 
L 307.903671 408.708436 
L 308.369861 401.968359 
L 309.535335 399.060547 
L 311.166999 396.754039 
L 312.332474 393.757409 
L 313.264853 391.8336 
L 315.362707 391.108305 
L 316.061992 388.539157 
L 316.528181 386.139298 
L 316.528181 385.093057 
L 318.159845 386.144177 
L 319.32532 387.182707 
L 319.32532 386.164914 
L 319.558415 383.728454 
L 319.558415 380.965716 
L 319.79151 379.441449 
L 320.490794 377.924307 
L 322.588648 377.407241 
L 323.987217 375.968057 
L 326.551261 370.131752 
L 327.250546 368.0669 
L 328.88221 365.366494 
L 330.746969 357.281993 
L 332.844823 355.104636 
L 333.311012 354.80257 
L 333.544107 353.665743 
L 335.408866 353.248032 
L 337.040531 351.675298 
L 337.040531 350.942691 
L 337.50672 352.674878 
L 338.90529 354.683517 
L 340.770049 356.039507 
L 340.770049 357.274454 
L 342.867902 356.793965 
L 344.266472 355.668415 
L 344.499567 353.685361 
L 346.131231 351.86159 
L 346.364326 348.804187 
L 347.762895 344.881585 
L 348.229085 340.860521 
L 349.860749 336.326201 
L 349.860749 332.417427 
L 350.093844 330.041208 
L 350.093844 328.610513 
L 352.191698 326.412164 
L 353.590267 322.869175 
L 355.688121 315.067624 
L 357.319785 311.595859 
L 357.785975 306.729708 
L 359.883829 301.726358 
L 361.981682 297.415847 
L 363.380252 293.068172 
L 364.312631 290.988759 
L 364.312631 289.308931 
L 365.011916 289.385001 
L 365.478106 290.023532 
L 366.876675 291.40101 
L 368.508339 292.78964 
L 370.140003 295.31176 
L 372.004762 296.025922 
L 373.869521 295.336615 
L 374.801901 293.524326 
L 376.66666 290.548368 
L 378.531419 288.285803 
L 379.463798 286.950001 
L 381.328557 286.027068 
L 381.794747 284.392974 
L 382.727127 281.937987 
L 384.591886 280.630596 
L 385.990455 280.444152 
L 388.321404 277.266999 
L 389.953068 273.333147 
L 391.118542 269.110012 
L 392.750206 263.645026 
L 393.449491 259.877256 
L 395.547345 254.252609 
L 395.547345 249.862012 
L 396.013535 244.414914 
L 396.479724 241.602807 
L 396.712819 239.043761 
L 397.179009 237.319981 
L 397.878294 235.563516 
L 397.878294 232.787902 
L 399.276863 230.618752 
L 401.374717 226.061649 
L 402.307096 223.240146 
L 404.171855 219.270943 
L 406.036614 216.756151 
L 406.735899 213.917834 
L 407.202089 213.416242 
L 408.833753 213.357522 
L 409.999227 213.447102 
L 410.232322 214.446128 
L 411.863986 214.233498 
L 412.097081 215.796529 
L 412.563271 216.913454 
L 413.96184 220.762999 
L 414.89422 224.716431 
L 415.593504 228.386412 
L 416.525884 231.185506 
L 416.992074 233.920561 
L 419.089927 236.12151 
L 421.187781 237.887475 
L 422.120161 241.152152 
L 423.05254 242.787072 
L 423.751825 243.437002 
L 423.751825 237.11157 
L 424.45111 234.468306 
L 425.849679 233.059929 
L 425.849679 230.664278 
L 426.315869 227.65237 
L 426.315869 222.387663 
L 427.015153 217.231159 
L 428.879912 209.931893 
L 430.278482 201.684909 
L 431.443956 193.381205 
L 432.143241 185.416575 
L 432.143241 177.90026 
L 433.54181 171.456117 
L 435.406569 164.143089 
L 435.406569 156.746044 
L 436.105853 150.023907 
L 438.203707 143.967591 
L 438.902992 140.255864 
L 440.767751 136.935618 
L 441.233941 133.408709 
L 442.16632 130.828932 
L 443.0987 126.879244 
L 443.56489 125.520689 
L 444.497269 124.604819 
L 445.662743 125.073642 
L 446.828218 124.246641 
L 447.061313 124.264127 
L 448.459882 126.222327 
L 449.625356 128.278772 
L 451.490115 130.123254 
L 453.587969 132.984813 
L 454.986539 134.566905 
L 455.452728 136.61115 
L 457.084392 139.903889 
L 457.084392 143.848581 
L 458.949151 147.777797 
L 459.881531 150.596927 
L 461.979385 154.892306 
L 463.844144 160.226045 
L 465.242713 170.014259 
L 465.242713 173.997947 
L 467.340567 177.149477 
L 468.739136 180.364647 
L 470.83699 183.018743 
L 470.83699 190.346891 
L 472.002465 194.950072 
L 473.167939 198.326878 
L 475.032698 200.511287 
L 475.731983 202.277284 
L 476.664362 202.774343 
L 477.596742 200.883251 
L 478.762216 198.909913 
L 478.762216 195.163803 
L 479.228406 190.275724 
L 480.160785 186.200046 
L 481.792449 180.351132 
L 483.657209 174.981838 
L 484.822683 168.633061 
L 485.988157 163.151664 
L 487.153632 158.239378 
L 487.386727 153.591733 
L 488.319106 148.492525 
L 490.183865 142.88011 
L 490.41696 137.500463 
L 491.349339 131.17102 
L 491.349339 126.451435 
L 493.214098 117.666159 
L 493.447193 113.511557 
L 494.146478 110.51031 
L 495.078858 108.204021 
L 496.477427 106.371994 
L 496.477427 103.540729 
L 498.109091 103.57848 
L 498.109091 103.57848 
" style="fill:none;stroke:#1f77b4;stroke-linecap:square;stroke-width:1.5;"/>
   </g>
   <g id="line2d_16">
    <path clip-path="url(#p8f8337b811)" d="M 92.290909 329.51798 
L 94.388763 329.604269 
L 95.787332 329.776531 
L 96.719712 330.033985 
L 96.719712 330.375872 
L 97.185902 330.800784 
L 98.584471 331.307313 
L 99.050661 331.893814 
L 99.98304 332.557991 
L 101.847799 333.297281 
L 102.780179 334.108719 
L 104.644938 334.988858 
L 107.442076 336.94189 
L 107.908266 338.006995 
L 109.773025 339.125427 
L 110.938499 340.292313 
L 111.404689 342.752233 
L 112.570163 344.035018 
L 113.036353 345.345389 
L 114.668017 346.67754 
L 116.765871 348.026004 
L 118.397535 349.384652 
L 120.495389 350.747832 
L 121.660864 352.109506 
L 123.525623 353.463529 
L 123.758718 354.803777 
L 125.157287 356.124742 
L 127.255141 357.420483 
L 128.18752 358.68562 
L 128.886805 359.914862 
L 130.518469 361.102909 
L 132.383228 362.244996 
L 132.383228 363.336532 
L 134.947272 365.352533 
L 135.879651 366.269973 
L 137.27822 367.123099 
L 138.909885 367.909631 
L 140.774644 368.627372 
L 141.940118 369.274696 
L 141.940118 369.850581 
L 143.804877 370.354745 
L 143.804877 370.787137 
L 145.203446 371.14836 
L 145.669636 371.439108 
L 145.669636 371.66079 
L 149.166059 371.930287 
L 152.196293 371.806646 
L 153.594862 371.663521 
L 153.594862 371.471194 
L 155.226526 371.233815 
L 155.692716 370.95572 
L 155.692716 370.295771 
L 155.925811 369.923593 
L 155.925811 369.52979 
L 157.32438 368.698307 
L 157.79057 368.270934 
L 160.354613 367.420041 
L 161.053898 367.007075 
L 161.286993 366.609316 
L 165.94889 365.558447 
L 166.181985 365.272068 
L 166.648175 365.025655 
L 168.746029 364.67006 
L 171.310073 364.524896 
L 171.310073 364.540079 
L 172.941737 364.761252 
L 177.137445 365.253479 
L 179.235298 365.605828 
L 180.866963 366.030634 
L 181.333152 366.528633 
L 182.265532 367.099961 
L 183.664101 367.744326 
L 183.897196 368.460802 
L 184.363386 369.248116 
L 185.06267 370.104699 
L 188.092904 372.015203 
L 190.190758 373.062659 
L 190.890042 374.167019 
L 192.521706 375.32394 
L 193.920276 376.528845 
L 195.08575 377.776935 
L 195.55194 379.062921 
L 197.649794 380.380829 
L 198.815268 381.724662 
L 200.446932 383.088501 
L 200.913122 384.465953 
L 202.078596 385.850531 
L 202.777881 387.235429 
L 202.777881 388.613903 
L 204.64264 389.979445 
L 205.10883 391.325834 
L 206.740494 392.646542 
L 207.905968 393.93538 
L 208.372158 395.186565 
L 213.73334 398.659427 
L 214.432625 399.707265 
L 214.432625 400.693005 
L 215.598099 401.613158 
L 215.598099 402.464729 
L 216.064289 403.244945 
L 217.229763 403.951766 
L 217.929048 404.584038 
L 219.793807 405.140829 
L 220.259997 405.621572 
L 220.959281 406.026116 
L 222.124756 406.354991 
L 222.590946 406.609302 
L 227.719033 406.942836 
L 227.719033 406.91855 
L 229.117602 406.831296 
L 229.117602 406.684456 
L 229.583792 406.481583 
L 230.516171 406.226607 
L 230.982361 405.923207 
L 235.411164 404.766205 
L 235.877354 404.31277 
L 236.809733 403.83272 
L 238.674492 403.330706 
L 240.772346 402.278784 
L 242.40401 401.737666 
L 242.40401 400.645507 
L 242.8702 400.10271 
L 244.501864 399.567564 
L 244.734959 399.043676 
L 244.734959 398.534674 
L 244.968054 398.043746 
L 244.968054 397.574286 
L 249.163762 396.323071 
L 253.825659 395.359616 
L 254.758039 395.111965 
L 261.51779 394.522519 
L 263.848739 394.476062 
L 263.848739 394.514714 
L 264.781118 394.593485 
L 264.781118 394.710946 
L 266.645877 394.865819 
L 267.578257 395.278952 
L 269.676111 395.532564 
L 270.60849 396.119798 
L 272.240155 396.44658 
L 272.939439 396.790474 
L 280.864665 398.6204 
L 280.864665 398.976712 
L 282.030139 399.318962 
L 282.496329 399.642169 
L 284.361088 399.941631 
L 285.293468 400.212433 
L 285.293468 400.450065 
L 290.887745 400.986253 
L 292.985599 400.955048 
L 296.482022 400.692196 
L 299.512255 400.181459 
L 301.143919 399.829466 
L 302.309394 398.928746 
L 304.407248 398.379867 
L 305.572722 397.765544 
L 306.505102 397.086735 
L 307.903671 396.344349 
L 308.369861 394.674883 
L 309.535335 393.751173 
L 311.166999 392.770481 
L 312.332474 391.735208 
L 313.264853 390.6476 
L 315.362707 389.510294 
L 316.061992 388.325527 
L 316.528181 387.09617 
L 316.528181 385.824478 
L 318.159845 384.513227 
L 319.32532 383.164598 
L 319.32532 381.781301 
L 319.558415 380.365631 
L 319.558415 378.91967 
L 319.79151 377.445689 
L 320.490794 375.945439 
L 322.588648 374.420955 
L 325.385787 371.305023 
L 326.551261 369.716873 
L 327.250546 368.11022 
L 328.88221 366.48598 
L 329.581494 364.845023 
L 330.047684 363.18839 
L 330.746969 361.516648 
L 332.844823 359.830338 
L 333.311012 358.130248 
L 333.544107 356.416436 
L 335.408866 354.68936 
L 337.040531 352.949034 
L 337.040531 351.196033 
L 337.50672 349.430344 
L 338.90529 347.652064 
L 340.770049 345.861321 
L 340.770049 344.05845 
L 342.867902 342.243587 
L 344.266472 340.416716 
L 344.499567 338.578277 
L 346.131231 336.728244 
L 346.364326 334.867043 
L 347.762895 332.994787 
L 348.229085 331.111766 
L 349.860749 329.218602 
L 349.860749 327.315472 
L 350.093844 325.402923 
L 350.093844 323.481598 
L 352.191698 321.551777 
L 353.590267 319.614075 
L 354.755741 317.668802 
L 355.688121 315.71699 
L 357.319785 313.758936 
L 357.785975 311.795286 
L 361.981682 307.853336 
L 363.380252 305.876174 
L 364.312631 303.896275 
L 364.312631 301.914219 
L 365.011916 299.930543 
L 365.478106 297.946066 
L 366.876675 295.961713 
L 370.140003 291.997331 
L 373.869521 288.044709 
L 374.801901 286.075034 
L 378.531419 282.155083 
L 379.463798 280.206747 
L 381.328557 278.26759 
L 381.794747 276.338756 
L 382.727127 274.421783 
L 384.591886 272.518068 
L 385.990455 270.62853 
L 386.689739 268.754426 
L 389.953068 265.058188 
L 391.118542 263.23779 
L 392.750206 261.437458 
L 393.449491 259.658272 
L 395.547345 257.901098 
L 395.547345 256.166431 
L 396.479724 252.766873 
L 396.712819 251.102495 
L 397.179009 249.461786 
L 397.878294 247.844395 
L 397.878294 246.24987 
L 399.276863 244.677276 
L 401.374717 243.125571 
L 402.307096 241.593654 
L 403.472571 240.080128 
L 404.171855 238.58317 
L 406.036614 237.100752 
L 406.735899 235.630863 
L 407.202089 234.170857 
L 408.833753 232.718363 
L 409.999227 231.270699 
L 410.232322 229.824925 
L 411.863986 228.378188 
L 412.097081 226.927787 
L 412.563271 225.470872 
L 413.96184 224.004902 
L 414.89422 222.527198 
L 415.593504 221.035403 
L 416.525884 219.526876 
L 416.992074 218.000018 
L 421.187781 214.884692 
L 423.05254 211.681283 
L 423.751825 210.045541 
L 423.751825 203.292642 
L 424.45111 201.560434 
L 425.849679 199.815591 
L 425.849679 198.061655 
L 426.315869 196.302354 
L 426.315869 194.542232 
L 427.015153 192.785587 
L 428.879912 191.03748 
L 430.278482 189.303045 
L 431.443956 187.587676 
L 432.143241 185.896798 
L 432.143241 184.236046 
L 433.54181 182.611148 
L 435.406569 181.027363 
L 435.406569 179.490386 
L 436.105853 178.004952 
L 438.203707 176.575969 
L 438.902992 175.208174 
L 440.767751 173.905626 
L 441.233941 172.671743 
L 442.16632 171.509801 
L 443.56489 168.477748 
L 444.497269 167.622853 
L 446.828218 166.146894 
L 447.061313 165.523712 
L 449.625356 164.49583 
L 451.490115 164.084924 
L 454.986539 163.448693 
L 455.452728 163.213538 
L 457.084392 163.026495 
L 457.084392 162.881423 
L 463.844144 162.590316 
L 470.83699 162.158073 
L 470.83699 162.004693 
L 472.002465 161.58003 
L 473.167939 161.302469 
L 473.867224 160.978051 
L 475.032698 160.605093 
L 476.664362 159.710552 
L 477.596742 158.62151 
L 478.762216 158.008187 
L 478.762216 157.352325 
L 479.228406 156.657703 
L 480.160785 155.928443 
L 483.657209 154.385879 
L 487.153632 151.947336 
L 487.386727 151.126711 
L 488.319106 150.313476 
L 490.183865 149.514637 
L 490.41696 148.7373 
L 491.349339 147.988278 
L 491.349339 147.274436 
L 493.214098 145.977531 
L 493.447193 145.406478 
L 494.146478 144.894304 
L 495.078858 144.445681 
L 496.244332 144.0649 
L 496.477427 143.75579 
L 496.477427 143.363942 
L 498.109091 143.284846 
L 498.109091 143.284846 
" style="fill:none;stroke:#ff7f0e;stroke-linecap:square;stroke-width:1.5;"/>
   </g>
   <g id="line2d_17">
    <path clip-path="url(#p8f8337b811)" d="M 92.290909 340.037522 
L 102.780179 340.037522 
L 104.644938 336.356124 
L 106.043507 335.904484 
L 107.442076 326.044219 
L 107.908266 326.044219 
L 109.773025 339.828357 
L 110.938499 339.828357 
L 111.171594 360.340596 
L 111.404689 366.483432 
L 112.570163 366.483432 
L 113.036353 380.018367 
L 114.668017 393.246929 
L 116.765871 393.246929 
L 118.397535 407.785105 
L 120.495389 422.645257 
L 121.660864 436.511834 
L 123.525623 442.638341 
L 123.758718 449.856432 
L 145.669636 449.856432 
L 145.669636 446.069086 
L 147.3013 443.628296 
L 149.166059 428.45244 
L 149.166059 405.989115 
L 164.084131 405.989115 
L 165.94889 400.374738 
L 182.265532 400.374738 
L 183.664101 377.380498 
L 183.897196 377.380498 
L 185.06267 370.017966 
L 186.46124 367.974517 
L 193.920276 367.974517 
L 195.08575 404.762224 
L 195.55194 413.026912 
L 197.649794 418.098347 
L 198.815268 440.778495 
L 200.446932 440.778495 
L 200.913122 466.537612 
L 202.078596 492.48 
L 220.259997 492.48 
L 220.959281 491.95121 
L 222.124756 491.95121 
L 222.590946 462.604874 
L 224.6888 462.604874 
L 226.087369 456.032225 
L 229.117602 456.032225 
L 229.117602 455.888571 
L 229.583792 438.960335 
L 230.516171 431.775916 
L 242.40401 431.775916 
L 242.40401 431.775916 
L 242.40401 427.000754 
L 242.8702 424.923814 
L 244.501864 424.923814 
L 244.734959 435.90554 
L 244.734959 435.90554 
L 264.781118 435.90554 
L 264.781118 435.90554 
L 266.645877 420.962916 
L 267.578257 420.962916 
L 269.676111 409.213905 
L 270.142301 409.213905 
L 270.60849 419.935759 
L 272.240155 439.243258 
L 272.939439 443.08939 
L 276.202767 443.08939 
L 278.300621 445.089992 
L 279.466096 466.643871 
L 282.030139 466.643871 
L 282.496329 469.027482 
L 284.361088 480.529072 
L 307.903671 480.529072 
L 308.136766 476.060775 
L 308.369861 463.613786 
L 309.535335 460.938773 
L 311.166999 460.118094 
L 312.332474 426.0741 
L 313.264853 421.892453 
L 316.061992 421.892453 
L 316.528181 415.526351 
L 325.385787 415.526351 
L 326.551261 414.808616 
L 328.88221 414.808616 
L 329.581494 400.185483 
L 330.047684 387.597917 
L 330.746969 385.828166 
L 335.408866 385.828166 
L 337.040531 381.498003 
L 337.040531 371.694824 
L 337.50672 371.694824 
L 338.90529 374.921069 
L 357.785975 374.921069 
L 359.883829 371.990497 
L 361.981682 371.990497 
L 363.380252 347.453903 
L 364.312631 339.565212 
L 364.312631 327.178502 
L 365.011916 328.699897 
L 391.118542 328.699897 
L 392.750206 328.289923 
L 393.449491 328.289923 
L 395.547345 321.470555 
L 396.013535 276.728415 
L 396.479724 271.125175 
L 404.171855 271.125175 
L 406.036614 252.494654 
L 406.735899 244.001504 
L 410.232322 244.001504 
L 411.863986 239.748906 
L 412.097081 247.057596 
L 412.563271 248.812013 
L 413.96184 289.519501 
L 414.89422 299.554908 
L 428.879912 299.554908 
L 430.278482 283.493889 
L 431.443956 272.269751 
L 432.143241 259.488893 
L 432.143241 250.054798 
L 433.54181 245.5192 
L 435.406569 244.516958 
L 435.406569 224.799604 
L 436.105853 212.904075 
L 438.203707 195.130024 
L 442.63251 195.130024 
L 443.0987 191.467675 
L 443.56489 179.510761 
L 444.497269 164.296581 
L 447.061313 164.296581 
L 448.459882 173.779228 
L 459.881531 173.779228 
L 461.979385 187.332015 
L 463.844144 226.757803 
L 464.543429 230.27701 
L 465.242713 232.092061 
L 465.242713 237.339836 
L 481.792449 237.339836 
L 483.657209 227.32719 
L 484.822683 225.496753 
L 485.988157 217.402907 
L 490.41696 217.402907 
L 491.349339 183.671705 
L 491.349339 179.224025 
L 492.281719 175.463474 
L 493.214098 172.372038 
L 493.447193 150.951949 
L 494.146478 150.951949 
L 495.078858 148.76343 
L 496.477427 148.76343 
L 496.477427 148.76343 
L 496.477427 129.953966 
L 498.109091 129.953966 
L 498.109091 129.953966 
" style="fill:none;stroke:#2ca02c;stroke-linecap:square;stroke-width:1.5;"/>
   </g>
   <g id="line2d_18">
    <path clip-path="url(#p8f8337b811)" d="M 92.290909 295.831148 
L 94.388763 292.581284 
L 104.644938 292.581284 
L 106.043507 288.233203 
L 128.886805 288.233203 
L 130.518469 297.863296 
L 132.383228 323.983255 
L 132.383228 328.835928 
L 133.781797 328.835928 
L 134.947272 354.514688 
L 137.27822 354.514688 
L 138.909885 352.890943 
L 155.226526 352.890943 
L 155.692716 335.171194 
L 155.692716 335.171194 
L 155.692716 321.512034 
L 167.580555 321.512034 
L 168.746029 316.326211 
L 170.144598 306.979041 
L 192.521706 306.979041 
L 193.920276 310.662639 
L 195.08575 310.662639 
L 195.55194 314.496764 
L 200.913122 314.496764 
L 202.078596 323.966083 
L 202.777881 324.18259 
L 202.777881 330.027535 
L 211.868581 330.027535 
L 213.73334 332.657298 
L 214.432625 336.132475 
L 214.432625 365.167754 
L 215.598099 396.355386 
L 215.598099 396.355386 
L 217.229763 396.355386 
L 217.929048 392.672917 
L 230.516171 392.672917 
L 230.982361 376.527629 
L 232.38093 372.079586 
L 238.674492 372.079586 
L 239.606872 361.037585 
L 240.772346 361.037585 
L 242.40401 352.741452 
L 242.40401 352.741452 
L 261.51779 352.741452 
L 263.382549 362.337872 
L 263.848739 313.014674 
L 264.781118 299.536848 
L 264.781118 291.533709 
L 285.293468 291.533709 
L 285.293468 291.533709 
L 287.158227 327.66385 
L 289.256081 355.985094 
L 290.887745 355.985094 
L 292.053219 386.103174 
L 295.083453 386.103174 
L 296.482022 364.805765 
L 297.880591 360.727412 
L 299.512255 355.156818 
L 319.32532 355.156818 
L 319.32532 334.800965 
L 319.558415 334.748297 
L 319.558415 330.877634 
L 330.746969 330.877634 
L 332.844823 328.050148 
L 344.266472 328.050148 
L 344.499567 327.178502 
L 346.131231 306.58628 
L 346.364326 300.740363 
L 347.762895 286.51286 
L 348.229085 271.028155 
L 349.860749 262.445169 
L 349.860749 262.445169 
L 370.140003 262.445169 
L 372.004762 271.787224 
L 373.869521 261.275177 
L 374.801901 250.763476 
L 376.66666 239.917095 
L 388.321404 239.917095 
L 389.953068 227.188587 
L 391.118542 221.505966 
L 392.750206 219.400172 
L 393.449491 219.400172 
L 395.547345 215.796994 
L 395.547345 215.796994 
L 396.013535 212.528586 
L 396.479724 212.528586 
L 396.712819 210.094256 
L 397.179009 210.094256 
L 397.878294 204.787807 
L 397.878294 204.787807 
L 399.276863 204.787807 
L 401.374717 179.223419 
L 421.187781 179.223419 
L 422.120161 192.101197 
L 423.05254 195.728319 
L 423.751825 195.728319 
L 423.751825 167.829375 
L 423.751825 167.829375 
L 426.315869 167.829375 
L 426.315869 141.763458 
L 428.879912 141.763458 
L 430.278482 134.615224 
L 431.443956 117.419807 
L 432.143241 112.977159 
L 432.143241 109.162581 
L 433.54181 109.162581 
L 435.406569 99.258635 
L 435.406569 96.576061 
L 436.105853 90.356865 
L 457.084392 90.356865 
L 457.084392 91.777751 
L 458.949151 101.424451 
L 459.881531 101.424451 
L 461.979385 120.083019 
L 463.844144 129.141903 
L 470.83699 129.141903 
L 470.83699 140.143534 
L 470.83699 140.143534 
L 475.032698 140.143534 
L 475.731983 162.430856 
L 476.664362 169.250692 
L 477.130552 150.838991 
L 477.596742 150.838991 
L 478.762216 133.448351 
L 478.762216 112.409814 
L 483.657209 112.409814 
L 484.822683 100.351638 
L 488.319106 100.351638 
L 490.41696 99.724154 
L 491.349339 90.814052 
L 491.349339 89.28 
L 498.109091 89.28 
L 498.109091 89.28 
" style="fill:none;stroke:#d62728;stroke-linecap:square;stroke-width:1.5;"/>
   </g>
   <g id="line2d_19">
    <path clip-path="url(#p8f8337b811)" d="M 92.290909 321.80698 
L 96.719712 321.80698 
L 96.719712 320.573734 
L 98.584471 320.573734 
L 99.050661 314.870928 
L 99.98304 313.948448 
L 101.847799 313.770138 
L 102.780179 309.000983 
L 104.644938 306.047712 
L 106.043507 305.462819 
L 111.404689 305.432097 
L 112.570163 305.462819 
L 113.036353 306.047712 
L 114.668017 309.000983 
L 116.765871 309.000983 
L 118.397535 313.770138 
L 120.495389 323.983255 
L 121.660864 328.835928 
L 123.525623 339.828357 
L 123.758718 354.514688 
L 125.157287 360.340596 
L 127.255141 366.483432 
L 128.886805 391.403224 
L 140.774644 391.403224 
L 141.940118 388.676832 
L 141.940118 383.150154 
L 143.804877 382.820301 
L 143.804877 382.820301 
L 145.669636 382.692036 
L 145.669636 382.692036 
L 149.166059 382.692036 
L 149.166059 382.692036 
L 152.196293 382.555819 
L 153.594862 382.555819 
L 153.594862 382.045053 
L 155.226526 380.257649 
L 155.692716 376.536347 
L 155.692716 374.518588 
L 157.32438 374.518588 
L 157.79057 372.76996 
L 159.189139 369.378491 
L 161.053898 369.378491 
L 161.286993 368.03719 
L 165.94889 368.03719 
L 166.181985 367.594206 
L 166.648175 359.423458 
L 168.746029 355.887335 
L 170.144598 348.597593 
L 171.776262 348.597593 
L 172.941737 349.535526 
L 175.039591 355.887335 
L 179.235298 355.887335 
L 180.866963 349.535526 
L 181.333152 348.597593 
L 186.46124 348.597593 
L 188.092904 345.953586 
L 190.190758 343.725653 
L 190.890042 332.657298 
L 192.521706 336.132475 
L 193.920276 343.725653 
L 195.08575 345.953586 
L 195.55194 349.358093 
L 197.649794 349.535526 
L 198.815268 353.406406 
L 200.446932 353.406406 
L 200.913122 353.889833 
L 202.078596 355.866505 
L 202.777881 357.488355 
L 202.777881 365.167754 
L 204.64264 367.974517 
L 205.10883 404.762224 
L 206.740494 413.026912 
L 208.372158 420.490003 
L 210.236917 440.778495 
L 211.868581 446.299076 
L 219.793807 446.299076 
L 220.259997 438.960335 
L 220.959281 418.530016 
L 222.124756 416.967976 
L 227.719033 416.93705 
L 227.719033 416.638071 
L 229.117602 416.214275 
L 229.117602 412.117976 
L 229.583792 411.167272 
L 233.7795 411.167272 
L 235.411164 410.502722 
L 235.877354 406.392326 
L 236.809733 396.818888 
L 238.674492 396.818888 
L 239.606872 395.6624 
L 242.40401 394.682379 
L 242.40401 392.530913 
L 254.758039 392.530913 
L 256.855893 390.167288 
L 258.487557 388.80523 
L 263.848739 388.80523 
L 263.848739 385.935531 
L 264.781118 384.843948 
L 264.781118 384.350138 
L 266.645877 383.621932 
L 267.112067 383.082961 
L 267.578257 379.277257 
L 269.676111 377.42047 
L 279.466096 377.42047 
L 280.864665 379.277257 
L 280.864665 379.277257 
L 282.030139 390.885211 
L 282.496329 419.935759 
L 285.293468 439.243258 
L 287.158227 443.08939 
L 289.256081 445.089992 
L 301.143919 445.089992 
L 301.610109 426.0741 
L 302.309394 421.892453 
L 305.572722 400.973848 
L 306.505102 395.623257 
L 312.332474 395.623257 
L 313.264853 387.597917 
L 315.362707 387.597917 
L 316.061992 387.40651 
L 316.528181 386.132386 
L 316.528181 383.477504 
L 318.159845 385.828166 
L 319.558415 385.828166 
L 319.558415 381.498003 
L 319.79151 381.498003 
L 320.490794 380.049034 
L 322.588648 380.049034 
L 323.987217 373.895274 
L 325.385787 371.597283 
L 326.551261 366.839578 
L 327.250546 364.96491 
L 328.88221 362.076228 
L 329.581494 361.888422 
L 330.047684 357.063675 
L 330.746969 356.8077 
L 332.844823 353.236808 
L 333.311012 353.131556 
L 333.544107 351.44944 
L 337.040531 351.44944 
L 337.040531 351.44944 
L 337.50672 353.131556 
L 338.90529 353.236808 
L 340.770049 354.373486 
L 340.770049 357.063675 
L 342.867902 354.373486 
L 344.499567 353.131556 
L 346.131231 353.131556 
L 346.364326 351.44944 
L 347.762895 351.158739 
L 348.229085 350.76637 
L 349.860749 347.453903 
L 349.860749 339.565212 
L 350.093844 339.565212 
L 350.093844 339.565212 
L 352.191698 327.178502 
L 353.590267 306.799391 
L 354.755741 306.58628 
L 355.688121 300.740363 
L 357.319785 299.436258 
L 357.785975 297.410564 
L 359.883829 288.824144 
L 361.981682 287.00925 
L 363.380252 286.51286 
L 366.876675 286.51286 
L 368.508339 287.00925 
L 370.140003 288.824144 
L 374.801901 288.824144 
L 378.531419 281.213132 
L 379.463798 281.213132 
L 381.328557 276.728415 
L 381.794747 274.854068 
L 382.727127 272.121694 
L 384.591886 271.787224 
L 385.990455 271.125175 
L 386.689739 270.365478 
L 388.321404 261.548092 
L 389.953068 261.275177 
L 391.118542 253.582912 
L 392.750206 252.494654 
L 393.449491 250.763476 
L 395.547345 248.531259 
L 395.547345 248.310836 
L 396.479724 244.001504 
L 396.712819 240.786513 
L 397.179009 239.917095 
L 397.878294 226.473514 
L 399.276863 221.505966 
L 401.374717 220.486276 
L 402.307096 219.400172 
L 403.472571 216.287874 
L 404.171855 215.796994 
L 406.036614 215.796994 
L 406.735899 214.995169 
L 412.563271 214.995169 
L 413.96184 216.287874 
L 414.89422 216.287874 
L 415.593504 220.829332 
L 416.525884 223.297561 
L 416.992074 226.014197 
L 419.089927 230.754663 
L 421.187781 239.380703 
L 422.120161 239.748906 
L 425.849679 239.748906 
L 425.849679 239.748906 
L 426.315869 224.799604 
L 426.315869 212.904075 
L 427.015153 195.130024 
L 428.879912 191.467675 
L 430.278482 190.767047 
L 431.443956 190.621202 
L 432.143241 186.581216 
L 432.143241 179.510761 
L 433.54181 173.14892 
L 435.406569 167.829375 
L 435.406569 145.68192 
L 436.105853 143.534193 
L 438.203707 141.763458 
L 438.902992 134.615224 
L 440.767751 121.17195 
L 441.233941 120.083019 
L 448.459882 120.083019 
L 449.625356 121.17195 
L 451.490115 129.141903 
L 453.587969 131.619093 
L 454.986539 134.985692 
L 455.452728 140.143534 
L 457.084392 143.883921 
L 457.084392 149.866782 
L 458.949151 151.139907 
L 459.881531 152.813788 
L 461.979385 157.666083 
L 463.844144 158.548706 
L 464.543429 161.193362 
L 465.242713 162.430856 
L 465.242713 164.296581 
L 467.340567 166.393763 
L 468.739136 169.250692 
L 470.83699 170.362076 
L 470.83699 173.779228 
L 471.30318 187.332015 
L 472.002465 204.221838 
L 473.167939 208.111124 
L 478.762216 208.111124 
L 478.762216 208.111124 
L 479.228406 204.221838 
L 480.160785 183.671705 
L 481.792449 179.224025 
L 483.657209 175.463474 
L 484.822683 172.372038 
L 485.988157 150.951949 
L 487.153632 150.838991 
L 487.386727 148.76343 
L 488.319106 133.448351 
L 490.183865 129.953966 
L 490.41696 128.996224 
L 491.349339 115.15824 
L 492.281719 115.113786 
L 493.214098 112.409814 
L 493.447193 109.493476 
L 494.146478 105.976113 
L 495.078858 104.826161 
L 498.109091 104.826161 
L 498.109091 104.826161 
" style="fill:none;stroke:#9467bd;stroke-linecap:square;stroke-width:1.5;"/>
   </g>
   <g id="patch_3">
    <path d="M 72 512.64 
L 72 69.12 
" style="fill:none;stroke:#000000;stroke-linecap:square;stroke-linejoin:miter;stroke-width:0.8;"/>
   </g>
   <g id="patch_4">
    <path d="M 518.4 512.64 
L 518.4 69.12 
" style="fill:none;stroke:#000000;stroke-linecap:square;stroke-linejoin:miter;stroke-width:0.8;"/>
   </g>
   <g id="patch_5">
    <path d="M 72 512.64 
L 518.4 512.64 
" style="fill:none;stroke:#000000;stroke-linecap:square;stroke-linejoin:miter;stroke-width:0.8;"/>
   </g>
   <g id="patch_6">
    <path d="M 72 69.12 
L 518.4 69.12 
" style="fill:none;stroke:#000000;stroke-linecap:square;stroke-linejoin:miter;stroke-width:0.8;"/>
   </g>
   <g id="legend_1">
    <g id="patch_7">
     <path d="M 79 165.18875 
L 203.94375 165.18875 
Q 205.94375 165.18875 205.94375 163.18875 
L 205.94375 76.12 
Q 205.94375 74.12 203.94375 74.12 
L 79 74.12 
Q 77 74.12 77 76.12 
L 77 163.18875 
Q 77 165.18875 79 165.18875 
z
" style="fill:#ffffff;opacity:0.8;stroke:#cccccc;stroke-linejoin:miter;"/>
    </g>
    <g id="line2d_20">
     <path d="M 81 82.218438 
L 101 82.218438 
" style="fill:none;stroke:#1f77b4;stroke-linecap:square;stroke-width:1.5;"/>
    </g>
    <g id="line2d_21"/>
    <g id="text_17">
     <!-- Uniform size=20 -->
     <g transform="translate(109 85.718438)scale(0.1 -0.1)">
      <defs>
       <path d="M 556 4666 
L 1191 4666 
L 1191 1831 
Q 1191 1081 1462 751 
Q 1734 422 2344 422 
Q 2950 422 3222 751 
Q 3494 1081 3494 1831 
L 3494 4666 
L 4128 4666 
L 4128 1753 
Q 4128 841 3676 375 
Q 3225 -91 2344 -91 
Q 1459 -91 1007 375 
Q 556 841 556 1753 
L 556 4666 
z
" id="DejaVuSans-55" transform="scale(0.015625)"/>
       <path d="M 3513 2113 
L 3513 0 
L 2938 0 
L 2938 2094 
Q 2938 2591 2744 2837 
Q 2550 3084 2163 3084 
Q 1697 3084 1428 2787 
Q 1159 2491 1159 1978 
L 1159 0 
L 581 0 
L 581 3500 
L 1159 3500 
L 1159 2956 
Q 1366 3272 1645 3428 
Q 1925 3584 2291 3584 
Q 2894 3584 3203 3211 
Q 3513 2838 3513 2113 
z
" id="DejaVuSans-6e" transform="scale(0.015625)"/>
       <path d="M 2375 4863 
L 2375 4384 
L 1825 4384 
Q 1516 4384 1395 4259 
Q 1275 4134 1275 3809 
L 1275 3500 
L 2222 3500 
L 2222 3053 
L 1275 3053 
L 1275 0 
L 697 0 
L 697 3053 
L 147 3053 
L 147 3500 
L 697 3500 
L 697 3744 
Q 697 4328 969 4595 
Q 1241 4863 1831 4863 
L 2375 4863 
z
" id="DejaVuSans-66" transform="scale(0.015625)"/>
       <path d="M 1959 3097 
Q 1497 3097 1228 2736 
Q 959 2375 959 1747 
Q 959 1119 1226 758 
Q 1494 397 1959 397 
Q 2419 397 2687 759 
Q 2956 1122 2956 1747 
Q 2956 2369 2687 2733 
Q 2419 3097 1959 3097 
z
M 1959 3584 
Q 2709 3584 3137 3096 
Q 3566 2609 3566 1747 
Q 3566 888 3137 398 
Q 2709 -91 1959 -91 
Q 1206 -91 779 398 
Q 353 888 353 1747 
Q 353 2609 779 3096 
Q 1206 3584 1959 3584 
z
" id="DejaVuSans-6f" transform="scale(0.015625)"/>
       <path d="M 2631 2963 
Q 2534 3019 2420 3045 
Q 2306 3072 2169 3072 
Q 1681 3072 1420 2755 
Q 1159 2438 1159 1844 
L 1159 0 
L 581 0 
L 581 3500 
L 1159 3500 
L 1159 2956 
Q 1341 3275 1631 3429 
Q 1922 3584 2338 3584 
Q 2397 3584 2469 3576 
Q 2541 3569 2628 3553 
L 2631 2963 
z
" id="DejaVuSans-72" transform="scale(0.015625)"/>
       <path id="DejaVuSans-20" transform="scale(0.015625)"/>
       <path d="M 2834 3397 
L 2834 2853 
Q 2591 2978 2328 3040 
Q 2066 3103 1784 3103 
Q 1356 3103 1142 2972 
Q 928 2841 928 2578 
Q 928 2378 1081 2264 
Q 1234 2150 1697 2047 
L 1894 2003 
Q 2506 1872 2764 1633 
Q 3022 1394 3022 966 
Q 3022 478 2636 193 
Q 2250 -91 1575 -91 
Q 1294 -91 989 -36 
Q 684 19 347 128 
L 347 722 
Q 666 556 975 473 
Q 1284 391 1588 391 
Q 1994 391 2212 530 
Q 2431 669 2431 922 
Q 2431 1156 2273 1281 
Q 2116 1406 1581 1522 
L 1381 1569 
Q 847 1681 609 1914 
Q 372 2147 372 2553 
Q 372 3047 722 3315 
Q 1072 3584 1716 3584 
Q 2034 3584 2315 3537 
Q 2597 3491 2834 3397 
z
" id="DejaVuSans-73" transform="scale(0.015625)"/>
       <path d="M 353 3500 
L 3084 3500 
L 3084 2975 
L 922 459 
L 3084 459 
L 3084 0 
L 275 0 
L 275 525 
L 2438 3041 
L 353 3041 
L 353 3500 
z
" id="DejaVuSans-7a" transform="scale(0.015625)"/>
       <path d="M 678 2906 
L 4684 2906 
L 4684 2381 
L 678 2381 
L 678 2906 
z
M 678 1631 
L 4684 1631 
L 4684 1100 
L 678 1100 
L 678 1631 
z
" id="DejaVuSans-3d" transform="scale(0.015625)"/>
      </defs>
      <use xlink:href="#DejaVuSans-55"/>
      <use x="73.193359" xlink:href="#DejaVuSans-6e"/>
      <use x="136.572266" xlink:href="#DejaVuSans-69"/>
      <use x="164.355469" xlink:href="#DejaVuSans-66"/>
      <use x="199.560547" xlink:href="#DejaVuSans-6f"/>
      <use x="260.742188" xlink:href="#DejaVuSans-72"/>
      <use x="300.105469" xlink:href="#DejaVuSans-6d"/>
      <use x="397.517578" xlink:href="#DejaVuSans-20"/>
      <use x="429.304688" xlink:href="#DejaVuSans-73"/>
      <use x="481.404297" xlink:href="#DejaVuSans-69"/>
      <use x="509.1875" xlink:href="#DejaVuSans-7a"/>
      <use x="561.677734" xlink:href="#DejaVuSans-65"/>
      <use x="623.201172" xlink:href="#DejaVuSans-3d"/>
      <use x="706.990234" xlink:href="#DejaVuSans-32"/>
      <use x="770.613281" xlink:href="#DejaVuSans-30"/>
     </g>
    </g>
    <g id="line2d_22">
     <path d="M 81 96.896563 
L 101 96.896563 
" style="fill:none;stroke:#ff7f0e;stroke-linecap:square;stroke-width:1.5;"/>
    </g>
    <g id="line2d_23"/>
    <g id="text_18">
     <!-- Gaussian $\sigma$=20 -->
     <g transform="translate(109 100.396563)scale(0.1 -0.1)">
      <defs>
       <path d="M 3809 666 
L 3809 1919 
L 2778 1919 
L 2778 2438 
L 4434 2438 
L 4434 434 
Q 4069 175 3628 42 
Q 3188 -91 2688 -91 
Q 1594 -91 976 548 
Q 359 1188 359 2328 
Q 359 3472 976 4111 
Q 1594 4750 2688 4750 
Q 3144 4750 3555 4637 
Q 3966 4525 4313 4306 
L 4313 3634 
Q 3963 3931 3569 4081 
Q 3175 4231 2741 4231 
Q 1884 4231 1454 3753 
Q 1025 3275 1025 2328 
Q 1025 1384 1454 906 
Q 1884 428 2741 428 
Q 3075 428 3337 486 
Q 3600 544 3809 666 
z
" id="DejaVuSans-47" transform="scale(0.015625)"/>
       <path d="M 2219 3044 
Q 1744 3044 1422 2700 
Q 1081 2341 969 1747 
Q 844 1119 1044 756 
Q 1241 397 1706 397 
Q 2166 397 2503 759 
Q 2844 1122 2966 1747 
Q 3075 2319 2881 2700 
Q 2700 3044 2219 3044 
z
M 2309 3503 
L 4219 3500 
L 4106 2925 
L 3463 2925 
Q 3706 2438 3575 1747 
Q 3406 888 2884 400 
Q 2359 -91 1609 -91 
Q 856 -91 525 400 
Q 194 888 363 1747 
Q 528 2609 1050 3097 
Q 1484 3503 2309 3503 
z
" id="DejaVuSans-Oblique-3c3" transform="scale(0.015625)"/>
      </defs>
      <use transform="translate(0 0.015625)" xlink:href="#DejaVuSans-47"/>
      <use transform="translate(77.490234 0.015625)" xlink:href="#DejaVuSans-61"/>
      <use transform="translate(138.769531 0.015625)" xlink:href="#DejaVuSans-75"/>
      <use transform="translate(202.148438 0.015625)" xlink:href="#DejaVuSans-73"/>
      <use transform="translate(254.248047 0.015625)" xlink:href="#DejaVuSans-73"/>
      <use transform="translate(306.347656 0.015625)" xlink:href="#DejaVuSans-69"/>
      <use transform="translate(334.130859 0.015625)" xlink:href="#DejaVuSans-61"/>
      <use transform="translate(395.410156 0.015625)" xlink:href="#DejaVuSans-6e"/>
      <use transform="translate(458.789062 0.015625)" xlink:href="#DejaVuSans-20"/>
      <use transform="translate(490.576172 0.015625)" xlink:href="#DejaVuSans-Oblique-3c3"/>
      <use transform="translate(553.955078 0.015625)" xlink:href="#DejaVuSans-3d"/>
      <use transform="translate(637.744141 0.015625)" xlink:href="#DejaVuSans-32"/>
      <use transform="translate(701.367188 0.015625)" xlink:href="#DejaVuSans-30"/>
     </g>
    </g>
    <g id="line2d_24">
     <path d="M 81 111.574688 
L 101 111.574688 
" style="fill:none;stroke:#2ca02c;stroke-linecap:square;stroke-width:1.5;"/>
    </g>
    <g id="line2d_25"/>
    <g id="text_19">
     <!-- Minimum size=20 -->
     <g transform="translate(109 115.074688)scale(0.1 -0.1)">
      <defs>
       <path d="M 628 4666 
L 1569 4666 
L 2759 1491 
L 3956 4666 
L 4897 4666 
L 4897 0 
L 4281 0 
L 4281 4097 
L 3078 897 
L 2444 897 
L 1241 4097 
L 1241 0 
L 628 0 
L 628 4666 
z
" id="DejaVuSans-4d" transform="scale(0.015625)"/>
      </defs>
      <use xlink:href="#DejaVuSans-4d"/>
      <use x="86.279297" xlink:href="#DejaVuSans-69"/>
      <use x="114.0625" xlink:href="#DejaVuSans-6e"/>
      <use x="177.441406" xlink:href="#DejaVuSans-69"/>
      <use x="205.224609" xlink:href="#DejaVuSans-6d"/>
      <use x="302.636719" xlink:href="#DejaVuSans-75"/>
      <use x="366.015625" xlink:href="#DejaVuSans-6d"/>
      <use x="463.427734" xlink:href="#DejaVuSans-20"/>
      <use x="495.214844" xlink:href="#DejaVuSans-73"/>
      <use x="547.314453" xlink:href="#DejaVuSans-69"/>
      <use x="575.097656" xlink:href="#DejaVuSans-7a"/>
      <use x="627.587891" xlink:href="#DejaVuSans-65"/>
      <use x="689.111328" xlink:href="#DejaVuSans-3d"/>
      <use x="772.900391" xlink:href="#DejaVuSans-32"/>
      <use x="836.523438" xlink:href="#DejaVuSans-30"/>
     </g>
    </g>
    <g id="line2d_26">
     <path d="M 81 126.252813 
L 101 126.252813 
" style="fill:none;stroke:#d62728;stroke-linecap:square;stroke-width:1.5;"/>
    </g>
    <g id="line2d_27"/>
    <g id="text_20">
     <!-- Maximum size=20 -->
     <g transform="translate(109 129.752813)scale(0.1 -0.1)">
      <defs>
       <path d="M 3513 3500 
L 2247 1797 
L 3578 0 
L 2900 0 
L 1881 1375 
L 863 0 
L 184 0 
L 1544 1831 
L 300 3500 
L 978 3500 
L 1906 2253 
L 2834 3500 
L 3513 3500 
z
" id="DejaVuSans-78" transform="scale(0.015625)"/>
      </defs>
      <use xlink:href="#DejaVuSans-4d"/>
      <use x="86.279297" xlink:href="#DejaVuSans-61"/>
      <use x="147.558594" xlink:href="#DejaVuSans-78"/>
      <use x="206.738281" xlink:href="#DejaVuSans-69"/>
      <use x="234.521484" xlink:href="#DejaVuSans-6d"/>
      <use x="331.933594" xlink:href="#DejaVuSans-75"/>
      <use x="395.3125" xlink:href="#DejaVuSans-6d"/>
      <use x="492.724609" xlink:href="#DejaVuSans-20"/>
      <use x="524.511719" xlink:href="#DejaVuSans-73"/>
      <use x="576.611328" xlink:href="#DejaVuSans-69"/>
      <use x="604.394531" xlink:href="#DejaVuSans-7a"/>
      <use x="656.884766" xlink:href="#DejaVuSans-65"/>
      <use x="718.408203" xlink:href="#DejaVuSans-3d"/>
      <use x="802.197266" xlink:href="#DejaVuSans-32"/>
      <use x="865.820312" xlink:href="#DejaVuSans-30"/>
     </g>
    </g>
    <g id="line2d_28">
     <path d="M 81 140.930938 
L 101 140.930938 
" style="fill:none;stroke:#9467bd;stroke-linecap:square;stroke-width:1.5;"/>
    </g>
    <g id="line2d_29"/>
    <g id="text_21">
     <!-- Median size=20 -->
     <g transform="translate(109 144.430938)scale(0.1 -0.1)">
      <defs>
       <path d="M 2906 2969 
L 2906 4863 
L 3481 4863 
L 3481 0 
L 2906 0 
L 2906 525 
Q 2725 213 2448 61 
Q 2172 -91 1784 -91 
Q 1150 -91 751 415 
Q 353 922 353 1747 
Q 353 2572 751 3078 
Q 1150 3584 1784 3584 
Q 2172 3584 2448 3432 
Q 2725 3281 2906 2969 
z
M 947 1747 
Q 947 1113 1208 752 
Q 1469 391 1925 391 
Q 2381 391 2643 752 
Q 2906 1113 2906 1747 
Q 2906 2381 2643 2742 
Q 2381 3103 1925 3103 
Q 1469 3103 1208 2742 
Q 947 2381 947 1747 
z
" id="DejaVuSans-64" transform="scale(0.015625)"/>
      </defs>
      <use xlink:href="#DejaVuSans-4d"/>
      <use x="86.279297" xlink:href="#DejaVuSans-65"/>
      <use x="147.802734" xlink:href="#DejaVuSans-64"/>
      <use x="211.279297" xlink:href="#DejaVuSans-69"/>
      <use x="239.0625" xlink:href="#DejaVuSans-61"/>
      <use x="300.341797" xlink:href="#DejaVuSans-6e"/>
      <use x="363.720703" xlink:href="#DejaVuSans-20"/>
      <use x="395.507812" xlink:href="#DejaVuSans-73"/>
      <use x="447.607422" xlink:href="#DejaVuSans-69"/>
      <use x="475.390625" xlink:href="#DejaVuSans-7a"/>
      <use x="527.880859" xlink:href="#DejaVuSans-65"/>
      <use x="589.404297" xlink:href="#DejaVuSans-3d"/>
      <use x="673.193359" xlink:href="#DejaVuSans-32"/>
      <use x="736.816406" xlink:href="#DejaVuSans-30"/>
     </g>
    </g>
    <g id="PathCollection_2">
     <g>
      <use style="stroke:#000000;" x="91" xlink:href="#mf00a81e853" y="156.484063"/>
     </g>
    </g>
    <g id="text_22">
     <!-- dataset -->
     <g transform="translate(109 159.109063)scale(0.1 -0.1)">
      <defs>
       <path d="M 1172 4494 
L 1172 3500 
L 2356 3500 
L 2356 3053 
L 1172 3053 
L 1172 1153 
Q 1172 725 1289 603 
Q 1406 481 1766 481 
L 2356 481 
L 2356 0 
L 1766 0 
Q 1100 0 847 248 
Q 594 497 594 1153 
L 594 3053 
L 172 3053 
L 172 3500 
L 594 3500 
L 594 4494 
L 1172 4494 
z
" id="DejaVuSans-74" transform="scale(0.015625)"/>
      </defs>
      <use xlink:href="#DejaVuSans-64"/>
      <use x="63.476562" xlink:href="#DejaVuSans-61"/>
      <use x="124.755859" xlink:href="#DejaVuSans-74"/>
      <use x="163.964844" xlink:href="#DejaVuSans-61"/>
      <use x="225.244141" xlink:href="#DejaVuSans-73"/>
      <use x="277.34375" xlink:href="#DejaVuSans-65"/>
      <use x="338.867188" xlink:href="#DejaVuSans-74"/>
     </g>
    </g>
   </g>
  </g>
 </g>
 <defs>
  <clipPath id="p8f8337b811">
   <rect height="443.52" width="446.4" x="72" y="69.12"/>
  </clipPath>
 </defs>
</svg>
