<?xml version="1.0" encoding="utf-8" standalone="no"?>
<!DOCTYPE svg PUBLIC "-//W3C//DTD SVG 1.1//EN"
  "http://www.w3.org/Graphics/SVG/1.1/DTD/svg11.dtd">
<!-- Created with matplotlib (https://matplotlib.org/) -->
<svg height="314.36825pt" version="1.1" viewBox="0 0 424.32625 314.36825" width="424.32625pt" xmlns="http://www.w3.org/2000/svg" xmlns:xlink="http://www.w3.org/1999/xlink">
 <defs>
  <style type="text/css">
*{stroke-linecap:butt;stroke-linejoin:round;}
  </style>
 </defs>
 <g id="figure_1">
  <g id="patch_1">
   <path d="M 0 314.36825 
L 424.32625 314.36825 
L 424.32625 0 
L 0 0 
z
" style="fill:#ffffff;"/>
  </g>
  <g id="axes_1">
   <g id="patch_2">
    <path d="M 56.50625 276.812 
L 413.62625 276.812 
L 413.62625 10.7 
L 56.50625 10.7 
z
" style="fill:#ffffff;"/>
   </g>
   <g id="matplotlib.axis_1">
    <g id="xtick_1">
     <g id="line2d_1">
      <path clip-path="url(#p8e656a196f)" d="M 72.738977 276.812 
L 72.738977 10.7 
" style="fill:none;stroke:#b0b0b0;stroke-linecap:square;stroke-width:0.8;"/>
     </g>
     <g id="line2d_2">
      <defs>
       <path d="M 0 0 
L 0 3.5 
" id="m087c616f94" style="stroke:#000000;stroke-width:0.8;"/>
      </defs>
      <g>
       <use style="stroke:#000000;stroke-width:0.8;" x="72.738977" xlink:href="#m087c616f94" y="276.812"/>
      </g>
     </g>
     <g id="text_1">
      <!-- 0 -->
      <defs>
       <path d="M 31.78125 66.40625 
Q 24.171875 66.40625 20.328125 58.90625 
Q 16.5 51.421875 16.5 36.375 
Q 16.5 21.390625 20.328125 13.890625 
Q 24.171875 6.390625 31.78125 6.390625 
Q 39.453125 6.390625 43.28125 13.890625 
Q 47.125 21.390625 47.125 36.375 
Q 47.125 51.421875 43.28125 58.90625 
Q 39.453125 66.40625 31.78125 66.40625 
z
M 31.78125 74.21875 
Q 44.046875 74.21875 50.515625 64.515625 
Q 56.984375 54.828125 56.984375 36.375 
Q 56.984375 17.96875 50.515625 8.265625 
Q 44.046875 -1.421875 31.78125 -1.421875 
Q 19.53125 -1.421875 13.0625 8.265625 
Q 6.59375 17.96875 6.59375 36.375 
Q 6.59375 54.828125 13.0625 64.515625 
Q 19.53125 74.21875 31.78125 74.21875 
z
" id="DejaVuSans-48"/>
      </defs>
      <g transform="translate(69.557727 291.410438)scale(0.1 -0.1)">
       <use xlink:href="#DejaVuSans-48"/>
      </g>
     </g>
    </g>
    <g id="xtick_2">
     <g id="line2d_3">
      <path clip-path="url(#p8e656a196f)" d="M 128.713899 276.812 
L 128.713899 10.7 
" style="fill:none;stroke:#b0b0b0;stroke-linecap:square;stroke-width:0.8;"/>
     </g>
     <g id="line2d_4">
      <g>
       <use style="stroke:#000000;stroke-width:0.8;" x="128.713899" xlink:href="#m087c616f94" y="276.812"/>
      </g>
     </g>
     <g id="text_2">
      <!-- 10 -->
      <defs>
       <path d="M 12.40625 8.296875 
L 28.515625 8.296875 
L 28.515625 63.921875 
L 10.984375 60.40625 
L 10.984375 69.390625 
L 28.421875 72.90625 
L 38.28125 72.90625 
L 38.28125 8.296875 
L 54.390625 8.296875 
L 54.390625 0 
L 12.40625 0 
z
" id="DejaVuSans-49"/>
      </defs>
      <g transform="translate(122.351399 291.410438)scale(0.1 -0.1)">
       <use xlink:href="#DejaVuSans-49"/>
       <use x="63.623047" xlink:href="#DejaVuSans-48"/>
      </g>
     </g>
    </g>
    <g id="xtick_3">
     <g id="line2d_5">
      <path clip-path="url(#p8e656a196f)" d="M 184.688821 276.812 
L 184.688821 10.7 
" style="fill:none;stroke:#b0b0b0;stroke-linecap:square;stroke-width:0.8;"/>
     </g>
     <g id="line2d_6">
      <g>
       <use style="stroke:#000000;stroke-width:0.8;" x="184.688821" xlink:href="#m087c616f94" y="276.812"/>
      </g>
     </g>
     <g id="text_3">
      <!-- 20 -->
      <defs>
       <path d="M 19.1875 8.296875 
L 53.609375 8.296875 
L 53.609375 0 
L 7.328125 0 
L 7.328125 8.296875 
Q 12.9375 14.109375 22.625 23.890625 
Q 32.328125 33.6875 34.8125 36.53125 
Q 39.546875 41.84375 41.421875 45.53125 
Q 43.3125 49.21875 43.3125 52.78125 
Q 43.3125 58.59375 39.234375 62.25 
Q 35.15625 65.921875 28.609375 65.921875 
Q 23.96875 65.921875 18.8125 64.3125 
Q 13.671875 62.703125 7.8125 59.421875 
L 7.8125 69.390625 
Q 13.765625 71.78125 18.9375 73 
Q 24.125 74.21875 28.421875 74.21875 
Q 39.75 74.21875 46.484375 68.546875 
Q 53.21875 62.890625 53.21875 53.421875 
Q 53.21875 48.921875 51.53125 44.890625 
Q 49.859375 40.875 45.40625 35.40625 
Q 44.1875 33.984375 37.640625 27.21875 
Q 31.109375 20.453125 19.1875 8.296875 
z
" id="DejaVuSans-50"/>
      </defs>
      <g transform="translate(178.326321 291.410438)scale(0.1 -0.1)">
       <use xlink:href="#DejaVuSans-50"/>
       <use x="63.623047" xlink:href="#DejaVuSans-48"/>
      </g>
     </g>
    </g>
    <g id="xtick_4">
     <g id="line2d_7">
      <path clip-path="url(#p8e656a196f)" d="M 240.663742 276.812 
L 240.663742 10.7 
" style="fill:none;stroke:#b0b0b0;stroke-linecap:square;stroke-width:0.8;"/>
     </g>
     <g id="line2d_8">
      <g>
       <use style="stroke:#000000;stroke-width:0.8;" x="240.663742" xlink:href="#m087c616f94" y="276.812"/>
      </g>
     </g>
     <g id="text_4">
      <!-- 30 -->
      <defs>
       <path d="M 40.578125 39.3125 
Q 47.65625 37.796875 51.625 33 
Q 55.609375 28.21875 55.609375 21.1875 
Q 55.609375 10.40625 48.1875 4.484375 
Q 40.765625 -1.421875 27.09375 -1.421875 
Q 22.515625 -1.421875 17.65625 -0.515625 
Q 12.796875 0.390625 7.625 2.203125 
L 7.625 11.71875 
Q 11.71875 9.328125 16.59375 8.109375 
Q 21.484375 6.890625 26.8125 6.890625 
Q 36.078125 6.890625 40.9375 10.546875 
Q 45.796875 14.203125 45.796875 21.1875 
Q 45.796875 27.640625 41.28125 31.265625 
Q 36.765625 34.90625 28.71875 34.90625 
L 20.21875 34.90625 
L 20.21875 43.015625 
L 29.109375 43.015625 
Q 36.375 43.015625 40.234375 45.921875 
Q 44.09375 48.828125 44.09375 54.296875 
Q 44.09375 59.90625 40.109375 62.90625 
Q 36.140625 65.921875 28.71875 65.921875 
Q 24.65625 65.921875 20.015625 65.03125 
Q 15.375 64.15625 9.8125 62.3125 
L 9.8125 71.09375 
Q 15.4375 72.65625 20.34375 73.4375 
Q 25.25 74.21875 29.59375 74.21875 
Q 40.828125 74.21875 47.359375 69.109375 
Q 53.90625 64.015625 53.90625 55.328125 
Q 53.90625 49.265625 50.4375 45.09375 
Q 46.96875 40.921875 40.578125 39.3125 
z
" id="DejaVuSans-51"/>
      </defs>
      <g transform="translate(234.301242 291.410438)scale(0.1 -0.1)">
       <use xlink:href="#DejaVuSans-51"/>
       <use x="63.623047" xlink:href="#DejaVuSans-48"/>
      </g>
     </g>
    </g>
    <g id="xtick_5">
     <g id="line2d_9">
      <path clip-path="url(#p8e656a196f)" d="M 296.638664 276.812 
L 296.638664 10.7 
" style="fill:none;stroke:#b0b0b0;stroke-linecap:square;stroke-width:0.8;"/>
     </g>
     <g id="line2d_10">
      <g>
       <use style="stroke:#000000;stroke-width:0.8;" x="296.638664" xlink:href="#m087c616f94" y="276.812"/>
      </g>
     </g>
     <g id="text_5">
      <!-- 40 -->
      <defs>
       <path d="M 37.796875 64.3125 
L 12.890625 25.390625 
L 37.796875 25.390625 
z
M 35.203125 72.90625 
L 47.609375 72.90625 
L 47.609375 25.390625 
L 58.015625 25.390625 
L 58.015625 17.1875 
L 47.609375 17.1875 
L 47.609375 0 
L 37.796875 0 
L 37.796875 17.1875 
L 4.890625 17.1875 
L 4.890625 26.703125 
z
" id="DejaVuSans-52"/>
      </defs>
      <g transform="translate(290.276164 291.410438)scale(0.1 -0.1)">
       <use xlink:href="#DejaVuSans-52"/>
       <use x="63.623047" xlink:href="#DejaVuSans-48"/>
      </g>
     </g>
    </g>
    <g id="xtick_6">
     <g id="line2d_11">
      <path clip-path="url(#p8e656a196f)" d="M 352.613585 276.812 
L 352.613585 10.7 
" style="fill:none;stroke:#b0b0b0;stroke-linecap:square;stroke-width:0.8;"/>
     </g>
     <g id="line2d_12">
      <g>
       <use style="stroke:#000000;stroke-width:0.8;" x="352.613585" xlink:href="#m087c616f94" y="276.812"/>
      </g>
     </g>
     <g id="text_6">
      <!-- 50 -->
      <defs>
       <path d="M 10.796875 72.90625 
L 49.515625 72.90625 
L 49.515625 64.59375 
L 19.828125 64.59375 
L 19.828125 46.734375 
Q 21.96875 47.46875 24.109375 47.828125 
Q 26.265625 48.1875 28.421875 48.1875 
Q 40.625 48.1875 47.75 41.5 
Q 54.890625 34.8125 54.890625 23.390625 
Q 54.890625 11.625 47.5625 5.09375 
Q 40.234375 -1.421875 26.90625 -1.421875 
Q 22.3125 -1.421875 17.546875 -0.640625 
Q 12.796875 0.140625 7.71875 1.703125 
L 7.71875 11.625 
Q 12.109375 9.234375 16.796875 8.0625 
Q 21.484375 6.890625 26.703125 6.890625 
Q 35.15625 6.890625 40.078125 11.328125 
Q 45.015625 15.765625 45.015625 23.390625 
Q 45.015625 31 40.078125 35.4375 
Q 35.15625 39.890625 26.703125 39.890625 
Q 22.75 39.890625 18.8125 39.015625 
Q 14.890625 38.140625 10.796875 36.28125 
z
" id="DejaVuSans-53"/>
      </defs>
      <g transform="translate(346.251085 291.410438)scale(0.1 -0.1)">
       <use xlink:href="#DejaVuSans-53"/>
       <use x="63.623047" xlink:href="#DejaVuSans-48"/>
      </g>
     </g>
    </g>
    <g id="xtick_7">
     <g id="line2d_13">
      <path clip-path="url(#p8e656a196f)" d="M 408.588507 276.812 
L 408.588507 10.7 
" style="fill:none;stroke:#b0b0b0;stroke-linecap:square;stroke-width:0.8;"/>
     </g>
     <g id="line2d_14">
      <g>
       <use style="stroke:#000000;stroke-width:0.8;" x="408.588507" xlink:href="#m087c616f94" y="276.812"/>
      </g>
     </g>
     <g id="text_7">
      <!-- 60 -->
      <defs>
       <path d="M 33.015625 40.375 
Q 26.375 40.375 22.484375 35.828125 
Q 18.609375 31.296875 18.609375 23.390625 
Q 18.609375 15.53125 22.484375 10.953125 
Q 26.375 6.390625 33.015625 6.390625 
Q 39.65625 6.390625 43.53125 10.953125 
Q 47.40625 15.53125 47.40625 23.390625 
Q 47.40625 31.296875 43.53125 35.828125 
Q 39.65625 40.375 33.015625 40.375 
z
M 52.59375 71.296875 
L 52.59375 62.3125 
Q 48.875 64.0625 45.09375 64.984375 
Q 41.3125 65.921875 37.59375 65.921875 
Q 27.828125 65.921875 22.671875 59.328125 
Q 17.53125 52.734375 16.796875 39.40625 
Q 19.671875 43.65625 24.015625 45.921875 
Q 28.375 48.1875 33.59375 48.1875 
Q 44.578125 48.1875 50.953125 41.515625 
Q 57.328125 34.859375 57.328125 23.390625 
Q 57.328125 12.15625 50.6875 5.359375 
Q 44.046875 -1.421875 33.015625 -1.421875 
Q 20.359375 -1.421875 13.671875 8.265625 
Q 6.984375 17.96875 6.984375 36.375 
Q 6.984375 53.65625 15.1875 63.9375 
Q 23.390625 74.21875 37.203125 74.21875 
Q 40.921875 74.21875 44.703125 73.484375 
Q 48.484375 72.75 52.59375 71.296875 
z
" id="DejaVuSans-54"/>
      </defs>
      <g transform="translate(402.226007 291.410438)scale(0.1 -0.1)">
       <use xlink:href="#DejaVuSans-54"/>
       <use x="63.623047" xlink:href="#DejaVuSans-48"/>
      </g>
     </g>
    </g>
    <g id="text_8">
     <!-- Number of adjacent vertices -->
     <defs>
      <path d="M 9.8125 72.90625 
L 23.09375 72.90625 
L 55.421875 11.921875 
L 55.421875 72.90625 
L 64.984375 72.90625 
L 64.984375 0 
L 51.703125 0 
L 19.390625 60.984375 
L 19.390625 0 
L 9.8125 0 
z
" id="DejaVuSans-78"/>
      <path d="M 8.5 21.578125 
L 8.5 54.6875 
L 17.484375 54.6875 
L 17.484375 21.921875 
Q 17.484375 14.15625 20.5 10.265625 
Q 23.53125 6.390625 29.59375 6.390625 
Q 36.859375 6.390625 41.078125 11.03125 
Q 45.3125 15.671875 45.3125 23.6875 
L 45.3125 54.6875 
L 54.296875 54.6875 
L 54.296875 0 
L 45.3125 0 
L 45.3125 8.40625 
Q 42.046875 3.421875 37.71875 1 
Q 33.40625 -1.421875 27.6875 -1.421875 
Q 18.265625 -1.421875 13.375 4.4375 
Q 8.5 10.296875 8.5 21.578125 
z
M 31.109375 56 
z
" id="DejaVuSans-117"/>
      <path d="M 52 44.1875 
Q 55.375 50.25 60.0625 53.125 
Q 64.75 56 71.09375 56 
Q 79.640625 56 84.28125 50.015625 
Q 88.921875 44.046875 88.921875 33.015625 
L 88.921875 0 
L 79.890625 0 
L 79.890625 32.71875 
Q 79.890625 40.578125 77.09375 44.375 
Q 74.3125 48.1875 68.609375 48.1875 
Q 61.625 48.1875 57.5625 43.546875 
Q 53.515625 38.921875 53.515625 30.90625 
L 53.515625 0 
L 44.484375 0 
L 44.484375 32.71875 
Q 44.484375 40.625 41.703125 44.40625 
Q 38.921875 48.1875 33.109375 48.1875 
Q 26.21875 48.1875 22.15625 43.53125 
Q 18.109375 38.875 18.109375 30.90625 
L 18.109375 0 
L 9.078125 0 
L 9.078125 54.6875 
L 18.109375 54.6875 
L 18.109375 46.1875 
Q 21.1875 51.21875 25.484375 53.609375 
Q 29.78125 56 35.6875 56 
Q 41.65625 56 45.828125 52.96875 
Q 50 49.953125 52 44.1875 
z
" id="DejaVuSans-109"/>
      <path d="M 48.6875 27.296875 
Q 48.6875 37.203125 44.609375 42.84375 
Q 40.53125 48.484375 33.40625 48.484375 
Q 26.265625 48.484375 22.1875 42.84375 
Q 18.109375 37.203125 18.109375 27.296875 
Q 18.109375 17.390625 22.1875 11.75 
Q 26.265625 6.109375 33.40625 6.109375 
Q 40.53125 6.109375 44.609375 11.75 
Q 48.6875 17.390625 48.6875 27.296875 
z
M 18.109375 46.390625 
Q 20.953125 51.265625 25.265625 53.625 
Q 29.59375 56 35.59375 56 
Q 45.5625 56 51.78125 48.09375 
Q 58.015625 40.1875 58.015625 27.296875 
Q 58.015625 14.40625 51.78125 6.484375 
Q 45.5625 -1.421875 35.59375 -1.421875 
Q 29.59375 -1.421875 25.265625 0.953125 
Q 20.953125 3.328125 18.109375 8.203125 
L 18.109375 0 
L 9.078125 0 
L 9.078125 75.984375 
L 18.109375 75.984375 
z
" id="DejaVuSans-98"/>
      <path d="M 56.203125 29.59375 
L 56.203125 25.203125 
L 14.890625 25.203125 
Q 15.484375 15.921875 20.484375 11.0625 
Q 25.484375 6.203125 34.421875 6.203125 
Q 39.59375 6.203125 44.453125 7.46875 
Q 49.3125 8.734375 54.109375 11.28125 
L 54.109375 2.78125 
Q 49.265625 0.734375 44.1875 -0.34375 
Q 39.109375 -1.421875 33.890625 -1.421875 
Q 20.796875 -1.421875 13.15625 6.1875 
Q 5.515625 13.8125 5.515625 26.8125 
Q 5.515625 40.234375 12.765625 48.109375 
Q 20.015625 56 32.328125 56 
Q 43.359375 56 49.78125 48.890625 
Q 56.203125 41.796875 56.203125 29.59375 
z
M 47.21875 32.234375 
Q 47.125 39.59375 43.09375 43.984375 
Q 39.0625 48.390625 32.421875 48.390625 
Q 24.90625 48.390625 20.390625 44.140625 
Q 15.875 39.890625 15.1875 32.171875 
z
" id="DejaVuSans-101"/>
      <path d="M 41.109375 46.296875 
Q 39.59375 47.171875 37.8125 47.578125 
Q 36.03125 48 33.890625 48 
Q 26.265625 48 22.1875 43.046875 
Q 18.109375 38.09375 18.109375 28.8125 
L 18.109375 0 
L 9.078125 0 
L 9.078125 54.6875 
L 18.109375 54.6875 
L 18.109375 46.1875 
Q 20.953125 51.171875 25.484375 53.578125 
Q 30.03125 56 36.53125 56 
Q 37.453125 56 38.578125 55.875 
Q 39.703125 55.765625 41.0625 55.515625 
z
" id="DejaVuSans-114"/>
      <path id="DejaVuSans-32"/>
      <path d="M 30.609375 48.390625 
Q 23.390625 48.390625 19.1875 42.75 
Q 14.984375 37.109375 14.984375 27.296875 
Q 14.984375 17.484375 19.15625 11.84375 
Q 23.34375 6.203125 30.609375 6.203125 
Q 37.796875 6.203125 41.984375 11.859375 
Q 46.1875 17.53125 46.1875 27.296875 
Q 46.1875 37.015625 41.984375 42.703125 
Q 37.796875 48.390625 30.609375 48.390625 
z
M 30.609375 56 
Q 42.328125 56 49.015625 48.375 
Q 55.71875 40.765625 55.71875 27.296875 
Q 55.71875 13.875 49.015625 6.21875 
Q 42.328125 -1.421875 30.609375 -1.421875 
Q 18.84375 -1.421875 12.171875 6.21875 
Q 5.515625 13.875 5.515625 27.296875 
Q 5.515625 40.765625 12.171875 48.375 
Q 18.84375 56 30.609375 56 
z
" id="DejaVuSans-111"/>
      <path d="M 37.109375 75.984375 
L 37.109375 68.5 
L 28.515625 68.5 
Q 23.6875 68.5 21.796875 66.546875 
Q 19.921875 64.59375 19.921875 59.515625 
L 19.921875 54.6875 
L 34.71875 54.6875 
L 34.71875 47.703125 
L 19.921875 47.703125 
L 19.921875 0 
L 10.890625 0 
L 10.890625 47.703125 
L 2.296875 47.703125 
L 2.296875 54.6875 
L 10.890625 54.6875 
L 10.890625 58.5 
Q 10.890625 67.625 15.140625 71.796875 
Q 19.390625 75.984375 28.609375 75.984375 
z
" id="DejaVuSans-102"/>
      <path d="M 34.28125 27.484375 
Q 23.390625 27.484375 19.1875 25 
Q 14.984375 22.515625 14.984375 16.5 
Q 14.984375 11.71875 18.140625 8.90625 
Q 21.296875 6.109375 26.703125 6.109375 
Q 34.1875 6.109375 38.703125 11.40625 
Q 43.21875 16.703125 43.21875 25.484375 
L 43.21875 27.484375 
z
M 52.203125 31.203125 
L 52.203125 0 
L 43.21875 0 
L 43.21875 8.296875 
Q 40.140625 3.328125 35.546875 0.953125 
Q 30.953125 -1.421875 24.3125 -1.421875 
Q 15.921875 -1.421875 10.953125 3.296875 
Q 6 8.015625 6 15.921875 
Q 6 25.140625 12.171875 29.828125 
Q 18.359375 34.515625 30.609375 34.515625 
L 43.21875 34.515625 
L 43.21875 35.40625 
Q 43.21875 41.609375 39.140625 45 
Q 35.0625 48.390625 27.6875 48.390625 
Q 23 48.390625 18.546875 47.265625 
Q 14.109375 46.140625 10.015625 43.890625 
L 10.015625 52.203125 
Q 14.9375 54.109375 19.578125 55.046875 
Q 24.21875 56 28.609375 56 
Q 40.484375 56 46.34375 49.84375 
Q 52.203125 43.703125 52.203125 31.203125 
z
" id="DejaVuSans-97"/>
      <path d="M 45.40625 46.390625 
L 45.40625 75.984375 
L 54.390625 75.984375 
L 54.390625 0 
L 45.40625 0 
L 45.40625 8.203125 
Q 42.578125 3.328125 38.25 0.953125 
Q 33.9375 -1.421875 27.875 -1.421875 
Q 17.96875 -1.421875 11.734375 6.484375 
Q 5.515625 14.40625 5.515625 27.296875 
Q 5.515625 40.1875 11.734375 48.09375 
Q 17.96875 56 27.875 56 
Q 33.9375 56 38.25 53.625 
Q 42.578125 51.265625 45.40625 46.390625 
z
M 14.796875 27.296875 
Q 14.796875 17.390625 18.875 11.75 
Q 22.953125 6.109375 30.078125 6.109375 
Q 37.203125 6.109375 41.296875 11.75 
Q 45.40625 17.390625 45.40625 27.296875 
Q 45.40625 37.203125 41.296875 42.84375 
Q 37.203125 48.484375 30.078125 48.484375 
Q 22.953125 48.484375 18.875 42.84375 
Q 14.796875 37.203125 14.796875 27.296875 
z
" id="DejaVuSans-100"/>
      <path d="M 9.421875 54.6875 
L 18.40625 54.6875 
L 18.40625 -0.984375 
Q 18.40625 -11.421875 14.421875 -16.109375 
Q 10.453125 -20.796875 1.609375 -20.796875 
L -1.8125 -20.796875 
L -1.8125 -13.1875 
L 0.59375 -13.1875 
Q 5.71875 -13.1875 7.5625 -10.8125 
Q 9.421875 -8.453125 9.421875 -0.984375 
z
M 9.421875 75.984375 
L 18.40625 75.984375 
L 18.40625 64.59375 
L 9.421875 64.59375 
z
" id="DejaVuSans-106"/>
      <path d="M 48.78125 52.59375 
L 48.78125 44.1875 
Q 44.96875 46.296875 41.140625 47.34375 
Q 37.3125 48.390625 33.40625 48.390625 
Q 24.65625 48.390625 19.8125 42.84375 
Q 14.984375 37.3125 14.984375 27.296875 
Q 14.984375 17.28125 19.8125 11.734375 
Q 24.65625 6.203125 33.40625 6.203125 
Q 37.3125 6.203125 41.140625 7.25 
Q 44.96875 8.296875 48.78125 10.40625 
L 48.78125 2.09375 
Q 45.015625 0.34375 40.984375 -0.53125 
Q 36.96875 -1.421875 32.421875 -1.421875 
Q 20.0625 -1.421875 12.78125 6.34375 
Q 5.515625 14.109375 5.515625 27.296875 
Q 5.515625 40.671875 12.859375 48.328125 
Q 20.21875 56 33.015625 56 
Q 37.15625 56 41.109375 55.140625 
Q 45.0625 54.296875 48.78125 52.59375 
z
" id="DejaVuSans-99"/>
      <path d="M 54.890625 33.015625 
L 54.890625 0 
L 45.90625 0 
L 45.90625 32.71875 
Q 45.90625 40.484375 42.875 44.328125 
Q 39.84375 48.1875 33.796875 48.1875 
Q 26.515625 48.1875 22.3125 43.546875 
Q 18.109375 38.921875 18.109375 30.90625 
L 18.109375 0 
L 9.078125 0 
L 9.078125 54.6875 
L 18.109375 54.6875 
L 18.109375 46.1875 
Q 21.34375 51.125 25.703125 53.5625 
Q 30.078125 56 35.796875 56 
Q 45.21875 56 50.046875 50.171875 
Q 54.890625 44.34375 54.890625 33.015625 
z
" id="DejaVuSans-110"/>
      <path d="M 18.3125 70.21875 
L 18.3125 54.6875 
L 36.8125 54.6875 
L 36.8125 47.703125 
L 18.3125 47.703125 
L 18.3125 18.015625 
Q 18.3125 11.328125 20.140625 9.421875 
Q 21.96875 7.515625 27.59375 7.515625 
L 36.8125 7.515625 
L 36.8125 0 
L 27.59375 0 
Q 17.1875 0 13.234375 3.875 
Q 9.28125 7.765625 9.28125 18.015625 
L 9.28125 47.703125 
L 2.6875 47.703125 
L 2.6875 54.6875 
L 9.28125 54.6875 
L 9.28125 70.21875 
z
" id="DejaVuSans-116"/>
      <path d="M 2.984375 54.6875 
L 12.5 54.6875 
L 29.59375 8.796875 
L 46.6875 54.6875 
L 56.203125 54.6875 
L 35.6875 0 
L 23.484375 0 
z
" id="DejaVuSans-118"/>
      <path d="M 9.421875 54.6875 
L 18.40625 54.6875 
L 18.40625 0 
L 9.421875 0 
z
M 9.421875 75.984375 
L 18.40625 75.984375 
L 18.40625 64.59375 
L 9.421875 64.59375 
z
" id="DejaVuSans-105"/>
      <path d="M 44.28125 53.078125 
L 44.28125 44.578125 
Q 40.484375 46.53125 36.375 47.5 
Q 32.28125 48.484375 27.875 48.484375 
Q 21.1875 48.484375 17.84375 46.4375 
Q 14.5 44.390625 14.5 40.28125 
Q 14.5 37.15625 16.890625 35.375 
Q 19.28125 33.59375 26.515625 31.984375 
L 29.59375 31.296875 
Q 39.15625 29.25 43.1875 25.515625 
Q 47.21875 21.78125 47.21875 15.09375 
Q 47.21875 7.46875 41.1875 3.015625 
Q 35.15625 -1.421875 24.609375 -1.421875 
Q 20.21875 -1.421875 15.453125 -0.5625 
Q 10.6875 0.296875 5.421875 2 
L 5.421875 11.28125 
Q 10.40625 8.6875 15.234375 7.390625 
Q 20.0625 6.109375 24.8125 6.109375 
Q 31.15625 6.109375 34.5625 8.28125 
Q 37.984375 10.453125 37.984375 14.40625 
Q 37.984375 18.0625 35.515625 20.015625 
Q 33.0625 21.96875 24.703125 23.78125 
L 21.578125 24.515625 
Q 13.234375 26.265625 9.515625 29.90625 
Q 5.8125 33.546875 5.8125 39.890625 
Q 5.8125 47.609375 11.28125 51.796875 
Q 16.75 56 26.8125 56 
Q 31.78125 56 36.171875 55.265625 
Q 40.578125 54.546875 44.28125 53.078125 
z
" id="DejaVuSans-115"/>
     </defs>
     <g transform="translate(163.876406 305.088562)scale(0.1 -0.1)">
      <use xlink:href="#DejaVuSans-78"/>
      <use x="74.804688" xlink:href="#DejaVuSans-117"/>
      <use x="138.183594" xlink:href="#DejaVuSans-109"/>
      <use x="235.595703" xlink:href="#DejaVuSans-98"/>
      <use x="299.072266" xlink:href="#DejaVuSans-101"/>
      <use x="360.595703" xlink:href="#DejaVuSans-114"/>
      <use x="401.708984" xlink:href="#DejaVuSans-32"/>
      <use x="433.496094" xlink:href="#DejaVuSans-111"/>
      <use x="494.677734" xlink:href="#DejaVuSans-102"/>
      <use x="529.882812" xlink:href="#DejaVuSans-32"/>
      <use x="561.669922" xlink:href="#DejaVuSans-97"/>
      <use x="622.949219" xlink:href="#DejaVuSans-100"/>
      <use x="686.425781" xlink:href="#DejaVuSans-106"/>
      <use x="714.208984" xlink:href="#DejaVuSans-97"/>
      <use x="775.488281" xlink:href="#DejaVuSans-99"/>
      <use x="830.46875" xlink:href="#DejaVuSans-101"/>
      <use x="891.992188" xlink:href="#DejaVuSans-110"/>
      <use x="955.371094" xlink:href="#DejaVuSans-116"/>
      <use x="994.580078" xlink:href="#DejaVuSans-32"/>
      <use x="1026.367188" xlink:href="#DejaVuSans-118"/>
      <use x="1085.546875" xlink:href="#DejaVuSans-101"/>
      <use x="1147.070312" xlink:href="#DejaVuSans-114"/>
      <use x="1188.183594" xlink:href="#DejaVuSans-116"/>
      <use x="1227.392578" xlink:href="#DejaVuSans-105"/>
      <use x="1255.175781" xlink:href="#DejaVuSans-99"/>
      <use x="1310.15625" xlink:href="#DejaVuSans-101"/>
      <use x="1371.679688" xlink:href="#DejaVuSans-115"/>
     </g>
    </g>
   </g>
   <g id="matplotlib.axis_2">
    <g id="ytick_1">
     <g id="line2d_15">
      <path clip-path="url(#p8e656a196f)" d="M 56.50625 267.558891 
L 413.62625 267.558891 
" style="fill:none;stroke:#b0b0b0;stroke-linecap:square;stroke-width:0.8;"/>
     </g>
     <g id="line2d_16">
      <defs>
       <path d="M 0 0 
L -3.5 0 
" id="m6be8918094" style="stroke:#000000;stroke-width:0.8;"/>
      </defs>
      <g>
       <use style="stroke:#000000;stroke-width:0.8;" x="56.50625" xlink:href="#m6be8918094" y="267.558891"/>
      </g>
     </g>
     <g id="text_9">
      <!-- 0.000 -->
      <defs>
       <path d="M 10.6875 12.40625 
L 21 12.40625 
L 21 0 
L 10.6875 0 
z
" id="DejaVuSans-46"/>
      </defs>
      <g transform="translate(20.878125 271.35811)scale(0.1 -0.1)">
       <use xlink:href="#DejaVuSans-48"/>
       <use x="63.623047" xlink:href="#DejaVuSans-46"/>
       <use x="95.410156" xlink:href="#DejaVuSans-48"/>
       <use x="159.033203" xlink:href="#DejaVuSans-48"/>
       <use x="222.65625" xlink:href="#DejaVuSans-48"/>
      </g>
     </g>
    </g>
    <g id="ytick_2">
     <g id="line2d_17">
      <path clip-path="url(#p8e656a196f)" d="M 56.50625 231.02234 
L 413.62625 231.02234 
" style="fill:none;stroke:#b0b0b0;stroke-linecap:square;stroke-width:0.8;"/>
     </g>
     <g id="line2d_18">
      <g>
       <use style="stroke:#000000;stroke-width:0.8;" x="56.50625" xlink:href="#m6be8918094" y="231.02234"/>
      </g>
     </g>
     <g id="text_10">
      <!-- 0.025 -->
      <g transform="translate(20.878125 234.821559)scale(0.1 -0.1)">
       <use xlink:href="#DejaVuSans-48"/>
       <use x="63.623047" xlink:href="#DejaVuSans-46"/>
       <use x="95.410156" xlink:href="#DejaVuSans-48"/>
       <use x="159.033203" xlink:href="#DejaVuSans-50"/>
       <use x="222.65625" xlink:href="#DejaVuSans-53"/>
      </g>
     </g>
    </g>
    <g id="ytick_3">
     <g id="line2d_19">
      <path clip-path="url(#p8e656a196f)" d="M 56.50625 194.485789 
L 413.62625 194.485789 
" style="fill:none;stroke:#b0b0b0;stroke-linecap:square;stroke-width:0.8;"/>
     </g>
     <g id="line2d_20">
      <g>
       <use style="stroke:#000000;stroke-width:0.8;" x="56.50625" xlink:href="#m6be8918094" y="194.485789"/>
      </g>
     </g>
     <g id="text_11">
      <!-- 0.050 -->
      <g transform="translate(20.878125 198.285008)scale(0.1 -0.1)">
       <use xlink:href="#DejaVuSans-48"/>
       <use x="63.623047" xlink:href="#DejaVuSans-46"/>
       <use x="95.410156" xlink:href="#DejaVuSans-48"/>
       <use x="159.033203" xlink:href="#DejaVuSans-53"/>
       <use x="222.65625" xlink:href="#DejaVuSans-48"/>
      </g>
     </g>
    </g>
    <g id="ytick_4">
     <g id="line2d_21">
      <path clip-path="url(#p8e656a196f)" d="M 56.50625 157.949239 
L 413.62625 157.949239 
" style="fill:none;stroke:#b0b0b0;stroke-linecap:square;stroke-width:0.8;"/>
     </g>
     <g id="line2d_22">
      <g>
       <use style="stroke:#000000;stroke-width:0.8;" x="56.50625" xlink:href="#m6be8918094" y="157.949239"/>
      </g>
     </g>
     <g id="text_12">
      <!-- 0.075 -->
      <defs>
       <path d="M 8.203125 72.90625 
L 55.078125 72.90625 
L 55.078125 68.703125 
L 28.609375 0 
L 18.3125 0 
L 43.21875 64.59375 
L 8.203125 64.59375 
z
" id="DejaVuSans-55"/>
      </defs>
      <g transform="translate(20.878125 161.748458)scale(0.1 -0.1)">
       <use xlink:href="#DejaVuSans-48"/>
       <use x="63.623047" xlink:href="#DejaVuSans-46"/>
       <use x="95.410156" xlink:href="#DejaVuSans-48"/>
       <use x="159.033203" xlink:href="#DejaVuSans-55"/>
       <use x="222.65625" xlink:href="#DejaVuSans-53"/>
      </g>
     </g>
    </g>
    <g id="ytick_5">
     <g id="line2d_23">
      <path clip-path="url(#p8e656a196f)" d="M 56.50625 121.412688 
L 413.62625 121.412688 
" style="fill:none;stroke:#b0b0b0;stroke-linecap:square;stroke-width:0.8;"/>
     </g>
     <g id="line2d_24">
      <g>
       <use style="stroke:#000000;stroke-width:0.8;" x="56.50625" xlink:href="#m6be8918094" y="121.412688"/>
      </g>
     </g>
     <g id="text_13">
      <!-- 0.100 -->
      <g transform="translate(20.878125 125.211907)scale(0.1 -0.1)">
       <use xlink:href="#DejaVuSans-48"/>
       <use x="63.623047" xlink:href="#DejaVuSans-46"/>
       <use x="95.410156" xlink:href="#DejaVuSans-49"/>
       <use x="159.033203" xlink:href="#DejaVuSans-48"/>
       <use x="222.65625" xlink:href="#DejaVuSans-48"/>
      </g>
     </g>
    </g>
    <g id="ytick_6">
     <g id="line2d_25">
      <path clip-path="url(#p8e656a196f)" d="M 56.50625 84.876137 
L 413.62625 84.876137 
" style="fill:none;stroke:#b0b0b0;stroke-linecap:square;stroke-width:0.8;"/>
     </g>
     <g id="line2d_26">
      <g>
       <use style="stroke:#000000;stroke-width:0.8;" x="56.50625" xlink:href="#m6be8918094" y="84.876137"/>
      </g>
     </g>
     <g id="text_14">
      <!-- 0.125 -->
      <g transform="translate(20.878125 88.675356)scale(0.1 -0.1)">
       <use xlink:href="#DejaVuSans-48"/>
       <use x="63.623047" xlink:href="#DejaVuSans-46"/>
       <use x="95.410156" xlink:href="#DejaVuSans-49"/>
       <use x="159.033203" xlink:href="#DejaVuSans-50"/>
       <use x="222.65625" xlink:href="#DejaVuSans-53"/>
      </g>
     </g>
    </g>
    <g id="ytick_7">
     <g id="line2d_27">
      <path clip-path="url(#p8e656a196f)" d="M 56.50625 48.339587 
L 413.62625 48.339587 
" style="fill:none;stroke:#b0b0b0;stroke-linecap:square;stroke-width:0.8;"/>
     </g>
     <g id="line2d_28">
      <g>
       <use style="stroke:#000000;stroke-width:0.8;" x="56.50625" xlink:href="#m6be8918094" y="48.339587"/>
      </g>
     </g>
     <g id="text_15">
      <!-- 0.150 -->
      <g transform="translate(20.878125 52.138805)scale(0.1 -0.1)">
       <use xlink:href="#DejaVuSans-48"/>
       <use x="63.623047" xlink:href="#DejaVuSans-46"/>
       <use x="95.410156" xlink:href="#DejaVuSans-49"/>
       <use x="159.033203" xlink:href="#DejaVuSans-53"/>
       <use x="222.65625" xlink:href="#DejaVuSans-48"/>
      </g>
     </g>
    </g>
    <g id="ytick_8">
     <g id="line2d_29">
      <path clip-path="url(#p8e656a196f)" d="M 56.50625 11.803036 
L 413.62625 11.803036 
" style="fill:none;stroke:#b0b0b0;stroke-linecap:square;stroke-width:0.8;"/>
     </g>
     <g id="line2d_30">
      <g>
       <use style="stroke:#000000;stroke-width:0.8;" x="56.50625" xlink:href="#m6be8918094" y="11.803036"/>
      </g>
     </g>
     <g id="text_16">
      <!-- 0.175 -->
      <g transform="translate(20.878125 15.602255)scale(0.1 -0.1)">
       <use xlink:href="#DejaVuSans-48"/>
       <use x="63.623047" xlink:href="#DejaVuSans-46"/>
       <use x="95.410156" xlink:href="#DejaVuSans-49"/>
       <use x="159.033203" xlink:href="#DejaVuSans-55"/>
       <use x="222.65625" xlink:href="#DejaVuSans-53"/>
      </g>
     </g>
    </g>
    <g id="text_17">
     <!-- Proportion of vertices -->
     <defs>
      <path d="M 19.671875 64.796875 
L 19.671875 37.40625 
L 32.078125 37.40625 
Q 38.96875 37.40625 42.71875 40.96875 
Q 46.484375 44.53125 46.484375 51.125 
Q 46.484375 57.671875 42.71875 61.234375 
Q 38.96875 64.796875 32.078125 64.796875 
z
M 9.8125 72.90625 
L 32.078125 72.90625 
Q 44.34375 72.90625 50.609375 67.359375 
Q 56.890625 61.8125 56.890625 51.125 
Q 56.890625 40.328125 50.609375 34.8125 
Q 44.34375 29.296875 32.078125 29.296875 
L 19.671875 29.296875 
L 19.671875 0 
L 9.8125 0 
z
" id="DejaVuSans-80"/>
      <path d="M 18.109375 8.203125 
L 18.109375 -20.796875 
L 9.078125 -20.796875 
L 9.078125 54.6875 
L 18.109375 54.6875 
L 18.109375 46.390625 
Q 20.953125 51.265625 25.265625 53.625 
Q 29.59375 56 35.59375 56 
Q 45.5625 56 51.78125 48.09375 
Q 58.015625 40.1875 58.015625 27.296875 
Q 58.015625 14.40625 51.78125 6.484375 
Q 45.5625 -1.421875 35.59375 -1.421875 
Q 29.59375 -1.421875 25.265625 0.953125 
Q 20.953125 3.328125 18.109375 8.203125 
z
M 48.6875 27.296875 
Q 48.6875 37.203125 44.609375 42.84375 
Q 40.53125 48.484375 33.40625 48.484375 
Q 26.265625 48.484375 22.1875 42.84375 
Q 18.109375 37.203125 18.109375 27.296875 
Q 18.109375 17.390625 22.1875 11.75 
Q 26.265625 6.109375 33.40625 6.109375 
Q 40.53125 6.109375 44.609375 11.75 
Q 48.6875 17.390625 48.6875 27.296875 
z
" id="DejaVuSans-112"/>
     </defs>
     <g transform="translate(14.798438 197.6185)rotate(-90)scale(0.1 -0.1)">
      <use xlink:href="#DejaVuSans-80"/>
      <use x="60.287109" xlink:href="#DejaVuSans-114"/>
      <use x="101.369141" xlink:href="#DejaVuSans-111"/>
      <use x="162.550781" xlink:href="#DejaVuSans-112"/>
      <use x="226.027344" xlink:href="#DejaVuSans-111"/>
      <use x="287.208984" xlink:href="#DejaVuSans-114"/>
      <use x="328.322266" xlink:href="#DejaVuSans-116"/>
      <use x="367.53125" xlink:href="#DejaVuSans-105"/>
      <use x="395.314453" xlink:href="#DejaVuSans-111"/>
      <use x="456.496094" xlink:href="#DejaVuSans-110"/>
      <use x="519.875" xlink:href="#DejaVuSans-32"/>
      <use x="551.662109" xlink:href="#DejaVuSans-111"/>
      <use x="612.84375" xlink:href="#DejaVuSans-102"/>
      <use x="648.048828" xlink:href="#DejaVuSans-32"/>
      <use x="679.835938" xlink:href="#DejaVuSans-118"/>
      <use x="739.015625" xlink:href="#DejaVuSans-101"/>
      <use x="800.539062" xlink:href="#DejaVuSans-114"/>
      <use x="841.652344" xlink:href="#DejaVuSans-116"/>
      <use x="880.861328" xlink:href="#DejaVuSans-105"/>
      <use x="908.644531" xlink:href="#DejaVuSans-99"/>
      <use x="963.625" xlink:href="#DejaVuSans-101"/>
      <use x="1025.148438" xlink:href="#DejaVuSans-115"/>
     </g>
    </g>
   </g>
   <g id="LineCollection_1">
    <path clip-path="url(#p8e656a196f)" d="M 72.738977 252.600386 
L 72.738977 251.392204 
" style="fill:none;stroke:#000000;"/>
    <path clip-path="url(#p8e656a196f)" d="M 78.336469 241.327607 
L 78.336469 239.135216 
" style="fill:none;stroke:#000000;"/>
    <path clip-path="url(#p8e656a196f)" d="M 83.933962 204.424636 
L 83.933962 200.476581 
" style="fill:none;stroke:#000000;"/>
    <path clip-path="url(#p8e656a196f)" d="M 89.531454 139.707478 
L 89.531454 134.276269 
" style="fill:none;stroke:#000000;"/>
    <path clip-path="url(#p8e656a196f)" d="M 95.128946 69.280258 
L 95.128946 62.620151 
" style="fill:none;stroke:#000000;"/>
    <path clip-path="url(#p8e656a196f)" d="M 100.726438 30.023683 
L 100.726438 23.162381 
" style="fill:none;stroke:#000000;"/>
    <path clip-path="url(#p8e656a196f)" d="M 106.32393 29.717791 
L 106.32393 22.796 
" style="fill:none;stroke:#000000;"/>
    <path clip-path="url(#p8e656a196f)" d="M 111.921422 64.147793 
L 111.921422 58.019278 
" style="fill:none;stroke:#000000;"/>
    <path clip-path="url(#p8e656a196f)" d="M 117.518915 120.79464 
L 117.518915 115.103406 
" style="fill:none;stroke:#000000;"/>
    <path clip-path="url(#p8e656a196f)" d="M 123.116407 171.932171 
L 123.116407 166.998948 
" style="fill:none;stroke:#000000;"/>
    <path clip-path="url(#p8e656a196f)" d="M 128.713899 213.007684 
L 128.713899 209.420505 
" style="fill:none;stroke:#000000;"/>
    <path clip-path="url(#p8e656a196f)" d="M 134.311391 234.59682 
L 134.311391 232.040069 
" style="fill:none;stroke:#000000;"/>
    <path clip-path="url(#p8e656a196f)" d="M 139.908883 245.985672 
L 139.908883 244.001751 
" style="fill:none;stroke:#000000;"/>
    <path clip-path="url(#p8e656a196f)" d="M 145.506375 250.484035 
L 145.506375 249.039399 
" style="fill:none;stroke:#000000;"/>
    <path clip-path="url(#p8e656a196f)" d="M 151.103868 252.457863 
L 151.103868 251.06074 
" style="fill:none;stroke:#000000;"/>
    <path clip-path="url(#p8e656a196f)" d="M 156.70136 252.876395 
L 156.70136 250.719657 
" style="fill:none;stroke:#000000;"/>
    <path clip-path="url(#p8e656a196f)" d="M 162.298852 252.944271 
L 162.298852 252.944271 
" style="fill:none;stroke:#000000;"/>
    <path clip-path="url(#p8e656a196f)" d="M 167.896344 252.944271 
L 167.896344 252.944271 
" style="fill:none;stroke:#000000;"/>
    <path clip-path="url(#p8e656a196f)" d="M 173.493836 252.944271 
L 173.493836 252.944271 
" style="fill:none;stroke:#000000;"/>
   </g>
   <g id="LineCollection_2">
    <path clip-path="url(#p8e656a196f)" d="M 72.738977 260.251581 
L 72.738977 260.251581 
" style="fill:none;stroke:#0000ff;"/>
    <path clip-path="url(#p8e656a196f)" d="M 78.336469 260.251581 
L 78.336469 260.251581 
" style="fill:none;stroke:#0000ff;"/>
    <path clip-path="url(#p8e656a196f)" d="M 83.933962 260.034403 
L 83.933962 259.007296 
" style="fill:none;stroke:#0000ff;"/>
    <path clip-path="url(#p8e656a196f)" d="M 89.531454 259.631248 
L 89.531454 258.935036 
" style="fill:none;stroke:#0000ff;"/>
    <path clip-path="url(#p8e656a196f)" d="M 95.128946 256.644607 
L 95.128946 255.810253 
" style="fill:none;stroke:#0000ff;"/>
    <path clip-path="url(#p8e656a196f)" d="M 100.726438 249.190772 
L 100.726438 247.870473 
" style="fill:none;stroke:#0000ff;"/>
    <path clip-path="url(#p8e656a196f)" d="M 106.32393 231.841245 
L 106.32393 229.747647 
" style="fill:none;stroke:#0000ff;"/>
    <path clip-path="url(#p8e656a196f)" d="M 111.921422 206.590449 
L 111.921422 203.856868 
" style="fill:none;stroke:#0000ff;"/>
    <path clip-path="url(#p8e656a196f)" d="M 117.518915 172.703483 
L 117.518915 169.399008 
" style="fill:none;stroke:#0000ff;"/>
    <path clip-path="url(#p8e656a196f)" d="M 123.116407 139.984126 
L 123.116407 136.14797 
" style="fill:none;stroke:#0000ff;"/>
    <path clip-path="url(#p8e656a196f)" d="M 128.713899 111.33035 
L 128.713899 107.293215 
" style="fill:none;stroke:#0000ff;"/>
    <path clip-path="url(#p8e656a196f)" d="M 134.311391 97.464917 
L 134.311391 93.200879 
" style="fill:none;stroke:#0000ff;"/>
    <path clip-path="url(#p8e656a196f)" d="M 139.908883 98.420108 
L 139.908883 94.30635 
" style="fill:none;stroke:#0000ff;"/>
    <path clip-path="url(#p8e656a196f)" d="M 145.506375 110.85569 
L 145.506375 106.759466 
" style="fill:none;stroke:#0000ff;"/>
    <path clip-path="url(#p8e656a196f)" d="M 151.103868 135.991443 
L 151.103868 132.044154 
" style="fill:none;stroke:#0000ff;"/>
    <path clip-path="url(#p8e656a196f)" d="M 156.70136 163.872611 
L 156.70136 160.370814 
" style="fill:none;stroke:#0000ff;"/>
    <path clip-path="url(#p8e656a196f)" d="M 162.298852 191.70814 
L 162.298852 188.830803 
" style="fill:none;stroke:#0000ff;"/>
    <path clip-path="url(#p8e656a196f)" d="M 167.896344 215.013585 
L 167.896344 212.559336 
" style="fill:none;stroke:#0000ff;"/>
    <path clip-path="url(#p8e656a196f)" d="M 173.493836 234.441812 
L 173.493836 232.449629 
" style="fill:none;stroke:#0000ff;"/>
    <path clip-path="url(#p8e656a196f)" d="M 179.091328 246.063099 
L 179.091328 244.522339 
" style="fill:none;stroke:#0000ff;"/>
    <path clip-path="url(#p8e656a196f)" d="M 184.688821 253.334953 
L 184.688821 252.184997 
" style="fill:none;stroke:#0000ff;"/>
    <path clip-path="url(#p8e656a196f)" d="M 190.286313 257.049558 
L 190.286313 256.170174 
" style="fill:none;stroke:#0000ff;"/>
    <path clip-path="url(#p8e656a196f)" d="M 195.883805 258.747008 
L 195.883805 257.959618 
" style="fill:none;stroke:#0000ff;"/>
    <path clip-path="url(#p8e656a196f)" d="M 201.481297 259.754992 
L 201.481297 259.084129 
" style="fill:none;stroke:#0000ff;"/>
    <path clip-path="url(#p8e656a196f)" d="M 207.078789 260.165691 
L 207.078789 259.561473 
" style="fill:none;stroke:#0000ff;"/>
    <path clip-path="url(#p8e656a196f)" d="M 212.676281 260.366803 
L 212.676281 259.48682 
" style="fill:none;stroke:#0000ff;"/>
    <path clip-path="url(#p8e656a196f)" d="M 218.273774 260.639074 
L 218.273774 259.004404 
" style="fill:none;stroke:#0000ff;"/>
    <path clip-path="url(#p8e656a196f)" d="M 223.871266 260.251581 
L 223.871266 260.251581 
" style="fill:none;stroke:#0000ff;"/>
    <path clip-path="url(#p8e656a196f)" d="M 229.468758 260.251581 
L 229.468758 260.251581 
" style="fill:none;stroke:#0000ff;"/>
    <path clip-path="url(#p8e656a196f)" d="M 235.06625 260.251581 
L 235.06625 260.251581 
" style="fill:none;stroke:#0000ff;"/>
    <path clip-path="url(#p8e656a196f)" d="M 240.663742 260.251581 
L 240.663742 260.251581 
" style="fill:none;stroke:#0000ff;"/>
   </g>
   <g id="LineCollection_3">
    <path clip-path="url(#p8e656a196f)" d="M 89.531454 262.687351 
L 89.531454 262.687351 
" style="fill:none;stroke:#008000;"/>
    <path clip-path="url(#p8e656a196f)" d="M 95.128946 262.687351 
L 95.128946 262.687351 
" style="fill:none;stroke:#008000;"/>
    <path clip-path="url(#p8e656a196f)" d="M 100.726438 262.777206 
L 100.726438 262.406455 
" style="fill:none;stroke:#008000;"/>
    <path clip-path="url(#p8e656a196f)" d="M 106.32393 262.358814 
L 106.32393 261.825067 
" style="fill:none;stroke:#008000;"/>
    <path clip-path="url(#p8e656a196f)" d="M 111.921422 261.654861 
L 111.921422 261.143158 
" style="fill:none;stroke:#008000;"/>
    <path clip-path="url(#p8e656a196f)" d="M 117.518915 259.989235 
L 117.518915 259.340598 
" style="fill:none;stroke:#008000;"/>
    <path clip-path="url(#p8e656a196f)" d="M 123.116407 255.704368 
L 123.116407 254.782031 
" style="fill:none;stroke:#008000;"/>
    <path clip-path="url(#p8e656a196f)" d="M 128.713899 246.978973 
L 128.713899 245.766817 
" style="fill:none;stroke:#008000;"/>
    <path clip-path="url(#p8e656a196f)" d="M 134.311391 233.979842 
L 134.311391 232.361537 
" style="fill:none;stroke:#008000;"/>
    <path clip-path="url(#p8e656a196f)" d="M 139.908883 216.883532 
L 139.908883 214.80171 
" style="fill:none;stroke:#008000;"/>
    <path clip-path="url(#p8e656a196f)" d="M 145.506375 195.069395 
L 145.506375 192.635584 
" style="fill:none;stroke:#008000;"/>
    <path clip-path="url(#p8e656a196f)" d="M 151.103868 171.717094 
L 151.103868 168.831376 
" style="fill:none;stroke:#008000;"/>
    <path clip-path="url(#p8e656a196f)" d="M 156.70136 151.335223 
L 156.70136 148.331283 
" style="fill:none;stroke:#008000;"/>
    <path clip-path="url(#p8e656a196f)" d="M 162.298852 137.378374 
L 162.298852 134.364464 
" style="fill:none;stroke:#008000;"/>
    <path clip-path="url(#p8e656a196f)" d="M 167.896344 127.751318 
L 167.896344 124.661249 
" style="fill:none;stroke:#008000;"/>
    <path clip-path="url(#p8e656a196f)" d="M 173.493836 127.62607 
L 173.493836 124.523434 
" style="fill:none;stroke:#008000;"/>
    <path clip-path="url(#p8e656a196f)" d="M 179.091328 135.187755 
L 179.091328 132.219412 
" style="fill:none;stroke:#008000;"/>
    <path clip-path="url(#p8e656a196f)" d="M 184.688821 149.363846 
L 184.688821 146.385942 
" style="fill:none;stroke:#008000;"/>
    <path clip-path="url(#p8e656a196f)" d="M 190.286313 168.513277 
L 190.286313 165.741164 
" style="fill:none;stroke:#008000;"/>
    <path clip-path="url(#p8e656a196f)" d="M 195.883805 187.608562 
L 195.883805 185.218733 
" style="fill:none;stroke:#008000;"/>
    <path clip-path="url(#p8e656a196f)" d="M 201.481297 206.446003 
L 201.481297 204.184443 
" style="fill:none;stroke:#008000;"/>
    <path clip-path="url(#p8e656a196f)" d="M 207.078789 222.51377 
L 207.078789 220.64455 
" style="fill:none;stroke:#008000;"/>
    <path clip-path="url(#p8e656a196f)" d="M 212.676281 235.374676 
L 212.676281 233.753224 
" style="fill:none;stroke:#008000;"/>
    <path clip-path="url(#p8e656a196f)" d="M 218.273774 246.06024 
L 218.273774 244.79158 
" style="fill:none;stroke:#008000;"/>
    <path clip-path="url(#p8e656a196f)" d="M 223.871266 253.072043 
L 223.871266 252.048673 
" style="fill:none;stroke:#008000;"/>
    <path clip-path="url(#p8e656a196f)" d="M 229.468758 257.632388 
L 229.468758 256.845291 
" style="fill:none;stroke:#008000;"/>
    <path clip-path="url(#p8e656a196f)" d="M 235.06625 260.149734 
L 235.06625 259.585837 
" style="fill:none;stroke:#008000;"/>
    <path clip-path="url(#p8e656a196f)" d="M 240.663742 261.226087 
L 240.663742 260.63028 
" style="fill:none;stroke:#008000;"/>
    <path clip-path="url(#p8e656a196f)" d="M 246.261234 262.205716 
L 246.261234 261.801536 
" style="fill:none;stroke:#008000;"/>
    <path clip-path="url(#p8e656a196f)" d="M 251.858726 262.518595 
L 251.858726 262.116125 
" style="fill:none;stroke:#008000;"/>
    <path clip-path="url(#p8e656a196f)" d="M 257.456219 262.756823 
L 257.456219 262.306929 
" style="fill:none;stroke:#008000;"/>
    <path clip-path="url(#p8e656a196f)" d="M 263.053711 262.687351 
L 263.053711 262.687351 
" style="fill:none;stroke:#008000;"/>
    <path clip-path="url(#p8e656a196f)" d="M 268.651203 262.909096 
L 268.651203 261.978451 
" style="fill:none;stroke:#008000;"/>
    <path clip-path="url(#p8e656a196f)" d="M 274.248695 262.687351 
L 274.248695 262.687351 
" style="fill:none;stroke:#008000;"/>
    <path clip-path="url(#p8e656a196f)" d="M 279.846187 262.687351 
L 279.846187 262.687351 
" style="fill:none;stroke:#008000;"/>
    <path clip-path="url(#p8e656a196f)" d="M 285.443679 262.687351 
L 285.443679 262.687351 
" style="fill:none;stroke:#008000;"/>
    <path clip-path="url(#p8e656a196f)" d="M 291.041172 262.687351 
L 291.041172 262.687351 
" style="fill:none;stroke:#008000;"/>
   </g>
   <g id="LineCollection_4">
    <path clip-path="url(#p8e656a196f)" d="M 100.726438 263.905236 
L 100.726438 263.905236 
" style="fill:none;stroke:#ff0000;"/>
    <path clip-path="url(#p8e656a196f)" d="M 106.32393 263.905236 
L 106.32393 263.905236 
" style="fill:none;stroke:#ff0000;"/>
    <path clip-path="url(#p8e656a196f)" d="M 111.921422 263.905236 
L 111.921422 263.905236 
" style="fill:none;stroke:#ff0000;"/>
    <path clip-path="url(#p8e656a196f)" d="M 117.518915 264.018141 
L 117.518915 263.548754 
" style="fill:none;stroke:#ff0000;"/>
    <path clip-path="url(#p8e656a196f)" d="M 123.116407 263.801594 
L 123.116407 263.393525 
" style="fill:none;stroke:#ff0000;"/>
    <path clip-path="url(#p8e656a196f)" d="M 128.713899 263.648318 
L 128.713899 263.31493 
" style="fill:none;stroke:#ff0000;"/>
    <path clip-path="url(#p8e656a196f)" d="M 134.311391 262.98048 
L 134.311391 262.551166 
" style="fill:none;stroke:#ff0000;"/>
    <path clip-path="url(#p8e656a196f)" d="M 139.908883 261.921939 
L 139.908883 261.438038 
" style="fill:none;stroke:#ff0000;"/>
    <path clip-path="url(#p8e656a196f)" d="M 145.506375 259.5971 
L 145.506375 258.997564 
" style="fill:none;stroke:#ff0000;"/>
    <path clip-path="url(#p8e656a196f)" d="M 151.103868 255.303092 
L 151.103868 254.49471 
" style="fill:none;stroke:#ff0000;"/>
    <path clip-path="url(#p8e656a196f)" d="M 156.70136 247.723277 
L 156.70136 246.628949 
" style="fill:none;stroke:#ff0000;"/>
    <path clip-path="url(#p8e656a196f)" d="M 162.298852 237.595934 
L 162.298852 236.286588 
" style="fill:none;stroke:#ff0000;"/>
    <path clip-path="url(#p8e656a196f)" d="M 167.896344 223.890195 
L 167.896344 222.275701 
" style="fill:none;stroke:#ff0000;"/>
    <path clip-path="url(#p8e656a196f)" d="M 173.493836 208.656693 
L 173.493836 206.825807 
" style="fill:none;stroke:#ff0000;"/>
    <path clip-path="url(#p8e656a196f)" d="M 179.091328 192.822284 
L 179.091328 190.785729 
" style="fill:none;stroke:#ff0000;"/>
    <path clip-path="url(#p8e656a196f)" d="M 184.688821 175.868789 
L 184.688821 173.562935 
" style="fill:none;stroke:#ff0000;"/>
    <path clip-path="url(#p8e656a196f)" d="M 190.286313 162.187094 
L 190.286313 159.754529 
" style="fill:none;stroke:#ff0000;"/>
    <path clip-path="url(#p8e656a196f)" d="M 195.883805 152.073138 
L 195.883805 149.56147 
" style="fill:none;stroke:#ff0000;"/>
    <path clip-path="url(#p8e656a196f)" d="M 201.481297 146.255124 
L 201.481297 143.680481 
" style="fill:none;stroke:#ff0000;"/>
    <path clip-path="url(#p8e656a196f)" d="M 207.078789 145.900956 
L 207.078789 143.413528 
" style="fill:none;stroke:#ff0000;"/>
    <path clip-path="url(#p8e656a196f)" d="M 212.676281 151.853853 
L 212.676281 149.451926 
" style="fill:none;stroke:#ff0000;"/>
    <path clip-path="url(#p8e656a196f)" d="M 218.273774 161.617937 
L 218.273774 159.220282 
" style="fill:none;stroke:#ff0000;"/>
    <path clip-path="url(#p8e656a196f)" d="M 223.871266 174.01424 
L 223.871266 171.807673 
" style="fill:none;stroke:#ff0000;"/>
    <path clip-path="url(#p8e656a196f)" d="M 229.468758 187.65186 
L 229.468758 185.528622 
" style="fill:none;stroke:#ff0000;"/>
    <path clip-path="url(#p8e656a196f)" d="M 235.06625 203.710188 
L 235.06625 201.805141 
" style="fill:none;stroke:#ff0000;"/>
    <path clip-path="url(#p8e656a196f)" d="M 240.663742 216.40532 
L 240.663742 214.634443 
" style="fill:none;stroke:#ff0000;"/>
    <path clip-path="url(#p8e656a196f)" d="M 246.261234 229.689804 
L 246.261234 228.204324 
" style="fill:none;stroke:#ff0000;"/>
    <path clip-path="url(#p8e656a196f)" d="M 251.858726 239.256203 
L 251.858726 237.958453 
" style="fill:none;stroke:#ff0000;"/>
    <path clip-path="url(#p8e656a196f)" d="M 257.456219 247.759422 
L 257.456219 246.674616 
" style="fill:none;stroke:#ff0000;"/>
    <path clip-path="url(#p8e656a196f)" d="M 263.053711 254.008853 
L 263.053711 253.149875 
" style="fill:none;stroke:#ff0000;"/>
    <path clip-path="url(#p8e656a196f)" d="M 268.651203 257.918391 
L 268.651203 257.238349 
" style="fill:none;stroke:#ff0000;"/>
    <path clip-path="url(#p8e656a196f)" d="M 274.248695 260.143228 
L 274.248695 259.549022 
" style="fill:none;stroke:#ff0000;"/>
    <path clip-path="url(#p8e656a196f)" d="M 279.846187 261.792179 
L 279.846187 261.289353 
" style="fill:none;stroke:#ff0000;"/>
    <path clip-path="url(#p8e656a196f)" d="M 285.443679 262.769695 
L 285.443679 262.356458 
" style="fill:none;stroke:#ff0000;"/>
    <path clip-path="url(#p8e656a196f)" d="M 291.041172 263.258403 
L 291.041172 262.867591 
" style="fill:none;stroke:#ff0000;"/>
    <path clip-path="url(#p8e656a196f)" d="M 296.638664 263.661633 
L 296.638664 263.332596 
" style="fill:none;stroke:#ff0000;"/>
    <path clip-path="url(#p8e656a196f)" d="M 302.236156 263.860554 
L 302.236156 263.547681 
" style="fill:none;stroke:#ff0000;"/>
    <path clip-path="url(#p8e656a196f)" d="M 307.833648 263.960005 
L 307.833648 263.734478 
" style="fill:none;stroke:#ff0000;"/>
    <path clip-path="url(#p8e656a196f)" d="M 313.43114 263.905236 
L 313.43114 263.905236 
" style="fill:none;stroke:#ff0000;"/>
    <path clip-path="url(#p8e656a196f)" d="M 319.028632 263.905236 
L 319.028632 263.905236 
" style="fill:none;stroke:#ff0000;"/>
    <path clip-path="url(#p8e656a196f)" d="M 324.626125 263.905236 
L 324.626125 263.905236 
" style="fill:none;stroke:#ff0000;"/>
    <path clip-path="url(#p8e656a196f)" d="M 330.223617 263.905236 
L 330.223617 263.905236 
" style="fill:none;stroke:#ff0000;"/>
    <path clip-path="url(#p8e656a196f)" d="M 335.821109 263.905236 
L 335.821109 263.905236 
" style="fill:none;stroke:#ff0000;"/>
    <path clip-path="url(#p8e656a196f)" d="M 341.418601 263.905236 
L 341.418601 263.905236 
" style="fill:none;stroke:#ff0000;"/>
    <path clip-path="url(#p8e656a196f)" d="M 358.211078 263.905236 
L 358.211078 263.905236 
" style="fill:none;stroke:#ff0000;"/>
   </g>
   <g id="LineCollection_5">
    <path clip-path="url(#p8e656a196f)" d="M 117.518915 264.635967 
L 117.518915 264.635967 
" style="fill:none;stroke:#a52a2a;"/>
    <path clip-path="url(#p8e656a196f)" d="M 123.116407 264.635967 
L 123.116407 264.635967 
" style="fill:none;stroke:#a52a2a;"/>
    <path clip-path="url(#p8e656a196f)" d="M 128.713899 264.635967 
L 128.713899 264.635967 
" style="fill:none;stroke:#a52a2a;"/>
    <path clip-path="url(#p8e656a196f)" d="M 134.311391 264.635967 
L 134.311391 264.635967 
" style="fill:none;stroke:#a52a2a;"/>
    <path clip-path="url(#p8e656a196f)" d="M 139.908883 264.716 
L 139.908883 264.383997 
" style="fill:none;stroke:#a52a2a;"/>
    <path clip-path="url(#p8e656a196f)" d="M 145.506375 264.645598 
L 145.506375 264.459312 
" style="fill:none;stroke:#a52a2a;"/>
    <path clip-path="url(#p8e656a196f)" d="M 151.103868 264.437788 
L 151.103868 264.170563 
" style="fill:none;stroke:#a52a2a;"/>
    <path clip-path="url(#p8e656a196f)" d="M 156.70136 264.040976 
L 156.70136 263.727302 
" style="fill:none;stroke:#a52a2a;"/>
    <path clip-path="url(#p8e656a196f)" d="M 162.298852 263.512352 
L 162.298852 263.176023 
" style="fill:none;stroke:#a52a2a;"/>
    <path clip-path="url(#p8e656a196f)" d="M 167.896344 262.117986 
L 167.896344 261.694848 
" style="fill:none;stroke:#a52a2a;"/>
    <path clip-path="url(#p8e656a196f)" d="M 173.493836 260.066457 
L 173.493836 259.530249 
" style="fill:none;stroke:#a52a2a;"/>
    <path clip-path="url(#p8e656a196f)" d="M 179.091328 255.667972 
L 179.091328 254.907941 
" style="fill:none;stroke:#a52a2a;"/>
    <path clip-path="url(#p8e656a196f)" d="M 184.688821 249.670548 
L 184.688821 248.778888 
" style="fill:none;stroke:#a52a2a;"/>
    <path clip-path="url(#p8e656a196f)" d="M 190.286313 241.757125 
L 190.286313 240.619415 
" style="fill:none;stroke:#a52a2a;"/>
    <path clip-path="url(#p8e656a196f)" d="M 195.883805 230.67723 
L 195.883805 229.36817 
" style="fill:none;stroke:#a52a2a;"/>
    <path clip-path="url(#p8e656a196f)" d="M 201.481297 218.893161 
L 201.481297 217.394713 
" style="fill:none;stroke:#a52a2a;"/>
    <path clip-path="url(#p8e656a196f)" d="M 207.078789 206.226012 
L 207.078789 204.527197 
" style="fill:none;stroke:#a52a2a;"/>
    <path clip-path="url(#p8e656a196f)" d="M 212.676281 193.435517 
L 212.676281 191.619343 
" style="fill:none;stroke:#a52a2a;"/>
    <path clip-path="url(#p8e656a196f)" d="M 218.273774 180.378114 
L 218.273774 178.387968 
" style="fill:none;stroke:#a52a2a;"/>
    <path clip-path="url(#p8e656a196f)" d="M 223.871266 169.846795 
L 223.871266 167.827467 
" style="fill:none;stroke:#a52a2a;"/>
    <path clip-path="url(#p8e656a196f)" d="M 229.468758 163.91849 
L 229.468758 161.754245 
" style="fill:none;stroke:#a52a2a;"/>
    <path clip-path="url(#p8e656a196f)" d="M 235.06625 159.118513 
L 235.06625 156.95534 
" style="fill:none;stroke:#a52a2a;"/>
    <path clip-path="url(#p8e656a196f)" d="M 240.663742 159.243816 
L 240.663742 157.239247 
" style="fill:none;stroke:#a52a2a;"/>
    <path clip-path="url(#p8e656a196f)" d="M 246.261234 163.265773 
L 246.261234 161.185181 
" style="fill:none;stroke:#a52a2a;"/>
    <path clip-path="url(#p8e656a196f)" d="M 251.858726 170.071721 
L 251.858726 168.029288 
" style="fill:none;stroke:#a52a2a;"/>
    <path clip-path="url(#p8e656a196f)" d="M 257.456219 179.104635 
L 257.456219 177.200345 
" style="fill:none;stroke:#a52a2a;"/>
    <path clip-path="url(#p8e656a196f)" d="M 263.053711 190.274064 
L 263.053711 188.438052 
" style="fill:none;stroke:#a52a2a;"/>
    <path clip-path="url(#p8e656a196f)" d="M 268.651203 202.540224 
L 268.651203 200.847217 
" style="fill:none;stroke:#a52a2a;"/>
    <path clip-path="url(#p8e656a196f)" d="M 274.248695 213.710465 
L 274.248695 212.160107 
" style="fill:none;stroke:#a52a2a;"/>
    <path clip-path="url(#p8e656a196f)" d="M 279.846187 224.664388 
L 279.846187 223.280107 
" style="fill:none;stroke:#a52a2a;"/>
    <path clip-path="url(#p8e656a196f)" d="M 285.443679 234.576696 
L 285.443679 233.302141 
" style="fill:none;stroke:#a52a2a;"/>
    <path clip-path="url(#p8e656a196f)" d="M 291.041172 242.597744 
L 291.041172 241.53255 
" style="fill:none;stroke:#a52a2a;"/>
    <path clip-path="url(#p8e656a196f)" d="M 296.638664 249.299184 
L 296.638664 248.401648 
" style="fill:none;stroke:#a52a2a;"/>
    <path clip-path="url(#p8e656a196f)" d="M 302.236156 254.415158 
L 302.236156 253.658195 
" style="fill:none;stroke:#a52a2a;"/>
    <path clip-path="url(#p8e656a196f)" d="M 307.833648 257.972673 
L 307.833648 257.371315 
" style="fill:none;stroke:#a52a2a;"/>
    <path clip-path="url(#p8e656a196f)" d="M 313.43114 260.468098 
L 313.43114 259.927057 
" style="fill:none;stroke:#a52a2a;"/>
    <path clip-path="url(#p8e656a196f)" d="M 319.028632 262.31232 
L 319.028632 261.85988 
" style="fill:none;stroke:#a52a2a;"/>
    <path clip-path="url(#p8e656a196f)" d="M 324.626125 263.320119 
L 324.626125 262.959845 
" style="fill:none;stroke:#a52a2a;"/>
    <path clip-path="url(#p8e656a196f)" d="M 330.223617 263.872291 
L 330.223617 263.559545 
" style="fill:none;stroke:#a52a2a;"/>
    <path clip-path="url(#p8e656a196f)" d="M 335.821109 264.160236 
L 335.821109 263.862894 
" style="fill:none;stroke:#a52a2a;"/>
    <path clip-path="url(#p8e656a196f)" d="M 341.418601 264.392775 
L 341.418601 264.077951 
" style="fill:none;stroke:#a52a2a;"/>
    <path clip-path="url(#p8e656a196f)" d="M 347.016093 264.605203 
L 347.016093 264.38613 
" style="fill:none;stroke:#a52a2a;"/>
    <path clip-path="url(#p8e656a196f)" d="M 352.613585 264.663218 
L 352.613585 264.460719 
" style="fill:none;stroke:#a52a2a;"/>
    <path clip-path="url(#p8e656a196f)" d="M 358.211078 264.635967 
L 358.211078 264.635967 
" style="fill:none;stroke:#a52a2a;"/>
    <path clip-path="url(#p8e656a196f)" d="M 363.80857 264.635967 
L 363.80857 264.635967 
" style="fill:none;stroke:#a52a2a;"/>
    <path clip-path="url(#p8e656a196f)" d="M 369.406062 264.635967 
L 369.406062 264.635967 
" style="fill:none;stroke:#a52a2a;"/>
    <path clip-path="url(#p8e656a196f)" d="M 375.003554 264.635967 
L 375.003554 264.635967 
" style="fill:none;stroke:#a52a2a;"/>
    <path clip-path="url(#p8e656a196f)" d="M 380.601046 264.635967 
L 380.601046 264.635967 
" style="fill:none;stroke:#a52a2a;"/>
    <path clip-path="url(#p8e656a196f)" d="M 386.198538 264.635967 
L 386.198538 264.635967 
" style="fill:none;stroke:#a52a2a;"/>
    <path clip-path="url(#p8e656a196f)" d="M 391.796031 264.635967 
L 391.796031 264.635967 
" style="fill:none;stroke:#a52a2a;"/>
    <path clip-path="url(#p8e656a196f)" d="M 397.393523 264.635967 
L 397.393523 264.635967 
" style="fill:none;stroke:#a52a2a;"/>
   </g>
   <g id="line2d_31">
    <path clip-path="url(#p8e656a196f)" d="M 72.738977 251.996295 
L 78.336469 240.231411 
L 83.933962 202.450608 
L 89.531454 136.991873 
L 95.128946 65.950204 
L 100.726438 26.593032 
L 106.32393 26.256896 
L 111.921422 61.083536 
L 117.518915 117.949023 
L 123.116407 169.46556 
L 128.713899 211.214094 
L 134.311391 233.318444 
L 139.908883 244.993711 
L 145.506375 249.761717 
L 151.103868 251.759301 
L 156.70136 251.798026 
L 162.298852 252.944271 
L 167.896344 252.944271 
L 173.493836 252.944271 
" style="fill:none;stroke:#000000;stroke-linecap:square;"/>
    <defs>
     <path d="M 0 1 
C 0.265203 1 0.51958 0.894634 0.707107 0.707107 
C 0.894634 0.51958 1 0.265203 1 0 
C 1 -0.265203 0.894634 -0.51958 0.707107 -0.707107 
C 0.51958 -0.894634 0.265203 -1 0 -1 
C -0.265203 -1 -0.51958 -0.894634 -0.707107 -0.707107 
C -0.894634 -0.51958 -1 -0.265203 -1 0 
C -1 0.265203 -0.894634 0.51958 -0.707107 0.707107 
C -0.51958 0.894634 -0.265203 1 0 1 
z
" id="m84586cbde0" style="stroke:#000000;"/>
    </defs>
    <g clip-path="url(#p8e656a196f)">
     <use style="stroke:#000000;" x="72.738977" xlink:href="#m84586cbde0" y="251.996295"/>
     <use style="stroke:#000000;" x="78.336469" xlink:href="#m84586cbde0" y="240.231411"/>
     <use style="stroke:#000000;" x="83.933962" xlink:href="#m84586cbde0" y="202.450608"/>
     <use style="stroke:#000000;" x="89.531454" xlink:href="#m84586cbde0" y="136.991873"/>
     <use style="stroke:#000000;" x="95.128946" xlink:href="#m84586cbde0" y="65.950204"/>
     <use style="stroke:#000000;" x="100.726438" xlink:href="#m84586cbde0" y="26.593032"/>
     <use style="stroke:#000000;" x="106.32393" xlink:href="#m84586cbde0" y="26.256896"/>
     <use style="stroke:#000000;" x="111.921422" xlink:href="#m84586cbde0" y="61.083536"/>
     <use style="stroke:#000000;" x="117.518915" xlink:href="#m84586cbde0" y="117.949023"/>
     <use style="stroke:#000000;" x="123.116407" xlink:href="#m84586cbde0" y="169.46556"/>
     <use style="stroke:#000000;" x="128.713899" xlink:href="#m84586cbde0" y="211.214094"/>
     <use style="stroke:#000000;" x="134.311391" xlink:href="#m84586cbde0" y="233.318444"/>
     <use style="stroke:#000000;" x="139.908883" xlink:href="#m84586cbde0" y="244.993711"/>
     <use style="stroke:#000000;" x="145.506375" xlink:href="#m84586cbde0" y="249.761717"/>
     <use style="stroke:#000000;" x="151.103868" xlink:href="#m84586cbde0" y="251.759301"/>
     <use style="stroke:#000000;" x="156.70136" xlink:href="#m84586cbde0" y="251.798026"/>
     <use style="stroke:#000000;" x="162.298852" xlink:href="#m84586cbde0" y="252.944271"/>
     <use style="stroke:#000000;" x="167.896344" xlink:href="#m84586cbde0" y="252.944271"/>
     <use style="stroke:#000000;" x="173.493836" xlink:href="#m84586cbde0" y="252.944271"/>
    </g>
   </g>
   <g id="line2d_32">
    <path clip-path="url(#p8e656a196f)" d="M 72.738977 260.251581 
L 78.336469 260.251581 
L 83.933962 259.52085 
L 89.531454 259.283142 
L 95.128946 256.22743 
L 100.726438 248.530623 
L 106.32393 230.794446 
L 111.921422 205.223659 
L 117.518915 171.051246 
L 123.116407 138.066048 
L 128.713899 109.311783 
L 134.311391 95.332898 
L 139.908883 96.363229 
L 145.506375 108.807578 
L 151.103868 134.017798 
L 156.70136 162.121713 
L 162.298852 190.269472 
L 167.896344 213.78646 
L 173.493836 233.445721 
L 179.091328 245.292719 
L 184.688821 252.759975 
L 190.286313 256.609866 
L 195.883805 258.353313 
L 201.481297 259.41956 
L 207.078789 259.863582 
L 212.676281 259.926811 
L 218.273774 259.821739 
L 223.871266 260.251581 
L 229.468758 260.251581 
L 235.06625 260.251581 
L 240.663742 260.251581 
" style="fill:none;stroke:#0000ff;stroke-linecap:square;"/>
    <defs>
     <path d="M -0 1 
L 1 -1 
L -1 -1 
z
" id="m7a8f5697bf" style="stroke:#0000ff;stroke-linejoin:miter;"/>
    </defs>
    <g clip-path="url(#p8e656a196f)">
     <use style="fill:#0000ff;stroke:#0000ff;stroke-linejoin:miter;" x="72.738977" xlink:href="#m7a8f5697bf" y="260.251581"/>
     <use style="fill:#0000ff;stroke:#0000ff;stroke-linejoin:miter;" x="78.336469" xlink:href="#m7a8f5697bf" y="260.251581"/>
     <use style="fill:#0000ff;stroke:#0000ff;stroke-linejoin:miter;" x="83.933962" xlink:href="#m7a8f5697bf" y="259.52085"/>
     <use style="fill:#0000ff;stroke:#0000ff;stroke-linejoin:miter;" x="89.531454" xlink:href="#m7a8f5697bf" y="259.283142"/>
     <use style="fill:#0000ff;stroke:#0000ff;stroke-linejoin:miter;" x="95.128946" xlink:href="#m7a8f5697bf" y="256.22743"/>
     <use style="fill:#0000ff;stroke:#0000ff;stroke-linejoin:miter;" x="100.726438" xlink:href="#m7a8f5697bf" y="248.530623"/>
     <use style="fill:#0000ff;stroke:#0000ff;stroke-linejoin:miter;" x="106.32393" xlink:href="#m7a8f5697bf" y="230.794446"/>
     <use style="fill:#0000ff;stroke:#0000ff;stroke-linejoin:miter;" x="111.921422" xlink:href="#m7a8f5697bf" y="205.223659"/>
     <use style="fill:#0000ff;stroke:#0000ff;stroke-linejoin:miter;" x="117.518915" xlink:href="#m7a8f5697bf" y="171.051246"/>
     <use style="fill:#0000ff;stroke:#0000ff;stroke-linejoin:miter;" x="123.116407" xlink:href="#m7a8f5697bf" y="138.066048"/>
     <use style="fill:#0000ff;stroke:#0000ff;stroke-linejoin:miter;" x="128.713899" xlink:href="#m7a8f5697bf" y="109.311783"/>
     <use style="fill:#0000ff;stroke:#0000ff;stroke-linejoin:miter;" x="134.311391" xlink:href="#m7a8f5697bf" y="95.332898"/>
     <use style="fill:#0000ff;stroke:#0000ff;stroke-linejoin:miter;" x="139.908883" xlink:href="#m7a8f5697bf" y="96.363229"/>
     <use style="fill:#0000ff;stroke:#0000ff;stroke-linejoin:miter;" x="145.506375" xlink:href="#m7a8f5697bf" y="108.807578"/>
     <use style="fill:#0000ff;stroke:#0000ff;stroke-linejoin:miter;" x="151.103868" xlink:href="#m7a8f5697bf" y="134.017798"/>
     <use style="fill:#0000ff;stroke:#0000ff;stroke-linejoin:miter;" x="156.70136" xlink:href="#m7a8f5697bf" y="162.121713"/>
     <use style="fill:#0000ff;stroke:#0000ff;stroke-linejoin:miter;" x="162.298852" xlink:href="#m7a8f5697bf" y="190.269472"/>
     <use style="fill:#0000ff;stroke:#0000ff;stroke-linejoin:miter;" x="167.896344" xlink:href="#m7a8f5697bf" y="213.78646"/>
     <use style="fill:#0000ff;stroke:#0000ff;stroke-linejoin:miter;" x="173.493836" xlink:href="#m7a8f5697bf" y="233.445721"/>
     <use style="fill:#0000ff;stroke:#0000ff;stroke-linejoin:miter;" x="179.091328" xlink:href="#m7a8f5697bf" y="245.292719"/>
     <use style="fill:#0000ff;stroke:#0000ff;stroke-linejoin:miter;" x="184.688821" xlink:href="#m7a8f5697bf" y="252.759975"/>
     <use style="fill:#0000ff;stroke:#0000ff;stroke-linejoin:miter;" x="190.286313" xlink:href="#m7a8f5697bf" y="256.609866"/>
     <use style="fill:#0000ff;stroke:#0000ff;stroke-linejoin:miter;" x="195.883805" xlink:href="#m7a8f5697bf" y="258.353313"/>
     <use style="fill:#0000ff;stroke:#0000ff;stroke-linejoin:miter;" x="201.481297" xlink:href="#m7a8f5697bf" y="259.41956"/>
     <use style="fill:#0000ff;stroke:#0000ff;stroke-linejoin:miter;" x="207.078789" xlink:href="#m7a8f5697bf" y="259.863582"/>
     <use style="fill:#0000ff;stroke:#0000ff;stroke-linejoin:miter;" x="212.676281" xlink:href="#m7a8f5697bf" y="259.926811"/>
     <use style="fill:#0000ff;stroke:#0000ff;stroke-linejoin:miter;" x="218.273774" xlink:href="#m7a8f5697bf" y="259.821739"/>
     <use style="fill:#0000ff;stroke:#0000ff;stroke-linejoin:miter;" x="223.871266" xlink:href="#m7a8f5697bf" y="260.251581"/>
     <use style="fill:#0000ff;stroke:#0000ff;stroke-linejoin:miter;" x="229.468758" xlink:href="#m7a8f5697bf" y="260.251581"/>
     <use style="fill:#0000ff;stroke:#0000ff;stroke-linejoin:miter;" x="235.06625" xlink:href="#m7a8f5697bf" y="260.251581"/>
     <use style="fill:#0000ff;stroke:#0000ff;stroke-linejoin:miter;" x="240.663742" xlink:href="#m7a8f5697bf" y="260.251581"/>
    </g>
   </g>
   <g id="line2d_33">
    <path clip-path="url(#p8e656a196f)" d="M 89.531454 262.687351 
L 95.128946 262.687351 
L 100.726438 262.59183 
L 106.32393 262.09194 
L 111.921422 261.39901 
L 117.518915 259.664917 
L 123.116407 255.2432 
L 128.713899 246.372895 
L 134.311391 233.170689 
L 139.908883 215.842621 
L 145.506375 193.852489 
L 151.103868 170.274235 
L 156.70136 149.833253 
L 162.298852 135.871419 
L 167.896344 126.206284 
L 173.493836 126.074752 
L 179.091328 133.703584 
L 184.688821 147.874894 
L 190.286313 167.12722 
L 195.883805 186.413648 
L 201.481297 205.315223 
L 207.078789 221.57916 
L 212.676281 234.56395 
L 218.273774 245.42591 
L 223.871266 252.560358 
L 229.468758 257.238839 
L 235.06625 259.867785 
L 240.663742 260.928183 
L 246.261234 262.003626 
L 251.858726 262.31736 
L 257.456219 262.531876 
L 263.053711 262.687351 
L 268.651203 262.443774 
L 274.248695 262.687351 
L 279.846187 262.687351 
L 285.443679 262.687351 
L 291.041172 262.687351 
" style="fill:none;stroke:#008000;stroke-linecap:square;"/>
    <defs>
     <path d="M 0 -1 
L -1 1 
L 1 1 
z
" id="me5f4de6013" style="stroke:#008000;stroke-linejoin:miter;"/>
    </defs>
    <g clip-path="url(#p8e656a196f)">
     <use style="fill:#008000;stroke:#008000;stroke-linejoin:miter;" x="89.531454" xlink:href="#me5f4de6013" y="262.687351"/>
     <use style="fill:#008000;stroke:#008000;stroke-linejoin:miter;" x="95.128946" xlink:href="#me5f4de6013" y="262.687351"/>
     <use style="fill:#008000;stroke:#008000;stroke-linejoin:miter;" x="100.726438" xlink:href="#me5f4de6013" y="262.59183"/>
     <use style="fill:#008000;stroke:#008000;stroke-linejoin:miter;" x="106.32393" xlink:href="#me5f4de6013" y="262.09194"/>
     <use style="fill:#008000;stroke:#008000;stroke-linejoin:miter;" x="111.921422" xlink:href="#me5f4de6013" y="261.39901"/>
     <use style="fill:#008000;stroke:#008000;stroke-linejoin:miter;" x="117.518915" xlink:href="#me5f4de6013" y="259.664917"/>
     <use style="fill:#008000;stroke:#008000;stroke-linejoin:miter;" x="123.116407" xlink:href="#me5f4de6013" y="255.2432"/>
     <use style="fill:#008000;stroke:#008000;stroke-linejoin:miter;" x="128.713899" xlink:href="#me5f4de6013" y="246.372895"/>
     <use style="fill:#008000;stroke:#008000;stroke-linejoin:miter;" x="134.311391" xlink:href="#me5f4de6013" y="233.170689"/>
     <use style="fill:#008000;stroke:#008000;stroke-linejoin:miter;" x="139.908883" xlink:href="#me5f4de6013" y="215.842621"/>
     <use style="fill:#008000;stroke:#008000;stroke-linejoin:miter;" x="145.506375" xlink:href="#me5f4de6013" y="193.852489"/>
     <use style="fill:#008000;stroke:#008000;stroke-linejoin:miter;" x="151.103868" xlink:href="#me5f4de6013" y="170.274235"/>
     <use style="fill:#008000;stroke:#008000;stroke-linejoin:miter;" x="156.70136" xlink:href="#me5f4de6013" y="149.833253"/>
     <use style="fill:#008000;stroke:#008000;stroke-linejoin:miter;" x="162.298852" xlink:href="#me5f4de6013" y="135.871419"/>
     <use style="fill:#008000;stroke:#008000;stroke-linejoin:miter;" x="167.896344" xlink:href="#me5f4de6013" y="126.206284"/>
     <use style="fill:#008000;stroke:#008000;stroke-linejoin:miter;" x="173.493836" xlink:href="#me5f4de6013" y="126.074752"/>
     <use style="fill:#008000;stroke:#008000;stroke-linejoin:miter;" x="179.091328" xlink:href="#me5f4de6013" y="133.703584"/>
     <use style="fill:#008000;stroke:#008000;stroke-linejoin:miter;" x="184.688821" xlink:href="#me5f4de6013" y="147.874894"/>
     <use style="fill:#008000;stroke:#008000;stroke-linejoin:miter;" x="190.286313" xlink:href="#me5f4de6013" y="167.12722"/>
     <use style="fill:#008000;stroke:#008000;stroke-linejoin:miter;" x="195.883805" xlink:href="#me5f4de6013" y="186.413648"/>
     <use style="fill:#008000;stroke:#008000;stroke-linejoin:miter;" x="201.481297" xlink:href="#me5f4de6013" y="205.315223"/>
     <use style="fill:#008000;stroke:#008000;stroke-linejoin:miter;" x="207.078789" xlink:href="#me5f4de6013" y="221.57916"/>
     <use style="fill:#008000;stroke:#008000;stroke-linejoin:miter;" x="212.676281" xlink:href="#me5f4de6013" y="234.56395"/>
     <use style="fill:#008000;stroke:#008000;stroke-linejoin:miter;" x="218.273774" xlink:href="#me5f4de6013" y="245.42591"/>
     <use style="fill:#008000;stroke:#008000;stroke-linejoin:miter;" x="223.871266" xlink:href="#me5f4de6013" y="252.560358"/>
     <use style="fill:#008000;stroke:#008000;stroke-linejoin:miter;" x="229.468758" xlink:href="#me5f4de6013" y="257.238839"/>
     <use style="fill:#008000;stroke:#008000;stroke-linejoin:miter;" x="235.06625" xlink:href="#me5f4de6013" y="259.867785"/>
     <use style="fill:#008000;stroke:#008000;stroke-linejoin:miter;" x="240.663742" xlink:href="#me5f4de6013" y="260.928183"/>
     <use style="fill:#008000;stroke:#008000;stroke-linejoin:miter;" x="246.261234" xlink:href="#me5f4de6013" y="262.003626"/>
     <use style="fill:#008000;stroke:#008000;stroke-linejoin:miter;" x="251.858726" xlink:href="#me5f4de6013" y="262.31736"/>
     <use style="fill:#008000;stroke:#008000;stroke-linejoin:miter;" x="257.456219" xlink:href="#me5f4de6013" y="262.531876"/>
     <use style="fill:#008000;stroke:#008000;stroke-linejoin:miter;" x="263.053711" xlink:href="#me5f4de6013" y="262.687351"/>
     <use style="fill:#008000;stroke:#008000;stroke-linejoin:miter;" x="268.651203" xlink:href="#me5f4de6013" y="262.443774"/>
     <use style="fill:#008000;stroke:#008000;stroke-linejoin:miter;" x="274.248695" xlink:href="#me5f4de6013" y="262.687351"/>
     <use style="fill:#008000;stroke:#008000;stroke-linejoin:miter;" x="279.846187" xlink:href="#me5f4de6013" y="262.687351"/>
     <use style="fill:#008000;stroke:#008000;stroke-linejoin:miter;" x="285.443679" xlink:href="#me5f4de6013" y="262.687351"/>
     <use style="fill:#008000;stroke:#008000;stroke-linejoin:miter;" x="291.041172" xlink:href="#me5f4de6013" y="262.687351"/>
    </g>
   </g>
   <g id="line2d_34">
    <path clip-path="url(#p8e656a196f)" d="M 100.726438 263.905236 
L 106.32393 263.905236 
L 111.921422 263.905236 
L 117.518915 263.783447 
L 123.116407 263.59756 
L 128.713899 263.481624 
L 134.311391 262.765823 
L 139.908883 261.679989 
L 145.506375 259.297332 
L 151.103868 254.898901 
L 156.70136 247.176113 
L 162.298852 236.941261 
L 167.896344 223.082948 
L 173.493836 207.74125 
L 179.091328 191.804007 
L 184.688821 174.715862 
L 190.286313 160.970812 
L 195.883805 150.817304 
L 201.481297 144.967802 
L 207.078789 144.657242 
L 212.676281 150.65289 
L 218.273774 160.41911 
L 223.871266 172.910956 
L 229.468758 186.590241 
L 235.06625 202.757665 
L 240.663742 215.519882 
L 246.261234 228.947064 
L 251.858726 238.607328 
L 257.456219 247.217019 
L 263.053711 253.579364 
L 268.651203 257.57837 
L 274.248695 259.846125 
L 279.846187 261.540766 
L 285.443679 262.563077 
L 291.041172 263.062997 
L 296.638664 263.497115 
L 302.236156 263.704117 
L 307.833648 263.847241 
L 313.43114 263.905236 
L 319.028632 263.905236 
L 324.626125 263.905236 
L 330.223617 263.905236 
L 335.821109 263.905236 
L 341.418601 263.905236 
L 358.211078 263.905236 
" style="fill:none;stroke:#ff0000;stroke-linecap:square;"/>
    <defs>
     <path d="M 0 -1 
L -1 1 
L 1 1 
z
" id="m7ce2ee25c6" style="stroke:#ff0000;stroke-linejoin:miter;"/>
    </defs>
    <g clip-path="url(#p8e656a196f)">
     <use style="fill:#ff0000;stroke:#ff0000;stroke-linejoin:miter;" x="100.726438" xlink:href="#m7ce2ee25c6" y="263.905236"/>
     <use style="fill:#ff0000;stroke:#ff0000;stroke-linejoin:miter;" x="106.32393" xlink:href="#m7ce2ee25c6" y="263.905236"/>
     <use style="fill:#ff0000;stroke:#ff0000;stroke-linejoin:miter;" x="111.921422" xlink:href="#m7ce2ee25c6" y="263.905236"/>
     <use style="fill:#ff0000;stroke:#ff0000;stroke-linejoin:miter;" x="117.518915" xlink:href="#m7ce2ee25c6" y="263.783447"/>
     <use style="fill:#ff0000;stroke:#ff0000;stroke-linejoin:miter;" x="123.116407" xlink:href="#m7ce2ee25c6" y="263.59756"/>
     <use style="fill:#ff0000;stroke:#ff0000;stroke-linejoin:miter;" x="128.713899" xlink:href="#m7ce2ee25c6" y="263.481624"/>
     <use style="fill:#ff0000;stroke:#ff0000;stroke-linejoin:miter;" x="134.311391" xlink:href="#m7ce2ee25c6" y="262.765823"/>
     <use style="fill:#ff0000;stroke:#ff0000;stroke-linejoin:miter;" x="139.908883" xlink:href="#m7ce2ee25c6" y="261.679989"/>
     <use style="fill:#ff0000;stroke:#ff0000;stroke-linejoin:miter;" x="145.506375" xlink:href="#m7ce2ee25c6" y="259.297332"/>
     <use style="fill:#ff0000;stroke:#ff0000;stroke-linejoin:miter;" x="151.103868" xlink:href="#m7ce2ee25c6" y="254.898901"/>
     <use style="fill:#ff0000;stroke:#ff0000;stroke-linejoin:miter;" x="156.70136" xlink:href="#m7ce2ee25c6" y="247.176113"/>
     <use style="fill:#ff0000;stroke:#ff0000;stroke-linejoin:miter;" x="162.298852" xlink:href="#m7ce2ee25c6" y="236.941261"/>
     <use style="fill:#ff0000;stroke:#ff0000;stroke-linejoin:miter;" x="167.896344" xlink:href="#m7ce2ee25c6" y="223.082948"/>
     <use style="fill:#ff0000;stroke:#ff0000;stroke-linejoin:miter;" x="173.493836" xlink:href="#m7ce2ee25c6" y="207.74125"/>
     <use style="fill:#ff0000;stroke:#ff0000;stroke-linejoin:miter;" x="179.091328" xlink:href="#m7ce2ee25c6" y="191.804007"/>
     <use style="fill:#ff0000;stroke:#ff0000;stroke-linejoin:miter;" x="184.688821" xlink:href="#m7ce2ee25c6" y="174.715862"/>
     <use style="fill:#ff0000;stroke:#ff0000;stroke-linejoin:miter;" x="190.286313" xlink:href="#m7ce2ee25c6" y="160.970812"/>
     <use style="fill:#ff0000;stroke:#ff0000;stroke-linejoin:miter;" x="195.883805" xlink:href="#m7ce2ee25c6" y="150.817304"/>
     <use style="fill:#ff0000;stroke:#ff0000;stroke-linejoin:miter;" x="201.481297" xlink:href="#m7ce2ee25c6" y="144.967802"/>
     <use style="fill:#ff0000;stroke:#ff0000;stroke-linejoin:miter;" x="207.078789" xlink:href="#m7ce2ee25c6" y="144.657242"/>
     <use style="fill:#ff0000;stroke:#ff0000;stroke-linejoin:miter;" x="212.676281" xlink:href="#m7ce2ee25c6" y="150.65289"/>
     <use style="fill:#ff0000;stroke:#ff0000;stroke-linejoin:miter;" x="218.273774" xlink:href="#m7ce2ee25c6" y="160.41911"/>
     <use style="fill:#ff0000;stroke:#ff0000;stroke-linejoin:miter;" x="223.871266" xlink:href="#m7ce2ee25c6" y="172.910956"/>
     <use style="fill:#ff0000;stroke:#ff0000;stroke-linejoin:miter;" x="229.468758" xlink:href="#m7ce2ee25c6" y="186.590241"/>
     <use style="fill:#ff0000;stroke:#ff0000;stroke-linejoin:miter;" x="235.06625" xlink:href="#m7ce2ee25c6" y="202.757665"/>
     <use style="fill:#ff0000;stroke:#ff0000;stroke-linejoin:miter;" x="240.663742" xlink:href="#m7ce2ee25c6" y="215.519882"/>
     <use style="fill:#ff0000;stroke:#ff0000;stroke-linejoin:miter;" x="246.261234" xlink:href="#m7ce2ee25c6" y="228.947064"/>
     <use style="fill:#ff0000;stroke:#ff0000;stroke-linejoin:miter;" x="251.858726" xlink:href="#m7ce2ee25c6" y="238.607328"/>
     <use style="fill:#ff0000;stroke:#ff0000;stroke-linejoin:miter;" x="257.456219" xlink:href="#m7ce2ee25c6" y="247.217019"/>
     <use style="fill:#ff0000;stroke:#ff0000;stroke-linejoin:miter;" x="263.053711" xlink:href="#m7ce2ee25c6" y="253.579364"/>
     <use style="fill:#ff0000;stroke:#ff0000;stroke-linejoin:miter;" x="268.651203" xlink:href="#m7ce2ee25c6" y="257.57837"/>
     <use style="fill:#ff0000;stroke:#ff0000;stroke-linejoin:miter;" x="274.248695" xlink:href="#m7ce2ee25c6" y="259.846125"/>
     <use style="fill:#ff0000;stroke:#ff0000;stroke-linejoin:miter;" x="279.846187" xlink:href="#m7ce2ee25c6" y="261.540766"/>
     <use style="fill:#ff0000;stroke:#ff0000;stroke-linejoin:miter;" x="285.443679" xlink:href="#m7ce2ee25c6" y="262.563077"/>
     <use style="fill:#ff0000;stroke:#ff0000;stroke-linejoin:miter;" x="291.041172" xlink:href="#m7ce2ee25c6" y="263.062997"/>
     <use style="fill:#ff0000;stroke:#ff0000;stroke-linejoin:miter;" x="296.638664" xlink:href="#m7ce2ee25c6" y="263.497115"/>
     <use style="fill:#ff0000;stroke:#ff0000;stroke-linejoin:miter;" x="302.236156" xlink:href="#m7ce2ee25c6" y="263.704117"/>
     <use style="fill:#ff0000;stroke:#ff0000;stroke-linejoin:miter;" x="307.833648" xlink:href="#m7ce2ee25c6" y="263.847241"/>
     <use style="fill:#ff0000;stroke:#ff0000;stroke-linejoin:miter;" x="313.43114" xlink:href="#m7ce2ee25c6" y="263.905236"/>
     <use style="fill:#ff0000;stroke:#ff0000;stroke-linejoin:miter;" x="319.028632" xlink:href="#m7ce2ee25c6" y="263.905236"/>
     <use style="fill:#ff0000;stroke:#ff0000;stroke-linejoin:miter;" x="324.626125" xlink:href="#m7ce2ee25c6" y="263.905236"/>
     <use style="fill:#ff0000;stroke:#ff0000;stroke-linejoin:miter;" x="330.223617" xlink:href="#m7ce2ee25c6" y="263.905236"/>
     <use style="fill:#ff0000;stroke:#ff0000;stroke-linejoin:miter;" x="335.821109" xlink:href="#m7ce2ee25c6" y="263.905236"/>
     <use style="fill:#ff0000;stroke:#ff0000;stroke-linejoin:miter;" x="341.418601" xlink:href="#m7ce2ee25c6" y="263.905236"/>
     <use style="fill:#ff0000;stroke:#ff0000;stroke-linejoin:miter;" x="358.211078" xlink:href="#m7ce2ee25c6" y="263.905236"/>
    </g>
   </g>
   <g id="line2d_35">
    <path clip-path="url(#p8e656a196f)" d="M 117.518915 264.635967 
L 123.116407 264.635967 
L 128.713899 264.635967 
L 134.311391 264.635967 
L 139.908883 264.549998 
L 145.506375 264.552455 
L 151.103868 264.304175 
L 156.70136 263.884139 
L 162.298852 263.344188 
L 167.896344 261.906417 
L 173.493836 259.798353 
L 179.091328 255.287957 
L 184.688821 249.224718 
L 190.286313 241.18827 
L 195.883805 230.0227 
L 201.481297 218.143937 
L 207.078789 205.376604 
L 212.676281 192.52743 
L 218.273774 179.383041 
L 223.871266 168.837131 
L 229.468758 162.836368 
L 235.06625 158.036927 
L 240.663742 158.241531 
L 246.261234 162.225477 
L 251.858726 169.050504 
L 257.456219 178.15249 
L 263.053711 189.356058 
L 268.651203 201.69372 
L 274.248695 212.935286 
L 279.846187 223.972247 
L 285.443679 233.939418 
L 291.041172 242.065147 
L 296.638664 248.850416 
L 302.236156 254.036677 
L 307.833648 257.671994 
L 313.43114 260.197577 
L 319.028632 262.0861 
L 324.626125 263.139982 
L 330.223617 263.715918 
L 335.821109 264.011565 
L 341.418601 264.235363 
L 347.016093 264.495666 
L 352.613585 264.561969 
L 358.211078 264.635967 
L 363.80857 264.635967 
L 369.406062 264.635967 
L 375.003554 264.635967 
L 380.601046 264.635967 
L 386.198538 264.635967 
L 391.796031 264.635967 
L 397.393523 264.635967 
" style="fill:none;stroke:#a52a2a;stroke-linecap:square;"/>
    <defs>
     <path d="M 1 0 
L -1 -1 
L -1 1 
z
" id="m8baab3051f" style="stroke:#a52a2a;stroke-linejoin:miter;"/>
    </defs>
    <g clip-path="url(#p8e656a196f)">
     <use style="fill:#a52a2a;stroke:#a52a2a;stroke-linejoin:miter;" x="117.518915" xlink:href="#m8baab3051f" y="264.635967"/>
     <use style="fill:#a52a2a;stroke:#a52a2a;stroke-linejoin:miter;" x="123.116407" xlink:href="#m8baab3051f" y="264.635967"/>
     <use style="fill:#a52a2a;stroke:#a52a2a;stroke-linejoin:miter;" x="128.713899" xlink:href="#m8baab3051f" y="264.635967"/>
     <use style="fill:#a52a2a;stroke:#a52a2a;stroke-linejoin:miter;" x="134.311391" xlink:href="#m8baab3051f" y="264.635967"/>
     <use style="fill:#a52a2a;stroke:#a52a2a;stroke-linejoin:miter;" x="139.908883" xlink:href="#m8baab3051f" y="264.549998"/>
     <use style="fill:#a52a2a;stroke:#a52a2a;stroke-linejoin:miter;" x="145.506375" xlink:href="#m8baab3051f" y="264.552455"/>
     <use style="fill:#a52a2a;stroke:#a52a2a;stroke-linejoin:miter;" x="151.103868" xlink:href="#m8baab3051f" y="264.304175"/>
     <use style="fill:#a52a2a;stroke:#a52a2a;stroke-linejoin:miter;" x="156.70136" xlink:href="#m8baab3051f" y="263.884139"/>
     <use style="fill:#a52a2a;stroke:#a52a2a;stroke-linejoin:miter;" x="162.298852" xlink:href="#m8baab3051f" y="263.344188"/>
     <use style="fill:#a52a2a;stroke:#a52a2a;stroke-linejoin:miter;" x="167.896344" xlink:href="#m8baab3051f" y="261.906417"/>
     <use style="fill:#a52a2a;stroke:#a52a2a;stroke-linejoin:miter;" x="173.493836" xlink:href="#m8baab3051f" y="259.798353"/>
     <use style="fill:#a52a2a;stroke:#a52a2a;stroke-linejoin:miter;" x="179.091328" xlink:href="#m8baab3051f" y="255.287957"/>
     <use style="fill:#a52a2a;stroke:#a52a2a;stroke-linejoin:miter;" x="184.688821" xlink:href="#m8baab3051f" y="249.224718"/>
     <use style="fill:#a52a2a;stroke:#a52a2a;stroke-linejoin:miter;" x="190.286313" xlink:href="#m8baab3051f" y="241.18827"/>
     <use style="fill:#a52a2a;stroke:#a52a2a;stroke-linejoin:miter;" x="195.883805" xlink:href="#m8baab3051f" y="230.0227"/>
     <use style="fill:#a52a2a;stroke:#a52a2a;stroke-linejoin:miter;" x="201.481297" xlink:href="#m8baab3051f" y="218.143937"/>
     <use style="fill:#a52a2a;stroke:#a52a2a;stroke-linejoin:miter;" x="207.078789" xlink:href="#m8baab3051f" y="205.376604"/>
     <use style="fill:#a52a2a;stroke:#a52a2a;stroke-linejoin:miter;" x="212.676281" xlink:href="#m8baab3051f" y="192.52743"/>
     <use style="fill:#a52a2a;stroke:#a52a2a;stroke-linejoin:miter;" x="218.273774" xlink:href="#m8baab3051f" y="179.383041"/>
     <use style="fill:#a52a2a;stroke:#a52a2a;stroke-linejoin:miter;" x="223.871266" xlink:href="#m8baab3051f" y="168.837131"/>
     <use style="fill:#a52a2a;stroke:#a52a2a;stroke-linejoin:miter;" x="229.468758" xlink:href="#m8baab3051f" y="162.836368"/>
     <use style="fill:#a52a2a;stroke:#a52a2a;stroke-linejoin:miter;" x="235.06625" xlink:href="#m8baab3051f" y="158.036927"/>
     <use style="fill:#a52a2a;stroke:#a52a2a;stroke-linejoin:miter;" x="240.663742" xlink:href="#m8baab3051f" y="158.241531"/>
     <use style="fill:#a52a2a;stroke:#a52a2a;stroke-linejoin:miter;" x="246.261234" xlink:href="#m8baab3051f" y="162.225477"/>
     <use style="fill:#a52a2a;stroke:#a52a2a;stroke-linejoin:miter;" x="251.858726" xlink:href="#m8baab3051f" y="169.050504"/>
     <use style="fill:#a52a2a;stroke:#a52a2a;stroke-linejoin:miter;" x="257.456219" xlink:href="#m8baab3051f" y="178.15249"/>
     <use style="fill:#a52a2a;stroke:#a52a2a;stroke-linejoin:miter;" x="263.053711" xlink:href="#m8baab3051f" y="189.356058"/>
     <use style="fill:#a52a2a;stroke:#a52a2a;stroke-linejoin:miter;" x="268.651203" xlink:href="#m8baab3051f" y="201.69372"/>
     <use style="fill:#a52a2a;stroke:#a52a2a;stroke-linejoin:miter;" x="274.248695" xlink:href="#m8baab3051f" y="212.935286"/>
     <use style="fill:#a52a2a;stroke:#a52a2a;stroke-linejoin:miter;" x="279.846187" xlink:href="#m8baab3051f" y="223.972247"/>
     <use style="fill:#a52a2a;stroke:#a52a2a;stroke-linejoin:miter;" x="285.443679" xlink:href="#m8baab3051f" y="233.939418"/>
     <use style="fill:#a52a2a;stroke:#a52a2a;stroke-linejoin:miter;" x="291.041172" xlink:href="#m8baab3051f" y="242.065147"/>
     <use style="fill:#a52a2a;stroke:#a52a2a;stroke-linejoin:miter;" x="296.638664" xlink:href="#m8baab3051f" y="248.850416"/>
     <use style="fill:#a52a2a;stroke:#a52a2a;stroke-linejoin:miter;" x="302.236156" xlink:href="#m8baab3051f" y="254.036677"/>
     <use style="fill:#a52a2a;stroke:#a52a2a;stroke-linejoin:miter;" x="307.833648" xlink:href="#m8baab3051f" y="257.671994"/>
     <use style="fill:#a52a2a;stroke:#a52a2a;stroke-linejoin:miter;" x="313.43114" xlink:href="#m8baab3051f" y="260.197577"/>
     <use style="fill:#a52a2a;stroke:#a52a2a;stroke-linejoin:miter;" x="319.028632" xlink:href="#m8baab3051f" y="262.0861"/>
     <use style="fill:#a52a2a;stroke:#a52a2a;stroke-linejoin:miter;" x="324.626125" xlink:href="#m8baab3051f" y="263.139982"/>
     <use style="fill:#a52a2a;stroke:#a52a2a;stroke-linejoin:miter;" x="330.223617" xlink:href="#m8baab3051f" y="263.715918"/>
     <use style="fill:#a52a2a;stroke:#a52a2a;stroke-linejoin:miter;" x="335.821109" xlink:href="#m8baab3051f" y="264.011565"/>
     <use style="fill:#a52a2a;stroke:#a52a2a;stroke-linejoin:miter;" x="341.418601" xlink:href="#m8baab3051f" y="264.235363"/>
     <use style="fill:#a52a2a;stroke:#a52a2a;stroke-linejoin:miter;" x="347.016093" xlink:href="#m8baab3051f" y="264.495666"/>
     <use style="fill:#a52a2a;stroke:#a52a2a;stroke-linejoin:miter;" x="352.613585" xlink:href="#m8baab3051f" y="264.561969"/>
     <use style="fill:#a52a2a;stroke:#a52a2a;stroke-linejoin:miter;" x="358.211078" xlink:href="#m8baab3051f" y="264.635967"/>
     <use style="fill:#a52a2a;stroke:#a52a2a;stroke-linejoin:miter;" x="363.80857" xlink:href="#m8baab3051f" y="264.635967"/>
     <use style="fill:#a52a2a;stroke:#a52a2a;stroke-linejoin:miter;" x="369.406062" xlink:href="#m8baab3051f" y="264.635967"/>
     <use style="fill:#a52a2a;stroke:#a52a2a;stroke-linejoin:miter;" x="375.003554" xlink:href="#m8baab3051f" y="264.635967"/>
     <use style="fill:#a52a2a;stroke:#a52a2a;stroke-linejoin:miter;" x="380.601046" xlink:href="#m8baab3051f" y="264.635967"/>
     <use style="fill:#a52a2a;stroke:#a52a2a;stroke-linejoin:miter;" x="386.198538" xlink:href="#m8baab3051f" y="264.635967"/>
     <use style="fill:#a52a2a;stroke:#a52a2a;stroke-linejoin:miter;" x="391.796031" xlink:href="#m8baab3051f" y="264.635967"/>
     <use style="fill:#a52a2a;stroke:#a52a2a;stroke-linejoin:miter;" x="397.393523" xlink:href="#m8baab3051f" y="264.635967"/>
    </g>
   </g>
   <g id="patch_3">
    <path d="M 56.50625 276.812 
L 56.50625 10.7 
" style="fill:none;stroke:#000000;stroke-linecap:square;stroke-linejoin:miter;stroke-width:0.8;"/>
   </g>
   <g id="patch_4">
    <path d="M 413.62625 276.812 
L 413.62625 10.7 
" style="fill:none;stroke:#000000;stroke-linecap:square;stroke-linejoin:miter;stroke-width:0.8;"/>
   </g>
   <g id="patch_5">
    <path d="M 56.50625 276.812 
L 413.62625 276.812 
" style="fill:none;stroke:#000000;stroke-linecap:square;stroke-linejoin:miter;stroke-width:0.8;"/>
   </g>
   <g id="patch_6">
    <path d="M 56.50625 10.7 
L 413.62625 10.7 
" style="fill:none;stroke:#000000;stroke-linecap:square;stroke-linejoin:miter;stroke-width:0.8;"/>
   </g>
   <g id="legend_1">
    <g id="patch_7">
     <path d="M 274.798125 92.090625 
L 408.62625 92.090625 
L 408.62625 15.7 
L 274.798125 15.7 
z
" style="fill:#ffffff;opacity:0.8;stroke:#cccccc;stroke-linejoin:miter;"/>
    </g>
    <g id="LineCollection_6">
     <path d="M 288.798125 28.798438 
L 288.798125 18.798438 
" style="fill:none;stroke:#000000;"/>
    </g>
    <g id="line2d_36">
     <path d="M 278.798125 23.798438 
L 298.798125 23.798438 
" style="fill:none;stroke:#000000;stroke-linecap:square;"/>
    </g>
    <g id="line2d_37">
     <g>
      <use style="stroke:#000000;" x="288.798125" xlink:href="#m84586cbde0" y="23.798438"/>
     </g>
    </g>
    <g id="text_18">
     <!-- #v = 100, p = 0.06 -->
     <defs>
      <path d="M 51.125 44 
L 36.921875 44 
L 32.8125 27.6875 
L 47.125 27.6875 
z
M 43.796875 71.78125 
L 38.71875 51.515625 
L 52.984375 51.515625 
L 58.109375 71.78125 
L 65.921875 71.78125 
L 60.890625 51.515625 
L 76.125 51.515625 
L 76.125 44 
L 58.984375 44 
L 54.984375 27.6875 
L 70.515625 27.6875 
L 70.515625 20.21875 
L 53.078125 20.21875 
L 48 0 
L 40.1875 0 
L 45.21875 20.21875 
L 30.90625 20.21875 
L 25.875 0 
L 18.015625 0 
L 23.09375 20.21875 
L 7.71875 20.21875 
L 7.71875 27.6875 
L 24.90625 27.6875 
L 29 44 
L 13.28125 44 
L 13.28125 51.515625 
L 30.90625 51.515625 
L 35.890625 71.78125 
z
" id="DejaVuSans-35"/>
      <path d="M 10.59375 45.40625 
L 73.1875 45.40625 
L 73.1875 37.203125 
L 10.59375 37.203125 
z
M 10.59375 25.484375 
L 73.1875 25.484375 
L 73.1875 17.1875 
L 10.59375 17.1875 
z
" id="DejaVuSans-61"/>
      <path d="M 11.71875 12.40625 
L 22.015625 12.40625 
L 22.015625 4 
L 14.015625 -11.625 
L 7.71875 -11.625 
L 11.71875 4 
z
" id="DejaVuSans-44"/>
     </defs>
     <g transform="translate(306.798125 27.298438)scale(0.1 -0.1)">
      <use xlink:href="#DejaVuSans-35"/>
      <use x="83.789062" xlink:href="#DejaVuSans-118"/>
      <use x="142.96875" xlink:href="#DejaVuSans-32"/>
      <use x="174.755859" xlink:href="#DejaVuSans-61"/>
      <use x="258.544922" xlink:href="#DejaVuSans-32"/>
      <use x="290.332031" xlink:href="#DejaVuSans-49"/>
      <use x="353.955078" xlink:href="#DejaVuSans-48"/>
      <use x="417.578125" xlink:href="#DejaVuSans-48"/>
      <use x="481.201172" xlink:href="#DejaVuSans-44"/>
      <use x="512.988281" xlink:href="#DejaVuSans-32"/>
      <use x="544.775391" xlink:href="#DejaVuSans-112"/>
      <use x="608.251953" xlink:href="#DejaVuSans-32"/>
      <use x="640.039062" xlink:href="#DejaVuSans-61"/>
      <use x="723.828125" xlink:href="#DejaVuSans-32"/>
      <use x="755.615234" xlink:href="#DejaVuSans-48"/>
      <use x="819.238281" xlink:href="#DejaVuSans-46"/>
      <use x="851.025391" xlink:href="#DejaVuSans-48"/>
      <use x="914.648438" xlink:href="#DejaVuSans-54"/>
     </g>
    </g>
    <g id="LineCollection_7">
     <path d="M 288.798125 43.476563 
L 288.798125 33.476563 
" style="fill:none;stroke:#0000ff;"/>
    </g>
    <g id="line2d_38">
     <path d="M 278.798125 38.476563 
L 298.798125 38.476563 
" style="fill:none;stroke:#0000ff;stroke-linecap:square;"/>
    </g>
    <g id="line2d_39">
     <g>
      <use style="fill:#0000ff;stroke:#0000ff;stroke-linejoin:miter;" x="288.798125" xlink:href="#m7a8f5697bf" y="38.476563"/>
     </g>
    </g>
    <g id="text_19">
     <!-- #v = 200, p = 0.06 -->
     <g transform="translate(306.798125 41.976563)scale(0.1 -0.1)">
      <use xlink:href="#DejaVuSans-35"/>
      <use x="83.789062" xlink:href="#DejaVuSans-118"/>
      <use x="142.96875" xlink:href="#DejaVuSans-32"/>
      <use x="174.755859" xlink:href="#DejaVuSans-61"/>
      <use x="258.544922" xlink:href="#DejaVuSans-32"/>
      <use x="290.332031" xlink:href="#DejaVuSans-50"/>
      <use x="353.955078" xlink:href="#DejaVuSans-48"/>
      <use x="417.578125" xlink:href="#DejaVuSans-48"/>
      <use x="481.201172" xlink:href="#DejaVuSans-44"/>
      <use x="512.988281" xlink:href="#DejaVuSans-32"/>
      <use x="544.775391" xlink:href="#DejaVuSans-112"/>
      <use x="608.251953" xlink:href="#DejaVuSans-32"/>
      <use x="640.039062" xlink:href="#DejaVuSans-61"/>
      <use x="723.828125" xlink:href="#DejaVuSans-32"/>
      <use x="755.615234" xlink:href="#DejaVuSans-48"/>
      <use x="819.238281" xlink:href="#DejaVuSans-46"/>
      <use x="851.025391" xlink:href="#DejaVuSans-48"/>
      <use x="914.648438" xlink:href="#DejaVuSans-54"/>
     </g>
    </g>
    <g id="LineCollection_8">
     <path d="M 288.798125 58.154688 
L 288.798125 48.154688 
" style="fill:none;stroke:#008000;"/>
    </g>
    <g id="line2d_40">
     <path d="M 278.798125 53.154688 
L 298.798125 53.154688 
" style="fill:none;stroke:#008000;stroke-linecap:square;"/>
    </g>
    <g id="line2d_41">
     <g>
      <use style="fill:#008000;stroke:#008000;stroke-linejoin:miter;" x="288.798125" xlink:href="#me5f4de6013" y="53.154688"/>
     </g>
    </g>
    <g id="text_20">
     <!-- #v = 300, p = 0.06 -->
     <g transform="translate(306.798125 56.654688)scale(0.1 -0.1)">
      <use xlink:href="#DejaVuSans-35"/>
      <use x="83.789062" xlink:href="#DejaVuSans-118"/>
      <use x="142.96875" xlink:href="#DejaVuSans-32"/>
      <use x="174.755859" xlink:href="#DejaVuSans-61"/>
      <use x="258.544922" xlink:href="#DejaVuSans-32"/>
      <use x="290.332031" xlink:href="#DejaVuSans-51"/>
      <use x="353.955078" xlink:href="#DejaVuSans-48"/>
      <use x="417.578125" xlink:href="#DejaVuSans-48"/>
      <use x="481.201172" xlink:href="#DejaVuSans-44"/>
      <use x="512.988281" xlink:href="#DejaVuSans-32"/>
      <use x="544.775391" xlink:href="#DejaVuSans-112"/>
      <use x="608.251953" xlink:href="#DejaVuSans-32"/>
      <use x="640.039062" xlink:href="#DejaVuSans-61"/>
      <use x="723.828125" xlink:href="#DejaVuSans-32"/>
      <use x="755.615234" xlink:href="#DejaVuSans-48"/>
      <use x="819.238281" xlink:href="#DejaVuSans-46"/>
      <use x="851.025391" xlink:href="#DejaVuSans-48"/>
      <use x="914.648438" xlink:href="#DejaVuSans-54"/>
     </g>
    </g>
    <g id="LineCollection_9">
     <path d="M 288.798125 72.832813 
L 288.798125 62.832813 
" style="fill:none;stroke:#ff0000;"/>
    </g>
    <g id="line2d_42">
     <path d="M 278.798125 67.832813 
L 298.798125 67.832813 
" style="fill:none;stroke:#ff0000;stroke-linecap:square;"/>
    </g>
    <g id="line2d_43">
     <g>
      <use style="fill:#ff0000;stroke:#ff0000;stroke-linejoin:miter;" x="288.798125" xlink:href="#m7ce2ee25c6" y="67.832813"/>
     </g>
    </g>
    <g id="text_21">
     <!-- #v = 400, p = 0.06 -->
     <g transform="translate(306.798125 71.332813)scale(0.1 -0.1)">
      <use xlink:href="#DejaVuSans-35"/>
      <use x="83.789062" xlink:href="#DejaVuSans-118"/>
      <use x="142.96875" xlink:href="#DejaVuSans-32"/>
      <use x="174.755859" xlink:href="#DejaVuSans-61"/>
      <use x="258.544922" xlink:href="#DejaVuSans-32"/>
      <use x="290.332031" xlink:href="#DejaVuSans-52"/>
      <use x="353.955078" xlink:href="#DejaVuSans-48"/>
      <use x="417.578125" xlink:href="#DejaVuSans-48"/>
      <use x="481.201172" xlink:href="#DejaVuSans-44"/>
      <use x="512.988281" xlink:href="#DejaVuSans-32"/>
      <use x="544.775391" xlink:href="#DejaVuSans-112"/>
      <use x="608.251953" xlink:href="#DejaVuSans-32"/>
      <use x="640.039062" xlink:href="#DejaVuSans-61"/>
      <use x="723.828125" xlink:href="#DejaVuSans-32"/>
      <use x="755.615234" xlink:href="#DejaVuSans-48"/>
      <use x="819.238281" xlink:href="#DejaVuSans-46"/>
      <use x="851.025391" xlink:href="#DejaVuSans-48"/>
      <use x="914.648438" xlink:href="#DejaVuSans-54"/>
     </g>
    </g>
    <g id="LineCollection_10">
     <path d="M 288.798125 87.510938 
L 288.798125 77.510938 
" style="fill:none;stroke:#a52a2a;"/>
    </g>
    <g id="line2d_44">
     <path d="M 278.798125 82.510938 
L 298.798125 82.510938 
" style="fill:none;stroke:#a52a2a;stroke-linecap:square;"/>
    </g>
    <g id="line2d_45">
     <g>
      <use style="fill:#a52a2a;stroke:#a52a2a;stroke-linejoin:miter;" x="288.798125" xlink:href="#m8baab3051f" y="82.510938"/>
     </g>
    </g>
    <g id="text_22">
     <!-- #v = 500, p = 0.06 -->
     <g transform="translate(306.798125 86.010938)scale(0.1 -0.1)">
      <use xlink:href="#DejaVuSans-35"/>
      <use x="83.789062" xlink:href="#DejaVuSans-118"/>
      <use x="142.96875" xlink:href="#DejaVuSans-32"/>
      <use x="174.755859" xlink:href="#DejaVuSans-61"/>
      <use x="258.544922" xlink:href="#DejaVuSans-32"/>
      <use x="290.332031" xlink:href="#DejaVuSans-53"/>
      <use x="353.955078" xlink:href="#DejaVuSans-48"/>
      <use x="417.578125" xlink:href="#DejaVuSans-48"/>
      <use x="481.201172" xlink:href="#DejaVuSans-44"/>
      <use x="512.988281" xlink:href="#DejaVuSans-32"/>
      <use x="544.775391" xlink:href="#DejaVuSans-112"/>
      <use x="608.251953" xlink:href="#DejaVuSans-32"/>
      <use x="640.039062" xlink:href="#DejaVuSans-61"/>
      <use x="723.828125" xlink:href="#DejaVuSans-32"/>
      <use x="755.615234" xlink:href="#DejaVuSans-48"/>
      <use x="819.238281" xlink:href="#DejaVuSans-46"/>
      <use x="851.025391" xlink:href="#DejaVuSans-48"/>
      <use x="914.648438" xlink:href="#DejaVuSans-54"/>
     </g>
    </g>
   </g>
  </g>
 </g>
 <defs>
  <clipPath id="p8e656a196f">
   <rect height="266.112" width="357.12" x="56.50625" y="10.7"/>
  </clipPath>
 </defs>
</svg>
