<?xml version="1.0" encoding="utf-8" standalone="no"?>
<!DOCTYPE svg PUBLIC "-//W3C//DTD SVG 1.1//EN"
  "http://www.w3.org/Graphics/SVG/1.1/DTD/svg11.dtd">
<!-- Created with matplotlib (https://matplotlib.org/) -->
<svg height="360pt" version="1.1" viewBox="0 0 360 360" width="360pt" xmlns="http://www.w3.org/2000/svg" xmlns:xlink="http://www.w3.org/1999/xlink">
 <defs>
  <style type="text/css">
*{stroke-linecap:butt;stroke-linejoin:round;}
  </style>
 </defs>
 <g id="figure_1">
  <g id="patch_1">
   <path d="M 0 360 
L 360 360 
L 360 0 
L 0 0 
z
" style="fill:#ffffff;"/>
  </g>
  <g id="axes_1">
   <g id="patch_2">
    <path d="M 45 320.4 
L 324 320.4 
L 324 43.2 
L 45 43.2 
z
" style="fill:#ffffff;"/>
   </g>
   <g id="PolyCollection_1">
    <defs>
     <path d="M 57.681818 -52.2 
L 57.681818 -52.2 
L 58.340614 -53.149734 
L 58.99941 -55.524068 
L 59.658205 -60.272738 
L 60.317001 -65.496274 
L 60.975797 -73.090187 
L 61.634593 -81.321214 
L 62.293388 -87.973308 
L 62.952184 -98.262091 
L 63.61098 -104.277072 
L 64.269776 -110.292053 
L 64.928571 -116.307033 
L 65.587367 -122.792924 
L 66.246163 -129.445018 
L 66.904959 -134.668554 
L 67.563754 -140.683535 
L 68.22255 -142.741292 
L 68.881346 -145.582579 
L 69.540142 -151.918095 
L 70.198937 -163.156612 
L 70.857733 -164.739502 
L 71.516529 -171.391596 
L 72.175325 -176.452885 
L 72.83412 -179.935243 
L 73.492916 -179.135884 
L 74.151712 -185.791935 
L 74.810508 -182.942733 
L 75.469303 -184.521666 
L 76.128099 -186.104556 
L 76.786895 -189.274292 
L 77.445691 -192.598361 
L 78.104486 -192.444029 
L 78.763282 -192.432157 
L 79.422078 -190.536647 
L 80.080874 -195.447562 
L 80.739669 -194.339539 
L 81.398465 -194.497828 
L 82.057261 -187.062204 
L 82.716057 -192.918896 
L 83.374852 -191.965205 
L 84.033648 -194.343496 
L 84.692444 -193.227559 
L 85.35124 -192.594403 
L 86.010035 -193.86863 
L 86.668831 -191.806916 
L 87.327627 -195.601894 
L 87.986423 -190.065737 
L 88.645218 -195.289273 
L 89.304014 -193.385848 
L 89.96281 -189.907448 
L 90.621606 -188.470976 
L 91.280401 -187.533113 
L 91.939197 -183.896424 
L 92.597993 -185.467442 
L 93.256789 -179.9392 
L 93.915584 -175.024328 
L 94.57438 -173.128817 
L 95.233176 -174.711707 
L 95.891972 -172.337372 
L 96.550767 -168.380148 
L 97.209563 -171.067103 
L 97.868359 -171.391596 
L 98.527155 -169.492128 
L 99.18595 -166.797258 
L 99.844746 -164.897791 
L 100.503542 -160.141207 
L 101.162338 -159.678212 
L 101.821133 -154.763339 
L 102.479929 -154.450718 
L 103.138725 -155.083874 
L 103.797521 -151.284939 
L 104.456316 -150.643869 
L 105.115112 -147.011137 
L 105.773908 -146.219692 
L 106.432704 -146.540227 
L 107.091499 -144.474556 
L 107.750295 -141.308777 
L 108.409091 -139.888133 
L 109.067887 -136.560107 
L 109.726682 -135.594545 
L 110.385478 -139.575512 
L 111.044274 -136.564065 
L 111.70307 -137.355509 
L 112.361865 -137.042889 
L 113.020661 -134.66064 
L 113.679457 -133.239996 
L 114.338253 -130.07026 
L 114.997048 -127.541593 
L 115.655844 -128.01646 
L 116.31464 -126.591859 
L 116.973436 -124.375814 
L 117.632231 -125.638168 
L 118.291027 -123.746615 
L 118.949823 -121.526612 
L 119.608619 -122.95517 
L 120.267414 -118.36479 
L 120.92621 -118.352918 
L 121.585006 -117.569388 
L 122.243802 -117.256767 
L 122.902597 -113.299543 
L 123.561393 -115.832167 
L 124.220189 -115.824252 
L 124.878985 -113.766496 
L 125.53778 -113.295586 
L 126.196576 -112.658473 
L 126.855372 -112.484355 
L 127.514168 -109.975475 
L 128.172963 -110.446384 
L 128.831759 -109.025741 
L 129.490555 -108.222424 
L 130.149351 -107.589268 
L 130.808146 -105.697715 
L 131.466942 -104.273114 
L 132.125738 -102.848514 
L 132.784534 -102.373647 
L 133.443329 -102.377604 
L 134.102125 -98.733 
L 134.760921 -100.636425 
L 135.419717 -99.999312 
L 136.078512 -98.729043 
L 136.737308 -99.362199 
L 137.396104 -100.153644 
L 138.0549 -101.265624 
L 138.713695 -104.118783 
L 139.372491 -102.694182 
L 140.031287 -99.837066 
L 140.690083 -102.049154 
L 141.348878 -103.485627 
L 142.007674 -98.891289 
L 142.66647 -98.42038 
L 143.325266 -96.354709 
L 143.984061 -95.567221 
L 144.642857 -95.563264 
L 145.301653 -92.710105 
L 145.960449 -89.872775 
L 146.619244 -87.494483 
L 147.27804 -85.915551 
L 147.936836 -84.803571 
L 148.595632 -83.382927 
L 149.254427 -81.008593 
L 149.913223 -81.162925 
L 150.572019 -78.792547 
L 151.230815 -79.583992 
L 151.88961 -77.522278 
L 152.548406 -77.522278 
L 153.207202 -76.576502 
L 153.865998 -75.151901 
L 154.524793 -74.506873 
L 155.183589 -73.565054 
L 155.842385 -74.518745 
L 156.501181 -73.569011 
L 157.159976 -73.7273 
L 157.818772 -73.252433 
L 158.477568 -73.090187 
L 159.136364 -74.85615 
L 159.795159 -73.856431 
L 160.453955 -74.52291 
L 161.112751 -74.193836 
L 161.771547 -72.694256 
L 162.430342 -72.856711 
L 163.089138 -72.194396 
L 163.747934 -71.690371 
L 164.40673 -71.861156 
L 165.065525 -71.357131 
L 165.724321 -71.527917 
L 166.383117 -69.528477 
L 167.041913 -70.66265 
L 167.700708 -69.43591 
L 168.359504 -67.853021 
L 169.0183 -67.848624 
L 169.677096 -66.441611 
L 170.335891 -66.270131 
L 170.994687 -66.96924 
L 171.653483 -66.094254 
L 172.312279 -65.386351 
L 172.971074 -64.863118 
L 173.62987 -63.631981 
L 174.288666 -63.807858 
L 174.947462 -64.511364 
L 175.606257 -63.280228 
L 176.265053 -62.049092 
L 176.923849 -61.697338 
L 177.582645 -61.50646 
L 178.24144 -61.511116 
L 178.900236 -61.697338 
L 179.559032 -62.119442 
L 180.217828 -62.325218 
L 180.876623 -61.486286 
L 181.535419 -61.275234 
L 182.194215 -60.431027 
L 182.853011 -58.948386 
L 183.511806 -59.586819 
L 184.170602 -58.531559 
L 184.829398 -58.320507 
L 185.488194 -58.320507 
L 186.146989 -58.525906 
L 186.805785 -58.983813 
L 187.464581 -59.850634 
L 188.123377 -60.378264 
L 188.782172 -60.378264 
L 189.440968 -59.586819 
L 190.099764 -59.586819 
L 190.75856 -60.642078 
L 191.417355 -60.114449 
L 192.076151 -60.833944 
L 192.734947 -62.330494 
L 193.393743 -62.330494 
L 194.052538 -62.013916 
L 194.711334 -63.447311 
L 195.37013 -63.447311 
L 196.028926 -63.104351 
L 196.687721 -64.071673 
L 197.346517 -62.874613 
L 198.005313 -62.874613 
L 198.664109 -62.488783 
L 199.322904 -64.467395 
L 199.9817 -63.280228 
L 200.640496 -62.488783 
L 201.299292 -64.410864 
L 201.958087 -65.918378 
L 202.616883 -64.335488 
L 203.275679 -64.863118 
L 203.934475 -63.794667 
L 204.59327 -65.905187 
L 205.252066 -66.973637 
L 205.910862 -64.335488 
L 206.569658 -62.752598 
L 207.228453 -63.280228 
L 207.887249 -63.280228 
L 208.546045 -64.849927 
L 209.204841 -65.390748 
L 209.863636 -66.973637 
L 210.522432 -68.556527 
L 211.181228 -70.139417 
L 211.840024 -71.194677 
L 212.498819 -71.722306 
L 213.157615 -75.415716 
L 213.816411 -74.888086 
L 214.475207 -72.777566 
L 215.134002 -74.874895 
L 215.792798 -73.819635 
L 216.451594 -73.292005 
L 217.11039 -71.722306 
L 217.769185 -72.236746 
L 218.427981 -71.181486 
L 219.086777 -70.667047 
L 219.745573 -71.722306 
L 220.404368 -70.667047 
L 221.063164 -77.526235 
L 221.72196 -73.094144 
L 222.380756 -73.094144 
L 223.039551 -71.827832 
L 223.698347 -71.194677 
L 224.357143 -71.178848 
L 225.015939 -67.395741 
L 225.674734 -64.229962 
L 226.33353 -64.229962 
L 226.992326 -63.596806 
L 227.651122 -64.229962 
L 228.309917 -64.229962 
L 228.968713 -62.330494 
L 229.627509 -60.431027 
L 230.286305 -60.415198 
L 230.9451 -60.431027 
L 231.603896 -61.064182 
L 232.262692 -57.898403 
L 232.921488 -55.998935 
L 233.580283 -57.265247 
L 234.239079 -59.797871 
L 234.897875 -61.064182 
L 235.556671 -60.431027 
L 236.215466 -61.064182 
L 236.874262 -62.330494 
L 237.533058 -62.330494 
L 238.191854 -63.596806 
L 238.850649 -64.071673 
L 239.509445 -62.488783 
L 240.168241 -62.488783 
L 240.827037 -63.280228 
L 241.485832 -62.488783 
L 242.144628 -62.488783 
L 242.803424 -61.697338 
L 243.46222 -60.114449 
L 244.121015 -60.114449 
L 244.779811 -60.114449 
L 245.438607 -60.114449 
L 246.097403 -59.323004 
L 246.756198 -60.114449 
L 247.414994 -60.114449 
L 248.07379 -60.114449 
L 248.732586 -58.531559 
L 249.391381 -56.157224 
L 250.050177 -56.948669 
L 250.708973 -52.991445 
L 251.367769 -53.78289 
L 252.026564 -55.365779 
L 252.68536 -56.157224 
L 253.344156 -55.365779 
L 254.002952 -55.365779 
L 254.661747 -55.365779 
L 255.320543 -55.365779 
L 255.979339 -52.2 
L 256.638135 -52.2 
L 257.29693 -52.2 
L 257.955726 -52.2 
L 258.614522 -55.365779 
L 259.273318 -55.365779 
L 259.932113 -58.531559 
L 260.590909 -58.531559 
L 261.249705 -55.365779 
L 261.908501 -55.365779 
L 262.567296 -52.2 
L 263.226092 -55.365779 
L 263.884888 -55.365779 
L 264.543684 -58.531559 
L 265.202479 -58.531559 
L 265.861275 -55.365779 
L 266.520071 -55.365779 
L 267.178867 -55.365779 
L 267.837662 -55.365779 
L 268.496458 -55.365779 
L 269.155254 -55.365779 
L 269.81405 -55.365779 
L 270.472845 -55.365779 
L 271.131641 -55.365779 
L 271.790437 -55.365779 
L 272.449233 -55.365779 
L 273.108028 -55.365779 
L 273.766824 -55.365779 
L 274.42562 -55.365779 
L 275.084416 -55.365779 
L 275.743211 -55.365779 
L 276.402007 -55.365779 
L 277.060803 -55.365779 
L 277.719599 -55.365779 
L 278.378394 -55.365779 
L 279.03719 -55.365779 
L 279.695986 -55.365779 
L 280.354782 -55.365779 
L 281.013577 -55.365779 
L 281.672373 -52.2 
L 282.331169 -52.2 
L 282.989965 -52.2 
L 283.64876 -52.2 
L 284.307556 -52.2 
L 284.966352 -55.365779 
L 285.625148 -55.365779 
L 286.283943 -55.365779 
L 286.942739 -55.365779 
L 287.601535 -55.365779 
L 287.601535 -80.692015 
L 287.601535 -80.692015 
L 286.942739 -74.360456 
L 286.283943 -74.360456 
L 285.625148 -74.360456 
L 284.966352 -74.360456 
L 284.307556 -71.194677 
L 283.64876 -74.360456 
L 282.989965 -77.526235 
L 282.331169 -83.857794 
L 281.672373 -80.692015 
L 281.013577 -83.857794 
L 280.354782 -80.692015 
L 279.695986 -83.857794 
L 279.03719 -87.023574 
L 278.378394 -83.857794 
L 277.719599 -83.857794 
L 277.060803 -87.023574 
L 276.402007 -93.355133 
L 275.743211 -99.686691 
L 275.084416 -93.355133 
L 274.42562 -93.355133 
L 273.766824 -93.355133 
L 273.108028 -96.520912 
L 272.449233 -96.520912 
L 271.790437 -90.189353 
L 271.131641 -90.189353 
L 270.472845 -93.355133 
L 269.81405 -96.520912 
L 269.155254 -99.686691 
L 268.496458 -99.686691 
L 267.837662 -96.520912 
L 267.178867 -96.520912 
L 266.520071 -102.852471 
L 265.861275 -99.686691 
L 265.202479 -106.01825 
L 264.543684 -112.349809 
L 263.884888 -118.681368 
L 263.226092 -118.681368 
L 262.567296 -112.349809 
L 261.908501 -112.349809 
L 261.249705 -115.515589 
L 260.590909 -125.012927 
L 259.932113 -131.344486 
L 259.273318 -134.510265 
L 258.614522 -134.510265 
L 257.955726 -125.012927 
L 257.29693 -121.847148 
L 256.638135 -115.515589 
L 255.979339 -125.012927 
L 255.320543 -121.847148 
L 254.661747 -128.178706 
L 254.002952 -112.349809 
L 253.344156 -119.472813 
L 252.68536 -108.392585 
L 252.026564 -105.226805 
L 251.367769 -117.098478 
L 250.708973 -114.783502 
L 250.050177 -108.392585 
L 249.391381 -106.057823 
L 248.732586 -108.392585 
L 248.07379 -113.932699 
L 247.414994 -109.18403 
L 246.756198 -104.435361 
L 246.097403 -104.435361 
L 245.438607 -99.686691 
L 244.779811 -94.938022 
L 244.121015 -95.729467 
L 243.46222 -93.355133 
L 242.803424 -96.520912 
L 242.144628 -98.895247 
L 241.485832 -96.520912 
L 240.827037 -102.061026 
L 240.168241 -105.226805 
L 239.509445 -105.226805 
L 238.850649 -108.392585 
L 238.191854 -95.887756 
L 237.533058 -104.118783 
L 236.874262 -99.053536 
L 236.215466 -105.385094 
L 235.556671 -107.284562 
L 234.897875 -110.450342 
L 234.239079 -115.515589 
L 233.580283 -112.349809 
L 232.921488 -121.847148 
L 232.262692 -126.279239 
L 231.603896 -121.847148 
L 230.9451 -114.249277 
L 230.286305 -113.63195 
L 229.627509 -111.083497 
L 228.968713 -107.917718 
L 228.309917 -111.716653 
L 227.651122 -104.118783 
L 226.992326 -107.284562 
L 226.33353 -107.917718 
L 225.674734 -104.751939 
L 225.015939 -109.18403 
L 224.357143 -104.751939 
L 223.698347 -103.485627 
L 223.039551 -106.01825 
L 222.380756 -104.751939 
L 221.72196 -104.751939 
L 221.063164 -107.284562 
L 220.404368 -99.159062 
L 219.745573 -102.852471 
L 219.086777 -95.993282 
L 218.427981 -94.938022 
L 217.769185 -94.938022 
L 217.11039 -92.299873 
L 216.451594 -95.465652 
L 215.792798 -95.993282 
L 215.134002 -97.576172 
L 214.475207 -94.410392 
L 213.816411 -97.061733 
L 213.157615 -102.865662 
L 212.498819 -103.907731 
L 211.840024 -102.324841 
L 211.181228 -101.269581 
L 210.522432 -101.269581 
L 209.863636 -94.938022 
L 209.204841 -97.576172 
L 208.546045 -97.048542 
L 207.887249 -91.244613 
L 207.228453 -89.661723 
L 206.569658 -89.147284 
L 205.910862 -94.410392 
L 205.252066 -97.576172 
L 204.59327 -94.938022 
L 203.934475 -96.534103 
L 203.275679 -98.631432 
L 202.616883 -101.269581 
L 201.958087 -110.25248 
L 201.299292 -107.838574 
L 200.640496 -102.466642 
L 199.9817 -104.435361 
L 199.322904 -102.862364 
L 198.664109 -97.312357 
L 198.005313 -97.332143 
L 197.346517 -92.563688 
L 196.687721 -92.177858 
L 196.028926 -92.66042 
L 195.37013 -88.078834 
L 194.711334 -86.67182 
L 194.052538 -83.857794 
L 193.393743 -77.53415 
L 192.734947 -76.259924 
L 192.076151 -76.087245 
L 191.417355 -73.041381 
L 190.75856 -73.832826 
L 190.099764 -72.777566 
L 189.440968 -71.194677 
L 188.782172 -71.194677 
L 188.123377 -72.249936 
L 187.464581 -71.458492 
L 186.805785 -70.742422 
L 186.146989 -70.064041 
L 185.488194 -66.340481 
L 184.829398 -67.395741 
L 184.170602 -68.662053 
L 183.511806 -70.983625 
L 182.853011 -72.249936 
L 182.194215 -72.883092 
L 181.535419 -75.420992 
L 180.876623 -78.797824 
L 180.217828 -81.536223 
L 179.559032 -78.159391 
L 178.900236 -77.333321 
L 178.24144 -75.482445 
L 177.582645 -75.291568 
L 176.923849 -75.591592 
L 176.265053 -74.888086 
L 175.606257 -77.003002 
L 174.947462 -78.229742 
L 174.288666 -77.706509 
L 173.62987 -78.761769 
L 172.971074 -79.817029 
L 172.312279 -82.626658 
L 171.653483 -82.811328 
L 170.994687 -85.440684 
L 170.335891 -87.203847 
L 169.677096 -84.913054 
L 169.0183 -86.500341 
L 168.359504 -86.152984 
L 167.700708 -88.786737 
L 167.041913 -91.244613 
L 166.383117 -90.355973 
L 165.724321 -92.192958 
L 165.065525 -92.355413 
L 164.40673 -91.688933 
L 163.747934 -92.188793 
L 163.089138 -93.192678 
L 162.430342 -93.521753 
L 161.771547 -92.359578 
L 161.112751 -93.363464 
L 160.453955 -95.025498 
L 159.795159 -96.695863 
L 159.136364 -96.025218 
L 158.477568 -94.146577 
L 157.818772 -93.35909 
L 157.159976 -94.94198 
L 156.501181 -97.154068 
L 155.842385 -93.355133 
L 155.183589 -94.304866 
L 154.524793 -94.146577 
L 153.865998 -96.050002 
L 153.207202 -98.42038 
L 152.548406 -101.273538 
L 151.88961 -100.798672 
L 151.230815 -100.95696 
L 150.572019 -100.798672 
L 149.913223 -103.169049 
L 149.254427 -103.169049 
L 148.595632 -105.863919 
L 147.936836 -107.921675 
L 147.27804 -110.292053 
L 146.619244 -112.037188 
L 145.960449 -117.102436 
L 145.301653 -121.534527 
L 144.642857 -125.804372 
L 143.984061 -125.333462 
L 143.325266 -128.978066 
L 142.66647 -133.564489 
L 142.007674 -138.475404 
L 141.348878 -144.81092 
L 140.690083 -145.911028 
L 140.031287 -144.803006 
L 139.372491 -146.540227 
L 138.713695 -150.34312 
L 138.0549 -146.860762 
L 137.396104 -142.424714 
L 136.737308 -141.166316 
L 136.078512 -140.212625 
L 135.419717 -139.104603 
L 134.760921 -140.687492 
L 134.102125 -137.209092 
L 133.443329 -144.165892 
L 132.784534 -144.490385 
L 132.125738 -143.05787 
L 131.466942 -143.216159 
L 130.808146 -147.181297 
L 130.149351 -150.821944 
L 129.490555 -151.288896 
L 128.831759 -150.663655 
L 128.172963 -155.091789 
L 127.514168 -154.9335 
L 126.855372 -154.296387 
L 126.196576 -153.987723 
L 125.53778 -156.68655 
L 124.878985 -154.9335 
L 124.220189 -155.095746 
L 123.561393 -154.470505 
L 122.902597 -154.929543 
L 122.243802 -159.049013 
L 121.585006 -166.650841 
L 120.92621 -167.917153 
L 120.267414 -163.485061 
L 119.608619 -169.353625 
L 118.949823 -166.971376 
L 118.291027 -168.712555 
L 117.632231 -169.970952 
L 116.973436 -168.225816 
L 116.31464 -172.186998 
L 115.655844 -175.194488 
L 114.997048 -174.715664 
L 114.338253 -175.669355 
L 113.679457 -175.040156 
L 113.020661 -175.681227 
L 112.361865 -179.947115 
L 111.70307 -182.792359 
L 111.044274 -187.228407 
L 110.385478 -188.340387 
L 109.726682 -188.015895 
L 109.067887 -188.023809 
L 108.409091 -191.494295 
L 107.750295 -189.594827 
L 107.091499 -190.398144 
L 106.432704 -195.142856 
L 105.773908 -193.081142 
L 105.115112 -198.304678 
L 104.456316 -201.007462 
L 103.797521 -200.686927 
L 103.138725 -201.628746 
L 102.479929 -200.366392 
L 101.821133 -208.906082 
L 101.162338 -210.014105 
L 100.503542 -214.458068 
L 99.844746 -215.079352 
L 99.18595 -219.669732 
L 98.527155 -223.947491 
L 97.868359 -224.260112 
L 97.209563 -225.055514 
L 96.550767 -223.630913 
L 95.891972 -227.584181 
L 95.233176 -233.456701 
L 94.57438 -234.074028 
L 93.915584 -232.506968 
L 93.256789 -233.124295 
L 92.597993 -239.934678 
L 91.939197 -237.243765 
L 91.280401 -238.822698 
L 90.621606 -241.830188 
L 89.96281 -243.100457 
L 89.304014 -244.058105 
L 88.645218 -245.162171 
L 87.986423 -245.953616 
L 87.327627 -245.158214 
L 86.668831 -240.409544 
L 86.010035 -241.517567 
L 85.35124 -242.463344 
L 84.692444 -239.6181 
L 84.033648 -241.367193 
L 83.374852 -238.826655 
L 82.716057 -237.247722 
L 82.057261 -235.660875 
L 81.398465 -235.656918 
L 80.739669 -238.50612 
L 80.080874 -236.776813 
L 79.422078 -235.34034 
L 78.763282 -238.510077 
L 78.104486 -236.606652 
L 77.445691 -235.502586 
L 76.786895 -238.834569 
L 76.128099 -238.355745 
L 75.469303 -235.186008 
L 74.810508 -228.217336 
L 74.151712 -226.005248 
L 73.492916 -220.943958 
L 72.83412 -222.68118 
L 72.175325 -219.677646 
L 71.516529 -210.492929 
L 70.857733 -202.736769 
L 70.198937 -194.505743 
L 69.540142 -185.64156 
L 68.881346 -179.464333 
L 68.22255 -172.816196 
L 67.563754 -169.345711 
L 66.904959 -160.944523 
L 66.246163 -152.713497 
L 65.587367 -142.583003 
L 64.928571 -135.467914 
L 64.269776 -125.808329 
L 63.61098 -116.940189 
L 62.952184 -110.292053 
L 62.293388 -98.899204 
L 61.634593 -89.556197 
L 60.975797 -81.641749 
L 60.317001 -71.194677 
L 59.658205 -65.021407 
L 58.99941 -59.006426 
L 58.340614 -54.732624 
L 57.681818 -52.2 
z
" id="m369ad2d24c" style="stroke:#1f77b4;stroke-opacity:0.2;"/>
    </defs>
    <g clip-path="url(#p87a5660ee5)">
     <use style="fill:#1f77b4;fill-opacity:0.2;stroke:#1f77b4;stroke-opacity:0.2;" x="0" xlink:href="#m369ad2d24c" y="360"/>
    </g>
   </g>
   <g id="PolyCollection_2">
    <defs>
     <path d="M 57.681818 -52.2 
L 57.681818 -52.2 
L 58.340614 -52.833156 
L 58.99941 -55.203533 
L 59.658205 -59.164715 
L 60.317001 -63.755095 
L 60.975797 -69.453498 
L 61.634593 -72.935855 
L 62.293388 -81.958327 
L 62.952184 -87.340152 
L 63.61098 -94.621444 
L 64.269776 -101.265624 
L 64.928571 -109.025741 
L 65.587367 -115.828209 
L 66.246163 -123.742658 
L 66.904959 -128.811862 
L 67.563754 -137.197221 
L 68.22255 -143.8414 
L 68.881346 -147.798624 
L 69.540142 -150.48558 
L 70.198937 -154.454676 
L 70.857733 -159.349762 
L 71.516529 -162.527413 
L 72.175325 -167.588703 
L 72.83412 -172.495661 
L 73.492916 -176.448928 
L 74.151712 -179.614708 
L 74.810508 -184.209045 
L 75.469303 -185.954181 
L 76.128099 -188.645094 
L 76.786895 -191.965205 
L 77.445691 -195.926386 
L 78.104486 -195.127027 
L 78.763282 -196.713874 
L 79.422078 -199.246497 
L 80.080874 -201.925538 
L 80.739669 -201.149922 
L 81.398465 -208.747793 
L 82.057261 -212.847477 
L 82.716057 -212.388439 
L 83.374852 -212.542771 
L 84.033648 -216.503953 
L 84.692444 -218.719998 
L 85.35124 -221.252622 
L 86.010035 -222.970057 
L 86.668831 -222.040109 
L 87.327627 -228.680332 
L 87.986423 -227.896801 
L 88.645218 -230.433382 
L 89.304014 -227.88493 
L 89.96281 -228.688246 
L 90.621606 -232.487181 
L 91.280401 -234.216488 
L 91.939197 -235.973496 
L 92.597993 -235.174137 
L 93.256789 -231.842154 
L 93.915584 -233.89991 
L 94.57438 -234.707184 
L 95.233176 -235.498629 
L 95.891972 -235.973496 
L 96.550767 -234.22836 
L 97.209563 -233.599161 
L 97.868359 -235.969539 
L 98.527155 -234.070071 
L 99.18595 -232.012315 
L 99.844746 -236.606652 
L 100.503542 -234.529109 
L 101.162338 -236.28216 
L 101.821133 -239.772431 
L 102.479929 -240.243341 
L 103.138725 -244.018533 
L 103.797521 -239.772431 
L 104.456316 -246.10399 
L 105.115112 -241.505696 
L 105.773908 -238.814783 
L 106.432704 -239.28965 
L 107.091499 -243.713827 
L 107.750295 -239.602271 
L 108.409091 -240.235427 
L 109.067887 -239.135318 
L 109.726682 -239.139275 
L 110.385478 -234.390606 
L 111.044274 -235.170179 
L 111.70307 -234.074028 
L 112.361865 -235.174137 
L 113.020661 -230.900334 
L 113.679457 -223.943534 
L 114.338253 -224.414444 
L 114.997048 -228.529957 
L 115.655844 -225.0476 
L 116.31464 -225.051557 
L 116.973436 -221.565242 
L 117.632231 -220.908343 
L 118.291027 -221.248664 
L 118.949823 -218.399463 
L 119.608619 -215.550261 
L 120.267414 -213.338173 
L 120.92621 -210.330683 
L 121.585006 -212.705017 
L 122.243802 -206.519876 
L 122.902597 -203.04939 
L 123.561393 -204.470033 
L 124.220189 -201.624789 
L 124.878985 -200.192274 
L 125.53778 -196.872163 
L 126.196576 -198.45901 
L 126.855372 -194.185208 
L 127.514168 -194.185208 
L 128.172963 -194.177293 
L 128.831759 -189.753116 
L 129.490555 -189.432581 
L 130.149351 -187.525199 
L 130.808146 -183.097065 
L 131.466942 -178.514599 
L 132.125738 -177.082084 
L 132.784534 -176.140265 
L 133.443329 -173.132774 
L 134.102125 -170.121327 
L 134.760921 -168.06357 
L 135.419717 -170.75844 
L 136.078512 -165.060037 
L 136.737308 -161.577679 
L 137.396104 -161.573722 
L 138.0549 -161.415433 
L 138.713695 -160.786235 
L 139.372491 -155.562698 
L 140.031287 -150.493494 
L 140.690083 -149.860338 
L 141.348878 -148.594026 
L 142.007674 -144.165892 
L 142.66647 -143.053912 
L 143.325266 -140.363 
L 143.984061 -136.409733 
L 144.642857 -137.513798 
L 145.301653 -134.351976 
L 145.960449 -132.927376 
L 146.619244 -133.560531 
L 147.27804 -132.610798 
L 147.936836 -132.440637 
L 148.595632 -130.549084 
L 149.254427 -126.12095 
L 149.913223 -125.325548 
L 150.572019 -123.746615 
L 151.230815 -120.102012 
L 151.88961 -118.997946 
L 152.548406 -118.681368 
L 153.207202 -115.195053 
L 153.865998 -115.986498 
L 154.524793 -115.199011 
L 155.183589 -113.932699 
L 155.842385 -113.928742 
L 156.501181 -109.975475 
L 157.159976 -109.658897 
L 157.818772 -109.338362 
L 158.477568 -109.975475 
L 159.136364 -105.856004 
L 159.795159 -99.84498 
L 160.453955 -102.377604 
L 161.112751 -99.524445 
L 161.771547 -98.891289 
L 162.430342 -97.783267 
L 163.089138 -97.150111 
L 163.747934 -98.262091 
L 164.40673 -97.3084 
L 165.065525 -95.571178 
L 165.724321 -95.887756 
L 166.383117 -94.771819 
L 167.041913 -93.826042 
L 167.700708 -92.401442 
L 168.359504 -92.239195 
L 169.0183 -90.66422 
L 169.677096 -90.343685 
L 170.335891 -89.235662 
L 170.994687 -87.65673 
L 171.653483 -88.760795 
L 172.312279 -85.915551 
L 172.971074 -87.65673 
L 173.62987 -87.181863 
L 174.288666 -88.285928 
L 174.947462 -85.907637 
L 175.606257 -84.807528 
L 176.265053 -84.486993 
L 176.923849 -83.37897 
L 177.582645 -84.965817 
L 178.24144 -83.529345 
L 178.900236 -82.904103 
L 179.559032 -82.433194 
L 180.217828 -81.958327 
L 180.876623 -79.738324 
L 181.535419 -79.580035 
L 182.194215 -79.109125 
L 182.853011 -77.842813 
L 183.511806 -79.109125 
L 184.170602 -77.838856 
L 184.829398 -76.730833 
L 185.488194 -76.255966 
L 186.146989 -74.19821 
L 186.805785 -72.457031 
L 187.464581 -71.349008 
L 188.123377 -70.074782 
L 188.782172 -70.082697 
L 189.440968 -69.295209 
L 190.099764 -68.503764 
L 190.75856 -68.345475 
L 191.417355 -68.974674 
L 192.076151 -67.866651 
L 192.734947 -67.233495 
L 193.393743 -68.662053 
L 194.052538 -67.708362 
L 194.711334 -66.916917 
L 195.37013 -66.920874 
L 196.028926 -67.079163 
L 196.687721 -66.758628 
L 197.346517 -66.695937 
L 198.005313 -66.196077 
L 198.664109 -65.858672 
L 199.322904 -65.525432 
L 199.9817 -65.192192 
L 200.640496 -64.359092 
L 201.299292 -64.159611 
L 201.958087 -63.373339 
L 202.616883 -62.065127 
L 203.275679 -62.290922 
L 203.934475 -61.697338 
L 204.59327 -60.905893 
L 205.252066 -60.510171 
L 205.910862 -60.847854 
L 206.569658 -61.275234 
L 207.228453 -61.058906 
L 207.887249 -61.697338 
L 208.546045 -61.90839 
L 209.204841 -60.642078 
L 209.863636 -61.697338 
L 210.522432 -60.85313 
L 211.181228 -61.275234 
L 211.840024 -61.934772 
L 212.498819 -62.427903 
L 213.157615 -62.184381 
L 213.816411 -61.453817 
L 214.475207 -61.961153 
L 215.134002 -62.272935 
L 215.792798 -63.136329 
L 216.451594 -62.848531 
L 217.11039 -62.848531 
L 217.769185 -63.999723 
L 218.427981 -66.438093 
L 219.086777 -64.863118 
L 219.745573 -66.121515 
L 220.404368 -65.179696 
L 221.063164 -64.538625 
L 221.72196 -64.538625 
L 222.380756 -63.280228 
L 223.039551 -61.38076 
L 223.698347 -61.056268 
L 224.357143 -61.064182 
L 225.015939 -60.431027 
L 225.674734 -60.114449 
L 226.33353 -60.642078 
L 226.992326 -61.291723 
L 227.651122 -62.47889 
L 228.309917 -61.697338 
L 228.968713 -61.687445 
L 229.627509 -63.495049 
L 230.286305 -62.149593 
L 230.9451 -63.280228 
L 231.603896 -63.280228 
L 232.262692 -61.697338 
L 232.921488 -61.697338 
L 233.580283 -61.697338 
L 234.239079 -61.697338 
L 234.897875 -61.697338 
L 235.556671 -59.586819 
L 236.215466 -58.003929 
L 236.874262 -59.586819 
L 237.533058 -58.531559 
L 238.191854 -56.948669 
L 238.850649 -58.531559 
L 239.509445 -59.586819 
L 240.168241 -60.431027 
L 240.827037 -59.797871 
L 241.485832 -59.797871 
L 242.144628 -60.431027 
L 242.803424 -59.797871 
L 243.46222 -57.898403 
L 244.121015 -57.898403 
L 244.779811 -57.265247 
L 245.438607 -59.797871 
L 246.097403 -59.797871 
L 246.756198 -57.898403 
L 247.414994 -57.898403 
L 248.07379 -57.898403 
L 248.732586 -57.898403 
L 249.391381 -58.531559 
L 250.050177 -58.531559 
L 250.708973 -56.948669 
L 251.367769 -55.365779 
L 252.026564 -55.365779 
L 252.68536 -53.78289 
L 253.344156 -53.78289 
L 254.002952 -53.78289 
L 254.661747 -52.2 
L 255.320543 -52.2 
L 255.979339 -55.365779 
L 256.638135 -55.365779 
L 257.29693 -55.365779 
L 257.955726 -55.365779 
L 258.614522 -56.421039 
L 259.273318 -58.531559 
L 259.932113 -55.365779 
L 260.590909 -55.365779 
L 261.249705 -55.365779 
L 261.908501 -55.365779 
L 262.567296 -55.365779 
L 263.226092 -55.365779 
L 263.884888 -55.365779 
L 264.543684 -55.365779 
L 265.202479 -55.365779 
L 265.861275 -55.365779 
L 266.520071 -55.365779 
L 267.178867 -55.365779 
L 267.837662 -55.365779 
L 268.496458 -55.365779 
L 268.496458 -55.365779 
L 268.496458 -55.365779 
L 267.837662 -55.365779 
L 267.178867 -55.365779 
L 266.520071 -55.365779 
L 265.861275 -55.365779 
L 265.202479 -55.365779 
L 264.543684 -55.365779 
L 263.884888 -58.531559 
L 263.226092 -58.531559 
L 262.567296 -58.531559 
L 261.908501 -61.697338 
L 261.249705 -61.697338 
L 260.590909 -61.697338 
L 259.932113 -64.863118 
L 259.273318 -64.863118 
L 258.614522 -64.863118 
L 257.955726 -68.028897 
L 257.29693 -68.028897 
L 256.638135 -68.028897 
L 255.979339 -68.028897 
L 255.320543 -71.194677 
L 254.661747 -74.360456 
L 254.002952 -69.611787 
L 253.344156 -71.194677 
L 252.68536 -73.569011 
L 252.026564 -74.360456 
L 251.367769 -74.360456 
L 250.708973 -75.151901 
L 250.050177 -72.777566 
L 249.391381 -75.943346 
L 248.732586 -73.094144 
L 248.07379 -73.094144 
L 247.414994 -76.259924 
L 246.756198 -78.159391 
L 246.097403 -77.542064 
L 245.438607 -76.259924 
L 244.779811 -76.259924 
L 244.121015 -75.626768 
L 243.46222 -76.89308 
L 242.803424 -83.857794 
L 242.144628 -87.65673 
L 241.485832 -94.621444 
L 240.827037 -93.988289 
L 240.168241 -88.923041 
L 239.509445 -86.509135 
L 238.850649 -94.938022 
L 238.191854 -95.993282 
L 237.533058 -94.449965 
L 236.874262 -104.989372 
L 236.215466 -104.435361 
L 235.556671 -103.406482 
L 234.897875 -106.01825 
L 234.239079 -106.54588 
L 233.580283 -107.60114 
L 232.921488 -103.393292 
L 232.262692 -107.086701 
L 231.603896 -108.6564 
L 230.9451 -110.766919 
L 230.286305 -106.922759 
L 229.627509 -107.375013 
L 228.968713 -106.819588 
L 228.309917 -106.809695 
L 227.651122 -109.995261 
L 226.992326 -103.258086 
L 226.33353 -98.279678 
L 225.674734 -99.378028 
L 225.015939 -100.003269 
L 224.357143 -108.234296 
L 223.698347 -114.898262 
L 223.039551 -115.832167 
L 222.380756 -117.422971 
L 221.72196 -118.681368 
L 221.063164 -114.914091 
L 220.404368 -114.249277 
L 219.745573 -115.199011 
L 219.086777 -112.349809 
L 218.427981 -116.465322 
L 217.769185 -114.652194 
L 217.11039 -109.471828 
L 216.451594 -112.069206 
L 215.792798 -112.637607 
L 215.134002 -110.335222 
L 214.475207 -112.09259 
L 213.816411 -106.505293 
L 213.157615 -106.992336 
L 212.498819 -112.599419 
L 211.840024 -113.567417 
L 211.181228 -109.61141 
L 210.522432 -108.55615 
L 209.863636 -106.667235 
L 209.204841 -103.696679 
L 208.546045 -110.255118 
L 207.887249 -106.661959 
L 207.228453 -104.962991 
L 206.569658 -107.50089 
L 205.910862 -107.295115 
L 205.252066 -101.878004 
L 204.59327 -96.12519 
L 203.934475 -96.327997 
L 203.275679 -96.72372 
L 202.616883 -93.16891 
L 201.958087 -94.109333 
L 201.299292 -91.073133 
L 200.640496 -90.189353 
L 199.9817 -91.859718 
L 199.322904 -90.526759 
L 198.664109 -91.355693 
L 198.005313 -94.359018 
L 197.346517 -95.525358 
L 196.687721 -94.467113 
L 196.028926 -94.304866 
L 195.37013 -98.578669 
L 194.711334 -94.621444 
L 194.052538 -96.520912 
L 193.393743 -94.94198 
L 192.734947 -95.737382 
L 192.076151 -95.416846 
L 191.417355 -93.35909 
L 190.75856 -93.992246 
L 190.099764 -91.934489 
L 189.440968 -92.725934 
L 188.782172 -94.94198 
L 188.123377 -93.992246 
L 187.464581 -93.675668 
L 186.805785 -96.995779 
L 186.146989 -99.528403 
L 185.488194 -99.690649 
L 184.829398 -100.319847 
L 184.170602 -101.135036 
L 183.511806 -105.70563 
L 182.853011 -104.277072 
L 182.194215 -103.643916 
L 181.535419 -104.59365 
L 180.876623 -106.967984 
L 180.217828 -109.504565 
L 179.559032 -108.076007 
L 178.900236 -111.558364 
L 178.24144 -111.245744 
L 177.582645 -109.817186 
L 176.923849 -111.404033 
L 176.265053 -113.327244 
L 175.606257 -115.836124 
L 174.947462 -116.623611 
L 174.288666 -117.89388 
L 173.62987 -116.623611 
L 172.971074 -116.940189 
L 172.312279 -117.256767 
L 171.653483 -119.47677 
L 170.994687 -117.573345 
L 170.335891 -119.955594 
L 169.677096 -122.325972 
L 169.0183 -121.213992 
L 168.359504 -123.746615 
L 167.700708 -120.897414 
L 167.041913 -122.484261 
L 166.383117 -122.484261 
L 165.724321 -122.013351 
L 165.065525 -120.743082 
L 164.40673 -121.213992 
L 163.747934 -123.117416 
L 163.089138 -122.17164 
L 162.430342 -122.959128 
L 161.771547 -127.074641 
L 161.112751 -128.336995 
L 160.453955 -129.286729 
L 159.795159 -131.031865 
L 159.136364 -134.514222 
L 158.477568 -139.10856 
L 157.818772 -137.676045 
L 157.159976 -136.8846 
L 156.501181 -140.212625 
L 155.842385 -142.432628 
L 155.183589 -147.335629 
L 154.524793 -151.130607 
L 153.865998 -149.076808 
L 153.207202 -148.609855 
L 152.548406 -152.396919 
L 151.88961 -153.354567 
L 151.230815 -152.404833 
L 150.572019 -159.365591 
L 149.913223 -160.315325 
L 149.254427 -161.102812 
L 148.595632 -165.851482 
L 147.936836 -165.063994 
L 147.27804 -163.481104 
L 146.619244 -163.00228 
L 145.960449 -167.600575 
L 145.301653 -167.283997 
L 144.642857 -167.754906 
L 143.984061 -168.550309 
L 143.325266 -171.082932 
L 142.66647 -170.762397 
L 142.007674 -171.866463 
L 141.348878 -176.93171 
L 140.690083 -178.198021 
L 140.031287 -181.05118 
L 139.372491 -184.687869 
L 138.713695 -190.386272 
L 138.0549 -191.969162 
L 137.396104 -193.243388 
L 136.737308 -191.652584 
L 136.078512 -194.505743 
L 135.419717 -199.729279 
L 134.760921 -200.516766 
L 134.102125 -205.427682 
L 133.443329 -208.589504 
L 132.784534 -209.859773 
L 132.125738 -213.500419 
L 131.466942 -214.92502 
L 130.808146 -220.785669 
L 130.149351 -225.538296 
L 129.490555 -226.634447 
L 128.831759 -229.329316 
L 128.172963 -231.86194 
L 127.514168 -230.27905 
L 126.855372 -230.437339 
L 126.196576 -234.081943 
L 125.53778 -235.221623 
L 124.878985 -238.988901 
L 124.220189 -242.463344 
L 123.561393 -243.0965 
L 122.902597 -242.621633 
L 122.243802 -246.420568 
L 121.585006 -251.49373 
L 120.92621 -249.598219 
L 120.267414 -251.960682 
L 119.608619 -259.261761 
L 118.949823 -263.357488 
L 118.291027 -263.357488 
L 117.632231 -265.894069 
L 116.973436 -270.955359 
L 116.31464 -275.082744 
L 115.655844 -276.345098 
L 114.997048 -274.441673 
L 114.338253 -271.746804 
L 113.679457 -275.707985 
L 113.020661 -282.352165 
L 112.361865 -284.409921 
L 111.70307 -285.68019 
L 111.044274 -288.367146 
L 110.385478 -288.054525 
L 109.726682 -294.860951 
L 109.067887 -295.968973 
L 108.409091 -291.532925 
L 107.750295 -294.239666 
L 107.091499 -295.339775 
L 106.432704 -290.278485 
L 105.773908 -292.494531 
L 105.115112 -297.868441 
L 104.456316 -304.2 
L 103.797521 -298.181062 
L 103.138725 -300.242776 
L 102.479929 -293.756885 
L 101.821133 -294.860951 
L 101.162338 -293.278061 
L 100.503542 -287.737947 
L 99.844746 -286.946502 
L 99.18595 -282.352165 
L 98.527155 -286.1511 
L 97.868359 -292.502445 
L 97.209563 -285.047034 
L 96.550767 -286.471635 
L 95.891972 -287.575701 
L 95.233176 -288.070354 
L 94.57438 -286.317303 
L 93.915584 -282.827032 
L 93.256789 -282.676657 
L 92.597993 -284.888745 
L 91.939197 -286.313346 
L 91.280401 -284.572168 
L 90.621606 -282.827032 
L 89.96281 -284.726499 
L 89.304014 -278.735262 
L 88.645218 -279.981787 
L 87.986423 -277.128629 
L 87.327627 -273.966806 
L 86.668831 -270.480492 
L 86.010035 -268.909474 
L 85.35124 -270.955359 
L 84.692444 -268.592896 
L 84.033648 -266.543054 
L 83.374852 -263.840269 
L 82.716057 -262.253423 
L 82.057261 -258.137909 
L 81.398465 -252.126886 
L 80.739669 -248.003458 
L 80.080874 -245.637038 
L 79.422078 -242.783879 
L 78.763282 -239.614142 
L 78.104486 -236.297988 
L 77.445691 -241.517567 
L 76.786895 -237.09339 
L 76.128099 -232.33285 
L 75.469303 -229.008781 
L 74.810508 -223.156047 
L 74.151712 -218.727913 
L 73.492916 -213.187799 
L 72.83412 -208.118594 
L 72.175325 -200.362435 
L 71.516529 -194.501785 
L 70.857733 -189.282207 
L 70.198937 -184.220917 
L 69.540142 -178.518557 
L 68.881346 -176.777378 
L 68.22255 -168.546351 
L 67.563754 -162.53137 
L 66.904959 -152.8797 
L 66.246163 -149.87221 
L 65.587367 -137.676045 
L 64.928571 -132.298177 
L 64.269776 -122.329929 
L 63.61098 -114.090988 
L 62.952184 -103.643916 
L 62.293388 -95.096311 
L 61.634593 -86.390418 
L 60.975797 -78.475969 
L 60.317001 -69.928365 
L 59.658205 -64.229962 
L 58.99941 -58.531559 
L 58.340614 -54.257757 
L 57.681818 -52.2 
z
" id="m53b1ebba60" style="stroke:#ff7f0e;stroke-opacity:0.2;"/>
    </defs>
    <g clip-path="url(#p87a5660ee5)">
     <use style="fill:#ff7f0e;fill-opacity:0.2;stroke:#ff7f0e;stroke-opacity:0.2;" x="0" xlink:href="#m53b1ebba60" y="360"/>
    </g>
   </g>
   <g id="matplotlib.axis_1">
    <g id="xtick_1">
     <g id="line2d_1">
      <defs>
       <path d="M 0 0 
L 0 3.5 
" id="m3ce7407b6e" style="stroke:#000000;stroke-width:0.8;"/>
      </defs>
      <g>
       <use style="stroke:#000000;stroke-width:0.8;" x="57.681818" xlink:href="#m3ce7407b6e" y="320.4"/>
      </g>
     </g>
     <g id="text_1">
      <!-- 0 -->
      <defs>
       <path d="M 31.78125 66.40625 
Q 24.171875 66.40625 20.328125 58.90625 
Q 16.5 51.421875 16.5 36.375 
Q 16.5 21.390625 20.328125 13.890625 
Q 24.171875 6.390625 31.78125 6.390625 
Q 39.453125 6.390625 43.28125 13.890625 
Q 47.125 21.390625 47.125 36.375 
Q 47.125 51.421875 43.28125 58.90625 
Q 39.453125 66.40625 31.78125 66.40625 
z
M 31.78125 74.21875 
Q 44.046875 74.21875 50.515625 64.515625 
Q 56.984375 54.828125 56.984375 36.375 
Q 56.984375 17.96875 50.515625 8.265625 
Q 44.046875 -1.421875 31.78125 -1.421875 
Q 19.53125 -1.421875 13.0625 8.265625 
Q 6.59375 17.96875 6.59375 36.375 
Q 6.59375 54.828125 13.0625 64.515625 
Q 19.53125 74.21875 31.78125 74.21875 
z
" id="DejaVuSans-48"/>
      </defs>
      <g transform="translate(54.500568 334.998438)scale(0.1 -0.1)">
       <use xlink:href="#DejaVuSans-48"/>
      </g>
     </g>
    </g>
    <g id="xtick_2">
     <g id="line2d_2">
      <g>
       <use style="stroke:#000000;stroke-width:0.8;" x="90.621606" xlink:href="#m3ce7407b6e" y="320.4"/>
      </g>
     </g>
     <g id="text_2">
      <!-- 50 -->
      <defs>
       <path d="M 10.796875 72.90625 
L 49.515625 72.90625 
L 49.515625 64.59375 
L 19.828125 64.59375 
L 19.828125 46.734375 
Q 21.96875 47.46875 24.109375 47.828125 
Q 26.265625 48.1875 28.421875 48.1875 
Q 40.625 48.1875 47.75 41.5 
Q 54.890625 34.8125 54.890625 23.390625 
Q 54.890625 11.625 47.5625 5.09375 
Q 40.234375 -1.421875 26.90625 -1.421875 
Q 22.3125 -1.421875 17.546875 -0.640625 
Q 12.796875 0.140625 7.71875 1.703125 
L 7.71875 11.625 
Q 12.109375 9.234375 16.796875 8.0625 
Q 21.484375 6.890625 26.703125 6.890625 
Q 35.15625 6.890625 40.078125 11.328125 
Q 45.015625 15.765625 45.015625 23.390625 
Q 45.015625 31 40.078125 35.4375 
Q 35.15625 39.890625 26.703125 39.890625 
Q 22.75 39.890625 18.8125 39.015625 
Q 14.890625 38.140625 10.796875 36.28125 
z
" id="DejaVuSans-53"/>
      </defs>
      <g transform="translate(84.259106 334.998438)scale(0.1 -0.1)">
       <use xlink:href="#DejaVuSans-53"/>
       <use x="63.623047" xlink:href="#DejaVuSans-48"/>
      </g>
     </g>
    </g>
    <g id="xtick_3">
     <g id="line2d_3">
      <g>
       <use style="stroke:#000000;stroke-width:0.8;" x="123.561393" xlink:href="#m3ce7407b6e" y="320.4"/>
      </g>
     </g>
     <g id="text_3">
      <!-- 100 -->
      <defs>
       <path d="M 12.40625 8.296875 
L 28.515625 8.296875 
L 28.515625 63.921875 
L 10.984375 60.40625 
L 10.984375 69.390625 
L 28.421875 72.90625 
L 38.28125 72.90625 
L 38.28125 8.296875 
L 54.390625 8.296875 
L 54.390625 0 
L 12.40625 0 
z
" id="DejaVuSans-49"/>
      </defs>
      <g transform="translate(114.017643 334.998438)scale(0.1 -0.1)">
       <use xlink:href="#DejaVuSans-49"/>
       <use x="63.623047" xlink:href="#DejaVuSans-48"/>
       <use x="127.246094" xlink:href="#DejaVuSans-48"/>
      </g>
     </g>
    </g>
    <g id="xtick_4">
     <g id="line2d_4">
      <g>
       <use style="stroke:#000000;stroke-width:0.8;" x="156.501181" xlink:href="#m3ce7407b6e" y="320.4"/>
      </g>
     </g>
     <g id="text_4">
      <!-- 150 -->
      <g transform="translate(146.957431 334.998438)scale(0.1 -0.1)">
       <use xlink:href="#DejaVuSans-49"/>
       <use x="63.623047" xlink:href="#DejaVuSans-53"/>
       <use x="127.246094" xlink:href="#DejaVuSans-48"/>
      </g>
     </g>
    </g>
    <g id="xtick_5">
     <g id="line2d_5">
      <g>
       <use style="stroke:#000000;stroke-width:0.8;" x="189.440968" xlink:href="#m3ce7407b6e" y="320.4"/>
      </g>
     </g>
     <g id="text_5">
      <!-- 200 -->
      <defs>
       <path d="M 19.1875 8.296875 
L 53.609375 8.296875 
L 53.609375 0 
L 7.328125 0 
L 7.328125 8.296875 
Q 12.9375 14.109375 22.625 23.890625 
Q 32.328125 33.6875 34.8125 36.53125 
Q 39.546875 41.84375 41.421875 45.53125 
Q 43.3125 49.21875 43.3125 52.78125 
Q 43.3125 58.59375 39.234375 62.25 
Q 35.15625 65.921875 28.609375 65.921875 
Q 23.96875 65.921875 18.8125 64.3125 
Q 13.671875 62.703125 7.8125 59.421875 
L 7.8125 69.390625 
Q 13.765625 71.78125 18.9375 73 
Q 24.125 74.21875 28.421875 74.21875 
Q 39.75 74.21875 46.484375 68.546875 
Q 53.21875 62.890625 53.21875 53.421875 
Q 53.21875 48.921875 51.53125 44.890625 
Q 49.859375 40.875 45.40625 35.40625 
Q 44.1875 33.984375 37.640625 27.21875 
Q 31.109375 20.453125 19.1875 8.296875 
z
" id="DejaVuSans-50"/>
      </defs>
      <g transform="translate(179.897218 334.998438)scale(0.1 -0.1)">
       <use xlink:href="#DejaVuSans-50"/>
       <use x="63.623047" xlink:href="#DejaVuSans-48"/>
       <use x="127.246094" xlink:href="#DejaVuSans-48"/>
      </g>
     </g>
    </g>
    <g id="xtick_6">
     <g id="line2d_6">
      <g>
       <use style="stroke:#000000;stroke-width:0.8;" x="222.380756" xlink:href="#m3ce7407b6e" y="320.4"/>
      </g>
     </g>
     <g id="text_6">
      <!-- 250 -->
      <g transform="translate(212.837006 334.998438)scale(0.1 -0.1)">
       <use xlink:href="#DejaVuSans-50"/>
       <use x="63.623047" xlink:href="#DejaVuSans-53"/>
       <use x="127.246094" xlink:href="#DejaVuSans-48"/>
      </g>
     </g>
    </g>
    <g id="xtick_7">
     <g id="line2d_7">
      <g>
       <use style="stroke:#000000;stroke-width:0.8;" x="255.320543" xlink:href="#m3ce7407b6e" y="320.4"/>
      </g>
     </g>
     <g id="text_7">
      <!-- 300 -->
      <defs>
       <path d="M 40.578125 39.3125 
Q 47.65625 37.796875 51.625 33 
Q 55.609375 28.21875 55.609375 21.1875 
Q 55.609375 10.40625 48.1875 4.484375 
Q 40.765625 -1.421875 27.09375 -1.421875 
Q 22.515625 -1.421875 17.65625 -0.515625 
Q 12.796875 0.390625 7.625 2.203125 
L 7.625 11.71875 
Q 11.71875 9.328125 16.59375 8.109375 
Q 21.484375 6.890625 26.8125 6.890625 
Q 36.078125 6.890625 40.9375 10.546875 
Q 45.796875 14.203125 45.796875 21.1875 
Q 45.796875 27.640625 41.28125 31.265625 
Q 36.765625 34.90625 28.71875 34.90625 
L 20.21875 34.90625 
L 20.21875 43.015625 
L 29.109375 43.015625 
Q 36.375 43.015625 40.234375 45.921875 
Q 44.09375 48.828125 44.09375 54.296875 
Q 44.09375 59.90625 40.109375 62.90625 
Q 36.140625 65.921875 28.71875 65.921875 
Q 24.65625 65.921875 20.015625 65.03125 
Q 15.375 64.15625 9.8125 62.3125 
L 9.8125 71.09375 
Q 15.4375 72.65625 20.34375 73.4375 
Q 25.25 74.21875 29.59375 74.21875 
Q 40.828125 74.21875 47.359375 69.109375 
Q 53.90625 64.015625 53.90625 55.328125 
Q 53.90625 49.265625 50.4375 45.09375 
Q 46.96875 40.921875 40.578125 39.3125 
z
" id="DejaVuSans-51"/>
      </defs>
      <g transform="translate(245.776793 334.998438)scale(0.1 -0.1)">
       <use xlink:href="#DejaVuSans-51"/>
       <use x="63.623047" xlink:href="#DejaVuSans-48"/>
       <use x="127.246094" xlink:href="#DejaVuSans-48"/>
      </g>
     </g>
    </g>
    <g id="xtick_8">
     <g id="line2d_8">
      <g>
       <use style="stroke:#000000;stroke-width:0.8;" x="288.260331" xlink:href="#m3ce7407b6e" y="320.4"/>
      </g>
     </g>
     <g id="text_8">
      <!-- 350 -->
      <g transform="translate(278.716581 334.998438)scale(0.1 -0.1)">
       <use xlink:href="#DejaVuSans-51"/>
       <use x="63.623047" xlink:href="#DejaVuSans-53"/>
       <use x="127.246094" xlink:href="#DejaVuSans-48"/>
      </g>
     </g>
    </g>
    <g id="xtick_9">
     <g id="line2d_9">
      <g>
       <use style="stroke:#000000;stroke-width:0.8;" x="321.200118" xlink:href="#m3ce7407b6e" y="320.4"/>
      </g>
     </g>
     <g id="text_9">
      <!-- 400 -->
      <defs>
       <path d="M 37.796875 64.3125 
L 12.890625 25.390625 
L 37.796875 25.390625 
z
M 35.203125 72.90625 
L 47.609375 72.90625 
L 47.609375 25.390625 
L 58.015625 25.390625 
L 58.015625 17.1875 
L 47.609375 17.1875 
L 47.609375 0 
L 37.796875 0 
L 37.796875 17.1875 
L 4.890625 17.1875 
L 4.890625 26.703125 
z
" id="DejaVuSans-52"/>
      </defs>
      <g transform="translate(311.656368 334.998438)scale(0.1 -0.1)">
       <use xlink:href="#DejaVuSans-52"/>
       <use x="63.623047" xlink:href="#DejaVuSans-48"/>
       <use x="127.246094" xlink:href="#DejaVuSans-48"/>
      </g>
     </g>
    </g>
    <g id="text_10">
     <!-- Temps -->
     <defs>
      <path d="M -0.296875 72.90625 
L 61.375 72.90625 
L 61.375 64.59375 
L 35.5 64.59375 
L 35.5 0 
L 25.59375 0 
L 25.59375 64.59375 
L -0.296875 64.59375 
z
" id="DejaVuSans-84"/>
      <path d="M 56.203125 29.59375 
L 56.203125 25.203125 
L 14.890625 25.203125 
Q 15.484375 15.921875 20.484375 11.0625 
Q 25.484375 6.203125 34.421875 6.203125 
Q 39.59375 6.203125 44.453125 7.46875 
Q 49.3125 8.734375 54.109375 11.28125 
L 54.109375 2.78125 
Q 49.265625 0.734375 44.1875 -0.34375 
Q 39.109375 -1.421875 33.890625 -1.421875 
Q 20.796875 -1.421875 13.15625 6.1875 
Q 5.515625 13.8125 5.515625 26.8125 
Q 5.515625 40.234375 12.765625 48.109375 
Q 20.015625 56 32.328125 56 
Q 43.359375 56 49.78125 48.890625 
Q 56.203125 41.796875 56.203125 29.59375 
z
M 47.21875 32.234375 
Q 47.125 39.59375 43.09375 43.984375 
Q 39.0625 48.390625 32.421875 48.390625 
Q 24.90625 48.390625 20.390625 44.140625 
Q 15.875 39.890625 15.1875 32.171875 
z
" id="DejaVuSans-101"/>
      <path d="M 52 44.1875 
Q 55.375 50.25 60.0625 53.125 
Q 64.75 56 71.09375 56 
Q 79.640625 56 84.28125 50.015625 
Q 88.921875 44.046875 88.921875 33.015625 
L 88.921875 0 
L 79.890625 0 
L 79.890625 32.71875 
Q 79.890625 40.578125 77.09375 44.375 
Q 74.3125 48.1875 68.609375 48.1875 
Q 61.625 48.1875 57.5625 43.546875 
Q 53.515625 38.921875 53.515625 30.90625 
L 53.515625 0 
L 44.484375 0 
L 44.484375 32.71875 
Q 44.484375 40.625 41.703125 44.40625 
Q 38.921875 48.1875 33.109375 48.1875 
Q 26.21875 48.1875 22.15625 43.53125 
Q 18.109375 38.875 18.109375 30.90625 
L 18.109375 0 
L 9.078125 0 
L 9.078125 54.6875 
L 18.109375 54.6875 
L 18.109375 46.1875 
Q 21.1875 51.21875 25.484375 53.609375 
Q 29.78125 56 35.6875 56 
Q 41.65625 56 45.828125 52.96875 
Q 50 49.953125 52 44.1875 
z
" id="DejaVuSans-109"/>
      <path d="M 18.109375 8.203125 
L 18.109375 -20.796875 
L 9.078125 -20.796875 
L 9.078125 54.6875 
L 18.109375 54.6875 
L 18.109375 46.390625 
Q 20.953125 51.265625 25.265625 53.625 
Q 29.59375 56 35.59375 56 
Q 45.5625 56 51.78125 48.09375 
Q 58.015625 40.1875 58.015625 27.296875 
Q 58.015625 14.40625 51.78125 6.484375 
Q 45.5625 -1.421875 35.59375 -1.421875 
Q 29.59375 -1.421875 25.265625 0.953125 
Q 20.953125 3.328125 18.109375 8.203125 
z
M 48.6875 27.296875 
Q 48.6875 37.203125 44.609375 42.84375 
Q 40.53125 48.484375 33.40625 48.484375 
Q 26.265625 48.484375 22.1875 42.84375 
Q 18.109375 37.203125 18.109375 27.296875 
Q 18.109375 17.390625 22.1875 11.75 
Q 26.265625 6.109375 33.40625 6.109375 
Q 40.53125 6.109375 44.609375 11.75 
Q 48.6875 17.390625 48.6875 27.296875 
z
" id="DejaVuSans-112"/>
      <path d="M 44.28125 53.078125 
L 44.28125 44.578125 
Q 40.484375 46.53125 36.375 47.5 
Q 32.28125 48.484375 27.875 48.484375 
Q 21.1875 48.484375 17.84375 46.4375 
Q 14.5 44.390625 14.5 40.28125 
Q 14.5 37.15625 16.890625 35.375 
Q 19.28125 33.59375 26.515625 31.984375 
L 29.59375 31.296875 
Q 39.15625 29.25 43.1875 25.515625 
Q 47.21875 21.78125 47.21875 15.09375 
Q 47.21875 7.46875 41.1875 3.015625 
Q 35.15625 -1.421875 24.609375 -1.421875 
Q 20.21875 -1.421875 15.453125 -0.5625 
Q 10.6875 0.296875 5.421875 2 
L 5.421875 11.28125 
Q 10.40625 8.6875 15.234375 7.390625 
Q 20.0625 6.109375 24.8125 6.109375 
Q 31.15625 6.109375 34.5625 8.28125 
Q 37.984375 10.453125 37.984375 14.40625 
Q 37.984375 18.0625 35.515625 20.015625 
Q 33.0625 21.96875 24.703125 23.78125 
L 21.578125 24.515625 
Q 13.234375 26.265625 9.515625 29.90625 
Q 5.8125 33.546875 5.8125 39.890625 
Q 5.8125 47.609375 11.28125 51.796875 
Q 16.75 56 26.8125 56 
Q 31.78125 56 36.171875 55.265625 
Q 40.578125 54.546875 44.28125 53.078125 
z
" id="DejaVuSans-115"/>
     </defs>
     <g transform="translate(167.733594 348.676562)scale(0.1 -0.1)">
      <use xlink:href="#DejaVuSans-84"/>
      <use x="60.818359" xlink:href="#DejaVuSans-101"/>
      <use x="122.341797" xlink:href="#DejaVuSans-109"/>
      <use x="219.753906" xlink:href="#DejaVuSans-112"/>
      <use x="283.230469" xlink:href="#DejaVuSans-115"/>
     </g>
    </g>
   </g>
   <g id="matplotlib.axis_2">
    <g id="ytick_1">
     <g id="line2d_10">
      <defs>
       <path d="M 0 0 
L -3.5 0 
" id="m2407220229" style="stroke:#000000;stroke-width:0.8;"/>
      </defs>
      <g>
       <use style="stroke:#000000;stroke-width:0.8;" x="45" xlink:href="#m2407220229" y="307.8"/>
      </g>
     </g>
     <g id="text_11">
      <!-- 0 -->
      <g transform="translate(31.6375 311.599219)scale(0.1 -0.1)">
       <use xlink:href="#DejaVuSans-48"/>
      </g>
     </g>
    </g>
    <g id="ytick_2">
     <g id="line2d_11">
      <g>
       <use style="stroke:#000000;stroke-width:0.8;" x="45" xlink:href="#m2407220229" y="276.142206"/>
      </g>
     </g>
     <g id="text_12">
      <!-- 10 -->
      <g transform="translate(25.275 279.941424)scale(0.1 -0.1)">
       <use xlink:href="#DejaVuSans-49"/>
       <use x="63.623047" xlink:href="#DejaVuSans-48"/>
      </g>
     </g>
    </g>
    <g id="ytick_3">
     <g id="line2d_12">
      <g>
       <use style="stroke:#000000;stroke-width:0.8;" x="45" xlink:href="#m2407220229" y="244.484411"/>
      </g>
     </g>
     <g id="text_13">
      <!-- 20 -->
      <g transform="translate(25.275 248.28363)scale(0.1 -0.1)">
       <use xlink:href="#DejaVuSans-50"/>
       <use x="63.623047" xlink:href="#DejaVuSans-48"/>
      </g>
     </g>
    </g>
    <g id="ytick_4">
     <g id="line2d_13">
      <g>
       <use style="stroke:#000000;stroke-width:0.8;" x="45" xlink:href="#m2407220229" y="212.826617"/>
      </g>
     </g>
     <g id="text_14">
      <!-- 30 -->
      <g transform="translate(25.275 216.625836)scale(0.1 -0.1)">
       <use xlink:href="#DejaVuSans-51"/>
       <use x="63.623047" xlink:href="#DejaVuSans-48"/>
      </g>
     </g>
    </g>
    <g id="ytick_5">
     <g id="line2d_14">
      <g>
       <use style="stroke:#000000;stroke-width:0.8;" x="45" xlink:href="#m2407220229" y="181.168823"/>
      </g>
     </g>
     <g id="text_15">
      <!-- 40 -->
      <g transform="translate(25.275 184.968041)scale(0.1 -0.1)">
       <use xlink:href="#DejaVuSans-52"/>
       <use x="63.623047" xlink:href="#DejaVuSans-48"/>
      </g>
     </g>
    </g>
    <g id="ytick_6">
     <g id="line2d_15">
      <g>
       <use style="stroke:#000000;stroke-width:0.8;" x="45" xlink:href="#m2407220229" y="149.511028"/>
      </g>
     </g>
     <g id="text_16">
      <!-- 50 -->
      <g transform="translate(25.275 153.310247)scale(0.1 -0.1)">
       <use xlink:href="#DejaVuSans-53"/>
       <use x="63.623047" xlink:href="#DejaVuSans-48"/>
      </g>
     </g>
    </g>
    <g id="ytick_7">
     <g id="line2d_16">
      <g>
       <use style="stroke:#000000;stroke-width:0.8;" x="45" xlink:href="#m2407220229" y="117.853234"/>
      </g>
     </g>
     <g id="text_17">
      <!-- 60 -->
      <defs>
       <path d="M 33.015625 40.375 
Q 26.375 40.375 22.484375 35.828125 
Q 18.609375 31.296875 18.609375 23.390625 
Q 18.609375 15.53125 22.484375 10.953125 
Q 26.375 6.390625 33.015625 6.390625 
Q 39.65625 6.390625 43.53125 10.953125 
Q 47.40625 15.53125 47.40625 23.390625 
Q 47.40625 31.296875 43.53125 35.828125 
Q 39.65625 40.375 33.015625 40.375 
z
M 52.59375 71.296875 
L 52.59375 62.3125 
Q 48.875 64.0625 45.09375 64.984375 
Q 41.3125 65.921875 37.59375 65.921875 
Q 27.828125 65.921875 22.671875 59.328125 
Q 17.53125 52.734375 16.796875 39.40625 
Q 19.671875 43.65625 24.015625 45.921875 
Q 28.375 48.1875 33.59375 48.1875 
Q 44.578125 48.1875 50.953125 41.515625 
Q 57.328125 34.859375 57.328125 23.390625 
Q 57.328125 12.15625 50.6875 5.359375 
Q 44.046875 -1.421875 33.015625 -1.421875 
Q 20.359375 -1.421875 13.671875 8.265625 
Q 6.984375 17.96875 6.984375 36.375 
Q 6.984375 53.65625 15.1875 63.9375 
Q 23.390625 74.21875 37.203125 74.21875 
Q 40.921875 74.21875 44.703125 73.484375 
Q 48.484375 72.75 52.59375 71.296875 
z
" id="DejaVuSans-54"/>
      </defs>
      <g transform="translate(25.275 121.652453)scale(0.1 -0.1)">
       <use xlink:href="#DejaVuSans-54"/>
       <use x="63.623047" xlink:href="#DejaVuSans-48"/>
      </g>
     </g>
    </g>
    <g id="ytick_8">
     <g id="line2d_17">
      <g>
       <use style="stroke:#000000;stroke-width:0.8;" x="45" xlink:href="#m2407220229" y="86.19544"/>
      </g>
     </g>
     <g id="text_18">
      <!-- 70 -->
      <defs>
       <path d="M 8.203125 72.90625 
L 55.078125 72.90625 
L 55.078125 68.703125 
L 28.609375 0 
L 18.3125 0 
L 43.21875 64.59375 
L 8.203125 64.59375 
z
" id="DejaVuSans-55"/>
      </defs>
      <g transform="translate(25.275 89.994659)scale(0.1 -0.1)">
       <use xlink:href="#DejaVuSans-55"/>
       <use x="63.623047" xlink:href="#DejaVuSans-48"/>
      </g>
     </g>
    </g>
    <g id="ytick_9">
     <g id="line2d_18">
      <g>
       <use style="stroke:#000000;stroke-width:0.8;" x="45" xlink:href="#m2407220229" y="54.537645"/>
      </g>
     </g>
     <g id="text_19">
      <!-- 80 -->
      <defs>
       <path d="M 31.78125 34.625 
Q 24.75 34.625 20.71875 30.859375 
Q 16.703125 27.09375 16.703125 20.515625 
Q 16.703125 13.921875 20.71875 10.15625 
Q 24.75 6.390625 31.78125 6.390625 
Q 38.8125 6.390625 42.859375 10.171875 
Q 46.921875 13.96875 46.921875 20.515625 
Q 46.921875 27.09375 42.890625 30.859375 
Q 38.875 34.625 31.78125 34.625 
z
M 21.921875 38.8125 
Q 15.578125 40.375 12.03125 44.71875 
Q 8.5 49.078125 8.5 55.328125 
Q 8.5 64.0625 14.71875 69.140625 
Q 20.953125 74.21875 31.78125 74.21875 
Q 42.671875 74.21875 48.875 69.140625 
Q 55.078125 64.0625 55.078125 55.328125 
Q 55.078125 49.078125 51.53125 44.71875 
Q 48 40.375 41.703125 38.8125 
Q 48.828125 37.15625 52.796875 32.3125 
Q 56.78125 27.484375 56.78125 20.515625 
Q 56.78125 9.90625 50.3125 4.234375 
Q 43.84375 -1.421875 31.78125 -1.421875 
Q 19.734375 -1.421875 13.25 4.234375 
Q 6.78125 9.90625 6.78125 20.515625 
Q 6.78125 27.484375 10.78125 32.3125 
Q 14.796875 37.15625 21.921875 38.8125 
z
M 18.3125 54.390625 
Q 18.3125 48.734375 21.84375 45.5625 
Q 25.390625 42.390625 31.78125 42.390625 
Q 38.140625 42.390625 41.71875 45.5625 
Q 45.3125 48.734375 45.3125 54.390625 
Q 45.3125 60.0625 41.71875 63.234375 
Q 38.140625 66.40625 31.78125 66.40625 
Q 25.390625 66.40625 21.84375 63.234375 
Q 18.3125 60.0625 18.3125 54.390625 
z
" id="DejaVuSans-56"/>
      </defs>
      <g transform="translate(25.275 58.336864)scale(0.1 -0.1)">
       <use xlink:href="#DejaVuSans-56"/>
       <use x="63.623047" xlink:href="#DejaVuSans-48"/>
      </g>
     </g>
    </g>
    <g id="text_20">
     <!-- Nombre d'agents symptomatique -->
     <defs>
      <path d="M 9.8125 72.90625 
L 23.09375 72.90625 
L 55.421875 11.921875 
L 55.421875 72.90625 
L 64.984375 72.90625 
L 64.984375 0 
L 51.703125 0 
L 19.390625 60.984375 
L 19.390625 0 
L 9.8125 0 
z
" id="DejaVuSans-78"/>
      <path d="M 30.609375 48.390625 
Q 23.390625 48.390625 19.1875 42.75 
Q 14.984375 37.109375 14.984375 27.296875 
Q 14.984375 17.484375 19.15625 11.84375 
Q 23.34375 6.203125 30.609375 6.203125 
Q 37.796875 6.203125 41.984375 11.859375 
Q 46.1875 17.53125 46.1875 27.296875 
Q 46.1875 37.015625 41.984375 42.703125 
Q 37.796875 48.390625 30.609375 48.390625 
z
M 30.609375 56 
Q 42.328125 56 49.015625 48.375 
Q 55.71875 40.765625 55.71875 27.296875 
Q 55.71875 13.875 49.015625 6.21875 
Q 42.328125 -1.421875 30.609375 -1.421875 
Q 18.84375 -1.421875 12.171875 6.21875 
Q 5.515625 13.875 5.515625 27.296875 
Q 5.515625 40.765625 12.171875 48.375 
Q 18.84375 56 30.609375 56 
z
" id="DejaVuSans-111"/>
      <path d="M 48.6875 27.296875 
Q 48.6875 37.203125 44.609375 42.84375 
Q 40.53125 48.484375 33.40625 48.484375 
Q 26.265625 48.484375 22.1875 42.84375 
Q 18.109375 37.203125 18.109375 27.296875 
Q 18.109375 17.390625 22.1875 11.75 
Q 26.265625 6.109375 33.40625 6.109375 
Q 40.53125 6.109375 44.609375 11.75 
Q 48.6875 17.390625 48.6875 27.296875 
z
M 18.109375 46.390625 
Q 20.953125 51.265625 25.265625 53.625 
Q 29.59375 56 35.59375 56 
Q 45.5625 56 51.78125 48.09375 
Q 58.015625 40.1875 58.015625 27.296875 
Q 58.015625 14.40625 51.78125 6.484375 
Q 45.5625 -1.421875 35.59375 -1.421875 
Q 29.59375 -1.421875 25.265625 0.953125 
Q 20.953125 3.328125 18.109375 8.203125 
L 18.109375 0 
L 9.078125 0 
L 9.078125 75.984375 
L 18.109375 75.984375 
z
" id="DejaVuSans-98"/>
      <path d="M 41.109375 46.296875 
Q 39.59375 47.171875 37.8125 47.578125 
Q 36.03125 48 33.890625 48 
Q 26.265625 48 22.1875 43.046875 
Q 18.109375 38.09375 18.109375 28.8125 
L 18.109375 0 
L 9.078125 0 
L 9.078125 54.6875 
L 18.109375 54.6875 
L 18.109375 46.1875 
Q 20.953125 51.171875 25.484375 53.578125 
Q 30.03125 56 36.53125 56 
Q 37.453125 56 38.578125 55.875 
Q 39.703125 55.765625 41.0625 55.515625 
z
" id="DejaVuSans-114"/>
      <path id="DejaVuSans-32"/>
      <path d="M 45.40625 46.390625 
L 45.40625 75.984375 
L 54.390625 75.984375 
L 54.390625 0 
L 45.40625 0 
L 45.40625 8.203125 
Q 42.578125 3.328125 38.25 0.953125 
Q 33.9375 -1.421875 27.875 -1.421875 
Q 17.96875 -1.421875 11.734375 6.484375 
Q 5.515625 14.40625 5.515625 27.296875 
Q 5.515625 40.1875 11.734375 48.09375 
Q 17.96875 56 27.875 56 
Q 33.9375 56 38.25 53.625 
Q 42.578125 51.265625 45.40625 46.390625 
z
M 14.796875 27.296875 
Q 14.796875 17.390625 18.875 11.75 
Q 22.953125 6.109375 30.078125 6.109375 
Q 37.203125 6.109375 41.296875 11.75 
Q 45.40625 17.390625 45.40625 27.296875 
Q 45.40625 37.203125 41.296875 42.84375 
Q 37.203125 48.484375 30.078125 48.484375 
Q 22.953125 48.484375 18.875 42.84375 
Q 14.796875 37.203125 14.796875 27.296875 
z
" id="DejaVuSans-100"/>
      <path d="M 17.921875 72.90625 
L 17.921875 45.796875 
L 9.625 45.796875 
L 9.625 72.90625 
z
" id="DejaVuSans-39"/>
      <path d="M 34.28125 27.484375 
Q 23.390625 27.484375 19.1875 25 
Q 14.984375 22.515625 14.984375 16.5 
Q 14.984375 11.71875 18.140625 8.90625 
Q 21.296875 6.109375 26.703125 6.109375 
Q 34.1875 6.109375 38.703125 11.40625 
Q 43.21875 16.703125 43.21875 25.484375 
L 43.21875 27.484375 
z
M 52.203125 31.203125 
L 52.203125 0 
L 43.21875 0 
L 43.21875 8.296875 
Q 40.140625 3.328125 35.546875 0.953125 
Q 30.953125 -1.421875 24.3125 -1.421875 
Q 15.921875 -1.421875 10.953125 3.296875 
Q 6 8.015625 6 15.921875 
Q 6 25.140625 12.171875 29.828125 
Q 18.359375 34.515625 30.609375 34.515625 
L 43.21875 34.515625 
L 43.21875 35.40625 
Q 43.21875 41.609375 39.140625 45 
Q 35.0625 48.390625 27.6875 48.390625 
Q 23 48.390625 18.546875 47.265625 
Q 14.109375 46.140625 10.015625 43.890625 
L 10.015625 52.203125 
Q 14.9375 54.109375 19.578125 55.046875 
Q 24.21875 56 28.609375 56 
Q 40.484375 56 46.34375 49.84375 
Q 52.203125 43.703125 52.203125 31.203125 
z
" id="DejaVuSans-97"/>
      <path d="M 45.40625 27.984375 
Q 45.40625 37.75 41.375 43.109375 
Q 37.359375 48.484375 30.078125 48.484375 
Q 22.859375 48.484375 18.828125 43.109375 
Q 14.796875 37.75 14.796875 27.984375 
Q 14.796875 18.265625 18.828125 12.890625 
Q 22.859375 7.515625 30.078125 7.515625 
Q 37.359375 7.515625 41.375 12.890625 
Q 45.40625 18.265625 45.40625 27.984375 
z
M 54.390625 6.78125 
Q 54.390625 -7.171875 48.1875 -13.984375 
Q 42 -20.796875 29.203125 -20.796875 
Q 24.46875 -20.796875 20.265625 -20.09375 
Q 16.0625 -19.390625 12.109375 -17.921875 
L 12.109375 -9.1875 
Q 16.0625 -11.328125 19.921875 -12.34375 
Q 23.78125 -13.375 27.78125 -13.375 
Q 36.625 -13.375 41.015625 -8.765625 
Q 45.40625 -4.15625 45.40625 5.171875 
L 45.40625 9.625 
Q 42.625 4.78125 38.28125 2.390625 
Q 33.9375 0 27.875 0 
Q 17.828125 0 11.671875 7.65625 
Q 5.515625 15.328125 5.515625 27.984375 
Q 5.515625 40.671875 11.671875 48.328125 
Q 17.828125 56 27.875 56 
Q 33.9375 56 38.28125 53.609375 
Q 42.625 51.21875 45.40625 46.390625 
L 45.40625 54.6875 
L 54.390625 54.6875 
z
" id="DejaVuSans-103"/>
      <path d="M 54.890625 33.015625 
L 54.890625 0 
L 45.90625 0 
L 45.90625 32.71875 
Q 45.90625 40.484375 42.875 44.328125 
Q 39.84375 48.1875 33.796875 48.1875 
Q 26.515625 48.1875 22.3125 43.546875 
Q 18.109375 38.921875 18.109375 30.90625 
L 18.109375 0 
L 9.078125 0 
L 9.078125 54.6875 
L 18.109375 54.6875 
L 18.109375 46.1875 
Q 21.34375 51.125 25.703125 53.5625 
Q 30.078125 56 35.796875 56 
Q 45.21875 56 50.046875 50.171875 
Q 54.890625 44.34375 54.890625 33.015625 
z
" id="DejaVuSans-110"/>
      <path d="M 18.3125 70.21875 
L 18.3125 54.6875 
L 36.8125 54.6875 
L 36.8125 47.703125 
L 18.3125 47.703125 
L 18.3125 18.015625 
Q 18.3125 11.328125 20.140625 9.421875 
Q 21.96875 7.515625 27.59375 7.515625 
L 36.8125 7.515625 
L 36.8125 0 
L 27.59375 0 
Q 17.1875 0 13.234375 3.875 
Q 9.28125 7.765625 9.28125 18.015625 
L 9.28125 47.703125 
L 2.6875 47.703125 
L 2.6875 54.6875 
L 9.28125 54.6875 
L 9.28125 70.21875 
z
" id="DejaVuSans-116"/>
      <path d="M 32.171875 -5.078125 
Q 28.375 -14.84375 24.75 -17.8125 
Q 21.140625 -20.796875 15.09375 -20.796875 
L 7.90625 -20.796875 
L 7.90625 -13.28125 
L 13.1875 -13.28125 
Q 16.890625 -13.28125 18.9375 -11.515625 
Q 21 -9.765625 23.484375 -3.21875 
L 25.09375 0.875 
L 2.984375 54.6875 
L 12.5 54.6875 
L 29.59375 11.921875 
L 46.6875 54.6875 
L 56.203125 54.6875 
z
" id="DejaVuSans-121"/>
      <path d="M 9.421875 54.6875 
L 18.40625 54.6875 
L 18.40625 0 
L 9.421875 0 
z
M 9.421875 75.984375 
L 18.40625 75.984375 
L 18.40625 64.59375 
L 9.421875 64.59375 
z
" id="DejaVuSans-105"/>
      <path d="M 14.796875 27.296875 
Q 14.796875 17.390625 18.875 11.75 
Q 22.953125 6.109375 30.078125 6.109375 
Q 37.203125 6.109375 41.296875 11.75 
Q 45.40625 17.390625 45.40625 27.296875 
Q 45.40625 37.203125 41.296875 42.84375 
Q 37.203125 48.484375 30.078125 48.484375 
Q 22.953125 48.484375 18.875 42.84375 
Q 14.796875 37.203125 14.796875 27.296875 
z
M 45.40625 8.203125 
Q 42.578125 3.328125 38.25 0.953125 
Q 33.9375 -1.421875 27.875 -1.421875 
Q 17.96875 -1.421875 11.734375 6.484375 
Q 5.515625 14.40625 5.515625 27.296875 
Q 5.515625 40.1875 11.734375 48.09375 
Q 17.96875 56 27.875 56 
Q 33.9375 56 38.25 53.625 
Q 42.578125 51.265625 45.40625 46.390625 
L 45.40625 54.6875 
L 54.390625 54.6875 
L 54.390625 -20.796875 
L 45.40625 -20.796875 
z
" id="DejaVuSans-113"/>
      <path d="M 8.5 21.578125 
L 8.5 54.6875 
L 17.484375 54.6875 
L 17.484375 21.921875 
Q 17.484375 14.15625 20.5 10.265625 
Q 23.53125 6.390625 29.59375 6.390625 
Q 36.859375 6.390625 41.078125 11.03125 
Q 45.3125 15.671875 45.3125 23.6875 
L 45.3125 54.6875 
L 54.296875 54.6875 
L 54.296875 0 
L 45.3125 0 
L 45.3125 8.40625 
Q 42.046875 3.421875 37.71875 1 
Q 33.40625 -1.421875 27.6875 -1.421875 
Q 18.265625 -1.421875 13.375 4.4375 
Q 8.5 10.296875 8.5 21.578125 
z
M 31.109375 56 
z
" id="DejaVuSans-117"/>
     </defs>
     <g transform="translate(19.195312 265.88125)rotate(-90)scale(0.1 -0.1)">
      <use xlink:href="#DejaVuSans-78"/>
      <use x="74.804688" xlink:href="#DejaVuSans-111"/>
      <use x="135.986328" xlink:href="#DejaVuSans-109"/>
      <use x="233.398438" xlink:href="#DejaVuSans-98"/>
      <use x="296.875" xlink:href="#DejaVuSans-114"/>
      <use x="337.957031" xlink:href="#DejaVuSans-101"/>
      <use x="399.480469" xlink:href="#DejaVuSans-32"/>
      <use x="431.267578" xlink:href="#DejaVuSans-100"/>
      <use x="494.744141" xlink:href="#DejaVuSans-39"/>
      <use x="522.234375" xlink:href="#DejaVuSans-97"/>
      <use x="583.513672" xlink:href="#DejaVuSans-103"/>
      <use x="646.990234" xlink:href="#DejaVuSans-101"/>
      <use x="708.513672" xlink:href="#DejaVuSans-110"/>
      <use x="771.892578" xlink:href="#DejaVuSans-116"/>
      <use x="811.101562" xlink:href="#DejaVuSans-115"/>
      <use x="863.201172" xlink:href="#DejaVuSans-32"/>
      <use x="894.988281" xlink:href="#DejaVuSans-115"/>
      <use x="947.087891" xlink:href="#DejaVuSans-121"/>
      <use x="1006.267578" xlink:href="#DejaVuSans-109"/>
      <use x="1103.679688" xlink:href="#DejaVuSans-112"/>
      <use x="1167.15625" xlink:href="#DejaVuSans-116"/>
      <use x="1206.365234" xlink:href="#DejaVuSans-111"/>
      <use x="1267.546875" xlink:href="#DejaVuSans-109"/>
      <use x="1364.958984" xlink:href="#DejaVuSans-97"/>
      <use x="1426.238281" xlink:href="#DejaVuSans-116"/>
      <use x="1465.447266" xlink:href="#DejaVuSans-105"/>
      <use x="1493.230469" xlink:href="#DejaVuSans-113"/>
      <use x="1556.707031" xlink:href="#DejaVuSans-117"/>
      <use x="1620.085938" xlink:href="#DejaVuSans-101"/>
     </g>
    </g>
   </g>
   <g id="line2d_19">
    <path clip-path="url(#p87a5660ee5)" d="M 57.681818 307.8 
L 58.340614 306.058821 
L 58.99941 302.576464 
L 60.317001 291.496236 
L 61.634593 274.717605 
L 62.293388 266.803156 
L 62.952184 255.722928 
L 64.269776 241.951788 
L 65.587367 227.230913 
L 66.246163 218.52502 
L 67.563754 205.228746 
L 68.22255 202.379545 
L 69.540142 191.457606 
L 70.198937 181.960268 
L 70.857733 176.89502 
L 72.175325 162.649013 
L 72.83412 159.166656 
L 73.492916 160.591256 
L 74.151712 155.36772 
L 74.810508 155.051142 
L 75.469303 150.144184 
L 76.128099 148.719584 
L 76.786895 146.820116 
L 77.445691 146.028671 
L 78.104486 144.129203 
L 78.763282 143.812625 
L 79.422078 145.712093 
L 80.080874 142.862892 
L 80.739669 144.445781 
L 81.398465 144.287492 
L 82.057261 147.294983 
L 82.716057 145.078937 
L 83.374852 143.496047 
L 84.033648 140.646846 
L 84.692444 143.496047 
L 85.35124 142.704603 
L 86.010035 142.229736 
L 86.668831 142.388025 
L 87.327627 139.697112 
L 87.986423 143.021181 
L 88.645218 141.121713 
L 89.304014 142.546314 
L 89.96281 144.762359 
L 90.621606 145.712093 
L 91.280401 148.403006 
L 91.939197 150.460762 
L 92.597993 149.827606 
L 93.256789 154.259698 
L 93.915584 156.475743 
L 94.57438 156.000876 
L 95.233176 157.742055 
L 95.891972 159.166656 
L 96.550767 162.807302 
L 97.209563 163.282169 
L 97.868359 162.015857 
L 98.527155 162.965591 
L 99.844746 169.772017 
L 100.503542 172.462929 
L 101.162338 176.578443 
L 101.821133 179.427644 
L 102.479929 181.168823 
L 103.138725 181.960268 
L 104.456316 185.284336 
L 105.773908 190.982739 
L 106.432704 189.399849 
L 107.091499 192.249051 
L 107.750295 194.306807 
L 108.409091 195.098252 
L 109.067887 198.738899 
L 109.726682 198.58061 
L 110.385478 197.156009 
L 111.044274 197.156009 
L 111.70307 199.372054 
L 112.361865 201.113233 
L 113.020661 204.912168 
L 113.679457 206.020191 
L 114.338253 208.552815 
L 114.997048 209.34426 
L 115.655844 209.34426 
L 116.31464 212.035172 
L 116.973436 213.459773 
L 117.632231 211.560305 
L 118.291027 214.567796 
L 118.949823 215.675819 
L 119.608619 215.042663 
L 120.267414 218.999887 
L 120.92621 217.891864 
L 121.585006 219.316465 
L 122.902597 226.122891 
L 123.561393 225.331446 
L 124.220189 225.806313 
L 124.878985 226.439469 
L 125.53778 225.489735 
L 126.196576 227.389202 
L 126.855372 227.230913 
L 127.514168 227.547491 
L 128.172963 229.130381 
L 128.831759 231.029849 
L 129.490555 231.346427 
L 130.149351 231.029849 
L 131.466942 236.569963 
L 132.125738 237.361408 
L 132.784534 237.519697 
L 133.443329 238.46943 
L 134.102125 241.951788 
L 134.760921 241.476921 
L 135.419717 241.318632 
L 136.078512 241.476921 
L 136.737308 240.210609 
L 138.0549 236.728252 
L 138.713695 235.46194 
L 139.372491 236.253385 
L 140.031287 238.627719 
L 140.690083 237.677986 
L 141.348878 237.836275 
L 142.007674 242.110077 
L 142.66647 244.326122 
L 143.325266 248.283347 
L 143.984061 249.391369 
L 144.642857 249.707947 
L 145.960449 256.356084 
L 146.619244 260.471597 
L 147.27804 262.371065 
L 147.936836 263.795666 
L 149.254427 267.594601 
L 149.913223 268.069468 
L 150.572019 269.968936 
L 151.230815 269.968936 
L 151.88961 270.760381 
L 152.548406 270.91867 
L 153.207202 272.34327 
L 154.524793 276.142206 
L 155.183589 276.617073 
L 155.842385 276.300495 
L 156.501181 275.50905 
L 157.159976 276.617073 
L 157.818772 276.617073 
L 158.477568 276.300495 
L 159.136364 275.142486 
L 159.795159 274.975866 
L 160.453955 276.142206 
L 161.112751 276.308826 
L 161.771547 277.975025 
L 162.430342 277.141926 
L 163.747934 278.474885 
L 164.40673 278.974745 
L 165.065525 278.808125 
L 165.724321 278.808125 
L 166.383117 280.474325 
L 167.041913 279.835615 
L 167.700708 281.242628 
L 168.359504 283.353148 
L 169.0183 283.529024 
L 169.677096 284.232531 
L 170.335891 284.056654 
L 170.994687 284.232531 
L 171.653483 285.815421 
L 172.312279 286.343051 
L 172.971074 288.101817 
L 173.62987 289.332953 
L 174.288666 289.684707 
L 174.947462 289.157077 
L 176.265053 291.795226 
L 176.923849 292.322856 
L 177.582645 292.52977 
L 178.24144 292.157325 
L 178.900236 291.179658 
L 179.559032 290.704791 
L 180.217828 289.227427 
L 180.876623 290.704791 
L 181.535419 291.760051 
L 182.194215 293.448467 
L 182.853011 294.503726 
L 183.511806 295.136882 
L 184.829398 297.669506 
L 185.488194 297.880558 
L 186.146989 296.267518 
L 187.464581 294.609252 
L 188.123377 294.345437 
L 188.782172 294.345437 
L 189.440968 294.873067 
L 190.099764 294.081622 
L 190.75856 293.026363 
L 191.417355 293.290178 
L 192.076151 291.683305 
L 192.734947 291.021369 
L 193.393743 290.704791 
L 194.711334 285.639544 
L 195.37013 285.287791 
L 196.028926 283.880778 
L 196.687721 282.869487 
L 197.346517 282.473765 
L 198.005313 280.890875 
L 198.664109 280.09943 
L 199.322904 277.329373 
L 199.9817 277.725095 
L 200.640496 279.307985 
L 201.299292 274.785443 
L 201.958087 271.921166 
L 202.616883 277.197465 
L 203.275679 278.780355 
L 203.934475 279.307985 
L 204.59327 279.307985 
L 205.252066 277.725095 
L 205.910862 279.835615 
L 206.569658 284.056654 
L 207.887249 283.001394 
L 208.546045 278.252725 
L 209.863636 278.252725 
L 210.522432 275.086946 
L 211.840024 272.976426 
L 212.498819 271.393537 
L 213.157615 270.338277 
L 213.816411 272.976426 
L 214.475207 274.559316 
L 215.134002 272.448796 
L 215.792798 274.031686 
L 216.451594 274.031686 
L 217.11039 276.142206 
L 217.769185 275.614576 
L 218.427981 276.142206 
L 219.086777 275.614576 
L 219.745573 274.031686 
L 220.404368 275.086946 
L 221.063164 268.544335 
L 221.72196 273.609582 
L 222.380756 272.976426 
L 223.039551 274.242738 
L 223.698347 274.875894 
L 224.357143 276.142206 
L 225.015939 276.775362 
L 225.674734 279.307985 
L 226.33353 278.674829 
L 227.651122 281.207453 
L 228.309917 278.674829 
L 228.968713 281.840609 
L 229.627509 281.840609 
L 230.286305 280.574297 
L 230.9451 279.941141 
L 231.603896 277.408517 
L 232.262692 278.041673 
L 232.921488 279.941141 
L 233.580283 283.10692 
L 234.239079 279.941141 
L 234.897875 281.207453 
L 235.556671 283.10692 
L 236.874262 281.840609 
L 237.533058 279.941141 
L 238.191854 281.840609 
L 238.850649 276.142206 
L 239.509445 279.307985 
L 240.168241 279.307985 
L 240.827037 280.09943 
L 241.485832 281.68232 
L 242.144628 282.473765 
L 242.803424 284.056654 
L 243.46222 286.430989 
L 244.121015 287.222434 
L 244.779811 287.222434 
L 245.438607 285.639544 
L 246.097403 284.848099 
L 246.756198 283.265209 
L 247.414994 282.473765 
L 248.07379 280.890875 
L 248.732586 283.265209 
L 249.391381 284.848099 
L 250.708973 283.265209 
L 251.367769 283.265209 
L 252.026564 287.222434 
L 252.68536 285.639544 
L 253.344156 282.473765 
L 254.002952 285.639544 
L 254.661747 280.363245 
L 255.320543 282.473765 
L 255.979339 282.473765 
L 256.638135 285.639544 
L 257.29693 283.529024 
L 257.955726 282.473765 
L 258.614522 278.252725 
L 259.932113 276.142206 
L 261.249705 282.473765 
L 262.567296 284.584284 
L 263.226092 282.473765 
L 263.884888 282.473765 
L 264.543684 283.529024 
L 265.202479 285.639544 
L 265.861275 289.860583 
L 266.520071 288.805323 
L 267.178867 290.915843 
L 267.837662 290.915843 
L 268.496458 289.860583 
L 269.155254 289.860583 
L 271.131641 293.026363 
L 271.790437 293.026363 
L 272.449233 290.915843 
L 273.108028 290.915843 
L 273.766824 291.971103 
L 275.084416 291.971103 
L 275.743211 289.860583 
L 277.060803 294.081622 
L 277.719599 295.136882 
L 278.378394 295.136882 
L 279.03719 294.081622 
L 280.354782 296.192142 
L 281.013577 290.388213 
L 281.672373 293.553993 
L 282.331169 291.971103 
L 282.989965 295.136882 
L 284.307556 298.302662 
L 284.966352 295.136882 
L 286.942739 295.136882 
L 287.601535 291.971103 
L 288.260331 279.307985 
L 289.577922 279.307985 
L 290.236718 282.473765 
L 290.895514 288.805323 
L 292.871901 288.805323 
L 293.530697 295.136882 
L 294.189492 295.136882 
L 295.507084 288.805323 
L 297.483471 298.302662 
L 298.142267 298.302662 
L 298.801063 295.136882 
L 299.459858 298.302662 
L 302.753837 298.302662 
L 304.071429 304.634221 
L 311.318182 304.634221 
L 311.318182 304.634221 
" style="fill:none;stroke:#1f77b4;stroke-linecap:square;stroke-width:1.5;"/>
   </g>
   <g id="line2d_20">
    <path clip-path="url(#p87a5660ee5)" d="M 57.681818 307.8 
L 58.340614 306.533688 
L 58.99941 303.20962 
L 60.317001 293.395704 
L 60.975797 286.430989 
L 61.634593 281.207453 
L 62.293388 271.710114 
L 62.952184 264.903689 
L 63.61098 255.722928 
L 64.269776 248.283347 
L 64.928571 239.419164 
L 65.587367 233.245894 
L 66.246163 223.1154 
L 66.904959 219.949621 
L 67.563754 211.085438 
L 68.22255 204.120724 
L 68.881346 198.897188 
L 69.540142 195.731408 
L 70.857733 186.550648 
L 72.175325 176.261865 
L 72.83412 169.772017 
L 73.492916 164.865059 
L 74.151712 161.066123 
L 74.810508 156.475743 
L 75.469303 153.94312 
L 77.445691 143.337759 
L 78.104486 144.920648 
L 78.763282 143.654336 
L 79.422078 139.380534 
L 80.080874 136.373044 
L 80.739669 135.739888 
L 81.398465 128.775173 
L 82.057261 124.65966 
L 82.716057 121.652169 
L 83.374852 121.49388 
L 84.033648 119.277835 
L 84.692444 116.270344 
L 85.35124 115.162322 
L 86.010035 114.370877 
L 86.668831 114.212588 
L 87.327627 110.255363 
L 87.986423 107.881029 
L 88.645218 105.031827 
L 89.304014 106.931295 
L 89.96281 102.815782 
L 90.621606 103.448938 
L 91.280401 101.54947 
L 91.939197 98.067113 
L 92.597993 99.016846 
L 93.256789 103.290649 
L 93.915584 101.074603 
L 94.57438 99.808291 
L 95.233176 96.800801 
L 95.891972 97.433957 
L 96.550767 100.441447 
L 97.209563 100.283158 
L 97.868359 97.433957 
L 98.527155 99.016846 
L 99.18595 103.448938 
L 99.844746 99.491713 
L 100.503542 97.750535 
L 101.162338 93.635021 
L 101.821133 91.418976 
L 102.479929 92.36871 
L 103.138725 89.836086 
L 103.797521 91.102398 
L 104.456316 87.145174 
L 105.115112 90.152664 
L 105.773908 94.426466 
L 106.432704 94.584755 
L 107.091499 88.569774 
L 107.750295 92.843577 
L 108.409091 92.843577 
L 109.067887 91.735554 
L 109.726682 92.685288 
L 110.385478 96.325934 
L 111.044274 97.275668 
L 111.70307 99.650002 
L 112.361865 99.96658 
L 113.020661 104.398672 
L 113.679457 108.039318 
L 114.338253 110.73023 
L 114.997048 108.672474 
L 115.655844 109.463919 
L 116.31464 110.571941 
L 116.973436 114.212588 
L 118.291027 118.169812 
L 118.949823 119.910991 
L 119.608619 122.127036 
L 120.267414 126.24255 
L 120.92621 129.25004 
L 121.585006 128.300306 
L 122.243802 134.156998 
L 122.902597 137.797645 
L 123.561393 136.373044 
L 124.220189 138.272511 
L 125.53778 143.654336 
L 126.196576 145.237226 
L 126.855372 149.827606 
L 127.514168 148.403006 
L 128.172963 148.086428 
L 128.831759 150.619051 
L 129.490555 151.727074 
L 130.808146 157.900344 
L 131.466942 162.490724 
L 132.784534 165.498215 
L 134.760921 175.312131 
L 135.419717 174.837264 
L 136.078512 179.269355 
L 136.737308 182.751712 
L 137.396104 182.276846 
L 138.0549 182.435134 
L 138.713695 184.018024 
L 139.372491 189.874716 
L 140.031287 193.515363 
L 140.690083 196.364564 
L 141.348878 197.472587 
L 142.007674 201.271522 
L 142.66647 203.012701 
L 143.325266 204.120724 
L 143.984061 206.811636 
L 145.960449 209.819127 
L 146.619244 211.085438 
L 147.27804 212.035172 
L 147.936836 211.243727 
L 148.595632 212.035172 
L 149.254427 216.150685 
L 150.572019 218.841598 
L 151.230815 224.065134 
L 151.88961 223.748556 
L 152.548406 225.014868 
L 153.207202 228.338936 
L 153.865998 227.230913 
L 154.524793 226.914336 
L 155.183589 228.338936 
L 155.842385 231.821294 
L 157.159976 236.253385 
L 157.818772 235.778518 
L 158.477568 235.936807 
L 159.795159 244.326122 
L 160.453955 243.851255 
L 161.112751 245.275856 
L 161.771547 247.175324 
L 162.430342 249.707947 
L 163.089138 249.707947 
L 163.747934 248.916503 
L 165.065525 251.765704 
L 165.724321 250.81597 
L 167.041913 251.765704 
L 167.700708 252.715438 
L 168.359504 252.39886 
L 169.0183 253.506883 
L 169.677096 253.98175 
L 170.335891 255.40635 
L 170.994687 257.147529 
L 171.653483 256.98924 
L 172.971074 258.255552 
L 173.62987 258.097263 
L 174.288666 257.147529 
L 176.265053 261.421331 
L 176.923849 262.054487 
L 177.582645 262.371065 
L 178.24144 262.845932 
L 178.900236 263.16251 
L 179.559032 264.587111 
L 180.217828 264.270533 
L 180.876623 266.803156 
L 181.535419 268.386046 
L 182.194215 269.177491 
L 182.853011 268.860913 
L 183.511806 268.227757 
L 184.170602 270.602092 
L 184.829398 272.026692 
L 185.488194 272.501559 
L 186.146989 273.767871 
L 186.805785 276.458784 
L 187.464581 278.51654 
L 188.123377 278.199962 
L 189.440968 279.941141 
L 190.099764 280.416008 
L 190.75856 279.782852 
L 191.417355 280.257719 
L 192.076151 280.257719 
L 192.734947 280.416008 
L 193.393743 279.624563 
L 194.052538 279.941141 
L 194.711334 280.416008 
L 195.37013 280.574297 
L 196.028926 281.524031 
L 196.687721 281.840609 
L 197.346517 282.307145 
L 198.005313 282.140525 
L 198.664109 283.140244 
L 199.9817 283.806724 
L 200.640496 284.639824 
L 201.299292 284.408408 
L 201.958087 284.335988 
L 202.616883 285.080877 
L 203.275679 283.660932 
L 203.934475 284.650238 
L 204.59327 285.04596 
L 205.252066 284.254515 
L 205.910862 281.418505 
L 206.569658 280.996401 
L 207.228453 281.207453 
L 207.887249 280.996401 
L 208.546045 280.363245 
L 209.204841 282.051661 
L 209.863636 281.629557 
L 210.522432 281.629557 
L 211.181228 280.996401 
L 211.840024 278.577421 
L 212.498819 278.820942 
L 213.157615 281.012636 
L 213.816411 281.986722 
L 214.475207 279.835615 
L 215.134002 279.595783 
L 215.792798 278.444591 
L 216.451594 279.020187 
L 217.11039 279.307985 
L 218.427981 274.242738 
L 219.086777 277.09194 
L 219.745573 275.192472 
L 220.404368 275.825628 
L 221.063164 275.50905 
L 221.72196 274.875894 
L 223.039551 278.041673 
L 223.698347 278.674829 
L 225.015939 283.423498 
L 225.674734 284.056654 
L 226.33353 283.177271 
L 226.992326 279.703708 
L 227.651122 278.120818 
L 228.309917 279.307985 
L 228.968713 279.307985 
L 230.286305 278.403477 
L 230.9451 276.142206 
L 231.603896 277.197465 
L 232.262692 279.307985 
L 232.921488 279.835615 
L 233.580283 278.252725 
L 234.897875 278.252725 
L 235.556671 280.890875 
L 236.215466 281.946135 
L 236.874262 280.890875 
L 238.191854 286.694804 
L 238.850649 286.167174 
L 239.509445 288.277694 
L 240.168241 287.539012 
L 240.827037 286.2727 
L 241.485832 285.639544 
L 242.803424 289.438479 
L 243.46222 293.87057 
L 244.121015 293.87057 
L 244.779811 293.237415 
L 245.438607 293.237415 
L 246.097403 292.604259 
L 246.756198 292.604259 
L 247.414994 293.237415 
L 248.07379 294.503726 
L 248.732586 294.503726 
L 249.391381 291.179658 
L 250.050177 293.553993 
L 250.708973 295.136882 
L 252.026564 295.136882 
L 252.68536 296.719772 
L 254.002952 298.302662 
L 254.661747 296.192142 
L 255.979339 298.302662 
L 256.638135 298.302662 
L 257.955726 300.413181 
L 258.614522 300.413181 
L 259.273318 298.302662 
L 260.590909 301.468441 
L 261.908501 301.468441 
L 262.567296 303.051331 
L 263.884888 303.051331 
L 264.543684 304.634221 
L 277.719599 304.634221 
L 277.719599 304.634221 
" style="fill:none;stroke:#ff7f0e;stroke-linecap:square;stroke-width:1.5;"/>
   </g>
   <g id="line2d_21"/>
   <g id="line2d_22"/>
   <g id="line2d_23"/>
   <g id="patch_3">
    <path d="M 45 320.4 
L 45 43.2 
" style="fill:none;stroke:#000000;stroke-linecap:square;stroke-linejoin:miter;stroke-width:0.8;"/>
   </g>
   <g id="patch_4">
    <path d="M 324 320.4 
L 324 43.2 
" style="fill:none;stroke:#000000;stroke-linecap:square;stroke-linejoin:miter;stroke-width:0.8;"/>
   </g>
   <g id="patch_5">
    <path d="M 45 320.4 
L 324 320.4 
" style="fill:none;stroke:#000000;stroke-linecap:square;stroke-linejoin:miter;stroke-width:0.8;"/>
   </g>
   <g id="patch_6">
    <path d="M 45 43.2 
L 324 43.2 
" style="fill:none;stroke:#000000;stroke-linecap:square;stroke-linejoin:miter;stroke-width:0.8;"/>
   </g>
   <g id="legend_1">
    <g id="patch_7">
     <path d="M 222.76875 95.234375 
L 317 95.234375 
Q 319 95.234375 319 93.234375 
L 319 50.2 
Q 319 48.2 317 48.2 
L 222.76875 48.2 
Q 220.76875 48.2 220.76875 50.2 
L 220.76875 93.234375 
Q 220.76875 95.234375 222.76875 95.234375 
z
" style="fill:#ffffff;opacity:0.8;stroke:#cccccc;stroke-linejoin:miter;"/>
    </g>
    <g id="line2d_24">
     <path d="M 224.76875 56.298437 
L 244.76875 56.298437 
" style="fill:none;"/>
    </g>
    <g id="line2d_25"/>
    <g id="text_21">
     <!-- Quarantaine -->
     <defs>
      <path d="M 39.40625 66.21875 
Q 28.65625 66.21875 22.328125 58.203125 
Q 16.015625 50.203125 16.015625 36.375 
Q 16.015625 22.609375 22.328125 14.59375 
Q 28.65625 6.59375 39.40625 6.59375 
Q 50.140625 6.59375 56.421875 14.59375 
Q 62.703125 22.609375 62.703125 36.375 
Q 62.703125 50.203125 56.421875 58.203125 
Q 50.140625 66.21875 39.40625 66.21875 
z
M 53.21875 1.3125 
L 66.21875 -12.890625 
L 54.296875 -12.890625 
L 43.5 -1.21875 
Q 41.890625 -1.3125 41.03125 -1.359375 
Q 40.1875 -1.421875 39.40625 -1.421875 
Q 24.03125 -1.421875 14.8125 8.859375 
Q 5.609375 19.140625 5.609375 36.375 
Q 5.609375 53.65625 14.8125 63.9375 
Q 24.03125 74.21875 39.40625 74.21875 
Q 54.734375 74.21875 63.90625 63.9375 
Q 73.09375 53.65625 73.09375 36.375 
Q 73.09375 23.6875 67.984375 14.640625 
Q 62.890625 5.609375 53.21875 1.3125 
z
" id="DejaVuSans-81"/>
     </defs>
     <g transform="translate(252.76875 59.798437)scale(0.1 -0.1)">
      <use xlink:href="#DejaVuSans-81"/>
      <use x="78.710938" xlink:href="#DejaVuSans-117"/>
      <use x="142.089844" xlink:href="#DejaVuSans-97"/>
      <use x="203.369141" xlink:href="#DejaVuSans-114"/>
      <use x="244.482422" xlink:href="#DejaVuSans-97"/>
      <use x="305.761719" xlink:href="#DejaVuSans-110"/>
      <use x="369.140625" xlink:href="#DejaVuSans-116"/>
      <use x="408.349609" xlink:href="#DejaVuSans-97"/>
      <use x="469.628906" xlink:href="#DejaVuSans-105"/>
      <use x="497.412109" xlink:href="#DejaVuSans-110"/>
      <use x="560.791016" xlink:href="#DejaVuSans-101"/>
     </g>
    </g>
    <g id="line2d_26">
     <path d="M 224.76875 70.976562 
L 244.76875 70.976562 
" style="fill:none;stroke:#1f77b4;stroke-linecap:square;stroke-width:1.5;"/>
    </g>
    <g id="line2d_27"/>
    <g id="text_22">
     <!-- oui -->
     <g transform="translate(252.76875 74.476562)scale(0.1 -0.1)">
      <use xlink:href="#DejaVuSans-111"/>
      <use x="61.181641" xlink:href="#DejaVuSans-117"/>
      <use x="124.560547" xlink:href="#DejaVuSans-105"/>
     </g>
    </g>
    <g id="line2d_28">
     <path d="M 224.76875 85.654687 
L 244.76875 85.654687 
" style="fill:none;stroke:#ff7f0e;stroke-linecap:square;stroke-width:1.5;"/>
    </g>
    <g id="line2d_29"/>
    <g id="text_23">
     <!-- non -->
     <g transform="translate(252.76875 89.154687)scale(0.1 -0.1)">
      <use xlink:href="#DejaVuSans-110"/>
      <use x="63.378906" xlink:href="#DejaVuSans-111"/>
      <use x="124.560547" xlink:href="#DejaVuSans-110"/>
     </g>
    </g>
   </g>
  </g>
 </g>
 <defs>
  <clipPath id="p87a5660ee5">
   <rect height="277.2" width="279" x="45" y="43.2"/>
  </clipPath>
 </defs>
</svg>
