<?xml version="1.0" encoding="utf-8" standalone="no"?>
<!DOCTYPE svg PUBLIC "-//W3C//DTD SVG 1.1//EN"
  "http://www.w3.org/Graphics/SVG/1.1/DTD/svg11.dtd">
<!-- Created with matplotlib (https://matplotlib.org/) -->
<svg height="360pt" version="1.1" viewBox="0 0 360 360" width="360pt" xmlns="http://www.w3.org/2000/svg" xmlns:xlink="http://www.w3.org/1999/xlink">
 <defs>
  <style type="text/css">
*{stroke-linecap:butt;stroke-linejoin:round;}
  </style>
 </defs>
 <g id="figure_1">
  <g id="patch_1">
   <path d="M 0 360 
L 360 360 
L 360 0 
L 0 0 
z
" style="fill:#ffffff;"/>
  </g>
  <g id="axes_1">
   <g id="patch_2">
    <path d="M 45 320.4 
L 324 320.4 
L 324 43.2 
L 45 43.2 
z
" style="fill:#ffffff;"/>
   </g>
   <g id="PolyCollection_1">
    <defs>
     <path d="M 57.681818 -67.03029 
L 57.681818 -67.03029 
L 58.441208 -78.742512 
L 59.200599 -101.73317 
L 59.959989 -112.114373 
L 60.719379 -119.377507 
L 61.47877 -128.423984 
L 62.23816 -141.47464 
L 62.99755 -146.368636 
L 63.756941 -150.673127 
L 64.516331 -155.863729 
L 65.275721 -163.564357 
L 66.035112 -169.800494 
L 66.794502 -176.144151 
L 67.553892 -177.808851 
L 68.313283 -183.744675 
L 69.072673 -188.935276 
L 69.832063 -186.558722 
L 70.591453 -187.745146 
L 71.350844 -190.707496 
L 72.110234 -194.567079 
L 72.869624 -198.130056 
L 73.629015 -196.202119 
L 74.388405 -200.944104 
L 75.147795 -201.833921 
L 75.907186 -199.609378 
L 76.666576 -198.126349 
L 77.425966 -202.872042 
L 78.185357 -203.009222 
L 78.944747 -206.568492 
L 79.704137 -206.87622 
L 80.463527 -209.54938 
L 81.222918 -210.439197 
L 81.982308 -211.469902 
L 82.741698 -211.477318 
L 83.501089 -214.443376 
L 84.260479 -214.587971 
L 85.019869 -214.28395 
L 85.77926 -215.926405 
L 86.53865 -214.888284 
L 87.29804 -216.519616 
L 88.057431 -220.219774 
L 88.816821 -220.8204 
L 89.576211 -222.006824 
L 90.335602 -227.475493 
L 91.094992 -225.566093 
L 91.854382 -225.262072 
L 92.613772 -221.558207 
L 93.373163 -221.239356 
L 94.132553 -226.007295 
L 94.891943 -221.561915 
L 95.651334 -227.197425 
L 96.410724 -223.189539 
L 97.170114 -216.953402 
L 97.929505 -216.797684 
L 98.688895 -219.474552 
L 99.448285 -216.515909 
L 100.207676 -219.322541 
L 100.967066 -227.638626 
L 101.726456 -227.345728 
L 102.485846 -226.300193 
L 103.245237 -229.273666 
L 104.004627 -227.19001 
L 104.764017 -229.714867 
L 105.523408 -232.384319 
L 106.282798 -229.718575 
L 107.042188 -231.487087 
L 107.801579 -230.308079 
L 108.560969 -231.783693 
L 109.320359 -232.981239 
L 110.07975 -228.528444 
L 110.83914 -230.890168 
L 111.59853 -224.071942 
L 112.357921 -224.375963 
L 113.117311 -226.15189 
L 113.876701 -223.771628 
L 114.636091 -220.812985 
L 115.395482 -224.372255 
L 116.154872 -216.964525 
L 116.914262 -216.812515 
L 117.673653 -212.211417 
L 118.433043 -204.210475 
L 119.192433 -203.465253 
L 119.951824 -203.446715 
L 120.711214 -199.464782 
L 121.470604 -198.426662 
L 122.229995 -195.753502 
L 122.989385 -197.088228 
L 123.748775 -193.532666 
L 124.508165 -194.12217 
L 125.267556 -190.270003 
L 126.026946 -188.634963 
L 126.786336 -186.258409 
L 127.545727 -183.144048 
L 128.305117 -181.067807 
L 129.064507 -177.512245 
L 129.823898 -177.056214 
L 130.583288 -175.5806 
L 131.342678 -171.13522 
L 132.102069 -174.842793 
L 132.861459 -173.359764 
L 133.620849 -171.435534 
L 134.38024 -170.0971 
L 135.13963 -167.13475 
L 135.89902 -167.283053 
L 136.65841 -166.686133 
L 137.417801 -161.339814 
L 138.177191 -158.529474 
L 138.936581 -154.362162 
L 139.695972 -153.783781 
L 140.455362 -151.70754 
L 141.214752 -150.966026 
L 141.974143 -145.923727 
L 142.733533 -144.28498 
L 143.492923 -142.664771 
L 144.252314 -142.216154 
L 145.011704 -137.770775 
L 145.771094 -137.325866 
L 146.530484 -136.428634 
L 147.289875 -136.135735 
L 148.049265 -133.321688 
L 148.808655 -132.572758 
L 149.568046 -129.458397 
L 150.327436 -127.241269 
L 151.086826 -126.79636 
L 151.846217 -123.08508 
L 152.605607 -120.415628 
L 153.364997 -119.522103 
L 154.124388 -118.928891 
L 154.883778 -116.111136 
L 155.643168 -116.248316 
L 156.402559 -115.080431 
L 157.161949 -115.821945 
L 157.921339 -112.110665 
L 158.680729 -110.33103 
L 159.44012 -108.851709 
L 160.19951 -106.771761 
L 160.9589 -104.402622 
L 161.718291 -105.433327 
L 162.477681 -104.398914 
L 163.237071 -103.805703 
L 163.996462 -102.915885 
L 164.755852 -102.326381 
L 165.515242 -102.615572 
L 166.274633 -101.573744 
L 167.034023 -100.691342 
L 167.793413 -99.805232 
L 168.552803 -99.504918 
L 169.312194 -98.763404 
L 170.071584 -96.245962 
L 170.830974 -93.569095 
L 171.590365 -91.485439 
L 172.349755 -91.051653 
L 173.109145 -88.671391 
L 173.868536 -87.941 
L 174.627926 -87.347788 
L 175.387316 -89.420321 
L 176.146707 -86.750869 
L 176.906097 -86.30596 
L 177.665487 -86.602566 
L 178.424878 -87.492383 
L 179.184268 -88.089302 
L 179.943658 -86.457971 
L 180.703048 -84.971234 
L 181.462439 -85.41985 
L 182.221829 -84.530033 
L 182.981219 -85.568153 
L 183.74061 -83.925698 
L 184.5 -83.636508 
L 185.25939 -82.74669 
L 186.018781 -83.48079 
L 186.778171 -80.967056 
L 187.537561 -79.484027 
L 188.296952 -79.03541 
L 189.056342 -77.556089 
L 189.815732 -77.255775 
L 190.575122 -75.335253 
L 191.334513 -74.886637 
L 192.093903 -72.962406 
L 192.853293 -72.810396 
L 193.612684 -74.14883 
L 194.372074 -72.962406 
L 195.131464 -74.742041 
L 195.890855 -73.103294 
L 196.650245 -72.51379 
L 197.409635 -71.775983 
L 198.169026 -70.882458 
L 198.928416 -69.106531 
L 199.687806 -69.251126 
L 200.447197 -68.809925 
L 201.206587 -69.254834 
L 201.965977 -66.881987 
L 202.725367 -66.140473 
L 203.484758 -65.398958 
L 204.244148 -64.950342 
L 205.003538 -63.026112 
L 205.762929 -63.767626 
L 206.522319 -63.315303 
L 207.281709 -63.912222 
L 208.0411 -63.174415 
L 208.80049 -63.767626 
L 209.55988 -63.174415 
L 210.319271 -63.026112 
L 211.078661 -62.136294 
L 211.838051 -62.725799 
L 212.597441 -62.132587 
L 213.356832 -61.839689 
L 214.116222 -59.911751 
L 214.875612 -60.204649 
L 215.635003 -59.908043 
L 216.394393 -59.021934 
L 217.153783 -58.280419 
L 217.913174 -59.166529 
L 218.672564 -59.224874 
L 219.431954 -59.693199 
L 220.191345 -59.37708 
L 220.950735 -58.288224 
L 221.710125 -57.50378 
L 222.469516 -57.035455 
L 223.228906 -57.468873 
L 223.988296 -57.608694 
L 224.747686 -57.429858 
L 225.507077 -58.127482 
L 226.266467 -57.946737 
L 227.025857 -57.942103 
L 227.785248 -57.761359 
L 228.544638 -58.720384 
L 229.304028 -58.329853 
L 230.063419 -57.934379 
L 230.822809 -56.940749 
L 231.582199 -56.352481 
L 232.34159 -56.352481 
L 233.10098 -55.957007 
L 233.86037 -55.75927 
L 234.61976 -55.75927 
L 235.379151 -56.30685 
L 236.138541 -56.529304 
L 236.897931 -56.763166 
L 237.657322 -57.675799 
L 238.416712 -58.873631 
L 239.176102 -59.480324 
L 239.935493 -60.828533 
L 240.694883 -61.637457 
L 241.454273 -60.289249 
L 242.213664 -59.749966 
L 242.973054 -60.794153 
L 243.732444 -59.311124 
L 244.491835 -58.132116 
L 245.251225 -58.132116 
L 246.010615 -57.538905 
L 246.770005 -57.538905 
L 247.529396 -56.945693 
L 248.288786 -57.531489 
L 249.048176 -56.649087 
L 249.807567 -55.75927 
L 250.566957 -55.166058 
L 251.326347 -55.462664 
L 252.085738 -55.166058 
L 252.845128 -55.898304 
L 253.604518 -55.907573 
L 254.363909 -56.27833 
L 255.123299 -54.795301 
L 255.882689 -56.013503 
L 256.642079 -56.437226 
L 257.40147 -59.615145 
L 258.16086 -60.109488 
L 258.92025 -60.603831 
L 259.679641 -60.109488 
L 260.439031 -58.132116 
L 261.198421 -57.637773 
L 261.957812 -57.14343 
L 262.717202 -56.649087 
L 263.476592 -56.649087 
L 264.235983 -55.166058 
L 264.995373 -55.660401 
L 265.754763 -56.154744 
L 266.514154 -56.154744 
L 267.273544 -55.166058 
L 268.032934 -57.538905 
L 268.792324 -56.945693 
L 269.551715 -56.945693 
L 270.311105 -56.945693 
L 271.070495 -56.352481 
L 271.829886 -56.352481 
L 272.589276 -56.945693 
L 273.348666 -56.352481 
L 274.108057 -53.979635 
L 274.867447 -53.979635 
L 275.626837 -53.979635 
L 276.386228 -52.793212 
L 277.145618 -53.386423 
L 277.905008 -53.386423 
L 278.664398 -55.166058 
L 279.423789 -54.424544 
L 280.183179 -53.683029 
L 280.942569 -53.683029 
L 281.70196 -53.683029 
L 282.46135 -53.683029 
L 283.22074 -53.683029 
L 283.980131 -53.683029 
L 284.739521 -58.132116 
L 285.498911 -55.166058 
L 286.258302 -55.166058 
L 287.017692 -55.166058 
L 287.777082 -55.166058 
L 288.536473 -55.166058 
L 289.295863 -52.2 
L 290.055253 -52.2 
L 290.814643 -52.2 
L 291.574034 -52.2 
L 292.333424 -52.2 
L 293.092814 -52.2 
L 293.852205 -52.2 
L 294.611595 -52.2 
L 295.370985 -52.2 
L 296.130376 -52.2 
L 296.889766 -52.2 
L 297.649156 -52.2 
L 298.408547 -52.2 
L 299.167937 -52.2 
L 299.927327 -52.2 
L 300.686717 -52.2 
L 300.686717 -52.2 
L 300.686717 -52.2 
L 299.927327 -52.2 
L 299.167937 -52.2 
L 298.408547 -52.2 
L 297.649156 -52.2 
L 296.889766 -52.2 
L 296.130376 -52.2 
L 295.370985 -52.2 
L 294.611595 -55.166058 
L 293.852205 -55.166058 
L 293.092814 -55.166058 
L 292.333424 -55.166058 
L 291.574034 -55.166058 
L 290.814643 -55.166058 
L 290.055253 -55.166058 
L 289.295863 -55.166058 
L 288.536473 -55.166058 
L 287.777082 -55.166058 
L 287.017692 -55.166058 
L 286.258302 -58.132116 
L 285.498911 -58.132116 
L 284.739521 -58.132116 
L 283.980131 -58.132116 
L 283.22074 -60.35666 
L 282.46135 -60.35666 
L 281.70196 -60.35666 
L 280.942569 -60.35666 
L 280.183179 -62.581203 
L 279.423789 -64.805747 
L 278.664398 -65.547261 
L 277.905008 -65.843867 
L 277.145618 -66.437079 
L 276.386228 -65.843867 
L 275.626837 -65.265486 
L 274.867447 -66.437079 
L 274.108057 -67.623502 
L 273.348666 -67.03029 
L 272.589276 -67.623502 
L 271.829886 -68.824755 
L 271.070495 -68.809925 
L 270.311105 -74.14883 
L 269.551715 -75.928464 
L 268.792324 -75.943295 
L 268.032934 -81.267369 
L 267.273544 -74.939778 
L 266.514154 -72.468063 
L 265.754763 -71.97372 
L 264.995373 -72.962406 
L 264.235983 -72.962406 
L 263.476592 -72.468063 
L 262.717202 -73.951092 
L 261.957812 -74.939778 
L 261.198421 -79.883209 
L 260.439031 -82.849267 
L 259.679641 -88.299398 
L 258.92025 -91.265456 
L 258.16086 -94.713499 
L 257.40147 -92.241784 
L 256.642079 -86.521529 
L 255.882689 -96.277741 
L 255.123299 -86.309668 
L 254.363909 -93.354056 
L 253.604518 -94.837085 
L 252.845128 -94.104839 
L 252.085738 -97.020433 
L 251.326347 -91.055361 
L 250.566957 -93.732228 
L 249.807567 -91.648572 
L 249.048176 -90.469564 
L 248.288786 -94.318024 
L 247.529396 -95.207842 
L 246.770005 -93.131601 
L 246.010615 -93.131601 
L 245.251225 -97.884709 
L 244.491835 -95.801053 
L 243.732444 -98.492751 
L 242.973054 -100.850767 
L 242.213664 -93.724813 
L 241.454273 -99.387287 
L 240.694883 -103.431912 
L 239.935493 -102.083704 
L 239.176102 -103.438653 
L 238.416712 -91.506449 
L 237.657322 -89.857529 
L 236.897931 -87.804105 
L 236.138541 -88.026559 
L 235.379151 -89.406917 
L 234.61976 -87.397222 
L 233.86037 -90.763698 
L 233.10098 -93.136545 
L 232.34159 -99.142812 
L 231.582199 -96.295396 
L 230.822809 -98.673186 
L 230.063419 -100.255084 
L 229.304028 -106.379994 
L 228.544638 -107.57136 
L 227.785248 -107.447466 
L 227.025857 -111.377493 
L 226.266467 -105.964437 
L 225.507077 -106.145181 
L 224.747686 -107.011008 
L 223.988296 -104.904235 
L 223.228906 -103.451011 
L 222.469516 -96.870395 
L 221.710125 -92.635957 
L 220.950735 -94.661463 
L 220.191345 -89.509888 
L 219.431954 -90.294332 
L 218.672564 -87.95661 
L 217.913174 -86.313375 
L 217.153783 -83.491912 
L 216.394393 -82.605803 
L 215.635003 -82.008883 
L 214.875612 -81.267369 
L 214.116222 -83.347317 
L 213.356832 -84.088832 
L 212.597441 -85.123244 
L 211.838051 -86.606273 
L 211.078661 -87.944707 
L 210.319271 -89.279433 
L 209.55988 -89.576039 
L 208.80049 -89.572332 
L 208.0411 -87.948415 
L 207.281709 -85.868467 
L 206.522319 -85.123244 
L 205.762929 -85.568153 
L 205.003538 -85.423558 
L 204.244148 -83.936821 
L 203.484758 -83.199014 
L 202.725367 -81.415672 
L 201.965977 -82.898701 
L 201.206587 -85.571861 
L 200.447197 -85.571861 
L 199.687806 -85.271547 
L 198.928416 -86.165072 
L 198.169026 -89.279433 
L 197.409635 -89.127423 
L 196.650245 -90.758755 
L 195.890855 -93.431915 
L 195.131464 -94.321732 
L 194.372074 -95.359852 
L 193.612684 -95.51557 
L 192.853293 -95.652751 
L 192.093903 -96.105074 
L 191.334513 -99.215728 
L 190.575122 -102.352334 
L 189.815732 -104.109724 
L 189.056342 -105.299854 
L 188.296952 -109.007427 
L 187.537561 -110.186435 
L 186.778171 -111.969777 
L 186.018781 -113.007898 
L 185.25939 -113.597402 
L 184.5 -115.825653 
L 183.74061 -119.529518 
L 182.981219 -117.160379 
L 182.221829 -117.901894 
L 181.462439 -114.338916 
L 180.703048 -113.897715 
L 179.943658 -113.597402 
L 179.184268 -115.080431 
L 178.424878 -114.635522 
L 177.665487 -114.046018 
L 176.906097 -113.597402 
L 176.146707 -115.087846 
L 175.387316 -118.194792 
L 174.627926 -115.82936 
L 173.868536 -115.377037 
L 173.109145 -120.271032 
L 172.349755 -121.179388 
L 171.590365 -121.31286 
L 170.830974 -124.126908 
L 170.071584 -124.87213 
L 169.312194 -125.165028 
L 168.552803 -129.910721 
L 167.793413 -129.769833 
L 167.034023 -130.211034 
L 166.274633 -131.401165 
L 165.515242 -130.50764 
L 164.755852 -128.58341 
L 163.996462 -128.872601 
L 163.237071 -132.283568 
L 162.477681 -133.329103 
L 161.718291 -135.397928 
L 160.9589 -133.918607 
L 160.19951 -137.629887 
L 159.44012 -138.81631 
L 158.680729 -141.630358 
L 157.921339 -147.265868 
L 157.161949 -146.82096 
L 156.402559 -149.190098 
L 155.643168 -152.304459 
L 154.883778 -152.756783 
L 154.124388 -154.391823 
L 153.364997 -152.901379 
L 152.605607 -153.049681 
L 151.846217 -155.122215 
L 151.086826 -156.460648 
L 150.327436 -158.240283 
L 149.568046 -160.757725 
L 148.808655 -163.875793 
L 148.049265 -166.104044 
L 147.289875 -169.507596 
L 146.530484 -175.146814 
L 145.771094 -172.773968 
L 145.011704 -174.850208 
L 144.252314 -175.291409 
L 143.492923 -176.184934 
L 142.733533 -176.626135 
L 141.974143 -174.853916 
L 141.214752 -181.223525 
L 140.455362 -181.968748 
L 139.695972 -183.448069 
L 138.936581 -188.497783 
L 138.177191 -194.422484 
L 137.417801 -196.202119 
L 136.65841 -201.099822 
L 135.89902 -202.430841 
L 135.13963 -200.654913 
L 134.38024 -203.176063 
L 133.620849 -208.214654 
L 132.861459 -216.667919 
L 132.102069 -218.154656 
L 131.342678 -219.040766 
L 130.583288 -222.900349 
L 129.823898 -220.824108 
L 129.064507 -220.527502 
L 128.305117 -224.24249 
L 127.545727 -224.980297 
L 126.786336 -223.641863 
L 126.026946 -224.231367 
L 125.267556 -227.345728 
L 124.508165 -229.421969 
L 123.748775 -234.760873 
L 122.989385 -239.654869 
L 122.229995 -234.61257 
L 121.470604 -235.216905 
L 120.711214 -243.221554 
L 119.951824 -249.009075 
L 119.192433 -247.670641 
L 118.433043 -253.747352 
L 117.673653 -259.690591 
L 116.914262 -262.94584 
L 116.154872 -263.546467 
L 115.395482 -268.870541 
L 114.636091 -270.360985 
L 113.876701 -279.251744 
L 113.117311 -286.233103 
L 112.357921 -288.909971 
L 111.59853 -291.41629 
L 110.83914 -292.751016 
L 110.07975 -291.41629 
L 109.320359 -295.728197 
L 108.560969 -295.568771 
L 107.801579 -297.344698 
L 107.042188 -304.2 
L 106.282798 -294.834672 
L 105.523408 -299.435769 
L 104.764017 -292.602713 
L 104.004627 -287.853313 
L 103.245237 -294.986682 
L 102.485846 -289.514305 
L 101.726456 -286.670597 
L 100.967066 -285.780779 
L 100.207676 -281.035087 
L 99.448285 -274.361456 
L 98.688895 -274.365164 
L 97.929505 -275.099263 
L 97.170114 -275.110386 
L 96.410724 -281.031379 
L 95.651334 -283.719369 
L 94.891943 -279.251744 
L 94.132553 -276.882605 
L 93.373163 -275.555294 
L 92.613772 -274.658062 
L 91.854382 -279.844956 
L 91.094992 -275.844485 
L 90.335602 -275.840777 
L 89.576211 -268.433047 
L 88.816821 -267.839836 
L 88.057431 -268.132734 
L 87.29804 -263.094143 
L 86.53865 -259.230852 
L 85.77926 -259.086257 
L 85.019869 -258.645056 
L 84.260479 -263.238738 
L 83.501089 -262.797537 
L 82.741698 -262.938425 
L 81.982308 -263.535344 
L 81.222918 -257.31033 
L 80.463527 -251.522809 
L 79.704137 -251.674819 
L 78.944747 -253.743645 
L 78.185357 -249.453983 
L 77.425966 -250.781294 
L 76.666576 -247.533461 
L 75.907186 -244.997481 
L 75.147795 -246.780824 
L 74.388405 -245.735288 
L 73.629015 -244.255967 
L 72.869624 -243.217846 
L 72.110234 -237.878942 
L 71.350844 -233.57445 
L 70.591453 -227.642334 
L 69.832063 -223.938469 
L 69.072673 -221.565623 
L 68.313283 -217.869173 
L 67.553892 -210.294602 
L 66.794502 -210.150007 
L 66.035112 -200.651206 
L 65.275721 -195.75721 
L 64.516331 -189.383893 
L 63.756941 -182.424779 
L 62.99755 -175.439712 
L 62.23816 -168.766082 
L 61.47877 -154.973912 
L 60.719379 -146.817252 
L 59.959989 -135.249626 
L 59.200599 -119.681528 
L 58.441208 -88.682514 
L 57.681818 -67.03029 
z
" id="mcee08643df" style="stroke:#1f77b4;stroke-opacity:0.2;"/>
    </defs>
    <g clip-path="url(#pdaaa23dc79)">
     <use style="fill:#1f77b4;fill-opacity:0.2;stroke:#1f77b4;stroke-opacity:0.2;" x="0" xlink:href="#mcee08643df" y="360"/>
    </g>
   </g>
   <g id="PolyCollection_2">
    <defs>
     <path d="M 57.681818 -52.2 
L 57.681818 -52.2 
L 58.441208 -52.793212 
L 59.200599 -55.017755 
L 59.959989 -58.725328 
L 60.719379 -62.877809 
L 61.47877 -68.216714 
L 62.23816 -71.62768 
L 62.99755 -80.525854 
L 63.756941 -84.678336 
L 64.516331 -92.390087 
L 65.275721 -98.021889 
L 66.035112 -105.585337 
L 66.794502 -112.410979 
L 67.553892 -118.343095 
L 68.313283 -123.978605 
L 69.072673 -131.245447 
L 69.832063 -138.512289 
L 70.591453 -142.664771 
L 71.350844 -144.144092 
L 72.110234 -146.220333 
L 72.869624 -151.711248 
L 73.629015 -156.308638 
L 74.388405 -159.867907 
L 75.147795 -163.275167 
L 75.907186 -169.655899 
L 76.666576 -171.428119 
L 77.425966 -175.439712 
L 78.185357 -176.770731 
L 78.944747 -180.622899 
L 79.704137 -181.371828 
L 80.463527 -185.520602 
L 81.222918 -186.117521 
L 81.982308 -186.414127 
L 82.741698 -189.965982 
L 83.501089 -192.19794 
L 84.260479 -193.08405 
L 85.019869 -201.537316 
L 85.77926 -201.244417 
L 86.53865 -204.651676 
L 87.29804 -202.575436 
L 88.057431 -207.324836 
L 88.816821 -208.804158 
L 89.576211 -210.735803 
L 90.335602 -212.808336 
L 91.094992 -211.770216 
L 91.854382 -215.325778 
L 92.613772 -214.295073 
L 93.373163 -217.987815 
L 94.132553 -215.770687 
L 94.891943 -218.595857 
L 95.651334 -218.588442 
L 96.410724 -219.485674 
L 97.170114 -224.824579 
L 97.929505 -223.634448 
L 98.688895 -218.443846 
L 99.448285 -221.710218 
L 100.207676 -222.451732 
L 100.967066 -224.372255 
L 101.726456 -222.889226 
L 102.485846 -220.812985 
L 103.245237 -219.778573 
L 104.004627 -224.216537 
L 104.764017 -224.231367 
L 105.523408 -220.223481 
L 106.282798 -224.22766 
L 107.042188 -225.269488 
L 107.801579 -224.672568 
L 108.560969 -227.931525 
L 109.320359 -228.528444 
L 110.07975 -229.421969 
L 110.83914 -229.269958 
L 111.59853 -231.791108 
L 112.357921 -229.414554 
L 113.117311 -228.083535 
L 113.876701 -227.92411 
L 114.636091 -232.53633 
L 115.395482 -227.345728 
L 116.154872 -227.345728 
L 116.914262 -226.745101 
L 117.673653 -230.159776 
L 118.433043 -223.63074 
L 119.192433 -224.079357 
L 119.951824 -222.448025 
L 120.711214 -223.34155 
L 121.470604 -217.998938 
L 122.229995 -214.587971 
L 122.989385 -213.998467 
L 123.748775 -214.880869 
L 124.508165 -214.591679 
L 125.267556 -212.363427 
L 126.026946 -210.439197 
L 126.786336 -210.431782 
L 127.545727 -210.431782 
L 128.305117 -207.918048 
L 129.064507 -207.317421 
L 129.823898 -203.910162 
L 130.583288 -200.947812 
L 131.342678 -202.27883 
L 132.102069 -194.867392 
L 132.861459 -193.680969 
L 133.620849 -196.053816 
L 134.38024 -192.19794 
L 135.13963 -189.973397 
L 135.89902 -188.783266 
L 136.65841 -186.558722 
L 137.417801 -184.630785 
L 138.177191 -185.227704 
L 138.936581 -184.931098 
L 139.695972 -182.706554 
L 140.455362 -181.668434 
L 141.214752 -177.512245 
L 141.974143 -175.439712 
L 142.733533 -172.173341 
L 143.492923 -171.435534 
L 144.252314 -169.94509 
L 145.011704 -165.796316 
L 145.771094 -163.720075 
L 146.530484 -161.050623 
L 147.289875 -162.681955 
L 148.049265 -158.681484 
L 148.808655 -154.3807 
L 149.568046 -154.669891 
L 150.327436 -155.711719 
L 151.086826 -153.932084 
L 151.846217 -148.441169 
L 152.605607 -144.440698 
L 153.364997 -143.547173 
L 154.124388 -142.516468 
L 154.883778 -138.953491 
L 155.643168 -136.428634 
L 156.402559 -135.245918 
L 157.161949 -132.131557 
L 157.921339 -130.945134 
L 158.680729 -127.241269 
L 159.44012 -127.979076 
L 160.19951 -127.385864 
L 160.9589 -127.092966 
L 161.718291 -127.827065 
L 162.477681 -125.602522 
L 163.237071 -121.902364 
L 163.996462 -120.419335 
L 164.755852 -117.898186 
L 165.515242 -116.263146 
L 166.274633 -115.669935 
L 167.034023 -113.152493 
L 167.793413 -110.186435 
L 168.552803 -113.879177 
L 169.312194 -111.669464 
L 170.071584 -111.072545 
L 170.830974 -109.44492 
L 171.590365 -107.661578 
L 172.349755 -106.178549 
L 173.109145 -107.36868 
L 173.868536 -104.398914 
L 174.627926 -101.581159 
L 175.387316 -97.580688 
L 176.146707 -99.356616 
L 176.906097 -96.987477 
L 177.665487 -95.649043 
L 178.424878 -95.059539 
L 179.184268 -94.318024 
L 179.943658 -95.352437 
L 180.703048 -94.603507 
L 181.462439 -93.428207 
L 182.221829 -92.534682 
L 182.981219 -92.386379 
L 183.74061 -90.165543 
L 184.5 -90.310138 
L 185.25939 -88.823402 
L 186.018781 -88.682514 
L 186.778171 -87.788989 
L 187.537561 -87.633271 
L 188.296952 -86.602566 
L 189.056342 -85.55703 
L 189.815732 -84.530033 
L 190.575122 -84.826639 
L 191.334513 -84.971234 
L 192.093903 -84.530033 
L 192.853293 -84.526325 
L 193.612684 -83.936821 
L 194.372074 -82.005176 
L 195.131464 -82.598388 
L 195.890855 -82.598388 
L 196.650245 -80.82246 
L 197.409635 -81.55656 
L 198.169026 -81.119066 
L 198.928416 -81.267369 
L 199.687806 -78.894523 
L 200.447197 -78.004705 
L 201.206587 -76.966585 
L 201.965977 -76.36225 
L 202.725367 -76.521676 
L 203.484758 -75.928464 
L 204.244148 -75.331545 
L 205.003538 -74.593738 
L 205.762929 -73.259012 
L 206.522319 -70.441257 
L 207.281709 -69.696035 
L 208.0411 -70.289247 
L 208.80049 -68.809925 
L 209.55988 -67.323189 
L 210.319271 -67.768097 
L 211.078661 -67.326896 
L 211.838051 -67.178593 
L 212.597441 -66.881987 
L 213.356832 -66.136765 
L 214.116222 -67.771805 
L 214.875612 -66.140473 
L 215.635003 -66.140473 
L 216.394393 -64.95405 
L 217.153783 -65.695564 
L 217.913174 -65.547261 
L 218.672564 -65.625315 
L 219.431954 -65.000882 
L 220.191345 -64.376449 
L 220.950735 -64.688665 
L 221.710125 -64.064232 
L 222.469516 -63.904221 
L 223.228906 -63.400989 
L 223.988296 -62.31513 
L 224.747686 -61.791708 
L 225.507077 -61.468931 
L 226.266467 -61.098174 
L 227.025857 -59.981268 
L 227.785248 -60.166647 
L 228.544638 -60.7027 
L 229.304028 -60.307225 
L 230.063419 -60.7027 
L 230.822809 -60.900437 
L 231.582199 -60.900437 
L 232.34159 -60.307225 
L 233.10098 -60.900437 
L 233.86037 -60.307225 
L 234.61976 -60.7027 
L 235.379151 -61.548787 
L 236.138541 -61.782649 
L 236.897931 -61.554491 
L 237.657322 -60.870016 
L 238.416712 -61.839689 
L 239.176102 -61.907099 
L 239.935493 -62.716024 
L 240.694883 -62.176741 
L 241.454273 -62.17 
L 242.213664 -64.064232 
L 242.973054 -65.250655 
L 243.732444 -64.360838 
L 244.491835 -65.250655 
L 245.251225 -64.360838 
L 246.010615 -64.360838 
L 246.770005 -62.877809 
L 247.529396 -62.284597 
L 248.288786 -61.098174 
L 249.048176 -60.208357 
L 249.807567 -59.911751 
L 250.566957 -59.911751 
L 251.326347 -59.311124 
L 252.085738 -60.43905 
L 252.845128 -60.35666 
L 253.604518 -61.468931 
L 254.363909 -61.468931 
L 255.123299 -61.468931 
L 255.882689 -61.945619 
L 256.642079 -61.521897 
L 257.40147 -62.581203 
L 258.16086 -62.581203 
L 258.92025 -61.580159 
L 259.679641 -60.603831 
L 260.439031 -61.580159 
L 261.198421 -62.074502 
L 261.957812 -61.592517 
L 262.717202 -60.109488 
L 263.476592 -58.626459 
L 264.235983 -59.615145 
L 264.995373 -58.132116 
L 265.754763 -57.14343 
L 266.514154 -57.637773 
L 267.273544 -58.132116 
L 268.032934 -59.911751 
L 268.792324 -59.911751 
L 269.551715 -59.318539 
L 270.311105 -59.911751 
L 271.070495 -59.318539 
L 271.829886 -57.538905 
L 272.589276 -57.538905 
L 273.348666 -56.945693 
L 274.108057 -58.725328 
L 274.867447 -58.725328 
L 275.626837 -58.132116 
L 276.386228 -57.538905 
L 277.145618 -57.538905 
L 277.905008 -57.538905 
L 278.664398 -59.615145 
L 279.423789 -58.132116 
L 280.183179 -56.649087 
L 280.942569 -55.166058 
L 281.70196 -55.166058 
L 282.46135 -53.683029 
L 283.22074 -53.683029 
L 283.980131 -53.683029 
L 284.739521 -52.2 
L 285.498911 -52.2 
L 286.258302 -55.166058 
L 287.017692 -55.166058 
L 287.777082 -55.166058 
L 288.536473 -55.166058 
L 289.295863 -55.166058 
L 290.055253 -58.132116 
L 290.814643 -55.166058 
L 291.574034 -55.166058 
L 292.333424 -55.166058 
L 293.092814 -55.166058 
L 293.852205 -55.166058 
L 294.611595 -55.166058 
L 295.370985 -55.166058 
L 296.130376 -55.166058 
L 296.889766 -55.166058 
L 297.649156 -55.166058 
L 298.408547 -55.166058 
L 299.167937 -55.166058 
L 299.927327 -55.166058 
L 300.686717 -55.166058 
L 300.686717 -55.166058 
L 300.686717 -55.166058 
L 299.927327 -55.166058 
L 299.167937 -55.166058 
L 298.408547 -55.166058 
L 297.649156 -55.166058 
L 296.889766 -55.166058 
L 296.130376 -55.166058 
L 295.370985 -58.132116 
L 294.611595 -58.132116 
L 293.852205 -58.132116 
L 293.092814 -61.098174 
L 292.333424 -61.098174 
L 291.574034 -61.098174 
L 290.814643 -64.064232 
L 290.055253 -64.064232 
L 289.295863 -64.064232 
L 288.536473 -67.03029 
L 287.777082 -67.03029 
L 287.017692 -67.03029 
L 286.258302 -67.03029 
L 285.498911 -69.996348 
L 284.739521 -72.962406 
L 283.980131 -68.513319 
L 283.22074 -69.996348 
L 282.46135 -71.479377 
L 281.70196 -72.962406 
L 280.942569 -72.962406 
L 280.183179 -71.479377 
L 279.423789 -71.479377 
L 278.664398 -74.445435 
L 277.905008 -71.775983 
L 277.145618 -71.775983 
L 276.386228 -74.14883 
L 275.626837 -75.928464 
L 274.867447 -75.943295 
L 274.108057 -74.16366 
L 273.348666 -74.742041 
L 272.589276 -73.570448 
L 271.829886 -75.335253 
L 271.070495 -81.860581 
L 270.311105 -85.41985 
L 269.551715 -93.131601 
L 268.792324 -91.351966 
L 268.032934 -86.606273 
L 267.273544 -85.33334 
L 266.514154 -90.264412 
L 265.754763 -91.759799 
L 264.995373 -94.243873 
L 264.235983 -102.153361 
L 263.476592 -100.175989 
L 262.717202 -100.151272 
L 261.957812 -104.130733 
L 261.198421 -104.600359 
L 260.439031 -104.637435 
L 259.679641 -100.645615 
L 258.92025 -104.106016 
L 258.16086 -106.577731 
L 257.40147 -107.072074 
L 256.642079 -101.775542 
L 255.882689 -104.339063 
L 255.123299 -104.84753 
L 254.363909 -104.476773 
L 253.604518 -107.072074 
L 252.845128 -103.744528 
L 252.085738 -96.69911 
L 251.326347 -96.105074 
L 250.566957 -98.1739 
L 249.807567 -105.292439 
L 249.048176 -109.15573 
L 248.288786 -111.23197 
L 247.529396 -112.129203 
L 246.770005 -115.087846 
L 246.010615 -111.521161 
L 245.251225 -109.452336 
L 244.491835 -110.045547 
L 243.732444 -109.741526 
L 242.973054 -112.410979 
L 242.213664 -109.63367 
L 241.454273 -106.404711 
L 240.694883 -107.75966 
L 239.935493 -108.292202 
L 239.176102 -106.39797 
L 238.416712 -108.555103 
L 237.657322 -104.625076 
L 236.897931 -104.220095 
L 236.138541 -109.924053 
L 235.379151 -109.924053 
L 234.61976 -105.396251 
L 233.86037 -104.610246 
L 233.10098 -102.227513 
L 232.34159 -101.644188 
L 231.582199 -104.012091 
L 230.822809 -103.413936 
L 230.063419 -102.430193 
L 229.304028 -103.819297 
L 228.544638 -104.407565 
L 227.785248 -98.178534 
L 227.025857 -93.914826 
L 226.266467 -93.173311 
L 225.507077 -91.685648 
L 224.747686 -91.282177 
L 223.988296 -91.112065 
L 223.228906 -88.45594 
L 222.469516 -88.889358 
L 221.710125 -89.35378 
L 220.950735 -88.729347 
L 220.191345 -89.361585 
L 219.431954 -91.074874 
L 218.672564 -91.547102 
L 217.913174 -90.910765 
L 217.153783 -90.758755 
L 216.394393 -95.211549 
L 215.635003 -95.211549 
L 214.875612 -94.61463 
L 214.116222 -93.131601 
L 213.356832 -92.838703 
L 212.597441 -92.390087 
L 211.838051 -90.907058 
L 211.078661 -91.945178 
L 210.319271 -89.724342 
L 209.55988 -90.165543 
L 208.80049 -91.796875 
L 208.0411 -91.648572 
L 207.281709 -92.241784 
L 206.522319 -94.025126 
L 205.762929 -96.24967 
L 205.003538 -97.13578 
L 204.244148 -97.432385 
L 203.484758 -99.360323 
L 202.725367 -102.919593 
L 201.965977 -100.550454 
L 201.206587 -100.99907 
L 200.447197 -100.105545 
L 199.687806 -103.512804 
L 198.928416 -105.592753 
L 198.169026 -104.406329 
L 197.409635 -107.36868 
L 196.650245 -108.121317 
L 195.890855 -106.775468 
L 195.131464 -109.44492 
L 194.372074 -109.900952 
L 193.612684 -111.817767 
L 192.853293 -113.597402 
L 192.093903 -114.046018 
L 191.334513 -113.007898 
L 190.575122 -113.152493 
L 189.815732 -114.642937 
L 189.056342 -114.049726 
L 188.296952 -112.859595 
L 187.537561 -116.118551 
L 186.778171 -117.60158 
L 186.018781 -118.205914 
L 185.25939 -119.533225 
L 184.5 -116.122259 
L 183.74061 -118.050196 
L 182.981219 -118.346802 
L 182.221829 -118.194792 
L 181.462439 -116.122259 
L 180.703048 -117.316097 
L 179.943658 -118.343095 
L 179.184268 -118.495105 
L 178.424878 -118.491398 
L 177.665487 -123.23709 
L 176.906097 -124.423514 
L 176.146707 -124.427221 
L 175.387316 -125.02414 
L 174.627926 -130.804246 
L 173.868536 -133.025082 
L 173.109145 -132.583881 
L 172.349755 -132.876779 
L 171.590365 -134.515526 
L 170.830974 -137.177563 
L 170.071584 -142.22357 
L 169.312194 -144.889314 
L 168.552803 -143.999497 
L 167.793413 -141.48947 
L 167.034023 -145.337931 
L 166.274633 -146.372343 
L 165.515242 -146.528061 
L 164.755852 -153.34258 
L 163.996462 -154.3807 
L 163.237071 -153.794904 
L 162.477681 -158.989213 
L 161.718291 -158.536889 
L 160.9589 -157.350466 
L 160.19951 -156.608951 
L 159.44012 -158.692607 
L 158.680729 -160.757725 
L 157.921339 -160.768848 
L 157.161949 -162.096159 
L 156.402559 -163.72749 
L 155.643168 -164.020389 
L 154.883778 -164.617308 
L 154.124388 -167.731669 
L 153.364997 -169.659607 
L 152.605607 -173.660077 
L 151.846217 -175.736318 
L 151.086826 -182.265353 
L 150.327436 -183.744675 
L 149.568046 -183.600079 
L 148.808655 -181.96504 
L 148.049265 -185.824623 
L 147.289875 -190.1217 
L 146.530484 -191.015225 
L 145.771094 -195.167706 
L 145.011704 -200.947812 
L 144.252314 -200.065409 
L 143.492923 -204.514496 
L 142.733533 -204.803687 
L 141.974143 -209.997996 
L 141.214752 -214.595386 
L 140.455362 -216.667919 
L 139.695972 -219.044473 
L 138.936581 -220.082594 
L 138.177191 -218.892463 
L 137.417801 -218.747867 
L 136.65841 -222.603743 
L 135.89902 -224.387085 
L 135.13963 -227.353143 
L 134.38024 -229.718575 
L 133.620849 -231.646512 
L 132.861459 -229.277374 
L 132.102069 -235.3615 
L 131.342678 -238.320143 
L 130.583288 -236.989124 
L 129.823898 -241.73111 
L 129.064507 -245.44239 
L 128.305117 -249.446568 
L 127.545727 -249.887769 
L 126.786336 -253.595342 
L 126.026946 -255.234089 
L 125.267556 -259.831479 
L 124.508165 -261.455396 
L 123.748775 -261.459103 
L 122.989385 -258.659886 
L 122.229995 -262.804952 
L 121.470604 -267.250332 
L 120.711214 -273.471639 
L 119.951824 -270.35357 
L 119.192433 -272.878427 
L 118.433043 -277.179211 
L 117.673653 -280.004381 
L 116.914262 -278.224747 
L 116.154872 -277.472109 
L 115.395482 -277.323806 
L 114.636091 -282.073207 
L 113.876701 -275.703597 
L 113.117311 -277.030908 
L 112.357921 -282.963024 
L 111.59853 -285.777072 
L 110.83914 -281.179682 
L 110.07975 -281.921196 
L 109.320359 -278.069029 
L 108.560969 -279.555765 
L 107.801579 -277.635243 
L 107.042188 -273.764537 
L 106.282798 -272.429811 
L 105.523408 -266.356807 
L 104.764017 -274.06485 
L 104.004627 -277.479524 
L 103.245237 -273.916547 
L 102.485846 -272.581821 
L 101.726456 -273.319628 
L 100.967066 -274.361456 
L 100.207676 -270.653883 
L 99.448285 -268.722238 
L 98.688895 -269.029967 
L 97.929505 -271.247095 
L 97.170114 -275.395869 
L 96.410724 -269.612055 
L 95.651334 -266.501402 
L 94.891943 -270.653883 
L 94.132553 -264.428869 
L 93.373163 -265.326102 
L 92.613772 -262.942132 
L 91.854382 -259.675761 
L 91.094992 -256.435343 
L 90.335602 -256.272209 
L 89.576211 -255.671583 
L 88.816821 -255.819886 
L 88.057431 -253.606465 
L 87.29804 -250.632992 
L 86.53865 -249.591164 
L 85.77926 -243.811058 
L 85.019869 -240.544687 
L 84.260479 -235.947297 
L 83.501089 -233.129541 
L 82.741698 -231.65022 
L 81.982308 -229.273666 
L 81.222918 -225.41779 
L 80.463527 -229.718575 
L 79.704137 -225.873822 
L 78.944747 -219.78228 
L 78.185357 -216.97194 
L 77.425966 -212.815751 
L 76.666576 -208.807865 
L 75.907186 -203.472668 
L 75.147795 -198.875278 
L 74.388405 -190.27371 
L 73.629015 -185.672613 
L 72.869624 -182.265353 
L 72.110234 -174.846501 
L 71.350844 -171.146343 
L 70.591453 -168.918092 
L 69.832063 -161.354644 
L 69.072673 -154.681013 
L 68.313283 -145.630829 
L 67.553892 -144.744719 
L 66.794502 -133.02879 
L 66.035112 -127.389572 
L 65.275721 -117.898186 
L 64.516331 -111.521161 
L 63.756941 -101.440271 
L 62.99755 -92.241784 
L 62.23816 -83.49562 
L 61.47877 -76.818282 
L 60.719379 -68.809925 
L 59.959989 -63.619324 
L 59.200599 -57.987521 
L 58.441208 -53.979635 
L 57.681818 -52.2 
z
" id="mcff816ea86" style="stroke:#ff7f0e;stroke-opacity:0.2;"/>
    </defs>
    <g clip-path="url(#pdaaa23dc79)">
     <use style="fill:#ff7f0e;fill-opacity:0.2;stroke:#ff7f0e;stroke-opacity:0.2;" x="0" xlink:href="#mcff816ea86" y="360"/>
    </g>
   </g>
   <g id="matplotlib.axis_1">
    <g id="xtick_1">
     <g id="line2d_1">
      <defs>
       <path d="M 0 0 
L 0 3.5 
" id="m8cfe000d5d" style="stroke:#000000;stroke-width:0.8;"/>
      </defs>
      <g>
       <use style="stroke:#000000;stroke-width:0.8;" x="57.681818" xlink:href="#m8cfe000d5d" y="320.4"/>
      </g>
     </g>
     <g id="text_1">
      <!-- 0 -->
      <defs>
       <path d="M 31.78125 66.40625 
Q 24.171875 66.40625 20.328125 58.90625 
Q 16.5 51.421875 16.5 36.375 
Q 16.5 21.390625 20.328125 13.890625 
Q 24.171875 6.390625 31.78125 6.390625 
Q 39.453125 6.390625 43.28125 13.890625 
Q 47.125 21.390625 47.125 36.375 
Q 47.125 51.421875 43.28125 58.90625 
Q 39.453125 66.40625 31.78125 66.40625 
z
M 31.78125 74.21875 
Q 44.046875 74.21875 50.515625 64.515625 
Q 56.984375 54.828125 56.984375 36.375 
Q 56.984375 17.96875 50.515625 8.265625 
Q 44.046875 -1.421875 31.78125 -1.421875 
Q 19.53125 -1.421875 13.0625 8.265625 
Q 6.59375 17.96875 6.59375 36.375 
Q 6.59375 54.828125 13.0625 64.515625 
Q 19.53125 74.21875 31.78125 74.21875 
z
" id="DejaVuSans-48"/>
      </defs>
      <g transform="translate(54.500568 334.998438)scale(0.1 -0.1)">
       <use xlink:href="#DejaVuSans-48"/>
      </g>
     </g>
    </g>
    <g id="xtick_2">
     <g id="line2d_2">
      <g>
       <use style="stroke:#000000;stroke-width:0.8;" x="95.651334" xlink:href="#m8cfe000d5d" y="320.4"/>
      </g>
     </g>
     <g id="text_2">
      <!-- 50 -->
      <defs>
       <path d="M 10.796875 72.90625 
L 49.515625 72.90625 
L 49.515625 64.59375 
L 19.828125 64.59375 
L 19.828125 46.734375 
Q 21.96875 47.46875 24.109375 47.828125 
Q 26.265625 48.1875 28.421875 48.1875 
Q 40.625 48.1875 47.75 41.5 
Q 54.890625 34.8125 54.890625 23.390625 
Q 54.890625 11.625 47.5625 5.09375 
Q 40.234375 -1.421875 26.90625 -1.421875 
Q 22.3125 -1.421875 17.546875 -0.640625 
Q 12.796875 0.140625 7.71875 1.703125 
L 7.71875 11.625 
Q 12.109375 9.234375 16.796875 8.0625 
Q 21.484375 6.890625 26.703125 6.890625 
Q 35.15625 6.890625 40.078125 11.328125 
Q 45.015625 15.765625 45.015625 23.390625 
Q 45.015625 31 40.078125 35.4375 
Q 35.15625 39.890625 26.703125 39.890625 
Q 22.75 39.890625 18.8125 39.015625 
Q 14.890625 38.140625 10.796875 36.28125 
z
" id="DejaVuSans-53"/>
      </defs>
      <g transform="translate(89.288834 334.998438)scale(0.1 -0.1)">
       <use xlink:href="#DejaVuSans-53"/>
       <use x="63.623047" xlink:href="#DejaVuSans-48"/>
      </g>
     </g>
    </g>
    <g id="xtick_3">
     <g id="line2d_3">
      <g>
       <use style="stroke:#000000;stroke-width:0.8;" x="133.620849" xlink:href="#m8cfe000d5d" y="320.4"/>
      </g>
     </g>
     <g id="text_3">
      <!-- 100 -->
      <defs>
       <path d="M 12.40625 8.296875 
L 28.515625 8.296875 
L 28.515625 63.921875 
L 10.984375 60.40625 
L 10.984375 69.390625 
L 28.421875 72.90625 
L 38.28125 72.90625 
L 38.28125 8.296875 
L 54.390625 8.296875 
L 54.390625 0 
L 12.40625 0 
z
" id="DejaVuSans-49"/>
      </defs>
      <g transform="translate(124.077099 334.998438)scale(0.1 -0.1)">
       <use xlink:href="#DejaVuSans-49"/>
       <use x="63.623047" xlink:href="#DejaVuSans-48"/>
       <use x="127.246094" xlink:href="#DejaVuSans-48"/>
      </g>
     </g>
    </g>
    <g id="xtick_4">
     <g id="line2d_4">
      <g>
       <use style="stroke:#000000;stroke-width:0.8;" x="171.590365" xlink:href="#m8cfe000d5d" y="320.4"/>
      </g>
     </g>
     <g id="text_4">
      <!-- 150 -->
      <g transform="translate(162.046615 334.998438)scale(0.1 -0.1)">
       <use xlink:href="#DejaVuSans-49"/>
       <use x="63.623047" xlink:href="#DejaVuSans-53"/>
       <use x="127.246094" xlink:href="#DejaVuSans-48"/>
      </g>
     </g>
    </g>
    <g id="xtick_5">
     <g id="line2d_5">
      <g>
       <use style="stroke:#000000;stroke-width:0.8;" x="209.55988" xlink:href="#m8cfe000d5d" y="320.4"/>
      </g>
     </g>
     <g id="text_5">
      <!-- 200 -->
      <defs>
       <path d="M 19.1875 8.296875 
L 53.609375 8.296875 
L 53.609375 0 
L 7.328125 0 
L 7.328125 8.296875 
Q 12.9375 14.109375 22.625 23.890625 
Q 32.328125 33.6875 34.8125 36.53125 
Q 39.546875 41.84375 41.421875 45.53125 
Q 43.3125 49.21875 43.3125 52.78125 
Q 43.3125 58.59375 39.234375 62.25 
Q 35.15625 65.921875 28.609375 65.921875 
Q 23.96875 65.921875 18.8125 64.3125 
Q 13.671875 62.703125 7.8125 59.421875 
L 7.8125 69.390625 
Q 13.765625 71.78125 18.9375 73 
Q 24.125 74.21875 28.421875 74.21875 
Q 39.75 74.21875 46.484375 68.546875 
Q 53.21875 62.890625 53.21875 53.421875 
Q 53.21875 48.921875 51.53125 44.890625 
Q 49.859375 40.875 45.40625 35.40625 
Q 44.1875 33.984375 37.640625 27.21875 
Q 31.109375 20.453125 19.1875 8.296875 
z
" id="DejaVuSans-50"/>
      </defs>
      <g transform="translate(200.01613 334.998438)scale(0.1 -0.1)">
       <use xlink:href="#DejaVuSans-50"/>
       <use x="63.623047" xlink:href="#DejaVuSans-48"/>
       <use x="127.246094" xlink:href="#DejaVuSans-48"/>
      </g>
     </g>
    </g>
    <g id="xtick_6">
     <g id="line2d_6">
      <g>
       <use style="stroke:#000000;stroke-width:0.8;" x="247.529396" xlink:href="#m8cfe000d5d" y="320.4"/>
      </g>
     </g>
     <g id="text_6">
      <!-- 250 -->
      <g transform="translate(237.985646 334.998438)scale(0.1 -0.1)">
       <use xlink:href="#DejaVuSans-50"/>
       <use x="63.623047" xlink:href="#DejaVuSans-53"/>
       <use x="127.246094" xlink:href="#DejaVuSans-48"/>
      </g>
     </g>
    </g>
    <g id="xtick_7">
     <g id="line2d_7">
      <g>
       <use style="stroke:#000000;stroke-width:0.8;" x="285.498911" xlink:href="#m8cfe000d5d" y="320.4"/>
      </g>
     </g>
     <g id="text_7">
      <!-- 300 -->
      <defs>
       <path d="M 40.578125 39.3125 
Q 47.65625 37.796875 51.625 33 
Q 55.609375 28.21875 55.609375 21.1875 
Q 55.609375 10.40625 48.1875 4.484375 
Q 40.765625 -1.421875 27.09375 -1.421875 
Q 22.515625 -1.421875 17.65625 -0.515625 
Q 12.796875 0.390625 7.625 2.203125 
L 7.625 11.71875 
Q 11.71875 9.328125 16.59375 8.109375 
Q 21.484375 6.890625 26.8125 6.890625 
Q 36.078125 6.890625 40.9375 10.546875 
Q 45.796875 14.203125 45.796875 21.1875 
Q 45.796875 27.640625 41.28125 31.265625 
Q 36.765625 34.90625 28.71875 34.90625 
L 20.21875 34.90625 
L 20.21875 43.015625 
L 29.109375 43.015625 
Q 36.375 43.015625 40.234375 45.921875 
Q 44.09375 48.828125 44.09375 54.296875 
Q 44.09375 59.90625 40.109375 62.90625 
Q 36.140625 65.921875 28.71875 65.921875 
Q 24.65625 65.921875 20.015625 65.03125 
Q 15.375 64.15625 9.8125 62.3125 
L 9.8125 71.09375 
Q 15.4375 72.65625 20.34375 73.4375 
Q 25.25 74.21875 29.59375 74.21875 
Q 40.828125 74.21875 47.359375 69.109375 
Q 53.90625 64.015625 53.90625 55.328125 
Q 53.90625 49.265625 50.4375 45.09375 
Q 46.96875 40.921875 40.578125 39.3125 
z
" id="DejaVuSans-51"/>
      </defs>
      <g transform="translate(275.955161 334.998438)scale(0.1 -0.1)">
       <use xlink:href="#DejaVuSans-51"/>
       <use x="63.623047" xlink:href="#DejaVuSans-48"/>
       <use x="127.246094" xlink:href="#DejaVuSans-48"/>
      </g>
     </g>
    </g>
    <g id="xtick_8">
     <g id="line2d_8">
      <g>
       <use style="stroke:#000000;stroke-width:0.8;" x="323.468427" xlink:href="#m8cfe000d5d" y="320.4"/>
      </g>
     </g>
     <g id="text_8">
      <!-- 350 -->
      <g transform="translate(313.924677 334.998438)scale(0.1 -0.1)">
       <use xlink:href="#DejaVuSans-51"/>
       <use x="63.623047" xlink:href="#DejaVuSans-53"/>
       <use x="127.246094" xlink:href="#DejaVuSans-48"/>
      </g>
     </g>
    </g>
    <g id="text_9">
     <!-- Temps -->
     <defs>
      <path d="M -0.296875 72.90625 
L 61.375 72.90625 
L 61.375 64.59375 
L 35.5 64.59375 
L 35.5 0 
L 25.59375 0 
L 25.59375 64.59375 
L -0.296875 64.59375 
z
" id="DejaVuSans-84"/>
      <path d="M 56.203125 29.59375 
L 56.203125 25.203125 
L 14.890625 25.203125 
Q 15.484375 15.921875 20.484375 11.0625 
Q 25.484375 6.203125 34.421875 6.203125 
Q 39.59375 6.203125 44.453125 7.46875 
Q 49.3125 8.734375 54.109375 11.28125 
L 54.109375 2.78125 
Q 49.265625 0.734375 44.1875 -0.34375 
Q 39.109375 -1.421875 33.890625 -1.421875 
Q 20.796875 -1.421875 13.15625 6.1875 
Q 5.515625 13.8125 5.515625 26.8125 
Q 5.515625 40.234375 12.765625 48.109375 
Q 20.015625 56 32.328125 56 
Q 43.359375 56 49.78125 48.890625 
Q 56.203125 41.796875 56.203125 29.59375 
z
M 47.21875 32.234375 
Q 47.125 39.59375 43.09375 43.984375 
Q 39.0625 48.390625 32.421875 48.390625 
Q 24.90625 48.390625 20.390625 44.140625 
Q 15.875 39.890625 15.1875 32.171875 
z
" id="DejaVuSans-101"/>
      <path d="M 52 44.1875 
Q 55.375 50.25 60.0625 53.125 
Q 64.75 56 71.09375 56 
Q 79.640625 56 84.28125 50.015625 
Q 88.921875 44.046875 88.921875 33.015625 
L 88.921875 0 
L 79.890625 0 
L 79.890625 32.71875 
Q 79.890625 40.578125 77.09375 44.375 
Q 74.3125 48.1875 68.609375 48.1875 
Q 61.625 48.1875 57.5625 43.546875 
Q 53.515625 38.921875 53.515625 30.90625 
L 53.515625 0 
L 44.484375 0 
L 44.484375 32.71875 
Q 44.484375 40.625 41.703125 44.40625 
Q 38.921875 48.1875 33.109375 48.1875 
Q 26.21875 48.1875 22.15625 43.53125 
Q 18.109375 38.875 18.109375 30.90625 
L 18.109375 0 
L 9.078125 0 
L 9.078125 54.6875 
L 18.109375 54.6875 
L 18.109375 46.1875 
Q 21.1875 51.21875 25.484375 53.609375 
Q 29.78125 56 35.6875 56 
Q 41.65625 56 45.828125 52.96875 
Q 50 49.953125 52 44.1875 
z
" id="DejaVuSans-109"/>
      <path d="M 18.109375 8.203125 
L 18.109375 -20.796875 
L 9.078125 -20.796875 
L 9.078125 54.6875 
L 18.109375 54.6875 
L 18.109375 46.390625 
Q 20.953125 51.265625 25.265625 53.625 
Q 29.59375 56 35.59375 56 
Q 45.5625 56 51.78125 48.09375 
Q 58.015625 40.1875 58.015625 27.296875 
Q 58.015625 14.40625 51.78125 6.484375 
Q 45.5625 -1.421875 35.59375 -1.421875 
Q 29.59375 -1.421875 25.265625 0.953125 
Q 20.953125 3.328125 18.109375 8.203125 
z
M 48.6875 27.296875 
Q 48.6875 37.203125 44.609375 42.84375 
Q 40.53125 48.484375 33.40625 48.484375 
Q 26.265625 48.484375 22.1875 42.84375 
Q 18.109375 37.203125 18.109375 27.296875 
Q 18.109375 17.390625 22.1875 11.75 
Q 26.265625 6.109375 33.40625 6.109375 
Q 40.53125 6.109375 44.609375 11.75 
Q 48.6875 17.390625 48.6875 27.296875 
z
" id="DejaVuSans-112"/>
      <path d="M 44.28125 53.078125 
L 44.28125 44.578125 
Q 40.484375 46.53125 36.375 47.5 
Q 32.28125 48.484375 27.875 48.484375 
Q 21.1875 48.484375 17.84375 46.4375 
Q 14.5 44.390625 14.5 40.28125 
Q 14.5 37.15625 16.890625 35.375 
Q 19.28125 33.59375 26.515625 31.984375 
L 29.59375 31.296875 
Q 39.15625 29.25 43.1875 25.515625 
Q 47.21875 21.78125 47.21875 15.09375 
Q 47.21875 7.46875 41.1875 3.015625 
Q 35.15625 -1.421875 24.609375 -1.421875 
Q 20.21875 -1.421875 15.453125 -0.5625 
Q 10.6875 0.296875 5.421875 2 
L 5.421875 11.28125 
Q 10.40625 8.6875 15.234375 7.390625 
Q 20.0625 6.109375 24.8125 6.109375 
Q 31.15625 6.109375 34.5625 8.28125 
Q 37.984375 10.453125 37.984375 14.40625 
Q 37.984375 18.0625 35.515625 20.015625 
Q 33.0625 21.96875 24.703125 23.78125 
L 21.578125 24.515625 
Q 13.234375 26.265625 9.515625 29.90625 
Q 5.8125 33.546875 5.8125 39.890625 
Q 5.8125 47.609375 11.28125 51.796875 
Q 16.75 56 26.8125 56 
Q 31.78125 56 36.171875 55.265625 
Q 40.578125 54.546875 44.28125 53.078125 
z
" id="DejaVuSans-115"/>
     </defs>
     <g transform="translate(167.733594 348.676562)scale(0.1 -0.1)">
      <use xlink:href="#DejaVuSans-84"/>
      <use x="60.818359" xlink:href="#DejaVuSans-101"/>
      <use x="122.341797" xlink:href="#DejaVuSans-109"/>
      <use x="219.753906" xlink:href="#DejaVuSans-112"/>
      <use x="283.230469" xlink:href="#DejaVuSans-115"/>
     </g>
    </g>
   </g>
   <g id="matplotlib.axis_2">
    <g id="ytick_1">
     <g id="line2d_9">
      <defs>
       <path d="M 0 0 
L -3.5 0 
" id="m40d162b9bc" style="stroke:#000000;stroke-width:0.8;"/>
      </defs>
      <g>
       <use style="stroke:#000000;stroke-width:0.8;" x="45" xlink:href="#m40d162b9bc" y="307.8"/>
      </g>
     </g>
     <g id="text_10">
      <!-- 0 -->
      <g transform="translate(31.6375 311.599219)scale(0.1 -0.1)">
       <use xlink:href="#DejaVuSans-48"/>
      </g>
     </g>
    </g>
    <g id="ytick_2">
     <g id="line2d_10">
      <g>
       <use style="stroke:#000000;stroke-width:0.8;" x="45" xlink:href="#m40d162b9bc" y="248.478839"/>
      </g>
     </g>
     <g id="text_11">
      <!-- 20 -->
      <g transform="translate(25.275 252.278058)scale(0.1 -0.1)">
       <use xlink:href="#DejaVuSans-50"/>
       <use x="63.623047" xlink:href="#DejaVuSans-48"/>
      </g>
     </g>
    </g>
    <g id="ytick_3">
     <g id="line2d_11">
      <g>
       <use style="stroke:#000000;stroke-width:0.8;" x="45" xlink:href="#m40d162b9bc" y="189.157678"/>
      </g>
     </g>
     <g id="text_12">
      <!-- 40 -->
      <defs>
       <path d="M 37.796875 64.3125 
L 12.890625 25.390625 
L 37.796875 25.390625 
z
M 35.203125 72.90625 
L 47.609375 72.90625 
L 47.609375 25.390625 
L 58.015625 25.390625 
L 58.015625 17.1875 
L 47.609375 17.1875 
L 47.609375 0 
L 37.796875 0 
L 37.796875 17.1875 
L 4.890625 17.1875 
L 4.890625 26.703125 
z
" id="DejaVuSans-52"/>
      </defs>
      <g transform="translate(25.275 192.956897)scale(0.1 -0.1)">
       <use xlink:href="#DejaVuSans-52"/>
       <use x="63.623047" xlink:href="#DejaVuSans-48"/>
      </g>
     </g>
    </g>
    <g id="ytick_4">
     <g id="line2d_12">
      <g>
       <use style="stroke:#000000;stroke-width:0.8;" x="45" xlink:href="#m40d162b9bc" y="129.836517"/>
      </g>
     </g>
     <g id="text_13">
      <!-- 60 -->
      <defs>
       <path d="M 33.015625 40.375 
Q 26.375 40.375 22.484375 35.828125 
Q 18.609375 31.296875 18.609375 23.390625 
Q 18.609375 15.53125 22.484375 10.953125 
Q 26.375 6.390625 33.015625 6.390625 
Q 39.65625 6.390625 43.53125 10.953125 
Q 47.40625 15.53125 47.40625 23.390625 
Q 47.40625 31.296875 43.53125 35.828125 
Q 39.65625 40.375 33.015625 40.375 
z
M 52.59375 71.296875 
L 52.59375 62.3125 
Q 48.875 64.0625 45.09375 64.984375 
Q 41.3125 65.921875 37.59375 65.921875 
Q 27.828125 65.921875 22.671875 59.328125 
Q 17.53125 52.734375 16.796875 39.40625 
Q 19.671875 43.65625 24.015625 45.921875 
Q 28.375 48.1875 33.59375 48.1875 
Q 44.578125 48.1875 50.953125 41.515625 
Q 57.328125 34.859375 57.328125 23.390625 
Q 57.328125 12.15625 50.6875 5.359375 
Q 44.046875 -1.421875 33.015625 -1.421875 
Q 20.359375 -1.421875 13.671875 8.265625 
Q 6.984375 17.96875 6.984375 36.375 
Q 6.984375 53.65625 15.1875 63.9375 
Q 23.390625 74.21875 37.203125 74.21875 
Q 40.921875 74.21875 44.703125 73.484375 
Q 48.484375 72.75 52.59375 71.296875 
z
" id="DejaVuSans-54"/>
      </defs>
      <g transform="translate(25.275 133.635735)scale(0.1 -0.1)">
       <use xlink:href="#DejaVuSans-54"/>
       <use x="63.623047" xlink:href="#DejaVuSans-48"/>
      </g>
     </g>
    </g>
    <g id="ytick_5">
     <g id="line2d_13">
      <g>
       <use style="stroke:#000000;stroke-width:0.8;" x="45" xlink:href="#m40d162b9bc" y="70.515356"/>
      </g>
     </g>
     <g id="text_14">
      <!-- 80 -->
      <defs>
       <path d="M 31.78125 34.625 
Q 24.75 34.625 20.71875 30.859375 
Q 16.703125 27.09375 16.703125 20.515625 
Q 16.703125 13.921875 20.71875 10.15625 
Q 24.75 6.390625 31.78125 6.390625 
Q 38.8125 6.390625 42.859375 10.171875 
Q 46.921875 13.96875 46.921875 20.515625 
Q 46.921875 27.09375 42.890625 30.859375 
Q 38.875 34.625 31.78125 34.625 
z
M 21.921875 38.8125 
Q 15.578125 40.375 12.03125 44.71875 
Q 8.5 49.078125 8.5 55.328125 
Q 8.5 64.0625 14.71875 69.140625 
Q 20.953125 74.21875 31.78125 74.21875 
Q 42.671875 74.21875 48.875 69.140625 
Q 55.078125 64.0625 55.078125 55.328125 
Q 55.078125 49.078125 51.53125 44.71875 
Q 48 40.375 41.703125 38.8125 
Q 48.828125 37.15625 52.796875 32.3125 
Q 56.78125 27.484375 56.78125 20.515625 
Q 56.78125 9.90625 50.3125 4.234375 
Q 43.84375 -1.421875 31.78125 -1.421875 
Q 19.734375 -1.421875 13.25 4.234375 
Q 6.78125 9.90625 6.78125 20.515625 
Q 6.78125 27.484375 10.78125 32.3125 
Q 14.796875 37.15625 21.921875 38.8125 
z
M 18.3125 54.390625 
Q 18.3125 48.734375 21.84375 45.5625 
Q 25.390625 42.390625 31.78125 42.390625 
Q 38.140625 42.390625 41.71875 45.5625 
Q 45.3125 48.734375 45.3125 54.390625 
Q 45.3125 60.0625 41.71875 63.234375 
Q 38.140625 66.40625 31.78125 66.40625 
Q 25.390625 66.40625 21.84375 63.234375 
Q 18.3125 60.0625 18.3125 54.390625 
z
" id="DejaVuSans-56"/>
      </defs>
      <g transform="translate(25.275 74.314574)scale(0.1 -0.1)">
       <use xlink:href="#DejaVuSans-56"/>
       <use x="63.623047" xlink:href="#DejaVuSans-48"/>
      </g>
     </g>
    </g>
    <g id="text_15">
     <!-- Nombre d'agents -->
     <defs>
      <path d="M 9.8125 72.90625 
L 23.09375 72.90625 
L 55.421875 11.921875 
L 55.421875 72.90625 
L 64.984375 72.90625 
L 64.984375 0 
L 51.703125 0 
L 19.390625 60.984375 
L 19.390625 0 
L 9.8125 0 
z
" id="DejaVuSans-78"/>
      <path d="M 30.609375 48.390625 
Q 23.390625 48.390625 19.1875 42.75 
Q 14.984375 37.109375 14.984375 27.296875 
Q 14.984375 17.484375 19.15625 11.84375 
Q 23.34375 6.203125 30.609375 6.203125 
Q 37.796875 6.203125 41.984375 11.859375 
Q 46.1875 17.53125 46.1875 27.296875 
Q 46.1875 37.015625 41.984375 42.703125 
Q 37.796875 48.390625 30.609375 48.390625 
z
M 30.609375 56 
Q 42.328125 56 49.015625 48.375 
Q 55.71875 40.765625 55.71875 27.296875 
Q 55.71875 13.875 49.015625 6.21875 
Q 42.328125 -1.421875 30.609375 -1.421875 
Q 18.84375 -1.421875 12.171875 6.21875 
Q 5.515625 13.875 5.515625 27.296875 
Q 5.515625 40.765625 12.171875 48.375 
Q 18.84375 56 30.609375 56 
z
" id="DejaVuSans-111"/>
      <path d="M 48.6875 27.296875 
Q 48.6875 37.203125 44.609375 42.84375 
Q 40.53125 48.484375 33.40625 48.484375 
Q 26.265625 48.484375 22.1875 42.84375 
Q 18.109375 37.203125 18.109375 27.296875 
Q 18.109375 17.390625 22.1875 11.75 
Q 26.265625 6.109375 33.40625 6.109375 
Q 40.53125 6.109375 44.609375 11.75 
Q 48.6875 17.390625 48.6875 27.296875 
z
M 18.109375 46.390625 
Q 20.953125 51.265625 25.265625 53.625 
Q 29.59375 56 35.59375 56 
Q 45.5625 56 51.78125 48.09375 
Q 58.015625 40.1875 58.015625 27.296875 
Q 58.015625 14.40625 51.78125 6.484375 
Q 45.5625 -1.421875 35.59375 -1.421875 
Q 29.59375 -1.421875 25.265625 0.953125 
Q 20.953125 3.328125 18.109375 8.203125 
L 18.109375 0 
L 9.078125 0 
L 9.078125 75.984375 
L 18.109375 75.984375 
z
" id="DejaVuSans-98"/>
      <path d="M 41.109375 46.296875 
Q 39.59375 47.171875 37.8125 47.578125 
Q 36.03125 48 33.890625 48 
Q 26.265625 48 22.1875 43.046875 
Q 18.109375 38.09375 18.109375 28.8125 
L 18.109375 0 
L 9.078125 0 
L 9.078125 54.6875 
L 18.109375 54.6875 
L 18.109375 46.1875 
Q 20.953125 51.171875 25.484375 53.578125 
Q 30.03125 56 36.53125 56 
Q 37.453125 56 38.578125 55.875 
Q 39.703125 55.765625 41.0625 55.515625 
z
" id="DejaVuSans-114"/>
      <path id="DejaVuSans-32"/>
      <path d="M 45.40625 46.390625 
L 45.40625 75.984375 
L 54.390625 75.984375 
L 54.390625 0 
L 45.40625 0 
L 45.40625 8.203125 
Q 42.578125 3.328125 38.25 0.953125 
Q 33.9375 -1.421875 27.875 -1.421875 
Q 17.96875 -1.421875 11.734375 6.484375 
Q 5.515625 14.40625 5.515625 27.296875 
Q 5.515625 40.1875 11.734375 48.09375 
Q 17.96875 56 27.875 56 
Q 33.9375 56 38.25 53.625 
Q 42.578125 51.265625 45.40625 46.390625 
z
M 14.796875 27.296875 
Q 14.796875 17.390625 18.875 11.75 
Q 22.953125 6.109375 30.078125 6.109375 
Q 37.203125 6.109375 41.296875 11.75 
Q 45.40625 17.390625 45.40625 27.296875 
Q 45.40625 37.203125 41.296875 42.84375 
Q 37.203125 48.484375 30.078125 48.484375 
Q 22.953125 48.484375 18.875 42.84375 
Q 14.796875 37.203125 14.796875 27.296875 
z
" id="DejaVuSans-100"/>
      <path d="M 17.921875 72.90625 
L 17.921875 45.796875 
L 9.625 45.796875 
L 9.625 72.90625 
z
" id="DejaVuSans-39"/>
      <path d="M 34.28125 27.484375 
Q 23.390625 27.484375 19.1875 25 
Q 14.984375 22.515625 14.984375 16.5 
Q 14.984375 11.71875 18.140625 8.90625 
Q 21.296875 6.109375 26.703125 6.109375 
Q 34.1875 6.109375 38.703125 11.40625 
Q 43.21875 16.703125 43.21875 25.484375 
L 43.21875 27.484375 
z
M 52.203125 31.203125 
L 52.203125 0 
L 43.21875 0 
L 43.21875 8.296875 
Q 40.140625 3.328125 35.546875 0.953125 
Q 30.953125 -1.421875 24.3125 -1.421875 
Q 15.921875 -1.421875 10.953125 3.296875 
Q 6 8.015625 6 15.921875 
Q 6 25.140625 12.171875 29.828125 
Q 18.359375 34.515625 30.609375 34.515625 
L 43.21875 34.515625 
L 43.21875 35.40625 
Q 43.21875 41.609375 39.140625 45 
Q 35.0625 48.390625 27.6875 48.390625 
Q 23 48.390625 18.546875 47.265625 
Q 14.109375 46.140625 10.015625 43.890625 
L 10.015625 52.203125 
Q 14.9375 54.109375 19.578125 55.046875 
Q 24.21875 56 28.609375 56 
Q 40.484375 56 46.34375 49.84375 
Q 52.203125 43.703125 52.203125 31.203125 
z
" id="DejaVuSans-97"/>
      <path d="M 45.40625 27.984375 
Q 45.40625 37.75 41.375 43.109375 
Q 37.359375 48.484375 30.078125 48.484375 
Q 22.859375 48.484375 18.828125 43.109375 
Q 14.796875 37.75 14.796875 27.984375 
Q 14.796875 18.265625 18.828125 12.890625 
Q 22.859375 7.515625 30.078125 7.515625 
Q 37.359375 7.515625 41.375 12.890625 
Q 45.40625 18.265625 45.40625 27.984375 
z
M 54.390625 6.78125 
Q 54.390625 -7.171875 48.1875 -13.984375 
Q 42 -20.796875 29.203125 -20.796875 
Q 24.46875 -20.796875 20.265625 -20.09375 
Q 16.0625 -19.390625 12.109375 -17.921875 
L 12.109375 -9.1875 
Q 16.0625 -11.328125 19.921875 -12.34375 
Q 23.78125 -13.375 27.78125 -13.375 
Q 36.625 -13.375 41.015625 -8.765625 
Q 45.40625 -4.15625 45.40625 5.171875 
L 45.40625 9.625 
Q 42.625 4.78125 38.28125 2.390625 
Q 33.9375 0 27.875 0 
Q 17.828125 0 11.671875 7.65625 
Q 5.515625 15.328125 5.515625 27.984375 
Q 5.515625 40.671875 11.671875 48.328125 
Q 17.828125 56 27.875 56 
Q 33.9375 56 38.28125 53.609375 
Q 42.625 51.21875 45.40625 46.390625 
L 45.40625 54.6875 
L 54.390625 54.6875 
z
" id="DejaVuSans-103"/>
      <path d="M 54.890625 33.015625 
L 54.890625 0 
L 45.90625 0 
L 45.90625 32.71875 
Q 45.90625 40.484375 42.875 44.328125 
Q 39.84375 48.1875 33.796875 48.1875 
Q 26.515625 48.1875 22.3125 43.546875 
Q 18.109375 38.921875 18.109375 30.90625 
L 18.109375 0 
L 9.078125 0 
L 9.078125 54.6875 
L 18.109375 54.6875 
L 18.109375 46.1875 
Q 21.34375 51.125 25.703125 53.5625 
Q 30.078125 56 35.796875 56 
Q 45.21875 56 50.046875 50.171875 
Q 54.890625 44.34375 54.890625 33.015625 
z
" id="DejaVuSans-110"/>
      <path d="M 18.3125 70.21875 
L 18.3125 54.6875 
L 36.8125 54.6875 
L 36.8125 47.703125 
L 18.3125 47.703125 
L 18.3125 18.015625 
Q 18.3125 11.328125 20.140625 9.421875 
Q 21.96875 7.515625 27.59375 7.515625 
L 36.8125 7.515625 
L 36.8125 0 
L 27.59375 0 
Q 17.1875 0 13.234375 3.875 
Q 9.28125 7.765625 9.28125 18.015625 
L 9.28125 47.703125 
L 2.6875 47.703125 
L 2.6875 54.6875 
L 9.28125 54.6875 
L 9.28125 70.21875 
z
" id="DejaVuSans-116"/>
     </defs>
     <g transform="translate(19.195312 224.960938)rotate(-90)scale(0.1 -0.1)">
      <use xlink:href="#DejaVuSans-78"/>
      <use x="74.804688" xlink:href="#DejaVuSans-111"/>
      <use x="135.986328" xlink:href="#DejaVuSans-109"/>
      <use x="233.398438" xlink:href="#DejaVuSans-98"/>
      <use x="296.875" xlink:href="#DejaVuSans-114"/>
      <use x="337.957031" xlink:href="#DejaVuSans-101"/>
      <use x="399.480469" xlink:href="#DejaVuSans-32"/>
      <use x="431.267578" xlink:href="#DejaVuSans-100"/>
      <use x="494.744141" xlink:href="#DejaVuSans-39"/>
      <use x="522.234375" xlink:href="#DejaVuSans-97"/>
      <use x="583.513672" xlink:href="#DejaVuSans-103"/>
      <use x="646.990234" xlink:href="#DejaVuSans-101"/>
      <use x="708.513672" xlink:href="#DejaVuSans-110"/>
      <use x="771.892578" xlink:href="#DejaVuSans-116"/>
      <use x="811.101562" xlink:href="#DejaVuSans-115"/>
     </g>
    </g>
   </g>
   <g id="line2d_14">
    <path clip-path="url(#pdaaa23dc79)" d="M 57.681818 292.96971 
L 58.441208 276.65639 
L 59.200599 249.813565 
L 59.959989 237.207818 
L 61.47877 218.521653 
L 62.23816 206.064209 
L 62.99755 199.093972 
L 66.035112 174.772296 
L 66.794502 166.912242 
L 67.553892 165.725819 
L 68.313283 160.090309 
L 69.072673 155.641222 
L 69.832063 154.158193 
L 70.591453 153.564981 
L 71.350844 150.005711 
L 72.110234 145.260019 
L 72.869624 141.25584 
L 73.629015 140.366023 
L 74.388405 138.438085 
L 75.147795 137.548268 
L 75.907186 139.327902 
L 77.425966 135.027118 
L 78.185357 135.027118 
L 78.944747 130.726334 
L 79.704137 131.319546 
L 80.463527 129.688214 
L 81.222918 125.980641 
L 81.982308 123.311189 
L 82.741698 122.717977 
L 84.260479 120.345131 
L 85.019869 122.273069 
L 85.77926 122.421372 
L 86.53865 122.273069 
L 87.29804 119.010405 
L 88.057431 114.857923 
L 88.816821 114.413015 
L 89.576211 112.336774 
L 90.335602 108.184293 
L 91.094992 108.184293 
L 91.854382 106.701264 
L 92.613772 110.408836 
L 93.373163 111.298654 
L 94.132553 108.184293 
L 94.891943 109.07411 
L 95.651334 106.404658 
L 97.170114 114.116409 
L 97.929505 113.819803 
L 98.688895 112.63338 
L 99.448285 113.819803 
L 100.207676 109.815625 
L 100.967066 104.773326 
L 102.485846 101.807268 
L 103.245237 100.027633 
L 104.004627 103.883509 
L 105.523408 94.540426 
L 106.282798 96.171758 
L 107.042188 92.464185 
L 107.801579 96.468364 
L 108.560969 97.061575 
L 109.320359 97.506484 
L 110.07975 98.84121 
L 110.83914 99.137816 
L 111.59853 103.290297 
L 112.357921 103.586903 
L 113.117311 105.959749 
L 113.876701 109.07411 
L 114.636091 115.154529 
L 115.395482 114.561318 
L 116.154872 118.417193 
L 116.914262 120.048525 
L 118.433043 130.429728 
L 119.192433 134.730512 
L 119.951824 135.027118 
L 121.470604 144.370201 
L 122.229995 144.963413 
L 122.989385 142.145658 
L 123.748775 145.556624 
L 124.508165 148.374379 
L 125.267556 150.747226 
L 126.026946 153.564981 
L 126.786336 155.641222 
L 127.545727 156.382736 
L 128.305117 159.6454 
L 129.064507 162.018247 
L 129.823898 162.759761 
L 130.583288 164.094487 
L 131.342678 166.319031 
L 132.102069 164.984305 
L 132.861459 165.429213 
L 134.38024 174.030782 
L 135.13963 175.958719 
L 135.89902 175.068902 
L 136.65841 175.958719 
L 138.177191 183.373865 
L 138.936581 188.119557 
L 139.695972 191.382221 
L 140.455362 193.310159 
L 141.214752 194.644885 
L 141.974143 198.500761 
L 142.733533 198.945669 
L 143.492923 200.873607 
L 144.252314 201.02191 
L 145.011704 203.543059 
L 145.771094 204.284574 
L 146.530484 204.432877 
L 148.049265 210.364993 
L 148.808655 211.25481 
L 150.327436 218.076744 
L 151.086826 219.263167 
L 151.846217 220.746196 
L 153.364997 224.453769 
L 154.124388 224.602072 
L 154.883778 225.343586 
L 155.643168 225.788495 
L 156.402559 227.864735 
L 157.161949 228.902856 
L 157.921339 230.682491 
L 158.680729 234.390063 
L 160.9589 240.470482 
L 161.718291 239.877271 
L 162.477681 240.915391 
L 163.237071 241.508602 
L 163.996462 244.178055 
L 164.755852 244.771266 
L 165.515242 244.178055 
L 166.274633 243.43654 
L 167.034023 244.919569 
L 167.793413 245.661084 
L 168.552803 246.105992 
L 169.312194 249.07205 
L 170.830974 251.296594 
L 171.590365 253.521138 
L 173.109145 256.19059 
L 173.868536 258.415133 
L 174.627926 258.711739 
L 175.387316 256.932104 
L 176.906097 260.639677 
L 177.665487 260.491374 
L 178.424878 259.008345 
L 179.184268 258.711739 
L 179.943658 260.639677 
L 180.703048 261.529494 
L 181.462439 260.046465 
L 182.221829 259.304951 
L 182.981219 259.898162 
L 183.74061 259.898162 
L 184.5 260.78798 
L 185.25939 262.271009 
L 186.018781 262.86422 
L 186.778171 264.643855 
L 187.537561 266.126884 
L 188.296952 267.165005 
L 189.056342 269.241245 
L 189.815732 269.98276 
L 192.093903 275.914876 
L 192.853293 276.359785 
L 193.612684 275.469967 
L 194.372074 276.063179 
L 195.131464 275.321664 
L 196.650245 278.436025 
L 197.409635 279.622448 
L 198.169026 280.512266 
L 198.928416 282.440204 
L 199.687806 283.181718 
L 200.447197 282.885112 
L 201.206587 283.181718 
L 202.725367 286.592685 
L 203.484758 286.296079 
L 204.244148 286.889291 
L 205.003538 287.037594 
L 205.762929 286.592685 
L 206.522319 286.592685 
L 207.281709 285.999473 
L 208.0411 285.999473 
L 208.80049 285.109656 
L 209.55988 285.554565 
L 210.319271 285.702867 
L 211.078661 287.037594 
L 211.838051 286.740988 
L 212.597441 287.779108 
L 213.356832 288.37232 
L 214.116222 290.003652 
L 214.875612 290.596863 
L 215.635003 290.44856 
L 216.394393 290.893469 
L 217.153783 290.745166 
L 217.913174 290.44856 
L 218.672564 288.754785 
L 219.431954 288.910893 
L 220.191345 288.754785 
L 221.710125 287.818135 
L 222.469516 287.505919 
L 223.228906 285.389784 
L 223.988296 284.071536 
L 224.747686 283.548114 
L 225.507077 283.330021 
L 226.266467 284.071536 
L 227.025857 283.144642 
L 227.785248 283.144642 
L 228.544638 282.885112 
L 229.304028 284.46701 
L 230.063419 286.444382 
L 231.582199 288.619491 
L 232.34159 288.817228 
L 233.10098 290.201389 
L 233.86037 290.7946 
L 234.61976 292.376498 
L 235.379151 291.144443 
L 236.138541 291.372602 
L 236.897931 291.372602 
L 237.657322 290.688127 
L 238.416712 287.531937 
L 239.176102 282.184044 
L 239.935493 282.453686 
L 240.694883 281.644761 
L 241.454273 283.262611 
L 242.213664 285.689385 
L 242.973054 282.291901 
L 243.732444 284.368141 
L 244.491835 285.554565 
L 245.251225 284.664747 
L 246.770005 286.444382 
L 247.529396 285.85117 
L 248.288786 285.85117 
L 249.048176 287.630805 
L 249.807567 288.224017 
L 250.566957 287.334199 
L 251.326347 288.520623 
L 252.845128 285.554565 
L 253.604518 287.408351 
L 254.363909 288.149865 
L 255.123299 289.632894 
L 255.882689 287.037594 
L 256.642079 288.732484 
L 257.40147 285.060222 
L 258.16086 283.577193 
L 258.92025 284.565879 
L 259.679641 286.048908 
L 260.439031 290.003652 
L 261.957812 293.958396 
L 262.717202 294.947082 
L 263.476592 295.441425 
L 264.235983 296.430111 
L 264.995373 295.935768 
L 265.754763 296.430111 
L 266.514154 296.430111 
L 267.273544 295.441425 
L 268.032934 290.596863 
L 268.792324 293.562921 
L 269.551715 294.749345 
L 270.311105 295.342556 
L 271.070495 297.122191 
L 271.829886 297.122191 
L 273.348666 298.308614 
L 274.108057 299.495037 
L 274.867447 299.495037 
L 276.386228 300.681461 
L 277.145618 300.088249 
L 277.905008 300.088249 
L 278.664398 299.64334 
L 279.423789 300.384855 
L 280.183179 301.867884 
L 280.942569 302.609398 
L 283.22074 302.609398 
L 283.980131 303.350913 
L 284.739521 301.867884 
L 287.017692 304.833942 
L 288.536473 304.833942 
L 289.295863 305.822628 
L 290.055253 306.316971 
L 294.611595 306.316971 
L 295.370985 307.8 
L 311.318182 307.8 
L 311.318182 307.8 
" style="fill:none;stroke:#1f77b4;stroke-linecap:square;stroke-width:1.5;"/>
   </g>
   <g id="line2d_15">
    <path clip-path="url(#pdaaa23dc79)" d="M 57.681818 307.8 
L 58.441208 306.613577 
L 59.200599 303.499216 
L 60.719379 294.304436 
L 61.47877 287.779108 
L 62.23816 282.885112 
L 62.99755 273.986938 
L 63.756941 267.609913 
L 64.516331 259.008345 
L 65.275721 252.038109 
L 66.035112 243.733146 
L 66.794502 237.949333 
L 67.553892 228.457947 
L 68.313283 225.491889 
L 69.072673 217.186926 
L 69.832063 210.661599 
L 70.591453 205.767603 
L 71.350844 202.801545 
L 72.869624 194.199976 
L 74.388405 184.560288 
L 75.147795 178.479869 
L 75.907186 173.882479 
L 76.666576 170.323209 
L 77.425966 166.022425 
L 78.185357 163.649578 
L 80.463527 153.713284 
L 81.222918 155.196313 
L 81.982308 154.00989 
L 82.741698 150.005711 
L 83.501089 147.187956 
L 84.260479 146.594745 
L 85.019869 140.069417 
L 85.77926 136.213541 
L 86.53865 133.395786 
L 87.29804 133.247483 
L 88.057431 131.171243 
L 88.816821 128.353488 
L 89.576211 127.315367 
L 90.335602 126.573853 
L 91.094992 126.42555 
L 91.854382 122.717977 
L 92.613772 120.493434 
L 93.373163 117.823982 
L 94.132553 119.603616 
L 94.891943 115.747741 
L 95.651334 116.340952 
L 96.410724 114.561318 
L 97.170114 111.298654 
L 97.929505 112.188471 
L 98.688895 116.19265 
L 99.448285 114.116409 
L 100.207676 112.929986 
L 100.967066 110.112231 
L 101.726456 110.705442 
L 102.485846 113.523197 
L 103.245237 113.374894 
L 104.004627 110.705442 
L 104.764017 112.188471 
L 105.523408 116.340952 
L 106.282798 112.63338 
L 107.042188 111.002048 
L 107.801579 107.146173 
L 108.560969 105.069932 
L 109.320359 105.959749 
L 110.07975 103.586903 
L 110.83914 104.773326 
L 111.59853 101.065754 
L 112.357921 103.883509 
L 113.117311 107.887687 
L 113.876701 108.03599 
L 114.636091 102.40048 
L 115.395482 106.404658 
L 116.154872 106.404658 
L 116.914262 105.366538 
L 117.673653 106.256355 
L 118.433043 109.667322 
L 119.192433 110.557139 
L 119.951824 112.781683 
L 120.711214 113.078289 
L 121.470604 117.23077 
L 122.229995 120.641737 
L 122.989385 123.162886 
L 123.748775 121.234948 
L 124.508165 121.976463 
L 125.267556 123.014583 
L 126.026946 126.42555 
L 127.545727 130.133122 
L 128.305117 131.764454 
L 129.064507 133.840695 
L 129.823898 137.69657 
L 130.583288 140.514326 
L 131.342678 139.624508 
L 132.102069 145.111716 
L 132.861459 148.522682 
L 133.620849 147.187956 
L 134.38024 148.967591 
L 135.89902 154.00989 
L 136.65841 155.492919 
L 137.417801 159.793703 
L 138.177191 158.458977 
L 138.936581 158.162371 
L 139.695972 160.535218 
L 140.455362 161.573338 
L 141.974143 167.357151 
L 142.733533 171.657935 
L 144.252314 174.47569 
L 146.530484 183.67047 
L 147.289875 183.225562 
L 148.049265 187.378043 
L 148.808655 190.640707 
L 149.568046 190.195798 
L 150.327436 190.344101 
L 151.086826 191.82713 
L 151.846217 197.314337 
L 152.605607 200.725304 
L 153.364997 203.394756 
L 154.124388 204.432877 
L 154.883778 207.992146 
L 155.643168 209.623478 
L 156.402559 210.661599 
L 157.161949 213.182748 
L 159.44012 216.000503 
L 160.19951 217.186926 
L 160.9589 218.076744 
L 161.718291 217.335229 
L 162.477681 218.076744 
L 163.237071 221.932619 
L 164.755852 224.453769 
L 165.515242 229.347764 
L 166.274633 229.051159 
L 167.034023 230.237582 
L 167.793413 233.351943 
L 168.552803 232.313822 
L 169.312194 232.017217 
L 170.071584 233.351943 
L 170.830974 236.614607 
L 172.349755 240.767088 
L 173.109145 240.322179 
L 173.868536 240.470482 
L 175.387316 248.330536 
L 176.146707 247.885627 
L 176.906097 249.220353 
L 177.665487 250.999988 
L 178.424878 253.372835 
L 179.184268 253.372835 
L 179.943658 252.63132 
L 181.462439 255.300772 
L 182.221829 254.410955 
L 183.74061 255.300772 
L 184.5 256.19059 
L 185.25939 255.893984 
L 186.018781 256.932104 
L 186.778171 257.377013 
L 187.537561 258.711739 
L 188.296952 260.343071 
L 189.056342 260.194768 
L 190.575122 261.381191 
L 191.334513 261.232889 
L 192.093903 260.343071 
L 194.372074 264.347249 
L 195.131464 264.940461 
L 195.890855 265.237067 
L 196.650245 265.681976 
L 197.409635 265.978581 
L 198.169026 267.313308 
L 198.928416 267.016702 
L 199.687806 269.389548 
L 200.447197 270.872577 
L 201.206587 271.614092 
L 201.965977 271.317486 
L 202.725367 270.724274 
L 203.484758 272.948818 
L 204.244148 274.283544 
L 205.003538 274.728453 
L 205.762929 275.914876 
L 206.522319 278.436025 
L 207.281709 280.363963 
L 208.0411 280.067357 
L 209.55988 281.698689 
L 210.319271 282.143598 
L 211.078661 281.550386 
L 211.838051 281.995295 
L 212.597441 281.995295 
L 213.356832 282.143598 
L 214.116222 281.402083 
L 214.875612 281.698689 
L 215.635003 282.143598 
L 216.394393 282.291901 
L 217.153783 283.181718 
L 217.913174 283.478324 
L 218.672564 283.915427 
L 219.431954 283.759319 
L 220.191345 284.695969 
L 221.710125 285.320402 
L 222.469516 286.100944 
L 223.228906 285.884127 
L 223.988296 285.816276 
L 224.747686 286.514172 
L 225.507077 285.183807 
L 226.266467 286.1107 
L 227.025857 286.481458 
L 227.785248 285.739943 
L 228.544638 283.08285 
L 229.304028 282.687375 
L 230.063419 282.885112 
L 230.822809 282.687375 
L 231.582199 282.094164 
L 232.34159 283.676061 
L 233.10098 283.280587 
L 233.86037 283.280587 
L 234.61976 282.687375 
L 235.379151 280.421003 
L 236.138541 280.649161 
L 236.897931 282.702586 
L 237.657322 283.615219 
L 238.416712 281.599821 
L 239.176102 281.375119 
L 239.935493 280.296553 
L 240.694883 280.835836 
L 241.454273 281.105477 
L 242.973054 276.359785 
L 243.732444 279.029237 
L 244.491835 277.249602 
L 245.251225 277.842814 
L 246.010615 277.546208 
L 246.770005 276.952996 
L 248.288786 279.919054 
L 249.048176 280.512266 
L 250.566957 284.961353 
L 251.326347 285.554565 
L 252.085738 284.73066 
L 252.845128 281.476235 
L 253.604518 279.993206 
L 254.363909 281.105477 
L 255.123299 281.105477 
L 256.642079 280.258032 
L 257.40147 278.139419 
L 258.16086 279.128105 
L 258.92025 281.105477 
L 259.679641 281.599821 
L 260.439031 280.116791 
L 261.957812 280.116791 
L 262.717202 282.588507 
L 263.476592 283.577193 
L 264.235983 282.588507 
L 264.995373 285.554565 
L 265.754763 288.02628 
L 266.514154 287.531937 
L 267.273544 289.509309 
L 268.032934 288.817228 
L 268.792324 287.630805 
L 269.551715 287.037594 
L 271.070495 290.596863 
L 271.829886 294.749345 
L 272.589276 294.749345 
L 273.348666 294.156133 
L 274.108057 294.156133 
L 274.867447 293.562921 
L 275.626837 293.562921 
L 276.386228 294.156133 
L 277.145618 295.342556 
L 277.905008 295.342556 
L 278.664398 292.228195 
L 279.423789 294.452739 
L 280.183179 295.935768 
L 281.70196 295.935768 
L 282.46135 297.418797 
L 283.980131 298.901826 
L 284.739521 296.924454 
L 286.258302 298.901826 
L 287.017692 298.901826 
L 288.536473 300.879198 
L 289.295863 300.879198 
L 290.055253 298.901826 
L 291.574034 301.867884 
L 293.092814 301.867884 
L 293.852205 303.350913 
L 295.370985 303.350913 
L 296.130376 304.833942 
L 311.318182 304.833942 
L 311.318182 304.833942 
" style="fill:none;stroke:#ff7f0e;stroke-linecap:square;stroke-width:1.5;"/>
   </g>
   <g id="patch_3">
    <path d="M 45 320.4 
L 45 43.2 
" style="fill:none;stroke:#000000;stroke-linecap:square;stroke-linejoin:miter;stroke-width:0.8;"/>
   </g>
   <g id="patch_4">
    <path d="M 324 320.4 
L 324 43.2 
" style="fill:none;stroke:#000000;stroke-linecap:square;stroke-linejoin:miter;stroke-width:0.8;"/>
   </g>
   <g id="patch_5">
    <path d="M 45 320.4 
L 324 320.4 
" style="fill:none;stroke:#000000;stroke-linecap:square;stroke-linejoin:miter;stroke-width:0.8;"/>
   </g>
   <g id="patch_6">
    <path d="M 45 43.2 
L 324 43.2 
" style="fill:none;stroke:#000000;stroke-linecap:square;stroke-linejoin:miter;stroke-width:0.8;"/>
   </g>
   <g id="legend_1">
    <g id="patch_7">
     <path d="M 199.496875 80.55625 
L 317 80.55625 
Q 319 80.55625 319 78.55625 
L 319 50.2 
Q 319 48.2 317 48.2 
L 199.496875 48.2 
Q 197.496875 48.2 197.496875 50.2 
L 197.496875 78.55625 
Q 197.496875 80.55625 199.496875 80.55625 
z
" style="fill:#ffffff;opacity:0.8;stroke:#cccccc;stroke-linejoin:miter;"/>
    </g>
    <g id="line2d_16">
     <path d="M 201.496875 56.298437 
L 221.496875 56.298437 
" style="fill:none;stroke:#1f77b4;stroke-linecap:square;stroke-width:1.5;"/>
    </g>
    <g id="line2d_17"/>
    <g id="text_16">
     <!-- Asymptomatique -->
     <defs>
      <path d="M 34.1875 63.1875 
L 20.796875 26.90625 
L 47.609375 26.90625 
z
M 28.609375 72.90625 
L 39.796875 72.90625 
L 67.578125 0 
L 57.328125 0 
L 50.6875 18.703125 
L 17.828125 18.703125 
L 11.1875 0 
L 0.78125 0 
z
" id="DejaVuSans-65"/>
      <path d="M 32.171875 -5.078125 
Q 28.375 -14.84375 24.75 -17.8125 
Q 21.140625 -20.796875 15.09375 -20.796875 
L 7.90625 -20.796875 
L 7.90625 -13.28125 
L 13.1875 -13.28125 
Q 16.890625 -13.28125 18.9375 -11.515625 
Q 21 -9.765625 23.484375 -3.21875 
L 25.09375 0.875 
L 2.984375 54.6875 
L 12.5 54.6875 
L 29.59375 11.921875 
L 46.6875 54.6875 
L 56.203125 54.6875 
z
" id="DejaVuSans-121"/>
      <path d="M 9.421875 54.6875 
L 18.40625 54.6875 
L 18.40625 0 
L 9.421875 0 
z
M 9.421875 75.984375 
L 18.40625 75.984375 
L 18.40625 64.59375 
L 9.421875 64.59375 
z
" id="DejaVuSans-105"/>
      <path d="M 14.796875 27.296875 
Q 14.796875 17.390625 18.875 11.75 
Q 22.953125 6.109375 30.078125 6.109375 
Q 37.203125 6.109375 41.296875 11.75 
Q 45.40625 17.390625 45.40625 27.296875 
Q 45.40625 37.203125 41.296875 42.84375 
Q 37.203125 48.484375 30.078125 48.484375 
Q 22.953125 48.484375 18.875 42.84375 
Q 14.796875 37.203125 14.796875 27.296875 
z
M 45.40625 8.203125 
Q 42.578125 3.328125 38.25 0.953125 
Q 33.9375 -1.421875 27.875 -1.421875 
Q 17.96875 -1.421875 11.734375 6.484375 
Q 5.515625 14.40625 5.515625 27.296875 
Q 5.515625 40.1875 11.734375 48.09375 
Q 17.96875 56 27.875 56 
Q 33.9375 56 38.25 53.625 
Q 42.578125 51.265625 45.40625 46.390625 
L 45.40625 54.6875 
L 54.390625 54.6875 
L 54.390625 -20.796875 
L 45.40625 -20.796875 
z
" id="DejaVuSans-113"/>
      <path d="M 8.5 21.578125 
L 8.5 54.6875 
L 17.484375 54.6875 
L 17.484375 21.921875 
Q 17.484375 14.15625 20.5 10.265625 
Q 23.53125 6.390625 29.59375 6.390625 
Q 36.859375 6.390625 41.078125 11.03125 
Q 45.3125 15.671875 45.3125 23.6875 
L 45.3125 54.6875 
L 54.296875 54.6875 
L 54.296875 0 
L 45.3125 0 
L 45.3125 8.40625 
Q 42.046875 3.421875 37.71875 1 
Q 33.40625 -1.421875 27.6875 -1.421875 
Q 18.265625 -1.421875 13.375 4.4375 
Q 8.5 10.296875 8.5 21.578125 
z
M 31.109375 56 
z
" id="DejaVuSans-117"/>
     </defs>
     <g transform="translate(229.496875 59.798437)scale(0.1 -0.1)">
      <use xlink:href="#DejaVuSans-65"/>
      <use x="68.408203" xlink:href="#DejaVuSans-115"/>
      <use x="120.507812" xlink:href="#DejaVuSans-121"/>
      <use x="179.6875" xlink:href="#DejaVuSans-109"/>
      <use x="277.099609" xlink:href="#DejaVuSans-112"/>
      <use x="340.576172" xlink:href="#DejaVuSans-116"/>
      <use x="379.785156" xlink:href="#DejaVuSans-111"/>
      <use x="440.966797" xlink:href="#DejaVuSans-109"/>
      <use x="538.378906" xlink:href="#DejaVuSans-97"/>
      <use x="599.658203" xlink:href="#DejaVuSans-116"/>
      <use x="638.867188" xlink:href="#DejaVuSans-105"/>
      <use x="666.650391" xlink:href="#DejaVuSans-113"/>
      <use x="730.126953" xlink:href="#DejaVuSans-117"/>
      <use x="793.505859" xlink:href="#DejaVuSans-101"/>
     </g>
    </g>
    <g id="line2d_18">
     <path d="M 201.496875 70.976562 
L 221.496875 70.976562 
" style="fill:none;stroke:#ff7f0e;stroke-linecap:square;stroke-width:1.5;"/>
    </g>
    <g id="line2d_19"/>
    <g id="text_17">
     <!-- Symptomatique -->
     <defs>
      <path d="M 53.515625 70.515625 
L 53.515625 60.890625 
Q 47.90625 63.578125 42.921875 64.890625 
Q 37.9375 66.21875 33.296875 66.21875 
Q 25.25 66.21875 20.875 63.09375 
Q 16.5 59.96875 16.5 54.203125 
Q 16.5 49.359375 19.40625 46.890625 
Q 22.3125 44.4375 30.421875 42.921875 
L 36.375 41.703125 
Q 47.40625 39.59375 52.65625 34.296875 
Q 57.90625 29 57.90625 20.125 
Q 57.90625 9.515625 50.796875 4.046875 
Q 43.703125 -1.421875 29.984375 -1.421875 
Q 24.8125 -1.421875 18.96875 -0.25 
Q 13.140625 0.921875 6.890625 3.21875 
L 6.890625 13.375 
Q 12.890625 10.015625 18.65625 8.296875 
Q 24.421875 6.59375 29.984375 6.59375 
Q 38.421875 6.59375 43.015625 9.90625 
Q 47.609375 13.234375 47.609375 19.390625 
Q 47.609375 24.75 44.3125 27.78125 
Q 41.015625 30.8125 33.5 32.328125 
L 27.484375 33.5 
Q 16.453125 35.6875 11.515625 40.375 
Q 6.59375 45.0625 6.59375 53.421875 
Q 6.59375 63.09375 13.40625 68.65625 
Q 20.21875 74.21875 32.171875 74.21875 
Q 37.3125 74.21875 42.625 73.28125 
Q 47.953125 72.359375 53.515625 70.515625 
z
" id="DejaVuSans-83"/>
     </defs>
     <g transform="translate(229.496875 74.476562)scale(0.1 -0.1)">
      <use xlink:href="#DejaVuSans-83"/>
      <use x="63.476562" xlink:href="#DejaVuSans-121"/>
      <use x="122.65625" xlink:href="#DejaVuSans-109"/>
      <use x="220.068359" xlink:href="#DejaVuSans-112"/>
      <use x="283.544922" xlink:href="#DejaVuSans-116"/>
      <use x="322.753906" xlink:href="#DejaVuSans-111"/>
      <use x="383.935547" xlink:href="#DejaVuSans-109"/>
      <use x="481.347656" xlink:href="#DejaVuSans-97"/>
      <use x="542.626953" xlink:href="#DejaVuSans-116"/>
      <use x="581.835938" xlink:href="#DejaVuSans-105"/>
      <use x="609.619141" xlink:href="#DejaVuSans-113"/>
      <use x="673.095703" xlink:href="#DejaVuSans-117"/>
      <use x="736.474609" xlink:href="#DejaVuSans-101"/>
     </g>
    </g>
   </g>
  </g>
 </g>
 <defs>
  <clipPath id="pdaaa23dc79">
   <rect height="277.2" width="279" x="45" y="43.2"/>
  </clipPath>
 </defs>
</svg>
