<?xml version="1.0" encoding="utf-8" standalone="no"?>
<!DOCTYPE svg PUBLIC "-//W3C//DTD SVG 1.1//EN"
  "http://www.w3.org/Graphics/SVG/1.1/DTD/svg11.dtd">
<!-- Created with matplotlib (https://matplotlib.org/) -->
<svg height="360pt" version="1.1" viewBox="0 0 360 360" width="360pt" xmlns="http://www.w3.org/2000/svg" xmlns:xlink="http://www.w3.org/1999/xlink">
 <defs>
  <style type="text/css">
*{stroke-linecap:butt;stroke-linejoin:round;}
  </style>
 </defs>
 <g id="figure_1">
  <g id="patch_1">
   <path d="M 0 360 
L 360 360 
L 360 0 
L 0 0 
z
" style="fill:#ffffff;"/>
  </g>
  <g id="axes_1">
   <g id="patch_2">
    <path d="M 45 320.4 
L 324 320.4 
L 324 43.2 
L 45 43.2 
z
" style="fill:#ffffff;"/>
   </g>
   <g id="PolyCollection_1">
    <defs>
     <path d="M 57.681818 -52.2 
L 57.681818 -52.2 
L 58.340614 -53.147948 
L 58.99941 -55.833799 
L 59.658205 -60.257554 
L 60.317001 -65.787248 
L 60.975797 -73.212837 
L 61.634593 -80.476485 
L 62.293388 -87.43205 
L 62.952184 -98.80742 
L 63.61098 -104.175173 
L 64.269776 -110.024799 
L 64.928571 -116.50244 
L 65.587367 -122.822091 
L 66.246163 -131.033686 
L 66.904959 -134.667485 
L 67.563754 -140.675102 
L 68.22255 -143.827028 
L 68.881346 -146.836761 
L 69.540142 -151.73449 
L 70.198937 -161.84593 
L 70.857733 -164.2079 
L 71.516529 -171.009423 
L 72.175325 -175.429228 
L 72.83412 -179.691042 
L 73.492916 -178.11508 
L 74.151712 -182.222852 
L 74.810508 -183.332741 
L 75.469303 -185.544618 
L 76.128099 -186.95864 
L 76.786895 -190.276456 
L 77.445691 -191.386345 
L 78.104486 -195.178135 
L 78.763282 -192.650275 
L 79.422078 -192.01831 
L 80.080874 -195.012244 
L 80.739669 -194.064297 
L 81.398465 -193.432332 
L 82.057261 -187.278572 
L 82.716057 -190.280406 
L 83.374852 -192.180251 
L 84.033648 -194.708111 
L 84.692444 -192.970207 
L 85.35124 -192.492284 
L 86.010035 -192.812216 
L 86.668831 -194.072196 
L 87.327627 -194.858203 
L 87.986423 -189.652391 
L 88.645218 -192.970207 
L 89.304014 -192.650275 
L 89.96281 -190.090817 
L 90.621606 -186.018592 
L 91.280401 -185.228636 
L 91.939197 -182.850868 
L 92.597993 -182.542785 
L 93.256789 -180.63504 
L 93.915584 -174.011257 
L 94.57438 -175.903202 
L 95.233176 -173.845366 
L 95.891972 -173.205501 
L 96.550767 -169.429511 
L 97.209563 -171.325406 
L 97.868359 -170.689491 
L 98.527155 -170.5315 
L 99.18595 -167.691607 
L 99.844746 -165.787812 
L 100.503542 -162.477895 
L 101.162338 -159.160079 
L 101.821133 -154.404542 
L 102.479929 -154.104359 
L 103.138725 -153.784427 
L 103.797521 -153.306503 
L 104.456316 -148.886698 
L 105.115112 -146.67482 
L 105.773908 -145.41484 
L 106.432704 -146.986853 
L 107.091499 -145.726873 
L 107.750295 -140.833094 
L 108.409091 -139.407222 
L 109.067887 -136.239498 
L 109.726682 -134.03552 
L 110.385478 -137.515277 
L 111.044274 -137.82731 
L 111.70307 -137.033404 
L 112.361865 -136.401439 
L 113.020661 -133.407505 
L 113.679457 -130.089688 
L 114.338253 -128.027902 
L 114.997048 -129.295782 
L 115.655844 -125.977966 
L 116.31464 -125.507942 
L 116.973436 -123.766088 
L 117.632231 -124.714036 
L 118.291027 -123.284215 
L 118.949823 -120.610213 
L 119.608619 -122.972182 
L 120.267414 -118.078403 
L 120.92621 -119.496375 
L 121.585006 -116.818423 
L 122.243802 -116.182508 
L 122.902597 -113.812639 
L 123.561393 -114.282663 
L 124.220189 -115.866526 
L 124.878985 -114.764537 
L 125.53778 -113.184624 
L 126.196576 -112.694851 
L 126.855372 -111.604712 
L 127.514168 -110.814755 
L 128.172963 -110.652814 
L 128.831759 -107.963013 
L 129.490555 -107.334998 
L 130.149351 -108.124954 
L 130.808146 -106.225109 
L 131.466942 -105.759035 
L 132.125738 -104.475356 
L 132.784534 -102.757201 
L 133.443329 -101.967245 
L 134.102125 -99.115503 
L 134.760921 -99.905459 
L 135.419717 -99.597376 
L 136.078512 -99.593426 
L 136.737308 -99.115503 
L 137.396104 -100.857356 
L 138.0549 -100.545324 
L 138.713695 -103.073184 
L 139.372491 -102.907293 
L 140.031287 -100.0674 
L 140.690083 -100.221442 
L 141.348878 -101.805304 
L 142.007674 -98.649429 
L 142.66647 -98.163606 
L 143.325266 -96.421752 
L 143.984061 -95.805586 
L 144.642857 -94.699647 
L 145.301653 -92.48382 
L 145.960449 -90.271942 
L 146.619244 -87.4281 
L 147.27804 -86.006179 
L 147.936836 -84.430216 
L 148.595632 -83.166286 
L 149.254427 -80.950458 
L 149.913223 -81.420482 
L 150.572019 -79.686528 
L 151.230815 -79.054563 
L 151.88961 -77.31271 
L 152.548406 -77.31666 
L 153.207202 -76.530653 
L 153.865998 -75.740697 
L 154.524793 -74.476767 
L 155.183589 -74.160784 
L 155.842385 -74.634758 
L 156.501181 -74.476767 
L 157.159976 -72.738863 
L 157.818772 -74.472817 
L 158.477568 -74.318776 
L 159.136364 -74.817695 
L 159.795159 -74.318776 
L 160.453955 -73.986162 
L 161.112751 -73.819856 
L 161.771547 -72.15679 
L 162.430342 -73.312621 
L 163.089138 -72.984165 
L 163.747934 -71.990483 
L 164.40673 -71.154793 
L 165.065525 -71.65787 
L 165.724321 -71.824177 
L 166.383117 -69.828498 
L 167.041913 -70.632313 
L 167.700708 -68.701309 
L 168.359504 -67.472488 
L 169.0183 -67.463711 
L 169.677096 -66.765916 
L 170.335891 -66.770305 
L 170.994687 -66.941462 
L 171.653483 -65.892575 
L 172.312279 -65.014846 
L 172.971074 -64.663754 
L 173.62987 -63.610479 
L 174.288666 -63.957182 
L 174.947462 -63.786025 
L 175.606257 -63.079453 
L 176.265053 -62.552816 
L 176.923849 -61.503929 
L 177.582645 -61.860701 
L 178.24144 -61.121859 
L 178.900236 -61.679475 
L 179.559032 -61.884864 
L 180.217828 -62.522095 
L 180.876623 -61.884864 
L 181.535419 -62.100785 
L 182.194215 -60.6262 
L 182.853011 -59.567659 
L 183.511806 -58.94096 
L 184.170602 -58.51965 
L 184.829398 -58.09834 
L 185.488194 -58.09834 
L 186.146989 -58.293948 
L 186.805785 -58.965411 
L 187.464581 -59.309606 
L 188.123377 -59.836244 
L 188.782172 -60.099563 
L 189.440968 -59.829661 
L 190.099764 -59.572925 
L 190.75856 -60.6262 
L 191.417355 -60.362881 
L 192.076151 -60.530448 
L 192.734947 -61.995458 
L 193.393743 -61.363493 
L 194.052538 -61.995458 
L 194.711334 -63.434934 
L 195.37013 -63.434934 
L 196.028926 -63.426156 
L 196.687721 -64.03947 
L 197.346517 -62.86441 
L 198.005313 -62.469432 
L 198.664109 -62.469432 
L 199.322904 -64.8393 
L 199.9817 -63.654366 
L 200.640496 -61.679475 
L 201.299292 -63.033686 
L 201.958087 -66.94585 
L 202.616883 -64.8393 
L 203.275679 -63.259388 
L 203.934475 -64.312663 
L 204.59327 -63.259388 
L 205.252066 -66.94585 
L 205.910862 -65.365938 
L 206.569658 -63.259388 
L 207.228453 -63.786025 
L 207.887249 -62.73275 
L 208.546045 -65.365938 
L 209.204841 -65.892575 
L 209.863636 -67.999125 
L 210.522432 -67.999125 
L 211.181228 -70.632313 
L 211.840024 -71.685588 
L 212.498819 -72.738863 
L 213.157615 -72.738863 
L 213.816411 -73.265501 
L 214.475207 -73.792138 
L 215.134002 -74.318776 
L 215.792798 -72.738863 
L 216.451594 -72.212226 
L 217.11039 -71.685588 
L 217.769185 -72.19906 
L 218.427981 -71.15895 
L 219.086777 -70.105675 
L 219.745573 -69.0524 
L 220.404368 -70.632313 
L 221.063164 -77.478601 
L 221.72196 -71.790916 
L 222.380756 -73.054846 
L 223.039551 -71.790916 
L 223.698347 -71.15895 
L 224.357143 -70.526985 
L 225.015939 -67.36716 
L 225.674734 -64.207335 
L 226.33353 -64.207335 
L 226.992326 -63.57537 
L 227.651122 -64.207335 
L 228.309917 -64.207335 
L 228.968713 -62.31144 
L 229.627509 -60.415545 
L 230.286305 -60.415545 
L 230.9451 -61.04751 
L 231.603896 -61.04751 
L 232.262692 -57.887685 
L 232.921488 -57.25572 
L 233.580283 -57.25572 
L 234.239079 -59.78358 
L 234.897875 -61.04751 
L 235.556671 -60.415545 
L 236.215466 -61.04751 
L 236.874262 -62.31144 
L 237.533058 -62.31144 
L 238.191854 -63.57537 
L 238.850649 -64.049344 
L 239.509445 -62.469432 
L 240.168241 -62.469432 
L 240.827037 -63.259388 
L 241.485832 -62.469432 
L 242.144628 -62.469432 
L 242.803424 -61.679475 
L 243.46222 -61.679475 
L 244.121015 -60.099563 
L 244.779811 -59.309606 
L 245.438607 -60.099563 
L 246.097403 -59.309606 
L 246.756198 -60.099563 
L 247.414994 -60.099563 
L 248.07379 -60.099563 
L 248.732586 -58.51965 
L 249.391381 -56.939738 
L 250.050177 -56.939738 
L 250.708973 -53.779913 
L 251.367769 -53.779913 
L 252.026564 -55.359825 
L 252.68536 -56.149781 
L 253.344156 -55.359825 
L 254.002952 -55.359825 
L 254.661747 -55.359825 
L 255.320543 -55.359825 
L 255.979339 -52.2 
L 256.638135 -52.2 
L 257.29693 -52.2 
L 257.955726 -52.2 
L 258.614522 -55.359825 
L 259.273318 -55.359825 
L 259.932113 -58.51965 
L 260.590909 -58.51965 
L 261.249705 -55.359825 
L 261.908501 -55.359825 
L 262.567296 -52.2 
L 263.226092 -55.359825 
L 263.884888 -55.359825 
L 264.543684 -58.51965 
L 265.202479 -58.51965 
L 265.861275 -55.359825 
L 266.520071 -55.359825 
L 267.178867 -55.359825 
L 267.837662 -55.359825 
L 268.496458 -55.359825 
L 269.155254 -55.359825 
L 269.81405 -55.359825 
L 270.472845 -55.359825 
L 271.131641 -55.359825 
L 271.790437 -55.359825 
L 272.449233 -55.359825 
L 273.108028 -55.359825 
L 273.766824 -55.359825 
L 274.42562 -55.359825 
L 275.084416 -55.359825 
L 275.743211 -55.359825 
L 276.402007 -55.359825 
L 277.060803 -55.359825 
L 277.719599 -55.359825 
L 278.378394 -55.359825 
L 279.03719 -55.359825 
L 279.695986 -55.359825 
L 280.354782 -55.359825 
L 281.013577 -55.359825 
L 281.672373 -52.2 
L 282.331169 -52.2 
L 282.989965 -52.2 
L 283.64876 -52.2 
L 284.307556 -52.2 
L 284.966352 -55.359825 
L 285.625148 -55.359825 
L 286.283943 -55.359825 
L 286.942739 -55.359825 
L 287.601535 -55.359825 
L 287.601535 -80.638426 
L 287.601535 -80.638426 
L 286.942739 -74.318776 
L 286.283943 -74.318776 
L 285.625148 -74.318776 
L 284.966352 -74.318776 
L 284.307556 -71.15895 
L 283.64876 -74.318776 
L 282.989965 -77.478601 
L 282.331169 -83.798251 
L 281.672373 -80.638426 
L 281.013577 -83.798251 
L 280.354782 -80.638426 
L 279.695986 -83.798251 
L 279.03719 -86.958076 
L 278.378394 -83.798251 
L 277.719599 -83.798251 
L 277.060803 -86.958076 
L 276.402007 -93.277726 
L 275.743211 -99.597376 
L 275.084416 -93.277726 
L 274.42562 -93.277726 
L 273.766824 -93.277726 
L 273.108028 -96.437551 
L 272.449233 -96.437551 
L 271.790437 -90.117901 
L 271.131641 -90.117901 
L 270.472845 -93.277726 
L 269.81405 -96.437551 
L 269.155254 -99.597376 
L 268.496458 -99.597376 
L 267.837662 -96.437551 
L 267.178867 -96.437551 
L 266.520071 -102.757201 
L 265.861275 -99.597376 
L 265.202479 -105.917026 
L 264.543684 -112.236677 
L 263.884888 -118.556327 
L 263.226092 -118.556327 
L 262.567296 -112.236677 
L 261.908501 -112.236677 
L 261.249705 -115.396502 
L 260.590909 -124.875977 
L 259.932113 -131.195627 
L 259.273318 -134.355452 
L 258.614522 -134.355452 
L 257.955726 -124.875977 
L 257.29693 -121.716152 
L 256.638135 -115.396502 
L 255.979339 -124.875977 
L 255.320543 -121.716152 
L 254.661747 -128.035802 
L 254.002952 -112.236677 
L 253.344156 -119.346283 
L 252.68536 -108.286895 
L 252.026564 -105.12707 
L 251.367769 -116.976414 
L 250.708973 -113.816589 
L 250.050177 -107.496939 
L 249.391381 -105.917026 
L 248.732586 -108.286895 
L 248.07379 -113.816589 
L 247.414994 -109.076851 
L 246.756198 -104.337114 
L 246.097403 -104.337114 
L 245.438607 -99.617125 
L 244.779811 -94.857639 
L 244.121015 -94.857639 
L 243.46222 -93.277726 
L 242.803424 -96.437551 
L 242.144628 -100.387332 
L 241.485832 -99.597376 
L 240.827037 -102.006743 
L 240.168241 -105.12707 
L 239.509445 -105.12707 
L 238.850649 -108.286895 
L 238.191854 -98.333446 
L 237.533058 -103.404965 
L 236.874262 -102.125236 
L 236.215466 -104.653096 
L 235.556671 -107.180956 
L 234.897875 -110.340781 
L 234.239079 -115.396502 
L 233.580283 -112.868642 
L 232.921488 -120.452222 
L 232.262692 -125.523741 
L 231.603896 -121.716152 
L 230.9451 -113.500607 
L 230.286305 -113.500607 
L 229.627509 -110.972747 
L 228.968713 -108.444886 
L 228.309917 -110.972747 
L 227.651122 -104.021131 
L 226.992326 -107.180956 
L 226.33353 -110.340781 
L 225.674734 -104.653096 
L 225.015939 -109.076851 
L 224.357143 -104.653096 
L 223.698347 -103.389166 
L 223.039551 -105.917026 
L 222.380756 -105.917026 
L 221.72196 -105.285061 
L 221.063164 -107.180956 
L 220.404368 -99.070739 
L 219.745573 -100.13718 
L 219.086777 -95.910914 
L 218.427981 -94.857639 
L 217.769185 -94.331001 
L 217.11039 -92.751089 
L 216.451594 -95.910914 
L 215.792798 -95.910914 
L 215.134002 -98.017464 
L 214.475207 -94.331001 
L 213.816411 -96.964189 
L 213.157615 -103.810476 
L 212.498819 -105.917026 
L 211.840024 -105.390389 
L 211.181228 -101.703926 
L 210.522432 -100.13718 
L 209.863636 -95.397442 
L 209.204841 -96.964189 
L 208.546045 -97.490826 
L 207.887249 -92.751089 
L 207.228453 -89.591263 
L 206.569658 -89.064626 
L 205.910862 -95.384276 
L 205.252066 -97.490826 
L 204.59327 -93.81753 
L 203.934475 -96.964189 
L 203.275679 -98.544101 
L 202.616883 -101.177289 
L 201.958087 -110.143292 
L 201.299292 -107.733926 
L 200.640496 -103.162054 
L 199.9817 -103.942136 
L 199.322904 -103.547158 
L 198.664109 -97.227507 
L 198.005313 -96.842404 
L 197.346517 -93.672704 
L 196.687721 -92.102666 
L 196.028926 -92.926634 
L 195.37013 -88.37122 
L 194.711334 -85.904801 
L 194.052538 -83.482268 
L 193.393743 -77.478601 
L 192.734947 -75.898688 
L 192.076151 -75.75506 
L 191.417355 -73.535402 
L 190.75856 -73.528819 
L 190.099764 -72.738863 
L 189.440968 -71.15895 
L 188.782172 -71.685588 
L 188.123377 -71.948907 
L 187.464581 -71.685588 
L 186.805785 -70.707547 
L 186.146989 -70.036084 
L 185.488194 -66.951117 
L 184.829398 -67.161772 
L 184.170602 -68.841745 
L 183.511806 -71.15895 
L 182.853011 -72.212226 
L 182.194215 -73.686811 
L 181.535419 -76.214671 
L 180.876623 -79.806338 
L 180.217828 -81.481046 
L 179.559032 -78.331753 
L 178.900236 -77.281112 
L 178.24144 -75.252783 
L 177.582645 -75.062264 
L 176.923849 -75.376439 
L 176.265053 -75.547596 
L 175.606257 -75.898688 
L 174.947462 -78.35633 
L 174.288666 -77.834081 
L 173.62987 -78.009627 
L 172.971074 -80.287334 
L 172.312279 -83.096067 
L 171.653483 -82.573819 
L 170.994687 -85.729255 
L 170.335891 -86.431438 
L 169.677096 -85.729255 
L 169.0183 -87.133622 
L 168.359504 -86.089124 
L 167.700708 -89.771198 
L 167.041913 -91.346722 
L 166.383117 -90.288365 
L 165.724321 -92.778806 
L 165.065525 -91.11574 
L 164.40673 -91.11574 
L 163.747934 -92.778806 
L 163.089138 -91.947273 
L 162.430342 -93.614497 
L 161.771547 -92.616657 
L 161.112751 -94.778643 
L 160.453955 -94.44603 
L 159.795159 -96.936471 
L 159.136364 -96.940629 
L 158.477568 -95.493553 
L 157.818772 -93.593709 
L 157.159976 -94.707547 
L 156.501181 -96.437551 
L 155.842385 -93.75565 
L 155.183589 -94.067682 
L 154.524793 -93.7517 
L 153.865998 -96.125518 
L 153.207202 -98.337396 
L 152.548406 -100.861306 
L 151.88961 -100.549274 
L 151.230815 -100.387332 
L 150.572019 -101.027197 
L 149.913223 -102.915193 
L 149.254427 -103.231175 
L 148.595632 -104.815037 
L 147.936836 -107.184906 
L 147.27804 -108.614727 
L 146.619244 -112.7225 
L 145.960449 -116.984314 
L 145.301653 -122.668049 
L 144.642857 -124.09392 
L 143.984061 -124.891776 
L 143.325266 -128.509776 
L 142.66647 -133.261363 
L 142.007674 -137.519227 
L 141.348878 -143.522895 
L 140.690083 -144.786825 
L 140.031287 -144.632783 
L 139.372491 -147.784709 
L 138.713695 -147.472676 
L 138.0549 -144.944816 
L 137.396104 -143.834927 
L 136.737308 -139.885146 
L 136.078512 -139.415122 
L 135.419717 -140.517111 
L 134.760921 -139.573113 
L 134.102125 -138.305233 
L 133.443329 -141.469008 
L 132.784534 -145.576781 
L 132.125738 -141.939032 
L 131.466942 -143.522895 
L 130.808146 -147.9427 
L 130.149351 -151.122274 
L 129.490555 -151.896431 
L 128.831759 -151.422457 
L 128.172963 -153.318352 
L 127.514168 -154.740274 
L 126.855372 -155.056256 
L 126.196576 -154.26235 
L 125.53778 -155.692171 
L 124.878985 -154.582282 
L 124.220189 -153.322302 
L 123.561393 -153.314403 
L 122.902597 -156.000254 
L 122.243802 -160.108027 
L 121.585006 -165.163747 
L 120.92621 -167.063591 
L 120.267414 -164.543631 
L 119.608619 -167.537565 
L 118.949823 -167.063591 
L 118.291027 -167.375624 
L 117.632231 -173.707124 
L 116.973436 -167.537565 
L 116.31464 -171.325406 
L 115.655844 -175.599069 
L 114.997048 -173.379292 
L 114.338253 -175.75311 
L 113.679457 -176.069093 
L 113.020661 -177.498914 
L 112.361865 -181.290704 
L 111.70307 -184.122697 
L 111.044274 -186.812498 
L 110.385478 -188.388461 
L 109.726682 -184.754662 
L 109.067887 -188.550402 
L 108.409091 -189.976273 
L 107.750295 -191.406094 
L 107.091499 -194.866102 
L 106.432704 -196.133982 
L 105.773908 -193.45998 
L 105.115112 -197.717845 
L 104.456316 -198.657893 
L 103.797521 -200.087713 
L 103.138725 -201.027761 
L 102.479929 -202.13765 
L 101.821133 -205.613457 
L 101.162338 -208.773283 
L 100.503542 -213.042996 
L 99.844746 -217.458852 
L 99.18595 -216.846636 
L 98.527155 -223.936493 
L 97.868359 -224.260375 
L 97.209563 -224.730399 
L 96.550767 -223.948343 
L 95.891972 -227.570292 
L 95.233176 -234.047933 
L 94.57438 -231.0461 
L 93.915584 -232.795853 
L 93.256789 -231.362082 
L 92.597993 -239.901509 
L 91.939197 -236.575793 
L 91.280401 -239.265595 
L 90.621606 -240.841557 
L 89.96281 -242.907293 
L 89.304014 -242.737452 
L 88.645218 -244.799238 
L 87.986423 -243.6854 
L 87.327627 -245.589195 
L 86.668831 -240.059501 
L 86.010035 -242.267428 
L 85.35124 -241.323431 
L 84.692444 -239.581577 
L 84.033648 -241.003498 
L 83.374852 -238.313697 
L 82.716057 -235.631796 
L 82.057261 -233.261927 
L 81.398465 -235.469855 
L 80.739669 -235.793737 
L 80.080874 -237.523741 
L 79.422078 -234.845789 
L 78.763282 -236.267711 
L 78.104486 -237.523741 
L 77.445691 -235.631796 
L 76.786895 -236.737735 
L 76.128099 -236.10577 
L 75.469303 -235.003781 
L 74.810508 -227.570292 
L 74.151712 -225.836338 
L 73.492916 -218.406799 
L 72.83412 -221.886557 
L 72.175325 -218.56874 
L 71.516529 -211.143151 
L 70.857733 -202.449683 
L 70.198937 -193.760164 
L 69.540142 -185.70261 
L 68.881346 -179.702892 
L 68.22255 -173.545183 
L 67.563754 -168.485513 
L 66.904959 -161.691889 
L 66.246163 -152.054422 
L 65.587367 -142.89093 
L 64.928571 -135.465341 
L 64.269776 -125.3539 
L 63.61098 -116.50639 
L 62.952184 -110.028749 
L 62.293388 -98.333446 
L 61.634593 -89.485936 
L 60.975797 -81.744365 
L 60.317001 -71.316942 
L 59.658205 -64.997292 
L 58.99941 -59.151615 
L 58.340614 -54.72786 
L 57.681818 -52.2 
z
" id="m2521bfb0c0" style="stroke:#1f77b4;stroke-opacity:0.2;"/>
    </defs>
    <g clip-path="url(#p6bc82464de)">
     <use style="fill:#1f77b4;fill-opacity:0.2;stroke:#1f77b4;stroke-opacity:0.2;" x="0" xlink:href="#m2521bfb0c0" y="360"/>
    </g>
   </g>
   <g id="PolyCollection_2">
    <defs>
     <path d="M 57.681818 -52.2 
L 57.681818 -52.2 
L 58.340614 -52.831965 
L 58.99941 -55.359825 
L 59.658205 -59.309606 
L 60.317001 -63.729412 
L 60.975797 -69.417097 
L 61.634593 -72.896854 
L 62.293388 -82.218338 
L 62.952184 -86.796135 
L 63.61098 -94.383665 
L 64.269776 -101.177289 
L 64.928571 -108.91886 
L 65.587367 -115.554493 
L 66.246163 -124.402003 
L 66.904959 -128.505826 
L 67.563754 -136.093356 
L 68.22255 -143.676936 
L 68.881346 -147.93875 
L 69.540142 -148.412724 
L 70.198937 -153.306503 
L 70.857733 -157.422175 
L 71.516529 -162.003922 
L 72.175325 -167.205784 
L 72.83412 -173.221301 
L 73.492916 -176.535167 
L 74.151712 -179.533051 
L 74.810508 -183.16685 
L 75.469303 -185.70261 
L 76.128099 -190.438398 
L 76.786895 -190.596389 
L 77.445691 -193.756214 
L 78.104486 -193.28619 
L 78.763282 -194.866102 
L 79.422078 -198.815884 
L 80.080874 -201.027761 
L 80.739669 -203.081648 
L 81.398465 -210.661278 
L 82.057261 -211.929158 
L 82.716057 -213.655212 
L 83.374852 -212.553223 
L 84.033648 -214.615009 
L 84.692444 -217.458852 
L 85.35124 -221.408633 
L 86.010035 -222.514572 
L 86.668831 -222.352631 
L 87.327627 -226.144421 
L 87.986423 -227.092368 
L 88.645218 -230.410185 
L 89.304014 -225.184624 
L 89.96281 -231.200141 
L 90.621606 -231.0303 
L 91.280401 -232.30608 
L 91.939197 -234.506108 
L 92.597993 -234.363916 
L 93.256789 -230.888108 
L 93.915584 -231.358132 
L 94.57438 -235.608097 
L 95.233176 -236.891776 
L 95.891972 -235.773988 
L 96.550767 -233.412019 
L 97.209563 -232.148089 
L 97.868359 -234.675949 
L 98.527155 -233.415968 
L 99.18595 -232.152038 
L 99.844746 -235.939879 
L 100.503542 -234.363916 
L 101.162338 -237.523741 
L 101.821133 -239.095754 
L 102.479929 -240.983749 
L 103.138725 -243.831542 
L 103.797521 -241.141741 
L 104.456316 -243.997433 
L 105.115112 -240.517675 
L 105.773908 -236.571844 
L 106.432704 -239.561828 
L 107.091499 -245.419354 
L 107.750295 -238.45194 
L 108.409091 -237.523741 
L 109.067887 -239.735619 
L 109.726682 -239.88571 
L 110.385478 -236.563944 
L 111.044274 -237.677782 
L 111.70307 -234.514008 
L 112.361865 -234.82604 
L 113.020661 -230.094202 
L 113.679457 -225.512456 
L 114.338253 -223.462519 
L 114.997048 -226.934377 
L 115.655844 -225.98643 
L 116.31464 -225.828438 
L 116.973436 -220.614727 
L 117.632231 -219.030865 
L 118.291027 -218.560841 
L 118.949823 -218.236959 
L 119.608619 -217.138919 
L 120.267414 -213.663112 
L 120.92621 -212.241191 
L 121.585006 -211.297193 
L 122.243802 -204.025645 
L 122.902597 -203.081648 
L 123.561393 -204.029595 
L 124.220189 -201.817718 
L 124.878985 -200.553788 
L 125.53778 -198.33401 
L 126.196576 -196.122133 
L 126.855372 -192.492284 
L 127.514168 -193.124249 
L 128.172963 -195.020144 
L 128.831759 -190.75833 
L 129.490555 -189.4944 
L 130.149351 -187.440513 
L 130.808146 -183.328791 
L 131.466942 -179.856933 
L 132.125738 -177.641106 
L 132.784534 -177.803047 
L 133.443329 -171.467598 
L 134.102125 -170.377458 
L 134.760921 -168.477613 
L 135.419717 -169.899534 
L 136.078512 -165.795712 
L 136.737308 -161.368007 
L 137.396104 -163.098011 
L 138.0549 -160.724192 
L 138.713695 -160.420059 
L 139.372491 -155.842263 
L 140.031287 -150.944534 
L 140.690083 -147.622768 
L 141.348878 -147.152744 
L 142.007674 -144.620934 
L 142.66647 -141.145126 
L 143.325266 -140.201129 
L 143.984061 -136.251347 
L 144.642857 -136.247397 
L 145.301653 -133.407505 
L 145.960449 -133.079673 
L 146.619244 -132.933531 
L 147.27804 -130.24768 
L 147.936836 -131.669601 
L 148.595632 -129.453773 
L 149.254427 -124.875977 
L 149.913223 -125.500042 
L 150.572019 -122.976132 
L 151.230815 -120.132289 
L 151.88961 -119.342333 
L 152.548406 -117.920412 
L 153.207202 -115.388602 
L 153.865998 -116.340499 
L 154.524793 -114.756637 
L 155.183589 -115.550543 
L 155.842385 -114.448554 
L 156.501181 -110.810805 
L 157.159976 -109.862858 
L 157.818772 -111.604712 
L 158.477568 -108.282945 
L 159.136364 -104.649147 
L 159.795159 -101.173339 
L 160.453955 -102.441219 
L 161.112751 -99.597376 
L 161.771547 -99.913359 
L 162.430342 -96.437551 
L 163.089138 -97.223558 
L 163.747934 -98.329496 
L 164.40673 -97.223558 
L 165.065525 -95.01563 
L 165.724321 -96.27166 
L 166.383117 -95.331612 
L 167.041913 -93.273776 
L 167.700708 -93.593709 
L 168.359504 -92.171787 
L 169.0183 -90.591875 
L 169.677096 -90.113951 
L 170.335891 -89.95596 
L 170.994687 -88.534039 
L 171.653483 -86.958076 
L 172.312279 -86.16812 
L 172.971074 -86.484102 
L 173.62987 -86.16417 
L 174.288666 -88.064015 
L 174.947462 -85.844238 
L 175.606257 -86.476203 
L 176.265053 -84.272225 
L 176.923849 -84.106334 
L 177.582645 -83.798251 
L 178.24144 -82.692312 
L 178.900236 -83.320327 
L 179.559032 -82.214388 
L 180.217828 -83.312428 
L 180.876623 -80.638426 
L 181.535419 -79.370546 
L 182.194215 -78.734631 
L 182.853011 -79.204655 
L 183.511806 -78.742531 
L 184.170602 -78.110566 
L 184.829398 -77.154719 
L 185.488194 -76.846636 
L 186.146989 -74.792749 
L 186.805785 -72.264889 
L 187.464581 -71.948907 
L 188.123377 -71.316942 
L 188.782172 -69.263055 
L 189.440968 -69.417097 
L 190.099764 -68.63109 
L 190.75856 -68.947073 
L 191.417355 -68.627141 
L 192.076151 -67.209169 
L 192.734947 -67.999125 
L 193.393743 -68.785132 
L 194.052538 -67.683143 
L 194.711334 -67.363211 
L 195.37013 -66.731246 
L 196.028926 -66.893187 
L 196.687721 -66.415263 
L 197.346517 -66.668673 
L 198.005313 -65.666676 
L 198.664109 -65.500369 
L 199.322904 -64.502529 
L 199.9817 -65.171913 
L 200.640496 -64.835143 
L 201.299292 -63.434934 
L 201.958087 -63.34303 
L 202.616883 -62.051219 
L 203.275679 -63.061899 
L 203.934475 -61.481986 
L 204.59327 -60.69203 
L 205.252066 -60.69203 
L 205.910862 -60.836855 
L 206.569658 -61.252899 
L 207.228453 -61.46882 
L 207.887249 -61.679475 
L 208.546045 -61.46882 
L 209.204841 -61.04751 
L 209.863636 -61.042244 
L 210.522432 -60.415545 
L 211.181228 -61.042244 
L 211.840024 -62.408666 
L 212.498819 -61.922539 
L 213.157615 -61.922539 
L 213.816411 -61.679475 
L 214.475207 -61.942794 
L 215.134002 -62.534064 
L 215.792798 -63.115759 
L 216.451594 -62.828503 
L 217.11039 -62.541246 
L 217.769185 -64.264787 
L 218.427981 -66.735195 
L 219.086777 -65.155283 
L 219.745573 -65.471265 
L 220.404368 -65.147383 
L 221.063164 -64.523318 
L 221.72196 -64.523318 
L 222.380756 -63.251488 
L 223.039551 -61.987558 
L 223.698347 -60.731528 
L 224.357143 -61.039611 
L 225.015939 -60.099563 
L 225.674734 -59.78358 
L 226.33353 -61.328384 
L 226.992326 -61.284497 
L 227.651122 -62.074453 
L 228.309917 -62.074453 
L 228.968713 -61.679475 
L 229.627509 -63.022401 
L 230.286305 -63.033686 
L 230.9451 -63.259388 
L 231.603896 -63.259388 
L 232.262692 -61.152838 
L 232.921488 -61.152838 
L 233.580283 -61.679475 
L 234.239079 -62.73275 
L 234.897875 -61.152838 
L 235.556671 -60.599868 
L 236.215466 -58.506484 
L 236.874262 -59.572925 
L 237.533058 -59.572925 
L 238.191854 -57.993013 
L 238.850649 -57.466375 
L 239.509445 -58.51965 
L 240.168241 -59.151615 
L 240.827037 -60.415545 
L 241.485832 -60.415545 
L 242.144628 -60.415545 
L 242.803424 -59.78358 
L 243.46222 -57.887685 
L 244.121015 -58.51965 
L 244.779811 -57.25572 
L 245.438607 -59.151615 
L 246.097403 -59.151615 
L 246.756198 -59.151615 
L 247.414994 -57.887685 
L 248.07379 -57.887685 
L 248.732586 -57.887685 
L 249.391381 -60.099563 
L 250.050177 -58.51965 
L 250.708973 -56.939738 
L 251.367769 -55.359825 
L 252.026564 -55.359825 
L 252.68536 -53.779913 
L 253.344156 -53.779913 
L 254.002952 -53.779913 
L 254.661747 -52.2 
L 255.320543 -52.2 
L 255.979339 -55.359825 
L 256.638135 -55.359825 
L 257.29693 -55.359825 
L 257.955726 -55.359825 
L 258.614522 -55.359825 
L 259.273318 -58.51965 
L 259.932113 -55.359825 
L 260.590909 -55.359825 
L 261.249705 -55.359825 
L 261.908501 -55.359825 
L 262.567296 -55.359825 
L 263.226092 -55.359825 
L 263.884888 -55.359825 
L 264.543684 -55.359825 
L 265.202479 -55.359825 
L 265.861275 -55.359825 
L 266.520071 -55.359825 
L 267.178867 -55.359825 
L 267.837662 -55.359825 
L 268.496458 -55.359825 
L 268.496458 -55.359825 
L 268.496458 -55.359825 
L 267.837662 -55.359825 
L 267.178867 -55.359825 
L 266.520071 -55.359825 
L 265.861275 -55.359825 
L 265.202479 -55.359825 
L 264.543684 -55.359825 
L 263.884888 -58.51965 
L 263.226092 -58.51965 
L 262.567296 -58.51965 
L 261.908501 -61.679475 
L 261.249705 -61.679475 
L 260.590909 -61.679475 
L 259.932113 -64.8393 
L 259.273318 -64.8393 
L 258.614522 -64.8393 
L 257.955726 -67.999125 
L 257.29693 -67.999125 
L 256.638135 -67.999125 
L 255.979339 -67.999125 
L 255.320543 -71.15895 
L 254.661747 -74.318776 
L 254.002952 -69.579038 
L 253.344156 -71.15895 
L 252.68536 -72.738863 
L 252.026564 -74.318776 
L 251.367769 -74.318776 
L 250.708973 -72.738863 
L 250.050177 -72.738863 
L 249.391381 -75.898688 
L 248.732586 -75.582706 
L 248.07379 -73.054846 
L 247.414994 -75.582706 
L 246.756198 -77.478601 
L 246.097403 -77.478601 
L 245.438607 -75.582706 
L 244.779811 -76.214671 
L 244.121015 -75.598505 
L 243.46222 -77.478601 
L 242.803424 -83.798251 
L 242.144628 -88.853971 
L 241.485832 -95.805586 
L 240.827037 -93.277726 
L 240.168241 -87.590041 
L 239.509445 -87.484713 
L 238.850649 -94.344167 
L 238.191854 -94.857639 
L 237.533058 -98.017464 
L 236.874262 -104.863751 
L 236.215466 -102.757201 
L 235.556671 -103.283839 
L 234.897875 -106.45683 
L 234.239079 -108.023576 
L 233.580283 -108.023576 
L 232.921488 -103.823642 
L 232.262692 -105.930192 
L 231.603896 -110.130126 
L 230.9451 -112.236677 
L 230.286305 -107.282522 
L 229.627509 -107.271237 
L 228.968713 -106.706983 
L 228.309917 -104.741966 
L 227.651122 -109.076851 
L 226.992326 -104.346988 
L 226.33353 -98.895193 
L 225.674734 -99.913359 
L 225.015939 -101.501171 
L 224.357143 -106.864974 
L 223.698347 -114.764537 
L 223.039551 -114.764537 
L 222.380756 -116.660432 
L 221.72196 -119.188292 
L 221.063164 -114.140471 
L 220.404368 -113.500607 
L 219.745573 -116.028467 
L 219.086777 -112.560559 
L 218.427981 -114.456454 
L 217.769185 -113.680142 
L 217.11039 -109.076851 
L 216.451594 -111.374906 
L 215.792798 -112.818372 
L 215.134002 -109.952985 
L 214.475207 -111.189984 
L 213.816411 -107.381484 
L 213.157615 -108.104598 
L 212.498819 -112.72888 
L 211.840024 -112.965867 
L 211.181228 -109.082118 
L 210.522432 -109.303306 
L 209.863636 -106.132948 
L 209.204841 -103.605088 
L 208.546045 -106.338336 
L 207.887249 -106.343603 
L 207.228453 -105.074406 
L 206.569658 -107.391611 
L 205.910862 -106.127681 
L 205.252066 -99.80474 
L 204.59327 -94.670024 
L 203.934475 -95.850021 
L 203.275679 -96.842404 
L 202.616883 -93.277726 
L 201.958087 -93.091854 
L 201.299292 -90.468993 
L 200.640496 -91.282047 
L 199.9817 -89.452675 
L 199.322904 -90.787285 
L 198.664109 -91.119898 
L 198.005313 -96.608015 
L 197.346517 -92.616657 
L 196.687721 -93.593709 
L 196.028926 -95.335562 
L 195.37013 -96.28351 
L 194.711334 -98.337396 
L 194.052538 -97.859472 
L 193.393743 -97.239357 
L 192.734947 -94.703597 
L 192.076151 -95.01563 
L 191.417355 -93.601608 
L 190.75856 -95.339512 
L 190.099764 -92.329779 
L 189.440968 -92.811652 
L 188.782172 -94.237523 
L 188.123377 -93.75565 
L 187.464581 -93.593709 
L 186.805785 -95.963577 
L 186.146989 -99.763267 
L 185.488194 -99.439385 
L 184.829398 -100.229341 
L 184.170602 -101.493271 
L 183.511806 -106.706983 
L 182.853011 -104.495105 
L 182.194215 -102.915193 
L 181.535419 -103.86709 
L 180.876623 -106.082917 
L 180.217828 -108.294795 
L 179.559032 -109.076851 
L 178.900236 -110.656764 
L 178.24144 -111.608661 
L 177.582645 -111.292679 
L 176.923849 -112.7146 
L 176.265053 -112.876541 
L 175.606257 -116.826322 
L 174.947462 -116.976414 
L 174.288666 -117.608379 
L 173.62987 -117.76637 
L 172.971074 -117.77032 
L 172.312279 -117.76637 
L 171.653483 -117.134405 
L 170.994687 -118.244294 
L 170.335891 -119.824207 
L 169.677096 -122.032134 
L 169.0183 -121.56606 
L 168.359504 -123.142023 
L 167.700708 -121.56211 
L 167.041913 -122.036084 
L 166.383117 -122.506108 
L 165.724321 -122.032134 
L 165.065525 -120.926196 
L 164.40673 -120.926196 
L 163.747934 -122.984032 
L 163.089138 -123.458005 
L 162.430342 -122.984032 
L 161.771547 -126.771872 
L 161.112751 -129.141741 
L 160.453955 -129.773706 
L 159.795159 -128.683566 
L 159.136364 -133.095472 
L 158.477568 -137.989251 
L 157.818772 -137.993201 
L 157.159976 -136.097306 
L 156.501181 -139.110989 
L 155.842385 -142.728989 
L 155.183589 -146.68272 
L 154.524793 -150.004486 
L 153.865998 -148.578615 
L 153.207202 -147.156693 
L 152.548406 -150.786543 
L 151.88961 -154.424291 
L 151.230815 -153.322302 
L 150.572019 -158.855946 
L 149.913223 -159.160079 
L 149.254427 -160.289716 
L 148.595632 -165.167696 
L 147.936836 -164.851714 
L 147.27804 -163.907716 
L 146.619244 -163.11381 
L 145.960449 -166.589618 
L 145.301653 -166.427677 
L 144.642857 -167.849598 
L 143.984061 -168.801495 
L 143.325266 -170.851432 
L 142.66647 -171.333305 
L 142.007674 -171.96132 
L 141.348878 -176.543067 
L 140.690083 -177.491014 
L 140.031287 -181.752828 
L 139.372491 -183.806715 
L 138.713695 -190.604288 
L 138.0549 -190.76228 
L 137.396104 -193.128199 
L 136.737308 -191.394245 
L 136.078512 -194.708111 
L 135.419717 -200.079814 
L 134.760921 -198.34586 
L 134.102125 -205.135534 
L 133.443329 -208.773283 
L 132.784534 -212.719114 
L 132.125738 -212.885005 
L 131.466942 -214.615009 
L 130.808146 -220.938609 
L 130.149351 -227.728283 
L 129.490555 -226.780336 
L 128.831759 -230.267993 
L 128.172963 -231.362082 
L 127.514168 -230.098152 
L 126.855372 -230.256143 
L 126.196576 -233.577909 
L 125.53778 -235.153872 
L 124.878985 -239.735619 
L 124.220189 -241.793455 
L 123.561393 -243.053435 
L 122.902597 -239.89361 
L 122.243802 -245.739286 
L 121.585006 -250.802906 
L 120.92621 -247.805022 
L 120.267414 -253.010834 
L 119.608619 -258.540528 
L 118.949823 -264.070221 
L 118.291027 -262.336267 
L 117.632231 -265.330202 
L 116.973436 -270.701904 
L 116.31464 -276.085456 
L 115.655844 -274.967668 
L 114.997048 -273.869629 
L 114.338253 -271.807843 
L 113.679457 -275.603583 
L 113.020661 -279.08334 
L 112.361865 -283.819128 
L 111.70307 -284.455043 
L 111.044274 -289.980787 
L 110.385478 -288.882748 
L 109.726682 -291.880632 
L 109.067887 -295.988405 
L 108.409091 -292.982621 
L 107.750295 -294.408492 
L 107.091499 -296.142446 
L 106.432704 -290.454761 
L 105.773908 -292.832529 
L 105.115112 -298.354324 
L 104.456316 -304.2 
L 103.797521 -296.466328 
L 103.138725 -296.62037 
L 102.479929 -292.978671 
L 101.821133 -295.988405 
L 101.162338 -294.246551 
L 100.503542 -286.662971 
L 99.844746 -284.293102 
L 99.18595 -281.603301 
L 98.527155 -285.711073 
L 97.868359 -290.924785 
L 97.209563 -286.027056 
L 96.550767 -286.185047 
L 95.891972 -287.136945 
L 95.233176 -289.984737 
L 94.57438 -284.297052 
L 93.915584 -282.247115 
L 93.256789 -280.339371 
L 92.597993 -284.14301 
L 91.939197 -287.772859 
L 91.280401 -284.925067 
L 90.621606 -282.097024 
L 89.96281 -284.139061 
L 89.304014 -279.395373 
L 88.645218 -278.447426 
L 87.986423 -277.025504 
L 87.327627 -273.233714 
L 86.668831 -269.603865 
L 86.010035 -268.185894 
L 85.35124 -268.501876 
L 84.692444 -268.648018 
L 84.033648 -266.44009 
L 83.374852 -262.976132 
L 82.716057 -260.12439 
L 82.057261 -257.59258 
L 81.398465 -254.112823 
L 80.739669 -246.537142 
L 80.080874 -245.585245 
L 79.422078 -241.955396 
L 78.763282 -237.531641 
L 78.104486 -235.473804 
L 77.445691 -240.529525 
L 76.786895 -238.471689 
L 76.128099 -233.735901 
L 75.469303 -228.360248 
L 74.810508 -222.988546 
L 74.151712 -218.884723 
L 73.492916 -213.51302 
L 72.83412 -207.18942 
L 72.175325 -199.925772 
L 71.516529 -194.076146 
L 70.857733 -188.704444 
L 70.198937 -183.964706 
L 69.540142 -180.018874 
L 68.881346 -175.433178 
L 68.22255 -169.275469 
L 67.563754 -162.319904 
L 66.904959 -152.682438 
L 66.246163 -149.38042 
L 65.587367 -137.677218 
L 64.928571 -132.459557 
L 64.269776 -122.352067 
L 63.61098 -114.610495 
L 62.952184 -104.499055 
L 62.293388 -94.699647 
L 61.634593 -85.852137 
L 60.975797 -78.114515 
L 60.317001 -69.89897 
L 59.658205 -64.365327 
L 58.99941 -58.51965 
L 58.340614 -54.095895 
L 57.681818 -52.2 
z
" id="md1ad603d26" style="stroke:#ff7f0e;stroke-opacity:0.2;"/>
    </defs>
    <g clip-path="url(#p6bc82464de)">
     <use style="fill:#ff7f0e;fill-opacity:0.2;stroke:#ff7f0e;stroke-opacity:0.2;" x="0" xlink:href="#md1ad603d26" y="360"/>
    </g>
   </g>
   <g id="matplotlib.axis_1">
    <g id="xtick_1">
     <g id="line2d_1">
      <defs>
       <path d="M 0 0 
L 0 3.5 
" id="me6a4441166" style="stroke:#000000;stroke-width:0.8;"/>
      </defs>
      <g>
       <use style="stroke:#000000;stroke-width:0.8;" x="57.681818" xlink:href="#me6a4441166" y="320.4"/>
      </g>
     </g>
     <g id="text_1">
      <!-- 0 -->
      <defs>
       <path d="M 31.78125 66.40625 
Q 24.171875 66.40625 20.328125 58.90625 
Q 16.5 51.421875 16.5 36.375 
Q 16.5 21.390625 20.328125 13.890625 
Q 24.171875 6.390625 31.78125 6.390625 
Q 39.453125 6.390625 43.28125 13.890625 
Q 47.125 21.390625 47.125 36.375 
Q 47.125 51.421875 43.28125 58.90625 
Q 39.453125 66.40625 31.78125 66.40625 
z
M 31.78125 74.21875 
Q 44.046875 74.21875 50.515625 64.515625 
Q 56.984375 54.828125 56.984375 36.375 
Q 56.984375 17.96875 50.515625 8.265625 
Q 44.046875 -1.421875 31.78125 -1.421875 
Q 19.53125 -1.421875 13.0625 8.265625 
Q 6.59375 17.96875 6.59375 36.375 
Q 6.59375 54.828125 13.0625 64.515625 
Q 19.53125 74.21875 31.78125 74.21875 
z
" id="DejaVuSans-48"/>
      </defs>
      <g transform="translate(54.500568 334.998438)scale(0.1 -0.1)">
       <use xlink:href="#DejaVuSans-48"/>
      </g>
     </g>
    </g>
    <g id="xtick_2">
     <g id="line2d_2">
      <g>
       <use style="stroke:#000000;stroke-width:0.8;" x="90.621606" xlink:href="#me6a4441166" y="320.4"/>
      </g>
     </g>
     <g id="text_2">
      <!-- 50 -->
      <defs>
       <path d="M 10.796875 72.90625 
L 49.515625 72.90625 
L 49.515625 64.59375 
L 19.828125 64.59375 
L 19.828125 46.734375 
Q 21.96875 47.46875 24.109375 47.828125 
Q 26.265625 48.1875 28.421875 48.1875 
Q 40.625 48.1875 47.75 41.5 
Q 54.890625 34.8125 54.890625 23.390625 
Q 54.890625 11.625 47.5625 5.09375 
Q 40.234375 -1.421875 26.90625 -1.421875 
Q 22.3125 -1.421875 17.546875 -0.640625 
Q 12.796875 0.140625 7.71875 1.703125 
L 7.71875 11.625 
Q 12.109375 9.234375 16.796875 8.0625 
Q 21.484375 6.890625 26.703125 6.890625 
Q 35.15625 6.890625 40.078125 11.328125 
Q 45.015625 15.765625 45.015625 23.390625 
Q 45.015625 31 40.078125 35.4375 
Q 35.15625 39.890625 26.703125 39.890625 
Q 22.75 39.890625 18.8125 39.015625 
Q 14.890625 38.140625 10.796875 36.28125 
z
" id="DejaVuSans-53"/>
      </defs>
      <g transform="translate(84.259106 334.998438)scale(0.1 -0.1)">
       <use xlink:href="#DejaVuSans-53"/>
       <use x="63.623047" xlink:href="#DejaVuSans-48"/>
      </g>
     </g>
    </g>
    <g id="xtick_3">
     <g id="line2d_3">
      <g>
       <use style="stroke:#000000;stroke-width:0.8;" x="123.561393" xlink:href="#me6a4441166" y="320.4"/>
      </g>
     </g>
     <g id="text_3">
      <!-- 100 -->
      <defs>
       <path d="M 12.40625 8.296875 
L 28.515625 8.296875 
L 28.515625 63.921875 
L 10.984375 60.40625 
L 10.984375 69.390625 
L 28.421875 72.90625 
L 38.28125 72.90625 
L 38.28125 8.296875 
L 54.390625 8.296875 
L 54.390625 0 
L 12.40625 0 
z
" id="DejaVuSans-49"/>
      </defs>
      <g transform="translate(114.017643 334.998438)scale(0.1 -0.1)">
       <use xlink:href="#DejaVuSans-49"/>
       <use x="63.623047" xlink:href="#DejaVuSans-48"/>
       <use x="127.246094" xlink:href="#DejaVuSans-48"/>
      </g>
     </g>
    </g>
    <g id="xtick_4">
     <g id="line2d_4">
      <g>
       <use style="stroke:#000000;stroke-width:0.8;" x="156.501181" xlink:href="#me6a4441166" y="320.4"/>
      </g>
     </g>
     <g id="text_4">
      <!-- 150 -->
      <g transform="translate(146.957431 334.998438)scale(0.1 -0.1)">
       <use xlink:href="#DejaVuSans-49"/>
       <use x="63.623047" xlink:href="#DejaVuSans-53"/>
       <use x="127.246094" xlink:href="#DejaVuSans-48"/>
      </g>
     </g>
    </g>
    <g id="xtick_5">
     <g id="line2d_5">
      <g>
       <use style="stroke:#000000;stroke-width:0.8;" x="189.440968" xlink:href="#me6a4441166" y="320.4"/>
      </g>
     </g>
     <g id="text_5">
      <!-- 200 -->
      <defs>
       <path d="M 19.1875 8.296875 
L 53.609375 8.296875 
L 53.609375 0 
L 7.328125 0 
L 7.328125 8.296875 
Q 12.9375 14.109375 22.625 23.890625 
Q 32.328125 33.6875 34.8125 36.53125 
Q 39.546875 41.84375 41.421875 45.53125 
Q 43.3125 49.21875 43.3125 52.78125 
Q 43.3125 58.59375 39.234375 62.25 
Q 35.15625 65.921875 28.609375 65.921875 
Q 23.96875 65.921875 18.8125 64.3125 
Q 13.671875 62.703125 7.8125 59.421875 
L 7.8125 69.390625 
Q 13.765625 71.78125 18.9375 73 
Q 24.125 74.21875 28.421875 74.21875 
Q 39.75 74.21875 46.484375 68.546875 
Q 53.21875 62.890625 53.21875 53.421875 
Q 53.21875 48.921875 51.53125 44.890625 
Q 49.859375 40.875 45.40625 35.40625 
Q 44.1875 33.984375 37.640625 27.21875 
Q 31.109375 20.453125 19.1875 8.296875 
z
" id="DejaVuSans-50"/>
      </defs>
      <g transform="translate(179.897218 334.998438)scale(0.1 -0.1)">
       <use xlink:href="#DejaVuSans-50"/>
       <use x="63.623047" xlink:href="#DejaVuSans-48"/>
       <use x="127.246094" xlink:href="#DejaVuSans-48"/>
      </g>
     </g>
    </g>
    <g id="xtick_6">
     <g id="line2d_6">
      <g>
       <use style="stroke:#000000;stroke-width:0.8;" x="222.380756" xlink:href="#me6a4441166" y="320.4"/>
      </g>
     </g>
     <g id="text_6">
      <!-- 250 -->
      <g transform="translate(212.837006 334.998438)scale(0.1 -0.1)">
       <use xlink:href="#DejaVuSans-50"/>
       <use x="63.623047" xlink:href="#DejaVuSans-53"/>
       <use x="127.246094" xlink:href="#DejaVuSans-48"/>
      </g>
     </g>
    </g>
    <g id="xtick_7">
     <g id="line2d_7">
      <g>
       <use style="stroke:#000000;stroke-width:0.8;" x="255.320543" xlink:href="#me6a4441166" y="320.4"/>
      </g>
     </g>
     <g id="text_7">
      <!-- 300 -->
      <defs>
       <path d="M 40.578125 39.3125 
Q 47.65625 37.796875 51.625 33 
Q 55.609375 28.21875 55.609375 21.1875 
Q 55.609375 10.40625 48.1875 4.484375 
Q 40.765625 -1.421875 27.09375 -1.421875 
Q 22.515625 -1.421875 17.65625 -0.515625 
Q 12.796875 0.390625 7.625 2.203125 
L 7.625 11.71875 
Q 11.71875 9.328125 16.59375 8.109375 
Q 21.484375 6.890625 26.8125 6.890625 
Q 36.078125 6.890625 40.9375 10.546875 
Q 45.796875 14.203125 45.796875 21.1875 
Q 45.796875 27.640625 41.28125 31.265625 
Q 36.765625 34.90625 28.71875 34.90625 
L 20.21875 34.90625 
L 20.21875 43.015625 
L 29.109375 43.015625 
Q 36.375 43.015625 40.234375 45.921875 
Q 44.09375 48.828125 44.09375 54.296875 
Q 44.09375 59.90625 40.109375 62.90625 
Q 36.140625 65.921875 28.71875 65.921875 
Q 24.65625 65.921875 20.015625 65.03125 
Q 15.375 64.15625 9.8125 62.3125 
L 9.8125 71.09375 
Q 15.4375 72.65625 20.34375 73.4375 
Q 25.25 74.21875 29.59375 74.21875 
Q 40.828125 74.21875 47.359375 69.109375 
Q 53.90625 64.015625 53.90625 55.328125 
Q 53.90625 49.265625 50.4375 45.09375 
Q 46.96875 40.921875 40.578125 39.3125 
z
" id="DejaVuSans-51"/>
      </defs>
      <g transform="translate(245.776793 334.998438)scale(0.1 -0.1)">
       <use xlink:href="#DejaVuSans-51"/>
       <use x="63.623047" xlink:href="#DejaVuSans-48"/>
       <use x="127.246094" xlink:href="#DejaVuSans-48"/>
      </g>
     </g>
    </g>
    <g id="xtick_8">
     <g id="line2d_8">
      <g>
       <use style="stroke:#000000;stroke-width:0.8;" x="288.260331" xlink:href="#me6a4441166" y="320.4"/>
      </g>
     </g>
     <g id="text_8">
      <!-- 350 -->
      <g transform="translate(278.716581 334.998438)scale(0.1 -0.1)">
       <use xlink:href="#DejaVuSans-51"/>
       <use x="63.623047" xlink:href="#DejaVuSans-53"/>
       <use x="127.246094" xlink:href="#DejaVuSans-48"/>
      </g>
     </g>
    </g>
    <g id="xtick_9">
     <g id="line2d_9">
      <g>
       <use style="stroke:#000000;stroke-width:0.8;" x="321.200118" xlink:href="#me6a4441166" y="320.4"/>
      </g>
     </g>
     <g id="text_9">
      <!-- 400 -->
      <defs>
       <path d="M 37.796875 64.3125 
L 12.890625 25.390625 
L 37.796875 25.390625 
z
M 35.203125 72.90625 
L 47.609375 72.90625 
L 47.609375 25.390625 
L 58.015625 25.390625 
L 58.015625 17.1875 
L 47.609375 17.1875 
L 47.609375 0 
L 37.796875 0 
L 37.796875 17.1875 
L 4.890625 17.1875 
L 4.890625 26.703125 
z
" id="DejaVuSans-52"/>
      </defs>
      <g transform="translate(311.656368 334.998438)scale(0.1 -0.1)">
       <use xlink:href="#DejaVuSans-52"/>
       <use x="63.623047" xlink:href="#DejaVuSans-48"/>
       <use x="127.246094" xlink:href="#DejaVuSans-48"/>
      </g>
     </g>
    </g>
    <g id="text_10">
     <!-- Temps (ticks) -->
     <defs>
      <path d="M -0.296875 72.90625 
L 61.375 72.90625 
L 61.375 64.59375 
L 35.5 64.59375 
L 35.5 0 
L 25.59375 0 
L 25.59375 64.59375 
L -0.296875 64.59375 
z
" id="DejaVuSans-84"/>
      <path d="M 56.203125 29.59375 
L 56.203125 25.203125 
L 14.890625 25.203125 
Q 15.484375 15.921875 20.484375 11.0625 
Q 25.484375 6.203125 34.421875 6.203125 
Q 39.59375 6.203125 44.453125 7.46875 
Q 49.3125 8.734375 54.109375 11.28125 
L 54.109375 2.78125 
Q 49.265625 0.734375 44.1875 -0.34375 
Q 39.109375 -1.421875 33.890625 -1.421875 
Q 20.796875 -1.421875 13.15625 6.1875 
Q 5.515625 13.8125 5.515625 26.8125 
Q 5.515625 40.234375 12.765625 48.109375 
Q 20.015625 56 32.328125 56 
Q 43.359375 56 49.78125 48.890625 
Q 56.203125 41.796875 56.203125 29.59375 
z
M 47.21875 32.234375 
Q 47.125 39.59375 43.09375 43.984375 
Q 39.0625 48.390625 32.421875 48.390625 
Q 24.90625 48.390625 20.390625 44.140625 
Q 15.875 39.890625 15.1875 32.171875 
z
" id="DejaVuSans-101"/>
      <path d="M 52 44.1875 
Q 55.375 50.25 60.0625 53.125 
Q 64.75 56 71.09375 56 
Q 79.640625 56 84.28125 50.015625 
Q 88.921875 44.046875 88.921875 33.015625 
L 88.921875 0 
L 79.890625 0 
L 79.890625 32.71875 
Q 79.890625 40.578125 77.09375 44.375 
Q 74.3125 48.1875 68.609375 48.1875 
Q 61.625 48.1875 57.5625 43.546875 
Q 53.515625 38.921875 53.515625 30.90625 
L 53.515625 0 
L 44.484375 0 
L 44.484375 32.71875 
Q 44.484375 40.625 41.703125 44.40625 
Q 38.921875 48.1875 33.109375 48.1875 
Q 26.21875 48.1875 22.15625 43.53125 
Q 18.109375 38.875 18.109375 30.90625 
L 18.109375 0 
L 9.078125 0 
L 9.078125 54.6875 
L 18.109375 54.6875 
L 18.109375 46.1875 
Q 21.1875 51.21875 25.484375 53.609375 
Q 29.78125 56 35.6875 56 
Q 41.65625 56 45.828125 52.96875 
Q 50 49.953125 52 44.1875 
z
" id="DejaVuSans-109"/>
      <path d="M 18.109375 8.203125 
L 18.109375 -20.796875 
L 9.078125 -20.796875 
L 9.078125 54.6875 
L 18.109375 54.6875 
L 18.109375 46.390625 
Q 20.953125 51.265625 25.265625 53.625 
Q 29.59375 56 35.59375 56 
Q 45.5625 56 51.78125 48.09375 
Q 58.015625 40.1875 58.015625 27.296875 
Q 58.015625 14.40625 51.78125 6.484375 
Q 45.5625 -1.421875 35.59375 -1.421875 
Q 29.59375 -1.421875 25.265625 0.953125 
Q 20.953125 3.328125 18.109375 8.203125 
z
M 48.6875 27.296875 
Q 48.6875 37.203125 44.609375 42.84375 
Q 40.53125 48.484375 33.40625 48.484375 
Q 26.265625 48.484375 22.1875 42.84375 
Q 18.109375 37.203125 18.109375 27.296875 
Q 18.109375 17.390625 22.1875 11.75 
Q 26.265625 6.109375 33.40625 6.109375 
Q 40.53125 6.109375 44.609375 11.75 
Q 48.6875 17.390625 48.6875 27.296875 
z
" id="DejaVuSans-112"/>
      <path d="M 44.28125 53.078125 
L 44.28125 44.578125 
Q 40.484375 46.53125 36.375 47.5 
Q 32.28125 48.484375 27.875 48.484375 
Q 21.1875 48.484375 17.84375 46.4375 
Q 14.5 44.390625 14.5 40.28125 
Q 14.5 37.15625 16.890625 35.375 
Q 19.28125 33.59375 26.515625 31.984375 
L 29.59375 31.296875 
Q 39.15625 29.25 43.1875 25.515625 
Q 47.21875 21.78125 47.21875 15.09375 
Q 47.21875 7.46875 41.1875 3.015625 
Q 35.15625 -1.421875 24.609375 -1.421875 
Q 20.21875 -1.421875 15.453125 -0.5625 
Q 10.6875 0.296875 5.421875 2 
L 5.421875 11.28125 
Q 10.40625 8.6875 15.234375 7.390625 
Q 20.0625 6.109375 24.8125 6.109375 
Q 31.15625 6.109375 34.5625 8.28125 
Q 37.984375 10.453125 37.984375 14.40625 
Q 37.984375 18.0625 35.515625 20.015625 
Q 33.0625 21.96875 24.703125 23.78125 
L 21.578125 24.515625 
Q 13.234375 26.265625 9.515625 29.90625 
Q 5.8125 33.546875 5.8125 39.890625 
Q 5.8125 47.609375 11.28125 51.796875 
Q 16.75 56 26.8125 56 
Q 31.78125 56 36.171875 55.265625 
Q 40.578125 54.546875 44.28125 53.078125 
z
" id="DejaVuSans-115"/>
      <path id="DejaVuSans-32"/>
      <path d="M 31 75.875 
Q 24.46875 64.65625 21.28125 53.65625 
Q 18.109375 42.671875 18.109375 31.390625 
Q 18.109375 20.125 21.3125 9.0625 
Q 24.515625 -2 31 -13.1875 
L 23.1875 -13.1875 
Q 15.875 -1.703125 12.234375 9.375 
Q 8.59375 20.453125 8.59375 31.390625 
Q 8.59375 42.28125 12.203125 53.3125 
Q 15.828125 64.359375 23.1875 75.875 
z
" id="DejaVuSans-40"/>
      <path d="M 18.3125 70.21875 
L 18.3125 54.6875 
L 36.8125 54.6875 
L 36.8125 47.703125 
L 18.3125 47.703125 
L 18.3125 18.015625 
Q 18.3125 11.328125 20.140625 9.421875 
Q 21.96875 7.515625 27.59375 7.515625 
L 36.8125 7.515625 
L 36.8125 0 
L 27.59375 0 
Q 17.1875 0 13.234375 3.875 
Q 9.28125 7.765625 9.28125 18.015625 
L 9.28125 47.703125 
L 2.6875 47.703125 
L 2.6875 54.6875 
L 9.28125 54.6875 
L 9.28125 70.21875 
z
" id="DejaVuSans-116"/>
      <path d="M 9.421875 54.6875 
L 18.40625 54.6875 
L 18.40625 0 
L 9.421875 0 
z
M 9.421875 75.984375 
L 18.40625 75.984375 
L 18.40625 64.59375 
L 9.421875 64.59375 
z
" id="DejaVuSans-105"/>
      <path d="M 48.78125 52.59375 
L 48.78125 44.1875 
Q 44.96875 46.296875 41.140625 47.34375 
Q 37.3125 48.390625 33.40625 48.390625 
Q 24.65625 48.390625 19.8125 42.84375 
Q 14.984375 37.3125 14.984375 27.296875 
Q 14.984375 17.28125 19.8125 11.734375 
Q 24.65625 6.203125 33.40625 6.203125 
Q 37.3125 6.203125 41.140625 7.25 
Q 44.96875 8.296875 48.78125 10.40625 
L 48.78125 2.09375 
Q 45.015625 0.34375 40.984375 -0.53125 
Q 36.96875 -1.421875 32.421875 -1.421875 
Q 20.0625 -1.421875 12.78125 6.34375 
Q 5.515625 14.109375 5.515625 27.296875 
Q 5.515625 40.671875 12.859375 48.328125 
Q 20.21875 56 33.015625 56 
Q 37.15625 56 41.109375 55.140625 
Q 45.0625 54.296875 48.78125 52.59375 
z
" id="DejaVuSans-99"/>
      <path d="M 9.078125 75.984375 
L 18.109375 75.984375 
L 18.109375 31.109375 
L 44.921875 54.6875 
L 56.390625 54.6875 
L 27.390625 29.109375 
L 57.625 0 
L 45.90625 0 
L 18.109375 26.703125 
L 18.109375 0 
L 9.078125 0 
z
" id="DejaVuSans-107"/>
      <path d="M 8.015625 75.875 
L 15.828125 75.875 
Q 23.140625 64.359375 26.78125 53.3125 
Q 30.421875 42.28125 30.421875 31.390625 
Q 30.421875 20.453125 26.78125 9.375 
Q 23.140625 -1.703125 15.828125 -13.1875 
L 8.015625 -13.1875 
Q 14.5 -2 17.703125 9.0625 
Q 20.90625 20.125 20.90625 31.390625 
Q 20.90625 42.671875 17.703125 53.65625 
Q 14.5 64.65625 8.015625 75.875 
z
" id="DejaVuSans-41"/>
     </defs>
     <g transform="translate(150.644531 348.676562)scale(0.1 -0.1)">
      <use xlink:href="#DejaVuSans-84"/>
      <use x="60.818359" xlink:href="#DejaVuSans-101"/>
      <use x="122.341797" xlink:href="#DejaVuSans-109"/>
      <use x="219.753906" xlink:href="#DejaVuSans-112"/>
      <use x="283.230469" xlink:href="#DejaVuSans-115"/>
      <use x="335.330078" xlink:href="#DejaVuSans-32"/>
      <use x="367.117188" xlink:href="#DejaVuSans-40"/>
      <use x="406.130859" xlink:href="#DejaVuSans-116"/>
      <use x="445.339844" xlink:href="#DejaVuSans-105"/>
      <use x="473.123047" xlink:href="#DejaVuSans-99"/>
      <use x="528.103516" xlink:href="#DejaVuSans-107"/>
      <use x="586.013672" xlink:href="#DejaVuSans-115"/>
      <use x="638.113281" xlink:href="#DejaVuSans-41"/>
     </g>
    </g>
   </g>
   <g id="matplotlib.axis_2">
    <g id="ytick_1">
     <g id="line2d_10">
      <defs>
       <path d="M 0 0 
L -3.5 0 
" id="m2aaaccede2" style="stroke:#000000;stroke-width:0.8;"/>
      </defs>
      <g>
       <use style="stroke:#000000;stroke-width:0.8;" x="45" xlink:href="#m2aaaccede2" y="307.8"/>
      </g>
     </g>
     <g id="text_11">
      <!-- 0 -->
      <g transform="translate(31.6375 311.599219)scale(0.1 -0.1)">
       <use xlink:href="#DejaVuSans-48"/>
      </g>
     </g>
    </g>
    <g id="ytick_2">
     <g id="line2d_11">
      <g>
       <use style="stroke:#000000;stroke-width:0.8;" x="45" xlink:href="#m2aaaccede2" y="276.201749"/>
      </g>
     </g>
     <g id="text_12">
      <!-- 10 -->
      <g transform="translate(25.275 280.000968)scale(0.1 -0.1)">
       <use xlink:href="#DejaVuSans-49"/>
       <use x="63.623047" xlink:href="#DejaVuSans-48"/>
      </g>
     </g>
    </g>
    <g id="ytick_3">
     <g id="line2d_12">
      <g>
       <use style="stroke:#000000;stroke-width:0.8;" x="45" xlink:href="#m2aaaccede2" y="244.603498"/>
      </g>
     </g>
     <g id="text_13">
      <!-- 20 -->
      <g transform="translate(25.275 248.402717)scale(0.1 -0.1)">
       <use xlink:href="#DejaVuSans-50"/>
       <use x="63.623047" xlink:href="#DejaVuSans-48"/>
      </g>
     </g>
    </g>
    <g id="ytick_4">
     <g id="line2d_13">
      <g>
       <use style="stroke:#000000;stroke-width:0.8;" x="45" xlink:href="#m2aaaccede2" y="213.005248"/>
      </g>
     </g>
     <g id="text_14">
      <!-- 30 -->
      <g transform="translate(25.275 216.804466)scale(0.1 -0.1)">
       <use xlink:href="#DejaVuSans-51"/>
       <use x="63.623047" xlink:href="#DejaVuSans-48"/>
      </g>
     </g>
    </g>
    <g id="ytick_5">
     <g id="line2d_14">
      <g>
       <use style="stroke:#000000;stroke-width:0.8;" x="45" xlink:href="#m2aaaccede2" y="181.406997"/>
      </g>
     </g>
     <g id="text_15">
      <!-- 40 -->
      <g transform="translate(25.275 185.206216)scale(0.1 -0.1)">
       <use xlink:href="#DejaVuSans-52"/>
       <use x="63.623047" xlink:href="#DejaVuSans-48"/>
      </g>
     </g>
    </g>
    <g id="ytick_6">
     <g id="line2d_15">
      <g>
       <use style="stroke:#000000;stroke-width:0.8;" x="45" xlink:href="#m2aaaccede2" y="149.808746"/>
      </g>
     </g>
     <g id="text_16">
      <!-- 50 -->
      <g transform="translate(25.275 153.607965)scale(0.1 -0.1)">
       <use xlink:href="#DejaVuSans-53"/>
       <use x="63.623047" xlink:href="#DejaVuSans-48"/>
      </g>
     </g>
    </g>
    <g id="ytick_7">
     <g id="line2d_16">
      <g>
       <use style="stroke:#000000;stroke-width:0.8;" x="45" xlink:href="#m2aaaccede2" y="118.210495"/>
      </g>
     </g>
     <g id="text_17">
      <!-- 60 -->
      <defs>
       <path d="M 33.015625 40.375 
Q 26.375 40.375 22.484375 35.828125 
Q 18.609375 31.296875 18.609375 23.390625 
Q 18.609375 15.53125 22.484375 10.953125 
Q 26.375 6.390625 33.015625 6.390625 
Q 39.65625 6.390625 43.53125 10.953125 
Q 47.40625 15.53125 47.40625 23.390625 
Q 47.40625 31.296875 43.53125 35.828125 
Q 39.65625 40.375 33.015625 40.375 
z
M 52.59375 71.296875 
L 52.59375 62.3125 
Q 48.875 64.0625 45.09375 64.984375 
Q 41.3125 65.921875 37.59375 65.921875 
Q 27.828125 65.921875 22.671875 59.328125 
Q 17.53125 52.734375 16.796875 39.40625 
Q 19.671875 43.65625 24.015625 45.921875 
Q 28.375 48.1875 33.59375 48.1875 
Q 44.578125 48.1875 50.953125 41.515625 
Q 57.328125 34.859375 57.328125 23.390625 
Q 57.328125 12.15625 50.6875 5.359375 
Q 44.046875 -1.421875 33.015625 -1.421875 
Q 20.359375 -1.421875 13.671875 8.265625 
Q 6.984375 17.96875 6.984375 36.375 
Q 6.984375 53.65625 15.1875 63.9375 
Q 23.390625 74.21875 37.203125 74.21875 
Q 40.921875 74.21875 44.703125 73.484375 
Q 48.484375 72.75 52.59375 71.296875 
z
" id="DejaVuSans-54"/>
      </defs>
      <g transform="translate(25.275 122.009714)scale(0.1 -0.1)">
       <use xlink:href="#DejaVuSans-54"/>
       <use x="63.623047" xlink:href="#DejaVuSans-48"/>
      </g>
     </g>
    </g>
    <g id="ytick_8">
     <g id="line2d_17">
      <g>
       <use style="stroke:#000000;stroke-width:0.8;" x="45" xlink:href="#m2aaaccede2" y="86.612244"/>
      </g>
     </g>
     <g id="text_18">
      <!-- 70 -->
      <defs>
       <path d="M 8.203125 72.90625 
L 55.078125 72.90625 
L 55.078125 68.703125 
L 28.609375 0 
L 18.3125 0 
L 43.21875 64.59375 
L 8.203125 64.59375 
z
" id="DejaVuSans-55"/>
      </defs>
      <g transform="translate(25.275 90.411463)scale(0.1 -0.1)">
       <use xlink:href="#DejaVuSans-55"/>
       <use x="63.623047" xlink:href="#DejaVuSans-48"/>
      </g>
     </g>
    </g>
    <g id="ytick_9">
     <g id="line2d_18">
      <g>
       <use style="stroke:#000000;stroke-width:0.8;" x="45" xlink:href="#m2aaaccede2" y="55.013994"/>
      </g>
     </g>
     <g id="text_19">
      <!-- 80 -->
      <defs>
       <path d="M 31.78125 34.625 
Q 24.75 34.625 20.71875 30.859375 
Q 16.703125 27.09375 16.703125 20.515625 
Q 16.703125 13.921875 20.71875 10.15625 
Q 24.75 6.390625 31.78125 6.390625 
Q 38.8125 6.390625 42.859375 10.171875 
Q 46.921875 13.96875 46.921875 20.515625 
Q 46.921875 27.09375 42.890625 30.859375 
Q 38.875 34.625 31.78125 34.625 
z
M 21.921875 38.8125 
Q 15.578125 40.375 12.03125 44.71875 
Q 8.5 49.078125 8.5 55.328125 
Q 8.5 64.0625 14.71875 69.140625 
Q 20.953125 74.21875 31.78125 74.21875 
Q 42.671875 74.21875 48.875 69.140625 
Q 55.078125 64.0625 55.078125 55.328125 
Q 55.078125 49.078125 51.53125 44.71875 
Q 48 40.375 41.703125 38.8125 
Q 48.828125 37.15625 52.796875 32.3125 
Q 56.78125 27.484375 56.78125 20.515625 
Q 56.78125 9.90625 50.3125 4.234375 
Q 43.84375 -1.421875 31.78125 -1.421875 
Q 19.734375 -1.421875 13.25 4.234375 
Q 6.78125 9.90625 6.78125 20.515625 
Q 6.78125 27.484375 10.78125 32.3125 
Q 14.796875 37.15625 21.921875 38.8125 
z
M 18.3125 54.390625 
Q 18.3125 48.734375 21.84375 45.5625 
Q 25.390625 42.390625 31.78125 42.390625 
Q 38.140625 42.390625 41.71875 45.5625 
Q 45.3125 48.734375 45.3125 54.390625 
Q 45.3125 60.0625 41.71875 63.234375 
Q 38.140625 66.40625 31.78125 66.40625 
Q 25.390625 66.40625 21.84375 63.234375 
Q 18.3125 60.0625 18.3125 54.390625 
z
" id="DejaVuSans-56"/>
      </defs>
      <g transform="translate(25.275 58.813212)scale(0.1 -0.1)">
       <use xlink:href="#DejaVuSans-56"/>
       <use x="63.623047" xlink:href="#DejaVuSans-48"/>
      </g>
     </g>
    </g>
    <g id="text_20">
     <!-- Nombre d'agents symptomatique -->
     <defs>
      <path d="M 9.8125 72.90625 
L 23.09375 72.90625 
L 55.421875 11.921875 
L 55.421875 72.90625 
L 64.984375 72.90625 
L 64.984375 0 
L 51.703125 0 
L 19.390625 60.984375 
L 19.390625 0 
L 9.8125 0 
z
" id="DejaVuSans-78"/>
      <path d="M 30.609375 48.390625 
Q 23.390625 48.390625 19.1875 42.75 
Q 14.984375 37.109375 14.984375 27.296875 
Q 14.984375 17.484375 19.15625 11.84375 
Q 23.34375 6.203125 30.609375 6.203125 
Q 37.796875 6.203125 41.984375 11.859375 
Q 46.1875 17.53125 46.1875 27.296875 
Q 46.1875 37.015625 41.984375 42.703125 
Q 37.796875 48.390625 30.609375 48.390625 
z
M 30.609375 56 
Q 42.328125 56 49.015625 48.375 
Q 55.71875 40.765625 55.71875 27.296875 
Q 55.71875 13.875 49.015625 6.21875 
Q 42.328125 -1.421875 30.609375 -1.421875 
Q 18.84375 -1.421875 12.171875 6.21875 
Q 5.515625 13.875 5.515625 27.296875 
Q 5.515625 40.765625 12.171875 48.375 
Q 18.84375 56 30.609375 56 
z
" id="DejaVuSans-111"/>
      <path d="M 48.6875 27.296875 
Q 48.6875 37.203125 44.609375 42.84375 
Q 40.53125 48.484375 33.40625 48.484375 
Q 26.265625 48.484375 22.1875 42.84375 
Q 18.109375 37.203125 18.109375 27.296875 
Q 18.109375 17.390625 22.1875 11.75 
Q 26.265625 6.109375 33.40625 6.109375 
Q 40.53125 6.109375 44.609375 11.75 
Q 48.6875 17.390625 48.6875 27.296875 
z
M 18.109375 46.390625 
Q 20.953125 51.265625 25.265625 53.625 
Q 29.59375 56 35.59375 56 
Q 45.5625 56 51.78125 48.09375 
Q 58.015625 40.1875 58.015625 27.296875 
Q 58.015625 14.40625 51.78125 6.484375 
Q 45.5625 -1.421875 35.59375 -1.421875 
Q 29.59375 -1.421875 25.265625 0.953125 
Q 20.953125 3.328125 18.109375 8.203125 
L 18.109375 0 
L 9.078125 0 
L 9.078125 75.984375 
L 18.109375 75.984375 
z
" id="DejaVuSans-98"/>
      <path d="M 41.109375 46.296875 
Q 39.59375 47.171875 37.8125 47.578125 
Q 36.03125 48 33.890625 48 
Q 26.265625 48 22.1875 43.046875 
Q 18.109375 38.09375 18.109375 28.8125 
L 18.109375 0 
L 9.078125 0 
L 9.078125 54.6875 
L 18.109375 54.6875 
L 18.109375 46.1875 
Q 20.953125 51.171875 25.484375 53.578125 
Q 30.03125 56 36.53125 56 
Q 37.453125 56 38.578125 55.875 
Q 39.703125 55.765625 41.0625 55.515625 
z
" id="DejaVuSans-114"/>
      <path d="M 45.40625 46.390625 
L 45.40625 75.984375 
L 54.390625 75.984375 
L 54.390625 0 
L 45.40625 0 
L 45.40625 8.203125 
Q 42.578125 3.328125 38.25 0.953125 
Q 33.9375 -1.421875 27.875 -1.421875 
Q 17.96875 -1.421875 11.734375 6.484375 
Q 5.515625 14.40625 5.515625 27.296875 
Q 5.515625 40.1875 11.734375 48.09375 
Q 17.96875 56 27.875 56 
Q 33.9375 56 38.25 53.625 
Q 42.578125 51.265625 45.40625 46.390625 
z
M 14.796875 27.296875 
Q 14.796875 17.390625 18.875 11.75 
Q 22.953125 6.109375 30.078125 6.109375 
Q 37.203125 6.109375 41.296875 11.75 
Q 45.40625 17.390625 45.40625 27.296875 
Q 45.40625 37.203125 41.296875 42.84375 
Q 37.203125 48.484375 30.078125 48.484375 
Q 22.953125 48.484375 18.875 42.84375 
Q 14.796875 37.203125 14.796875 27.296875 
z
" id="DejaVuSans-100"/>
      <path d="M 17.921875 72.90625 
L 17.921875 45.796875 
L 9.625 45.796875 
L 9.625 72.90625 
z
" id="DejaVuSans-39"/>
      <path d="M 34.28125 27.484375 
Q 23.390625 27.484375 19.1875 25 
Q 14.984375 22.515625 14.984375 16.5 
Q 14.984375 11.71875 18.140625 8.90625 
Q 21.296875 6.109375 26.703125 6.109375 
Q 34.1875 6.109375 38.703125 11.40625 
Q 43.21875 16.703125 43.21875 25.484375 
L 43.21875 27.484375 
z
M 52.203125 31.203125 
L 52.203125 0 
L 43.21875 0 
L 43.21875 8.296875 
Q 40.140625 3.328125 35.546875 0.953125 
Q 30.953125 -1.421875 24.3125 -1.421875 
Q 15.921875 -1.421875 10.953125 3.296875 
Q 6 8.015625 6 15.921875 
Q 6 25.140625 12.171875 29.828125 
Q 18.359375 34.515625 30.609375 34.515625 
L 43.21875 34.515625 
L 43.21875 35.40625 
Q 43.21875 41.609375 39.140625 45 
Q 35.0625 48.390625 27.6875 48.390625 
Q 23 48.390625 18.546875 47.265625 
Q 14.109375 46.140625 10.015625 43.890625 
L 10.015625 52.203125 
Q 14.9375 54.109375 19.578125 55.046875 
Q 24.21875 56 28.609375 56 
Q 40.484375 56 46.34375 49.84375 
Q 52.203125 43.703125 52.203125 31.203125 
z
" id="DejaVuSans-97"/>
      <path d="M 45.40625 27.984375 
Q 45.40625 37.75 41.375 43.109375 
Q 37.359375 48.484375 30.078125 48.484375 
Q 22.859375 48.484375 18.828125 43.109375 
Q 14.796875 37.75 14.796875 27.984375 
Q 14.796875 18.265625 18.828125 12.890625 
Q 22.859375 7.515625 30.078125 7.515625 
Q 37.359375 7.515625 41.375 12.890625 
Q 45.40625 18.265625 45.40625 27.984375 
z
M 54.390625 6.78125 
Q 54.390625 -7.171875 48.1875 -13.984375 
Q 42 -20.796875 29.203125 -20.796875 
Q 24.46875 -20.796875 20.265625 -20.09375 
Q 16.0625 -19.390625 12.109375 -17.921875 
L 12.109375 -9.1875 
Q 16.0625 -11.328125 19.921875 -12.34375 
Q 23.78125 -13.375 27.78125 -13.375 
Q 36.625 -13.375 41.015625 -8.765625 
Q 45.40625 -4.15625 45.40625 5.171875 
L 45.40625 9.625 
Q 42.625 4.78125 38.28125 2.390625 
Q 33.9375 0 27.875 0 
Q 17.828125 0 11.671875 7.65625 
Q 5.515625 15.328125 5.515625 27.984375 
Q 5.515625 40.671875 11.671875 48.328125 
Q 17.828125 56 27.875 56 
Q 33.9375 56 38.28125 53.609375 
Q 42.625 51.21875 45.40625 46.390625 
L 45.40625 54.6875 
L 54.390625 54.6875 
z
" id="DejaVuSans-103"/>
      <path d="M 54.890625 33.015625 
L 54.890625 0 
L 45.90625 0 
L 45.90625 32.71875 
Q 45.90625 40.484375 42.875 44.328125 
Q 39.84375 48.1875 33.796875 48.1875 
Q 26.515625 48.1875 22.3125 43.546875 
Q 18.109375 38.921875 18.109375 30.90625 
L 18.109375 0 
L 9.078125 0 
L 9.078125 54.6875 
L 18.109375 54.6875 
L 18.109375 46.1875 
Q 21.34375 51.125 25.703125 53.5625 
Q 30.078125 56 35.796875 56 
Q 45.21875 56 50.046875 50.171875 
Q 54.890625 44.34375 54.890625 33.015625 
z
" id="DejaVuSans-110"/>
      <path d="M 32.171875 -5.078125 
Q 28.375 -14.84375 24.75 -17.8125 
Q 21.140625 -20.796875 15.09375 -20.796875 
L 7.90625 -20.796875 
L 7.90625 -13.28125 
L 13.1875 -13.28125 
Q 16.890625 -13.28125 18.9375 -11.515625 
Q 21 -9.765625 23.484375 -3.21875 
L 25.09375 0.875 
L 2.984375 54.6875 
L 12.5 54.6875 
L 29.59375 11.921875 
L 46.6875 54.6875 
L 56.203125 54.6875 
z
" id="DejaVuSans-121"/>
      <path d="M 14.796875 27.296875 
Q 14.796875 17.390625 18.875 11.75 
Q 22.953125 6.109375 30.078125 6.109375 
Q 37.203125 6.109375 41.296875 11.75 
Q 45.40625 17.390625 45.40625 27.296875 
Q 45.40625 37.203125 41.296875 42.84375 
Q 37.203125 48.484375 30.078125 48.484375 
Q 22.953125 48.484375 18.875 42.84375 
Q 14.796875 37.203125 14.796875 27.296875 
z
M 45.40625 8.203125 
Q 42.578125 3.328125 38.25 0.953125 
Q 33.9375 -1.421875 27.875 -1.421875 
Q 17.96875 -1.421875 11.734375 6.484375 
Q 5.515625 14.40625 5.515625 27.296875 
Q 5.515625 40.1875 11.734375 48.09375 
Q 17.96875 56 27.875 56 
Q 33.9375 56 38.25 53.625 
Q 42.578125 51.265625 45.40625 46.390625 
L 45.40625 54.6875 
L 54.390625 54.6875 
L 54.390625 -20.796875 
L 45.40625 -20.796875 
z
" id="DejaVuSans-113"/>
      <path d="M 8.5 21.578125 
L 8.5 54.6875 
L 17.484375 54.6875 
L 17.484375 21.921875 
Q 17.484375 14.15625 20.5 10.265625 
Q 23.53125 6.390625 29.59375 6.390625 
Q 36.859375 6.390625 41.078125 11.03125 
Q 45.3125 15.671875 45.3125 23.6875 
L 45.3125 54.6875 
L 54.296875 54.6875 
L 54.296875 0 
L 45.3125 0 
L 45.3125 8.40625 
Q 42.046875 3.421875 37.71875 1 
Q 33.40625 -1.421875 27.6875 -1.421875 
Q 18.265625 -1.421875 13.375 4.4375 
Q 8.5 10.296875 8.5 21.578125 
z
M 31.109375 56 
z
" id="DejaVuSans-117"/>
     </defs>
     <g transform="translate(19.195312 265.88125)rotate(-90)scale(0.1 -0.1)">
      <use xlink:href="#DejaVuSans-78"/>
      <use x="74.804688" xlink:href="#DejaVuSans-111"/>
      <use x="135.986328" xlink:href="#DejaVuSans-109"/>
      <use x="233.398438" xlink:href="#DejaVuSans-98"/>
      <use x="296.875" xlink:href="#DejaVuSans-114"/>
      <use x="337.957031" xlink:href="#DejaVuSans-101"/>
      <use x="399.480469" xlink:href="#DejaVuSans-32"/>
      <use x="431.267578" xlink:href="#DejaVuSans-100"/>
      <use x="494.744141" xlink:href="#DejaVuSans-39"/>
      <use x="522.234375" xlink:href="#DejaVuSans-97"/>
      <use x="583.513672" xlink:href="#DejaVuSans-103"/>
      <use x="646.990234" xlink:href="#DejaVuSans-101"/>
      <use x="708.513672" xlink:href="#DejaVuSans-110"/>
      <use x="771.892578" xlink:href="#DejaVuSans-116"/>
      <use x="811.101562" xlink:href="#DejaVuSans-115"/>
      <use x="863.201172" xlink:href="#DejaVuSans-32"/>
      <use x="894.988281" xlink:href="#DejaVuSans-115"/>
      <use x="947.087891" xlink:href="#DejaVuSans-121"/>
      <use x="1006.267578" xlink:href="#DejaVuSans-109"/>
      <use x="1103.679688" xlink:href="#DejaVuSans-112"/>
      <use x="1167.15625" xlink:href="#DejaVuSans-116"/>
      <use x="1206.365234" xlink:href="#DejaVuSans-111"/>
      <use x="1267.546875" xlink:href="#DejaVuSans-109"/>
      <use x="1364.958984" xlink:href="#DejaVuSans-97"/>
      <use x="1426.238281" xlink:href="#DejaVuSans-116"/>
      <use x="1465.447266" xlink:href="#DejaVuSans-105"/>
      <use x="1493.230469" xlink:href="#DejaVuSans-113"/>
      <use x="1556.707031" xlink:href="#DejaVuSans-117"/>
      <use x="1620.085938" xlink:href="#DejaVuSans-101"/>
     </g>
    </g>
   </g>
   <g id="line2d_19">
    <path clip-path="url(#p6bc82464de)" d="M 57.681818 307.8 
L 58.340614 306.062096 
L 58.99941 302.586289 
L 60.317001 291.526901 
L 61.634593 274.779828 
L 62.293388 266.880265 
L 62.952184 255.820877 
L 64.269776 242.075638 
L 65.587367 227.382452 
L 66.246163 218.692933 
L 67.563754 205.421667 
L 68.22255 202.577825 
L 69.540142 191.676428 
L 70.198937 182.196953 
L 70.857733 177.141233 
L 72.175325 162.92202 
L 72.83412 159.446212 
L 73.492916 160.868134 
L 74.151712 155.654422 
L 74.810508 155.33844 
L 75.469303 150.440711 
L 76.128099 149.01879 
L 76.786895 147.122895 
L 77.445691 146.332938 
L 78.104486 144.437043 
L 78.763282 144.121061 
L 79.422078 146.016956 
L 80.080874 143.173113 
L 80.739669 144.753026 
L 81.398465 144.595035 
L 82.057261 147.596868 
L 82.716057 145.384991 
L 83.374852 143.805078 
L 84.033648 140.961236 
L 84.692444 143.805078 
L 85.35124 143.015122 
L 86.010035 142.541148 
L 86.668831 142.69914 
L 87.327627 140.013288 
L 87.986423 143.331105 
L 88.645218 141.435209 
L 89.304014 142.857131 
L 89.96281 145.069008 
L 90.621606 146.016956 
L 91.280401 148.702807 
L 91.939197 150.756693 
L 92.597993 150.124728 
L 93.256789 154.548484 
L 93.915584 156.760361 
L 94.57438 156.286387 
L 95.233176 158.024291 
L 95.891972 159.446212 
L 96.550767 163.080011 
L 97.209563 163.553985 
L 97.868359 162.290055 
L 98.527155 163.238003 
L 99.844746 170.031626 
L 100.503542 172.717478 
L 101.162338 176.82525 
L 101.821133 179.669093 
L 102.479929 181.406997 
L 103.138725 182.196953 
L 104.456316 185.514769 
L 105.773908 191.202455 
L 106.432704 189.622542 
L 107.091499 192.466385 
L 107.750295 194.520271 
L 108.409091 195.310227 
L 109.067887 198.944026 
L 109.726682 198.786035 
L 110.385478 197.364113 
L 111.044274 197.364113 
L 111.70307 199.575991 
L 112.361865 201.313895 
L 113.020661 205.105685 
L 113.679457 206.211624 
L 114.338253 208.739484 
L 114.997048 209.52944 
L 115.655844 209.52944 
L 116.31464 212.215291 
L 116.973436 213.637213 
L 117.632231 211.741318 
L 118.291027 214.743151 
L 118.949823 215.84909 
L 119.608619 215.217125 
L 120.267414 219.166906 
L 120.92621 218.060968 
L 121.585006 219.482889 
L 122.902597 226.276513 
L 123.561393 225.486557 
L 124.220189 225.96053 
L 124.878985 226.592495 
L 125.53778 225.644548 
L 126.196576 227.540443 
L 126.855372 227.382452 
L 127.514168 227.698434 
L 128.172963 229.278347 
L 128.831759 231.174242 
L 129.490555 231.490224 
L 130.149351 231.174242 
L 131.466942 236.703936 
L 132.125738 237.493892 
L 132.784534 237.651883 
L 133.443329 238.599831 
L 134.102125 242.075638 
L 134.760921 241.601665 
L 135.419717 241.443673 
L 136.078512 241.601665 
L 136.737308 240.337735 
L 138.0549 236.861927 
L 138.713695 235.597997 
L 139.372491 236.387953 
L 140.031287 238.757822 
L 140.690083 237.809874 
L 141.348878 237.967866 
L 142.007674 242.23363 
L 142.66647 244.445507 
L 143.325266 248.395288 
L 143.984061 249.501227 
L 144.642857 249.81721 
L 145.960449 256.452842 
L 146.619244 260.560615 
L 147.27804 262.45651 
L 147.936836 263.878431 
L 149.254427 267.670221 
L 149.913223 268.144195 
L 150.572019 270.04009 
L 151.230815 270.04009 
L 151.88961 270.830047 
L 152.548406 270.988038 
L 153.207202 272.409959 
L 154.524793 276.201749 
L 155.183589 276.675723 
L 155.842385 276.35974 
L 156.501181 275.569784 
L 157.159976 276.675723 
L 157.818772 276.675723 
L 158.477568 276.35974 
L 159.136364 275.20391 
L 159.795159 275.037603 
L 160.453955 276.201749 
L 161.112751 276.368056 
L 161.771547 278.031122 
L 162.430342 277.199589 
L 163.747934 278.530041 
L 164.40673 279.028961 
L 165.065525 278.862655 
L 165.724321 278.862655 
L 166.383117 280.52572 
L 167.041913 279.888212 
L 167.700708 281.292578 
L 168.359504 283.399129 
L 169.0183 283.574674 
L 169.677096 284.276858 
L 170.335891 284.101312 
L 170.994687 284.276858 
L 171.653483 285.85677 
L 172.312279 286.383408 
L 172.971074 288.138866 
L 173.62987 289.367687 
L 174.288666 289.718779 
L 174.947462 289.192141 
L 176.265053 291.825329 
L 176.923849 292.351966 
L 177.582645 292.558491 
L 178.24144 292.186747 
L 178.900236 291.210918 
L 179.559032 290.736945 
L 180.217828 289.26236 
L 180.876623 290.736945 
L 181.535419 291.79022 
L 182.194215 293.47546 
L 182.853011 294.528735 
L 183.511806 295.1607 
L 184.829398 297.68856 
L 185.488194 297.899215 
L 186.146989 296.289209 
L 187.464581 294.634062 
L 188.123377 294.370743 
L 188.782172 294.370743 
L 189.440968 294.897381 
L 190.099764 294.107425 
L 190.75856 293.05415 
L 191.417355 293.317468 
L 192.076151 291.713618 
L 192.734947 291.052927 
L 193.393743 290.736945 
L 194.711334 285.681224 
L 195.37013 285.330133 
L 196.028926 283.925766 
L 196.687721 282.916377 
L 197.346517 282.521399 
L 198.005313 280.941487 
L 198.664109 280.151531 
L 199.322904 277.386684 
L 199.9817 277.781662 
L 200.640496 279.361574 
L 201.299292 274.847538 
L 201.958087 271.988649 
L 202.616883 277.255024 
L 203.275679 278.834937 
L 203.934475 279.361574 
L 204.59327 279.361574 
L 205.252066 277.781662 
L 205.910862 279.888212 
L 206.569658 284.101312 
L 207.887249 283.048037 
L 208.546045 278.308299 
L 209.863636 278.308299 
L 210.522432 275.148474 
L 211.840024 273.041924 
L 212.498819 271.462012 
L 213.157615 270.408737 
L 213.816411 273.041924 
L 214.475207 274.621837 
L 215.134002 272.515287 
L 215.792798 274.095199 
L 216.451594 274.095199 
L 217.11039 276.201749 
L 217.769185 275.675112 
L 218.427981 276.201749 
L 219.086777 275.675112 
L 219.745573 274.095199 
L 220.404368 275.148474 
L 221.063164 268.618169 
L 221.72196 273.673889 
L 222.380756 273.041924 
L 223.039551 274.305854 
L 223.698347 274.937819 
L 224.357143 276.201749 
L 225.015939 276.833714 
L 225.674734 279.361574 
L 226.33353 278.729609 
L 227.651122 281.257469 
L 228.309917 278.729609 
L 228.968713 281.889434 
L 229.627509 281.889434 
L 230.286305 280.625504 
L 230.9451 279.993539 
L 231.603896 277.465679 
L 232.262692 278.097644 
L 232.921488 279.993539 
L 233.580283 283.153364 
L 234.239079 279.993539 
L 234.897875 281.257469 
L 235.556671 283.153364 
L 236.874262 281.889434 
L 237.533058 279.993539 
L 238.191854 281.889434 
L 238.850649 276.201749 
L 239.509445 279.361574 
L 240.168241 279.361574 
L 240.827037 280.151531 
L 241.485832 281.731443 
L 242.144628 282.521399 
L 242.803424 284.101312 
L 243.46222 286.471181 
L 244.121015 287.261137 
L 244.779811 287.261137 
L 245.438607 285.681224 
L 246.097403 284.891268 
L 246.756198 283.311356 
L 247.414994 282.521399 
L 248.07379 280.941487 
L 248.732586 283.311356 
L 249.391381 284.891268 
L 250.708973 283.311356 
L 251.367769 283.311356 
L 252.026564 287.261137 
L 252.68536 285.681224 
L 253.344156 282.521399 
L 254.002952 285.681224 
L 254.661747 280.414849 
L 255.320543 282.521399 
L 255.979339 282.521399 
L 256.638135 285.681224 
L 257.29693 283.574674 
L 257.955726 282.521399 
L 258.614522 278.308299 
L 259.932113 276.201749 
L 261.249705 282.521399 
L 262.567296 284.627949 
L 263.226092 282.521399 
L 263.884888 282.521399 
L 264.543684 283.574674 
L 265.202479 285.681224 
L 265.861275 289.894325 
L 266.520071 288.84105 
L 267.178867 290.9476 
L 267.837662 290.9476 
L 268.496458 289.894325 
L 269.155254 289.894325 
L 271.131641 293.05415 
L 271.790437 293.05415 
L 272.449233 290.9476 
L 273.108028 290.9476 
L 273.766824 292.000875 
L 275.084416 292.000875 
L 275.743211 289.894325 
L 277.060803 294.107425 
L 277.719599 295.1607 
L 278.378394 295.1607 
L 279.03719 294.107425 
L 280.354782 296.213975 
L 281.013577 290.420962 
L 281.672373 293.580787 
L 282.331169 292.000875 
L 282.989965 295.1607 
L 284.307556 298.320525 
L 284.966352 295.1607 
L 286.942739 295.1607 
L 287.601535 292.000875 
L 288.260331 279.361574 
L 289.577922 279.361574 
L 290.236718 282.521399 
L 290.895514 288.84105 
L 292.871901 288.84105 
L 293.530697 295.1607 
L 294.189492 295.1607 
L 295.507084 288.84105 
L 297.483471 298.320525 
L 298.142267 298.320525 
L 298.801063 295.1607 
L 299.459858 298.320525 
L 302.753837 298.320525 
L 304.071429 304.640175 
L 311.318182 304.640175 
L 311.318182 304.640175 
" style="fill:none;stroke:#1f77b4;stroke-linecap:square;stroke-width:1.5;"/>
   </g>
   <g id="line2d_20">
    <path clip-path="url(#p6bc82464de)" d="M 57.681818 307.8 
L 58.340614 306.53607 
L 58.99941 303.218254 
L 60.317001 293.422796 
L 60.975797 286.471181 
L 61.634593 281.257469 
L 62.293388 271.777994 
L 62.952184 264.98437 
L 63.61098 255.820877 
L 64.269776 248.395288 
L 64.928571 239.547778 
L 65.587367 233.386119 
L 66.246163 223.274679 
L 66.904959 220.114854 
L 67.563754 211.267344 
L 68.22255 204.315729 
L 68.881346 199.102017 
L 69.540142 195.942192 
L 70.857733 186.778699 
L 72.175325 176.509268 
L 72.83412 170.031626 
L 73.492916 165.133898 
L 74.151712 161.342107 
L 74.810508 156.760361 
L 75.469303 154.232501 
L 77.445691 143.647087 
L 78.104486 145.227 
L 78.763282 143.96307 
L 79.422078 139.697306 
L 80.080874 136.695472 
L 80.739669 136.063507 
L 81.398465 129.111892 
L 82.057261 125.004119 
L 82.716057 122.002285 
L 83.374852 121.844294 
L 84.033648 119.632416 
L 84.692444 116.630583 
L 85.35124 115.524644 
L 86.010035 114.734688 
L 86.668831 114.576696 
L 87.327627 110.626915 
L 87.986423 108.257046 
L 88.645218 105.413204 
L 89.304014 107.309099 
L 89.96281 103.201326 
L 90.621606 103.833291 
L 91.280401 101.937396 
L 91.939197 98.461588 
L 92.597993 99.409536 
L 93.256789 103.6753 
L 93.915584 101.463422 
L 94.57438 100.199492 
L 95.233176 97.197658 
L 95.891972 97.829623 
L 96.550767 100.831457 
L 97.209563 100.673466 
L 97.868359 97.829623 
L 98.527155 99.409536 
L 99.18595 103.833291 
L 99.844746 99.88351 
L 100.503542 98.145606 
L 101.162338 94.037833 
L 101.821133 91.825956 
L 102.479929 92.773903 
L 103.138725 90.246043 
L 103.797521 91.509973 
L 104.456316 87.560192 
L 105.115112 90.562026 
L 105.773908 94.82779 
L 106.432704 94.985781 
L 107.091499 88.982113 
L 107.750295 93.247877 
L 108.409091 93.247877 
L 109.067887 92.141938 
L 109.726682 93.089886 
L 110.385478 96.723685 
L 111.044274 97.671632 
L 111.70307 100.041501 
L 112.361865 100.357483 
L 113.020661 104.781239 
L 113.679457 108.415037 
L 114.338253 111.100889 
L 114.997048 109.047002 
L 115.655844 109.836959 
L 116.31464 110.942897 
L 116.973436 114.576696 
L 118.291027 118.526478 
L 118.949823 120.264381 
L 119.608619 122.476259 
L 120.267414 126.584032 
L 120.92621 129.585865 
L 121.585006 128.637918 
L 122.243802 134.483594 
L 122.902597 138.117393 
L 123.561393 136.695472 
L 124.220189 138.591367 
L 125.53778 143.96307 
L 126.196576 145.542982 
L 126.855372 150.124728 
L 127.514168 148.702807 
L 128.172963 148.386825 
L 128.831759 150.914685 
L 129.490555 152.020624 
L 130.808146 158.182282 
L 131.466942 162.764029 
L 132.784534 165.765863 
L 134.760921 175.56132 
L 135.419717 175.087347 
L 136.078512 179.511102 
L 136.737308 182.986909 
L 137.396104 182.512936 
L 138.0549 182.670927 
L 138.713695 184.250839 
L 139.372491 190.096516 
L 140.031287 193.730315 
L 140.690083 196.574157 
L 141.348878 197.680096 
L 142.007674 201.471886 
L 142.66647 203.20979 
L 143.325266 204.315729 
L 143.984061 207.00158 
L 145.960449 210.003414 
L 146.619244 211.267344 
L 147.27804 212.215291 
L 147.936836 211.425335 
L 148.595632 212.215291 
L 149.254427 216.323064 
L 150.572019 219.008915 
L 151.230815 224.222627 
L 151.88961 223.906644 
L 152.548406 225.170574 
L 153.207202 228.48839 
L 153.865998 227.382452 
L 154.524793 227.066469 
L 155.183589 228.48839 
L 155.842385 231.964198 
L 157.159976 236.387953 
L 157.818772 235.913979 
L 158.477568 236.071971 
L 159.795159 244.445507 
L 160.453955 243.971533 
L 161.112751 245.393455 
L 161.771547 247.28935 
L 162.430342 249.81721 
L 163.089138 249.81721 
L 163.747934 249.027253 
L 165.065525 251.871096 
L 165.724321 250.923149 
L 167.041913 251.871096 
L 167.700708 252.819044 
L 168.359504 252.503061 
L 169.0183 253.609 
L 169.677096 254.082974 
L 170.335891 255.504895 
L 170.994687 257.242799 
L 171.653483 257.084807 
L 172.971074 258.348737 
L 173.62987 258.190746 
L 174.288666 257.242799 
L 176.265053 261.508563 
L 176.923849 262.140528 
L 177.582645 262.45651 
L 178.24144 262.930484 
L 178.900236 263.246466 
L 179.559032 264.668388 
L 180.217828 264.352405 
L 180.876623 266.880265 
L 181.535419 268.460178 
L 182.194215 269.250134 
L 182.853011 268.934152 
L 183.511806 268.302186 
L 184.170602 270.672055 
L 184.829398 272.093977 
L 185.488194 272.56795 
L 186.146989 273.83188 
L 186.805785 276.517732 
L 187.464581 278.571618 
L 188.123377 278.255635 
L 189.440968 279.993539 
L 190.099764 280.467513 
L 190.75856 279.835548 
L 191.417355 280.309522 
L 192.076151 280.309522 
L 192.734947 280.467513 
L 193.393743 279.677557 
L 194.052538 279.993539 
L 194.711334 280.467513 
L 195.37013 280.625504 
L 196.028926 281.573452 
L 196.687721 281.889434 
L 197.346517 282.355093 
L 198.005313 282.188786 
L 198.664109 283.186626 
L 199.9817 283.851852 
L 200.640496 284.683385 
L 201.299292 284.452404 
L 201.958087 284.38012 
L 202.616883 285.123608 
L 203.275679 283.706334 
L 203.934475 284.693779 
L 204.59327 285.088757 
L 205.252066 284.298801 
L 205.910862 281.468124 
L 206.569658 281.046814 
L 207.228453 281.257469 
L 207.887249 281.046814 
L 208.546045 280.414849 
L 209.204841 282.100089 
L 209.863636 281.678779 
L 210.522432 281.678779 
L 211.181228 281.046814 
L 211.840024 278.632384 
L 212.498819 278.875447 
L 213.157615 281.063019 
L 213.816411 282.035272 
L 214.475207 279.888212 
L 215.134002 279.648831 
L 215.792798 278.499804 
L 216.451594 279.074317 
L 217.11039 279.361574 
L 218.427981 274.305854 
L 219.086777 277.149697 
L 219.745573 275.253802 
L 220.404368 275.885767 
L 221.063164 275.569784 
L 221.72196 274.937819 
L 223.039551 278.097644 
L 223.698347 278.729609 
L 225.015939 283.469347 
L 225.674734 284.101312 
L 226.33353 283.223583 
L 226.992326 279.756552 
L 227.651122 278.17664 
L 228.309917 279.361574 
L 228.968713 279.361574 
L 230.286305 278.458767 
L 230.9451 276.201749 
L 231.603896 277.255024 
L 232.262692 279.361574 
L 232.921488 279.888212 
L 233.580283 278.308299 
L 234.897875 278.308299 
L 235.556671 280.941487 
L 236.215466 281.994762 
L 236.874262 280.941487 
L 238.191854 286.734499 
L 238.850649 286.207862 
L 239.509445 288.314412 
L 240.168241 287.577119 
L 240.827037 286.313189 
L 241.485832 285.681224 
L 242.803424 289.473015 
L 243.46222 293.89677 
L 244.121015 293.89677 
L 244.779811 293.264805 
L 245.438607 293.264805 
L 246.097403 292.63284 
L 246.756198 292.63284 
L 247.414994 293.264805 
L 248.07379 294.528735 
L 248.732586 294.528735 
L 249.391381 291.210918 
L 250.050177 293.580787 
L 250.708973 295.1607 
L 252.026564 295.1607 
L 252.68536 296.740612 
L 254.002952 298.320525 
L 254.661747 296.213975 
L 255.979339 298.320525 
L 256.638135 298.320525 
L 257.955726 300.427075 
L 258.614522 300.427075 
L 259.273318 298.320525 
L 260.590909 301.48035 
L 261.908501 301.48035 
L 262.567296 303.060262 
L 263.884888 303.060262 
L 264.543684 304.640175 
L 277.719599 304.640175 
L 277.719599 304.640175 
" style="fill:none;stroke:#ff7f0e;stroke-linecap:square;stroke-width:1.5;"/>
   </g>
   <g id="line2d_21"/>
   <g id="line2d_22"/>
   <g id="line2d_23"/>
   <g id="patch_3">
    <path d="M 45 320.4 
L 45 43.2 
" style="fill:none;stroke:#000000;stroke-linecap:square;stroke-linejoin:miter;stroke-width:0.8;"/>
   </g>
   <g id="patch_4">
    <path d="M 324 320.4 
L 324 43.2 
" style="fill:none;stroke:#000000;stroke-linecap:square;stroke-linejoin:miter;stroke-width:0.8;"/>
   </g>
   <g id="patch_5">
    <path d="M 45 320.4 
L 324 320.4 
" style="fill:none;stroke:#000000;stroke-linecap:square;stroke-linejoin:miter;stroke-width:0.8;"/>
   </g>
   <g id="patch_6">
    <path d="M 45 43.2 
L 324 43.2 
" style="fill:none;stroke:#000000;stroke-linecap:square;stroke-linejoin:miter;stroke-width:0.8;"/>
   </g>
   <g id="legend_1">
    <g id="patch_7">
     <path d="M 222.76875 95.234375 
L 317 95.234375 
Q 319 95.234375 319 93.234375 
L 319 50.2 
Q 319 48.2 317 48.2 
L 222.76875 48.2 
Q 220.76875 48.2 220.76875 50.2 
L 220.76875 93.234375 
Q 220.76875 95.234375 222.76875 95.234375 
z
" style="fill:#ffffff;opacity:0.8;stroke:#cccccc;stroke-linejoin:miter;"/>
    </g>
    <g id="line2d_24">
     <path d="M 224.76875 56.298437 
L 244.76875 56.298437 
" style="fill:none;"/>
    </g>
    <g id="line2d_25"/>
    <g id="text_21">
     <!-- Quarantaine -->
     <defs>
      <path d="M 39.40625 66.21875 
Q 28.65625 66.21875 22.328125 58.203125 
Q 16.015625 50.203125 16.015625 36.375 
Q 16.015625 22.609375 22.328125 14.59375 
Q 28.65625 6.59375 39.40625 6.59375 
Q 50.140625 6.59375 56.421875 14.59375 
Q 62.703125 22.609375 62.703125 36.375 
Q 62.703125 50.203125 56.421875 58.203125 
Q 50.140625 66.21875 39.40625 66.21875 
z
M 53.21875 1.3125 
L 66.21875 -12.890625 
L 54.296875 -12.890625 
L 43.5 -1.21875 
Q 41.890625 -1.3125 41.03125 -1.359375 
Q 40.1875 -1.421875 39.40625 -1.421875 
Q 24.03125 -1.421875 14.8125 8.859375 
Q 5.609375 19.140625 5.609375 36.375 
Q 5.609375 53.65625 14.8125 63.9375 
Q 24.03125 74.21875 39.40625 74.21875 
Q 54.734375 74.21875 63.90625 63.9375 
Q 73.09375 53.65625 73.09375 36.375 
Q 73.09375 23.6875 67.984375 14.640625 
Q 62.890625 5.609375 53.21875 1.3125 
z
" id="DejaVuSans-81"/>
     </defs>
     <g transform="translate(252.76875 59.798437)scale(0.1 -0.1)">
      <use xlink:href="#DejaVuSans-81"/>
      <use x="78.710938" xlink:href="#DejaVuSans-117"/>
      <use x="142.089844" xlink:href="#DejaVuSans-97"/>
      <use x="203.369141" xlink:href="#DejaVuSans-114"/>
      <use x="244.482422" xlink:href="#DejaVuSans-97"/>
      <use x="305.761719" xlink:href="#DejaVuSans-110"/>
      <use x="369.140625" xlink:href="#DejaVuSans-116"/>
      <use x="408.349609" xlink:href="#DejaVuSans-97"/>
      <use x="469.628906" xlink:href="#DejaVuSans-105"/>
      <use x="497.412109" xlink:href="#DejaVuSans-110"/>
      <use x="560.791016" xlink:href="#DejaVuSans-101"/>
     </g>
    </g>
    <g id="line2d_26">
     <path d="M 224.76875 70.976562 
L 244.76875 70.976562 
" style="fill:none;stroke:#1f77b4;stroke-linecap:square;stroke-width:1.5;"/>
    </g>
    <g id="line2d_27"/>
    <g id="text_22">
     <!-- oui -->
     <g transform="translate(252.76875 74.476562)scale(0.1 -0.1)">
      <use xlink:href="#DejaVuSans-111"/>
      <use x="61.181641" xlink:href="#DejaVuSans-117"/>
      <use x="124.560547" xlink:href="#DejaVuSans-105"/>
     </g>
    </g>
    <g id="line2d_28">
     <path d="M 224.76875 85.654687 
L 244.76875 85.654687 
" style="fill:none;stroke:#ff7f0e;stroke-linecap:square;stroke-width:1.5;"/>
    </g>
    <g id="line2d_29"/>
    <g id="text_23">
     <!-- non -->
     <g transform="translate(252.76875 89.154687)scale(0.1 -0.1)">
      <use xlink:href="#DejaVuSans-110"/>
      <use x="63.378906" xlink:href="#DejaVuSans-111"/>
      <use x="124.560547" xlink:href="#DejaVuSans-110"/>
     </g>
    </g>
   </g>
  </g>
 </g>
 <defs>
  <clipPath id="p6bc82464de">
   <rect height="277.2" width="279" x="45" y="43.2"/>
  </clipPath>
 </defs>
</svg>
