<?xml version="1.0" encoding="utf-8" standalone="no"?>
<!DOCTYPE svg PUBLIC "-//W3C//DTD SVG 1.1//EN"
  "http://www.w3.org/Graphics/SVG/1.1/DTD/svg11.dtd">
<!-- Created with matplotlib (https://matplotlib.org/) -->
<svg height="360pt" version="1.1" viewBox="0 0 360 360" width="360pt" xmlns="http://www.w3.org/2000/svg" xmlns:xlink="http://www.w3.org/1999/xlink">
 <defs>
  <style type="text/css">
*{stroke-linecap:butt;stroke-linejoin:round;}
  </style>
 </defs>
 <g id="figure_1">
  <g id="patch_1">
   <path d="M 0 360 
L 360 360 
L 360 0 
L 0 0 
z
" style="fill:#ffffff;"/>
  </g>
  <g id="axes_1">
   <g id="patch_2">
    <path d="M 45 320.4 
L 324 320.4 
L 324 43.2 
L 45 43.2 
z
" style="fill:#ffffff;"/>
   </g>
   <g id="PolyCollection_1">
    <defs>
     <path d="M 57.681818 -52.2 
L 57.681818 -52.2 
L 58.332168 -62.207645 
L 58.982517 -78.319953 
L 59.632867 -93.8293 
L 60.283217 -103.036333 
L 60.933566 -111.245104 
L 61.583916 -120.051831 
L 62.234266 -125.153228 
L 62.884615 -129.65917 
L 63.534965 -132.058503 
L 64.185315 -135.656251 
L 64.835664 -139.063854 
L 65.486014 -143.166989 
L 66.136364 -147.465272 
L 66.786713 -149.967183 
L 67.437063 -149.972187 
L 68.087413 -151.263173 
L 68.737762 -151.073028 
L 69.388112 -154.678282 
L 70.038462 -156.279505 
L 70.688811 -156.474654 
L 71.339161 -156.98004 
L 71.98951 -159.07414 
L 72.63986 -154.67578 
L 73.29021 -156.079352 
L 73.940559 -153.975245 
L 74.590909 -152.574175 
L 75.241259 -151.273181 
L 75.891608 -152.276447 
L 76.541958 -151.173104 
L 77.192308 -149.469303 
L 77.842657 -149.471805 
L 78.493007 -149.772034 
L 79.143357 -150.264911 
L 79.793706 -150.475071 
L 80.444056 -147.770505 
L 81.094406 -148.363458 
L 81.744755 -146.57209 
L 82.395105 -144.370408 
L 83.045455 -141.946056 
L 83.695804 -140.267274 
L 84.346154 -138.56097 
L 84.996503 -139.566738 
L 85.646853 -136.561943 
L 86.297203 -137.257474 
L 86.947552 -136.161637 
L 87.597902 -136.652012 
L 88.248252 -136.962249 
L 88.898601 -135.058295 
L 89.548951 -132.859115 
L 90.199301 -132.058503 
L 90.84965 -130.960164 
L 91.5 -131.06024 
L 92.15035 -131.155313 
L 92.800699 -128.358176 
L 93.451049 -125.353381 
L 94.101399 -124.94557 
L 94.751748 -124.044882 
L 95.402098 -121.650553 
L 96.052448 -121.552978 
L 96.702797 -120.452137 
L 97.353147 -117.644993 
L 98.003497 -115.648468 
L 98.653846 -114.147321 
L 99.304196 -114.144819 
L 99.954545 -111.843061 
L 100.604895 -111.34518 
L 101.255245 -109.135993 
L 101.905594 -107.942581 
L 102.555944 -107.039391 
L 103.206294 -104.53748 
L 103.856643 -102.738606 
L 104.506993 -101.335034 
L 105.157343 -100.929724 
L 105.807692 -98.435319 
L 106.458042 -97.634707 
L 107.108392 -95.330447 
L 107.758741 -94.232108 
L 108.409091 -92.630885 
L 109.059441 -91.427465 
L 109.70979 -89.028133 
L 110.36014 -88.027368 
L 111.01049 -87.326833 
L 111.660839 -86.623796 
L 112.311189 -84.82242 
L 112.961538 -84.019306 
L 113.611888 -83.12112 
L 114.262238 -81.72005 
L 114.912587 -81.419821 
L 115.562937 -79.918674 
L 116.213287 -78.920411 
L 116.863636 -78.815331 
L 117.513986 -77.116533 
L 118.164336 -77.319188 
L 118.814685 -76.518577 
L 119.465035 -77.016457 
L 120.115385 -75.717965 
L 120.765734 -74.917354 
L 121.416084 -74.717201 
L 122.066434 -74.016666 
L 122.716783 -74.314393 
L 123.367133 -73.115977 
L 124.017483 -72.71317 
L 124.667832 -72.115213 
L 125.318182 -72.212788 
L 125.968531 -71.714907 
L 126.618881 -71.91506 
L 127.269231 -71.114449 
L 127.91958 -70.811717 
L 128.56993 -71.369907 
L 129.22028 -71.048609 
L 129.870629 -70.635135 
L 130.520979 -70.527158 
L 131.171329 -70.316471 
L 131.821678 -69.579065 
L 132.472028 -68.947003 
L 133.122378 -68.633606 
L 133.772727 -69.052347 
L 134.423077 -68.212232 
L 135.073427 -67.790857 
L 135.723776 -67.998911 
L 136.374126 -68.317575 
L 137.024476 -67.577536 
L 137.674825 -66.840131 
L 138.325175 -66.316046 
L 138.975524 -65.786695 
L 139.625874 -65.367954 
L 140.276224 -65.051923 
L 140.926573 -65.36532 
L 141.576923 -64.733258 
L 142.227273 -65.26261 
L 142.877622 -64.417227 
L 143.527972 -64.525205 
L 144.178322 -63.995853 
L 144.828671 -63.471768 
L 145.479021 -63.471768 
L 146.129371 -63.787799 
L 146.77972 -63.893143 
L 147.43007 -63.577112 
L 148.08042 -62.523676 
L 148.730769 -62.102301 
L 149.381119 -62.837073 
L 150.031469 -62.942417 
L 150.681818 -62.523676 
L 151.332168 -62.731729 
L 151.982517 -61.467606 
L 152.632867 -61.362262 
L 153.283217 -61.362262 
L 153.933566 -60.62749 
L 154.583916 -60.838178 
L 155.234266 -60.732834 
L 155.884615 -60.203482 
L 156.534965 -59.784741 
L 157.185315 -60.100772 
L 157.835664 -60.522147 
L 158.486014 -60.539704 
L 159.136364 -60.534144 
L 159.786713 -60.428508 
L 160.437063 -60.09214 
L 161.087413 -60.956689 
L 161.737762 -61.200625 
L 162.388112 -61.582167 
L 163.038462 -60.706498 
L 163.688811 -60.328084 
L 164.339161 -60.077893 
L 164.98951 -60.831594 
L 165.63986 -60.202988 
L 166.29021 -60.328084 
L 166.940559 -59.827702 
L 167.590909 -60.077893 
L 168.241259 -60.072681 
L 168.891608 -59.935909 
L 169.541958 -59.138634 
L 170.192308 -59.920183 
L 170.842657 -59.062385 
L 171.493007 -60.206116 
L 172.143357 -58.974406 
L 172.793706 -60.706498 
L 173.444056 -60.37291 
L 174.094406 -61.111353 
L 174.744755 -60.024159 
L 175.395105 -60.383524 
L 176.045455 -60.383524 
L 176.695804 -60.201567 
L 177.346154 -60.606422 
L 177.996503 -59.600653 
L 178.646853 -59.205351 
L 179.297203 -59.205351 
L 179.947552 -59.761332 
L 180.597902 -59.316547 
L 181.248252 -59.538939 
L 181.898601 -59.538939 
L 182.548951 -59.538939 
L 183.199301 -59.761332 
L 183.84965 -59.755772 
L 184.5 -60.200556 
L 185.15035 -59.983724 
L 185.800699 -59.983724 
L 186.451049 -60.417388 
L 187.101399 -59.755772 
L 187.751748 -59.094155 
L 188.402098 -58.866203 
L 189.052448 -59.316547 
L 189.702797 -59.094155 
L 190.353147 -59.094155 
L 191.003497 -58.421419 
L 191.653846 -58.426979 
L 192.304196 -58.643811 
L 192.954545 -58.704969 
L 193.604895 -58.454778 
L 194.255245 -58.704969 
L 194.905594 -58.204587 
L 195.555944 -58.704969 
L 196.206294 -58.95516 
L 196.856643 -60.777981 
L 197.506993 -60.206116 
L 198.157343 -60.4849 
L 198.807692 -60.206116 
L 199.458042 -59.920183 
L 200.108392 -60.206116 
L 200.758741 -60.777981 
L 201.409091 -60.492048 
L 202.059441 -60.198967 
L 202.70979 -59.348318 
L 203.36014 -59.062385 
L 204.01049 -58.197439 
L 204.660839 -57.346789 
L 205.311189 -57.632721 
L 205.961538 -57.346789 
L 206.611888 -57.911506 
L 207.262238 -57.537411 
L 207.912587 -59.405504 
L 208.562937 -59.005198 
L 209.213287 -57.804281 
L 209.863636 -57.804281 
L 210.513986 -57.403975 
L 211.164336 -57.403975 
L 211.814685 -56.603364 
L 212.465035 -57.403975 
L 213.115385 -56.603364 
L 213.765734 -57.203822 
L 214.416084 -56.70344 
L 215.066434 -56.70344 
L 215.716783 -56.203058 
L 216.367133 -56.203058 
L 217.017483 -56.203058 
L 217.667832 -56.203058 
L 218.318182 -56.203058 
L 218.968531 -56.203058 
L 219.618881 -56.203058 
L 220.269231 -56.203058 
L 220.91958 -56.203058 
L 221.56993 -54.201529 
L 222.22028 -54.201529 
L 222.870629 -54.201529 
L 223.520979 -54.201529 
L 224.171329 -54.201529 
L 224.821678 -54.201529 
L 225.472028 -54.201529 
L 226.122378 -54.201529 
L 226.772727 -54.201529 
L 227.423077 -54.201529 
L 228.073427 -54.201529 
L 228.723776 -54.201529 
L 229.374126 -54.201529 
L 230.024476 -54.201529 
L 230.674825 -54.201529 
L 231.325175 -54.201529 
L 231.975524 -54.201529 
L 232.625874 -54.201529 
L 233.276224 -54.201529 
L 233.926573 -54.201529 
L 234.576923 -54.201529 
L 235.227273 -54.201529 
L 235.877622 -54.201529 
L 236.527972 -54.201529 
L 237.178322 -54.201529 
L 237.828671 -54.201529 
L 238.479021 -54.201529 
L 239.129371 -54.201529 
L 239.77972 -54.201529 
L 240.43007 -54.201529 
L 241.08042 -54.201529 
L 241.730769 -54.201529 
L 242.381119 -54.201529 
L 243.031469 -54.201529 
L 243.681818 -54.201529 
L 244.332168 -54.201529 
L 244.982517 -54.201529 
L 245.632867 -54.201529 
L 246.283217 -54.201529 
L 246.933566 -54.201529 
L 247.583916 -54.201529 
L 248.234266 -54.201529 
L 248.884615 -54.201529 
L 248.884615 -54.201529 
L 248.884615 -54.201529 
L 248.234266 -54.201529 
L 247.583916 -54.201529 
L 246.933566 -54.201529 
L 246.283217 -54.201529 
L 245.632867 -54.201529 
L 244.982517 -54.201529 
L 244.332168 -56.203058 
L 243.681818 -56.203058 
L 243.031469 -56.203058 
L 242.381119 -56.203058 
L 241.730769 -56.203058 
L 241.08042 -56.203058 
L 240.43007 -56.203058 
L 239.77972 -56.203058 
L 239.129371 -56.203058 
L 238.479021 -56.203058 
L 237.828671 -56.203058 
L 237.178322 -56.203058 
L 236.527972 -56.203058 
L 235.877622 -56.203058 
L 235.227273 -56.203058 
L 234.576923 -56.203058 
L 233.926573 -56.203058 
L 233.276224 -56.203058 
L 232.625874 -56.203058 
L 231.975524 -56.203058 
L 231.325175 -56.203058 
L 230.674825 -56.203058 
L 230.024476 -56.203058 
L 229.374126 -56.203058 
L 228.723776 -56.203058 
L 228.073427 -56.203058 
L 227.423077 -56.203058 
L 226.772727 -56.203058 
L 226.122378 -56.203058 
L 225.472028 -56.203058 
L 224.821678 -56.203058 
L 224.171329 -56.203058 
L 223.520979 -56.203058 
L 222.870629 -58.204587 
L 222.22028 -58.204587 
L 221.56993 -60.206116 
L 220.91958 -60.206116 
L 220.269231 -60.206116 
L 219.618881 -60.206116 
L 218.968531 -62.207645 
L 218.318182 -62.207645 
L 217.667832 -62.207645 
L 217.017483 -62.207645 
L 216.367133 -63.208409 
L 215.716783 -63.208409 
L 215.066434 -64.209174 
L 214.416084 -65.209938 
L 213.765734 -68.212232 
L 213.115385 -67.811926 
L 212.465035 -69.413149 
L 211.814685 -68.612537 
L 211.164336 -69.012843 
L 210.513986 -69.413149 
L 209.863636 -72.215289 
L 209.213287 -72.615595 
L 208.562937 -72.615595 
L 207.912587 -72.615595 
L 207.262238 -71.548113 
L 206.611888 -72.794303 
L 205.961538 -73.073088 
L 205.311189 -74.80298 
L 204.660839 -75.932415 
L 204.01049 -75.074617 
L 203.36014 -76.797361 
L 202.70979 -78.791742 
L 202.059441 -80.221405 
L 201.409091 -81.079203 
L 200.758741 -81.086352 
L 200.108392 -80.228554 
L 199.458042 -81.651069 
L 198.807692 -81.94415 
L 198.157343 -79.363607 
L 197.506993 -78.79889 
L 196.856643 -79.64954 
L 196.206294 -76.968921 
L 195.555944 -76.468538 
L 194.905594 -74.216818 
L 194.255245 -71.214525 
L 193.604895 -70.463952 
L 192.954545 -71.214525 
L 192.304196 -70.213761 
L 191.653846 -70.880937 
L 191.003497 -72.437682 
L 190.353147 -73.104858 
L 189.702797 -72.882466 
L 189.052448 -74.216818 
L 188.402098 -75.328779 
L 187.751748 -75.106387 
L 187.101399 -76.668691 
L 186.451049 -77.997484 
L 185.800699 -77.775092 
L 185.15035 -76.891083 
L 184.5 -76.668691 
L 183.84965 -77.330308 
L 183.199301 -76.218347 
L 182.548951 -76.218347 
L 181.898601 -76.891083 
L 181.248252 -77.55826 
L 180.597902 -75.551171 
L 179.947552 -77.775092 
L 179.297203 -75.42274 
L 178.646853 -76.623657 
L 177.996503 -79.620947 
L 177.346154 -79.425797 
L 176.695804 -77.128133 
L 176.045455 -77.319188 
L 175.395105 -76.764219 
L 174.744755 -76.946176 
L 174.094406 -79.129662 
L 173.444056 -78.057252 
L 172.793706 -78.557634 
L 172.143357 -77.145979 
L 171.493007 -77.761834 
L 170.842657 -75.364123 
L 170.192308 -77.07972 
L 169.541958 -77.419265 
L 168.891608 -77.689471 
L 168.241259 -77.822906 
L 167.590909 -76.343443 
L 166.940559 -76.343443 
L 166.29021 -76.093252 
L 165.63986 -75.846188 
L 164.98951 -76.972048 
L 164.339161 -77.47243 
L 163.688811 -78.094781 
L 163.038462 -78.59829 
L 162.388112 -79.095545 
L 161.737762 -78.723386 
L 161.087413 -78.219876 
L 160.437063 -75.887539 
L 159.786713 -77.107916 
L 159.136364 -77.891848 
L 158.486014 -76.332323 
L 157.835664 -74.954224 
L 157.185315 -75.375598 
L 156.534965 -73.584757 
L 155.884615 -73.6901 
L 155.234266 -74.532849 
L 154.583916 -72.636664 
L 153.933566 -73.584757 
L 153.283217 -73.271359 
L 152.632867 -73.58739 
L 151.982517 -73.900788 
L 151.332168 -75.694263 
L 150.681818 -74.851514 
L 150.031469 -74.114108 
L 149.381119 -73.268726 
L 148.730769 -72.952695 
L 148.08042 -73.479413 
L 147.43007 -73.900788 
L 146.77972 -74.74617 
L 146.129371 -74.532849 
L 145.479021 -73.900788 
L 144.828671 -74.430139 
L 144.178322 -75.062201 
L 143.527972 -76.850409 
L 142.877622 -76.326325 
L 142.227273 -77.693158 
L 141.576923 -78.433197 
L 140.926573 -77.693158 
L 140.276224 -77.801135 
L 139.625874 -78.433197 
L 138.975524 -79.800031 
L 138.325175 -81.277475 
L 137.674825 -83.171027 
L 137.024476 -83.17366 
L 136.374126 -84.859158 
L 135.723776 -84.013776 
L 135.073427 -85.699274 
L 134.423077 -85.175189 
L 133.772727 -85.385877 
L 133.122378 -85.067212 
L 132.472028 -85.59393 
L 131.821678 -84.961869 
L 131.171329 -84.645838 
L 130.520979 -84.551028 
L 129.870629 -85.385877 
L 129.22028 -85.804618 
L 128.56993 -86.65 
L 127.91958 -87.526986 
L 127.269231 -88.230023 
L 126.618881 -87.629564 
L 125.968531 -88.13495 
L 125.318182 -89.030635 
L 124.667832 -89.130711 
L 124.017483 -88.52775 
L 123.367133 -88.230023 
L 122.716783 -89.73117 
L 122.066434 -89.128209 
L 121.416084 -90.932087 
L 120.765734 -90.531781 
L 120.115385 -90.529279 
L 119.465035 -92.630885 
L 118.814685 -91.129738 
L 118.164336 -92.730961 
L 117.513986 -92.233081 
L 116.863636 -94.031955 
L 116.213287 -94.73249 
L 115.562937 -95.032719 
L 114.912587 -96.736521 
L 114.262238 -97.439558 
L 113.611888 -100.43935 
L 112.961538 -103.138912 
L 112.311189 -105.740899 
L 111.660839 -105.743401 
L 111.01049 -106.844242 
L 110.36014 -107.544777 
L 109.70979 -109.443728 
L 109.059441 -110.944875 
L 108.409091 -113.154062 
L 107.758741 -115.851122 
L 107.108392 -116.349003 
L 106.458042 -117.655 
L 105.807692 -119.253722 
L 105.157343 -119.956759 
L 104.506993 -122.556244 
L 103.856643 -125.158232 
L 103.206294 -126.959608 
L 102.555944 -129.16129 
L 101.905594 -132.661464 
L 101.255245 -133.667232 
L 100.604895 -135.368532 
L 99.954545 -138.068094 
L 99.304196 -141.470693 
L 98.653846 -145.070943 
L 98.003497 -145.871555 
L 97.353147 -146.974897 
L 96.702797 -149.376732 
L 96.052448 -152.281451 
L 95.402098 -151.478338 
L 94.751748 -154.277976 
L 94.101399 -156.181931 
L 93.451049 -157.082619 
L 92.800699 -158.986573 
L 92.15035 -162.584321 
L 91.5 -163.487511 
L 90.84965 -165.591619 
L 90.199301 -166.987685 
L 89.548951 -168.688985 
L 88.898601 -170.990743 
L 88.248252 -175.096379 
L 87.597902 -174.693571 
L 86.947552 -175.696838 
L 86.297203 -178.398902 
L 85.646853 -175.796914 
L 84.996503 -178.098673 
L 84.346154 -179.106943 
L 83.695804 -179.11695 
L 83.045455 -182.799764 
L 82.395105 -186.104788 
L 81.744755 -185.406755 
L 81.094406 -189.509889 
L 80.444056 -191.909222 
L 79.793706 -198.914574 
L 79.143357 -197.516005 
L 78.493007 -198.21654 
L 77.842657 -196.913045 
L 77.192308 -197.415929 
L 76.541958 -197.428438 
L 75.891608 -197.010619 
L 75.241259 -196.312586 
L 74.590909 -196.712892 
L 73.940559 -196.112433 
L 73.29021 -198.011384 
L 72.63986 -196.415164 
L 71.98951 -198.716923 
L 71.339161 -198.414191 
L 70.688811 -200.615873 
L 70.038462 -198.314115 
L 69.388112 -197.310849 
L 68.737762 -195.91228 
L 68.087413 -194.208479 
L 67.437063 -191.709069 
L 66.786713 -188.604198 
L 66.136364 -188.103815 
L 65.486014 -183.80303 
L 64.835664 -176.207228 
L 64.185315 -172.994774 
L 63.534965 -166.492307 
L 62.884615 -159.984836 
L 62.234266 -154.480631 
L 61.583916 -144.472986 
L 60.933566 -129.559094 
L 60.283217 -117.449844 
L 59.632867 -101.937994 
L 58.982517 -83.724081 
L 58.332168 -62.207645 
L 57.681818 -52.2 
z
" id="m111700da1d" style="stroke:#1f77b4;stroke-opacity:0.2;"/>
    </defs>
    <g clip-path="url(#pb057b5c1c2)">
     <use style="fill:#1f77b4;fill-opacity:0.2;stroke:#1f77b4;stroke-opacity:0.2;" x="0" xlink:href="#m111700da1d" y="360"/>
    </g>
   </g>
   <g id="PolyCollection_2">
    <defs>
     <path d="M 57.681818 -52.2 
L 57.681818 -52.2 
L 58.332168 -62.207645 
L 58.982517 -77.018959 
L 59.632867 -88.82798 
L 60.283217 -96.734019 
L 60.933566 -106.441434 
L 61.583916 -112.546098 
L 62.234266 -120.349559 
L 62.884615 -126.053916 
L 63.534965 -132.749031 
L 64.185315 -140.164695 
L 64.835664 -144.270332 
L 65.486014 -152.276447 
L 66.136364 -156.777386 
L 66.786713 -161.283328 
L 67.437063 -167.385489 
L 68.087413 -171.083314 
L 68.737762 -173.685301 
L 69.388112 -178.193745 
L 70.038462 -181.296115 
L 70.688811 -187.475836 
L 71.339161 -191.503913 
L 71.98951 -194.381111 
L 72.63986 -198.394176 
L 73.29021 -203.215359 
L 73.940559 -207.508639 
L 74.590909 -211.218973 
L 75.241259 -213.515727 
L 75.891608 -213.020349 
L 76.541958 -216.925832 
L 77.192308 -219.225089 
L 77.842657 -218.917354 
L 78.493007 -221.424269 
L 79.143357 -221.324192 
L 79.793706 -221.929655 
L 80.444056 -223.831107 
L 81.094406 -225.027021 
L 81.744755 -226.212927 
L 82.395105 -227.131128 
L 83.045455 -229.635541 
L 83.695804 -229.628035 
L 84.346154 -228.532198 
L 84.996503 -231.617055 
L 85.646853 -230.731378 
L 86.297203 -232.43518 
L 86.947552 -232.625325 
L 87.597902 -229.930767 
L 88.248252 -232.732907 
L 88.898601 -232.127445 
L 89.548951 -234.231552 
L 90.199301 -235.437473 
L 90.84965 -233.636097 
L 91.5 -235.434971 
L 92.15035 -235.224811 
L 92.800699 -235.637626 
L 93.451049 -234.33413 
L 94.101399 -233.931323 
L 94.751748 -230.73388 
L 95.402098 -232.82798 
L 96.052448 -233.135715 
L 96.702797 -230.73388 
L 97.353147 -231.534492 
L 98.003497 -231.737146 
L 98.653846 -232.735409 
L 99.304196 -231.536994 
L 99.954545 -229.933268 
L 100.604895 -234.326625 
L 101.255245 -231.23176 
L 101.905594 -229.72561 
L 102.555944 -229.930767 
L 103.206294 -230.22349 
L 103.856643 -232.635333 
L 104.506993 -230.636306 
L 105.157343 -230.536229 
L 105.807692 -231.732143 
L 106.458042 -230.018333 
L 107.108392 -229.432886 
L 107.758741 -233.818737 
L 108.409091 -231.034109 
L 109.059441 -228.629773 
L 109.70979 -223.328223 
L 110.36014 -224.226409 
L 111.01049 -223.508361 
L 111.660839 -220.713726 
L 112.311189 -218.992411 
L 112.961538 -218.817277 
L 113.611888 -215.319605 
L 114.262238 -215.121954 
L 114.912587 -215.317103 
L 115.562937 -213.508222 
L 116.213287 -213.921037 
L 116.863636 -213.615804 
L 117.513986 -211.81693 
L 118.164336 -212.412384 
L 118.814685 -209.61775 
L 119.465035 -212.022086 
L 120.115385 -208.912211 
L 120.765734 -206.718035 
L 121.416084 -208.311752 
L 122.066434 -206.495365 
L 122.716783 -205.412037 
L 123.367133 -201.496546 
L 124.017483 -199.097213 
L 124.667832 -193.900744 
L 125.318182 -194.408632 
L 125.968531 -191.794134 
L 126.618881 -191.388825 
L 127.269231 -188.9995 
L 127.91958 -186.284926 
L 128.56993 -184.896365 
L 129.22028 -182.196803 
L 129.870629 -182.692182 
L 130.520979 -180.295351 
L 131.171329 -176.795177 
L 131.821678 -178.288818 
L 132.472028 -177.090402 
L 133.122378 -173.690305 
L 133.772727 -169.884898 
L 134.423077 -170.678004 
L 135.073427 -169.989978 
L 135.723776 -168.886636 
L 136.374126 -167.883369 
L 137.024476 -166.279644 
L 137.674825 -164.983654 
L 138.325175 -163.872806 
L 138.975524 -166.267135 
L 139.625874 -162.179012 
L 140.276224 -160.878018 
L 140.926573 -164.082966 
L 141.576923 -159.071638 
L 142.227273 -156.564723 
L 142.877622 -155.076086 
L 143.527972 -158.273528 
L 144.178322 -154.450608 
L 144.828671 -153.970241 
L 145.479021 -152.676753 
L 146.129371 -149.769532 
L 146.77972 -148.873848 
L 147.43007 -147.873084 
L 148.08042 -145.866551 
L 148.730769 -146.969894 
L 149.381119 -145.258586 
L 150.031469 -141.763416 
L 150.681818 -139.161429 
L 151.332168 -136.749586 
L 151.982517 -135.260949 
L 152.632867 -135.456098 
L 153.283217 -134.157607 
L 153.933566 -132.361234 
L 154.583916 -128.851053 
L 155.234266 -130.257127 
L 155.884615 -129.451512 
L 156.534965 -128.658406 
L 157.185315 -128.052943 
L 157.835664 -127.35491 
L 158.486014 -128.15302 
L 159.136364 -124.347613 
L 159.786713 -123.75466 
L 160.437063 -124.355118 
L 161.087413 -124.352617 
L 161.737762 -121.04509 
L 162.388112 -119.148641 
L 163.038462 -121.15017 
L 163.688811 -119.146139 
L 164.339161 -118.0478 
L 164.98951 -116.248926 
L 165.63986 -117.649997 
L 166.29021 -112.836319 
L 166.940559 -113.742011 
L 167.590909 -111.642908 
L 168.241259 -110.339412 
L 168.891608 -111.943137 
L 169.541958 -110.642143 
L 170.192308 -111.039947 
L 170.842657 -108.13773 
L 171.493007 -107.439697 
L 172.143357 -105.040364 
L 172.793706 -103.033831 
L 173.444056 -102.435875 
L 174.094406 -100.631997 
L 174.744755 -101.735339 
L 175.395105 -101.535187 
L 176.045455 -100.331767 
L 176.695804 -100.03404 
L 177.346154 -95.433025 
L 177.996503 -94.432261 
L 178.646853 -93.629147 
L 179.297203 -96.968409 
L 179.947552 -94.021421 
L 180.597902 -93.281382 
L 181.248252 -93.597412 
L 181.898601 -93.178672 
L 182.548951 -92.017258 
L 183.199301 -92.017258 
L 183.84965 -90.961188 
L 184.5 -91.282486 
L 185.15035 -89.594355 
L 185.800699 -89.383667 
L 186.451049 -86.118015 
L 187.101399 -85.275266 
L 187.751748 -83.800455 
L 188.402098 -82.644309 
L 189.052448 -81.380185 
L 189.702797 -82.222934 
L 190.353147 -80.110794 
L 191.003497 -79.265412 
L 191.653846 -78.849304 
L 192.304196 -78.430564 
L 192.954545 -77.26915 
L 193.604895 -75.791706 
L 194.255245 -75.794339 
L 194.905594 -76.215714 
L 195.555944 -75.894416 
L 196.206294 -77.316408 
L 196.856643 -77.330308 
L 197.506993 -76.107151 
L 198.157343 -74.439211 
L 198.807692 -73.546862 
L 199.458042 -74.105622 
L 200.108392 -72.882466 
L 200.758741 -72.654514 
L 201.409091 -72.215289 
L 202.059441 -72.098534 
L 202.70979 -71.881701 
L 203.36014 -70.769741 
L 204.01049 -69.877392 
L 204.660839 -69.655 
L 205.311189 -69.09902 
L 205.961538 -68.101036 
L 206.611888 -67.98706 
L 207.262238 -67.878643 
L 207.912587 -67.653471 
L 208.562937 -66.766683 
L 209.213287 -66.096727 
L 209.863636 -65.312794 
L 210.513986 -66.56097 
L 211.164336 -65.854548 
L 211.814685 -66.08248 
L 212.465035 -65.835416 
L 213.115385 -65.954257 
L 213.765734 -64.831524 
L 214.416084 -65.209938 
L 215.066434 -64.87635 
L 215.716783 -63.942303 
L 216.367133 -64.87635 
L 217.017483 -63.535326 
L 217.667832 -63.637308 
L 218.318182 -64.638073 
L 218.968531 -64.209174 
L 219.618881 -63.061869 
L 220.269231 -63.351376 
L 220.91958 -62.775936 
L 221.56993 -63.58947 
L 222.22028 -63.439355 
L 222.870629 -65.043144 
L 223.520979 -65.706151 
L 224.171329 -65.376732 
L 224.821678 -65.205768 
L 225.472028 -64.87635 
L 226.122378 -65.209938 
L 226.772727 -65.043144 
L 227.423077 -64.542762 
L 228.073427 -64.205004 
L 228.723776 -64.04238 
L 229.374126 -64.04238 
L 230.024476 -63.708791 
L 230.674825 -62.874821 
L 231.325175 -62.874821 
L 231.975524 -63.299388 
L 232.625874 -61.84373 
L 233.276224 -62.808103 
L 233.926573 -63.008256 
L 234.576923 -61.807339 
L 235.227273 -61.602182 
L 235.877622 -61.20688 
L 236.527972 -60.406269 
L 237.178322 -60.606422 
L 237.828671 -60.201112 
L 238.479021 -60.806574 
L 239.129371 -59.80581 
L 239.77972 -60.005963 
L 240.43007 -60.428508 
L 241.08042 -60.428508 
L 241.730769 -60.200556 
L 242.381119 -59.538939 
L 243.031469 -59.316547 
L 243.681818 -59.538939 
L 244.332168 -59.310988 
L 244.982517 -59.538939 
L 245.632867 -58.649371 
L 246.283217 -58.426979 
L 246.933566 -57.754243 
L 247.583916 -57.315018 
L 248.234266 -57.982195 
L 248.884615 -58.204587 
L 249.534965 -57.537411 
L 250.185315 -57.537411 
L 250.835664 -57.537411 
L 251.486014 -57.315018 
L 252.136364 -56.42545 
L 252.786713 -56.70344 
L 253.437063 -57.632721 
L 254.087413 -57.346789 
L 254.737762 -57.33964 
L 255.388112 -57.33964 
L 256.038462 -57.346789 
L 256.688811 -57.346789 
L 257.339161 -57.346789 
L 257.98951 -57.632721 
L 258.63986 -57.060856 
L 259.29021 -56.488991 
L 259.940559 -56.488991 
L 260.590909 -56.488991 
L 261.241259 -56.203058 
L 261.891608 -55.631192 
L 262.541958 -55.86947 
L 263.192308 -55.86947 
L 263.842657 -55.535882 
L 264.493007 -56.603364 
L 265.143357 -56.603364 
L 265.793706 -56.603364 
L 266.444056 -56.603364 
L 267.094406 -56.603364 
L 267.744755 -56.603364 
L 268.395105 -56.203058 
L 269.045455 -56.203058 
L 269.695804 -56.203058 
L 270.346154 -56.203058 
L 270.996503 -56.203058 
L 271.646853 -56.203058 
L 272.297203 -56.203058 
L 272.947552 -54.601835 
L 273.597902 -54.601835 
L 274.248252 -54.601835 
L 274.898601 -55.402446 
L 275.548951 -55.402446 
L 276.199301 -55.002141 
L 276.84965 -55.002141 
L 277.5 -55.002141 
L 278.15035 -55.002141 
L 278.800699 -54.601835 
L 279.451049 -54.601835 
L 280.101399 -54.601835 
L 280.751748 -54.201529 
L 281.402098 -54.201529 
L 282.052448 -54.201529 
L 282.702797 -54.201529 
L 283.353147 -54.201529 
L 284.003497 -54.201529 
L 284.653846 -54.201529 
L 285.304196 -54.201529 
L 285.954545 -54.201529 
L 286.604895 -54.201529 
L 287.255245 -54.201529 
L 287.905594 -54.201529 
L 288.555944 -54.201529 
L 289.206294 -54.201529 
L 289.856643 -54.201529 
L 290.506993 -54.201529 
L 291.157343 -54.201529 
L 291.807692 -54.201529 
L 292.458042 -54.201529 
L 293.108392 -54.201529 
L 293.758741 -54.201529 
L 294.409091 -54.201529 
L 295.059441 -54.201529 
L 295.70979 -54.201529 
L 296.36014 -54.201529 
L 297.01049 -54.201529 
L 297.660839 -54.201529 
L 298.311189 -54.201529 
L 298.961538 -54.201529 
L 299.611888 -54.201529 
L 300.262238 -54.201529 
L 300.912587 -54.201529 
L 301.562937 -54.201529 
L 302.213287 -54.201529 
L 302.863636 -54.201529 
L 303.513986 -54.201529 
L 303.513986 -54.201529 
L 303.513986 -54.201529 
L 302.863636 -56.203058 
L 302.213287 -56.203058 
L 301.562937 -56.203058 
L 300.912587 -56.203058 
L 300.262238 -56.203058 
L 299.611888 -56.203058 
L 298.961538 -56.203058 
L 298.311189 -56.203058 
L 297.660839 -56.203058 
L 297.01049 -56.203058 
L 296.36014 -56.203058 
L 295.70979 -56.203058 
L 295.059441 -56.203058 
L 294.409091 -56.203058 
L 293.758741 -56.203058 
L 293.108392 -56.203058 
L 292.458042 -56.203058 
L 291.807692 -56.203058 
L 291.157343 -56.203058 
L 290.506993 -56.203058 
L 289.856643 -56.203058 
L 289.206294 -56.203058 
L 288.555944 -56.203058 
L 287.905594 -58.204587 
L 287.255245 -57.203822 
L 286.604895 -57.203822 
L 285.954545 -57.203822 
L 285.304196 -57.203822 
L 284.653846 -57.203822 
L 284.003497 -57.203822 
L 283.353147 -57.203822 
L 282.702797 -57.203822 
L 282.052448 -57.203822 
L 281.402098 -57.203822 
L 280.751748 -57.203822 
L 280.101399 -57.003669 
L 279.451049 -57.403975 
L 278.800699 -57.403975 
L 278.15035 -57.403975 
L 277.5 -57.403975 
L 276.84965 -57.403975 
L 276.199301 -57.403975 
L 275.548951 -57.804281 
L 274.898601 -57.804281 
L 274.248252 -58.604893 
L 273.597902 -58.604893 
L 272.947552 -58.6149 
L 272.297203 -59.005198 
L 271.646853 -59.005198 
L 270.996503 -59.005198 
L 270.346154 -59.005198 
L 269.695804 -59.005198 
L 269.045455 -59.005198 
L 268.395105 -59.005198 
L 267.744755 -59.015206 
L 267.094406 -59.005198 
L 266.444056 -59.005198 
L 265.793706 -59.005198 
L 265.143357 -59.005198 
L 264.493007 -59.005198 
L 263.842657 -58.538175 
L 263.192308 -58.538175 
L 262.541958 -59.205351 
L 261.891608 -58.49052 
L 261.241259 -59.63425 
L 260.590909 -59.63425 
L 259.940559 -60.492048 
L 259.29021 -61.635779 
L 258.63986 -61.635779 
L 257.98951 -62.493577 
L 257.339161 -63.065443 
L 256.688811 -63.065443 
L 256.038462 -63.637308 
L 255.388112 -63.637308 
L 254.737762 -64.209174 
L 254.087413 -65.352905 
L 253.437063 -65.066972 
L 252.786713 -64.959747 
L 252.136364 -63.992341 
L 251.486014 -64.659518 
L 250.835664 -66.433095 
L 250.185315 -67.545055 
L 249.534965 -66.877879 
L 248.884615 -67.773007 
L 248.234266 -68.434624 
L 247.583916 -67.773007 
L 246.933566 -68.434624 
L 246.283217 -69.324192 
L 245.632867 -69.546584 
L 244.982517 -68.884968 
L 244.332168 -69.324192 
L 243.681818 -69.991368 
L 243.031469 -70.880937 
L 242.381119 -70.436153 
L 241.730769 -71.770505 
L 241.08042 -72.660074 
L 240.43007 -73.110418 
L 239.77972 -73.821516 
L 239.129371 -73.015901 
L 238.479021 -74.817277 
L 237.828671 -74.617124 
L 237.178322 -76.4185 
L 236.527972 -75.818042 
L 235.877622 -76.82381 
L 235.227273 -77.419265 
L 234.576923 -79.020488 
L 233.926573 -80.421558 
L 233.276224 -81.827632 
L 232.625874 -81.495105 
L 231.975524 -83.860549 
L 231.325175 -83.890875 
L 230.674825 -83.724081 
L 230.024476 -84.899979 
L 229.374126 -85.392022 
L 228.723776 -85.392022 
L 228.073427 -85.896574 
L 227.423077 -87.226757 
L 226.772727 -87.727139 
L 226.122378 -89.061491 
L 225.472028 -89.236625 
L 224.821678 -89.399249 
L 224.171329 -89.566044 
L 223.520979 -87.727139 
L 222.870629 -89.061491 
L 222.22028 -89.617044 
L 221.56993 -89.46308 
L 220.91958 -87.369723 
L 220.269231 -87.373297 
L 219.618881 -87.512689 
L 218.968531 -90.514983 
L 218.318182 -91.229814 
L 217.667832 -90.372016 
L 217.017483 -90.362485 
L 216.367133 -91.433303 
L 215.716783 -91.97038 
L 215.066434 -94.102008 
L 214.416084 -91.107846 
L 213.765734 -92.233706 
L 213.115385 -91.35491 
L 212.465035 -92.862311 
L 211.814685 -90.73256 
L 211.164336 -89.881726 
L 210.513986 -90.111313 
L 209.863636 -88.121885 
L 209.213287 -89.008673 
L 208.562937 -89.008673 
L 207.912587 -92.016527 
L 207.262238 -91.457766 
L 206.611888 -91.126958 
L 205.961538 -93.120147 
L 205.311189 -94.676892 
L 204.660839 -96.13356 
L 204.01049 -97.456793 
L 203.36014 -100.461867 
L 202.70979 -101.017847 
L 202.059441 -102.468955 
L 201.409091 -104.134116 
L 200.758741 -105.134881 
L 200.108392 -103.46694 
L 199.458042 -105.129321 
L 198.807692 -106.358037 
L 198.157343 -107.13363 
L 197.506993 -106.130085 
L 196.856643 -109.468747 
L 196.206294 -106.463674 
L 195.555944 -106.778534 
L 194.905594 -106.875977 
L 194.255245 -109.928309 
L 193.604895 -108.769529 
L 192.954545 -109.614911 
L 192.304196 -109.836133 
L 191.653846 -114.884726 
L 191.003497 -115.200757 
L 190.353147 -117.939692 
L 189.702797 -116.470148 
L 189.052448 -117.829081 
L 188.402098 -117.199653 
L 187.751748 -119.211716 
L 187.101399 -119.52248 
L 186.451049 -121.413398 
L 185.800699 -122.050727 
L 185.15035 -123.312217 
L 184.5 -125.943174 
L 183.84965 -127.731382 
L 183.199301 -129.100849 
L 182.548951 -126.677946 
L 181.898601 -128.995505 
L 181.248252 -129.943598 
L 180.597902 -131.531653 
L 179.947552 -131.215622 
L 179.297203 -132.690433 
L 178.646853 -129.669178 
L 177.996503 -131.162819 
L 177.346154 -131.860852 
L 176.695804 -136.967253 
L 176.045455 -138.871207 
L 175.395105 -140.770158 
L 174.744755 -138.96628 
L 174.094406 -137.767864 
L 173.444056 -139.269011 
L 172.793706 -140.570005 
L 172.143357 -140.274779 
L 171.493007 -143.069414 
L 170.842657 -144.172757 
L 170.192308 -146.076711 
L 169.541958 -147.675433 
L 168.891608 -147.775509 
L 168.241259 -148.881354 
L 167.590909 -149.877114 
L 166.940559 -151.675989 
L 166.29021 -155.483897 
L 165.63986 -160.685371 
L 164.98951 -159.684606 
L 164.339161 -160.285065 
L 163.688811 -162.384168 
L 163.038462 -161.786212 
L 162.388112 -159.694614 
L 161.737762 -163.287358 
L 161.087413 -165.093738 
L 160.437063 -166.792536 
L 159.786713 -167.693224 
L 159.136364 -167.890875 
L 158.486014 -171.391049 
L 157.835664 -172.707054 
L 157.185315 -172.391813 
L 156.534965 -175.496685 
L 155.884615 -176.014581 
L 155.234266 -178.021113 
L 154.583916 -178.508986 
L 153.933566 -181.198541 
L 153.283217 -184.703718 
L 152.632867 -190.107846 
L 151.982517 -187.513364 
L 151.332168 -189.807617 
L 150.681818 -193.7131 
L 150.031469 -198.319119 
L 149.381119 -198.511766 
L 148.730769 -203.420516 
L 148.08042 -205.919925 
L 147.43007 -205.622198 
L 146.77972 -208.521913 
L 146.129371 -213.843478 
L 145.479021 -213.125429 
L 144.828671 -213.525735 
L 144.178322 -217.726444 
L 143.527972 -222.039739 
L 142.877622 -220.731239 
L 142.227273 -224.143846 
L 141.576923 -226.33552 
L 140.926573 -228.136896 
L 140.276224 -225.244687 
L 139.625874 -219.835555 
L 138.975524 -223.831107 
L 138.325175 -223.355744 
L 137.674825 -228.637278 
L 137.024476 -228.542206 
L 136.374126 -231.136688 
L 135.723776 -230.443658 
L 135.073427 -232.842991 
L 134.423077 -234.04641 
L 133.772727 -235.752714 
L 133.122378 -232.04238 
L 132.472028 -233.643603 
L 131.821678 -234.839516 
L 131.171329 -235.550059 
L 130.520979 -234.244061 
L 129.870629 -234.744444 
L 129.22028 -234.842018 
L 128.56993 -239.142804 
L 127.91958 -241.852373 
L 127.269231 -244.149128 
L 126.618881 -246.250733 
L 125.968531 -249.855987 
L 125.318182 -253.356161 
L 124.667832 -254.96489 
L 124.017483 -258.872875 
L 123.367133 -264.977538 
L 122.716783 -262.973508 
L 122.066434 -269.073167 
L 121.416084 -271.167267 
L 120.765734 -272.373188 
L 120.115385 -271.177274 
L 119.465035 -271.97038 
L 118.814685 -273.879338 
L 118.164336 -278.075043 
L 117.513986 -276.671471 
L 116.863636 -280.476878 
L 116.213287 -277.979971 
L 115.562937 -278.2802 
L 114.912587 -281.77537 
L 114.262238 -285.783432 
L 113.611888 -284.37986 
L 112.961538 -284.585016 
L 112.311189 -286.57904 
L 111.660839 -287.184502 
L 111.01049 -290.984905 
L 110.36014 -290.081715 
L 109.70979 -296.519133 
L 109.059441 -295.098047 
L 108.409091 -300.394593 
L 107.758741 -301.210216 
L 107.108392 -297.094572 
L 106.458042 -292.786281 
L 105.807692 -291.605379 
L 105.157343 -291.087483 
L 104.506993 -290.987407 
L 103.856643 -291.084982 
L 103.206294 -293.892126 
L 102.555944 -295.01048 
L 101.905594 -293.394246 
L 101.255245 -294.89289 
L 100.604895 -293.686969 
L 99.954545 -291.990673 
L 99.304196 -290.286872 
L 98.653846 -288.680645 
L 98.003497 -288.588074 
L 97.353147 -288.087692 
L 96.702797 -292.48355 
L 96.052448 -291.790521 
L 95.402098 -293.389242 
L 94.751748 -293.586893 
L 94.101399 -297.389798 
L 93.451049 -298.603225 
L 92.800699 -301.115144 
L 92.15035 -300.199444 
L 91.5 -304.2 
L 90.84965 -301.392856 
L 90.199301 -300.091862 
L 89.548951 -296.389033 
L 88.898601 -294.987963 
L 88.248252 -294.585155 
L 87.597902 -294.084773 
L 86.947552 -290.797262 
L 86.297203 -291.287636 
L 85.646853 -293.999708 
L 84.996503 -294.087275 
L 84.346154 -290.784752 
L 83.695804 -291.087483 
L 83.045455 -287.479728 
L 82.395105 -285.883508 
L 81.744755 -282.983793 
L 81.094406 -286.483967 
L 80.444056 -284.892751 
L 79.793706 -281.477643 
L 79.143357 -282.380833 
L 78.493007 -282.993801 
L 77.842657 -285.280548 
L 77.192308 -286.188741 
L 76.541958 -284.304802 
L 75.891608 -281.182417 
L 75.241259 -278.572924 
L 74.590909 -279.473612 
L 73.940559 -275.075252 
L 73.29021 -270.77947 
L 72.63986 -267.577024 
L 71.98951 -261.199653 
L 71.339161 -253.666398 
L 70.688811 -252.170255 
L 70.038462 -249.570769 
L 69.388112 -241.044256 
L 68.737762 -232.049885 
L 68.087413 -226.733324 
L 67.437063 -217.32864 
L 66.786713 -208.436848 
L 66.136364 -199.93035 
L 65.486014 -191.40884 
L 64.835664 -179.517256 
L 64.185315 -168.288679 
L 63.534965 -158.583765 
L 62.884615 -149.877114 
L 62.234266 -141.668344 
L 61.583916 -132.561387 
L 60.933566 -122.05336 
L 60.283217 -109.346153 
L 59.632867 -98.435319 
L 58.982517 -83.123622 
L 58.332168 -62.207645 
L 57.681818 -52.2 
z
" id="m4963b814f6" style="stroke:#ff7f0e;stroke-opacity:0.2;"/>
    </defs>
    <g clip-path="url(#pb057b5c1c2)">
     <use style="fill:#ff7f0e;fill-opacity:0.2;stroke:#ff7f0e;stroke-opacity:0.2;" x="0" xlink:href="#m4963b814f6" y="360"/>
    </g>
   </g>
   <g id="matplotlib.axis_1">
    <g id="xtick_1">
     <g id="line2d_1">
      <defs>
       <path d="M 0 0 
L 0 3.5 
" id="m22f02e72b3" style="stroke:#000000;stroke-width:0.8;"/>
      </defs>
      <g>
       <use style="stroke:#000000;stroke-width:0.8;" x="57.681818" xlink:href="#m22f02e72b3" y="320.4"/>
      </g>
     </g>
     <g id="text_1">
      <!-- 0 -->
      <defs>
       <path d="M 31.78125 66.40625 
Q 24.171875 66.40625 20.328125 58.90625 
Q 16.5 51.421875 16.5 36.375 
Q 16.5 21.390625 20.328125 13.890625 
Q 24.171875 6.390625 31.78125 6.390625 
Q 39.453125 6.390625 43.28125 13.890625 
Q 47.125 21.390625 47.125 36.375 
Q 47.125 51.421875 43.28125 58.90625 
Q 39.453125 66.40625 31.78125 66.40625 
z
M 31.78125 74.21875 
Q 44.046875 74.21875 50.515625 64.515625 
Q 56.984375 54.828125 56.984375 36.375 
Q 56.984375 17.96875 50.515625 8.265625 
Q 44.046875 -1.421875 31.78125 -1.421875 
Q 19.53125 -1.421875 13.0625 8.265625 
Q 6.59375 17.96875 6.59375 36.375 
Q 6.59375 54.828125 13.0625 64.515625 
Q 19.53125 74.21875 31.78125 74.21875 
z
" id="DejaVuSans-48"/>
      </defs>
      <g transform="translate(54.500568 334.998438)scale(0.1 -0.1)">
       <use xlink:href="#DejaVuSans-48"/>
      </g>
     </g>
    </g>
    <g id="xtick_2">
     <g id="line2d_2">
      <g>
       <use style="stroke:#000000;stroke-width:0.8;" x="90.199301" xlink:href="#m22f02e72b3" y="320.4"/>
      </g>
     </g>
     <g id="text_2">
      <!-- 50 -->
      <defs>
       <path d="M 10.796875 72.90625 
L 49.515625 72.90625 
L 49.515625 64.59375 
L 19.828125 64.59375 
L 19.828125 46.734375 
Q 21.96875 47.46875 24.109375 47.828125 
Q 26.265625 48.1875 28.421875 48.1875 
Q 40.625 48.1875 47.75 41.5 
Q 54.890625 34.8125 54.890625 23.390625 
Q 54.890625 11.625 47.5625 5.09375 
Q 40.234375 -1.421875 26.90625 -1.421875 
Q 22.3125 -1.421875 17.546875 -0.640625 
Q 12.796875 0.140625 7.71875 1.703125 
L 7.71875 11.625 
Q 12.109375 9.234375 16.796875 8.0625 
Q 21.484375 6.890625 26.703125 6.890625 
Q 35.15625 6.890625 40.078125 11.328125 
Q 45.015625 15.765625 45.015625 23.390625 
Q 45.015625 31 40.078125 35.4375 
Q 35.15625 39.890625 26.703125 39.890625 
Q 22.75 39.890625 18.8125 39.015625 
Q 14.890625 38.140625 10.796875 36.28125 
z
" id="DejaVuSans-53"/>
      </defs>
      <g transform="translate(83.836801 334.998438)scale(0.1 -0.1)">
       <use xlink:href="#DejaVuSans-53"/>
       <use x="63.623047" xlink:href="#DejaVuSans-48"/>
      </g>
     </g>
    </g>
    <g id="xtick_3">
     <g id="line2d_3">
      <g>
       <use style="stroke:#000000;stroke-width:0.8;" x="122.716783" xlink:href="#m22f02e72b3" y="320.4"/>
      </g>
     </g>
     <g id="text_3">
      <!-- 100 -->
      <defs>
       <path d="M 12.40625 8.296875 
L 28.515625 8.296875 
L 28.515625 63.921875 
L 10.984375 60.40625 
L 10.984375 69.390625 
L 28.421875 72.90625 
L 38.28125 72.90625 
L 38.28125 8.296875 
L 54.390625 8.296875 
L 54.390625 0 
L 12.40625 0 
z
" id="DejaVuSans-49"/>
      </defs>
      <g transform="translate(113.173033 334.998438)scale(0.1 -0.1)">
       <use xlink:href="#DejaVuSans-49"/>
       <use x="63.623047" xlink:href="#DejaVuSans-48"/>
       <use x="127.246094" xlink:href="#DejaVuSans-48"/>
      </g>
     </g>
    </g>
    <g id="xtick_4">
     <g id="line2d_4">
      <g>
       <use style="stroke:#000000;stroke-width:0.8;" x="155.234266" xlink:href="#m22f02e72b3" y="320.4"/>
      </g>
     </g>
     <g id="text_4">
      <!-- 150 -->
      <g transform="translate(145.690516 334.998438)scale(0.1 -0.1)">
       <use xlink:href="#DejaVuSans-49"/>
       <use x="63.623047" xlink:href="#DejaVuSans-53"/>
       <use x="127.246094" xlink:href="#DejaVuSans-48"/>
      </g>
     </g>
    </g>
    <g id="xtick_5">
     <g id="line2d_5">
      <g>
       <use style="stroke:#000000;stroke-width:0.8;" x="187.751748" xlink:href="#m22f02e72b3" y="320.4"/>
      </g>
     </g>
     <g id="text_5">
      <!-- 200 -->
      <defs>
       <path d="M 19.1875 8.296875 
L 53.609375 8.296875 
L 53.609375 0 
L 7.328125 0 
L 7.328125 8.296875 
Q 12.9375 14.109375 22.625 23.890625 
Q 32.328125 33.6875 34.8125 36.53125 
Q 39.546875 41.84375 41.421875 45.53125 
Q 43.3125 49.21875 43.3125 52.78125 
Q 43.3125 58.59375 39.234375 62.25 
Q 35.15625 65.921875 28.609375 65.921875 
Q 23.96875 65.921875 18.8125 64.3125 
Q 13.671875 62.703125 7.8125 59.421875 
L 7.8125 69.390625 
Q 13.765625 71.78125 18.9375 73 
Q 24.125 74.21875 28.421875 74.21875 
Q 39.75 74.21875 46.484375 68.546875 
Q 53.21875 62.890625 53.21875 53.421875 
Q 53.21875 48.921875 51.53125 44.890625 
Q 49.859375 40.875 45.40625 35.40625 
Q 44.1875 33.984375 37.640625 27.21875 
Q 31.109375 20.453125 19.1875 8.296875 
z
" id="DejaVuSans-50"/>
      </defs>
      <g transform="translate(178.207998 334.998438)scale(0.1 -0.1)">
       <use xlink:href="#DejaVuSans-50"/>
       <use x="63.623047" xlink:href="#DejaVuSans-48"/>
       <use x="127.246094" xlink:href="#DejaVuSans-48"/>
      </g>
     </g>
    </g>
    <g id="xtick_6">
     <g id="line2d_6">
      <g>
       <use style="stroke:#000000;stroke-width:0.8;" x="220.269231" xlink:href="#m22f02e72b3" y="320.4"/>
      </g>
     </g>
     <g id="text_6">
      <!-- 250 -->
      <g transform="translate(210.725481 334.998438)scale(0.1 -0.1)">
       <use xlink:href="#DejaVuSans-50"/>
       <use x="63.623047" xlink:href="#DejaVuSans-53"/>
       <use x="127.246094" xlink:href="#DejaVuSans-48"/>
      </g>
     </g>
    </g>
    <g id="xtick_7">
     <g id="line2d_7">
      <g>
       <use style="stroke:#000000;stroke-width:0.8;" x="252.786713" xlink:href="#m22f02e72b3" y="320.4"/>
      </g>
     </g>
     <g id="text_7">
      <!-- 300 -->
      <defs>
       <path d="M 40.578125 39.3125 
Q 47.65625 37.796875 51.625 33 
Q 55.609375 28.21875 55.609375 21.1875 
Q 55.609375 10.40625 48.1875 4.484375 
Q 40.765625 -1.421875 27.09375 -1.421875 
Q 22.515625 -1.421875 17.65625 -0.515625 
Q 12.796875 0.390625 7.625 2.203125 
L 7.625 11.71875 
Q 11.71875 9.328125 16.59375 8.109375 
Q 21.484375 6.890625 26.8125 6.890625 
Q 36.078125 6.890625 40.9375 10.546875 
Q 45.796875 14.203125 45.796875 21.1875 
Q 45.796875 27.640625 41.28125 31.265625 
Q 36.765625 34.90625 28.71875 34.90625 
L 20.21875 34.90625 
L 20.21875 43.015625 
L 29.109375 43.015625 
Q 36.375 43.015625 40.234375 45.921875 
Q 44.09375 48.828125 44.09375 54.296875 
Q 44.09375 59.90625 40.109375 62.90625 
Q 36.140625 65.921875 28.71875 65.921875 
Q 24.65625 65.921875 20.015625 65.03125 
Q 15.375 64.15625 9.8125 62.3125 
L 9.8125 71.09375 
Q 15.4375 72.65625 20.34375 73.4375 
Q 25.25 74.21875 29.59375 74.21875 
Q 40.828125 74.21875 47.359375 69.109375 
Q 53.90625 64.015625 53.90625 55.328125 
Q 53.90625 49.265625 50.4375 45.09375 
Q 46.96875 40.921875 40.578125 39.3125 
z
" id="DejaVuSans-51"/>
      </defs>
      <g transform="translate(243.242963 334.998438)scale(0.1 -0.1)">
       <use xlink:href="#DejaVuSans-51"/>
       <use x="63.623047" xlink:href="#DejaVuSans-48"/>
       <use x="127.246094" xlink:href="#DejaVuSans-48"/>
      </g>
     </g>
    </g>
    <g id="xtick_8">
     <g id="line2d_8">
      <g>
       <use style="stroke:#000000;stroke-width:0.8;" x="285.304196" xlink:href="#m22f02e72b3" y="320.4"/>
      </g>
     </g>
     <g id="text_8">
      <!-- 350 -->
      <g transform="translate(275.760446 334.998438)scale(0.1 -0.1)">
       <use xlink:href="#DejaVuSans-51"/>
       <use x="63.623047" xlink:href="#DejaVuSans-53"/>
       <use x="127.246094" xlink:href="#DejaVuSans-48"/>
      </g>
     </g>
    </g>
    <g id="xtick_9">
     <g id="line2d_9">
      <g>
       <use style="stroke:#000000;stroke-width:0.8;" x="317.821678" xlink:href="#m22f02e72b3" y="320.4"/>
      </g>
     </g>
     <g id="text_9">
      <!-- 400 -->
      <defs>
       <path d="M 37.796875 64.3125 
L 12.890625 25.390625 
L 37.796875 25.390625 
z
M 35.203125 72.90625 
L 47.609375 72.90625 
L 47.609375 25.390625 
L 58.015625 25.390625 
L 58.015625 17.1875 
L 47.609375 17.1875 
L 47.609375 0 
L 37.796875 0 
L 37.796875 17.1875 
L 4.890625 17.1875 
L 4.890625 26.703125 
z
" id="DejaVuSans-52"/>
      </defs>
      <g transform="translate(308.277928 334.998438)scale(0.1 -0.1)">
       <use xlink:href="#DejaVuSans-52"/>
       <use x="63.623047" xlink:href="#DejaVuSans-48"/>
       <use x="127.246094" xlink:href="#DejaVuSans-48"/>
      </g>
     </g>
    </g>
    <g id="text_10">
     <!-- Temps -->
     <defs>
      <path d="M -0.296875 72.90625 
L 61.375 72.90625 
L 61.375 64.59375 
L 35.5 64.59375 
L 35.5 0 
L 25.59375 0 
L 25.59375 64.59375 
L -0.296875 64.59375 
z
" id="DejaVuSans-84"/>
      <path d="M 56.203125 29.59375 
L 56.203125 25.203125 
L 14.890625 25.203125 
Q 15.484375 15.921875 20.484375 11.0625 
Q 25.484375 6.203125 34.421875 6.203125 
Q 39.59375 6.203125 44.453125 7.46875 
Q 49.3125 8.734375 54.109375 11.28125 
L 54.109375 2.78125 
Q 49.265625 0.734375 44.1875 -0.34375 
Q 39.109375 -1.421875 33.890625 -1.421875 
Q 20.796875 -1.421875 13.15625 6.1875 
Q 5.515625 13.8125 5.515625 26.8125 
Q 5.515625 40.234375 12.765625 48.109375 
Q 20.015625 56 32.328125 56 
Q 43.359375 56 49.78125 48.890625 
Q 56.203125 41.796875 56.203125 29.59375 
z
M 47.21875 32.234375 
Q 47.125 39.59375 43.09375 43.984375 
Q 39.0625 48.390625 32.421875 48.390625 
Q 24.90625 48.390625 20.390625 44.140625 
Q 15.875 39.890625 15.1875 32.171875 
z
" id="DejaVuSans-101"/>
      <path d="M 52 44.1875 
Q 55.375 50.25 60.0625 53.125 
Q 64.75 56 71.09375 56 
Q 79.640625 56 84.28125 50.015625 
Q 88.921875 44.046875 88.921875 33.015625 
L 88.921875 0 
L 79.890625 0 
L 79.890625 32.71875 
Q 79.890625 40.578125 77.09375 44.375 
Q 74.3125 48.1875 68.609375 48.1875 
Q 61.625 48.1875 57.5625 43.546875 
Q 53.515625 38.921875 53.515625 30.90625 
L 53.515625 0 
L 44.484375 0 
L 44.484375 32.71875 
Q 44.484375 40.625 41.703125 44.40625 
Q 38.921875 48.1875 33.109375 48.1875 
Q 26.21875 48.1875 22.15625 43.53125 
Q 18.109375 38.875 18.109375 30.90625 
L 18.109375 0 
L 9.078125 0 
L 9.078125 54.6875 
L 18.109375 54.6875 
L 18.109375 46.1875 
Q 21.1875 51.21875 25.484375 53.609375 
Q 29.78125 56 35.6875 56 
Q 41.65625 56 45.828125 52.96875 
Q 50 49.953125 52 44.1875 
z
" id="DejaVuSans-109"/>
      <path d="M 18.109375 8.203125 
L 18.109375 -20.796875 
L 9.078125 -20.796875 
L 9.078125 54.6875 
L 18.109375 54.6875 
L 18.109375 46.390625 
Q 20.953125 51.265625 25.265625 53.625 
Q 29.59375 56 35.59375 56 
Q 45.5625 56 51.78125 48.09375 
Q 58.015625 40.1875 58.015625 27.296875 
Q 58.015625 14.40625 51.78125 6.484375 
Q 45.5625 -1.421875 35.59375 -1.421875 
Q 29.59375 -1.421875 25.265625 0.953125 
Q 20.953125 3.328125 18.109375 8.203125 
z
M 48.6875 27.296875 
Q 48.6875 37.203125 44.609375 42.84375 
Q 40.53125 48.484375 33.40625 48.484375 
Q 26.265625 48.484375 22.1875 42.84375 
Q 18.109375 37.203125 18.109375 27.296875 
Q 18.109375 17.390625 22.1875 11.75 
Q 26.265625 6.109375 33.40625 6.109375 
Q 40.53125 6.109375 44.609375 11.75 
Q 48.6875 17.390625 48.6875 27.296875 
z
" id="DejaVuSans-112"/>
      <path d="M 44.28125 53.078125 
L 44.28125 44.578125 
Q 40.484375 46.53125 36.375 47.5 
Q 32.28125 48.484375 27.875 48.484375 
Q 21.1875 48.484375 17.84375 46.4375 
Q 14.5 44.390625 14.5 40.28125 
Q 14.5 37.15625 16.890625 35.375 
Q 19.28125 33.59375 26.515625 31.984375 
L 29.59375 31.296875 
Q 39.15625 29.25 43.1875 25.515625 
Q 47.21875 21.78125 47.21875 15.09375 
Q 47.21875 7.46875 41.1875 3.015625 
Q 35.15625 -1.421875 24.609375 -1.421875 
Q 20.21875 -1.421875 15.453125 -0.5625 
Q 10.6875 0.296875 5.421875 2 
L 5.421875 11.28125 
Q 10.40625 8.6875 15.234375 7.390625 
Q 20.0625 6.109375 24.8125 6.109375 
Q 31.15625 6.109375 34.5625 8.28125 
Q 37.984375 10.453125 37.984375 14.40625 
Q 37.984375 18.0625 35.515625 20.015625 
Q 33.0625 21.96875 24.703125 23.78125 
L 21.578125 24.515625 
Q 13.234375 26.265625 9.515625 29.90625 
Q 5.8125 33.546875 5.8125 39.890625 
Q 5.8125 47.609375 11.28125 51.796875 
Q 16.75 56 26.8125 56 
Q 31.78125 56 36.171875 55.265625 
Q 40.578125 54.546875 44.28125 53.078125 
z
" id="DejaVuSans-115"/>
     </defs>
     <g transform="translate(167.733594 348.676562)scale(0.1 -0.1)">
      <use xlink:href="#DejaVuSans-84"/>
      <use x="60.818359" xlink:href="#DejaVuSans-101"/>
      <use x="122.341797" xlink:href="#DejaVuSans-109"/>
      <use x="219.753906" xlink:href="#DejaVuSans-112"/>
      <use x="283.230469" xlink:href="#DejaVuSans-115"/>
     </g>
    </g>
   </g>
   <g id="matplotlib.axis_2">
    <g id="ytick_1">
     <g id="line2d_10">
      <defs>
       <path d="M 0 0 
L -3.5 0 
" id="m3d08ec1eeb" style="stroke:#000000;stroke-width:0.8;"/>
      </defs>
      <g>
       <use style="stroke:#000000;stroke-width:0.8;" x="45" xlink:href="#m3d08ec1eeb" y="307.8"/>
      </g>
     </g>
     <g id="text_11">
      <!-- 0 -->
      <g transform="translate(31.6375 311.599219)scale(0.1 -0.1)">
       <use xlink:href="#DejaVuSans-48"/>
      </g>
     </g>
    </g>
    <g id="ytick_2">
     <g id="line2d_11">
      <g>
       <use style="stroke:#000000;stroke-width:0.8;" x="45" xlink:href="#m3d08ec1eeb" y="267.769421"/>
      </g>
     </g>
     <g id="text_12">
      <!-- 20 -->
      <g transform="translate(25.275 271.56864)scale(0.1 -0.1)">
       <use xlink:href="#DejaVuSans-50"/>
       <use x="63.623047" xlink:href="#DejaVuSans-48"/>
      </g>
     </g>
    </g>
    <g id="ytick_3">
     <g id="line2d_12">
      <g>
       <use style="stroke:#000000;stroke-width:0.8;" x="45" xlink:href="#m3d08ec1eeb" y="227.738842"/>
      </g>
     </g>
     <g id="text_13">
      <!-- 40 -->
      <g transform="translate(25.275 231.538061)scale(0.1 -0.1)">
       <use xlink:href="#DejaVuSans-52"/>
       <use x="63.623047" xlink:href="#DejaVuSans-48"/>
      </g>
     </g>
    </g>
    <g id="ytick_4">
     <g id="line2d_13">
      <g>
       <use style="stroke:#000000;stroke-width:0.8;" x="45" xlink:href="#m3d08ec1eeb" y="187.708263"/>
      </g>
     </g>
     <g id="text_14">
      <!-- 60 -->
      <defs>
       <path d="M 33.015625 40.375 
Q 26.375 40.375 22.484375 35.828125 
Q 18.609375 31.296875 18.609375 23.390625 
Q 18.609375 15.53125 22.484375 10.953125 
Q 26.375 6.390625 33.015625 6.390625 
Q 39.65625 6.390625 43.53125 10.953125 
Q 47.40625 15.53125 47.40625 23.390625 
Q 47.40625 31.296875 43.53125 35.828125 
Q 39.65625 40.375 33.015625 40.375 
z
M 52.59375 71.296875 
L 52.59375 62.3125 
Q 48.875 64.0625 45.09375 64.984375 
Q 41.3125 65.921875 37.59375 65.921875 
Q 27.828125 65.921875 22.671875 59.328125 
Q 17.53125 52.734375 16.796875 39.40625 
Q 19.671875 43.65625 24.015625 45.921875 
Q 28.375 48.1875 33.59375 48.1875 
Q 44.578125 48.1875 50.953125 41.515625 
Q 57.328125 34.859375 57.328125 23.390625 
Q 57.328125 12.15625 50.6875 5.359375 
Q 44.046875 -1.421875 33.015625 -1.421875 
Q 20.359375 -1.421875 13.671875 8.265625 
Q 6.984375 17.96875 6.984375 36.375 
Q 6.984375 53.65625 15.1875 63.9375 
Q 23.390625 74.21875 37.203125 74.21875 
Q 40.921875 74.21875 44.703125 73.484375 
Q 48.484375 72.75 52.59375 71.296875 
z
" id="DejaVuSans-54"/>
      </defs>
      <g transform="translate(25.275 191.507482)scale(0.1 -0.1)">
       <use xlink:href="#DejaVuSans-54"/>
       <use x="63.623047" xlink:href="#DejaVuSans-48"/>
      </g>
     </g>
    </g>
    <g id="ytick_5">
     <g id="line2d_14">
      <g>
       <use style="stroke:#000000;stroke-width:0.8;" x="45" xlink:href="#m3d08ec1eeb" y="147.677684"/>
      </g>
     </g>
     <g id="text_15">
      <!-- 80 -->
      <defs>
       <path d="M 31.78125 34.625 
Q 24.75 34.625 20.71875 30.859375 
Q 16.703125 27.09375 16.703125 20.515625 
Q 16.703125 13.921875 20.71875 10.15625 
Q 24.75 6.390625 31.78125 6.390625 
Q 38.8125 6.390625 42.859375 10.171875 
Q 46.921875 13.96875 46.921875 20.515625 
Q 46.921875 27.09375 42.890625 30.859375 
Q 38.875 34.625 31.78125 34.625 
z
M 21.921875 38.8125 
Q 15.578125 40.375 12.03125 44.71875 
Q 8.5 49.078125 8.5 55.328125 
Q 8.5 64.0625 14.71875 69.140625 
Q 20.953125 74.21875 31.78125 74.21875 
Q 42.671875 74.21875 48.875 69.140625 
Q 55.078125 64.0625 55.078125 55.328125 
Q 55.078125 49.078125 51.53125 44.71875 
Q 48 40.375 41.703125 38.8125 
Q 48.828125 37.15625 52.796875 32.3125 
Q 56.78125 27.484375 56.78125 20.515625 
Q 56.78125 9.90625 50.3125 4.234375 
Q 43.84375 -1.421875 31.78125 -1.421875 
Q 19.734375 -1.421875 13.25 4.234375 
Q 6.78125 9.90625 6.78125 20.515625 
Q 6.78125 27.484375 10.78125 32.3125 
Q 14.796875 37.15625 21.921875 38.8125 
z
M 18.3125 54.390625 
Q 18.3125 48.734375 21.84375 45.5625 
Q 25.390625 42.390625 31.78125 42.390625 
Q 38.140625 42.390625 41.71875 45.5625 
Q 45.3125 48.734375 45.3125 54.390625 
Q 45.3125 60.0625 41.71875 63.234375 
Q 38.140625 66.40625 31.78125 66.40625 
Q 25.390625 66.40625 21.84375 63.234375 
Q 18.3125 60.0625 18.3125 54.390625 
z
" id="DejaVuSans-56"/>
      </defs>
      <g transform="translate(25.275 151.476903)scale(0.1 -0.1)">
       <use xlink:href="#DejaVuSans-56"/>
       <use x="63.623047" xlink:href="#DejaVuSans-48"/>
      </g>
     </g>
    </g>
    <g id="ytick_6">
     <g id="line2d_15">
      <g>
       <use style="stroke:#000000;stroke-width:0.8;" x="45" xlink:href="#m3d08ec1eeb" y="107.647105"/>
      </g>
     </g>
     <g id="text_16">
      <!-- 100 -->
      <g transform="translate(18.9125 111.446324)scale(0.1 -0.1)">
       <use xlink:href="#DejaVuSans-49"/>
       <use x="63.623047" xlink:href="#DejaVuSans-48"/>
       <use x="127.246094" xlink:href="#DejaVuSans-48"/>
      </g>
     </g>
    </g>
    <g id="ytick_7">
     <g id="line2d_16">
      <g>
       <use style="stroke:#000000;stroke-width:0.8;" x="45" xlink:href="#m3d08ec1eeb" y="67.616527"/>
      </g>
     </g>
     <g id="text_17">
      <!-- 120 -->
      <g transform="translate(18.9125 71.415745)scale(0.1 -0.1)">
       <use xlink:href="#DejaVuSans-49"/>
       <use x="63.623047" xlink:href="#DejaVuSans-50"/>
       <use x="127.246094" xlink:href="#DejaVuSans-48"/>
      </g>
     </g>
    </g>
    <g id="text_18">
     <!-- Nombre d'agents symptomatique -->
     <defs>
      <path d="M 9.8125 72.90625 
L 23.09375 72.90625 
L 55.421875 11.921875 
L 55.421875 72.90625 
L 64.984375 72.90625 
L 64.984375 0 
L 51.703125 0 
L 19.390625 60.984375 
L 19.390625 0 
L 9.8125 0 
z
" id="DejaVuSans-78"/>
      <path d="M 30.609375 48.390625 
Q 23.390625 48.390625 19.1875 42.75 
Q 14.984375 37.109375 14.984375 27.296875 
Q 14.984375 17.484375 19.15625 11.84375 
Q 23.34375 6.203125 30.609375 6.203125 
Q 37.796875 6.203125 41.984375 11.859375 
Q 46.1875 17.53125 46.1875 27.296875 
Q 46.1875 37.015625 41.984375 42.703125 
Q 37.796875 48.390625 30.609375 48.390625 
z
M 30.609375 56 
Q 42.328125 56 49.015625 48.375 
Q 55.71875 40.765625 55.71875 27.296875 
Q 55.71875 13.875 49.015625 6.21875 
Q 42.328125 -1.421875 30.609375 -1.421875 
Q 18.84375 -1.421875 12.171875 6.21875 
Q 5.515625 13.875 5.515625 27.296875 
Q 5.515625 40.765625 12.171875 48.375 
Q 18.84375 56 30.609375 56 
z
" id="DejaVuSans-111"/>
      <path d="M 48.6875 27.296875 
Q 48.6875 37.203125 44.609375 42.84375 
Q 40.53125 48.484375 33.40625 48.484375 
Q 26.265625 48.484375 22.1875 42.84375 
Q 18.109375 37.203125 18.109375 27.296875 
Q 18.109375 17.390625 22.1875 11.75 
Q 26.265625 6.109375 33.40625 6.109375 
Q 40.53125 6.109375 44.609375 11.75 
Q 48.6875 17.390625 48.6875 27.296875 
z
M 18.109375 46.390625 
Q 20.953125 51.265625 25.265625 53.625 
Q 29.59375 56 35.59375 56 
Q 45.5625 56 51.78125 48.09375 
Q 58.015625 40.1875 58.015625 27.296875 
Q 58.015625 14.40625 51.78125 6.484375 
Q 45.5625 -1.421875 35.59375 -1.421875 
Q 29.59375 -1.421875 25.265625 0.953125 
Q 20.953125 3.328125 18.109375 8.203125 
L 18.109375 0 
L 9.078125 0 
L 9.078125 75.984375 
L 18.109375 75.984375 
z
" id="DejaVuSans-98"/>
      <path d="M 41.109375 46.296875 
Q 39.59375 47.171875 37.8125 47.578125 
Q 36.03125 48 33.890625 48 
Q 26.265625 48 22.1875 43.046875 
Q 18.109375 38.09375 18.109375 28.8125 
L 18.109375 0 
L 9.078125 0 
L 9.078125 54.6875 
L 18.109375 54.6875 
L 18.109375 46.1875 
Q 20.953125 51.171875 25.484375 53.578125 
Q 30.03125 56 36.53125 56 
Q 37.453125 56 38.578125 55.875 
Q 39.703125 55.765625 41.0625 55.515625 
z
" id="DejaVuSans-114"/>
      <path id="DejaVuSans-32"/>
      <path d="M 45.40625 46.390625 
L 45.40625 75.984375 
L 54.390625 75.984375 
L 54.390625 0 
L 45.40625 0 
L 45.40625 8.203125 
Q 42.578125 3.328125 38.25 0.953125 
Q 33.9375 -1.421875 27.875 -1.421875 
Q 17.96875 -1.421875 11.734375 6.484375 
Q 5.515625 14.40625 5.515625 27.296875 
Q 5.515625 40.1875 11.734375 48.09375 
Q 17.96875 56 27.875 56 
Q 33.9375 56 38.25 53.625 
Q 42.578125 51.265625 45.40625 46.390625 
z
M 14.796875 27.296875 
Q 14.796875 17.390625 18.875 11.75 
Q 22.953125 6.109375 30.078125 6.109375 
Q 37.203125 6.109375 41.296875 11.75 
Q 45.40625 17.390625 45.40625 27.296875 
Q 45.40625 37.203125 41.296875 42.84375 
Q 37.203125 48.484375 30.078125 48.484375 
Q 22.953125 48.484375 18.875 42.84375 
Q 14.796875 37.203125 14.796875 27.296875 
z
" id="DejaVuSans-100"/>
      <path d="M 17.921875 72.90625 
L 17.921875 45.796875 
L 9.625 45.796875 
L 9.625 72.90625 
z
" id="DejaVuSans-39"/>
      <path d="M 34.28125 27.484375 
Q 23.390625 27.484375 19.1875 25 
Q 14.984375 22.515625 14.984375 16.5 
Q 14.984375 11.71875 18.140625 8.90625 
Q 21.296875 6.109375 26.703125 6.109375 
Q 34.1875 6.109375 38.703125 11.40625 
Q 43.21875 16.703125 43.21875 25.484375 
L 43.21875 27.484375 
z
M 52.203125 31.203125 
L 52.203125 0 
L 43.21875 0 
L 43.21875 8.296875 
Q 40.140625 3.328125 35.546875 0.953125 
Q 30.953125 -1.421875 24.3125 -1.421875 
Q 15.921875 -1.421875 10.953125 3.296875 
Q 6 8.015625 6 15.921875 
Q 6 25.140625 12.171875 29.828125 
Q 18.359375 34.515625 30.609375 34.515625 
L 43.21875 34.515625 
L 43.21875 35.40625 
Q 43.21875 41.609375 39.140625 45 
Q 35.0625 48.390625 27.6875 48.390625 
Q 23 48.390625 18.546875 47.265625 
Q 14.109375 46.140625 10.015625 43.890625 
L 10.015625 52.203125 
Q 14.9375 54.109375 19.578125 55.046875 
Q 24.21875 56 28.609375 56 
Q 40.484375 56 46.34375 49.84375 
Q 52.203125 43.703125 52.203125 31.203125 
z
" id="DejaVuSans-97"/>
      <path d="M 45.40625 27.984375 
Q 45.40625 37.75 41.375 43.109375 
Q 37.359375 48.484375 30.078125 48.484375 
Q 22.859375 48.484375 18.828125 43.109375 
Q 14.796875 37.75 14.796875 27.984375 
Q 14.796875 18.265625 18.828125 12.890625 
Q 22.859375 7.515625 30.078125 7.515625 
Q 37.359375 7.515625 41.375 12.890625 
Q 45.40625 18.265625 45.40625 27.984375 
z
M 54.390625 6.78125 
Q 54.390625 -7.171875 48.1875 -13.984375 
Q 42 -20.796875 29.203125 -20.796875 
Q 24.46875 -20.796875 20.265625 -20.09375 
Q 16.0625 -19.390625 12.109375 -17.921875 
L 12.109375 -9.1875 
Q 16.0625 -11.328125 19.921875 -12.34375 
Q 23.78125 -13.375 27.78125 -13.375 
Q 36.625 -13.375 41.015625 -8.765625 
Q 45.40625 -4.15625 45.40625 5.171875 
L 45.40625 9.625 
Q 42.625 4.78125 38.28125 2.390625 
Q 33.9375 0 27.875 0 
Q 17.828125 0 11.671875 7.65625 
Q 5.515625 15.328125 5.515625 27.984375 
Q 5.515625 40.671875 11.671875 48.328125 
Q 17.828125 56 27.875 56 
Q 33.9375 56 38.28125 53.609375 
Q 42.625 51.21875 45.40625 46.390625 
L 45.40625 54.6875 
L 54.390625 54.6875 
z
" id="DejaVuSans-103"/>
      <path d="M 54.890625 33.015625 
L 54.890625 0 
L 45.90625 0 
L 45.90625 32.71875 
Q 45.90625 40.484375 42.875 44.328125 
Q 39.84375 48.1875 33.796875 48.1875 
Q 26.515625 48.1875 22.3125 43.546875 
Q 18.109375 38.921875 18.109375 30.90625 
L 18.109375 0 
L 9.078125 0 
L 9.078125 54.6875 
L 18.109375 54.6875 
L 18.109375 46.1875 
Q 21.34375 51.125 25.703125 53.5625 
Q 30.078125 56 35.796875 56 
Q 45.21875 56 50.046875 50.171875 
Q 54.890625 44.34375 54.890625 33.015625 
z
" id="DejaVuSans-110"/>
      <path d="M 18.3125 70.21875 
L 18.3125 54.6875 
L 36.8125 54.6875 
L 36.8125 47.703125 
L 18.3125 47.703125 
L 18.3125 18.015625 
Q 18.3125 11.328125 20.140625 9.421875 
Q 21.96875 7.515625 27.59375 7.515625 
L 36.8125 7.515625 
L 36.8125 0 
L 27.59375 0 
Q 17.1875 0 13.234375 3.875 
Q 9.28125 7.765625 9.28125 18.015625 
L 9.28125 47.703125 
L 2.6875 47.703125 
L 2.6875 54.6875 
L 9.28125 54.6875 
L 9.28125 70.21875 
z
" id="DejaVuSans-116"/>
      <path d="M 32.171875 -5.078125 
Q 28.375 -14.84375 24.75 -17.8125 
Q 21.140625 -20.796875 15.09375 -20.796875 
L 7.90625 -20.796875 
L 7.90625 -13.28125 
L 13.1875 -13.28125 
Q 16.890625 -13.28125 18.9375 -11.515625 
Q 21 -9.765625 23.484375 -3.21875 
L 25.09375 0.875 
L 2.984375 54.6875 
L 12.5 54.6875 
L 29.59375 11.921875 
L 46.6875 54.6875 
L 56.203125 54.6875 
z
" id="DejaVuSans-121"/>
      <path d="M 9.421875 54.6875 
L 18.40625 54.6875 
L 18.40625 0 
L 9.421875 0 
z
M 9.421875 75.984375 
L 18.40625 75.984375 
L 18.40625 64.59375 
L 9.421875 64.59375 
z
" id="DejaVuSans-105"/>
      <path d="M 14.796875 27.296875 
Q 14.796875 17.390625 18.875 11.75 
Q 22.953125 6.109375 30.078125 6.109375 
Q 37.203125 6.109375 41.296875 11.75 
Q 45.40625 17.390625 45.40625 27.296875 
Q 45.40625 37.203125 41.296875 42.84375 
Q 37.203125 48.484375 30.078125 48.484375 
Q 22.953125 48.484375 18.875 42.84375 
Q 14.796875 37.203125 14.796875 27.296875 
z
M 45.40625 8.203125 
Q 42.578125 3.328125 38.25 0.953125 
Q 33.9375 -1.421875 27.875 -1.421875 
Q 17.96875 -1.421875 11.734375 6.484375 
Q 5.515625 14.40625 5.515625 27.296875 
Q 5.515625 40.1875 11.734375 48.09375 
Q 17.96875 56 27.875 56 
Q 33.9375 56 38.25 53.625 
Q 42.578125 51.265625 45.40625 46.390625 
L 45.40625 54.6875 
L 54.390625 54.6875 
L 54.390625 -20.796875 
L 45.40625 -20.796875 
z
" id="DejaVuSans-113"/>
      <path d="M 8.5 21.578125 
L 8.5 54.6875 
L 17.484375 54.6875 
L 17.484375 21.921875 
Q 17.484375 14.15625 20.5 10.265625 
Q 23.53125 6.390625 29.59375 6.390625 
Q 36.859375 6.390625 41.078125 11.03125 
Q 45.3125 15.671875 45.3125 23.6875 
L 45.3125 54.6875 
L 54.296875 54.6875 
L 54.296875 0 
L 45.3125 0 
L 45.3125 8.40625 
Q 42.046875 3.421875 37.71875 1 
Q 33.40625 -1.421875 27.6875 -1.421875 
Q 18.265625 -1.421875 13.375 4.4375 
Q 8.5 10.296875 8.5 21.578125 
z
M 31.109375 56 
z
" id="DejaVuSans-117"/>
     </defs>
     <g transform="translate(12.832812 265.88125)rotate(-90)scale(0.1 -0.1)">
      <use xlink:href="#DejaVuSans-78"/>
      <use x="74.804688" xlink:href="#DejaVuSans-111"/>
      <use x="135.986328" xlink:href="#DejaVuSans-109"/>
      <use x="233.398438" xlink:href="#DejaVuSans-98"/>
      <use x="296.875" xlink:href="#DejaVuSans-114"/>
      <use x="337.957031" xlink:href="#DejaVuSans-101"/>
      <use x="399.480469" xlink:href="#DejaVuSans-32"/>
      <use x="431.267578" xlink:href="#DejaVuSans-100"/>
      <use x="494.744141" xlink:href="#DejaVuSans-39"/>
      <use x="522.234375" xlink:href="#DejaVuSans-97"/>
      <use x="583.513672" xlink:href="#DejaVuSans-103"/>
      <use x="646.990234" xlink:href="#DejaVuSans-101"/>
      <use x="708.513672" xlink:href="#DejaVuSans-110"/>
      <use x="771.892578" xlink:href="#DejaVuSans-116"/>
      <use x="811.101562" xlink:href="#DejaVuSans-115"/>
      <use x="863.201172" xlink:href="#DejaVuSans-32"/>
      <use x="894.988281" xlink:href="#DejaVuSans-115"/>
      <use x="947.087891" xlink:href="#DejaVuSans-121"/>
      <use x="1006.267578" xlink:href="#DejaVuSans-109"/>
      <use x="1103.679688" xlink:href="#DejaVuSans-112"/>
      <use x="1167.15625" xlink:href="#DejaVuSans-116"/>
      <use x="1206.365234" xlink:href="#DejaVuSans-111"/>
      <use x="1267.546875" xlink:href="#DejaVuSans-109"/>
      <use x="1364.958984" xlink:href="#DejaVuSans-97"/>
      <use x="1426.238281" xlink:href="#DejaVuSans-116"/>
      <use x="1465.447266" xlink:href="#DejaVuSans-105"/>
      <use x="1493.230469" xlink:href="#DejaVuSans-113"/>
      <use x="1556.707031" xlink:href="#DejaVuSans-117"/>
      <use x="1620.085938" xlink:href="#DejaVuSans-101"/>
     </g>
    </g>
   </g>
   <g id="line2d_17">
    <path clip-path="url(#pb057b5c1c2)" d="M 57.681818 307.8 
L 58.332168 297.792355 
L 59.632867 262.365293 
L 60.933566 239.647939 
L 61.583916 228.439377 
L 62.234266 221.03372 
L 62.884615 215.629592 
L 63.534965 211.826687 
L 64.185315 206.322482 
L 64.835664 202.519577 
L 66.136364 193.412621 
L 66.786713 190.61048 
L 67.437063 189.009257 
L 68.087413 188.008493 
L 68.737762 186.707499 
L 69.388112 184.105511 
L 70.038462 183.805282 
L 70.688811 182.804517 
L 71.339161 182.904594 
L 71.98951 182.704441 
L 72.63986 184.806046 
L 73.29021 184.305664 
L 73.940559 185.806811 
L 74.590909 186.407269 
L 75.241259 187.708263 
L 75.891608 187.107805 
L 76.541958 186.307193 
L 77.192308 188.008493 
L 78.493007 188.508875 
L 79.793706 189.009257 
L 80.444056 191.311015 
L 81.094406 192.31178 
L 81.744755 194.413385 
L 82.395105 195.614303 
L 83.045455 198.816749 
L 83.695804 200.818278 
L 84.346154 201.518813 
L 84.996503 202.019195 
L 85.646853 203.620418 
L 86.297203 203.120036 
L 86.947552 203.920648 
L 87.597902 204.921412 
L 88.248252 204.921412 
L 88.898601 207.22317 
L 89.548951 208.524164 
L 90.199301 209.324776 
L 90.84965 211.426381 
L 91.5 212.627299 
L 92.15035 213.527987 
L 92.800699 216.53028 
L 93.451049 218.331656 
L 94.101399 219.63265 
L 94.751748 220.533338 
L 95.402098 222.634943 
L 96.052448 223.635708 
L 96.702797 225.136855 
L 97.353147 227.338536 
L 98.003497 228.739607 
L 98.653846 229.640295 
L 99.304196 231.841977 
L 99.954545 234.544041 
L 101.255245 238.547098 
L 101.905594 239.647939 
L 102.555944 242.149851 
L 103.856643 245.952756 
L 105.157343 249.855737 
L 107.108392 254.058948 
L 107.758741 254.959636 
L 108.409091 256.761012 
L 109.70979 260.964223 
L 110.36014 262.16514 
L 111.01049 263.065828 
L 111.660839 264.266745 
L 112.311189 265.067357 
L 112.961538 267.068886 
L 113.611888 268.269803 
L 114.262238 270.471485 
L 114.912587 271.272097 
L 115.562937 272.473014 
L 116.213287 273.073473 
L 116.863636 273.874084 
L 117.513986 275.075002 
L 118.164336 275.175078 
L 118.814685 276.075766 
L 119.465035 275.875613 
L 120.115385 276.976454 
L 120.765734 277.576913 
L 121.416084 277.476836 
L 122.066434 278.477601 
L 122.716783 278.577677 
L 123.367133 278.977983 
L 124.017483 279.678518 
L 124.667832 279.978748 
L 125.968531 280.078824 
L 126.618881 280.278977 
L 127.269231 280.679283 
L 127.91958 281.279741 
L 128.56993 281.042718 
L 129.22028 281.990811 
L 129.870629 282.096155 
L 130.520979 282.728216 
L 131.821678 283.254935 
L 132.472028 283.149591 
L 133.122378 283.676309 
L 133.772727 283.465622 
L 135.073427 283.570965 
L 135.723776 283.99234 
L 136.374126 284.097684 
L 137.024476 284.940433 
L 137.674825 285.467151 
L 138.325175 286.204556 
L 138.975524 287.574023 
L 139.625874 288.206085 
L 140.926573 288.838147 
L 141.576923 288.732803 
L 142.227273 288.94349 
L 142.877622 289.680896 
L 143.527972 289.786239 
L 144.178322 290.523645 
L 144.828671 291.050363 
L 145.479021 291.366394 
L 146.129371 291.050363 
L 146.77972 291.050363 
L 148.08042 292.103799 
L 148.730769 292.41983 
L 149.381119 292.314487 
L 150.031469 291.787768 
L 150.681818 291.577081 
L 151.332168 291.577081 
L 151.982517 292.41983 
L 152.632867 292.841205 
L 153.933566 293.157236 
L 154.583916 293.367923 
L 155.234266 292.946548 
L 155.884615 293.57861 
L 156.534965 293.473266 
L 157.185315 292.946548 
L 157.835664 292.735861 
L 158.486014 292.010161 
L 159.786713 291.898964 
L 160.437063 292.566141 
L 161.087413 291.037195 
L 162.388112 290.161526 
L 163.038462 290.787004 
L 163.688811 291.662673 
L 164.98951 291.912864 
L 165.63986 292.163055 
L 166.29021 292.03796 
L 166.940559 292.538342 
L 167.590909 292.288151 
L 168.241259 291.520898 
L 168.891608 291.787768 
L 169.541958 291.921204 
L 170.192308 291.644802 
L 170.842657 292.931499 
L 171.493007 291.787768 
L 172.143357 291.941732 
L 172.793706 290.787004 
L 173.444056 291.45418 
L 174.094406 290.696025 
L 174.744755 291.787768 
L 175.395105 291.787768 
L 176.045455 291.605811 
L 176.695804 291.969726 
L 177.346154 291.18731 
L 177.996503 291.587616 
L 178.646853 292.58838 
L 179.297203 293.188839 
L 179.947552 292.010161 
L 180.597902 292.677337 
L 181.248252 292.010161 
L 182.548951 292.899729 
L 183.199301 292.899729 
L 183.84965 292.454945 
L 185.800699 291.787768 
L 186.451049 291.342984 
L 187.101399 292.454945 
L 187.751748 293.789297 
L 188.402098 293.566905 
L 189.052448 293.566905 
L 189.702797 294.456474 
L 190.353147 294.234082 
L 191.003497 295.12365 
L 191.653846 295.790826 
L 192.304196 296.013218 
L 192.954545 295.290444 
L 193.604895 295.540635 
L 194.255245 295.290444 
L 195.555944 292.788533 
L 196.206294 292.03796 
L 196.856643 290.072172 
L 197.506993 290.358105 
L 198.807692 289.786239 
L 199.458042 290.072172 
L 200.758741 289.500307 
L 201.409091 290.072172 
L 202.059441 290.072172 
L 202.70979 290.92997 
L 204.01049 293.789297 
L 204.660839 293.789297 
L 205.311189 294.07523 
L 205.961538 295.218961 
L 206.611888 295.504894 
L 207.262238 295.12365 
L 207.912587 293.789297 
L 208.562937 293.789297 
L 209.213287 294.589909 
L 209.863636 294.990215 
L 210.513986 296.591438 
L 211.164336 296.591438 
L 211.814685 297.392049 
L 212.465035 296.591438 
L 213.115385 297.792355 
L 213.765734 296.791591 
L 214.416084 298.292738 
L 215.716783 300.294266 
L 216.367133 300.294266 
L 217.017483 300.794649 
L 217.667832 299.793884 
L 218.318182 300.461061 
L 218.968531 300.461061 
L 219.618881 301.128237 
L 220.269231 301.128237 
L 220.91958 301.795413 
L 221.56993 303.129766 
L 222.22028 303.796942 
L 222.870629 303.796942 
L 223.520979 304.464118 
L 226.772727 304.464118 
L 227.423077 305.131295 
L 228.073427 304.464118 
L 228.723776 304.464118 
L 229.374126 305.131295 
L 230.674825 305.131295 
L 231.325175 304.797707 
L 244.332168 304.797707 
L 244.982517 305.798471 
L 250.185315 305.798471 
L 252.136364 299.793884 
L 252.786713 295.790826 
L 253.437063 295.790826 
L 254.087413 297.792355 
L 257.339161 297.792355 
L 257.98951 299.793884 
L 263.842657 299.793884 
L 265.793706 293.789297 
L 266.444056 293.789297 
L 267.094406 291.787768 
L 267.744755 293.789297 
L 268.395105 293.789297 
L 269.045455 299.793884 
L 272.947552 299.793884 
L 273.597902 301.795413 
L 274.248252 301.795413 
L 274.898601 303.796942 
L 278.15035 303.796942 
L 278.800699 305.798471 
L 282.702797 305.798471 
L 282.702797 305.798471 
" style="fill:none;stroke:#1f77b4;stroke-linecap:square;stroke-width:1.5;"/>
   </g>
   <g id="line2d_18">
    <path clip-path="url(#pb057b5c1c2)" d="M 57.681818 307.8 
L 58.332168 297.792355 
L 58.982517 280.178901 
L 59.632867 266.66858 
L 60.283217 257.461547 
L 60.933566 246.353061 
L 63.534965 213.127681 
L 64.835664 197.315602 
L 65.486014 188.308722 
L 69.388112 150.980207 
L 70.688811 140.272027 
L 71.339161 137.469887 
L 74.590909 115.953451 
L 75.241259 115.052763 
L 75.891608 113.851845 
L 76.541958 111.550087 
L 77.192308 108.247564 
L 77.842657 108.347641 
L 78.493007 109.048176 
L 79.143357 108.347641 
L 79.793706 107.2468 
L 80.444056 106.446188 
L 81.094406 105.445424 
L 81.744755 104.744888 
L 82.395105 103.243742 
L 83.695804 99.841143 
L 84.346154 99.841143 
L 84.996503 97.639461 
L 85.646853 97.139078 
L 86.297203 97.439308 
L 86.947552 98.339996 
L 87.597902 99.540913 
L 88.248252 96.438543 
L 88.898601 94.737244 
L 89.548951 92.635638 
L 90.199301 91.634874 
L 90.84965 91.935103 
L 91.5 90.734186 
L 92.15035 91.73495 
L 92.800699 91.835027 
L 94.751748 97.539384 
L 95.402098 97.93969 
L 96.052448 99.240684 
L 96.702797 98.940455 
L 97.353147 100.341525 
L 98.003497 99.741066 
L 98.653846 98.940455 
L 99.954545 98.239919 
L 100.604895 95.938161 
L 101.255245 96.138314 
L 101.905594 99.040531 
L 102.555944 96.838849 
L 103.206294 98.039766 
L 103.856643 98.540149 
L 104.506993 99.941219 
L 105.157343 100.341525 
L 105.807692 98.740302 
L 106.458042 99.140607 
L 107.108392 98.740302 
L 107.758741 96.038238 
L 108.409091 96.738773 
L 109.059441 99.841143 
L 110.36014 103.443895 
L 111.01049 104.244506 
L 112.311189 108.948099 
L 112.961538 109.248329 
L 114.262238 111.149781 
L 114.912587 112.951157 
L 115.562937 112.951157 
L 116.213287 114.85261 
L 116.863636 114.152075 
L 117.513986 114.152075 
L 118.164336 115.653221 
L 118.814685 119.155897 
L 119.465035 120.056585 
L 120.115385 120.556967 
L 120.765734 119.556203 
L 121.416084 120.657044 
L 122.066434 123.058878 
L 124.017483 132.065759 
L 125.318182 136.068816 
L 125.968531 139.471416 
L 126.618881 141.272792 
L 127.269231 143.474474 
L 128.56993 146.776996 
L 129.22028 149.579137 
L 129.870629 150.279672 
L 130.520979 152.081048 
L 131.171329 152.88166 
L 132.472028 155.283494 
L 133.122378 156.284259 
L 135.073427 158.385864 
L 135.723776 160.087164 
L 136.374126 160.48747 
L 137.024476 162.989381 
L 137.674825 164.290375 
L 138.325175 166.792286 
L 138.975524 166.191827 
L 139.625874 167.692974 
L 140.276224 167.592897 
L 140.926573 166.692209 
L 142.227273 169.294197 
L 142.877622 171.696032 
L 143.527972 172.096337 
L 144.178322 173.897714 
L 144.828671 176.399625 
L 146.129371 180.702912 
L 146.77972 183.104747 
L 147.43007 183.505052 
L 148.730769 187.007728 
L 150.681818 195.013844 
L 151.332168 197.415679 
L 151.982517 199.317131 
L 152.632867 199.817513 
L 153.933566 203.220113 
L 154.583916 205.722024 
L 155.884615 208.92447 
L 156.534965 209.725082 
L 157.185315 210.825923 
L 158.486014 212.527222 
L 159.786713 214.728904 
L 160.437063 214.929057 
L 161.087413 216.53028 
L 161.737762 218.731962 
L 162.388112 220.533338 
L 163.038462 219.832803 
L 163.688811 219.732726 
L 164.339161 221.03372 
L 164.98951 221.934408 
L 165.63986 223.535631 
L 167.590909 229.440142 
L 168.241259 229.840448 
L 168.891608 229.940524 
L 169.541958 231.241518 
L 170.192308 231.641824 
L 170.842657 233.843505 
L 171.493007 235.344652 
L 172.143357 237.846563 
L 172.793706 239.247634 
L 173.444056 239.748016 
L 174.094406 240.448551 
L 174.744755 240.548627 
L 175.395105 240.348475 
L 176.045455 241.249163 
L 176.695804 242.950462 
L 177.346154 246.052832 
L 177.996503 247.854208 
L 178.646853 249.155202 
L 179.297203 246.911383 
L 179.947552 248.28085 
L 180.597902 248.491537 
L 181.248252 248.912912 
L 182.548951 251.651846 
L 183.199301 251.125128 
L 183.84965 252.599939 
L 184.5 252.494595 
L 185.15035 254.285437 
L 185.800699 255.654904 
L 186.451049 257.761776 
L 187.101399 259.236587 
L 188.402098 261.027429 
L 189.052448 262.396896 
L 189.702797 262.291552 
L 190.353147 262.712927 
L 191.003497 264.082394 
L 191.653846 265.767892 
L 192.304196 266.505298 
L 193.604895 268.928201 
L 194.255245 268.928201 
L 194.905594 269.560263 
L 195.555944 269.560263 
L 196.206294 268.214205 
L 196.856643 268.547793 
L 197.506993 269.437362 
L 200.758741 272.662047 
L 201.409091 272.995636 
L 202.70979 274.441184 
L 203.36014 275.886733 
L 205.311189 279.222614 
L 205.961538 279.445007 
L 206.611888 280.556967 
L 207.912587 281.668928 
L 208.562937 282.669692 
L 209.213287 282.780888 
L 209.863636 283.670457 
L 210.513986 282.486546 
L 211.164336 282.957494 
L 211.814685 282.15541 
L 212.465035 281.905219 
L 213.115385 281.780124 
L 213.765734 282.530697 
L 214.416084 283.031079 
L 215.066434 281.646688 
L 215.716783 282.313865 
L 216.367133 283.381347 
L 217.017483 284.181958 
L 217.667832 284.067585 
L 218.318182 283.638686 
L 218.968531 284.353518 
L 219.618881 285.783182 
L 220.269231 285.926148 
L 220.91958 285.783182 
L 221.56993 284.551471 
L 222.22028 284.397508 
L 222.870629 283.448064 
L 223.520979 283.781653 
L 224.171329 283.114476 
L 224.821678 283.114476 
L 225.472028 283.448064 
L 226.122378 283.948447 
L 226.772727 284.282035 
L 227.423077 284.782417 
L 228.073427 284.949211 
L 228.723776 285.449593 
L 229.374126 286.283564 
L 230.024476 286.283564 
L 230.674825 286.450358 
L 231.325175 287.117534 
L 231.975524 286.692967 
L 232.625874 288.330582 
L 233.276224 288.185016 
L 233.926573 288.785475 
L 234.576923 289.786239 
L 235.227273 290.386698 
L 235.877622 291.387463 
L 236.527972 291.987921 
L 237.178322 292.188074 
L 237.828671 292.58838 
L 238.479021 292.58838 
L 239.129371 293.388992 
L 239.77972 293.188839 
L 240.43007 293.122121 
L 241.730769 294.011689 
L 242.381119 294.901258 
L 243.031469 295.346042 
L 243.681818 295.568434 
L 244.332168 296.013218 
L 244.982517 296.013218 
L 245.632867 296.235611 
L 246.283217 296.235611 
L 246.933566 296.902787 
L 247.583916 297.347571 
L 248.234266 297.125179 
L 248.884615 297.347571 
L 249.534965 297.792355 
L 250.185315 297.792355 
L 250.835664 298.014747 
L 251.486014 299.126708 
L 252.136364 299.793884 
L 252.786713 299.043311 
L 253.437063 298.650153 
L 254.087413 298.650153 
L 254.737762 299.222019 
L 255.388112 299.507952 
L 256.038462 299.507952 
L 256.688811 299.793884 
L 257.98951 299.793884 
L 258.63986 300.651682 
L 259.29021 300.937615 
L 259.940559 301.50948 
L 260.590909 301.795413 
L 261.241259 301.795413 
L 261.891608 302.939144 
L 262.541958 302.462589 
L 263.192308 302.796178 
L 263.842657 302.796178 
L 264.493007 302.195719 
L 267.744755 302.195719 
L 268.395105 302.596025 
L 272.297203 302.596025 
L 272.947552 303.396636 
L 275.548951 303.396636 
L 276.199301 303.796942 
L 278.15035 303.796942 
L 278.800699 304.197248 
L 282.052448 304.297324 
L 282.702797 304.797707 
L 287.255245 304.797707 
L 287.905594 304.464118 
L 288.555944 305.131295 
L 297.01049 305.131295 
L 297.660839 304.797707 
L 302.863636 304.797707 
L 303.513986 305.798471 
L 311.318182 305.798471 
L 311.318182 305.798471 
" style="fill:none;stroke:#ff7f0e;stroke-linecap:square;stroke-width:1.5;"/>
   </g>
   <g id="line2d_19"/>
   <g id="line2d_20"/>
   <g id="line2d_21"/>
   <g id="patch_3">
    <path d="M 45 320.4 
L 45 43.2 
" style="fill:none;stroke:#000000;stroke-linecap:square;stroke-linejoin:miter;stroke-width:0.8;"/>
   </g>
   <g id="patch_4">
    <path d="M 324 320.4 
L 324 43.2 
" style="fill:none;stroke:#000000;stroke-linecap:square;stroke-linejoin:miter;stroke-width:0.8;"/>
   </g>
   <g id="patch_5">
    <path d="M 45 320.4 
L 324 320.4 
" style="fill:none;stroke:#000000;stroke-linecap:square;stroke-linejoin:miter;stroke-width:0.8;"/>
   </g>
   <g id="patch_6">
    <path d="M 45 43.2 
L 324 43.2 
" style="fill:none;stroke:#000000;stroke-linecap:square;stroke-linejoin:miter;stroke-width:0.8;"/>
   </g>
   <g id="legend_1">
    <g id="patch_7">
     <path d="M 222.76875 95.234375 
L 317 95.234375 
Q 319 95.234375 319 93.234375 
L 319 50.2 
Q 319 48.2 317 48.2 
L 222.76875 48.2 
Q 220.76875 48.2 220.76875 50.2 
L 220.76875 93.234375 
Q 220.76875 95.234375 222.76875 95.234375 
z
" style="fill:#ffffff;opacity:0.8;stroke:#cccccc;stroke-linejoin:miter;"/>
    </g>
    <g id="line2d_22">
     <path d="M 224.76875 56.298437 
L 244.76875 56.298437 
" style="fill:none;"/>
    </g>
    <g id="line2d_23"/>
    <g id="text_19">
     <!-- Quarantaine -->
     <defs>
      <path d="M 39.40625 66.21875 
Q 28.65625 66.21875 22.328125 58.203125 
Q 16.015625 50.203125 16.015625 36.375 
Q 16.015625 22.609375 22.328125 14.59375 
Q 28.65625 6.59375 39.40625 6.59375 
Q 50.140625 6.59375 56.421875 14.59375 
Q 62.703125 22.609375 62.703125 36.375 
Q 62.703125 50.203125 56.421875 58.203125 
Q 50.140625 66.21875 39.40625 66.21875 
z
M 53.21875 1.3125 
L 66.21875 -12.890625 
L 54.296875 -12.890625 
L 43.5 -1.21875 
Q 41.890625 -1.3125 41.03125 -1.359375 
Q 40.1875 -1.421875 39.40625 -1.421875 
Q 24.03125 -1.421875 14.8125 8.859375 
Q 5.609375 19.140625 5.609375 36.375 
Q 5.609375 53.65625 14.8125 63.9375 
Q 24.03125 74.21875 39.40625 74.21875 
Q 54.734375 74.21875 63.90625 63.9375 
Q 73.09375 53.65625 73.09375 36.375 
Q 73.09375 23.6875 67.984375 14.640625 
Q 62.890625 5.609375 53.21875 1.3125 
z
" id="DejaVuSans-81"/>
     </defs>
     <g transform="translate(252.76875 59.798437)scale(0.1 -0.1)">
      <use xlink:href="#DejaVuSans-81"/>
      <use x="78.710938" xlink:href="#DejaVuSans-117"/>
      <use x="142.089844" xlink:href="#DejaVuSans-97"/>
      <use x="203.369141" xlink:href="#DejaVuSans-114"/>
      <use x="244.482422" xlink:href="#DejaVuSans-97"/>
      <use x="305.761719" xlink:href="#DejaVuSans-110"/>
      <use x="369.140625" xlink:href="#DejaVuSans-116"/>
      <use x="408.349609" xlink:href="#DejaVuSans-97"/>
      <use x="469.628906" xlink:href="#DejaVuSans-105"/>
      <use x="497.412109" xlink:href="#DejaVuSans-110"/>
      <use x="560.791016" xlink:href="#DejaVuSans-101"/>
     </g>
    </g>
    <g id="line2d_24">
     <path d="M 224.76875 70.976562 
L 244.76875 70.976562 
" style="fill:none;stroke:#1f77b4;stroke-linecap:square;stroke-width:1.5;"/>
    </g>
    <g id="line2d_25"/>
    <g id="text_20">
     <!-- oui -->
     <g transform="translate(252.76875 74.476562)scale(0.1 -0.1)">
      <use xlink:href="#DejaVuSans-111"/>
      <use x="61.181641" xlink:href="#DejaVuSans-117"/>
      <use x="124.560547" xlink:href="#DejaVuSans-105"/>
     </g>
    </g>
    <g id="line2d_26">
     <path d="M 224.76875 85.654687 
L 244.76875 85.654687 
" style="fill:none;stroke:#ff7f0e;stroke-linecap:square;stroke-width:1.5;"/>
    </g>
    <g id="line2d_27"/>
    <g id="text_21">
     <!-- non -->
     <g transform="translate(252.76875 89.154687)scale(0.1 -0.1)">
      <use xlink:href="#DejaVuSans-110"/>
      <use x="63.378906" xlink:href="#DejaVuSans-111"/>
      <use x="124.560547" xlink:href="#DejaVuSans-110"/>
     </g>
    </g>
   </g>
  </g>
 </g>
 <defs>
  <clipPath id="pb057b5c1c2">
   <rect height="277.2" width="279" x="45" y="43.2"/>
  </clipPath>
 </defs>
</svg>
