<?xml version="1.0" encoding="utf-8" standalone="no"?>
<!DOCTYPE svg PUBLIC "-//W3C//DTD SVG 1.1//EN"
  "http://www.w3.org/Graphics/SVG/1.1/DTD/svg11.dtd">
<!-- Created with matplotlib (https://matplotlib.org/) -->
<svg height="360pt" version="1.1" viewBox="0 0 360 360" width="360pt" xmlns="http://www.w3.org/2000/svg" xmlns:xlink="http://www.w3.org/1999/xlink">
 <defs>
  <style type="text/css">
*{stroke-linecap:butt;stroke-linejoin:round;}
  </style>
 </defs>
 <g id="figure_1">
  <g id="patch_1">
   <path d="M 0 360 
L 360 360 
L 360 0 
L 0 0 
z
" style="fill:#ffffff;"/>
  </g>
  <g id="axes_1">
   <g id="patch_2">
    <path d="M 45 320.4 
L 324 320.4 
L 324 43.2 
L 45 43.2 
z
" style="fill:#ffffff;"/>
   </g>
   <g id="PolyCollection_1">
    <defs>
     <path d="M 57.681818 -52.2 
L 57.681818 -52.2 
L 58.213551 -60.591539 
L 58.745283 -73.934085 
L 59.277015 -82.7452 
L 59.808748 -87.778025 
L 60.34048 -92.477287 
L 60.872213 -98.437377 
L 61.403945 -102.045739 
L 61.935678 -104.896764 
L 62.46741 -107.328212 
L 62.999142 -110.932378 
L 63.530875 -112.449149 
L 64.062607 -113.458231 
L 64.59434 -115.723947 
L 65.126072 -117.066593 
L 65.657804 -117.73372 
L 66.189537 -119.246295 
L 66.721269 -120.251182 
L 67.253002 -118.826718 
L 67.784734 -119.919716 
L 68.316467 -118.658887 
L 68.848199 -118.738607 
L 69.379931 -119.831605 
L 69.911664 -118.658887 
L 70.443396 -117.14841 
L 70.975129 -116.812749 
L 71.506861 -116.644918 
L 72.038593 -116.724638 
L 72.570326 -117.22813 
L 73.102058 -116.479185 
L 73.633791 -117.395961 
L 74.165523 -114.794584 
L 74.697256 -114.211372 
L 75.228988 -114.794584 
L 75.76072 -114.379203 
L 76.292453 -112.952641 
L 76.824185 -114.377105 
L 77.355918 -113.957528 
L 77.88765 -113.447742 
L 78.419383 -112.365233 
L 78.951115 -113.70788 
L 79.482847 -115.721849 
L 80.01458 -114.041443 
L 80.546312 -114.121163 
L 81.078045 -113.957528 
L 81.609777 -111.022587 
L 82.141509 -111.861741 
L 82.673242 -110.852659 
L 83.204974 -109.428195 
L 83.736707 -107.246395 
L 84.268439 -104.307259 
L 84.800172 -105.903749 
L 85.331904 -104.728933 
L 85.863636 -105.48627 
L 86.395369 -103.386287 
L 86.927101 -103.388385 
L 87.458834 -104.05761 
L 87.990566 -104.059708 
L 88.522298 -103.388385 
L 89.054031 -102.549231 
L 89.585763 -102.884893 
L 90.117496 -102.542938 
L 90.649228 -102.549231 
L 91.180961 -101.707979 
L 91.712693 -98.938772 
L 92.244425 -98.684928 
L 92.776158 -98.521293 
L 93.30789 -96.840887 
L 93.839623 -96.507323 
L 94.371355 -95.332508 
L 94.903087 -96.419212 
L 95.43482 -96.255577 
L 95.966552 -94.484963 
L 96.498285 -93.73392 
L 97.030017 -93.6542 
L 97.56175 -92.391274 
L 98.093482 -92.812949 
L 98.625214 -91.889879 
L 99.156947 -90.801077 
L 99.688679 -89.624164 
L 100.220412 -88.361237 
L 100.752144 -87.1088 
L 101.283877 -86.261255 
L 101.815609 -84.003931 
L 102.347341 -83.248693 
L 102.879074 -81.820033 
L 103.410806 -79.975993 
L 103.942539 -78.463418 
L 104.474271 -77.540348 
L 105.006003 -76.703293 
L 105.537736 -76.1998 
L 106.069468 -76.447351 
L 106.601201 -74.938972 
L 107.132933 -74.855056 
L 107.664666 -74.267648 
L 108.196398 -73.510312 
L 108.72813 -72.673256 
L 109.259863 -72.339692 
L 109.791595 -70.577469 
L 110.323328 -70.071879 
L 110.85506 -69.906146 
L 111.386792 -68.227839 
L 111.918525 -67.808262 
L 112.450257 -66.633446 
L 112.98199 -66.127856 
L 113.513722 -65.120871 
L 114.045455 -65.2908 
L 114.577187 -64.535562 
L 115.108919 -64.955139 
L 115.640652 -64.032069 
L 116.172384 -64.283815 
L 116.704117 -64.029971 
L 117.235849 -64.029971 
L 117.767581 -63.864239 
L 118.299314 -63.946056 
L 118.831046 -63.528577 
L 119.362779 -63.276831 
L 119.894511 -64.385397 
L 120.426244 -63.418162 
L 120.957976 -62.881545 
L 121.489708 -61.825978 
L 122.021441 -61.384318 
L 122.553173 -61.298194 
L 123.084906 -60.944866 
L 123.616638 -60.854326 
L 124.14837 -60.503207 
L 124.680103 -59.973215 
L 125.211835 -59.531555 
L 125.743568 -59.354891 
L 126.2753 -59.087686 
L 126.807033 -58.734359 
L 127.338765 -58.824899 
L 127.870497 -58.383239 
L 128.40223 -58.381031 
L 128.933962 -58.908814 
L 129.465695 -58.736567 
L 129.997427 -57.939371 
L 130.52916 -58.029911 
L 131.060892 -58.071746 
L 131.592624 -57.698789 
L 132.124357 -57.70112 
L 132.656089 -57.419071 
L 133.187822 -57.728543 
L 133.719554 -57.136199 
L 134.251286 -57.6545 
L 134.783019 -57.337195 
L 135.314751 -57.127407 
L 135.846484 -56.815346 
L 136.378216 -57.025135 
L 136.909949 -56.710452 
L 137.441681 -56.393147 
L 137.973413 -56.185981 
L 138.505146 -56.395769 
L 139.036878 -56.393147 
L 139.568611 -56.116051 
L 140.100343 -56.227938 
L 140.632075 -56.116051 
L 141.163808 -56.004164 
L 141.69554 -55.892277 
L 142.227273 -56.156011 
L 142.759005 -57.234923 
L 143.290738 -57.105823 
L 143.82247 -57.095064 
L 144.354202 -56.815346 
L 144.885935 -55.976192 
L 145.417667 -55.972696 
L 145.9494 -56.116051 
L 146.481132 -56.112555 
L 147.012864 -56.116051 
L 147.544597 -55.976192 
L 148.076329 -55.836333 
L 148.608062 -56.166909 
L 149.139794 -56.014336 
L 149.671527 -56.166909 
L 150.203259 -56.014336 
L 150.734991 -56.559404 
L 151.266724 -56.227938 
L 151.798456 -56.223743 
L 152.330189 -56.227938 
L 152.861921 -56.060108 
L 153.393654 -56.060108 
L 153.925386 -55.892277 
L 154.457118 -55.892277 
L 154.988851 -55.724446 
L 155.520583 -55.892277 
L 156.052316 -55.220954 
L 156.584048 -55.388785 
L 157.11578 -55.220954 
L 157.647513 -55.556615 
L 158.179245 -55.370137 
L 158.710978 -54.99718 
L 159.24271 -55.370137 
L 159.774443 -55.370137 
L 160.306175 -55.970948 
L 160.837907 -55.556615 
L 161.36964 -55.137038 
L 161.901372 -55.137038 
L 162.433105 -55.346827 
L 162.964837 -55.137038 
L 163.496569 -54.717462 
L 164.028302 -54.92725 
L 164.560034 -55.341582 
L 165.091767 -55.346827 
L 165.623499 -55.346827 
L 166.155232 -55.766404 
L 166.686964 -55.346827 
L 167.218696 -54.92725 
L 167.750429 -55.077099 
L 168.282161 -55.796374 
L 168.813894 -55.796374 
L 169.345626 -56.030138 
L 169.877358 -55.796374 
L 170.409091 -55.556615 
L 170.940823 -55.077099 
L 171.472556 -55.556615 
L 172.004288 -55.556615 
L 172.536021 -55.556615 
L 173.067753 -55.836333 
L 173.599485 -56.116051 
L 174.131218 -56.395769 
L 174.66295 -56.395769 
L 175.194683 -56.955205 
L 175.726415 -56.395769 
L 176.258148 -56.116051 
L 176.78988 -56.395769 
L 177.321612 -56.395769 
L 177.853345 -56.116051 
L 178.385077 -55.556615 
L 178.91681 -55.556615 
L 179.448542 -55.836333 
L 179.980274 -55.836333 
L 180.512007 -56.116051 
L 181.043739 -57.570585 
L 181.575472 -57.570585 
L 182.107204 -56.899262 
L 182.638937 -57.570585 
L 183.170669 -56.899262 
L 183.702401 -56.899262 
L 184.234134 -56.899262 
L 184.765866 -56.899262 
L 185.297599 -57.234923 
L 185.829331 -56.5636 
L 186.361063 -55.556615 
L 186.892796 -55.220954 
L 187.424528 -60.591539 
L 187.956261 -58.913231 
L 188.487993 -58.913231 
L 189.019726 -58.913231 
L 189.551458 -58.913231 
L 190.08319 -58.913231 
L 190.614923 -58.913231 
L 191.146655 -58.913231 
L 191.678388 -58.913231 
L 192.21012 -58.913231 
L 192.741852 -57.234923 
L 193.273585 -57.234923 
L 193.805317 -55.556615 
L 194.33705 -55.556615 
L 194.868782 -55.556615 
L 195.400515 -55.556615 
L 195.932247 -55.556615 
L 196.463979 -55.556615 
L 196.995712 -55.556615 
L 197.527444 -55.556615 
L 198.059177 -55.556615 
L 198.590909 -55.556615 
L 199.122642 -55.556615 
L 199.654374 -55.556615 
L 200.186106 -55.556615 
L 200.717839 -55.556615 
L 201.249571 -55.556615 
L 201.781304 -55.556615 
L 202.313036 -55.556615 
L 202.844768 -55.556615 
L 203.376501 -53.878308 
L 203.908233 -55.556615 
L 204.439966 -55.556615 
L 204.971698 -55.556615 
L 205.503431 -55.556615 
L 206.035163 -55.556615 
L 206.566895 -53.878308 
L 207.098628 -53.878308 
L 207.63036 -53.878308 
L 208.162093 -53.878308 
L 208.693825 -53.878308 
L 209.225557 -53.878308 
L 209.75729 -53.878308 
L 210.289022 -53.878308 
L 210.820755 -53.878308 
L 211.352487 -53.878308 
L 211.88422 -53.878308 
L 212.415952 -53.878308 
L 212.947684 -53.878308 
L 213.479417 -53.878308 
L 214.011149 -53.878308 
L 214.542882 -53.878308 
L 215.074614 -53.878308 
L 215.606346 -53.878308 
L 216.138079 -53.878308 
L 216.669811 -53.878308 
L 217.201544 -53.878308 
L 217.733276 -53.878308 
L 218.265009 -53.878308 
L 218.265009 -57.234923 
L 218.265009 -57.234923 
L 217.733276 -57.234923 
L 217.201544 -57.234923 
L 216.669811 -57.234923 
L 216.138079 -55.556615 
L 215.606346 -55.556615 
L 215.074614 -57.234923 
L 214.542882 -57.234923 
L 214.011149 -57.234923 
L 213.479417 -57.234923 
L 212.947684 -57.234923 
L 212.415952 -57.234923 
L 211.88422 -58.913231 
L 211.352487 -60.591539 
L 210.820755 -58.913231 
L 210.289022 -57.234923 
L 209.75729 -57.234923 
L 209.225557 -57.234923 
L 208.693825 -57.234923 
L 208.162093 -58.913231 
L 207.63036 -58.913231 
L 207.098628 -58.913231 
L 206.566895 -58.913231 
L 206.035163 -60.591539 
L 205.503431 -60.591539 
L 204.971698 -60.591539 
L 204.439966 -60.591539 
L 203.908233 -62.269846 
L 203.376501 -61.766354 
L 202.844768 -63.948154 
L 202.313036 -63.948154 
L 201.781304 -63.948154 
L 201.249571 -62.269846 
L 200.717839 -62.269846 
L 200.186106 -60.591539 
L 199.654374 -60.591539 
L 199.122642 -60.591539 
L 198.590909 -60.591539 
L 198.059177 -60.591539 
L 197.527444 -60.591539 
L 196.995712 -60.591539 
L 196.463979 -62.269846 
L 195.932247 -62.269846 
L 195.400515 -62.269846 
L 194.868782 -62.269846 
L 194.33705 -62.269846 
L 193.805317 -62.269846 
L 193.273585 -62.269846 
L 192.741852 -62.269846 
L 192.21012 -63.948154 
L 191.678388 -65.626462 
L 191.146655 -65.626462 
L 190.614923 -68.983077 
L 190.08319 -67.304769 
L 189.551458 -67.304769 
L 189.019726 -67.304769 
L 188.487993 -70.661385 
L 187.956261 -70.661385 
L 187.424528 -70.661385 
L 186.892796 -67.304769 
L 186.361063 -67.304769 
L 185.829331 -67.976092 
L 185.297599 -68.647416 
L 184.765866 -68.647416 
L 184.234134 -68.311754 
L 183.702401 -68.983077 
L 183.170669 -68.983077 
L 182.638937 -68.983077 
L 182.107204 -68.983077 
L 181.575472 -68.311754 
L 181.043739 -68.311754 
L 180.512007 -66.465616 
L 179.980274 -66.185898 
L 179.448542 -65.353737 
L 178.91681 -64.227872 
L 178.385077 -65.067026 
L 177.853345 -63.948154 
L 177.321612 -64.50759 
L 176.78988 -64.794301 
L 176.258148 -65.346744 
L 175.726415 -65.346744 
L 175.194683 -65.346744 
L 174.66295 -66.752326 
L 174.131218 -65.346744 
L 173.599485 -63.948154 
L 173.067753 -63.668436 
L 172.536021 -63.948154 
L 172.004288 -63.388718 
L 171.472556 -64.234865 
L 170.940823 -63.228879 
L 170.409091 -64.667429 
L 169.877358 -64.907187 
L 169.345626 -65.626462 
L 168.813894 -65.86622 
L 168.282161 -67.784286 
L 167.750429 -67.544528 
L 167.218696 -64.577519 
L 166.686964 -62.689423 
L 166.155232 -62.899212 
L 165.623499 -61.435937 
L 165.091767 -61.640481 
L 164.560034 -61.640481 
L 164.028302 -62.479635 
L 163.496569 -62.689423 
L 162.964837 -62.269846 
L 162.433105 -63.109 
L 161.901372 -62.060058 
L 161.36964 -61.850269 
L 160.837907 -63.318789 
L 160.306175 -63.324033 
L 159.774443 -62.460987 
L 159.24271 -62.269846 
L 158.710978 -62.456325 
L 158.179245 -64.134633 
L 157.647513 -66.185898 
L 157.11578 -65.970515 
L 156.584048 -64.955139 
L 156.052316 -64.283815 
L 155.520583 -64.787308 
L 154.988851 -64.115985 
L 154.457118 -63.948154 
L 153.925386 -64.115985 
L 153.393654 -63.109 
L 152.861921 -62.102015 
L 152.330189 -61.766354 
L 151.798456 -60.759369 
L 151.266724 -61.262862 
L 150.734991 -61.430692 
L 150.203259 -60.896685 
L 149.671527 -60.896685 
L 149.139794 -61.201832 
L 148.608062 -61.510793 
L 148.076329 -61.290833 
L 147.544597 -61.990128 
L 147.012864 -62.129987 
L 146.481132 -62.832779 
L 145.9494 -62.409705 
L 145.417667 -63.248859 
L 144.885935 -63.392215 
L 144.354202 -64.50759 
L 143.82247 -65.766321 
L 143.290738 -65.110059 
L 142.759005 -65.23916 
L 142.227273 -64.550547 
L 141.69554 -63.836267 
L 141.163808 -65.067026 
L 140.632075 -65.85583 
L 140.100343 -66.524356 
L 139.568611 -67.307567 
L 139.036878 -66.363344 
L 138.505146 -66.468238 
L 137.973413 -66.678026 
L 137.441681 -68.458606 
L 136.909949 -68.353712 
L 136.378216 -69.822231 
L 135.846484 -69.827476 
L 135.314751 -71.398267 
L 134.783019 -72.132526 
L 134.251286 -73.076574 
L 133.719554 -72.043521 
L 133.187822 -73.131952 
L 132.656089 -71.321053 
L 132.124357 -73.460895 
L 131.592624 -72.435263 
L 131.060892 -74.950393 
L 130.52916 -73.490217 
L 129.997427 -74.729073 
L 129.465695 -75.519644 
L 128.933962 -76.054052 
L 128.40223 -77.197952 
L 127.870497 -76.7585 
L 127.338765 -74.905737 
L 126.807033 -77.727944 
L 126.2753 -76.40738 
L 125.743568 -75.442353 
L 125.211835 -75.96572 
L 124.680103 -76.844624 
L 124.14837 -77.644028 
L 123.616638 -78.436808 
L 123.084906 -78.522931 
L 122.553173 -80.466235 
L 122.021441 -79.671247 
L 121.489708 -80.293988 
L 120.957976 -81.881755 
L 120.426244 -82.148959 
L 119.894511 -82.853407 
L 119.362779 -79.812358 
L 118.831046 -80.059908 
L 118.299314 -79.304669 
L 117.767581 -78.549431 
L 117.235849 -78.131952 
L 116.704117 -77.206785 
L 116.172384 -77.62846 
L 115.640652 -77.2907 
L 115.108919 -78.385796 
L 114.577187 -79.390683 
L 114.045455 -79.982286 
L 113.513722 -80.143823 
L 112.98199 -82.493454 
L 112.450257 -84.345886 
L 111.918525 -87.194814 
L 111.386792 -85.776644 
L 110.85506 -88.871023 
L 110.323328 -88.294105 
L 109.791595 -91.390583 
L 109.259863 -92.819242 
L 108.72813 -94.159791 
L 108.196398 -93.236721 
L 107.664666 -93.570285 
L 107.132933 -93.157002 
L 106.601201 -94.663283 
L 106.069468 -94.161888 
L 105.537736 -94.915029 
L 105.006003 -96.842985 
L 104.474271 -97.686335 
L 103.942539 -99.530375 
L 103.410806 -102.471609 
L 102.879074 -104.647116 
L 102.347341 -107.754083 
L 101.815609 -108.429602 
L 101.283877 -111.450556 
L 100.752144 -114.633047 
L 100.220412 -115.142833 
L 99.688679 -118.581266 
L 99.156947 -118.828816 
L 98.625214 -122.187529 
L 98.093482 -121.686135 
L 97.56175 -122.105712 
L 97.030017 -125.12247 
L 96.498285 -127.306368 
L 95.966552 -126.555325 
L 95.43482 -131.08256 
L 94.903087 -130.583264 
L 94.371355 -129.162996 
L 93.839623 -131.418222 
L 93.30789 -129.40635 
L 92.776158 -132.188145 
L 92.244425 -134.187429 
L 91.712693 -137.464325 
L 91.180961 -141.752401 
L 90.649228 -142.996447 
L 90.117496 -140.564999 
L 89.585763 -142.495052 
L 89.054031 -139.392281 
L 88.522298 -144.762866 
L 87.990566 -142.417431 
L 87.458834 -145.360763 
L 86.927101 -145.26426 
L 86.395369 -145.346078 
L 85.863636 -143.080362 
L 85.331904 -147.030679 
L 84.800172 -147.7041 
L 84.268439 -144.513218 
L 83.736707 -146.103414 
L 83.204974 -151.476097 
L 82.673242 -149.292199 
L 82.141509 -148.119481 
L 81.609777 -148.702693 
L 81.078045 -150.469112 
L 80.546312 -147.865637 
L 80.01458 -147.699904 
L 79.482847 -149.457932 
L 78.951115 -147.192216 
L 78.419383 -145.935583 
L 77.88765 -145.180345 
L 77.355918 -146.604808 
L 76.824185 -143.166376 
L 76.292453 -142.247502 
L 75.76072 -142.746799 
L 75.228988 -141.488068 
L 74.697256 -140.986673 
L 74.165523 -139.975493 
L 73.633791 -140.988771 
L 73.102058 -139.388085 
L 72.570326 -139.390183 
L 72.038593 -139.474099 
L 71.506861 -139.975493 
L 70.975129 -140.31535 
L 70.443396 -141.657997 
L 69.911664 -143.08246 
L 69.379931 -142.916727 
L 68.848199 -141.823729 
L 68.316467 -141.574081 
L 67.784734 -140.311155 
L 67.253002 -140.483181 
L 66.721269 -141.150308 
L 66.189537 -139.555916 
L 65.657804 -135.949652 
L 65.126072 -135.110499 
L 64.59434 -134.353162 
L 64.062607 -131.583955 
L 63.530875 -130.409139 
L 62.999142 -127.388185 
L 62.46741 -124.201498 
L 61.935678 -121.262362 
L 61.403945 -116.563101 
L 60.872213 -111.696008 
L 60.34048 -103.81006 
L 59.808748 -97.516406 
L 59.277015 -89.961923 
L 58.745283 -78.297685 
L 58.213551 -60.591539 
L 57.681818 -52.2 
z
" id="mcd055869ac" style="stroke:#1f77b4;stroke-opacity:0.2;"/>
    </defs>
    <g clip-path="url(#p4f46d5aab5)">
     <use style="fill:#1f77b4;fill-opacity:0.2;stroke:#1f77b4;stroke-opacity:0.2;" x="0" xlink:href="#mcd055869ac" y="360"/>
    </g>
   </g>
   <g id="PolyCollection_2">
    <defs>
     <path d="M 57.681818 -52.2 
L 57.681818 -52.2 
L 58.213551 -60.591539 
L 58.745283 -71.078864 
L 59.277015 -80.059908 
L 59.808748 -88.197602 
L 60.34048 -94.7451 
L 60.872213 -100.449249 
L 61.403945 -107.749887 
L 61.935678 -112.365233 
L 62.46741 -121.178447 
L 62.999142 -127.799371 
L 63.530875 -133.845474 
L 64.062607 -139.30417 
L 64.59434 -146.596417 
L 65.126072 -153.22783 
L 65.657804 -160.526371 
L 66.189537 -164.644518 
L 66.721269 -172.952142 
L 67.253002 -174.21297 
L 67.784734 -177.821332 
L 68.316467 -182.350665 
L 68.848199 -182.520593 
L 69.379931 -186.288394 
L 69.911664 -188.470194 
L 70.443396 -189.149909 
L 70.975129 -190.826119 
L 71.506861 -193.758961 
L 72.038593 -196.693902 
L 72.570326 -198.458223 
L 73.102058 -201.647008 
L 73.633791 -202.488259 
L 74.165523 -205.425298 
L 74.697256 -202.490357 
L 75.228988 -202.574273 
L 75.76072 -208.94345 
L 76.292453 -212.977683 
L 76.824185 -213.90285 
L 77.355918 -215.656681 
L 77.88765 -213.978373 
L 78.419383 -216.250383 
L 78.951115 -221.029364 
L 79.482847 -223.378995 
L 80.01458 -223.551021 
L 80.546312 -226.821623 
L 81.078045 -230.518096 
L 81.609777 -234.715963 
L 82.141509 -232.5971 
L 82.673242 -233.274716 
L 83.204974 -236.213853 
L 83.736707 -237.90265 
L 84.268439 -236.220146 
L 84.800172 -234.455825 
L 85.331904 -237.818734 
L 85.863636 -238.401946 
L 86.395369 -236.81175 
L 86.927101 -238.81523 
L 87.458834 -239.247394 
L 87.990566 -236.81175 
L 88.522298 -234.199883 
L 89.054031 -232.865629 
L 89.585763 -231.768435 
L 90.117496 -226.406242 
L 90.649228 -229.257267 
L 91.180961 -229.846773 
L 91.712693 -228.825103 
L 92.244425 -231.692911 
L 92.776158 -230.432083 
L 93.30789 -231.023686 
L 93.839623 -228.08455 
L 94.371355 -228.911116 
L 94.903087 -226.657988 
L 95.43482 -227.748888 
L 95.966552 -226.40834 
L 96.498285 -224.476188 
L 97.030017 -222.374108 
L 97.56175 -221.289501 
L 98.093482 -220.282517 
L 98.625214 -217.337087 
L 99.156947 -215.914721 
L 99.688679 -216.925901 
L 100.220412 -218.432183 
L 100.752144 -220.534263 
L 101.283877 -217.762957 
L 101.815609 -215.247594 
L 102.347341 -215.079763 
L 102.879074 -212.390275 
L 103.410806 -216.160173 
L 103.942539 -217.259465 
L 104.474271 -216.086748 
L 105.006003 -214.569977 
L 105.537736 -213.315442 
L 106.069468 -212.897963 
L 106.601201 -211.051824 
L 107.132933 -208.784011 
L 107.664666 -209.870715 
L 108.196398 -211.624547 
L 108.72813 -211.723147 
L 109.259863 -207.611294 
L 109.791595 -207.185423 
L 110.323328 -202.651894 
L 110.85506 -204.000834 
L 111.386792 -201.311346 
L 111.918525 -201.735119 
L 112.450257 -197.115577 
L 112.98199 -198.116268 
L 113.513722 -197.702984 
L 114.045455 -201.315542 
L 114.577187 -198.126757 
L 115.108919 -198.968009 
L 115.640652 -198.965911 
L 116.172384 -194.430284 
L 116.704117 -195.187621 
L 117.235849 -192.003032 
L 117.767581 -191.497442 
L 118.299314 -189.56529 
L 118.831046 -191.247793 
L 119.362779 -191.065278 
L 119.894511 -185.197494 
L 120.426244 -186.787691 
L 120.957976 -181.503119 
L 121.489708 -182.17654 
L 122.021441 -178.910134 
L 122.553173 -178.910134 
L 123.084906 -174.716463 
L 123.616638 -170.768244 
L 124.14837 -169.597624 
L 124.680103 -166.068982 
L 125.211835 -166.066884 
L 125.743568 -162.210972 
L 126.2753 -162.380901 
L 126.807033 -160.530567 
L 127.338765 -160.618678 
L 127.870497 -161.355035 
L 128.40223 -155.74739 
L 128.933962 -153.401955 
L 129.465695 -150.796382 
L 129.997427 -146.600613 
L 130.52916 -145.427895 
L 131.060892 -142.82442 
L 131.592624 -139.050326 
L 132.124357 -138.376905 
L 132.656089 -137.959426 
L 133.187822 -137.372018 
L 133.719554 -134.768543 
L 134.251286 -134.348966 
L 134.783019 -132.337095 
L 135.314751 -129.567887 
L 135.846484 -131.153888 
L 136.378216 -129.064395 
L 136.909949 -129.712641 
L 137.441681 -126.458822 
L 137.973413 -125.961624 
L 138.505146 -124.27912 
L 139.036878 -120.922505 
L 139.568611 -117.819733 
L 140.100343 -116.474989 
L 140.632075 -116.307159 
L 141.163808 -114.549131 
L 141.69554 -113.37012 
L 142.227273 -112.700895 
L 142.759005 -111.190418 
L 143.290738 -109.596026 
L 143.82247 -107.244297 
L 144.354202 -105.398159 
L 144.885935 -104.726835 
L 145.417667 -102.545035 
L 145.9494 -102.714964 
L 146.481132 -100.27932 
L 147.012864 -99.777926 
L 147.544597 -98.601012 
L 148.076329 -96.842985 
L 148.608062 -95.328312 
L 149.139794 -93.14861 
L 149.671527 -93.314343 
L 150.203259 -92.309456 
L 150.734991 -91.302472 
L 151.266724 -90.717162 
L 151.798456 -89.878008 
L 152.330189 -88.531166 
L 152.861921 -87.608097 
L 153.393654 -86.854956 
L 153.925386 -84.589241 
L 154.457118 -83.080862 
L 154.988851 -83.162679 
L 155.520583 -82.073877 
L 156.052316 -81.6543 
L 156.584048 -80.477387 
L 157.11578 -80.645218 
L 157.647513 -79.889979 
L 158.179245 -78.549431 
L 158.710978 -78.3816 
L 159.24271 -77.626362 
L 159.774443 -77.038954 
L 160.306175 -76.948745 
L 160.837907 -77.114478 
L 161.36964 -75.022887 
L 161.901372 -74.353662 
L 162.433105 -74.018 
L 162.964837 -72.675354 
L 163.496569 -71.752285 
L 164.028302 -72.004031 
L 164.560034 -70.994948 
L 165.091767 -71.076766 
L 165.623499 -70.659287 
L 166.155232 -69.316641 
L 166.686964 -68.894966 
L 167.218696 -68.980979 
L 167.750429 -67.4726 
L 168.282161 -68.143923 
L 168.813894 -67.136939 
L 169.345626 -66.878899 
L 169.877358 -66.717362 
L 170.409091 -65.962123 
L 170.940823 -65.374715 
L 171.472556 -65.202689 
L 172.004288 -65.273134 
L 172.536021 -65.449798 
L 173.067753 -64.7321 
L 173.599485 -64.301482 
L 174.131218 -63.943737 
L 174.66295 -63.413745 
L 175.194683 -64.227872 
L 175.726415 -64.414351 
L 176.258148 -63.943492 
L 176.78988 -63.945823 
L 177.321612 -63.666105 
L 177.853345 -63.195246 
L 178.385077 -63.663774 
L 178.91681 -62.92019 
L 179.448542 -62.640473 
L 179.980274 -62.174276 
L 180.512007 -61.61484 
L 181.043739 -61.430692 
L 181.575472 -61.617171 
L 182.107204 -61.80365 
L 182.638937 -60.962165 
L 183.170669 -60.964496 
L 183.702401 -60.778017 
L 184.234134 -60.218581 
L 184.765866 -60.032103 
L 185.297599 -59.099709 
L 185.829331 -58.724421 
L 186.361063 -58.724421 
L 186.892796 -59.209403 
L 187.424528 -58.518335 
L 187.956261 -58.598548 
L 188.487993 -58.703442 
L 189.019726 -58.493654 
L 189.551458 -58.074077 
L 190.08319 -59.134208 
L 190.614923 -58.465682 
L 191.146655 -58.793352 
L 191.678388 -59.03311 
L 192.21012 -59.030113 
L 192.741852 -58.553593 
L 193.273585 -58.433714 
L 193.805317 -58.074077 
L 194.33705 -57.59456 
L 194.868782 -57.591564 
L 195.400515 -57.231926 
L 195.932247 -56.875286 
L 196.463979 -56.995165 
L 196.995712 -56.512651 
L 197.527444 -56.156011 
L 198.059177 -56.272893 
L 198.590909 -56.036132 
L 199.122642 -56.153014 
L 199.654374 -55.916253 
L 200.186106 -55.796374 
L 200.717839 -55.796374 
L 201.249571 -55.556615 
L 201.781304 -55.556615 
L 202.313036 -55.196978 
L 202.844768 -55.196978 
L 203.376501 -55.196978 
L 203.908233 -55.169314 
L 204.439966 -55.137038 
L 204.971698 -55.404042 
L 205.503431 -55.709189 
L 206.035163 -55.556615 
L 206.566895 -55.098895 
L 207.098628 -54.793748 
L 207.63036 -55.098895 
L 208.162093 -55.098895 
L 208.693825 -55.098895 
L 209.225557 -54.946322 
L 209.75729 -54.946322 
L 210.289022 -54.946322 
L 210.820755 -55.220954 
L 211.352487 -55.220954 
L 211.88422 -55.388785 
L 212.415952 -55.220954 
L 212.947684 -54.885292 
L 213.479417 -55.053123 
L 214.011149 -55.053123 
L 214.542882 -55.183658 
L 215.074614 -54.810701 
L 215.606346 -54.624222 
L 216.138079 -54.717462 
L 216.669811 -54.717462 
L 217.201544 -54.507673 
L 217.733276 -54.507673 
L 218.265009 -54.088096 
L 218.796741 -53.878308 
L 219.328473 -54.118066 
L 219.860206 -54.158026 
L 220.391938 -54.158026 
L 220.923671 -54.158026 
L 221.455403 -54.158026 
L 221.987136 -54.158026 
L 222.518868 -54.158026 
L 223.0506 -53.878308 
L 223.582333 -53.878308 
L 224.114065 -53.878308 
L 224.645798 -53.878308 
L 225.17753 -53.878308 
L 225.709262 -53.878308 
L 226.240995 -53.878308 
L 226.772727 -53.878308 
L 227.30446 -53.878308 
L 227.836192 -53.878308 
L 228.367925 -53.878308 
L 228.899657 -53.878308 
L 228.899657 -53.878308 
L 228.899657 -53.878308 
L 228.367925 -55.556615 
L 227.836192 -55.556615 
L 227.30446 -55.556615 
L 226.772727 -55.556615 
L 226.240995 -55.556615 
L 225.709262 -57.234923 
L 225.17753 -56.395769 
L 224.645798 -55.892277 
L 224.114065 -55.892277 
L 223.582333 -55.892277 
L 223.0506 -55.892277 
L 222.518868 -56.116051 
L 221.987136 -56.116051 
L 221.455403 -56.116051 
L 220.923671 -56.116051 
L 220.391938 -56.395769 
L 219.860206 -56.675487 
L 219.328473 -56.042126 
L 218.796741 -56.27589 
L 218.265009 -55.976192 
L 217.733276 -56.185981 
L 217.201544 -56.605558 
L 216.669811 -57.234923 
L 216.138079 -57.234923 
L 215.606346 -56.861966 
L 215.074614 -57.421402 
L 214.542882 -57.794359 
L 214.011149 -57.402754 
L 213.479417 -57.742611 
L 212.947684 -57.906246 
L 212.415952 -58.078273 
L 211.88422 -58.913231 
L 211.352487 -58.7454 
L 210.820755 -58.7454 
L 210.289022 -58.455511 
L 209.75729 -58.455511 
L 209.225557 -58.608084 
L 208.693825 -58.608084 
L 208.162093 -58.302937 
L 207.63036 -58.608084 
L 207.098628 -58.760657 
L 206.566895 -58.913231 
L 206.035163 -58.913231 
L 205.503431 -58.760657 
L 204.971698 -58.608084 
L 204.439966 -57.934218 
L 203.908233 -57.622225 
L 203.376501 -57.477678 
L 202.844768 -58.193956 
L 202.313036 -58.313835 
L 201.781304 -58.673473 
L 201.249571 -58.913231 
L 200.717839 -59.512626 
L 200.186106 -59.635503 
L 199.654374 -59.632506 
L 199.122642 -59.632506 
L 198.590909 -59.992143 
L 198.059177 -60.115019 
L 197.527444 -60.231901 
L 196.995712 -60.831297 
L 196.463979 -61.670451 
L 195.932247 -62.269846 
L 195.400515 -63.228879 
L 194.868782 -63.588517 
L 194.33705 -63.951151 
L 193.805317 -64.550547 
L 193.273585 -64.907187 
L 192.741852 -64.54755 
L 192.21012 -65.266824 
L 191.678388 -65.986099 
L 191.146655 -66.465616 
L 190.614923 -66.185898 
L 190.08319 -67.528544 
L 189.551458 -66.468238 
L 189.019726 -67.100226 
L 188.487993 -67.831863 
L 187.956261 -68.880805 
L 187.424528 -68.294477 
L 186.892796 -69.281717 
L 186.361063 -69.824562 
L 185.829331 -71.31406 
L 185.297599 -71.31406 
L 184.765866 -72.526171 
L 184.234134 -73.458564 
L 183.702401 -73.740613 
L 183.170669 -74.390957 
L 182.638937 -75.698639 
L 182.107204 -76.255744 
L 181.575472 -76.162504 
L 181.043739 -75.976026 
L 180.512007 -77.843143 
L 179.980274 -79.70793 
L 179.448542 -79.334972 
L 178.91681 -80.453844 
L 178.385077 -79.892077 
L 177.853345 -81.295329 
L 177.321612 -82.505109 
L 176.78988 -82.502778 
L 176.258148 -83.064545 
L 175.726415 -83.066876 
L 175.194683 -85.773147 
L 174.66295 -83.383399 
L 174.131218 -84.973375 
L 173.599485 -84.271135 
L 173.067753 -85.07054 
L 172.536021 -85.324494 
L 172.004288 -85.331119 
L 171.472556 -84.255677 
L 170.940823 -84.681548 
L 170.409091 -86.030488 
L 169.877358 -84.849379 
L 169.345626 -86.185731 
L 168.813894 -85.187138 
L 168.282161 -85.684337 
L 167.750429 -86.0179 
L 167.218696 -87.44656 
L 166.686964 -86.947263 
L 166.155232 -86.86125 
L 165.623499 -87.360546 
L 165.091767 -88.283616 
L 164.560034 -88.117883 
L 164.028302 -88.621375 
L 163.496569 -90.217865 
L 162.964837 -92.147919 
L 162.433105 -91.891977 
L 161.901372 -93.488467 
L 161.36964 -96.261871 
L 160.837907 -98.942968 
L 160.306175 -98.27584 
L 159.774443 -97.684237 
L 159.24271 -98.693319 
L 158.710978 -99.614291 
L 158.179245 -100.959035 
L 157.647513 -101.292598 
L 157.11578 -101.963921 
L 156.584048 -103.054821 
L 156.052316 -105.236621 
L 155.520583 -104.5632 
L 154.988851 -109.346377 
L 154.457118 -109.033793 
L 153.925386 -113.80648 
L 153.393654 -114.219763 
L 152.861921 -115.220454 
L 152.330189 -116.984775 
L 151.798456 -119.08266 
L 151.266724 -118.417631 
L 150.734991 -118.660985 
L 150.203259 -121.178447 
L 149.671527 -117.821831 
L 149.139794 -118.495252 
L 148.608062 -120.259573 
L 148.076329 -120.677052 
L 147.544597 -122.521093 
L 147.012864 -124.621075 
L 146.481132 -125.542047 
L 145.9494 -127.472101 
L 145.417667 -127.558114 
L 144.885935 -128.479085 
L 144.354202 -131.669968 
L 143.82247 -133.096529 
L 143.290738 -135.44616 
L 142.759005 -137.632156 
L 142.227273 -139.560112 
L 141.69554 -142.996447 
L 141.163808 -143.919516 
L 140.632075 -145.597824 
L 140.100343 -145.771948 
L 139.568611 -146.439076 
L 139.036878 -148.115285 
L 138.505146 -151.639732 
L 137.973413 -153.99146 
L 137.441681 -154.669077 
L 136.909949 -156.093541 
L 136.378216 -157.345978 
L 135.846484 -156.844583 
L 135.314751 -159.617987 
L 134.783019 -162.387195 
L 134.251286 -165.322135 
L 133.719554 -170.608804 
L 133.187822 -171.779424 
L 132.656089 -173.629758 
L 132.124357 -176.149318 
L 131.592624 -179.585653 
L 131.060892 -183.110099 
L 130.52916 -184.36883 
L 129.997427 -190.005846 
L 129.465695 -194.942168 
L 128.933962 -199.39388 
L 128.40223 -199.891078 
L 127.870497 -202.072878 
L 127.338765 -203.587551 
L 126.807033 -201.065894 
L 126.2753 -202.998045 
L 125.743568 -206.446968 
L 125.211835 -210.716163 
L 124.680103 -214.003548 
L 124.14837 -213.571384 
L 123.616638 -216.51052 
L 123.084906 -220.116784 
L 122.553173 -225.911141 
L 122.021441 -226.248901 
L 121.489708 -228.434896 
L 120.957976 -231.195713 
L 120.426244 -234.724355 
L 119.894511 -237.149509 
L 119.362779 -237.571184 
L 118.831046 -239.937598 
L 118.299314 -236.738324 
L 117.767581 -239.922913 
L 117.235849 -240.84808 
L 116.704117 -243.610994 
L 116.172384 -244.206793 
L 115.640652 -244.703992 
L 115.108919 -248.916544 
L 114.577187 -246.048736 
L 114.045455 -245.811675 
L 113.513722 -243.111697 
L 112.98199 -246.298384 
L 112.450257 -245.79699 
L 111.918525 -246.967609 
L 111.386792 -248.161306 
L 110.85506 -250.08087 
L 110.323328 -251.8368 
L 109.791595 -253.852867 
L 109.259863 -256.869625 
L 108.72813 -259.97869 
L 108.196398 -259.557015 
L 107.664666 -262.91363 
L 107.132933 -261.992659 
L 106.601201 -264.254179 
L 106.069468 -261.912939 
L 105.537736 -259.397576 
L 105.006003 -261.835318 
L 104.474271 -258.891986 
L 103.942539 -260.985674 
L 103.410806 -254.272444 
L 102.879074 -252.34239 
L 102.347341 -252.84798 
L 101.815609 -256.034667 
L 101.283877 -257.626961 
L 100.752144 -256.288511 
L 100.220412 -255.281526 
L 99.688679 -253.263361 
L 99.156947 -254.102515 
L 98.625214 -259.13534 
L 98.093482 -257.631157 
L 97.56175 -259.055621 
L 97.030017 -260.733928 
L 96.498285 -261.661193 
L 95.966552 -267.363244 
L 95.43482 -269.45903 
L 94.903087 -272.314251 
L 94.371355 -273.14921 
L 93.839623 -276.34219 
L 93.30789 -282.715563 
L 92.776158 -281.977108 
L 92.244425 -286.760285 
L 91.712693 -286.682663 
L 91.180961 -282.642138 
L 90.649228 -286.242108 
L 90.117496 -288.925302 
L 89.585763 -290.192424 
L 89.054031 -292.707788 
L 88.522298 -298.082568 
L 87.990566 -303.220288 
L 87.458834 -300.425906 
L 86.927101 -303.795108 
L 86.395369 -302.110507 
L 85.863636 -299.834302 
L 85.331904 -300.845482 
L 84.800172 -299.500738 
L 84.268439 -304.2 
L 83.736707 -297.595859 
L 83.204974 -299.597241 
L 82.673242 -295.816853 
L 82.141509 -290.351864 
L 81.609777 -290.19662 
L 81.078045 -290.19662 
L 80.546312 -288.172161 
L 80.01458 -283.808561 
L 79.482847 -284.228138 
L 78.951115 -275.8366 
L 78.419383 -273.484871 
L 77.88765 -271.475098 
L 77.355918 -272.146421 
L 76.824185 -265.185639 
L 76.292453 -264.933893 
L 75.76072 -257.205286 
L 75.228988 -249.153605 
L 74.697256 -249.401156 
L 74.165523 -250.494153 
L 73.633791 -249.409547 
L 73.102058 -248.312353 
L 72.570326 -244.12078 
L 72.038593 -242.446668 
L 71.506861 -238.576071 
L 70.975129 -235.305469 
L 70.443396 -234.978199 
L 69.911664 -231.279628 
L 69.379931 -225.737017 
L 68.848199 -223.062214 
L 68.316467 -222.464317 
L 67.784734 -216.758071 
L 67.253002 -213.739215 
L 66.721269 -208.202897 
L 66.189537 -198.384797 
L 65.657804 -192.00513 
L 65.126072 -182.268847 
L 64.59434 -173.461928 
L 64.062607 -162.634745 
L 63.530875 -157.765555 
L 62.999142 -150.886591 
L 62.46741 -141.823729 
L 61.935678 -133.686035 
L 61.403945 -126.467214 
L 60.872213 -117.993858 
L 60.34048 -110.271545 
L 59.808748 -100.619177 
L 59.277015 -88.871023 
L 58.745283 -76.621475 
L 58.213551 -60.591539 
L 57.681818 -52.2 
z
" id="m60b16fbe7d" style="stroke:#ff7f0e;stroke-opacity:0.2;"/>
    </defs>
    <g clip-path="url(#p4f46d5aab5)">
     <use style="fill:#ff7f0e;fill-opacity:0.2;stroke:#ff7f0e;stroke-opacity:0.2;" x="0" xlink:href="#m60b16fbe7d" y="360"/>
    </g>
   </g>
   <g id="matplotlib.axis_1">
    <g id="xtick_1">
     <g id="line2d_1">
      <defs>
       <path d="M 0 0 
L 0 3.5 
" id="me00e2de2ef" style="stroke:#000000;stroke-width:0.8;"/>
      </defs>
      <g>
       <use style="stroke:#000000;stroke-width:0.8;" x="57.681818" xlink:href="#me00e2de2ef" y="320.4"/>
      </g>
     </g>
     <g id="text_1">
      <!-- 0 -->
      <defs>
       <path d="M 31.78125 66.40625 
Q 24.171875 66.40625 20.328125 58.90625 
Q 16.5 51.421875 16.5 36.375 
Q 16.5 21.390625 20.328125 13.890625 
Q 24.171875 6.390625 31.78125 6.390625 
Q 39.453125 6.390625 43.28125 13.890625 
Q 47.125 21.390625 47.125 36.375 
Q 47.125 51.421875 43.28125 58.90625 
Q 39.453125 66.40625 31.78125 66.40625 
z
M 31.78125 74.21875 
Q 44.046875 74.21875 50.515625 64.515625 
Q 56.984375 54.828125 56.984375 36.375 
Q 56.984375 17.96875 50.515625 8.265625 
Q 44.046875 -1.421875 31.78125 -1.421875 
Q 19.53125 -1.421875 13.0625 8.265625 
Q 6.59375 17.96875 6.59375 36.375 
Q 6.59375 54.828125 13.0625 64.515625 
Q 19.53125 74.21875 31.78125 74.21875 
z
" id="DejaVuSans-48"/>
      </defs>
      <g transform="translate(54.500568 334.998438)scale(0.1 -0.1)">
       <use xlink:href="#DejaVuSans-48"/>
      </g>
     </g>
    </g>
    <g id="xtick_2">
     <g id="line2d_2">
      <g>
       <use style="stroke:#000000;stroke-width:0.8;" x="110.85506" xlink:href="#me00e2de2ef" y="320.4"/>
      </g>
     </g>
     <g id="text_2">
      <!-- 100 -->
      <defs>
       <path d="M 12.40625 8.296875 
L 28.515625 8.296875 
L 28.515625 63.921875 
L 10.984375 60.40625 
L 10.984375 69.390625 
L 28.421875 72.90625 
L 38.28125 72.90625 
L 38.28125 8.296875 
L 54.390625 8.296875 
L 54.390625 0 
L 12.40625 0 
z
" id="DejaVuSans-49"/>
      </defs>
      <g transform="translate(101.31131 334.998438)scale(0.1 -0.1)">
       <use xlink:href="#DejaVuSans-49"/>
       <use x="63.623047" xlink:href="#DejaVuSans-48"/>
       <use x="127.246094" xlink:href="#DejaVuSans-48"/>
      </g>
     </g>
    </g>
    <g id="xtick_3">
     <g id="line2d_3">
      <g>
       <use style="stroke:#000000;stroke-width:0.8;" x="164.028302" xlink:href="#me00e2de2ef" y="320.4"/>
      </g>
     </g>
     <g id="text_3">
      <!-- 200 -->
      <defs>
       <path d="M 19.1875 8.296875 
L 53.609375 8.296875 
L 53.609375 0 
L 7.328125 0 
L 7.328125 8.296875 
Q 12.9375 14.109375 22.625 23.890625 
Q 32.328125 33.6875 34.8125 36.53125 
Q 39.546875 41.84375 41.421875 45.53125 
Q 43.3125 49.21875 43.3125 52.78125 
Q 43.3125 58.59375 39.234375 62.25 
Q 35.15625 65.921875 28.609375 65.921875 
Q 23.96875 65.921875 18.8125 64.3125 
Q 13.671875 62.703125 7.8125 59.421875 
L 7.8125 69.390625 
Q 13.765625 71.78125 18.9375 73 
Q 24.125 74.21875 28.421875 74.21875 
Q 39.75 74.21875 46.484375 68.546875 
Q 53.21875 62.890625 53.21875 53.421875 
Q 53.21875 48.921875 51.53125 44.890625 
Q 49.859375 40.875 45.40625 35.40625 
Q 44.1875 33.984375 37.640625 27.21875 
Q 31.109375 20.453125 19.1875 8.296875 
z
" id="DejaVuSans-50"/>
      </defs>
      <g transform="translate(154.484552 334.998438)scale(0.1 -0.1)">
       <use xlink:href="#DejaVuSans-50"/>
       <use x="63.623047" xlink:href="#DejaVuSans-48"/>
       <use x="127.246094" xlink:href="#DejaVuSans-48"/>
      </g>
     </g>
    </g>
    <g id="xtick_4">
     <g id="line2d_4">
      <g>
       <use style="stroke:#000000;stroke-width:0.8;" x="217.201544" xlink:href="#me00e2de2ef" y="320.4"/>
      </g>
     </g>
     <g id="text_4">
      <!-- 300 -->
      <defs>
       <path d="M 40.578125 39.3125 
Q 47.65625 37.796875 51.625 33 
Q 55.609375 28.21875 55.609375 21.1875 
Q 55.609375 10.40625 48.1875 4.484375 
Q 40.765625 -1.421875 27.09375 -1.421875 
Q 22.515625 -1.421875 17.65625 -0.515625 
Q 12.796875 0.390625 7.625 2.203125 
L 7.625 11.71875 
Q 11.71875 9.328125 16.59375 8.109375 
Q 21.484375 6.890625 26.8125 6.890625 
Q 36.078125 6.890625 40.9375 10.546875 
Q 45.796875 14.203125 45.796875 21.1875 
Q 45.796875 27.640625 41.28125 31.265625 
Q 36.765625 34.90625 28.71875 34.90625 
L 20.21875 34.90625 
L 20.21875 43.015625 
L 29.109375 43.015625 
Q 36.375 43.015625 40.234375 45.921875 
Q 44.09375 48.828125 44.09375 54.296875 
Q 44.09375 59.90625 40.109375 62.90625 
Q 36.140625 65.921875 28.71875 65.921875 
Q 24.65625 65.921875 20.015625 65.03125 
Q 15.375 64.15625 9.8125 62.3125 
L 9.8125 71.09375 
Q 15.4375 72.65625 20.34375 73.4375 
Q 25.25 74.21875 29.59375 74.21875 
Q 40.828125 74.21875 47.359375 69.109375 
Q 53.90625 64.015625 53.90625 55.328125 
Q 53.90625 49.265625 50.4375 45.09375 
Q 46.96875 40.921875 40.578125 39.3125 
z
" id="DejaVuSans-51"/>
      </defs>
      <g transform="translate(207.657794 334.998438)scale(0.1 -0.1)">
       <use xlink:href="#DejaVuSans-51"/>
       <use x="63.623047" xlink:href="#DejaVuSans-48"/>
       <use x="127.246094" xlink:href="#DejaVuSans-48"/>
      </g>
     </g>
    </g>
    <g id="xtick_5">
     <g id="line2d_5">
      <g>
       <use style="stroke:#000000;stroke-width:0.8;" x="270.374786" xlink:href="#me00e2de2ef" y="320.4"/>
      </g>
     </g>
     <g id="text_5">
      <!-- 400 -->
      <defs>
       <path d="M 37.796875 64.3125 
L 12.890625 25.390625 
L 37.796875 25.390625 
z
M 35.203125 72.90625 
L 47.609375 72.90625 
L 47.609375 25.390625 
L 58.015625 25.390625 
L 58.015625 17.1875 
L 47.609375 17.1875 
L 47.609375 0 
L 37.796875 0 
L 37.796875 17.1875 
L 4.890625 17.1875 
L 4.890625 26.703125 
z
" id="DejaVuSans-52"/>
      </defs>
      <g transform="translate(260.831036 334.998438)scale(0.1 -0.1)">
       <use xlink:href="#DejaVuSans-52"/>
       <use x="63.623047" xlink:href="#DejaVuSans-48"/>
       <use x="127.246094" xlink:href="#DejaVuSans-48"/>
      </g>
     </g>
    </g>
    <g id="xtick_6">
     <g id="line2d_6">
      <g>
       <use style="stroke:#000000;stroke-width:0.8;" x="323.548027" xlink:href="#me00e2de2ef" y="320.4"/>
      </g>
     </g>
     <g id="text_6">
      <!-- 500 -->
      <defs>
       <path d="M 10.796875 72.90625 
L 49.515625 72.90625 
L 49.515625 64.59375 
L 19.828125 64.59375 
L 19.828125 46.734375 
Q 21.96875 47.46875 24.109375 47.828125 
Q 26.265625 48.1875 28.421875 48.1875 
Q 40.625 48.1875 47.75 41.5 
Q 54.890625 34.8125 54.890625 23.390625 
Q 54.890625 11.625 47.5625 5.09375 
Q 40.234375 -1.421875 26.90625 -1.421875 
Q 22.3125 -1.421875 17.546875 -0.640625 
Q 12.796875 0.140625 7.71875 1.703125 
L 7.71875 11.625 
Q 12.109375 9.234375 16.796875 8.0625 
Q 21.484375 6.890625 26.703125 6.890625 
Q 35.15625 6.890625 40.078125 11.328125 
Q 45.015625 15.765625 45.015625 23.390625 
Q 45.015625 31 40.078125 35.4375 
Q 35.15625 39.890625 26.703125 39.890625 
Q 22.75 39.890625 18.8125 39.015625 
Q 14.890625 38.140625 10.796875 36.28125 
z
" id="DejaVuSans-53"/>
      </defs>
      <g transform="translate(314.004277 334.998438)scale(0.1 -0.1)">
       <use xlink:href="#DejaVuSans-53"/>
       <use x="63.623047" xlink:href="#DejaVuSans-48"/>
       <use x="127.246094" xlink:href="#DejaVuSans-48"/>
      </g>
     </g>
    </g>
    <g id="text_7">
     <!-- Temps -->
     <defs>
      <path d="M -0.296875 72.90625 
L 61.375 72.90625 
L 61.375 64.59375 
L 35.5 64.59375 
L 35.5 0 
L 25.59375 0 
L 25.59375 64.59375 
L -0.296875 64.59375 
z
" id="DejaVuSans-84"/>
      <path d="M 56.203125 29.59375 
L 56.203125 25.203125 
L 14.890625 25.203125 
Q 15.484375 15.921875 20.484375 11.0625 
Q 25.484375 6.203125 34.421875 6.203125 
Q 39.59375 6.203125 44.453125 7.46875 
Q 49.3125 8.734375 54.109375 11.28125 
L 54.109375 2.78125 
Q 49.265625 0.734375 44.1875 -0.34375 
Q 39.109375 -1.421875 33.890625 -1.421875 
Q 20.796875 -1.421875 13.15625 6.1875 
Q 5.515625 13.8125 5.515625 26.8125 
Q 5.515625 40.234375 12.765625 48.109375 
Q 20.015625 56 32.328125 56 
Q 43.359375 56 49.78125 48.890625 
Q 56.203125 41.796875 56.203125 29.59375 
z
M 47.21875 32.234375 
Q 47.125 39.59375 43.09375 43.984375 
Q 39.0625 48.390625 32.421875 48.390625 
Q 24.90625 48.390625 20.390625 44.140625 
Q 15.875 39.890625 15.1875 32.171875 
z
" id="DejaVuSans-101"/>
      <path d="M 52 44.1875 
Q 55.375 50.25 60.0625 53.125 
Q 64.75 56 71.09375 56 
Q 79.640625 56 84.28125 50.015625 
Q 88.921875 44.046875 88.921875 33.015625 
L 88.921875 0 
L 79.890625 0 
L 79.890625 32.71875 
Q 79.890625 40.578125 77.09375 44.375 
Q 74.3125 48.1875 68.609375 48.1875 
Q 61.625 48.1875 57.5625 43.546875 
Q 53.515625 38.921875 53.515625 30.90625 
L 53.515625 0 
L 44.484375 0 
L 44.484375 32.71875 
Q 44.484375 40.625 41.703125 44.40625 
Q 38.921875 48.1875 33.109375 48.1875 
Q 26.21875 48.1875 22.15625 43.53125 
Q 18.109375 38.875 18.109375 30.90625 
L 18.109375 0 
L 9.078125 0 
L 9.078125 54.6875 
L 18.109375 54.6875 
L 18.109375 46.1875 
Q 21.1875 51.21875 25.484375 53.609375 
Q 29.78125 56 35.6875 56 
Q 41.65625 56 45.828125 52.96875 
Q 50 49.953125 52 44.1875 
z
" id="DejaVuSans-109"/>
      <path d="M 18.109375 8.203125 
L 18.109375 -20.796875 
L 9.078125 -20.796875 
L 9.078125 54.6875 
L 18.109375 54.6875 
L 18.109375 46.390625 
Q 20.953125 51.265625 25.265625 53.625 
Q 29.59375 56 35.59375 56 
Q 45.5625 56 51.78125 48.09375 
Q 58.015625 40.1875 58.015625 27.296875 
Q 58.015625 14.40625 51.78125 6.484375 
Q 45.5625 -1.421875 35.59375 -1.421875 
Q 29.59375 -1.421875 25.265625 0.953125 
Q 20.953125 3.328125 18.109375 8.203125 
z
M 48.6875 27.296875 
Q 48.6875 37.203125 44.609375 42.84375 
Q 40.53125 48.484375 33.40625 48.484375 
Q 26.265625 48.484375 22.1875 42.84375 
Q 18.109375 37.203125 18.109375 27.296875 
Q 18.109375 17.390625 22.1875 11.75 
Q 26.265625 6.109375 33.40625 6.109375 
Q 40.53125 6.109375 44.609375 11.75 
Q 48.6875 17.390625 48.6875 27.296875 
z
" id="DejaVuSans-112"/>
      <path d="M 44.28125 53.078125 
L 44.28125 44.578125 
Q 40.484375 46.53125 36.375 47.5 
Q 32.28125 48.484375 27.875 48.484375 
Q 21.1875 48.484375 17.84375 46.4375 
Q 14.5 44.390625 14.5 40.28125 
Q 14.5 37.15625 16.890625 35.375 
Q 19.28125 33.59375 26.515625 31.984375 
L 29.59375 31.296875 
Q 39.15625 29.25 43.1875 25.515625 
Q 47.21875 21.78125 47.21875 15.09375 
Q 47.21875 7.46875 41.1875 3.015625 
Q 35.15625 -1.421875 24.609375 -1.421875 
Q 20.21875 -1.421875 15.453125 -0.5625 
Q 10.6875 0.296875 5.421875 2 
L 5.421875 11.28125 
Q 10.40625 8.6875 15.234375 7.390625 
Q 20.0625 6.109375 24.8125 6.109375 
Q 31.15625 6.109375 34.5625 8.28125 
Q 37.984375 10.453125 37.984375 14.40625 
Q 37.984375 18.0625 35.515625 20.015625 
Q 33.0625 21.96875 24.703125 23.78125 
L 21.578125 24.515625 
Q 13.234375 26.265625 9.515625 29.90625 
Q 5.8125 33.546875 5.8125 39.890625 
Q 5.8125 47.609375 11.28125 51.796875 
Q 16.75 56 26.8125 56 
Q 31.78125 56 36.171875 55.265625 
Q 40.578125 54.546875 44.28125 53.078125 
z
" id="DejaVuSans-115"/>
     </defs>
     <g transform="translate(167.733594 348.676562)scale(0.1 -0.1)">
      <use xlink:href="#DejaVuSans-84"/>
      <use x="60.818359" xlink:href="#DejaVuSans-101"/>
      <use x="122.341797" xlink:href="#DejaVuSans-109"/>
      <use x="219.753906" xlink:href="#DejaVuSans-112"/>
      <use x="283.230469" xlink:href="#DejaVuSans-115"/>
     </g>
    </g>
   </g>
   <g id="matplotlib.axis_2">
    <g id="ytick_1">
     <g id="line2d_7">
      <defs>
       <path d="M 0 0 
L -3.5 0 
" id="mca614d95d1" style="stroke:#000000;stroke-width:0.8;"/>
      </defs>
      <g>
       <use style="stroke:#000000;stroke-width:0.8;" x="45" xlink:href="#mca614d95d1" y="307.8"/>
      </g>
     </g>
     <g id="text_8">
      <!-- 0 -->
      <g transform="translate(31.6375 311.599219)scale(0.1 -0.1)">
       <use xlink:href="#DejaVuSans-48"/>
      </g>
     </g>
    </g>
    <g id="ytick_2">
     <g id="line2d_8">
      <g>
       <use style="stroke:#000000;stroke-width:0.8;" x="45" xlink:href="#mca614d95d1" y="274.233846"/>
      </g>
     </g>
     <g id="text_9">
      <!-- 20 -->
      <g transform="translate(25.275 278.033065)scale(0.1 -0.1)">
       <use xlink:href="#DejaVuSans-50"/>
       <use x="63.623047" xlink:href="#DejaVuSans-48"/>
      </g>
     </g>
    </g>
    <g id="ytick_3">
     <g id="line2d_9">
      <g>
       <use style="stroke:#000000;stroke-width:0.8;" x="45" xlink:href="#mca614d95d1" y="240.667692"/>
      </g>
     </g>
     <g id="text_10">
      <!-- 40 -->
      <g transform="translate(25.275 244.46691)scale(0.1 -0.1)">
       <use xlink:href="#DejaVuSans-52"/>
       <use x="63.623047" xlink:href="#DejaVuSans-48"/>
      </g>
     </g>
    </g>
    <g id="ytick_4">
     <g id="line2d_10">
      <g>
       <use style="stroke:#000000;stroke-width:0.8;" x="45" xlink:href="#mca614d95d1" y="207.101538"/>
      </g>
     </g>
     <g id="text_11">
      <!-- 60 -->
      <defs>
       <path d="M 33.015625 40.375 
Q 26.375 40.375 22.484375 35.828125 
Q 18.609375 31.296875 18.609375 23.390625 
Q 18.609375 15.53125 22.484375 10.953125 
Q 26.375 6.390625 33.015625 6.390625 
Q 39.65625 6.390625 43.53125 10.953125 
Q 47.40625 15.53125 47.40625 23.390625 
Q 47.40625 31.296875 43.53125 35.828125 
Q 39.65625 40.375 33.015625 40.375 
z
M 52.59375 71.296875 
L 52.59375 62.3125 
Q 48.875 64.0625 45.09375 64.984375 
Q 41.3125 65.921875 37.59375 65.921875 
Q 27.828125 65.921875 22.671875 59.328125 
Q 17.53125 52.734375 16.796875 39.40625 
Q 19.671875 43.65625 24.015625 45.921875 
Q 28.375 48.1875 33.59375 48.1875 
Q 44.578125 48.1875 50.953125 41.515625 
Q 57.328125 34.859375 57.328125 23.390625 
Q 57.328125 12.15625 50.6875 5.359375 
Q 44.046875 -1.421875 33.015625 -1.421875 
Q 20.359375 -1.421875 13.671875 8.265625 
Q 6.984375 17.96875 6.984375 36.375 
Q 6.984375 53.65625 15.1875 63.9375 
Q 23.390625 74.21875 37.203125 74.21875 
Q 40.921875 74.21875 44.703125 73.484375 
Q 48.484375 72.75 52.59375 71.296875 
z
" id="DejaVuSans-54"/>
      </defs>
      <g transform="translate(25.275 210.900756)scale(0.1 -0.1)">
       <use xlink:href="#DejaVuSans-54"/>
       <use x="63.623047" xlink:href="#DejaVuSans-48"/>
      </g>
     </g>
    </g>
    <g id="ytick_5">
     <g id="line2d_11">
      <g>
       <use style="stroke:#000000;stroke-width:0.8;" x="45" xlink:href="#mca614d95d1" y="173.535383"/>
      </g>
     </g>
     <g id="text_12">
      <!-- 80 -->
      <defs>
       <path d="M 31.78125 34.625 
Q 24.75 34.625 20.71875 30.859375 
Q 16.703125 27.09375 16.703125 20.515625 
Q 16.703125 13.921875 20.71875 10.15625 
Q 24.75 6.390625 31.78125 6.390625 
Q 38.8125 6.390625 42.859375 10.171875 
Q 46.921875 13.96875 46.921875 20.515625 
Q 46.921875 27.09375 42.890625 30.859375 
Q 38.875 34.625 31.78125 34.625 
z
M 21.921875 38.8125 
Q 15.578125 40.375 12.03125 44.71875 
Q 8.5 49.078125 8.5 55.328125 
Q 8.5 64.0625 14.71875 69.140625 
Q 20.953125 74.21875 31.78125 74.21875 
Q 42.671875 74.21875 48.875 69.140625 
Q 55.078125 64.0625 55.078125 55.328125 
Q 55.078125 49.078125 51.53125 44.71875 
Q 48 40.375 41.703125 38.8125 
Q 48.828125 37.15625 52.796875 32.3125 
Q 56.78125 27.484375 56.78125 20.515625 
Q 56.78125 9.90625 50.3125 4.234375 
Q 43.84375 -1.421875 31.78125 -1.421875 
Q 19.734375 -1.421875 13.25 4.234375 
Q 6.78125 9.90625 6.78125 20.515625 
Q 6.78125 27.484375 10.78125 32.3125 
Q 14.796875 37.15625 21.921875 38.8125 
z
M 18.3125 54.390625 
Q 18.3125 48.734375 21.84375 45.5625 
Q 25.390625 42.390625 31.78125 42.390625 
Q 38.140625 42.390625 41.71875 45.5625 
Q 45.3125 48.734375 45.3125 54.390625 
Q 45.3125 60.0625 41.71875 63.234375 
Q 38.140625 66.40625 31.78125 66.40625 
Q 25.390625 66.40625 21.84375 63.234375 
Q 18.3125 60.0625 18.3125 54.390625 
z
" id="DejaVuSans-56"/>
      </defs>
      <g transform="translate(25.275 177.334602)scale(0.1 -0.1)">
       <use xlink:href="#DejaVuSans-56"/>
       <use x="63.623047" xlink:href="#DejaVuSans-48"/>
      </g>
     </g>
    </g>
    <g id="ytick_6">
     <g id="line2d_12">
      <g>
       <use style="stroke:#000000;stroke-width:0.8;" x="45" xlink:href="#mca614d95d1" y="139.969229"/>
      </g>
     </g>
     <g id="text_13">
      <!-- 100 -->
      <g transform="translate(18.9125 143.768448)scale(0.1 -0.1)">
       <use xlink:href="#DejaVuSans-49"/>
       <use x="63.623047" xlink:href="#DejaVuSans-48"/>
       <use x="127.246094" xlink:href="#DejaVuSans-48"/>
      </g>
     </g>
    </g>
    <g id="ytick_7">
     <g id="line2d_13">
      <g>
       <use style="stroke:#000000;stroke-width:0.8;" x="45" xlink:href="#mca614d95d1" y="106.403075"/>
      </g>
     </g>
     <g id="text_14">
      <!-- 120 -->
      <g transform="translate(18.9125 110.202294)scale(0.1 -0.1)">
       <use xlink:href="#DejaVuSans-49"/>
       <use x="63.623047" xlink:href="#DejaVuSans-50"/>
       <use x="127.246094" xlink:href="#DejaVuSans-48"/>
      </g>
     </g>
    </g>
    <g id="ytick_8">
     <g id="line2d_14">
      <g>
       <use style="stroke:#000000;stroke-width:0.8;" x="45" xlink:href="#mca614d95d1" y="72.836921"/>
      </g>
     </g>
     <g id="text_15">
      <!-- 140 -->
      <g transform="translate(18.9125 76.63614)scale(0.1 -0.1)">
       <use xlink:href="#DejaVuSans-49"/>
       <use x="63.623047" xlink:href="#DejaVuSans-52"/>
       <use x="127.246094" xlink:href="#DejaVuSans-48"/>
      </g>
     </g>
    </g>
    <g id="text_16">
     <!-- Nombre d'agents symptomatique -->
     <defs>
      <path d="M 9.8125 72.90625 
L 23.09375 72.90625 
L 55.421875 11.921875 
L 55.421875 72.90625 
L 64.984375 72.90625 
L 64.984375 0 
L 51.703125 0 
L 19.390625 60.984375 
L 19.390625 0 
L 9.8125 0 
z
" id="DejaVuSans-78"/>
      <path d="M 30.609375 48.390625 
Q 23.390625 48.390625 19.1875 42.75 
Q 14.984375 37.109375 14.984375 27.296875 
Q 14.984375 17.484375 19.15625 11.84375 
Q 23.34375 6.203125 30.609375 6.203125 
Q 37.796875 6.203125 41.984375 11.859375 
Q 46.1875 17.53125 46.1875 27.296875 
Q 46.1875 37.015625 41.984375 42.703125 
Q 37.796875 48.390625 30.609375 48.390625 
z
M 30.609375 56 
Q 42.328125 56 49.015625 48.375 
Q 55.71875 40.765625 55.71875 27.296875 
Q 55.71875 13.875 49.015625 6.21875 
Q 42.328125 -1.421875 30.609375 -1.421875 
Q 18.84375 -1.421875 12.171875 6.21875 
Q 5.515625 13.875 5.515625 27.296875 
Q 5.515625 40.765625 12.171875 48.375 
Q 18.84375 56 30.609375 56 
z
" id="DejaVuSans-111"/>
      <path d="M 48.6875 27.296875 
Q 48.6875 37.203125 44.609375 42.84375 
Q 40.53125 48.484375 33.40625 48.484375 
Q 26.265625 48.484375 22.1875 42.84375 
Q 18.109375 37.203125 18.109375 27.296875 
Q 18.109375 17.390625 22.1875 11.75 
Q 26.265625 6.109375 33.40625 6.109375 
Q 40.53125 6.109375 44.609375 11.75 
Q 48.6875 17.390625 48.6875 27.296875 
z
M 18.109375 46.390625 
Q 20.953125 51.265625 25.265625 53.625 
Q 29.59375 56 35.59375 56 
Q 45.5625 56 51.78125 48.09375 
Q 58.015625 40.1875 58.015625 27.296875 
Q 58.015625 14.40625 51.78125 6.484375 
Q 45.5625 -1.421875 35.59375 -1.421875 
Q 29.59375 -1.421875 25.265625 0.953125 
Q 20.953125 3.328125 18.109375 8.203125 
L 18.109375 0 
L 9.078125 0 
L 9.078125 75.984375 
L 18.109375 75.984375 
z
" id="DejaVuSans-98"/>
      <path d="M 41.109375 46.296875 
Q 39.59375 47.171875 37.8125 47.578125 
Q 36.03125 48 33.890625 48 
Q 26.265625 48 22.1875 43.046875 
Q 18.109375 38.09375 18.109375 28.8125 
L 18.109375 0 
L 9.078125 0 
L 9.078125 54.6875 
L 18.109375 54.6875 
L 18.109375 46.1875 
Q 20.953125 51.171875 25.484375 53.578125 
Q 30.03125 56 36.53125 56 
Q 37.453125 56 38.578125 55.875 
Q 39.703125 55.765625 41.0625 55.515625 
z
" id="DejaVuSans-114"/>
      <path id="DejaVuSans-32"/>
      <path d="M 45.40625 46.390625 
L 45.40625 75.984375 
L 54.390625 75.984375 
L 54.390625 0 
L 45.40625 0 
L 45.40625 8.203125 
Q 42.578125 3.328125 38.25 0.953125 
Q 33.9375 -1.421875 27.875 -1.421875 
Q 17.96875 -1.421875 11.734375 6.484375 
Q 5.515625 14.40625 5.515625 27.296875 
Q 5.515625 40.1875 11.734375 48.09375 
Q 17.96875 56 27.875 56 
Q 33.9375 56 38.25 53.625 
Q 42.578125 51.265625 45.40625 46.390625 
z
M 14.796875 27.296875 
Q 14.796875 17.390625 18.875 11.75 
Q 22.953125 6.109375 30.078125 6.109375 
Q 37.203125 6.109375 41.296875 11.75 
Q 45.40625 17.390625 45.40625 27.296875 
Q 45.40625 37.203125 41.296875 42.84375 
Q 37.203125 48.484375 30.078125 48.484375 
Q 22.953125 48.484375 18.875 42.84375 
Q 14.796875 37.203125 14.796875 27.296875 
z
" id="DejaVuSans-100"/>
      <path d="M 17.921875 72.90625 
L 17.921875 45.796875 
L 9.625 45.796875 
L 9.625 72.90625 
z
" id="DejaVuSans-39"/>
      <path d="M 34.28125 27.484375 
Q 23.390625 27.484375 19.1875 25 
Q 14.984375 22.515625 14.984375 16.5 
Q 14.984375 11.71875 18.140625 8.90625 
Q 21.296875 6.109375 26.703125 6.109375 
Q 34.1875 6.109375 38.703125 11.40625 
Q 43.21875 16.703125 43.21875 25.484375 
L 43.21875 27.484375 
z
M 52.203125 31.203125 
L 52.203125 0 
L 43.21875 0 
L 43.21875 8.296875 
Q 40.140625 3.328125 35.546875 0.953125 
Q 30.953125 -1.421875 24.3125 -1.421875 
Q 15.921875 -1.421875 10.953125 3.296875 
Q 6 8.015625 6 15.921875 
Q 6 25.140625 12.171875 29.828125 
Q 18.359375 34.515625 30.609375 34.515625 
L 43.21875 34.515625 
L 43.21875 35.40625 
Q 43.21875 41.609375 39.140625 45 
Q 35.0625 48.390625 27.6875 48.390625 
Q 23 48.390625 18.546875 47.265625 
Q 14.109375 46.140625 10.015625 43.890625 
L 10.015625 52.203125 
Q 14.9375 54.109375 19.578125 55.046875 
Q 24.21875 56 28.609375 56 
Q 40.484375 56 46.34375 49.84375 
Q 52.203125 43.703125 52.203125 31.203125 
z
" id="DejaVuSans-97"/>
      <path d="M 45.40625 27.984375 
Q 45.40625 37.75 41.375 43.109375 
Q 37.359375 48.484375 30.078125 48.484375 
Q 22.859375 48.484375 18.828125 43.109375 
Q 14.796875 37.75 14.796875 27.984375 
Q 14.796875 18.265625 18.828125 12.890625 
Q 22.859375 7.515625 30.078125 7.515625 
Q 37.359375 7.515625 41.375 12.890625 
Q 45.40625 18.265625 45.40625 27.984375 
z
M 54.390625 6.78125 
Q 54.390625 -7.171875 48.1875 -13.984375 
Q 42 -20.796875 29.203125 -20.796875 
Q 24.46875 -20.796875 20.265625 -20.09375 
Q 16.0625 -19.390625 12.109375 -17.921875 
L 12.109375 -9.1875 
Q 16.0625 -11.328125 19.921875 -12.34375 
Q 23.78125 -13.375 27.78125 -13.375 
Q 36.625 -13.375 41.015625 -8.765625 
Q 45.40625 -4.15625 45.40625 5.171875 
L 45.40625 9.625 
Q 42.625 4.78125 38.28125 2.390625 
Q 33.9375 0 27.875 0 
Q 17.828125 0 11.671875 7.65625 
Q 5.515625 15.328125 5.515625 27.984375 
Q 5.515625 40.671875 11.671875 48.328125 
Q 17.828125 56 27.875 56 
Q 33.9375 56 38.28125 53.609375 
Q 42.625 51.21875 45.40625 46.390625 
L 45.40625 54.6875 
L 54.390625 54.6875 
z
" id="DejaVuSans-103"/>
      <path d="M 54.890625 33.015625 
L 54.890625 0 
L 45.90625 0 
L 45.90625 32.71875 
Q 45.90625 40.484375 42.875 44.328125 
Q 39.84375 48.1875 33.796875 48.1875 
Q 26.515625 48.1875 22.3125 43.546875 
Q 18.109375 38.921875 18.109375 30.90625 
L 18.109375 0 
L 9.078125 0 
L 9.078125 54.6875 
L 18.109375 54.6875 
L 18.109375 46.1875 
Q 21.34375 51.125 25.703125 53.5625 
Q 30.078125 56 35.796875 56 
Q 45.21875 56 50.046875 50.171875 
Q 54.890625 44.34375 54.890625 33.015625 
z
" id="DejaVuSans-110"/>
      <path d="M 18.3125 70.21875 
L 18.3125 54.6875 
L 36.8125 54.6875 
L 36.8125 47.703125 
L 18.3125 47.703125 
L 18.3125 18.015625 
Q 18.3125 11.328125 20.140625 9.421875 
Q 21.96875 7.515625 27.59375 7.515625 
L 36.8125 7.515625 
L 36.8125 0 
L 27.59375 0 
Q 17.1875 0 13.234375 3.875 
Q 9.28125 7.765625 9.28125 18.015625 
L 9.28125 47.703125 
L 2.6875 47.703125 
L 2.6875 54.6875 
L 9.28125 54.6875 
L 9.28125 70.21875 
z
" id="DejaVuSans-116"/>
      <path d="M 32.171875 -5.078125 
Q 28.375 -14.84375 24.75 -17.8125 
Q 21.140625 -20.796875 15.09375 -20.796875 
L 7.90625 -20.796875 
L 7.90625 -13.28125 
L 13.1875 -13.28125 
Q 16.890625 -13.28125 18.9375 -11.515625 
Q 21 -9.765625 23.484375 -3.21875 
L 25.09375 0.875 
L 2.984375 54.6875 
L 12.5 54.6875 
L 29.59375 11.921875 
L 46.6875 54.6875 
L 56.203125 54.6875 
z
" id="DejaVuSans-121"/>
      <path d="M 9.421875 54.6875 
L 18.40625 54.6875 
L 18.40625 0 
L 9.421875 0 
z
M 9.421875 75.984375 
L 18.40625 75.984375 
L 18.40625 64.59375 
L 9.421875 64.59375 
z
" id="DejaVuSans-105"/>
      <path d="M 14.796875 27.296875 
Q 14.796875 17.390625 18.875 11.75 
Q 22.953125 6.109375 30.078125 6.109375 
Q 37.203125 6.109375 41.296875 11.75 
Q 45.40625 17.390625 45.40625 27.296875 
Q 45.40625 37.203125 41.296875 42.84375 
Q 37.203125 48.484375 30.078125 48.484375 
Q 22.953125 48.484375 18.875 42.84375 
Q 14.796875 37.203125 14.796875 27.296875 
z
M 45.40625 8.203125 
Q 42.578125 3.328125 38.25 0.953125 
Q 33.9375 -1.421875 27.875 -1.421875 
Q 17.96875 -1.421875 11.734375 6.484375 
Q 5.515625 14.40625 5.515625 27.296875 
Q 5.515625 40.1875 11.734375 48.09375 
Q 17.96875 56 27.875 56 
Q 33.9375 56 38.25 53.625 
Q 42.578125 51.265625 45.40625 46.390625 
L 45.40625 54.6875 
L 54.390625 54.6875 
L 54.390625 -20.796875 
L 45.40625 -20.796875 
z
" id="DejaVuSans-113"/>
      <path d="M 8.5 21.578125 
L 8.5 54.6875 
L 17.484375 54.6875 
L 17.484375 21.921875 
Q 17.484375 14.15625 20.5 10.265625 
Q 23.53125 6.390625 29.59375 6.390625 
Q 36.859375 6.390625 41.078125 11.03125 
Q 45.3125 15.671875 45.3125 23.6875 
L 45.3125 54.6875 
L 54.296875 54.6875 
L 54.296875 0 
L 45.3125 0 
L 45.3125 8.40625 
Q 42.046875 3.421875 37.71875 1 
Q 33.40625 -1.421875 27.6875 -1.421875 
Q 18.265625 -1.421875 13.375 4.4375 
Q 8.5 10.296875 8.5 21.578125 
z
M 31.109375 56 
z
" id="DejaVuSans-117"/>
     </defs>
     <g transform="translate(12.832812 265.88125)rotate(-90)scale(0.1 -0.1)">
      <use xlink:href="#DejaVuSans-78"/>
      <use x="74.804688" xlink:href="#DejaVuSans-111"/>
      <use x="135.986328" xlink:href="#DejaVuSans-109"/>
      <use x="233.398438" xlink:href="#DejaVuSans-98"/>
      <use x="296.875" xlink:href="#DejaVuSans-114"/>
      <use x="337.957031" xlink:href="#DejaVuSans-101"/>
      <use x="399.480469" xlink:href="#DejaVuSans-32"/>
      <use x="431.267578" xlink:href="#DejaVuSans-100"/>
      <use x="494.744141" xlink:href="#DejaVuSans-39"/>
      <use x="522.234375" xlink:href="#DejaVuSans-97"/>
      <use x="583.513672" xlink:href="#DejaVuSans-103"/>
      <use x="646.990234" xlink:href="#DejaVuSans-101"/>
      <use x="708.513672" xlink:href="#DejaVuSans-110"/>
      <use x="771.892578" xlink:href="#DejaVuSans-116"/>
      <use x="811.101562" xlink:href="#DejaVuSans-115"/>
      <use x="863.201172" xlink:href="#DejaVuSans-32"/>
      <use x="894.988281" xlink:href="#DejaVuSans-115"/>
      <use x="947.087891" xlink:href="#DejaVuSans-121"/>
      <use x="1006.267578" xlink:href="#DejaVuSans-109"/>
      <use x="1103.679688" xlink:href="#DejaVuSans-112"/>
      <use x="1167.15625" xlink:href="#DejaVuSans-116"/>
      <use x="1206.365234" xlink:href="#DejaVuSans-111"/>
      <use x="1267.546875" xlink:href="#DejaVuSans-109"/>
      <use x="1364.958984" xlink:href="#DejaVuSans-97"/>
      <use x="1426.238281" xlink:href="#DejaVuSans-116"/>
      <use x="1465.447266" xlink:href="#DejaVuSans-105"/>
      <use x="1493.230469" xlink:href="#DejaVuSans-113"/>
      <use x="1556.707031" xlink:href="#DejaVuSans-117"/>
      <use x="1620.085938" xlink:href="#DejaVuSans-101"/>
     </g>
    </g>
   </g>
   <g id="line2d_15">
    <path clip-path="url(#p4f46d5aab5)" d="M 57.681818 307.8 
L 58.213551 299.408461 
L 58.745283 283.884115 
L 59.277015 273.730354 
L 60.872213 254.765476 
L 61.935678 246.541769 
L 63.530875 238.401976 
L 64.062607 236.975415 
L 64.59434 235.129276 
L 65.126072 234.290122 
L 66.189537 231.436999 
L 66.721269 229.758692 
L 67.253002 229.926522 
L 67.784734 229.674776 
L 68.316467 230.178269 
L 68.848199 229.758692 
L 69.379931 229.003453 
L 69.911664 229.255199 
L 70.443396 231.017422 
L 70.975129 232.024407 
L 71.506861 231.269169 
L 72.570326 232.024407 
L 73.102058 231.60483 
L 73.633791 231.017422 
L 74.165523 231.856576 
L 74.697256 232.276153 
L 75.228988 232.108322 
L 75.76072 231.772661 
L 76.292453 231.940492 
L 77.355918 231.017422 
L 78.419383 230.849592 
L 78.951115 229.506945 
L 79.482847 229.087369 
L 80.01458 229.255199 
L 80.546312 229.255199 
L 81.078045 229.42303 
L 82.141509 231.269169 
L 82.673242 230.765676 
L 83.204974 232.108322 
L 83.736707 233.78663 
L 84.268439 234.87753 
L 84.800172 234.457953 
L 85.331904 235.213192 
L 85.863636 236.471922 
L 86.395369 235.96843 
L 86.927101 236.639753 
L 87.458834 236.304092 
L 87.990566 236.975415 
L 88.522298 236.723669 
L 89.054031 238.401976 
L 89.585763 238.653722 
L 90.117496 239.24113 
L 90.649228 239.073299 
L 91.180961 239.576792 
L 92.244425 243.688646 
L 92.776158 245.283038 
L 93.30789 246.290023 
L 93.839623 246.793515 
L 94.371355 246.87743 
L 94.903087 247.464838 
L 95.43482 247.464838 
L 95.966552 249.898384 
L 98.093482 253.842407 
L 98.625214 254.178069 
L 99.156947 255.520715 
L 99.688679 256.359869 
L 100.220412 258.625584 
L 100.752144 259.632569 
L 101.815609 263.408761 
L 102.347341 265.170984 
L 103.410806 269.282838 
L 103.942539 271.128977 
L 105.006003 273.898184 
L 105.537736 274.569507 
L 106.069468 274.821254 
L 106.601201 275.408661 
L 107.664666 276.919138 
L 108.196398 277.170884 
L 109.259863 278.597446 
L 111.386792 283.464538 
L 111.918525 284.135861 
L 112.98199 286.988984 
L 113.513722 287.744223 
L 114.045455 288.1638 
L 114.577187 288.835123 
L 115.108919 289.086869 
L 115.640652 289.758192 
L 116.172384 289.590361 
L 116.704117 289.758192 
L 117.235849 289.422531 
L 118.299314 289.338615 
L 118.831046 288.583377 
L 119.362779 288.919038 
L 119.894511 287.836971 
L 120.426244 288.101967 
L 121.489708 289.691943 
L 122.021441 289.956939 
L 122.553173 290.398599 
L 124.680103 292.960227 
L 125.211835 293.843546 
L 125.743568 294.02021 
L 126.2753 293.57855 
L 126.807033 293.57855 
L 127.338765 294.108542 
L 128.933962 293.843546 
L 129.465695 294.373538 
L 129.997427 295.080194 
L 130.52916 295.34519 
L 131.060892 294.839735 
L 131.592624 295.865367 
L 132.656089 296.331564 
L 133.187822 296.249294 
L 133.719554 296.545466 
L 134.251286 295.946952 
L 135.846484 297.520365 
L 136.909949 298.044836 
L 137.441681 298.359519 
L 137.973413 299.408461 
L 138.505146 299.093779 
L 139.036878 299.303567 
L 139.568611 299.0728 
L 140.100343 299.184687 
L 141.69554 300.63922 
L 142.227273 300.127736 
L 142.759005 299.279361 
L 143.290738 299.279361 
L 143.82247 299.128744 
L 144.354202 299.688179 
L 144.885935 300.527333 
L 145.417667 300.807051 
L 145.9494 300.94691 
L 146.481132 300.807051 
L 147.012864 301.226628 
L 147.544597 301.366487 
L 148.076329 301.646205 
L 148.608062 301.391916 
L 149.139794 301.697063 
L 150.203259 301.697063 
L 150.734991 301.086769 
L 151.266724 301.422431 
L 151.798456 301.590261 
L 152.330189 301.086769 
L 152.861921 301.086769 
L 153.925386 300.751108 
L 155.520583 300.751108 
L 156.052316 301.086769 
L 156.584048 300.918938 
L 157.647513 300.340855 
L 158.710978 302.019162 
L 159.24271 301.832684 
L 159.774443 301.832684 
L 160.306175 301.086769 
L 160.837907 301.296558 
L 161.36964 302.135711 
L 161.901372 301.925923 
L 162.433105 301.506346 
L 163.496569 301.925923 
L 164.028302 301.716135 
L 165.623499 301.716135 
L 166.155232 301.086769 
L 166.686964 301.086769 
L 167.218696 300.457404 
L 167.750429 298.928945 
L 168.282161 298.928945 
L 168.813894 299.64822 
L 169.345626 299.408461 
L 169.877358 299.887978 
L 170.409091 300.127736 
L 170.940823 301.086769 
L 171.472556 300.247615 
L 172.004288 300.807051 
L 173.599485 299.967897 
L 174.131218 299.128744 
L 174.66295 298.569308 
L 175.194683 299.128744 
L 175.726415 299.128744 
L 177.853345 300.247615 
L 178.385077 300.247615 
L 178.91681 300.527333 
L 179.448542 299.967897 
L 180.512007 299.408461 
L 181.043739 297.058831 
L 182.107204 297.058831 
L 182.638937 296.723169 
L 183.170669 297.058831 
L 183.702401 297.058831 
L 184.234134 297.394492 
L 184.765866 297.394492 
L 185.297599 297.058831 
L 186.361063 298.401477 
L 186.892796 298.737138 
L 187.424528 293.814102 
L 188.487993 294.932974 
L 189.019726 296.051846 
L 190.08319 296.051846 
L 190.614923 295.49241 
L 191.146655 296.611282 
L 191.678388 297.170718 
L 192.741852 299.408461 
L 193.273585 299.408461 
L 193.805317 299.967897 
L 195.932247 299.967897 
L 196.995712 301.086769 
L 197.527444 301.086769 
L 198.059177 301.646205 
L 200.186106 301.646205 
L 200.717839 301.086769 
L 201.249571 301.086769 
L 201.781304 300.527333 
L 202.313036 300.527333 
L 203.376501 301.646205 
L 203.908233 301.646205 
L 204.439966 302.205641 
L 206.035163 302.205641 
L 206.566895 302.765077 
L 207.098628 302.765077 
L 208.162093 303.883949 
L 208.693825 305.00282 
L 210.289022 305.00282 
L 211.352487 303.883949 
L 212.415952 305.00282 
L 213.479417 305.00282 
L 214.011149 304.443385 
L 214.542882 305.00282 
L 215.074614 304.443385 
L 215.606346 305.282538 
L 216.138079 305.282538 
L 216.669811 304.443385 
L 218.265009 304.443385 
L 218.796741 302.765077 
L 224.114065 302.765077 
L 224.645798 301.086769 
L 225.709262 301.086769 
L 226.772727 297.730154 
L 228.899657 297.730154 
L 229.431389 299.408461 
L 229.963122 297.730154 
L 230.494854 299.408461 
L 232.621784 299.408461 
L 233.153516 297.730154 
L 233.685249 297.730154 
L 234.216981 296.051846 
L 234.748714 289.338615 
L 236.343911 284.303692 
L 236.875643 280.947077 
L 237.407376 275.912154 
L 237.939108 277.590461 
L 239.002573 284.303692 
L 239.534305 285.982 
L 240.066038 285.982 
L 241.129503 289.338615 
L 241.661235 287.660308 
L 242.7247 287.660308 
L 243.256432 284.303692 
L 244.319897 284.303692 
L 244.85163 285.982 
L 245.383362 285.982 
L 245.915094 280.947077 
L 246.446827 277.590461 
L 246.978559 277.590461 
L 247.510292 282.625384 
L 248.042024 282.625384 
L 248.573756 279.268769 
L 249.105489 280.947077 
L 249.637221 279.268769 
L 250.168954 275.912154 
L 250.700686 277.590461 
L 252.295883 277.590461 
L 252.827616 280.947077 
L 253.891081 280.947077 
L 254.422813 279.268769 
L 254.954545 279.268769 
L 255.486278 280.947077 
L 256.01801 279.268769 
L 256.549743 282.625384 
L 257.081475 282.625384 
L 257.613208 284.303692 
L 258.14494 284.303692 
L 258.676672 282.625384 
L 259.208405 279.268769 
L 260.27187 279.268769 
L 260.803602 284.303692 
L 261.335334 280.947077 
L 261.867067 275.912154 
L 262.398799 275.912154 
L 262.930532 277.590461 
L 263.462264 280.947077 
L 265.057461 280.947077 
L 265.589194 279.268769 
L 266.120926 282.625384 
L 267.184391 282.625384 
L 268.247856 285.982 
L 268.779588 289.338615 
L 269.311321 291.016923 
L 273.033448 291.016923 
L 273.56518 294.373538 
L 274.628645 297.730154 
L 278.882504 297.730154 
L 279.414237 299.408461 
L 279.945969 299.408461 
L 281.009434 302.765077 
L 288.98542 302.765077 
L 289.517153 304.443385 
L 297.493139 304.443385 
L 298.024871 306.121692 
L 311.318182 306.121692 
L 311.318182 306.121692 
" style="fill:none;stroke:#1f77b4;stroke-linecap:square;stroke-width:1.5;"/>
   </g>
   <g id="line2d_16">
    <path clip-path="url(#p4f46d5aab5)" d="M 57.681818 307.8 
L 58.213551 299.408461 
L 59.277015 275.828238 
L 60.34048 257.534684 
L 61.935678 237.227161 
L 62.999142 221.618899 
L 65.126072 192.248514 
L 65.657804 184.444384 
L 66.189537 178.822053 
L 66.721269 170.262683 
L 67.253002 166.822153 
L 67.784734 161.451568 
L 68.316467 157.59146 
L 68.848199 156.50056 
L 69.379931 152.976114 
L 70.443396 147.605529 
L 70.975129 146.430714 
L 71.506861 142.822352 
L 72.038593 140.472722 
L 72.570326 138.962245 
L 73.102058 136.86436 
L 73.633791 133.927322 
L 74.165523 133.172083 
L 74.697256 133.843406 
L 75.228988 131.997268 
L 75.76072 127.465837 
L 76.292453 121.256098 
L 76.824185 119.829537 
L 77.355918 117.563821 
L 77.88765 116.389006 
L 78.419383 114.039375 
L 79.482847 108.165298 
L 80.01458 105.396091 
L 80.546312 101.368152 
L 81.078045 100.696829 
L 81.609777 99.102437 
L 82.141509 97.927621 
L 82.673242 96.333229 
L 83.204974 94.067514 
L 83.736707 94.235344 
L 84.268439 93.647937 
L 84.800172 93.731852 
L 85.331904 93.144444 
L 85.863636 92.221375 
L 86.927101 91.633967 
L 87.458834 90.794814 
L 87.990566 91.885714 
L 89.054031 98.934606 
L 89.585763 99.857675 
L 90.117496 103.549952 
L 90.649228 104.053444 
L 91.180961 104.724768 
L 91.712693 103.633868 
L 92.244425 102.878629 
L 93.839623 107.41006 
L 94.371355 108.249214 
L 94.903087 109.675775 
L 95.43482 110.766675 
L 95.966552 112.86456 
L 96.498285 116.305091 
L 97.030017 117.563821 
L 97.56175 118.151229 
L 98.093482 119.745621 
L 98.625214 120.752606 
L 99.156947 122.514829 
L 99.688679 123.605729 
L 100.752144 121.256098 
L 101.283877 122.346998 
L 101.815609 122.850491 
L 102.347341 126.123191 
L 102.879074 126.123191 
L 103.942539 121.507845 
L 104.474271 122.011337 
L 105.006003 121.340014 
L 105.537736 122.095252 
L 106.069468 122.179168 
L 107.132933 123.270068 
L 107.664666 123.270068 
L 108.196398 124.277052 
L 108.72813 123.521814 
L 109.259863 126.207106 
L 109.791595 128.053245 
L 110.323328 131.829437 
L 111.386792 134.850391 
L 112.450257 138.123091 
L 112.98199 138.123091 
L 113.513722 138.458752 
L 114.045455 137.451768 
L 114.577187 137.95526 
L 115.108919 138.207006 
L 115.640652 138.207006 
L 116.172384 140.304891 
L 117.767581 144.752406 
L 118.299314 145.927222 
L 118.831046 145.339814 
L 119.362779 145.171983 
L 119.894511 148.192937 
L 120.426244 150.542568 
L 120.957976 154.31876 
L 121.489708 155.661406 
L 122.021441 157.507545 
L 122.553173 157.927122 
L 123.616638 165.563422 
L 124.14837 166.654322 
L 126.2753 177.143745 
L 126.807033 177.982899 
L 127.338765 178.15073 
L 127.870497 178.989884 
L 128.933962 184.192637 
L 129.997427 191.912853 
L 131.060892 198.038676 
L 131.592624 200.975714 
L 132.656089 204.584076 
L 133.187822 205.591061 
L 133.719554 207.185453 
L 134.251286 209.451168 
L 134.783019 212.472122 
L 135.314751 214.737838 
L 135.846484 215.660907 
L 136.378216 217.003553 
L 136.909949 217.255299 
L 137.441681 219.353184 
L 137.973413 220.192338 
L 138.505146 222.206307 
L 139.568611 227.828638 
L 140.100343 228.751707 
L 140.632075 229.42303 
L 142.227273 234.374038 
L 142.759005 236.555838 
L 143.82247 240.080284 
L 144.354202 242.178169 
L 144.885935 243.269069 
L 145.417667 245.199123 
L 145.9494 245.618699 
L 148.608062 252.919338 
L 149.139794 254.597646 
L 149.671527 255.101138 
L 150.203259 254.765476 
L 151.266724 256.108123 
L 151.798456 257.6186 
L 152.861921 259.8004 
L 153.393654 261.226961 
L 154.457118 264.415746 
L 154.988851 265.42273 
L 156.052316 268.275854 
L 156.584048 268.947177 
L 157.11578 269.198923 
L 157.647513 269.954161 
L 158.179245 270.961146 
L 159.774443 272.8912 
L 160.306175 272.8912 
L 160.837907 273.05903 
L 161.901372 276.499561 
L 162.433105 277.170884 
L 162.964837 278.261784 
L 163.496569 279.856177 
L 164.028302 280.443584 
L 165.091767 280.695331 
L 166.155232 282.205807 
L 166.686964 282.289723 
L 167.218696 282.625384 
L 167.750429 283.8002 
L 168.282161 284.051946 
L 168.813894 284.555438 
L 169.345626 284.471523 
L 170.409091 285.058931 
L 170.940823 285.646338 
L 171.472556 285.730254 
L 172.004288 285.187012 
L 172.536021 285.275344 
L 173.067753 285.628672 
L 173.599485 286.42366 
L 174.131218 286.600324 
L 174.66295 287.218648 
L 175.194683 286.075239 
L 175.726415 286.914393 
L 176.258148 287.28735 
L 176.78988 287.846786 
L 177.853345 288.126504 
L 178.385077 288.779179 
L 178.91681 288.965658 
L 179.980274 290.177769 
L 180.512007 291.203402 
L 181.043739 291.949316 
L 181.575472 291.669598 
L 182.107204 291.762837 
L 182.638937 292.415513 
L 183.170669 292.78847 
L 183.702401 292.881709 
L 184.765866 294.18706 
L 185.297599 295.026214 
L 185.829331 295.585649 
L 186.361063 296.331564 
L 186.892796 296.051846 
L 187.424528 297.039086 
L 187.956261 296.681211 
L 189.019726 297.205683 
L 189.551458 297.730154 
L 190.08319 296.946943 
L 190.614923 297.730154 
L 191.678388 297.490396 
L 192.741852 298.449428 
L 193.273585 298.329549 
L 195.400515 299.887978 
L 195.932247 300.487374 
L 196.463979 300.727132 
L 197.527444 301.806044 
L 198.059177 301.806044 
L 199.122642 302.28556 
L 200.186106 302.28556 
L 203.376501 303.72411 
L 203.908233 303.668781 
L 204.439966 303.464372 
L 205.503431 302.765077 
L 207.098628 303.222797 
L 207.63036 303.222797 
L 208.162093 303.375371 
L 208.693825 303.222797 
L 209.225557 303.375371 
L 210.289022 303.375371 
L 210.820755 303.100738 
L 211.352487 303.100738 
L 211.88422 302.932908 
L 212.415952 303.4364 
L 212.947684 303.604231 
L 213.479417 303.604231 
L 214.011149 303.772062 
L 214.542882 303.510991 
L 215.606346 304.256906 
L 216.138079 304.023808 
L 216.669811 304.023808 
L 217.201544 304.443385 
L 217.733276 304.653173 
L 218.265009 305.07275 
L 218.796741 304.922901 
L 219.328473 304.922901 
L 219.860206 304.723103 
L 220.391938 304.723103 
L 220.923671 305.00282 
L 222.518868 305.00282 
L 224.645798 305.450369 
L 225.709262 305.00282 
L 226.240995 305.562256 
L 227.30446 305.562256 
L 227.836192 305.282538 
L 228.367925 305.282538 
L 228.899657 306.121692 
L 241.129503 306.121692 
L 241.129503 306.121692 
" style="fill:none;stroke:#ff7f0e;stroke-linecap:square;stroke-width:1.5;"/>
   </g>
   <g id="line2d_17"/>
   <g id="line2d_18"/>
   <g id="line2d_19"/>
   <g id="patch_3">
    <path d="M 45 320.4 
L 45 43.2 
" style="fill:none;stroke:#000000;stroke-linecap:square;stroke-linejoin:miter;stroke-width:0.8;"/>
   </g>
   <g id="patch_4">
    <path d="M 324 320.4 
L 324 43.2 
" style="fill:none;stroke:#000000;stroke-linecap:square;stroke-linejoin:miter;stroke-width:0.8;"/>
   </g>
   <g id="patch_5">
    <path d="M 45 320.4 
L 324 320.4 
" style="fill:none;stroke:#000000;stroke-linecap:square;stroke-linejoin:miter;stroke-width:0.8;"/>
   </g>
   <g id="patch_6">
    <path d="M 45 43.2 
L 324 43.2 
" style="fill:none;stroke:#000000;stroke-linecap:square;stroke-linejoin:miter;stroke-width:0.8;"/>
   </g>
   <g id="legend_1">
    <g id="patch_7">
     <path d="M 222.76875 95.234375 
L 317 95.234375 
Q 319 95.234375 319 93.234375 
L 319 50.2 
Q 319 48.2 317 48.2 
L 222.76875 48.2 
Q 220.76875 48.2 220.76875 50.2 
L 220.76875 93.234375 
Q 220.76875 95.234375 222.76875 95.234375 
z
" style="fill:#ffffff;opacity:0.8;stroke:#cccccc;stroke-linejoin:miter;"/>
    </g>
    <g id="line2d_20">
     <path d="M 224.76875 56.298437 
L 244.76875 56.298437 
" style="fill:none;"/>
    </g>
    <g id="line2d_21"/>
    <g id="text_17">
     <!-- Quarantaine -->
     <defs>
      <path d="M 39.40625 66.21875 
Q 28.65625 66.21875 22.328125 58.203125 
Q 16.015625 50.203125 16.015625 36.375 
Q 16.015625 22.609375 22.328125 14.59375 
Q 28.65625 6.59375 39.40625 6.59375 
Q 50.140625 6.59375 56.421875 14.59375 
Q 62.703125 22.609375 62.703125 36.375 
Q 62.703125 50.203125 56.421875 58.203125 
Q 50.140625 66.21875 39.40625 66.21875 
z
M 53.21875 1.3125 
L 66.21875 -12.890625 
L 54.296875 -12.890625 
L 43.5 -1.21875 
Q 41.890625 -1.3125 41.03125 -1.359375 
Q 40.1875 -1.421875 39.40625 -1.421875 
Q 24.03125 -1.421875 14.8125 8.859375 
Q 5.609375 19.140625 5.609375 36.375 
Q 5.609375 53.65625 14.8125 63.9375 
Q 24.03125 74.21875 39.40625 74.21875 
Q 54.734375 74.21875 63.90625 63.9375 
Q 73.09375 53.65625 73.09375 36.375 
Q 73.09375 23.6875 67.984375 14.640625 
Q 62.890625 5.609375 53.21875 1.3125 
z
" id="DejaVuSans-81"/>
     </defs>
     <g transform="translate(252.76875 59.798437)scale(0.1 -0.1)">
      <use xlink:href="#DejaVuSans-81"/>
      <use x="78.710938" xlink:href="#DejaVuSans-117"/>
      <use x="142.089844" xlink:href="#DejaVuSans-97"/>
      <use x="203.369141" xlink:href="#DejaVuSans-114"/>
      <use x="244.482422" xlink:href="#DejaVuSans-97"/>
      <use x="305.761719" xlink:href="#DejaVuSans-110"/>
      <use x="369.140625" xlink:href="#DejaVuSans-116"/>
      <use x="408.349609" xlink:href="#DejaVuSans-97"/>
      <use x="469.628906" xlink:href="#DejaVuSans-105"/>
      <use x="497.412109" xlink:href="#DejaVuSans-110"/>
      <use x="560.791016" xlink:href="#DejaVuSans-101"/>
     </g>
    </g>
    <g id="line2d_22">
     <path d="M 224.76875 70.976562 
L 244.76875 70.976562 
" style="fill:none;stroke:#1f77b4;stroke-linecap:square;stroke-width:1.5;"/>
    </g>
    <g id="line2d_23"/>
    <g id="text_18">
     <!-- oui -->
     <g transform="translate(252.76875 74.476562)scale(0.1 -0.1)">
      <use xlink:href="#DejaVuSans-111"/>
      <use x="61.181641" xlink:href="#DejaVuSans-117"/>
      <use x="124.560547" xlink:href="#DejaVuSans-105"/>
     </g>
    </g>
    <g id="line2d_24">
     <path d="M 224.76875 85.654687 
L 244.76875 85.654687 
" style="fill:none;stroke:#ff7f0e;stroke-linecap:square;stroke-width:1.5;"/>
    </g>
    <g id="line2d_25"/>
    <g id="text_19">
     <!-- non -->
     <g transform="translate(252.76875 89.154687)scale(0.1 -0.1)">
      <use xlink:href="#DejaVuSans-110"/>
      <use x="63.378906" xlink:href="#DejaVuSans-111"/>
      <use x="124.560547" xlink:href="#DejaVuSans-110"/>
     </g>
    </g>
   </g>
  </g>
 </g>
 <defs>
  <clipPath id="p4f46d5aab5">
   <rect height="277.2" width="279" x="45" y="43.2"/>
  </clipPath>
 </defs>
</svg>
