<?xml version="1.0" encoding="utf-8" standalone="no"?>
<!DOCTYPE svg PUBLIC "-//W3C//DTD SVG 1.1//EN"
  "http://www.w3.org/Graphics/SVG/1.1/DTD/svg11.dtd">
<!-- Created with matplotlib (https://matplotlib.org/) -->
<svg height="360pt" version="1.1" viewBox="0 0 360 360" width="360pt" xmlns="http://www.w3.org/2000/svg" xmlns:xlink="http://www.w3.org/1999/xlink">
 <defs>
  <style type="text/css">
*{stroke-linecap:butt;stroke-linejoin:round;}
  </style>
 </defs>
 <g id="figure_1">
  <g id="patch_1">
   <path d="M 0 360 
L 360 360 
L 360 0 
L 0 0 
z
" style="fill:#ffffff;"/>
  </g>
  <g id="axes_1">
   <g id="patch_2">
    <path d="M 45 320.4 
L 324 320.4 
L 324 43.2 
L 45 43.2 
z
" style="fill:#ffffff;"/>
   </g>
   <g id="PolyCollection_1">
    <defs>
     <path d="M 57.681818 -52.2 
L 57.681818 -52.2 
L 58.213551 -60.585814 
L 58.745283 -74.003116 
L 59.277015 -82.806125 
L 59.808748 -87.755851 
L 60.34048 -93.120676 
L 60.872213 -98.825126 
L 61.403945 -101.835633 
L 61.935678 -105.447822 
L 62.46741 -107.460418 
L 62.999142 -110.479311 
L 63.530875 -112.577861 
L 64.062607 -114.42274 
L 64.59434 -114.338882 
L 65.126072 -116.766575 
L 65.657804 -117.357775 
L 66.189537 -118.781267 
L 66.721269 -121.299107 
L 67.253002 -119.454228 
L 67.784734 -120.208952 
L 68.316467 -118.364072 
L 68.848199 -118.529692 
L 69.379931 -119.533893 
L 69.911664 -118.697409 
L 70.443396 -116.852529 
L 70.975129 -115.846232 
L 71.506861 -117.273917 
L 72.038593 -117.104104 
L 72.570326 -116.600955 
L 73.102058 -116.600955 
L 73.633791 -116.852529 
L 74.165523 -115.508703 
L 74.697256 -114.758172 
L 75.228988 -115.009747 
L 75.76072 -114.418547 
L 76.292453 -111.818945 
L 76.824185 -114.255024 
L 77.355918 -114.756076 
L 77.88765 -113.08101 
L 78.419383 -114.164876 
L 78.951115 -113.582062 
L 79.482847 -115.426941 
L 80.01458 -114.087307 
L 80.546312 -114.504502 
L 81.078045 -113.749778 
L 81.609777 -112.156474 
L 82.141509 -112.156474 
L 82.673242 -110.980363 
L 83.204974 -110.145975 
L 83.736707 -107.79585 
L 84.268439 -105.615539 
L 84.800172 -106.034829 
L 85.331904 -106.110302 
L 85.863636 -104.776957 
L 86.395369 -103.682609 
L 86.927101 -104.611337 
L 87.458834 -104.523286 
L 87.990566 -104.18995 
L 88.522298 -105.028532 
L 89.054031 -103.688898 
L 89.585763 -102.342975 
L 90.117496 -101.758064 
L 90.649228 -102.932078 
L 91.180961 -100.837721 
L 91.712693 -101.250723 
L 92.244425 -99.326178 
L 92.776158 -97.395345 
L 93.30789 -97.393248 
L 93.839623 -98.068306 
L 94.371355 -96.141665 
L 94.903087 -95.217129 
L 95.43482 -96.139569 
L 95.966552 -94.038922 
L 96.498285 -94.043115 
L 97.030017 -93.787348 
L 97.56175 -93.204534 
L 98.093482 -91.523178 
L 98.625214 -90.940364 
L 99.156947 -90.015828 
L 99.688679 -88.586047 
L 100.220412 -87.50218 
L 100.752144 -86.665696 
L 101.283877 -86.32607 
L 101.815609 -83.728564 
L 102.347341 -82.556647 
L 102.879074 -82.38893 
L 103.410806 -80.539858 
L 103.942539 -78.277785 
L 104.474271 -77.4413 
L 105.006003 -76.097473 
L 105.537736 -75.009414 
L 106.069468 -75.510466 
L 106.601201 -75.428705 
L 107.132933 -74.841698 
L 107.664666 -73.919258 
L 108.196398 -73.497871 
L 108.72813 -72.407715 
L 109.259863 -72.072283 
L 109.791595 -71.818612 
L 110.323328 -70.56074 
L 110.85506 -70.061784 
L 111.386792 -68.550241 
L 111.918525 -67.797614 
L 112.450257 -67.042891 
L 112.98199 -65.782922 
L 113.513722 -65.198012 
L 114.045455 -65.363632 
L 114.577187 -64.692766 
L 115.108919 -64.778721 
L 115.640652 -64.275572 
L 116.172384 -64.441192 
L 116.704117 -63.94014 
L 117.235849 -63.94014 
L 117.767581 -63.518752 
L 118.299314 -64.023998 
L 118.831046 -63.604707 
L 119.362779 -63.353133 
L 119.894511 -63.673118 
L 120.426244 -64.028411 
L 120.957976 -62.43952 
L 121.489708 -62.174705 
L 122.021441 -61.554596 
L 122.553173 -62.084227 
L 123.084906 -61.38026 
L 123.616638 -61.027173 
L 124.14837 -60.583607 
L 124.680103 -59.703097 
L 125.211835 -59.438282 
L 125.743568 -59.085195 
L 126.2753 -59.17126 
L 126.807033 -59.173466 
L 127.338765 -58.729901 
L 127.870497 -58.641629 
L 128.40223 -58.462879 
L 128.933962 -58.555564 
L 129.465695 -58.818173 
L 129.997427 -57.761119 
L 130.52916 -58.025934 
L 131.060892 -57.604191 
L 131.592624 -57.41784 
L 132.124357 -57.697367 
L 132.656089 -57.324664 
L 133.187822 -57.724772 
L 133.719554 -57.330145 
L 134.251286 -57.336311 
L 134.783019 -57.336311 
L 135.314751 -57.231488 
L 135.846484 -57.019222 
L 136.378216 -57.231488 
L 136.909949 -56.602552 
L 137.441681 -56.91702 
L 137.973413 -56.183262 
L 138.505146 -56.183262 
L 139.036878 -56.183262 
L 139.568611 -56.448812 
L 140.100343 -56.11338 
L 140.632075 -56.110585 
L 141.163808 -55.886963 
L 141.69554 -55.889758 
L 142.227273 -56.27311 
L 142.759005 -56.973463 
L 143.290738 -57.360501 
L 143.82247 -57.091725 
L 144.354202 -56.951961 
L 144.885935 -55.973616 
L 145.417667 -56.11338 
L 145.9494 -55.973616 
L 146.481132 -56.11338 
L 147.012864 -56.11338 
L 147.544597 -56.11338 
L 148.076329 -55.973616 
L 148.608062 -56.011734 
L 149.139794 -56.011734 
L 149.671527 -56.011734 
L 150.203259 -55.859264 
L 150.734991 -56.392907 
L 151.266724 -56.388714 
L 151.798456 -56.225191 
L 152.330189 -56.392907 
L 152.861921 -56.057474 
L 153.393654 -56.057474 
L 153.925386 -55.889758 
L 154.457118 -55.722042 
L 154.988851 -55.885565 
L 155.520583 -55.889758 
L 156.052316 -55.386609 
L 156.584048 -55.218893 
L 157.11578 -55.218893 
L 157.647513 -55.367974 
L 158.179245 -55.181623 
L 158.710978 -54.995271 
L 159.24271 -55.367974 
L 159.774443 -55.367974 
L 160.306175 -55.973616 
L 160.837907 -55.554326 
L 161.36964 -55.135035 
L 161.901372 -55.34468 
L 162.433105 -55.135035 
L 162.964837 -55.135035 
L 163.496569 -54.500858 
L 164.028302 -55.135035 
L 164.560034 -55.34468 
L 165.091767 -55.34468 
L 165.623499 -55.34468 
L 166.155232 -55.763971 
L 166.686964 -55.135035 
L 167.218696 -55.549084 
L 167.750429 -55.314731 
L 168.282161 -55.79392 
L 168.813894 -55.554326 
L 169.345626 -56.033515 
L 169.877358 -55.79392 
L 170.409091 -55.554326 
L 170.940823 -55.075136 
L 171.472556 -55.833853 
L 172.004288 -55.554326 
L 172.536021 -55.554326 
L 173.067753 -55.833853 
L 173.599485 -56.392907 
L 174.131218 -56.672434 
L 174.66295 -56.951961 
L 175.194683 -56.672434 
L 175.726415 -56.672434 
L 176.258148 -56.665446 
L 176.78988 -56.392907 
L 177.321612 -56.392907 
L 177.853345 -56.11338 
L 178.385077 -55.554326 
L 178.91681 -55.554326 
L 179.448542 -55.833853 
L 179.980274 -55.833853 
L 180.512007 -56.385919 
L 181.043739 -57.902354 
L 181.575472 -57.566921 
L 182.107204 -56.896056 
L 182.638937 -57.566921 
L 183.170669 -56.896056 
L 183.702401 -56.896056 
L 184.234134 -56.88767 
L 184.765866 -56.896056 
L 185.297599 -57.231488 
L 185.829331 -56.560623 
L 186.361063 -56.225191 
L 186.892796 -55.218893 
L 187.424528 -60.585814 
L 187.956261 -58.908651 
L 188.487993 -58.908651 
L 189.019726 -58.908651 
L 189.551458 -58.908651 
L 190.08319 -58.908651 
L 190.614923 -58.908651 
L 191.146655 -58.908651 
L 191.678388 -58.908651 
L 192.21012 -58.908651 
L 192.741852 -57.231488 
L 193.273585 -57.231488 
L 193.805317 -57.790543 
L 194.33705 -55.554326 
L 194.868782 -55.554326 
L 195.400515 -55.554326 
L 195.932247 -55.554326 
L 196.463979 -55.554326 
L 196.995712 -55.554326 
L 197.527444 -55.554326 
L 198.059177 -55.554326 
L 198.590909 -55.554326 
L 199.122642 -55.554326 
L 199.654374 -55.554326 
L 200.186106 -56.672434 
L 200.717839 -55.554326 
L 201.249571 -55.554326 
L 201.781304 -55.554326 
L 202.313036 -55.554326 
L 202.844768 -55.554326 
L 203.376501 -53.877163 
L 203.908233 -55.554326 
L 204.439966 -55.554326 
L 204.971698 -55.554326 
L 205.503431 -55.554326 
L 206.035163 -55.554326 
L 206.566895 -53.877163 
L 207.098628 -53.877163 
L 207.63036 -53.877163 
L 208.162093 -53.877163 
L 208.693825 -53.877163 
L 209.225557 -53.877163 
L 209.75729 -53.877163 
L 210.289022 -53.877163 
L 210.820755 -53.877163 
L 211.352487 -53.877163 
L 211.88422 -53.877163 
L 212.415952 -53.877163 
L 212.947684 -53.877163 
L 213.479417 -53.877163 
L 214.011149 -53.877163 
L 214.542882 -53.877163 
L 215.074614 -53.877163 
L 215.606346 -53.877163 
L 216.138079 -53.877163 
L 216.669811 -53.877163 
L 217.201544 -53.877163 
L 217.733276 -53.877163 
L 218.265009 -53.877163 
L 218.265009 -57.231488 
L 218.265009 -57.231488 
L 217.733276 -57.231488 
L 217.201544 -57.231488 
L 216.669811 -57.231488 
L 216.138079 -55.554326 
L 215.606346 -55.554326 
L 215.074614 -57.231488 
L 214.542882 -57.231488 
L 214.011149 -57.231488 
L 213.479417 -57.231488 
L 212.947684 -57.231488 
L 212.415952 -57.231488 
L 211.88422 -58.908651 
L 211.352487 -60.585814 
L 210.820755 -58.908651 
L 210.289022 -57.231488 
L 209.75729 -57.231488 
L 209.225557 -56.141333 
L 208.693825 -57.231488 
L 208.162093 -58.908651 
L 207.63036 -58.908651 
L 207.098628 -58.908651 
L 206.566895 -58.908651 
L 206.035163 -60.585814 
L 205.503431 -60.585814 
L 204.971698 -60.585814 
L 204.439966 -60.585814 
L 203.908233 -62.262977 
L 203.376501 -63.94014 
L 202.844768 -63.94014 
L 202.313036 -63.94014 
L 201.781304 -63.94014 
L 201.249571 -62.262977 
L 200.717839 -62.262977 
L 200.186106 -60.585814 
L 199.654374 -60.585814 
L 199.122642 -60.585814 
L 198.590909 -60.585814 
L 198.059177 -60.585814 
L 197.527444 -60.585814 
L 196.995712 -60.585814 
L 196.463979 -62.262977 
L 195.932247 -62.262977 
L 195.400515 -62.262977 
L 194.868782 -62.262977 
L 194.33705 -62.262977 
L 193.805317 -62.262977 
L 193.273585 -62.262977 
L 192.741852 -62.262977 
L 192.21012 -63.94014 
L 191.678388 -65.617302 
L 191.146655 -65.617302 
L 190.614923 -68.971628 
L 190.08319 -67.294465 
L 189.551458 -67.294465 
L 189.019726 -67.294465 
L 188.487993 -70.648791 
L 187.956261 -70.648791 
L 187.424528 -70.648791 
L 186.892796 -67.294465 
L 186.361063 -67.294465 
L 185.829331 -67.96533 
L 185.297599 -68.636195 
L 184.765866 -68.300763 
L 184.234134 -67.96533 
L 183.702401 -68.971628 
L 183.170669 -68.971628 
L 182.638937 -68.971628 
L 182.107204 -68.971628 
L 181.575472 -68.300763 
L 181.043739 -68.300763 
L 180.512007 -66.176357 
L 179.980274 -66.176357 
L 179.448542 -64.778721 
L 178.91681 -64.499194 
L 178.385077 -64.778721 
L 177.853345 -64.219667 
L 177.321612 -64.499194 
L 176.78988 -65.617302 
L 176.258148 -65.337775 
L 175.726415 -65.617302 
L 175.194683 -65.617302 
L 174.66295 -67.014938 
L 174.131218 -65.617302 
L 173.599485 -64.219667 
L 173.067753 -63.94014 
L 172.536021 -63.947128 
L 172.004288 -63.381085 
L 171.472556 -63.94014 
L 170.940823 -62.987751 
L 170.409091 -64.425319 
L 169.877358 -65.138113 
L 169.345626 -66.096492 
L 168.813894 -65.377708 
L 168.282161 -67.53406 
L 167.750429 -67.53406 
L 167.218696 -64.574317 
L 166.686964 -62.891913 
L 166.155232 -62.891913 
L 165.623499 -61.634041 
L 165.091767 -61.424395 
L 164.560034 -61.843686 
L 164.028302 -62.472622 
L 163.496569 -62.472622 
L 162.964837 -62.268218 
L 162.433105 -63.101558 
L 161.901372 -61.843686 
L 161.36964 -61.634041 
L 160.837907 -63.311204 
L 160.306175 -63.520849 
L 159.774443 -62.63568 
L 159.24271 -62.453987 
L 158.710978 -62.63568 
L 158.179245 -64.126491 
L 157.647513 -65.990005 
L 157.11578 -65.789212 
L 156.584048 -65.28187 
L 156.052316 -64.279765 
L 155.520583 -64.107856 
L 154.988851 -63.772423 
L 154.457118 -64.275572 
L 153.925386 -63.776616 
L 153.393654 -63.105751 
L 152.861921 -61.927544 
L 152.330189 -61.759828 
L 151.798456 -60.75353 
L 151.266724 -61.424395 
L 150.734991 -61.759828 
L 150.203259 -60.890753 
L 149.671527 -60.742095 
L 149.139794 -61.043222 
L 148.608062 -61.348161 
L 148.076329 -61.288126 
L 147.544597 -61.98345 
L 147.012864 -61.843686 
L 146.481132 -63.101558 
L 145.9494 -62.822031 
L 145.417667 -62.961795 
L 144.885935 -63.241322 
L 144.354202 -64.35943 
L 143.82247 -65.198012 
L 143.290738 -64.843227 
L 142.759005 -65.230265 
L 142.227273 -64.658924 
L 141.69554 -63.27207 
L 141.163808 -64.946437 
L 140.632075 -65.952735 
L 140.100343 -66.738206 
L 139.568611 -66.6236 
L 139.036878 -66.353682 
L 138.505146 -67.08482 
L 137.973413 -66.66815 
L 137.441681 -68.133047 
L 136.909949 -68.866805 
L 136.378216 -70.2295 
L 135.846484 -70.124677 
L 135.314751 -70.447007 
L 134.783019 -72.016727 
L 134.251286 -72.433397 
L 133.719554 -72.525733 
L 133.187822 -72.922826 
L 132.656089 -71.580548 
L 132.124357 -71.582877 
L 131.592624 -73.355545 
L 131.060892 -74.473654 
L 130.52916 -73.919258 
L 129.997427 -74.003116 
L 129.465695 -75.417671 
L 128.933962 -76.121638 
L 128.40223 -76.651268 
L 127.870497 -76.298181 
L 127.338765 -75.508149 
L 126.807033 -77.357442 
L 126.2753 -75.505943 
L 125.743568 -75.768551 
L 125.211835 -75.415464 
L 124.680103 -77.092627 
L 124.14837 -77.099247 
L 123.616638 -77.805421 
L 123.084906 -79.125083 
L 122.553173 -78.858061 
L 122.021441 -80.535224 
L 121.489708 -80.093866 
L 120.957976 -83.01566 
L 120.426244 -82.918561 
L 119.894511 -81.506213 
L 119.362779 -80.126857 
L 118.831046 -80.208619 
L 118.299314 -79.034605 
L 117.767581 -78.531456 
L 117.235849 -78.615314 
L 116.704117 -77.609016 
L 116.172384 -77.527255 
L 115.640652 -76.688673 
L 115.108919 -78.615314 
L 114.577187 -78.78303 
L 114.045455 -80.29667 
L 113.513722 -80.208619 
L 112.98199 -81.718065 
L 112.450257 -83.732757 
L 111.918525 -86.833412 
L 111.386792 -86.75165 
L 110.85506 -88.594433 
L 110.323328 -89.852305 
L 109.791595 -91.8649 
L 109.259863 -92.537862 
L 108.72813 -93.374347 
L 108.196398 -93.460301 
L 107.664666 -93.20663 
L 107.132933 -93.79783 
L 106.601201 -94.718173 
L 106.069468 -94.049405 
L 105.537736 -94.718173 
L 105.006003 -95.973949 
L 104.474271 -97.401634 
L 103.942539 -99.246513 
L 103.410806 -101.678399 
L 102.879074 -103.688898 
L 102.347341 -106.709887 
L 101.815609 -108.892296 
L 101.283877 -112.076808 
L 100.752144 -113.751875 
L 100.220412 -114.343075 
L 99.688679 -117.359871 
L 99.156947 -117.196348 
L 98.625214 -120.798055 
L 98.093482 -120.714197 
L 97.56175 -122.97627 
L 97.030017 -123.565374 
L 96.498285 -126.584267 
L 95.966552 -127.253035 
L 95.43482 -131.362084 
L 94.903087 -131.362084 
L 94.371355 -130.609457 
L 93.839623 -130.372558 
L 93.30789 -129.942785 
L 92.776158 -132.209051 
L 92.244425 -134.215357 
L 91.712693 -137.070727 
L 91.180961 -142.014164 
L 90.649228 -141.261538 
L 90.117496 -139.412466 
L 89.585763 -143.022559 
L 89.054031 -142.349597 
L 88.522298 -144.779387 
L 87.990566 -142.102215 
L 87.458834 -144.613767 
L 86.927101 -143.779378 
L 86.395369 -144.200765 
L 85.863636 -145.882121 
L 85.331904 -146.209168 
L 84.800172 -147.630563 
L 84.268439 -145.785684 
L 83.736707 -144.697625 
L 83.204974 -145.871639 
L 82.673242 -149.898926 
L 82.141509 -146.729088 
L 81.609777 -148.555099 
L 81.078045 -147.974382 
L 80.546312 -148.972294 
L 80.01458 -148.80877 
L 79.482847 -147.884234 
L 78.951115 -147.970189 
L 78.419383 -144.536198 
L 77.88765 -146.71651 
L 77.355918 -145.869542 
L 76.824185 -144.697625 
L 76.292453 -144.110618 
L 75.76072 -142.601171 
L 75.228988 -141.764686 
L 74.697256 -140.594865 
L 74.165523 -140.588576 
L 73.633791 -142.095926 
L 73.102058 -139.833853 
L 72.570326 -139.083322 
L 72.038593 -139.414562 
L 71.506861 -140.085427 
L 70.975129 -139.752091 
L 70.443396 -140.672434 
L 69.911664 -143.018366 
L 69.379931 -143.357991 
L 68.848199 -141.760493 
L 68.316467 -141.177679 
L 67.784734 -141.259441 
L 67.253002 -139.414562 
L 66.721269 -141.00577 
L 66.189537 -139.162988 
L 65.657804 -136.569675 
L 65.126072 -135.554991 
L 64.59434 -133.213253 
L 64.062607 -131.697517 
L 63.530875 -130.02874 
L 62.999142 -128.091617 
L 62.46741 -124.401859 
L 61.935678 -120.879817 
L 61.403945 -116.439528 
L 60.872213 -111.236131 
L 60.34048 -103.521182 
L 59.808748 -97.066201 
L 59.277015 -89.936163 
L 58.745283 -78.112165 
L 58.213551 -60.585814 
L 57.681818 -52.2 
z
" id="m9fe7d91972" style="stroke:#1f77b4;stroke-opacity:0.2;"/>
    </defs>
    <g clip-path="url(#pba40225e15)">
     <use style="fill:#1f77b4;fill-opacity:0.2;stroke:#1f77b4;stroke-opacity:0.2;" x="0" xlink:href="#m9fe7d91972" y="360"/>
    </g>
   </g>
   <g id="PolyCollection_2">
    <defs>
     <path d="M 57.681818 -52.2 
L 57.681818 -52.2 
L 58.213551 -60.585814 
L 58.745283 -71.15194 
L 59.277015 -80.122664 
L 59.808748 -88.175142 
L 60.34048 -94.124877 
L 60.872213 -100.41843 
L 61.403945 -107.711992 
L 61.935678 -112.48981 
L 62.46741 -121.294914 
L 62.999142 -126.993075 
L 63.530875 -133.961686 
L 64.062607 -139.326511 
L 64.59434 -147.293034 
L 65.126072 -154.335022 
L 65.657804 -159.448272 
L 66.189537 -164.651669 
L 66.721269 -172.029089 
L 67.253002 -175.052175 
L 67.784734 -180.744046 
L 68.316467 -183.10046 
L 68.848199 -183.016602 
L 69.379931 -186.87198 
L 69.911664 -188.633001 
L 70.443396 -188.377234 
L 70.975129 -190.142447 
L 71.506861 -193.329057 
L 72.038593 -196.855291 
L 72.570326 -199.190741 
L 73.102058 -200.041901 
L 73.633791 -201.88678 
L 74.165523 -204.733764 
L 74.697256 -203.955979 
L 75.228988 -206.073398 
L 75.76072 -207.75056 
L 76.292453 -212.947669 
L 76.824185 -215.299889 
L 77.355918 -212.786242 
L 77.88765 -213.706585 
L 78.419383 -215.295696 
L 78.951115 -221.756966 
L 79.482847 -221.417341 
L 80.01458 -224.847139 
L 80.546312 -230.895407 
L 81.078045 -229.807348 
L 81.609777 -232.409046 
L 82.141509 -234.486632 
L 82.673242 -235.679514 
L 83.204974 -234.754978 
L 83.736707 -236.757091 
L 84.268439 -235.677417 
L 84.800172 -236.329414 
L 85.331904 -237.019148 
L 85.863636 -238.86193 
L 86.395369 -236.849335 
L 86.927101 -236.014946 
L 87.458834 -239.620846 
L 87.990566 -238.017059 
L 88.522298 -234.082016 
L 89.054031 -230.979265 
L 89.585763 -232.576763 
L 90.117496 -227.880707 
L 90.649228 -228.214043 
L 91.180961 -227.45932 
L 91.712693 -230.476116 
L 92.244425 -230.228735 
L 92.776158 -229.555773 
L 93.30789 -228.719288 
L 93.839623 -228.553668 
L 94.371355 -228.717192 
L 94.903087 -228.796857 
L 95.43482 -228.633334 
L 95.966552 -225.352384 
L 96.498285 -224.270614 
L 97.030017 -222.507496 
L 97.56175 -221.314614 
L 98.093482 -221.006436 
L 98.625214 -218.402641 
L 99.156947 -218.390062 
L 99.688679 -217.566156 
L 100.220412 -217.396343 
L 100.752144 -219.071409 
L 101.283877 -216.723381 
L 101.815609 -217.65211 
L 102.347341 -213.540965 
L 102.879074 -212.360662 
L 103.410806 -215.125884 
L 103.942539 -218.228635 
L 104.474271 -217.568252 
L 105.006003 -214.381643 
L 105.537736 -213.364863 
L 106.069468 -212.618525 
L 106.601201 -211.444511 
L 107.132933 -212.201331 
L 107.664666 -211.691893 
L 108.196398 -210.021019 
L 108.72813 -212.199235 
L 109.259863 -210.685595 
L 109.791595 -205.826016 
L 110.323328 -204.228518 
L 110.85506 -204.314473 
L 111.386792 -202.63731 
L 111.918525 -201.379438 
L 112.450257 -198.530358 
L 112.98199 -199.700179 
L 113.513722 -198.859501 
L 114.045455 -198.945456 
L 114.577187 -199.78823 
L 115.108919 -198.276687 
L 115.640652 -200.037708 
L 116.172384 -196.431808 
L 116.704117 -194.66869 
L 117.235849 -192.322759 
L 117.767581 -191.320654 
L 118.299314 -191.903468 
L 118.831046 -189.974731 
L 119.362779 -191.060694 
L 119.894511 -187.454794 
L 120.426244 -185.783921 
L 120.957976 -180.658092 
L 121.489708 -182.012401 
L 122.021441 -177.978824 
L 122.553173 -178.488262 
L 123.084906 -173.702059 
L 123.616638 -170.008108 
L 124.14837 -169.515441 
L 124.680103 -168.593002 
L 125.211835 -165.995496 
L 125.743568 -164.144328 
L 126.2753 -161.127531 
L 126.807033 -160.959815 
L 127.338765 -159.867562 
L 127.870497 -159.20089 
L 128.40223 -156.850766 
L 128.933962 -154.919932 
L 129.465695 -151.223885 
L 129.997427 -147.3727 
L 130.52916 -147.712325 
L 131.060892 -143.014173 
L 131.592624 -139.745802 
L 132.124357 -139.496324 
L 132.656089 -137.647252 
L 133.187822 -137.146199 
L 133.719554 -136.554999 
L 134.251286 -134.211164 
L 134.783019 -132.615763 
L 135.314751 -130.936504 
L 135.846484 -130.603168 
L 136.378216 -128.594766 
L 136.909949 -128.091617 
L 137.441681 -126.663932 
L 137.973413 -125.575872 
L 138.505146 -124.234142 
L 139.036878 -120.376668 
L 139.568611 -117.27182 
L 140.100343 -116.930098 
L 140.632075 -115.93009 
L 141.163808 -113.83154 
L 141.69554 -112.829435 
L 142.227273 -112.575764 
L 142.759005 -109.055819 
L 143.290738 -108.965671 
L 143.82247 -107.797947 
L 144.354202 -105.363964 
L 144.885935 -105.27801 
L 145.417667 -103.602943 
L 145.9494 -101.34087 
L 146.481132 -101.003341 
L 147.012864 -100.334572 
L 147.544597 -98.823029 
L 148.076329 -97.395345 
L 148.608062 -95.720278 
L 149.139794 -94.124877 
L 149.671527 -93.204534 
L 150.203259 -92.955056 
L 150.734991 -92.114378 
L 151.266724 -90.017925 
L 151.798456 -90.437215 
L 152.330189 -88.841814 
L 152.861921 -87.919375 
L 153.393654 -86.407832 
L 153.925386 -84.401526 
L 154.457118 -83.309273 
L 154.988851 -82.971744 
L 155.520583 -81.634207 
L 156.052316 -80.963342 
L 156.584048 -80.795626 
L 157.11578 -80.957053 
L 157.647513 -79.868993 
L 158.179245 -78.694979 
L 158.710978 -78.615314 
L 159.24271 -78.196023 
L 159.774443 -76.852197 
L 160.306175 -77.105868 
L 160.837907 -77.437107 
L 161.36964 -76.181332 
L 161.901372 -74.084878 
L 162.433105 -74.338549 
L 162.964837 -73.414013 
L 163.496569 -71.485276 
L 164.028302 -71.317559 
L 164.560034 -70.898269 
L 165.091767 -70.984223 
L 165.623499 -70.562836 
L 166.155232 -70.061784 
L 166.686964 -68.468479 
L 167.218696 -68.969532 
L 167.750429 -68.384621 
L 168.282161 -67.126749 
L 168.813894 -66.875174 
L 169.345626 -66.707458 
L 169.877358 -66.036593 
L 170.409091 -65.696968 
L 170.940823 -65.617302 
L 171.472556 -65.277677 
L 172.004288 -64.908922 
L 172.536021 -65.257595 
L 173.067753 -64.293227 
L 173.599485 -64.644107 
L 174.131218 -64.29102 
L 174.66295 -63.849661 
L 175.194683 -64.217337 
L 175.726415 -63.842305 
L 176.258148 -64.124162 
L 176.78988 -63.28791 
L 177.321612 -63.381085 
L 177.853345 -63.099229 
L 178.385077 -63.194734 
L 178.91681 -63.008382 
L 179.448542 -62.167472 
L 179.980274 -62.728855 
L 180.512007 -61.890274 
L 181.043739 -61.608417 
L 181.575472 -61.422066 
L 182.107204 -61.610747 
L 182.638937 -61.049363 
L 183.170669 -60.958517 
L 183.702401 -60.492638 
L 184.234134 -60.119935 
L 184.765866 -59.747233 
L 185.297599 -59.747233 
L 185.829331 -58.906322 
L 186.361063 -58.535948 
L 186.892796 -58.908651 
L 187.424528 -58.708872 
L 187.956261 -59.013474 
L 188.487993 -58.696385 
L 189.019726 -58.48936 
L 189.551458 -57.962627 
L 190.08319 -59.020462 
L 190.614923 -58.349597 
L 191.146655 -59.028449 
L 191.678388 -59.148246 
L 192.21012 -59.028449 
L 192.741852 -58.549259 
L 193.273585 -58.309664 
L 193.805317 -58.07007 
L 194.33705 -58.07007 
L 194.868782 -57.471083 
L 195.400515 -57.348291 
L 195.932247 -57.111691 
L 196.463979 -56.872096 
L 196.995712 -56.629507 
L 197.527444 -56.27311 
L 198.059177 -56.153312 
L 198.590909 -56.153312 
L 199.122642 -56.033515 
L 199.654374 -56.033515 
L 200.186106 -55.913718 
L 200.717839 -55.79392 
L 201.249571 -55.434528 
L 201.781304 -55.554326 
L 202.313036 -55.194934 
L 202.844768 -55.194934 
L 203.376501 -55.075136 
L 203.908233 -55.164063 
L 204.439966 -55.274798 
L 204.971698 -55.554326 
L 205.503431 -55.554326 
L 206.035163 -55.401856 
L 206.566895 -55.096918 
L 207.098628 -54.940636 
L 207.63036 -54.944448 
L 208.162093 -54.944448 
L 208.693825 -55.096918 
L 209.225557 -54.791979 
L 209.75729 -55.096918 
L 210.289022 -55.096918 
L 210.820755 -55.051177 
L 211.352487 -55.218893 
L 211.88422 -55.386609 
L 212.415952 -55.051177 
L 212.947684 -55.051177 
L 213.479417 -55.051177 
L 214.011149 -55.051177 
L 214.542882 -55.181623 
L 215.074614 -54.995271 
L 215.606346 -54.61791 
L 216.138079 -54.715744 
L 216.669811 -54.715744 
L 217.201544 -54.506099 
L 217.733276 -54.506099 
L 218.265009 -54.086808 
L 218.796741 -54.116757 
L 219.328473 -54.116757 
L 219.860206 -54.15669 
L 220.391938 -54.15669 
L 220.923671 -54.15669 
L 221.455403 -54.15669 
L 221.987136 -54.15669 
L 222.518868 -54.15669 
L 223.0506 -53.877163 
L 223.582333 -53.877163 
L 224.114065 -53.877163 
L 224.645798 -53.877163 
L 225.17753 -53.877163 
L 225.709262 -53.877163 
L 226.240995 -53.877163 
L 226.772727 -53.877163 
L 227.30446 -53.877163 
L 227.836192 -53.877163 
L 228.367925 -53.877163 
L 228.899657 -53.877163 
L 228.899657 -53.877163 
L 228.899657 -53.877163 
L 228.367925 -55.554326 
L 227.836192 -55.554326 
L 227.30446 -55.554326 
L 226.772727 -55.554326 
L 226.240995 -55.554326 
L 225.709262 -57.231488 
L 225.17753 -56.392907 
L 224.645798 -55.889758 
L 224.114065 -55.889758 
L 223.582333 -55.889758 
L 223.0506 -56.225191 
L 222.518868 -56.11338 
L 221.987136 -55.833853 
L 221.455403 -56.11338 
L 220.923671 -55.833853 
L 220.391938 -56.399895 
L 219.860206 -56.392907 
L 219.328473 -56.27311 
L 218.796741 -56.27311 
L 218.265009 -55.973616 
L 217.733276 -56.183262 
L 217.201544 -56.602552 
L 216.669811 -57.231488 
L 216.138079 -57.231488 
L 215.606346 -56.858786 
L 215.074614 -57.41784 
L 214.542882 -57.604191 
L 214.011149 -57.399205 
L 213.479417 -57.734637 
L 212.947684 -57.73883 
L 212.415952 -57.902354 
L 211.88422 -58.745128 
L 211.352487 -58.740935 
L 210.820755 -58.740935 
L 210.289022 -58.298774 
L 209.75729 -58.298774 
L 209.225557 -58.451243 
L 208.693825 -58.603713 
L 208.162093 -58.298774 
L 207.63036 -58.756182 
L 207.098628 -58.756182 
L 206.566895 -58.908651 
L 206.035163 -58.908651 
L 205.503431 -58.908651 
L 204.971698 -58.298774 
L 204.439966 -57.790543 
L 203.908233 -57.618526 
L 203.376501 -57.471083 
L 202.844768 -58.07007 
L 202.313036 -58.073065 
L 201.781304 -58.429462 
L 201.249571 -58.791849 
L 200.717839 -59.271038 
L 200.186106 -59.627435 
L 199.654374 -59.387841 
L 199.122642 -59.627435 
L 198.590909 -59.986827 
L 198.059177 -60.349214 
L 197.527444 -60.466017 
L 196.995712 -60.945206 
L 196.463979 -61.544193 
L 195.932247 -62.143179 
L 195.400515 -62.984756 
L 194.868782 -63.700545 
L 194.33705 -64.062932 
L 193.805317 -64.539126 
L 193.273585 -65.138113 
L 192.741852 -64.661919 
L 192.21012 -65.021311 
L 191.678388 -65.856897 
L 191.146655 -66.336086 
L 190.614923 -66.290963 
L 190.08319 -67.629898 
L 189.551458 -66.458504 
L 189.019726 -67.608933 
L 188.487993 -68.028224 
L 187.956261 -68.447515 
L 187.424528 -67.987528 
L 186.892796 -69.566034 
L 186.361063 -69.437507 
L 185.829331 -71.580548 
L 185.297599 -71.396526 
L 184.765866 -72.514634 
L 184.234134 -73.909941 
L 183.702401 -74.468995 
L 183.170669 -75.030379 
L 182.638937 -74.378149 
L 182.107204 -76.148487 
L 181.575472 -76.146158 
L 181.043739 -76.148487 
L 180.512007 -77.730145 
L 179.980274 -78.848253 
L 179.448542 -80.245889 
L 178.91681 -80.807273 
L 178.385077 -80.525416 
L 177.853345 -81.273151 
L 177.321612 -81.459503 
L 176.78988 -82.482106 
L 176.258148 -82.950314 
L 175.726415 -83.69339 
L 175.194683 -85.00018 
L 174.66295 -84.066093 
L 174.131218 -83.536463 
L 173.599485 -84.608964 
L 173.067753 -85.833735 
L 172.536021 -86.096343 
L 172.004288 -85.919799 
L 171.472556 -83.984332 
L 170.940823 -84.6531 
L 170.409091 -85.493778 
L 169.877358 -85.240107 
L 169.345626 -85.579733 
L 168.813894 -84.319764 
L 168.282161 -85.659398 
L 167.750429 -85.915165 
L 167.218696 -87.170941 
L 166.686964 -86.749554 
L 166.155232 -86.75165 
L 165.623499 -87.084986 
L 165.091767 -88.678291 
L 164.560034 -88.848104 
L 164.028302 -89.183536 
L 163.496569 -89.604923 
L 162.964837 -91.701377 
L 162.433105 -92.368049 
L 161.901372 -93.300971 
L 161.36964 -96.311478 
L 160.837907 -98.238119 
L 160.306175 -98.407932 
L 159.774443 -98.070403 
L 159.24271 -98.997035 
L 158.710978 -100.250714 
L 158.179245 -102.183644 
L 157.647513 -101.424728 
L 157.11578 -103.43942 
L 156.584048 -103.185749 
L 156.052316 -103.609233 
L 155.520583 -105.290588 
L 154.988851 -108.301096 
L 154.457118 -111.328374 
L 153.925386 -112.248718 
L 153.393654 -114.676411 
L 152.861921 -115.349372 
L 152.330189 -117.948975 
L 151.798456 -118.617743 
L 151.266724 -119.542279 
L 150.734991 -119.546472 
L 150.203259 -119.458421 
L 149.671527 -119.299091 
L 149.139794 -118.78546 
L 148.608062 -120.378764 
L 148.076329 -120.628242 
L 147.544597 -123.313799 
L 147.012864 -125.324298 
L 146.481132 -125.324298 
L 145.9494 -127.171274 
L 145.417667 -127.005654 
L 144.885935 -129.183869 
L 144.354202 -130.280314 
L 143.82247 -132.202762 
L 143.290738 -134.464835 
L 142.759005 -138.240548 
L 142.227273 -139.590664 
L 141.69554 -140.754196 
L 141.163808 -143.437656 
L 140.632075 -146.123213 
L 140.100343 -145.877928 
L 139.568611 -146.798271 
L 139.036878 -150.064546 
L 138.505146 -152.999581 
L 137.973413 -154.762698 
L 137.441681 -153.92202 
L 136.909949 -156.519526 
L 136.378216 -157.10863 
L 135.846484 -156.94301 
L 135.314751 -159.215565 
L 134.783019 -162.479743 
L 134.251286 -164.991295 
L 133.719554 -168.259666 
L 133.187822 -172.632868 
L 132.656089 -172.720919 
L 132.124357 -176.563718 
L 131.592624 -179.161224 
L 131.060892 -181.679065 
L 130.52916 -185.71893 
L 129.997427 -189.226297 
L 129.465695 -193.505159 
L 128.933962 -196.771433 
L 128.40223 -200.54505 
L 127.870497 -203.651994 
L 127.338765 -203.899375 
L 126.807033 -201.637302 
L 126.2753 -204.324955 
L 125.743568 -208.18243 
L 125.211835 -210.10907 
L 124.680103 -213.712874 
L 124.14837 -217.404729 
L 123.616638 -217.16154 
L 123.084906 -221.677301 
L 122.553173 -226.128072 
L 122.021441 -223.698282 
L 121.489708 -228.891197 
L 120.957976 -229.144868 
L 120.426244 -234.677409 
L 119.894511 -236.109287 
L 119.362779 -240.04433 
L 118.831046 -239.708897 
L 118.299314 -237.788546 
L 117.767581 -238.115593 
L 117.235849 -243.06532 
L 116.704117 -243.327376 
L 116.172384 -243.75086 
L 115.640652 -248.524484 
L 115.108919 -247.511897 
L 114.577187 -246.082116 
L 114.045455 -246.585265 
L 113.513722 -244.576862 
L 112.98199 -243.903901 
L 112.450257 -244.574766 
L 111.918525 -247.004556 
L 111.386792 -249.602062 
L 110.85506 -250.442739 
L 110.323328 -252.623051 
L 109.791595 -255.054937 
L 109.259863 -256.899816 
L 108.72813 -261.178678 
L 108.196398 -260.937586 
L 107.664666 -263.019364 
L 107.132933 -262.941795 
L 106.601201 -263.950189 
L 106.069468 -261.595872 
L 105.537736 -263.373665 
L 105.006003 -261.941787 
L 104.474271 -259.331702 
L 103.942539 -258.912412 
L 103.410806 -254.218452 
L 102.879074 -251.532895 
L 102.347341 -251.117797 
L 101.815609 -257.067532 
L 101.283877 -255.98157 
L 100.752144 -257.568585 
L 100.220412 -253.797065 
L 99.688679 -253.040245 
L 99.156947 -254.218452 
L 98.625214 -256.983674 
L 98.093482 -258.826457 
L 97.56175 -259.163986 
L 97.030017 -258.411359 
L 96.498285 -261.595872 
L 95.966552 -267.306611 
L 95.43482 -270.820267 
L 94.903087 -272.583385 
L 94.371355 -274.847555 
L 93.839623 -275.442947 
L 93.30789 -280.807772 
L 92.776158 -283.820376 
L 92.244425 -284.767973 
L 91.712693 -283.988092 
L 91.180961 -284.489144 
L 90.649228 -285.082441 
L 90.117496 -286.585598 
L 89.585763 -289.187296 
L 89.054031 -294.474552 
L 88.522298 -295.650663 
L 87.990566 -299.332035 
L 87.458834 -304.2 
L 86.927101 -299.267045 
L 86.395369 -301.015487 
L 85.863636 -300.004997 
L 85.331904 -299.508137 
L 84.800172 -298.830983 
L 84.268439 -299.170608 
L 83.736707 -298.49555 
L 83.204974 -298.415885 
L 82.673242 -293.558402 
L 82.141509 -292.120235 
L 81.609777 -290.277452 
L 81.078045 -289.856065 
L 80.546312 -287.591895 
L 80.01458 -282.411559 
L 79.482847 -281.394779 
L 78.951115 -276.019472 
L 78.419383 -272.830766 
L 77.88765 -272.49743 
L 77.355918 -270.906222 
L 76.824185 -266.966986 
L 76.292453 -265.388356 
L 75.76072 -256.746775 
L 75.228988 -253.29182 
L 74.697256 -249.434345 
L 74.165523 -250.356785 
L 73.633791 -251.952186 
L 73.102058 -246.49931 
L 72.570326 -243.486707 
L 72.038593 -242.151266 
L 71.506861 -237.788546 
L 70.975129 -235.765468 
L 70.443396 -235.775951 
L 69.911664 -231.323083 
L 69.379931 -228.226622 
L 68.848199 -224.197238 
L 68.316467 -221.767448 
L 67.784734 -216.983342 
L 67.253002 -211.784137 
L 66.721269 -208.681386 
L 66.189537 -199.371036 
L 65.657804 -192.746243 
L 65.126072 -181.173819 
L 64.59434 -172.957818 
L 64.062607 -163.903235 
L 63.530875 -156.184094 
L 62.999142 -149.729113 
L 62.46741 -141.425061 
L 61.935678 -133.544492 
L 61.403945 -126.668125 
L 60.872213 -117.609349 
L 60.34048 -110.984556 
L 59.808748 -100.087191 
L 59.277015 -89.265298 
L 58.745283 -76.602719 
L 58.213551 -60.585814 
L 57.681818 -52.2 
z
" id="mbb6ea9365f" style="stroke:#ff7f0e;stroke-opacity:0.2;"/>
    </defs>
    <g clip-path="url(#pba40225e15)">
     <use style="fill:#ff7f0e;fill-opacity:0.2;stroke:#ff7f0e;stroke-opacity:0.2;" x="0" xlink:href="#mbb6ea9365f" y="360"/>
    </g>
   </g>
   <g id="matplotlib.axis_1">
    <g id="xtick_1">
     <g id="line2d_1">
      <defs>
       <path d="M 0 0 
L 0 3.5 
" id="m7a2e659100" style="stroke:#000000;stroke-width:0.8;"/>
      </defs>
      <g>
       <use style="stroke:#000000;stroke-width:0.8;" x="57.681818" xlink:href="#m7a2e659100" y="320.4"/>
      </g>
     </g>
     <g id="text_1">
      <!-- 0 -->
      <defs>
       <path d="M 31.78125 66.40625 
Q 24.171875 66.40625 20.328125 58.90625 
Q 16.5 51.421875 16.5 36.375 
Q 16.5 21.390625 20.328125 13.890625 
Q 24.171875 6.390625 31.78125 6.390625 
Q 39.453125 6.390625 43.28125 13.890625 
Q 47.125 21.390625 47.125 36.375 
Q 47.125 51.421875 43.28125 58.90625 
Q 39.453125 66.40625 31.78125 66.40625 
z
M 31.78125 74.21875 
Q 44.046875 74.21875 50.515625 64.515625 
Q 56.984375 54.828125 56.984375 36.375 
Q 56.984375 17.96875 50.515625 8.265625 
Q 44.046875 -1.421875 31.78125 -1.421875 
Q 19.53125 -1.421875 13.0625 8.265625 
Q 6.59375 17.96875 6.59375 36.375 
Q 6.59375 54.828125 13.0625 64.515625 
Q 19.53125 74.21875 31.78125 74.21875 
z
" id="DejaVuSans-48"/>
      </defs>
      <g transform="translate(54.500568 334.998438)scale(0.1 -0.1)">
       <use xlink:href="#DejaVuSans-48"/>
      </g>
     </g>
    </g>
    <g id="xtick_2">
     <g id="line2d_2">
      <g>
       <use style="stroke:#000000;stroke-width:0.8;" x="110.85506" xlink:href="#m7a2e659100" y="320.4"/>
      </g>
     </g>
     <g id="text_2">
      <!-- 100 -->
      <defs>
       <path d="M 12.40625 8.296875 
L 28.515625 8.296875 
L 28.515625 63.921875 
L 10.984375 60.40625 
L 10.984375 69.390625 
L 28.421875 72.90625 
L 38.28125 72.90625 
L 38.28125 8.296875 
L 54.390625 8.296875 
L 54.390625 0 
L 12.40625 0 
z
" id="DejaVuSans-49"/>
      </defs>
      <g transform="translate(101.31131 334.998438)scale(0.1 -0.1)">
       <use xlink:href="#DejaVuSans-49"/>
       <use x="63.623047" xlink:href="#DejaVuSans-48"/>
       <use x="127.246094" xlink:href="#DejaVuSans-48"/>
      </g>
     </g>
    </g>
    <g id="xtick_3">
     <g id="line2d_3">
      <g>
       <use style="stroke:#000000;stroke-width:0.8;" x="164.028302" xlink:href="#m7a2e659100" y="320.4"/>
      </g>
     </g>
     <g id="text_3">
      <!-- 200 -->
      <defs>
       <path d="M 19.1875 8.296875 
L 53.609375 8.296875 
L 53.609375 0 
L 7.328125 0 
L 7.328125 8.296875 
Q 12.9375 14.109375 22.625 23.890625 
Q 32.328125 33.6875 34.8125 36.53125 
Q 39.546875 41.84375 41.421875 45.53125 
Q 43.3125 49.21875 43.3125 52.78125 
Q 43.3125 58.59375 39.234375 62.25 
Q 35.15625 65.921875 28.609375 65.921875 
Q 23.96875 65.921875 18.8125 64.3125 
Q 13.671875 62.703125 7.8125 59.421875 
L 7.8125 69.390625 
Q 13.765625 71.78125 18.9375 73 
Q 24.125 74.21875 28.421875 74.21875 
Q 39.75 74.21875 46.484375 68.546875 
Q 53.21875 62.890625 53.21875 53.421875 
Q 53.21875 48.921875 51.53125 44.890625 
Q 49.859375 40.875 45.40625 35.40625 
Q 44.1875 33.984375 37.640625 27.21875 
Q 31.109375 20.453125 19.1875 8.296875 
z
" id="DejaVuSans-50"/>
      </defs>
      <g transform="translate(154.484552 334.998438)scale(0.1 -0.1)">
       <use xlink:href="#DejaVuSans-50"/>
       <use x="63.623047" xlink:href="#DejaVuSans-48"/>
       <use x="127.246094" xlink:href="#DejaVuSans-48"/>
      </g>
     </g>
    </g>
    <g id="xtick_4">
     <g id="line2d_4">
      <g>
       <use style="stroke:#000000;stroke-width:0.8;" x="217.201544" xlink:href="#m7a2e659100" y="320.4"/>
      </g>
     </g>
     <g id="text_4">
      <!-- 300 -->
      <defs>
       <path d="M 40.578125 39.3125 
Q 47.65625 37.796875 51.625 33 
Q 55.609375 28.21875 55.609375 21.1875 
Q 55.609375 10.40625 48.1875 4.484375 
Q 40.765625 -1.421875 27.09375 -1.421875 
Q 22.515625 -1.421875 17.65625 -0.515625 
Q 12.796875 0.390625 7.625 2.203125 
L 7.625 11.71875 
Q 11.71875 9.328125 16.59375 8.109375 
Q 21.484375 6.890625 26.8125 6.890625 
Q 36.078125 6.890625 40.9375 10.546875 
Q 45.796875 14.203125 45.796875 21.1875 
Q 45.796875 27.640625 41.28125 31.265625 
Q 36.765625 34.90625 28.71875 34.90625 
L 20.21875 34.90625 
L 20.21875 43.015625 
L 29.109375 43.015625 
Q 36.375 43.015625 40.234375 45.921875 
Q 44.09375 48.828125 44.09375 54.296875 
Q 44.09375 59.90625 40.109375 62.90625 
Q 36.140625 65.921875 28.71875 65.921875 
Q 24.65625 65.921875 20.015625 65.03125 
Q 15.375 64.15625 9.8125 62.3125 
L 9.8125 71.09375 
Q 15.4375 72.65625 20.34375 73.4375 
Q 25.25 74.21875 29.59375 74.21875 
Q 40.828125 74.21875 47.359375 69.109375 
Q 53.90625 64.015625 53.90625 55.328125 
Q 53.90625 49.265625 50.4375 45.09375 
Q 46.96875 40.921875 40.578125 39.3125 
z
" id="DejaVuSans-51"/>
      </defs>
      <g transform="translate(207.657794 334.998438)scale(0.1 -0.1)">
       <use xlink:href="#DejaVuSans-51"/>
       <use x="63.623047" xlink:href="#DejaVuSans-48"/>
       <use x="127.246094" xlink:href="#DejaVuSans-48"/>
      </g>
     </g>
    </g>
    <g id="xtick_5">
     <g id="line2d_5">
      <g>
       <use style="stroke:#000000;stroke-width:0.8;" x="270.374786" xlink:href="#m7a2e659100" y="320.4"/>
      </g>
     </g>
     <g id="text_5">
      <!-- 400 -->
      <defs>
       <path d="M 37.796875 64.3125 
L 12.890625 25.390625 
L 37.796875 25.390625 
z
M 35.203125 72.90625 
L 47.609375 72.90625 
L 47.609375 25.390625 
L 58.015625 25.390625 
L 58.015625 17.1875 
L 47.609375 17.1875 
L 47.609375 0 
L 37.796875 0 
L 37.796875 17.1875 
L 4.890625 17.1875 
L 4.890625 26.703125 
z
" id="DejaVuSans-52"/>
      </defs>
      <g transform="translate(260.831036 334.998438)scale(0.1 -0.1)">
       <use xlink:href="#DejaVuSans-52"/>
       <use x="63.623047" xlink:href="#DejaVuSans-48"/>
       <use x="127.246094" xlink:href="#DejaVuSans-48"/>
      </g>
     </g>
    </g>
    <g id="xtick_6">
     <g id="line2d_6">
      <g>
       <use style="stroke:#000000;stroke-width:0.8;" x="323.548027" xlink:href="#m7a2e659100" y="320.4"/>
      </g>
     </g>
     <g id="text_6">
      <!-- 500 -->
      <defs>
       <path d="M 10.796875 72.90625 
L 49.515625 72.90625 
L 49.515625 64.59375 
L 19.828125 64.59375 
L 19.828125 46.734375 
Q 21.96875 47.46875 24.109375 47.828125 
Q 26.265625 48.1875 28.421875 48.1875 
Q 40.625 48.1875 47.75 41.5 
Q 54.890625 34.8125 54.890625 23.390625 
Q 54.890625 11.625 47.5625 5.09375 
Q 40.234375 -1.421875 26.90625 -1.421875 
Q 22.3125 -1.421875 17.546875 -0.640625 
Q 12.796875 0.140625 7.71875 1.703125 
L 7.71875 11.625 
Q 12.109375 9.234375 16.796875 8.0625 
Q 21.484375 6.890625 26.703125 6.890625 
Q 35.15625 6.890625 40.078125 11.328125 
Q 45.015625 15.765625 45.015625 23.390625 
Q 45.015625 31 40.078125 35.4375 
Q 35.15625 39.890625 26.703125 39.890625 
Q 22.75 39.890625 18.8125 39.015625 
Q 14.890625 38.140625 10.796875 36.28125 
z
" id="DejaVuSans-53"/>
      </defs>
      <g transform="translate(314.004277 334.998438)scale(0.1 -0.1)">
       <use xlink:href="#DejaVuSans-53"/>
       <use x="63.623047" xlink:href="#DejaVuSans-48"/>
       <use x="127.246094" xlink:href="#DejaVuSans-48"/>
      </g>
     </g>
    </g>
    <g id="text_7">
     <!-- Temps (ticks) -->
     <defs>
      <path d="M -0.296875 72.90625 
L 61.375 72.90625 
L 61.375 64.59375 
L 35.5 64.59375 
L 35.5 0 
L 25.59375 0 
L 25.59375 64.59375 
L -0.296875 64.59375 
z
" id="DejaVuSans-84"/>
      <path d="M 56.203125 29.59375 
L 56.203125 25.203125 
L 14.890625 25.203125 
Q 15.484375 15.921875 20.484375 11.0625 
Q 25.484375 6.203125 34.421875 6.203125 
Q 39.59375 6.203125 44.453125 7.46875 
Q 49.3125 8.734375 54.109375 11.28125 
L 54.109375 2.78125 
Q 49.265625 0.734375 44.1875 -0.34375 
Q 39.109375 -1.421875 33.890625 -1.421875 
Q 20.796875 -1.421875 13.15625 6.1875 
Q 5.515625 13.8125 5.515625 26.8125 
Q 5.515625 40.234375 12.765625 48.109375 
Q 20.015625 56 32.328125 56 
Q 43.359375 56 49.78125 48.890625 
Q 56.203125 41.796875 56.203125 29.59375 
z
M 47.21875 32.234375 
Q 47.125 39.59375 43.09375 43.984375 
Q 39.0625 48.390625 32.421875 48.390625 
Q 24.90625 48.390625 20.390625 44.140625 
Q 15.875 39.890625 15.1875 32.171875 
z
" id="DejaVuSans-101"/>
      <path d="M 52 44.1875 
Q 55.375 50.25 60.0625 53.125 
Q 64.75 56 71.09375 56 
Q 79.640625 56 84.28125 50.015625 
Q 88.921875 44.046875 88.921875 33.015625 
L 88.921875 0 
L 79.890625 0 
L 79.890625 32.71875 
Q 79.890625 40.578125 77.09375 44.375 
Q 74.3125 48.1875 68.609375 48.1875 
Q 61.625 48.1875 57.5625 43.546875 
Q 53.515625 38.921875 53.515625 30.90625 
L 53.515625 0 
L 44.484375 0 
L 44.484375 32.71875 
Q 44.484375 40.625 41.703125 44.40625 
Q 38.921875 48.1875 33.109375 48.1875 
Q 26.21875 48.1875 22.15625 43.53125 
Q 18.109375 38.875 18.109375 30.90625 
L 18.109375 0 
L 9.078125 0 
L 9.078125 54.6875 
L 18.109375 54.6875 
L 18.109375 46.1875 
Q 21.1875 51.21875 25.484375 53.609375 
Q 29.78125 56 35.6875 56 
Q 41.65625 56 45.828125 52.96875 
Q 50 49.953125 52 44.1875 
z
" id="DejaVuSans-109"/>
      <path d="M 18.109375 8.203125 
L 18.109375 -20.796875 
L 9.078125 -20.796875 
L 9.078125 54.6875 
L 18.109375 54.6875 
L 18.109375 46.390625 
Q 20.953125 51.265625 25.265625 53.625 
Q 29.59375 56 35.59375 56 
Q 45.5625 56 51.78125 48.09375 
Q 58.015625 40.1875 58.015625 27.296875 
Q 58.015625 14.40625 51.78125 6.484375 
Q 45.5625 -1.421875 35.59375 -1.421875 
Q 29.59375 -1.421875 25.265625 0.953125 
Q 20.953125 3.328125 18.109375 8.203125 
z
M 48.6875 27.296875 
Q 48.6875 37.203125 44.609375 42.84375 
Q 40.53125 48.484375 33.40625 48.484375 
Q 26.265625 48.484375 22.1875 42.84375 
Q 18.109375 37.203125 18.109375 27.296875 
Q 18.109375 17.390625 22.1875 11.75 
Q 26.265625 6.109375 33.40625 6.109375 
Q 40.53125 6.109375 44.609375 11.75 
Q 48.6875 17.390625 48.6875 27.296875 
z
" id="DejaVuSans-112"/>
      <path d="M 44.28125 53.078125 
L 44.28125 44.578125 
Q 40.484375 46.53125 36.375 47.5 
Q 32.28125 48.484375 27.875 48.484375 
Q 21.1875 48.484375 17.84375 46.4375 
Q 14.5 44.390625 14.5 40.28125 
Q 14.5 37.15625 16.890625 35.375 
Q 19.28125 33.59375 26.515625 31.984375 
L 29.59375 31.296875 
Q 39.15625 29.25 43.1875 25.515625 
Q 47.21875 21.78125 47.21875 15.09375 
Q 47.21875 7.46875 41.1875 3.015625 
Q 35.15625 -1.421875 24.609375 -1.421875 
Q 20.21875 -1.421875 15.453125 -0.5625 
Q 10.6875 0.296875 5.421875 2 
L 5.421875 11.28125 
Q 10.40625 8.6875 15.234375 7.390625 
Q 20.0625 6.109375 24.8125 6.109375 
Q 31.15625 6.109375 34.5625 8.28125 
Q 37.984375 10.453125 37.984375 14.40625 
Q 37.984375 18.0625 35.515625 20.015625 
Q 33.0625 21.96875 24.703125 23.78125 
L 21.578125 24.515625 
Q 13.234375 26.265625 9.515625 29.90625 
Q 5.8125 33.546875 5.8125 39.890625 
Q 5.8125 47.609375 11.28125 51.796875 
Q 16.75 56 26.8125 56 
Q 31.78125 56 36.171875 55.265625 
Q 40.578125 54.546875 44.28125 53.078125 
z
" id="DejaVuSans-115"/>
      <path id="DejaVuSans-32"/>
      <path d="M 31 75.875 
Q 24.46875 64.65625 21.28125 53.65625 
Q 18.109375 42.671875 18.109375 31.390625 
Q 18.109375 20.125 21.3125 9.0625 
Q 24.515625 -2 31 -13.1875 
L 23.1875 -13.1875 
Q 15.875 -1.703125 12.234375 9.375 
Q 8.59375 20.453125 8.59375 31.390625 
Q 8.59375 42.28125 12.203125 53.3125 
Q 15.828125 64.359375 23.1875 75.875 
z
" id="DejaVuSans-40"/>
      <path d="M 18.3125 70.21875 
L 18.3125 54.6875 
L 36.8125 54.6875 
L 36.8125 47.703125 
L 18.3125 47.703125 
L 18.3125 18.015625 
Q 18.3125 11.328125 20.140625 9.421875 
Q 21.96875 7.515625 27.59375 7.515625 
L 36.8125 7.515625 
L 36.8125 0 
L 27.59375 0 
Q 17.1875 0 13.234375 3.875 
Q 9.28125 7.765625 9.28125 18.015625 
L 9.28125 47.703125 
L 2.6875 47.703125 
L 2.6875 54.6875 
L 9.28125 54.6875 
L 9.28125 70.21875 
z
" id="DejaVuSans-116"/>
      <path d="M 9.421875 54.6875 
L 18.40625 54.6875 
L 18.40625 0 
L 9.421875 0 
z
M 9.421875 75.984375 
L 18.40625 75.984375 
L 18.40625 64.59375 
L 9.421875 64.59375 
z
" id="DejaVuSans-105"/>
      <path d="M 48.78125 52.59375 
L 48.78125 44.1875 
Q 44.96875 46.296875 41.140625 47.34375 
Q 37.3125 48.390625 33.40625 48.390625 
Q 24.65625 48.390625 19.8125 42.84375 
Q 14.984375 37.3125 14.984375 27.296875 
Q 14.984375 17.28125 19.8125 11.734375 
Q 24.65625 6.203125 33.40625 6.203125 
Q 37.3125 6.203125 41.140625 7.25 
Q 44.96875 8.296875 48.78125 10.40625 
L 48.78125 2.09375 
Q 45.015625 0.34375 40.984375 -0.53125 
Q 36.96875 -1.421875 32.421875 -1.421875 
Q 20.0625 -1.421875 12.78125 6.34375 
Q 5.515625 14.109375 5.515625 27.296875 
Q 5.515625 40.671875 12.859375 48.328125 
Q 20.21875 56 33.015625 56 
Q 37.15625 56 41.109375 55.140625 
Q 45.0625 54.296875 48.78125 52.59375 
z
" id="DejaVuSans-99"/>
      <path d="M 9.078125 75.984375 
L 18.109375 75.984375 
L 18.109375 31.109375 
L 44.921875 54.6875 
L 56.390625 54.6875 
L 27.390625 29.109375 
L 57.625 0 
L 45.90625 0 
L 18.109375 26.703125 
L 18.109375 0 
L 9.078125 0 
z
" id="DejaVuSans-107"/>
      <path d="M 8.015625 75.875 
L 15.828125 75.875 
Q 23.140625 64.359375 26.78125 53.3125 
Q 30.421875 42.28125 30.421875 31.390625 
Q 30.421875 20.453125 26.78125 9.375 
Q 23.140625 -1.703125 15.828125 -13.1875 
L 8.015625 -13.1875 
Q 14.5 -2 17.703125 9.0625 
Q 20.90625 20.125 20.90625 31.390625 
Q 20.90625 42.671875 17.703125 53.65625 
Q 14.5 64.65625 8.015625 75.875 
z
" id="DejaVuSans-41"/>
     </defs>
     <g transform="translate(150.644531 348.676562)scale(0.1 -0.1)">
      <use xlink:href="#DejaVuSans-84"/>
      <use x="60.818359" xlink:href="#DejaVuSans-101"/>
      <use x="122.341797" xlink:href="#DejaVuSans-109"/>
      <use x="219.753906" xlink:href="#DejaVuSans-112"/>
      <use x="283.230469" xlink:href="#DejaVuSans-115"/>
      <use x="335.330078" xlink:href="#DejaVuSans-32"/>
      <use x="367.117188" xlink:href="#DejaVuSans-40"/>
      <use x="406.130859" xlink:href="#DejaVuSans-116"/>
      <use x="445.339844" xlink:href="#DejaVuSans-105"/>
      <use x="473.123047" xlink:href="#DejaVuSans-99"/>
      <use x="528.103516" xlink:href="#DejaVuSans-107"/>
      <use x="586.013672" xlink:href="#DejaVuSans-115"/>
      <use x="638.113281" xlink:href="#DejaVuSans-41"/>
     </g>
    </g>
   </g>
   <g id="matplotlib.axis_2">
    <g id="ytick_1">
     <g id="line2d_7">
      <defs>
       <path d="M 0 0 
L -3.5 0 
" id="mdb4ce7d814" style="stroke:#000000;stroke-width:0.8;"/>
      </defs>
      <g>
       <use style="stroke:#000000;stroke-width:0.8;" x="45" xlink:href="#mdb4ce7d814" y="307.8"/>
      </g>
     </g>
     <g id="text_8">
      <!-- 0 -->
      <g transform="translate(31.6375 311.599219)scale(0.1 -0.1)">
       <use xlink:href="#DejaVuSans-48"/>
      </g>
     </g>
    </g>
    <g id="ytick_2">
     <g id="line2d_8">
      <g>
       <use style="stroke:#000000;stroke-width:0.8;" x="45" xlink:href="#mdb4ce7d814" y="274.256744"/>
      </g>
     </g>
     <g id="text_9">
      <!-- 20 -->
      <g transform="translate(25.275 278.055963)scale(0.1 -0.1)">
       <use xlink:href="#DejaVuSans-50"/>
       <use x="63.623047" xlink:href="#DejaVuSans-48"/>
      </g>
     </g>
    </g>
    <g id="ytick_3">
     <g id="line2d_9">
      <g>
       <use style="stroke:#000000;stroke-width:0.8;" x="45" xlink:href="#mdb4ce7d814" y="240.713488"/>
      </g>
     </g>
     <g id="text_10">
      <!-- 40 -->
      <g transform="translate(25.275 244.512707)scale(0.1 -0.1)">
       <use xlink:href="#DejaVuSans-52"/>
       <use x="63.623047" xlink:href="#DejaVuSans-48"/>
      </g>
     </g>
    </g>
    <g id="ytick_4">
     <g id="line2d_10">
      <g>
       <use style="stroke:#000000;stroke-width:0.8;" x="45" xlink:href="#mdb4ce7d814" y="207.170232"/>
      </g>
     </g>
     <g id="text_11">
      <!-- 60 -->
      <defs>
       <path d="M 33.015625 40.375 
Q 26.375 40.375 22.484375 35.828125 
Q 18.609375 31.296875 18.609375 23.390625 
Q 18.609375 15.53125 22.484375 10.953125 
Q 26.375 6.390625 33.015625 6.390625 
Q 39.65625 6.390625 43.53125 10.953125 
Q 47.40625 15.53125 47.40625 23.390625 
Q 47.40625 31.296875 43.53125 35.828125 
Q 39.65625 40.375 33.015625 40.375 
z
M 52.59375 71.296875 
L 52.59375 62.3125 
Q 48.875 64.0625 45.09375 64.984375 
Q 41.3125 65.921875 37.59375 65.921875 
Q 27.828125 65.921875 22.671875 59.328125 
Q 17.53125 52.734375 16.796875 39.40625 
Q 19.671875 43.65625 24.015625 45.921875 
Q 28.375 48.1875 33.59375 48.1875 
Q 44.578125 48.1875 50.953125 41.515625 
Q 57.328125 34.859375 57.328125 23.390625 
Q 57.328125 12.15625 50.6875 5.359375 
Q 44.046875 -1.421875 33.015625 -1.421875 
Q 20.359375 -1.421875 13.671875 8.265625 
Q 6.984375 17.96875 6.984375 36.375 
Q 6.984375 53.65625 15.1875 63.9375 
Q 23.390625 74.21875 37.203125 74.21875 
Q 40.921875 74.21875 44.703125 73.484375 
Q 48.484375 72.75 52.59375 71.296875 
z
" id="DejaVuSans-54"/>
      </defs>
      <g transform="translate(25.275 210.969451)scale(0.1 -0.1)">
       <use xlink:href="#DejaVuSans-54"/>
       <use x="63.623047" xlink:href="#DejaVuSans-48"/>
      </g>
     </g>
    </g>
    <g id="ytick_5">
     <g id="line2d_11">
      <g>
       <use style="stroke:#000000;stroke-width:0.8;" x="45" xlink:href="#mdb4ce7d814" y="173.626976"/>
      </g>
     </g>
     <g id="text_12">
      <!-- 80 -->
      <defs>
       <path d="M 31.78125 34.625 
Q 24.75 34.625 20.71875 30.859375 
Q 16.703125 27.09375 16.703125 20.515625 
Q 16.703125 13.921875 20.71875 10.15625 
Q 24.75 6.390625 31.78125 6.390625 
Q 38.8125 6.390625 42.859375 10.171875 
Q 46.921875 13.96875 46.921875 20.515625 
Q 46.921875 27.09375 42.890625 30.859375 
Q 38.875 34.625 31.78125 34.625 
z
M 21.921875 38.8125 
Q 15.578125 40.375 12.03125 44.71875 
Q 8.5 49.078125 8.5 55.328125 
Q 8.5 64.0625 14.71875 69.140625 
Q 20.953125 74.21875 31.78125 74.21875 
Q 42.671875 74.21875 48.875 69.140625 
Q 55.078125 64.0625 55.078125 55.328125 
Q 55.078125 49.078125 51.53125 44.71875 
Q 48 40.375 41.703125 38.8125 
Q 48.828125 37.15625 52.796875 32.3125 
Q 56.78125 27.484375 56.78125 20.515625 
Q 56.78125 9.90625 50.3125 4.234375 
Q 43.84375 -1.421875 31.78125 -1.421875 
Q 19.734375 -1.421875 13.25 4.234375 
Q 6.78125 9.90625 6.78125 20.515625 
Q 6.78125 27.484375 10.78125 32.3125 
Q 14.796875 37.15625 21.921875 38.8125 
z
M 18.3125 54.390625 
Q 18.3125 48.734375 21.84375 45.5625 
Q 25.390625 42.390625 31.78125 42.390625 
Q 38.140625 42.390625 41.71875 45.5625 
Q 45.3125 48.734375 45.3125 54.390625 
Q 45.3125 60.0625 41.71875 63.234375 
Q 38.140625 66.40625 31.78125 66.40625 
Q 25.390625 66.40625 21.84375 63.234375 
Q 18.3125 60.0625 18.3125 54.390625 
z
" id="DejaVuSans-56"/>
      </defs>
      <g transform="translate(25.275 177.426195)scale(0.1 -0.1)">
       <use xlink:href="#DejaVuSans-56"/>
       <use x="63.623047" xlink:href="#DejaVuSans-48"/>
      </g>
     </g>
    </g>
    <g id="ytick_6">
     <g id="line2d_12">
      <g>
       <use style="stroke:#000000;stroke-width:0.8;" x="45" xlink:href="#mdb4ce7d814" y="140.08372"/>
      </g>
     </g>
     <g id="text_13">
      <!-- 100 -->
      <g transform="translate(18.9125 143.882939)scale(0.1 -0.1)">
       <use xlink:href="#DejaVuSans-49"/>
       <use x="63.623047" xlink:href="#DejaVuSans-48"/>
       <use x="127.246094" xlink:href="#DejaVuSans-48"/>
      </g>
     </g>
    </g>
    <g id="ytick_7">
     <g id="line2d_13">
      <g>
       <use style="stroke:#000000;stroke-width:0.8;" x="45" xlink:href="#mdb4ce7d814" y="106.540464"/>
      </g>
     </g>
     <g id="text_14">
      <!-- 120 -->
      <g transform="translate(18.9125 110.339683)scale(0.1 -0.1)">
       <use xlink:href="#DejaVuSans-49"/>
       <use x="63.623047" xlink:href="#DejaVuSans-50"/>
       <use x="127.246094" xlink:href="#DejaVuSans-48"/>
      </g>
     </g>
    </g>
    <g id="ytick_8">
     <g id="line2d_14">
      <g>
       <use style="stroke:#000000;stroke-width:0.8;" x="45" xlink:href="#mdb4ce7d814" y="72.997208"/>
      </g>
     </g>
     <g id="text_15">
      <!-- 140 -->
      <g transform="translate(18.9125 76.796427)scale(0.1 -0.1)">
       <use xlink:href="#DejaVuSans-49"/>
       <use x="63.623047" xlink:href="#DejaVuSans-52"/>
       <use x="127.246094" xlink:href="#DejaVuSans-48"/>
      </g>
     </g>
    </g>
    <g id="text_16">
     <!-- Nombre d'agents symptomatique -->
     <defs>
      <path d="M 9.8125 72.90625 
L 23.09375 72.90625 
L 55.421875 11.921875 
L 55.421875 72.90625 
L 64.984375 72.90625 
L 64.984375 0 
L 51.703125 0 
L 19.390625 60.984375 
L 19.390625 0 
L 9.8125 0 
z
" id="DejaVuSans-78"/>
      <path d="M 30.609375 48.390625 
Q 23.390625 48.390625 19.1875 42.75 
Q 14.984375 37.109375 14.984375 27.296875 
Q 14.984375 17.484375 19.15625 11.84375 
Q 23.34375 6.203125 30.609375 6.203125 
Q 37.796875 6.203125 41.984375 11.859375 
Q 46.1875 17.53125 46.1875 27.296875 
Q 46.1875 37.015625 41.984375 42.703125 
Q 37.796875 48.390625 30.609375 48.390625 
z
M 30.609375 56 
Q 42.328125 56 49.015625 48.375 
Q 55.71875 40.765625 55.71875 27.296875 
Q 55.71875 13.875 49.015625 6.21875 
Q 42.328125 -1.421875 30.609375 -1.421875 
Q 18.84375 -1.421875 12.171875 6.21875 
Q 5.515625 13.875 5.515625 27.296875 
Q 5.515625 40.765625 12.171875 48.375 
Q 18.84375 56 30.609375 56 
z
" id="DejaVuSans-111"/>
      <path d="M 48.6875 27.296875 
Q 48.6875 37.203125 44.609375 42.84375 
Q 40.53125 48.484375 33.40625 48.484375 
Q 26.265625 48.484375 22.1875 42.84375 
Q 18.109375 37.203125 18.109375 27.296875 
Q 18.109375 17.390625 22.1875 11.75 
Q 26.265625 6.109375 33.40625 6.109375 
Q 40.53125 6.109375 44.609375 11.75 
Q 48.6875 17.390625 48.6875 27.296875 
z
M 18.109375 46.390625 
Q 20.953125 51.265625 25.265625 53.625 
Q 29.59375 56 35.59375 56 
Q 45.5625 56 51.78125 48.09375 
Q 58.015625 40.1875 58.015625 27.296875 
Q 58.015625 14.40625 51.78125 6.484375 
Q 45.5625 -1.421875 35.59375 -1.421875 
Q 29.59375 -1.421875 25.265625 0.953125 
Q 20.953125 3.328125 18.109375 8.203125 
L 18.109375 0 
L 9.078125 0 
L 9.078125 75.984375 
L 18.109375 75.984375 
z
" id="DejaVuSans-98"/>
      <path d="M 41.109375 46.296875 
Q 39.59375 47.171875 37.8125 47.578125 
Q 36.03125 48 33.890625 48 
Q 26.265625 48 22.1875 43.046875 
Q 18.109375 38.09375 18.109375 28.8125 
L 18.109375 0 
L 9.078125 0 
L 9.078125 54.6875 
L 18.109375 54.6875 
L 18.109375 46.1875 
Q 20.953125 51.171875 25.484375 53.578125 
Q 30.03125 56 36.53125 56 
Q 37.453125 56 38.578125 55.875 
Q 39.703125 55.765625 41.0625 55.515625 
z
" id="DejaVuSans-114"/>
      <path d="M 45.40625 46.390625 
L 45.40625 75.984375 
L 54.390625 75.984375 
L 54.390625 0 
L 45.40625 0 
L 45.40625 8.203125 
Q 42.578125 3.328125 38.25 0.953125 
Q 33.9375 -1.421875 27.875 -1.421875 
Q 17.96875 -1.421875 11.734375 6.484375 
Q 5.515625 14.40625 5.515625 27.296875 
Q 5.515625 40.1875 11.734375 48.09375 
Q 17.96875 56 27.875 56 
Q 33.9375 56 38.25 53.625 
Q 42.578125 51.265625 45.40625 46.390625 
z
M 14.796875 27.296875 
Q 14.796875 17.390625 18.875 11.75 
Q 22.953125 6.109375 30.078125 6.109375 
Q 37.203125 6.109375 41.296875 11.75 
Q 45.40625 17.390625 45.40625 27.296875 
Q 45.40625 37.203125 41.296875 42.84375 
Q 37.203125 48.484375 30.078125 48.484375 
Q 22.953125 48.484375 18.875 42.84375 
Q 14.796875 37.203125 14.796875 27.296875 
z
" id="DejaVuSans-100"/>
      <path d="M 17.921875 72.90625 
L 17.921875 45.796875 
L 9.625 45.796875 
L 9.625 72.90625 
z
" id="DejaVuSans-39"/>
      <path d="M 34.28125 27.484375 
Q 23.390625 27.484375 19.1875 25 
Q 14.984375 22.515625 14.984375 16.5 
Q 14.984375 11.71875 18.140625 8.90625 
Q 21.296875 6.109375 26.703125 6.109375 
Q 34.1875 6.109375 38.703125 11.40625 
Q 43.21875 16.703125 43.21875 25.484375 
L 43.21875 27.484375 
z
M 52.203125 31.203125 
L 52.203125 0 
L 43.21875 0 
L 43.21875 8.296875 
Q 40.140625 3.328125 35.546875 0.953125 
Q 30.953125 -1.421875 24.3125 -1.421875 
Q 15.921875 -1.421875 10.953125 3.296875 
Q 6 8.015625 6 15.921875 
Q 6 25.140625 12.171875 29.828125 
Q 18.359375 34.515625 30.609375 34.515625 
L 43.21875 34.515625 
L 43.21875 35.40625 
Q 43.21875 41.609375 39.140625 45 
Q 35.0625 48.390625 27.6875 48.390625 
Q 23 48.390625 18.546875 47.265625 
Q 14.109375 46.140625 10.015625 43.890625 
L 10.015625 52.203125 
Q 14.9375 54.109375 19.578125 55.046875 
Q 24.21875 56 28.609375 56 
Q 40.484375 56 46.34375 49.84375 
Q 52.203125 43.703125 52.203125 31.203125 
z
" id="DejaVuSans-97"/>
      <path d="M 45.40625 27.984375 
Q 45.40625 37.75 41.375 43.109375 
Q 37.359375 48.484375 30.078125 48.484375 
Q 22.859375 48.484375 18.828125 43.109375 
Q 14.796875 37.75 14.796875 27.984375 
Q 14.796875 18.265625 18.828125 12.890625 
Q 22.859375 7.515625 30.078125 7.515625 
Q 37.359375 7.515625 41.375 12.890625 
Q 45.40625 18.265625 45.40625 27.984375 
z
M 54.390625 6.78125 
Q 54.390625 -7.171875 48.1875 -13.984375 
Q 42 -20.796875 29.203125 -20.796875 
Q 24.46875 -20.796875 20.265625 -20.09375 
Q 16.0625 -19.390625 12.109375 -17.921875 
L 12.109375 -9.1875 
Q 16.0625 -11.328125 19.921875 -12.34375 
Q 23.78125 -13.375 27.78125 -13.375 
Q 36.625 -13.375 41.015625 -8.765625 
Q 45.40625 -4.15625 45.40625 5.171875 
L 45.40625 9.625 
Q 42.625 4.78125 38.28125 2.390625 
Q 33.9375 0 27.875 0 
Q 17.828125 0 11.671875 7.65625 
Q 5.515625 15.328125 5.515625 27.984375 
Q 5.515625 40.671875 11.671875 48.328125 
Q 17.828125 56 27.875 56 
Q 33.9375 56 38.28125 53.609375 
Q 42.625 51.21875 45.40625 46.390625 
L 45.40625 54.6875 
L 54.390625 54.6875 
z
" id="DejaVuSans-103"/>
      <path d="M 54.890625 33.015625 
L 54.890625 0 
L 45.90625 0 
L 45.90625 32.71875 
Q 45.90625 40.484375 42.875 44.328125 
Q 39.84375 48.1875 33.796875 48.1875 
Q 26.515625 48.1875 22.3125 43.546875 
Q 18.109375 38.921875 18.109375 30.90625 
L 18.109375 0 
L 9.078125 0 
L 9.078125 54.6875 
L 18.109375 54.6875 
L 18.109375 46.1875 
Q 21.34375 51.125 25.703125 53.5625 
Q 30.078125 56 35.796875 56 
Q 45.21875 56 50.046875 50.171875 
Q 54.890625 44.34375 54.890625 33.015625 
z
" id="DejaVuSans-110"/>
      <path d="M 32.171875 -5.078125 
Q 28.375 -14.84375 24.75 -17.8125 
Q 21.140625 -20.796875 15.09375 -20.796875 
L 7.90625 -20.796875 
L 7.90625 -13.28125 
L 13.1875 -13.28125 
Q 16.890625 -13.28125 18.9375 -11.515625 
Q 21 -9.765625 23.484375 -3.21875 
L 25.09375 0.875 
L 2.984375 54.6875 
L 12.5 54.6875 
L 29.59375 11.921875 
L 46.6875 54.6875 
L 56.203125 54.6875 
z
" id="DejaVuSans-121"/>
      <path d="M 14.796875 27.296875 
Q 14.796875 17.390625 18.875 11.75 
Q 22.953125 6.109375 30.078125 6.109375 
Q 37.203125 6.109375 41.296875 11.75 
Q 45.40625 17.390625 45.40625 27.296875 
Q 45.40625 37.203125 41.296875 42.84375 
Q 37.203125 48.484375 30.078125 48.484375 
Q 22.953125 48.484375 18.875 42.84375 
Q 14.796875 37.203125 14.796875 27.296875 
z
M 45.40625 8.203125 
Q 42.578125 3.328125 38.25 0.953125 
Q 33.9375 -1.421875 27.875 -1.421875 
Q 17.96875 -1.421875 11.734375 6.484375 
Q 5.515625 14.40625 5.515625 27.296875 
Q 5.515625 40.1875 11.734375 48.09375 
Q 17.96875 56 27.875 56 
Q 33.9375 56 38.25 53.625 
Q 42.578125 51.265625 45.40625 46.390625 
L 45.40625 54.6875 
L 54.390625 54.6875 
L 54.390625 -20.796875 
L 45.40625 -20.796875 
z
" id="DejaVuSans-113"/>
      <path d="M 8.5 21.578125 
L 8.5 54.6875 
L 17.484375 54.6875 
L 17.484375 21.921875 
Q 17.484375 14.15625 20.5 10.265625 
Q 23.53125 6.390625 29.59375 6.390625 
Q 36.859375 6.390625 41.078125 11.03125 
Q 45.3125 15.671875 45.3125 23.6875 
L 45.3125 54.6875 
L 54.296875 54.6875 
L 54.296875 0 
L 45.3125 0 
L 45.3125 8.40625 
Q 42.046875 3.421875 37.71875 1 
Q 33.40625 -1.421875 27.6875 -1.421875 
Q 18.265625 -1.421875 13.375 4.4375 
Q 8.5 10.296875 8.5 21.578125 
z
M 31.109375 56 
z
" id="DejaVuSans-117"/>
     </defs>
     <g transform="translate(12.832812 265.88125)rotate(-90)scale(0.1 -0.1)">
      <use xlink:href="#DejaVuSans-78"/>
      <use x="74.804688" xlink:href="#DejaVuSans-111"/>
      <use x="135.986328" xlink:href="#DejaVuSans-109"/>
      <use x="233.398438" xlink:href="#DejaVuSans-98"/>
      <use x="296.875" xlink:href="#DejaVuSans-114"/>
      <use x="337.957031" xlink:href="#DejaVuSans-101"/>
      <use x="399.480469" xlink:href="#DejaVuSans-32"/>
      <use x="431.267578" xlink:href="#DejaVuSans-100"/>
      <use x="494.744141" xlink:href="#DejaVuSans-39"/>
      <use x="522.234375" xlink:href="#DejaVuSans-97"/>
      <use x="583.513672" xlink:href="#DejaVuSans-103"/>
      <use x="646.990234" xlink:href="#DejaVuSans-101"/>
      <use x="708.513672" xlink:href="#DejaVuSans-110"/>
      <use x="771.892578" xlink:href="#DejaVuSans-116"/>
      <use x="811.101562" xlink:href="#DejaVuSans-115"/>
      <use x="863.201172" xlink:href="#DejaVuSans-32"/>
      <use x="894.988281" xlink:href="#DejaVuSans-115"/>
      <use x="947.087891" xlink:href="#DejaVuSans-121"/>
      <use x="1006.267578" xlink:href="#DejaVuSans-109"/>
      <use x="1103.679688" xlink:href="#DejaVuSans-112"/>
      <use x="1167.15625" xlink:href="#DejaVuSans-116"/>
      <use x="1206.365234" xlink:href="#DejaVuSans-111"/>
      <use x="1267.546875" xlink:href="#DejaVuSans-109"/>
      <use x="1364.958984" xlink:href="#DejaVuSans-97"/>
      <use x="1426.238281" xlink:href="#DejaVuSans-116"/>
      <use x="1465.447266" xlink:href="#DejaVuSans-105"/>
      <use x="1493.230469" xlink:href="#DejaVuSans-113"/>
      <use x="1556.707031" xlink:href="#DejaVuSans-117"/>
      <use x="1620.085938" xlink:href="#DejaVuSans-101"/>
     </g>
    </g>
   </g>
   <g id="line2d_15">
    <path clip-path="url(#pba40225e15)" d="M 57.681818 307.8 
L 58.213551 299.414186 
L 58.745283 283.90043 
L 59.277015 273.753595 
L 60.872213 254.801656 
L 61.935678 246.583558 
L 63.530875 238.449318 
L 64.062607 237.02373 
L 64.59434 235.178851 
L 65.126072 234.340269 
L 66.189537 231.489093 
L 66.721269 229.81193 
L 67.253002 229.979646 
L 67.784734 229.728072 
L 68.316467 230.231221 
L 68.848199 229.81193 
L 69.379931 229.057207 
L 69.911664 229.308781 
L 70.443396 231.069802 
L 70.975129 232.0761 
L 71.506861 231.321376 
L 72.570326 232.0761 
L 73.102058 231.656809 
L 73.633791 231.069802 
L 74.165523 231.908383 
L 74.697256 232.327674 
L 75.228988 232.159958 
L 75.76072 231.824525 
L 76.292453 231.992241 
L 77.355918 231.069802 
L 78.419383 230.902086 
L 78.951115 229.560355 
L 79.482847 229.141065 
L 80.01458 229.308781 
L 80.546312 229.308781 
L 81.078045 229.476497 
L 82.141509 231.321376 
L 82.673242 230.818227 
L 83.204974 232.159958 
L 83.736707 233.837121 
L 84.268439 234.927276 
L 84.800172 234.507986 
L 85.331904 235.262709 
L 85.863636 236.520581 
L 86.395369 236.017432 
L 86.927101 236.688297 
L 87.458834 236.352865 
L 87.990566 237.02373 
L 88.522298 236.772155 
L 89.054031 238.449318 
L 89.585763 238.700893 
L 90.117496 239.2879 
L 90.649228 239.120183 
L 91.180961 239.623332 
L 92.244425 243.732381 
L 92.776158 245.325686 
L 93.30789 246.331983 
L 93.839623 246.835132 
L 94.371355 246.91899 
L 94.903087 247.505997 
L 95.43482 247.505997 
L 95.966552 249.937883 
L 98.093482 253.879216 
L 98.625214 254.214649 
L 99.156947 255.556379 
L 99.688679 256.39496 
L 100.220412 258.65913 
L 100.752144 259.665428 
L 101.815609 263.439044 
L 102.347341 265.200065 
L 103.410806 269.309114 
L 103.942539 271.153993 
L 105.006003 273.921311 
L 105.537736 274.592177 
L 106.069468 274.843751 
L 106.601201 275.430758 
L 107.664666 276.940204 
L 108.196398 277.191779 
L 109.259863 278.617367 
L 111.386792 283.481139 
L 111.918525 284.152005 
L 112.98199 287.003181 
L 113.513722 287.757905 
L 114.045455 288.177195 
L 114.577187 288.84806 
L 115.108919 289.099635 
L 115.640652 289.7705 
L 116.172384 289.602784 
L 116.704117 289.7705 
L 117.235849 289.435067 
L 118.299314 289.351209 
L 118.831046 288.596486 
L 119.362779 288.931919 
L 119.894511 287.85059 
L 120.426244 288.115405 
L 121.489708 289.704296 
L 122.021441 289.969111 
L 122.553173 290.41047 
L 124.680103 292.97035 
L 125.211835 293.853067 
L 125.743568 294.029611 
L 126.2753 293.588252 
L 126.807033 293.588252 
L 127.338765 294.117882 
L 128.933962 293.853067 
L 129.465695 294.382698 
L 129.997427 295.088871 
L 130.52916 295.353687 
L 131.060892 294.848576 
L 131.592624 295.873509 
L 132.656089 296.339388 
L 133.187822 296.257174 
L 133.719554 296.553144 
L 134.251286 295.955038 
L 135.846484 297.527378 
L 136.909949 298.051491 
L 137.441681 298.365959 
L 137.973413 299.414186 
L 138.505146 299.099718 
L 139.036878 299.309363 
L 139.568611 299.078753 
L 140.100343 299.190564 
L 141.69554 300.644105 
L 142.227273 300.13297 
L 142.759005 299.285173 
L 143.290738 299.285173 
L 143.82247 299.134659 
L 144.354202 299.693713 
L 144.885935 300.532295 
L 145.417667 300.811822 
L 145.9494 300.951585 
L 146.481132 300.811822 
L 147.012864 301.231112 
L 147.544597 301.370876 
L 148.076329 301.650403 
L 148.608062 301.396287 
L 149.139794 301.701226 
L 150.203259 301.701226 
L 150.734991 301.091349 
L 151.266724 301.426781 
L 151.798456 301.594498 
L 152.330189 301.091349 
L 152.861921 301.091349 
L 153.925386 300.755916 
L 155.520583 300.755916 
L 156.052316 301.091349 
L 156.584048 300.923633 
L 157.647513 300.345943 
L 158.710978 302.023106 
L 159.24271 301.836754 
L 159.774443 301.836754 
L 160.306175 301.091349 
L 160.837907 301.300994 
L 161.36964 302.139576 
L 161.901372 301.92993 
L 162.433105 301.51064 
L 163.496569 301.92993 
L 164.028302 301.720285 
L 165.623499 301.720285 
L 166.155232 301.091349 
L 166.686964 301.091349 
L 167.218696 300.462413 
L 167.750429 298.934997 
L 168.282161 298.934997 
L 168.813894 299.653781 
L 169.345626 299.414186 
L 169.877358 299.893375 
L 170.409091 300.13297 
L 170.940823 301.091349 
L 171.472556 300.252767 
L 172.004288 300.811822 
L 173.599485 299.97324 
L 174.131218 299.134659 
L 174.66295 298.575605 
L 175.194683 299.134659 
L 175.726415 299.134659 
L 177.853345 300.252767 
L 178.385077 300.252767 
L 178.91681 300.532295 
L 179.448542 299.97324 
L 180.512007 299.414186 
L 181.043739 297.066158 
L 182.107204 297.066158 
L 182.638937 296.730726 
L 183.170669 297.066158 
L 183.702401 297.066158 
L 184.234134 297.401591 
L 184.765866 297.401591 
L 185.297599 297.066158 
L 186.361063 298.407888 
L 186.892796 298.743321 
L 187.424528 293.823643 
L 188.487993 294.941752 
L 189.019726 296.05986 
L 190.08319 296.05986 
L 190.614923 295.500806 
L 191.146655 296.618915 
L 191.678388 297.177969 
L 192.741852 299.414186 
L 193.273585 299.414186 
L 193.805317 299.97324 
L 195.932247 299.97324 
L 196.995712 301.091349 
L 197.527444 301.091349 
L 198.059177 301.650403 
L 200.186106 301.650403 
L 200.717839 301.091349 
L 201.249571 301.091349 
L 201.781304 300.532295 
L 202.313036 300.532295 
L 203.376501 301.650403 
L 203.908233 301.650403 
L 204.439966 302.209457 
L 206.035163 302.209457 
L 206.566895 302.768512 
L 207.098628 302.768512 
L 208.162093 303.88662 
L 208.693825 305.004729 
L 210.289022 305.004729 
L 211.352487 303.88662 
L 212.415952 305.004729 
L 213.479417 305.004729 
L 214.011149 304.445674 
L 214.542882 305.004729 
L 215.074614 304.445674 
L 215.606346 305.284256 
L 216.138079 305.284256 
L 216.669811 304.445674 
L 218.265009 304.445674 
L 218.796741 302.768512 
L 224.114065 302.768512 
L 224.645798 301.091349 
L 225.709262 301.091349 
L 226.772727 297.737023 
L 228.899657 297.737023 
L 229.431389 299.414186 
L 229.963122 297.737023 
L 230.494854 299.414186 
L 232.621784 299.414186 
L 233.153516 297.737023 
L 233.685249 297.737023 
L 234.216981 296.05986 
L 234.748714 289.351209 
L 236.343911 284.319721 
L 236.875643 280.965395 
L 237.407376 275.933907 
L 237.939108 277.61107 
L 239.002573 284.319721 
L 239.534305 285.996884 
L 240.066038 285.996884 
L 241.129503 289.351209 
L 241.661235 287.674046 
L 242.7247 287.674046 
L 243.256432 284.319721 
L 244.319897 284.319721 
L 244.85163 285.996884 
L 245.383362 285.996884 
L 245.915094 280.965395 
L 246.446827 277.61107 
L 246.978559 277.61107 
L 247.510292 282.642558 
L 248.042024 282.642558 
L 248.573756 279.288232 
L 249.105489 280.965395 
L 249.637221 279.288232 
L 250.168954 275.933907 
L 250.700686 277.61107 
L 252.295883 277.61107 
L 252.827616 280.965395 
L 253.891081 280.965395 
L 254.422813 279.288232 
L 254.954545 279.288232 
L 255.486278 280.965395 
L 256.01801 279.288232 
L 256.549743 282.642558 
L 257.081475 282.642558 
L 257.613208 284.319721 
L 258.14494 284.319721 
L 258.676672 282.642558 
L 259.208405 279.288232 
L 260.27187 279.288232 
L 260.803602 284.319721 
L 261.335334 280.965395 
L 261.867067 275.933907 
L 262.398799 275.933907 
L 262.930532 277.61107 
L 263.462264 280.965395 
L 265.057461 280.965395 
L 265.589194 279.288232 
L 266.120926 282.642558 
L 267.184391 282.642558 
L 268.247856 285.996884 
L 268.779588 289.351209 
L 269.311321 291.028372 
L 273.033448 291.028372 
L 273.56518 294.382698 
L 274.628645 297.737023 
L 278.882504 297.737023 
L 279.414237 299.414186 
L 279.945969 299.414186 
L 281.009434 302.768512 
L 288.98542 302.768512 
L 289.517153 304.445674 
L 297.493139 304.445674 
L 298.024871 306.122837 
L 311.318182 306.122837 
L 311.318182 306.122837 
" style="fill:none;stroke:#1f77b4;stroke-linecap:square;stroke-width:1.5;"/>
   </g>
   <g id="line2d_16">
    <path clip-path="url(#pba40225e15)" d="M 57.681818 307.8 
L 58.213551 299.414186 
L 59.277015 275.850049 
L 60.34048 257.568974 
L 61.935678 237.275304 
L 62.999142 221.67769 
L 65.126072 192.327341 
L 65.657804 184.528534 
L 66.189537 178.910039 
L 66.721269 170.356509 
L 67.253002 166.918325 
L 67.784734 161.551404 
L 68.316467 157.693929 
L 68.848199 156.603774 
L 69.379931 153.081732 
L 70.443396 147.714811 
L 70.975129 146.540797 
L 71.506861 142.934897 
L 72.038593 140.586869 
L 72.570326 139.077422 
L 73.102058 136.980969 
L 73.633791 134.045934 
L 74.165523 133.291211 
L 74.697256 133.962076 
L 75.228988 132.117197 
L 75.76072 127.588857 
L 76.292453 121.383355 
L 76.824185 119.957766 
L 77.355918 117.693597 
L 77.88765 116.519583 
L 78.419383 114.171555 
L 79.482847 108.301485 
L 80.01458 105.534166 
L 80.546312 101.508976 
L 81.078045 100.838111 
L 81.609777 99.244806 
L 82.141509 98.070792 
L 82.673242 96.477487 
L 83.204974 94.213317 
L 83.736707 94.381034 
L 84.268439 93.794027 
L 84.800172 93.877885 
L 85.331904 93.290878 
L 85.863636 92.368438 
L 86.927101 91.781431 
L 87.458834 90.94285 
L 87.990566 92.033006 
L 89.054031 99.07709 
L 89.585763 99.999529 
L 90.117496 103.689287 
L 90.649228 104.192436 
L 91.180961 104.863301 
L 91.712693 103.773145 
L 92.244425 103.018422 
L 93.839623 107.546762 
L 94.371355 108.385343 
L 94.903087 109.810932 
L 95.43482 110.901087 
L 95.966552 112.997541 
L 96.498285 116.435725 
L 97.030017 117.693597 
L 97.56175 118.280604 
L 98.093482 119.873908 
L 98.625214 120.880206 
L 99.156947 122.641227 
L 99.688679 123.731383 
L 100.752144 121.383355 
L 101.283877 122.473511 
L 101.815609 122.976659 
L 102.347341 126.247127 
L 102.879074 126.247127 
L 103.942539 121.634929 
L 104.474271 122.138078 
L 105.006003 121.467213 
L 105.537736 122.221936 
L 106.069468 122.305794 
L 107.132933 123.39595 
L 107.664666 123.39595 
L 108.196398 124.402248 
L 108.72813 123.647525 
L 109.259863 126.330985 
L 109.791595 128.175864 
L 110.323328 131.94948 
L 111.386792 134.968374 
L 112.450257 138.238841 
L 112.98199 138.238841 
L 113.513722 138.574274 
L 114.045455 137.567976 
L 114.577187 138.071125 
L 115.108919 138.322699 
L 115.640652 138.322699 
L 116.172384 140.419153 
L 117.767581 144.863634 
L 118.299314 146.037648 
L 118.831046 145.450641 
L 119.362779 145.282925 
L 119.894511 148.301818 
L 120.426244 150.649846 
L 120.957976 154.423462 
L 121.489708 155.765192 
L 122.021441 157.610071 
L 122.553173 158.029362 
L 123.616638 165.660453 
L 124.14837 166.750609 
L 126.2753 177.232876 
L 126.807033 178.071457 
L 127.338765 178.239174 
L 127.870497 179.077755 
L 128.933962 184.27696 
L 129.997427 191.991909 
L 131.060892 198.113553 
L 131.592624 201.048588 
L 132.656089 204.654488 
L 133.187822 205.660786 
L 133.719554 207.25409 
L 134.251286 209.51826 
L 134.783019 212.537153 
L 135.314751 214.801323 
L 135.846484 215.723762 
L 136.378216 217.065493 
L 136.909949 217.317067 
L 137.441681 219.41352 
L 137.973413 220.252102 
L 138.505146 222.264697 
L 139.568611 227.883193 
L 140.100343 228.805632 
L 140.632075 229.476497 
L 142.227273 234.424128 
L 142.759005 236.604439 
L 143.82247 240.126481 
L 144.354202 242.222935 
L 144.885935 243.31309 
L 145.417667 245.241828 
L 145.9494 245.661118 
L 148.608062 252.956776 
L 149.139794 254.633939 
L 149.671527 255.137088 
L 150.203259 254.801656 
L 151.266724 256.143386 
L 151.798456 257.652832 
L 152.861921 259.833144 
L 153.393654 261.258732 
L 154.457118 264.445342 
L 154.988851 265.451639 
L 156.052316 268.302816 
L 156.584048 268.973681 
L 157.11578 269.225256 
L 157.647513 269.979979 
L 158.179245 270.986277 
L 159.774443 272.915014 
L 160.306175 272.915014 
L 160.837907 273.08273 
L 161.901372 276.520914 
L 162.433105 277.191779 
L 162.964837 278.281935 
L 163.496569 279.875239 
L 164.028302 280.462246 
L 165.091767 280.713821 
L 166.155232 282.223267 
L 166.686964 282.307125 
L 167.218696 282.642558 
L 167.750429 283.816572 
L 168.282161 284.068146 
L 168.813894 284.571295 
L 169.345626 284.487437 
L 170.409091 285.074444 
L 170.940823 285.661451 
L 171.472556 285.745309 
L 172.004288 285.202438 
L 172.536021 285.29071 
L 173.067753 285.643797 
L 173.599485 286.438242 
L 174.131218 286.614786 
L 174.66295 287.232688 
L 175.194683 286.090059 
L 175.726415 286.928641 
L 176.258148 287.301344 
L 176.78988 287.860398 
L 177.853345 288.139925 
L 178.385077 288.792155 
L 178.91681 288.978506 
L 179.980274 290.189791 
L 180.512007 291.214723 
L 181.043739 291.960129 
L 181.575472 291.680602 
L 182.107204 291.773778 
L 182.638937 292.426008 
L 183.170669 292.798711 
L 183.702401 292.891886 
L 184.765866 294.196346 
L 185.297599 295.034928 
L 185.829331 295.593982 
L 186.361063 296.339388 
L 186.892796 296.05986 
L 187.424528 297.046427 
L 187.956261 296.688796 
L 189.019726 297.21291 
L 189.551458 297.737023 
L 190.08319 296.954347 
L 190.614923 297.737023 
L 191.678388 297.497429 
L 192.741852 298.455807 
L 193.273585 298.33601 
L 195.400515 299.893375 
L 195.932247 300.492362 
L 196.463979 300.731957 
L 197.527444 301.810133 
L 198.059177 301.810133 
L 199.122642 302.289322 
L 200.186106 302.289322 
L 203.376501 303.72689 
L 203.908233 303.671599 
L 204.439966 303.467329 
L 205.503431 302.768512 
L 207.098628 303.22592 
L 207.63036 303.22592 
L 208.162093 303.378389 
L 208.693825 303.22592 
L 209.225557 303.378389 
L 210.289022 303.378389 
L 210.820755 303.103944 
L 211.352487 303.103944 
L 211.88422 302.936228 
L 212.415952 303.439377 
L 212.947684 303.607093 
L 213.479417 303.607093 
L 214.011149 303.774809 
L 214.542882 303.513917 
L 215.606346 304.259323 
L 216.138079 304.026384 
L 216.669811 304.026384 
L 217.201544 304.445674 
L 217.733276 304.65532 
L 218.265009 305.07461 
L 218.796741 304.924864 
L 219.328473 304.924864 
L 219.860206 304.725202 
L 220.391938 304.725202 
L 220.923671 305.004729 
L 222.518868 305.004729 
L 224.645798 305.451972 
L 225.709262 305.004729 
L 226.240995 305.563783 
L 227.30446 305.563783 
L 227.836192 305.284256 
L 228.367925 305.284256 
L 228.899657 306.122837 
L 241.129503 306.122837 
L 241.129503 306.122837 
" style="fill:none;stroke:#ff7f0e;stroke-linecap:square;stroke-width:1.5;"/>
   </g>
   <g id="line2d_17"/>
   <g id="line2d_18"/>
   <g id="line2d_19"/>
   <g id="patch_3">
    <path d="M 45 320.4 
L 45 43.2 
" style="fill:none;stroke:#000000;stroke-linecap:square;stroke-linejoin:miter;stroke-width:0.8;"/>
   </g>
   <g id="patch_4">
    <path d="M 324 320.4 
L 324 43.2 
" style="fill:none;stroke:#000000;stroke-linecap:square;stroke-linejoin:miter;stroke-width:0.8;"/>
   </g>
   <g id="patch_5">
    <path d="M 45 320.4 
L 324 320.4 
" style="fill:none;stroke:#000000;stroke-linecap:square;stroke-linejoin:miter;stroke-width:0.8;"/>
   </g>
   <g id="patch_6">
    <path d="M 45 43.2 
L 324 43.2 
" style="fill:none;stroke:#000000;stroke-linecap:square;stroke-linejoin:miter;stroke-width:0.8;"/>
   </g>
   <g id="legend_1">
    <g id="patch_7">
     <path d="M 222.76875 95.234375 
L 317 95.234375 
Q 319 95.234375 319 93.234375 
L 319 50.2 
Q 319 48.2 317 48.2 
L 222.76875 48.2 
Q 220.76875 48.2 220.76875 50.2 
L 220.76875 93.234375 
Q 220.76875 95.234375 222.76875 95.234375 
z
" style="fill:#ffffff;opacity:0.8;stroke:#cccccc;stroke-linejoin:miter;"/>
    </g>
    <g id="line2d_20">
     <path d="M 224.76875 56.298437 
L 244.76875 56.298437 
" style="fill:none;"/>
    </g>
    <g id="line2d_21"/>
    <g id="text_17">
     <!-- Quarantaine -->
     <defs>
      <path d="M 39.40625 66.21875 
Q 28.65625 66.21875 22.328125 58.203125 
Q 16.015625 50.203125 16.015625 36.375 
Q 16.015625 22.609375 22.328125 14.59375 
Q 28.65625 6.59375 39.40625 6.59375 
Q 50.140625 6.59375 56.421875 14.59375 
Q 62.703125 22.609375 62.703125 36.375 
Q 62.703125 50.203125 56.421875 58.203125 
Q 50.140625 66.21875 39.40625 66.21875 
z
M 53.21875 1.3125 
L 66.21875 -12.890625 
L 54.296875 -12.890625 
L 43.5 -1.21875 
Q 41.890625 -1.3125 41.03125 -1.359375 
Q 40.1875 -1.421875 39.40625 -1.421875 
Q 24.03125 -1.421875 14.8125 8.859375 
Q 5.609375 19.140625 5.609375 36.375 
Q 5.609375 53.65625 14.8125 63.9375 
Q 24.03125 74.21875 39.40625 74.21875 
Q 54.734375 74.21875 63.90625 63.9375 
Q 73.09375 53.65625 73.09375 36.375 
Q 73.09375 23.6875 67.984375 14.640625 
Q 62.890625 5.609375 53.21875 1.3125 
z
" id="DejaVuSans-81"/>
     </defs>
     <g transform="translate(252.76875 59.798437)scale(0.1 -0.1)">
      <use xlink:href="#DejaVuSans-81"/>
      <use x="78.710938" xlink:href="#DejaVuSans-117"/>
      <use x="142.089844" xlink:href="#DejaVuSans-97"/>
      <use x="203.369141" xlink:href="#DejaVuSans-114"/>
      <use x="244.482422" xlink:href="#DejaVuSans-97"/>
      <use x="305.761719" xlink:href="#DejaVuSans-110"/>
      <use x="369.140625" xlink:href="#DejaVuSans-116"/>
      <use x="408.349609" xlink:href="#DejaVuSans-97"/>
      <use x="469.628906" xlink:href="#DejaVuSans-105"/>
      <use x="497.412109" xlink:href="#DejaVuSans-110"/>
      <use x="560.791016" xlink:href="#DejaVuSans-101"/>
     </g>
    </g>
    <g id="line2d_22">
     <path d="M 224.76875 70.976562 
L 244.76875 70.976562 
" style="fill:none;stroke:#1f77b4;stroke-linecap:square;stroke-width:1.5;"/>
    </g>
    <g id="line2d_23"/>
    <g id="text_18">
     <!-- oui -->
     <g transform="translate(252.76875 74.476562)scale(0.1 -0.1)">
      <use xlink:href="#DejaVuSans-111"/>
      <use x="61.181641" xlink:href="#DejaVuSans-117"/>
      <use x="124.560547" xlink:href="#DejaVuSans-105"/>
     </g>
    </g>
    <g id="line2d_24">
     <path d="M 224.76875 85.654687 
L 244.76875 85.654687 
" style="fill:none;stroke:#ff7f0e;stroke-linecap:square;stroke-width:1.5;"/>
    </g>
    <g id="line2d_25"/>
    <g id="text_19">
     <!-- non -->
     <g transform="translate(252.76875 89.154687)scale(0.1 -0.1)">
      <use xlink:href="#DejaVuSans-110"/>
      <use x="63.378906" xlink:href="#DejaVuSans-111"/>
      <use x="124.560547" xlink:href="#DejaVuSans-110"/>
     </g>
    </g>
   </g>
  </g>
 </g>
 <defs>
  <clipPath id="pba40225e15">
   <rect height="277.2" width="279" x="45" y="43.2"/>
  </clipPath>
 </defs>
</svg>
