<?xml version="1.0" encoding="utf-8" standalone="no"?>
<!DOCTYPE svg PUBLIC "-//W3C//DTD SVG 1.1//EN"
  "http://www.w3.org/Graphics/SVG/1.1/DTD/svg11.dtd">
<!-- Created with matplotlib (https://matplotlib.org/) -->
<svg height="360pt" version="1.1" viewBox="0 0 360 360" width="360pt" xmlns="http://www.w3.org/2000/svg" xmlns:xlink="http://www.w3.org/1999/xlink">
 <defs>
  <style type="text/css">
*{stroke-linecap:butt;stroke-linejoin:round;}
  </style>
 </defs>
 <g id="figure_1">
  <g id="patch_1">
   <path d="M 0 360 
L 360 360 
L 360 0 
L 0 0 
z
" style="fill:#ffffff;"/>
  </g>
  <g id="axes_1">
   <g id="patch_2">
    <path d="M 45 320.4 
L 324 320.4 
L 324 43.2 
L 45 43.2 
z
" style="fill:#ffffff;"/>
   </g>
   <g id="PolyCollection_1">
    <defs>
     <path d="M 57.681818 -52.2 
L 57.681818 -52.2 
L 58.416996 -52.539277 
L 59.152174 -53.726746 
L 59.887352 -56.016865 
L 60.62253 -58.304863 
L 61.357708 -61.358354 
L 62.092885 -63.056859 
L 62.828063 -67.976373 
L 63.563241 -70.690588 
L 64.298419 -75.099067 
L 65.033597 -78.324317 
L 65.768775 -82.734916 
L 66.503953 -86.125564 
L 67.23913 -90.623103 
L 67.974308 -92.911101 
L 68.709486 -97.663098 
L 69.444664 -101.138565 
L 70.179842 -103.511382 
L 70.91502 -104.700972 
L 71.650198 -106.310416 
L 72.385375 -109.368149 
L 73.120553 -111.740967 
L 73.855731 -114.031085 
L 74.590909 -116.403903 
L 75.326087 -119.291997 
L 76.061265 -120.899321 
L 76.796443 -122.767464 
L 77.531621 -123.446018 
L 78.266798 -125.738257 
L 79.001976 -126.921485 
L 79.737154 -128.789628 
L 80.472332 -128.113195 
L 81.20751 -129.215845 
L 81.942688 -131.75406 
L 82.677866 -132.86095 
L 83.413043 -134.046299 
L 84.148221 -136.253719 
L 84.883399 -137.780465 
L 85.618577 -140.066342 
L 86.353755 -138.545958 
L 87.088933 -139.807644 
L 87.824111 -142.019305 
L 88.559289 -142.273762 
L 89.294466 -143.54393 
L 90.029644 -144.059207 
L 90.764822 -145.583832 
L 91.5 -146.76706 
L 92.235178 -149.14836 
L 92.970356 -146.342964 
L 93.705534 -148.206866 
L 94.440711 -148.539782 
L 95.175889 -148.968119 
L 95.911067 -150.840503 
L 96.646245 -149.994431 
L 97.381423 -147.95665 
L 98.116601 -149.568215 
L 98.851779 -150.081371 
L 99.586957 -150.335829 
L 100.322134 -149.90113 
L 101.057312 -149.14836 
L 101.79249 -147.791252 
L 102.527668 -151.008021 
L 103.262846 -150.672985 
L 103.998024 -147.536795 
L 104.733202 -150.503346 
L 105.468379 -151.608117 
L 106.203557 -152.28455 
L 106.938735 -152.960983 
L 107.673913 -152.539008 
L 108.409091 -153.974573 
L 109.144269 -153.637416 
L 109.879447 -154.063633 
L 110.614625 -153.980934 
L 111.349802 -151.943153 
L 112.08498 -152.960983 
L 112.820158 -155.675198 
L 113.555336 -151.941032 
L 114.290514 -153.043682 
L 115.025692 -152.112791 
L 115.76087 -152.282429 
L 116.496047 -151.26884 
L 117.231225 -150.929563 
L 117.966403 -150.16407 
L 118.701581 -149.572456 
L 119.436759 -147.023638 
L 120.171937 -146.173326 
L 120.907115 -144.903158 
L 121.642292 -145.414194 
L 122.37747 -143.548171 
L 123.112648 -144.479062 
L 123.847826 -142.693618 
L 124.583004 -141.260173 
L 125.318182 -141.429811 
L 126.05336 -141.59945 
L 126.788538 -140.666438 
L 127.523715 -138.37632 
L 128.258893 -137.019212 
L 128.994071 -136.930152 
L 129.729249 -133.9636 
L 130.464427 -132.265095 
L 131.199605 -133.367745 
L 131.934783 -133.202348 
L 132.66996 -132.012758 
L 133.405138 -130.061916 
L 134.140316 -129.298543 
L 134.875494 -127.432521 
L 135.610672 -128.282833 
L 136.34585 -128.62211 
L 137.081028 -125.229342 
L 137.816206 -125.314161 
L 138.551383 -124.463848 
L 139.286561 -122.08679 
L 140.021739 -120.560044 
L 140.756917 -119.631274 
L 141.492095 -119.631274 
L 142.227273 -117.510793 
L 142.962451 -116.321204 
L 143.697628 -114.457302 
L 144.432806 -115.55359 
L 145.167984 -112.758797 
L 145.903162 -111.912725 
L 146.63834 -110.890654 
L 147.373518 -111.40381 
L 148.108696 -109.877064 
L 148.843874 -107.926222 
L 149.579051 -105.296827 
L 150.314229 -104.616153 
L 151.049407 -104.109358 
L 151.784585 -101.649601 
L 152.519763 -100.290373 
L 153.254941 -100.122855 
L 153.990119 -97.996013 
L 154.725296 -97.40652 
L 155.460474 -96.30599 
L 156.195652 -96.384448 
L 156.93083 -95.966714 
L 157.666008 -94.946762 
L 158.401186 -94.861943 
L 159.136364 -94.522666 
L 159.871542 -92.573945 
L 160.606719 -91.723632 
L 161.341897 -90.029369 
L 162.077075 -87.73925 
L 162.812253 -88.672261 
L 163.547431 -87.230335 
L 164.282609 -85.447011 
L 165.017787 -86.6366 
L 165.752964 -85.955926 
L 166.488142 -86.212504 
L 167.22332 -85.279493 
L 167.958498 -84.259542 
L 168.693676 -82.989374 
L 169.428854 -83.665807 
L 170.164032 -82.480459 
L 170.899209 -79.933762 
L 171.634387 -78.657233 
L 172.369565 -79.000751 
L 173.104743 -78.409137 
L 173.839921 -77.049909 
L 174.575099 -76.201717 
L 175.310277 -76.458295 
L 176.045455 -76.88027 
L 176.780632 -76.712752 
L 177.51581 -75.692801 
L 178.250988 -75.353524 
L 178.986166 -74.335694 
L 179.721344 -74.507453 
L 180.456522 -73.65714 
L 181.1917 -73.402683 
L 181.926877 -72.467551 
L 182.662055 -73.572321 
L 183.397233 -72.128274 
L 184.132411 -70.945046 
L 184.867589 -71.027745 
L 185.602767 -70.686347 
L 186.337945 -70.603649 
L 187.073123 -70.686347 
L 187.8083 -70.518829 
L 188.543478 -70.436131 
L 189.278656 -70.177432 
L 190.013834 -70.009914 
L 190.749012 -69.074782 
L 191.48419 -68.992084 
L 192.219368 -68.820325 
L 192.954545 -68.398349 
L 193.689723 -68.909385 
L 194.424901 -68.228711 
L 195.160079 -67.291458 
L 195.895257 -66.615025 
L 196.630435 -66.617146 
L 197.365613 -66.279989 
L 198.100791 -66.19305 
L 198.835968 -65.686255 
L 199.571146 -65.429677 
L 200.306324 -65.007701 
L 201.041502 -64.159509 
L 201.77668 -63.056859 
L 202.511858 -62.291366 
L 203.247036 -62.123848 
L 203.982213 -61.360475 
L 204.717391 -61.445294 
L 205.452569 -60.681921 
L 206.187747 -60.76462 
L 206.922925 -60.76674 
L 207.658103 -60.427464 
L 208.393281 -60.936379 
L 209.128458 -61.271415 
L 209.863636 -60.338403 
L 210.598814 -60.088187 
L 211.333992 -59.918548 
L 212.06917 -59.664091 
L 212.804348 -60.003368 
L 213.539526 -59.878371 
L 214.274704 -59.610521 
L 215.009881 -59.610521 
L 215.745059 -58.985537 
L 216.480237 -59.253387 
L 217.215415 -59.07482 
L 217.950593 -58.511963 
L 218.685771 -57.788089 
L 219.420949 -57.887877 
L 220.156126 -57.816622 
L 220.891304 -57.183129 
L 221.626482 -56.546985 
L 222.36166 -56.334937 
L 223.096838 -56.833956 
L 223.832016 -57.17606 
L 224.567194 -56.949876 
L 225.302372 -57.62843 
L 226.037549 -57.399418 
L 226.772727 -57.286325 
L 227.507905 -56.833956 
L 228.243083 -56.607772 
L 228.978261 -56.836784 
L 229.713439 -57.289153 
L 230.448617 -57.550135 
L 231.183794 -57.289153 
L 231.918972 -57.419644 
L 232.65415 -57.571883 
L 233.389328 -57.597586 
L 234.124506 -58.214453 
L 234.859684 -57.90602 
L 235.594862 -57.90602 
L 236.33004 -58.677103 
L 237.065217 -59.829488 
L 237.800395 -59.155175 
L 238.535573 -59.664091 
L 239.270751 -59.155175 
L 240.005929 -58.64626 
L 240.741107 -57.967706 
L 241.476285 -58.476622 
L 242.211462 -57.289153 
L 242.94664 -56.949876 
L 243.681818 -56.949876 
L 244.416996 -56.440961 
L 245.152174 -56.780237 
L 245.887352 -56.530492 
L 246.62253 -57.071804 
L 247.357708 -57.077105 
L 248.092885 -57.289153 
L 248.828063 -56.647707 
L 249.563241 -57.531493 
L 250.298419 -57.289153 
L 251.033597 -58.137345 
L 251.768775 -58.137345 
L 252.503953 -57.289153 
L 253.23913 -57.289153 
L 253.974308 -57.289153 
L 254.709486 -57.571883 
L 255.444664 -57.289153 
L 256.179842 -56.15823 
L 256.91502 -56.440961 
L 257.650198 -56.440961 
L 258.385375 -55.592768 
L 259.120553 -55.027307 
L 259.855731 -55.310038 
L 260.590909 -56.15823 
L 261.326087 -56.610599 
L 262.061265 -56.610599 
L 262.796443 -56.271322 
L 263.531621 -56.610599 
L 264.266798 -56.610599 
L 265.001976 -55.253492 
L 265.737154 -55.253492 
L 266.472332 -54.914215 
L 267.20751 -55.932045 
L 267.942688 -56.26284 
L 268.677866 -55.592768 
L 269.413043 -55.253492 
L 270.148221 -55.253492 
L 270.883399 -55.253492 
L 271.618577 -56.440961 
L 272.353755 -55.592768 
L 273.088933 -54.744576 
L 273.824111 -53.896384 
L 274.559289 -53.896384 
L 275.294466 -53.048192 
L 276.029644 -53.048192 
L 276.764822 -53.048192 
L 277.5 -52.2 
L 278.235178 -52.2 
L 278.970356 -53.896384 
L 279.705534 -53.896384 
L 280.440711 -53.896384 
L 281.175889 -53.896384 
L 281.911067 -53.896384 
L 282.646245 -55.592768 
L 283.381423 -53.896384 
L 284.116601 -53.896384 
L 284.851779 -53.896384 
L 285.586957 -53.896384 
L 286.322134 -53.896384 
L 287.057312 -53.896384 
L 287.79249 -53.896384 
L 288.527668 -53.896384 
L 289.262846 -53.896384 
L 289.998024 -53.896384 
L 290.733202 -53.896384 
L 291.468379 -53.896384 
L 292.203557 -53.896384 
L 292.938735 -53.896384 
L 292.938735 -53.896384 
L 292.938735 -53.896384 
L 292.203557 -53.896384 
L 291.468379 -53.896384 
L 290.733202 -53.896384 
L 289.998024 -53.896384 
L 289.262846 -53.896384 
L 288.527668 -53.896384 
L 287.79249 -55.592768 
L 287.057312 -55.592768 
L 286.322134 -55.592768 
L 285.586957 -57.289153 
L 284.851779 -57.289153 
L 284.116601 -57.289153 
L 283.381423 -58.985537 
L 282.646245 -58.985537 
L 281.911067 -58.985537 
L 281.175889 -60.681921 
L 280.440711 -60.681921 
L 279.705534 -60.681921 
L 278.970356 -60.681921 
L 278.235178 -62.378305 
L 277.5 -64.07469 
L 276.764822 -61.530113 
L 276.029644 -62.378305 
L 275.294466 -63.226498 
L 274.559289 -64.07469 
L 273.824111 -64.07469 
L 273.088933 -63.226498 
L 272.353755 -63.226498 
L 271.618577 -64.922882 
L 270.883399 -63.396136 
L 270.148221 -63.396136 
L 269.413043 -64.753243 
L 268.677866 -66.110351 
L 267.942688 -66.110351 
L 267.20751 -64.761725 
L 266.472332 -65.09252 
L 265.737154 -65.09252 
L 265.001976 -65.101002 
L 264.266798 -69.163842 
L 263.531621 -71.878057 
L 262.796443 -75.610103 
L 262.061265 -74.592272 
L 261.326087 -71.878057 
L 260.590909 -71.708419 
L 259.855731 -75.398055 
L 259.120553 -73.970264 
L 258.385375 -76.797572 
L 257.650198 -79.066485 
L 256.91502 -79.342148 
L 256.179842 -81.321263 
L 255.444664 -81.038532 
L 254.709486 -81.321263 
L 253.974308 -83.017647 
L 253.23913 -79.624879 
L 252.503953 -81.038532 
L 251.768775 -83.300378 
L 251.033597 -83.583109 
L 250.298419 -81.280873 
L 249.563241 -81.765554 
L 248.828063 -81.467929 
L 248.092885 -82.316122 
L 247.357708 -84.436602 
L 246.62253 -81.886724 
L 245.887352 -77.273502 
L 245.152174 -76.96721 
L 244.416996 -78.667835 
L 243.681818 -83.41347 
L 242.94664 -84.261662 
L 242.211462 -85.962287 
L 241.476285 -86.814721 
L 240.741107 -88.332984 
L 240.005929 -86.297323 
L 239.270751 -85.279493 
L 238.535573 -85.958046 
L 237.800395 -84.265903 
L 237.065217 -85.792649 
L 236.33004 -85.048168 
L 235.594862 -83.04335 
L 234.859684 -84.126723 
L 234.124506 -85.823107 
L 233.389328 -83.660217 
L 232.65415 -84.007205 
L 231.918972 -80.51983 
L 231.183794 -82.473934 
L 230.448617 -84.304072 
L 229.713439 -85.344738 
L 228.978261 -82.850836 
L 228.243083 -81.717086 
L 227.507905 -81.490901 
L 226.772727 -81.041359 
L 226.037549 -81.717086 
L 225.302372 -82.172282 
L 224.567194 -81.835833 
L 223.832016 -81.717086 
L 223.096838 -81.041359 
L 222.36166 -77.433716 
L 221.626482 -75.419259 
L 220.891304 -75.424561 
L 220.156126 -76.272753 
L 219.420949 -74.652144 
L 218.685771 -74.153208 
L 217.950593 -73.124428 
L 217.215415 -72.290993 
L 216.480237 -73.094543 
L 215.745059 -73.003028 
L 215.009881 -72.831157 
L 214.274704 -74.699412 
L 213.539526 -74.074428 
L 212.804348 -74.085477 
L 212.06917 -75.527404 
L 211.333992 -76.632174 
L 210.598814 -75.699163 
L 209.863636 -76.375596 
L 209.128458 -75.357765 
L 208.393281 -75.186007 
L 207.658103 -74.933669 
L 206.922925 -74.424754 
L 206.187747 -75.101187 
L 205.452569 -74.170296 
L 204.717391 -73.915839 
L 203.982213 -75.188127 
L 203.247036 -74.84673 
L 202.511858 -74.679212 
L 201.77668 -76.121138 
L 201.041502 -77.650005 
L 200.306324 -77.817523 
L 199.571146 -78.326438 
L 198.835968 -78.580895 
L 198.100791 -80.359978 
L 197.365613 -79.683545 
L 196.630435 -79.683545 
L 195.895257 -80.107641 
L 195.160079 -81.464749 
L 194.424901 -82.737037 
L 193.689723 -82.569519 
L 192.954545 -83.50041 
L 192.219368 -84.433421 
L 191.48419 -83.41347 
L 190.749012 -85.111975 
L 190.013834 -85.451252 
L 189.278656 -86.640841 
L 188.543478 -86.808359 
L 187.8083 -87.147636 
L 187.073123 -87.151877 
L 186.337945 -87.571732 
L 185.602767 -87.73925 
L 184.867589 -87.656551 
L 184.132411 -86.977997 
L 183.397233 -88.250286 
L 182.662055 -89.607393 
L 181.926877 -90.031489 
L 181.1917 -89.85973 
L 180.456522 -89.183297 
L 179.721344 -89.944549 
L 178.986166 -89.181177 
L 178.250988 -89.607393 
L 177.51581 -88.337225 
L 176.780632 -89.522574 
L 176.045455 -90.283826 
L 175.310277 -90.201128 
L 174.575099 -90.368646 
L 173.839921 -91.475536 
L 173.104743 -93.676595 
L 172.369565 -94.100691 
L 171.634387 -94.015872 
L 170.899209 -96.645267 
L 170.164032 -98.343772 
L 169.428854 -97.832736 
L 168.693676 -97.836977 
L 167.958498 -99.276783 
L 167.22332 -100.462132 
L 166.488142 -103.685262 
L 165.752964 -105.04449 
L 165.017787 -104.281117 
L 164.282609 -103.687382 
L 163.547431 -105.04661 
L 162.812253 -106.490657 
L 162.077075 -105.807863 
L 161.341897 -110.133642 
L 160.606719 -109.622607 
L 159.871542 -111.49075 
L 159.136364 -112.932676 
L 158.401186 -112.336821 
L 157.666008 -112.254123 
L 156.93083 -112.338942 
L 156.195652 -113.863567 
L 155.460474 -114.289784 
L 154.725296 -114.629061 
L 153.990119 -115.562072 
L 153.254941 -115.562072 
L 152.519763 -116.499324 
L 151.784585 -116.9213 
L 151.049407 -118.867901 
L 150.314229 -120.227129 
L 149.579051 -121.497296 
L 148.843874 -123.2785 
L 148.108696 -126.421052 
L 147.373518 -127.773918 
L 146.63834 -127.521581 
L 145.903162 -127.010545 
L 145.167984 -128.793869 
L 144.432806 -131.762542 
L 143.697628 -131.762542 
L 142.962451 -134.394058 
L 142.227273 -136.25796 
L 141.492095 -137.447549 
L 140.756917 -138.972175 
L 140.021739 -139.735547 
L 139.286561 -143.469713 
L 138.551383 -144.994339 
L 137.816206 -146.434145 
L 137.081028 -147.960891 
L 136.34585 -147.791252 
L 135.610672 -147.791252 
L 134.875494 -147.625855 
L 134.140316 -150.335829 
L 133.405138 -150.675105 
L 132.66996 -152.290911 
L 131.934783 -154.916066 
L 131.199605 -153.900356 
L 130.464427 -153.898235 
L 129.729249 -156.444932 
L 128.994071 -159.243966 
L 128.258893 -157.630281 
L 127.523715 -159.761364 
L 126.788538 -164.078661 
L 126.05336 -164.415818 
L 125.318182 -166.36666 
L 124.583004 -166.962515 
L 123.847826 -167.725888 
L 123.112648 -171.457933 
L 122.37747 -172.473643 
L 121.642292 -171.373114 
L 120.907115 -169.931187 
L 120.171937 -173.321835 
L 119.436759 -175.361737 
L 118.701581 -176.56617 
L 117.966403 -176.714604 
L 117.231225 -178.582747 
L 116.496047 -180.026794 
L 115.76087 -182.738888 
L 115.025692 -183.504381 
L 114.290514 -181.313925 
L 113.555336 -181.55354 
L 112.820158 -182.738888 
L 112.08498 -179.861396 
L 111.349802 -180.446649 
L 110.614625 -183.165105 
L 109.879447 -187.488764 
L 109.144269 -182.573491 
L 108.409091 -183.506502 
L 107.673913 -182.143033 
L 106.938735 -182.143033 
L 106.203557 -181.888575 
L 105.468379 -178.837204 
L 104.733202 -179.774457 
L 103.998024 -176.716724 
L 103.262846 -178.15653 
L 102.527668 -180.957685 
L 101.79249 -178.254072 
L 101.057312 -178.415229 
L 100.322134 -180.448769 
L 99.586957 -180.028914 
L 98.851779 -177.734555 
L 98.116601 -175.527135 
L 97.381423 -175.446556 
L 96.646245 -177.308338 
L 95.911067 -178.162892 
L 95.175889 -176.799423 
L 94.440711 -174.678942 
L 93.705534 -176.120869 
L 92.970356 -173.83075 
L 92.235178 -173.832871 
L 91.5 -172.134366 
L 90.764822 -171.290415 
L 90.029644 -168.234803 
L 89.294466 -166.962515 
L 88.559289 -168.658899 
L 87.824111 -167.978225 
L 87.088933 -166.710177 
L 86.353755 -165.26613 
L 85.618577 -164.670275 
L 84.883399 -162.634614 
L 84.148221 -160.683772 
L 83.413043 -156.869028 
L 82.677866 -156.703631 
L 81.942688 -153.985175 
L 81.20751 -151.438478 
L 80.472332 -151.610237 
L 79.737154 -152.712887 
L 79.001976 -152.456309 
L 78.266798 -148.809083 
L 77.531621 -146.351446 
L 76.796443 -145.170339 
L 76.061265 -141.431932 
L 75.326087 -139.226632 
L 74.590909 -136.005623 
L 73.855731 -132.014879 
L 73.120553 -128.541532 
L 72.385375 -125.403221 
L 71.650198 -122.943464 
L 70.91502 -120.568526 
L 70.179842 -118.532865 
L 69.444664 -114.970458 
L 68.709486 -111.40381 
L 67.974308 -105.381646 
L 67.23913 -104.705213 
L 66.503953 -98.850567 
L 65.768775 -95.797075 
L 65.033597 -89.94667 
L 64.298419 -85.451252 
L 63.563241 -79.851063 
L 62.828063 -75.357765 
L 62.092885 -70.268613 
L 61.357708 -66.19517 
L 60.62253 -61.954209 
L 59.887352 -58.7332 
L 59.152174 -55.592768 
L 58.416996 -53.217831 
L 57.681818 -52.2 
z
" id="m7d50cbba4e" style="stroke:#1f77b4;stroke-opacity:0.2;"/>
    </defs>
    <g clip-path="url(#peeb9e2a6f9)">
     <use style="fill:#1f77b4;fill-opacity:0.2;stroke:#1f77b4;stroke-opacity:0.2;" x="0" xlink:href="#m7d50cbba4e" y="360"/>
    </g>
   </g>
   <g id="PolyCollection_2">
    <defs>
     <path d="M 57.681818 -52.2 
L 57.681818 -52.2 
L 58.416996 -60.681921 
L 59.152174 -71.453961 
L 59.887352 -80.273039 
L 60.62253 -88.672261 
L 61.357708 -95.372979 
L 62.092885 -101.225505 
L 62.828063 -108.859234 
L 63.563241 -114.113784 
L 64.298419 -121.664814 
L 65.033597 -127.943557 
L 65.768775 -134.304997 
L 66.503953 -140.577378 
L 67.23913 -148.724264 
L 67.974308 -153.809175 
L 68.709486 -160.93611 
L 69.444664 -165.090131 
L 70.179842 -173.237016 
L 70.91502 -176.790941 
L 71.650198 -179.852914 
L 72.385375 -182.556527 
L 73.120553 -185.022645 
L 73.855731 -187.567222 
L 74.590909 -189.94428 
L 75.326087 -190.875171 
L 76.061265 -191.384086 
L 76.796443 -194.350638 
L 77.531621 -198.59584 
L 78.266798 -198.850297 
L 79.001976 -201.481814 
L 79.737154 -204.361426 
L 80.472332 -205.207497 
L 81.20751 -204.685859 
L 81.942688 -208.689326 
L 82.677866 -210.888264 
L 83.413043 -213.60672 
L 84.148221 -215.644501 
L 84.883399 -216.486332 
L 85.618577 -216.745031 
L 86.353755 -218.759487 
L 87.088933 -223.785025 
L 87.824111 -225.061555 
L 88.559289 -227.182035 
L 89.294466 -229.54425 
L 90.029644 -232.773741 
L 90.764822 -235.661836 
L 91.5 -237.180099 
L 92.235178 -236.34251 
L 92.970356 -237.26916 
L 93.705534 -237.614798 
L 94.440711 -237.36034 
L 95.175889 -237.188581 
L 95.911067 -237.445159 
L 96.646245 -241.090265 
L 97.381423 -241.005446 
L 98.116601 -239.298459 
L 98.851779 -240.49229 
L 99.586957 -238.715327 
L 100.322134 -236.170751 
L 101.057312 -233.541355 
L 101.79249 -234.050271 
L 102.527668 -231.760152 
L 103.262846 -228.787238 
L 103.998024 -230.574803 
L 104.733202 -230.905598 
L 105.468379 -230.905598 
L 106.203557 -231.760152 
L 106.938735 -229.72025 
L 107.673913 -230.82714 
L 108.409091 -231.331815 
L 109.144269 -229.213455 
L 109.879447 -230.231285 
L 110.614625 -226.492879 
L 111.349802 -224.550519 
L 112.08498 -222.512737 
L 112.820158 -225.994566 
L 113.555336 -220.899052 
L 114.290514 -221.834183 
L 115.025692 -220.470715 
L 115.76087 -220.218377 
L 116.496047 -220.301076 
L 117.231225 -221.242569 
L 117.966403 -218.006717 
L 118.701581 -218.613174 
L 119.436759 -214.883249 
L 120.171937 -213.945997 
L 120.907115 -214.955345 
L 121.642292 -218.761608 
L 122.37747 -218.68527 
L 123.112648 -217.851921 
L 123.847826 -215.470622 
L 124.583004 -215.731441 
L 125.318182 -213.267443 
L 126.05336 -213.184744 
L 126.788538 -213.186865 
L 127.523715 -211.064264 
L 128.258893 -214.024455 
L 128.994071 -210.635927 
L 129.729249 -208.937422 
L 130.464427 -206.142629 
L 131.199605 -203.767691 
L 131.934783 -203.093379 
L 132.66996 -201.562392 
L 133.405138 -199.853285 
L 134.140316 -201.638729 
L 134.875494 -200.71632 
L 135.610672 -201.214633 
L 136.34585 -199.437671 
L 137.081028 -198.928755 
L 137.816206 -200.463983 
L 138.551383 -198.086925 
L 139.286561 -196.223022 
L 140.021739 -195.033433 
L 140.756917 -192.997772 
L 141.492095 -191.557966 
L 142.227273 -192.1517 
L 142.962451 -190.368376 
L 143.697628 -188.409052 
L 144.432806 -187.308523 
L 145.167984 -184.261393 
L 145.903162 -182.384768 
L 146.63834 -180.268529 
L 147.373518 -180.27489 
L 148.108696 -177.301977 
L 148.843874 -171.112295 
L 149.579051 -172.038944 
L 150.314229 -167.973984 
L 151.049407 -165.599046 
L 151.784585 -164.411577 
L 152.519763 -162.295337 
L 153.254941 -162.719434 
L 153.990119 -159.496303 
L 154.725296 -160.93611 
L 155.460474 -157.460642 
L 156.195652 -154.146332 
L 156.93083 -150.335829 
L 157.666008 -149.220456 
L 158.401186 -145.401471 
L 159.136364 -143.376412 
L 159.871542 -142.530341 
L 160.606719 -140.492559 
L 161.341897 -138.537476 
L 162.077075 -137.610826 
L 162.812253 -137.101911 
L 163.547431 -136.247357 
L 164.282609 -133.117528 
L 165.017787 -132.77189 
L 165.752964 -130.403314 
L 166.488142 -130.061916 
L 167.22332 -130.146736 
L 167.958498 -127.434641 
L 168.693676 -127.180184 
L 169.428854 -123.787415 
L 170.164032 -122.08679 
L 170.899209 -118.354745 
L 171.634387 -118.613443 
L 172.369565 -117.425974 
L 173.104743 -114.877157 
L 173.839921 -114.457302 
L 174.575099 -112.082364 
L 175.310277 -111.062413 
L 176.045455 -109.790125 
L 176.780632 -108.265499 
L 177.51581 -106.653934 
L 178.250988 -105.127188 
L 178.986166 -104.185695 
L 179.721344 -102.830708 
L 180.456522 -102.243335 
L 181.1917 -101.053746 
L 181.926877 -99.187723 
L 182.662055 -97.913314 
L 183.397233 -95.625316 
L 184.132411 -94.18551 
L 184.867589 -93.672354 
L 185.602767 -92.998041 
L 186.337945 -92.228307 
L 187.073123 -91.034476 
L 187.8083 -88.924598 
L 188.543478 -89.263875 
L 189.278656 -87.223973 
L 190.013834 -86.891058 
L 190.749012 -85.107734 
L 191.48419 -83.752747 
L 192.219368 -82.732796 
L 192.954545 -81.886724 
L 193.689723 -81.29299 
L 194.424901 -81.038532 
L 195.160079 -80.529617 
L 195.895257 -80.444798 
L 196.630435 -78.831112 
L 197.365613 -79.000751 
L 198.100791 -78.400655 
L 198.835968 -78.154679 
L 199.571146 -77.474005 
L 200.306324 -76.712752 
L 201.041502 -76.540993 
L 201.77668 -74.335694 
L 202.511858 -74.674971 
L 203.247036 -73.489622 
L 203.982213 -72.045575 
L 204.717391 -71.793238 
L 205.452569 -71.027745 
L 206.187747 -71.112564 
L 206.922925 -71.025624 
L 207.658103 -70.009914 
L 208.393281 -69.672758 
L 209.128458 -68.824566 
L 209.863636 -67.637097 
L 210.598814 -67.382639 
L 211.333992 -67.213001 
L 212.06917 -67.889434 
L 212.804348 -65.940712 
L 213.539526 -66.617146 
L 214.274704 -66.10823 
L 215.009881 -65.431797 
L 215.745059 -65.324657 
L 216.480237 -65.324657 
L 217.215415 -64.87824 
L 217.950593 -64.431823 
L 218.685771 -64.431823 
L 219.420949 -63.983174 
L 220.156126 -64.166577 
L 220.891304 -64.828638 
L 221.626482 -64.35742 
L 222.36166 -62.75528 
L 223.096838 -63.975734 
L 223.832016 -63.226498 
L 224.567194 -62.752924 
L 225.302372 -62.752924 
L 226.037549 -62.472549 
L 226.772727 -62.566793 
L 227.507905 -62.001331 
L 228.243083 -61.153139 
L 228.978261 -61.527757 
L 229.713439 -62.090863 
L 230.448617 -61.43587 
L 231.183794 -60.870408 
L 231.918972 -60.868052 
L 232.65415 -60.585322 
L 233.389328 -59.550998 
L 234.124506 -59.456755 
L 234.859684 -58.888937 
L 235.594862 -58.794694 
L 236.33004 -58.985537 
L 237.065217 -58.586388 
L 237.800395 -58.770838 
L 238.535573 -58.879513 
L 239.270751 -58.667465 
L 240.005929 -58.349393 
L 240.741107 -58.98271 
L 241.476285 -58.872445 
L 242.211462 -58.985537 
L 242.94664 -59.591388 
L 243.681818 -58.985537 
L 244.416996 -58.500856 
L 245.152174 -58.379685 
L 245.887352 -58.134316 
L 246.62253 -58.016175 
L 247.357708 -57.528464 
L 248.092885 -57.407294 
L 248.828063 -56.925642 
L 249.563241 -56.925642 
L 250.298419 -56.683301 
L 251.033597 -56.31979 
L 251.768775 -56.31979 
L 252.503953 -56.19862 
L 253.23913 -56.07745 
L 253.974308 -55.956279 
L 254.709486 -55.835109 
L 255.444664 -55.835109 
L 256.179842 -55.592768 
L 256.91502 -55.471598 
L 257.650198 -55.350428 
L 258.385375 -55.229258 
L 259.120553 -55.108087 
L 259.855731 -55.070804 
L 260.590909 -55.310038 
L 261.326087 -55.592768 
L 262.061265 -55.74313 
L 262.796443 -55.438552 
L 263.531621 -54.975901 
L 264.266798 -54.975901 
L 265.001976 -55.130118 
L 265.737154 -55.130118 
L 266.472332 -55.28048 
L 267.20751 -54.821685 
L 267.942688 -55.126263 
L 268.677866 -55.126263 
L 269.413043 -55.253492 
L 270.148221 -55.253492 
L 270.883399 -55.42313 
L 271.618577 -55.253492 
L 272.353755 -55.083853 
L 273.088933 -55.083853 
L 273.824111 -54.914215 
L 274.559289 -55.399569 
L 275.294466 -54.83882 
L 276.029644 -54.650333 
L 276.764822 -54.744576 
L 277.5 -54.744576 
L 278.235178 -54.532528 
L 278.970356 -54.532528 
L 279.705534 -54.108432 
L 280.440711 -54.138725 
L 281.175889 -54.138725 
L 281.911067 -54.179115 
L 282.646245 -54.179115 
L 283.381423 -54.179115 
L 284.116601 -54.179115 
L 284.851779 -54.179115 
L 285.586957 -54.179115 
L 286.322134 -53.896384 
L 287.057312 -53.896384 
L 287.79249 -53.896384 
L 288.527668 -53.896384 
L 289.262846 -53.896384 
L 289.998024 -53.896384 
L 290.733202 -53.896384 
L 291.468379 -53.896384 
L 292.203557 -53.896384 
L 292.938735 -53.896384 
L 293.673913 -53.896384 
L 294.409091 -53.896384 
L 294.409091 -53.896384 
L 294.409091 -53.896384 
L 293.673913 -55.592768 
L 292.938735 -55.592768 
L 292.203557 -55.592768 
L 291.468379 -55.592768 
L 290.733202 -55.592768 
L 289.998024 -57.289153 
L 289.262846 -56.440961 
L 288.527668 -55.932045 
L 287.79249 -55.932045 
L 287.057312 -55.932045 
L 286.322134 -56.271322 
L 285.586957 -56.15823 
L 284.851779 -56.15823 
L 284.116601 -56.15823 
L 283.381423 -56.15823 
L 282.646245 -56.440961 
L 281.911067 -56.440961 
L 281.175889 -56.31979 
L 280.440711 -56.31979 
L 279.705534 -56.016865 
L 278.970356 -56.228913 
L 278.235178 -56.653009 
L 277.5 -57.289153 
L 276.764822 -57.289153 
L 276.029644 -57.100666 
L 275.294466 -57.47764 
L 274.559289 -57.854614 
L 273.824111 -57.62843 
L 273.088933 -57.798068 
L 272.353755 -57.967706 
L 271.618577 -58.137345 
L 270.883399 -58.985537 
L 270.148221 -58.650501 
L 269.413043 -58.815899 
L 268.677866 -58.522887 
L 267.942688 -58.522887 
L 267.20751 -58.677103 
L 266.472332 -58.677103 
L 265.737154 -58.218309 
L 265.001976 -58.677103 
L 264.266798 -58.83132 
L 263.531621 -58.985537 
L 262.796443 -58.985537 
L 262.061265 -58.985537 
L 261.326087 -58.677103 
L 260.590909 -57.99598 
L 259.855731 -57.680626 
L 259.120553 -57.652664 
L 258.385375 -58.137345 
L 257.650198 -58.379685 
L 256.91502 -58.622026 
L 256.179842 -58.985537 
L 255.444664 -59.470218 
L 254.709486 -59.833729 
L 253.974308 -59.594418 
L 253.23913 -59.833729 
L 252.503953 -60.19724 
L 251.768775 -60.439581 
L 251.033597 -60.32144 
L 250.298419 -61.045432 
L 249.563241 -62.014795 
L 248.828063 -62.257135 
L 248.092885 -62.987186 
L 247.357708 -63.468838 
L 246.62253 -64.438201 
L 245.887352 -64.680541 
L 245.152174 -64.925911 
L 244.416996 -64.801712 
L 243.681818 -65.410592 
L 242.94664 -66.376925 
L 242.211462 -66.498096 
L 241.476285 -66.449628 
L 240.741107 -67.693643 
L 240.005929 -66.831314 
L 239.270751 -67.258061 
L 238.535573 -68.424325 
L 237.800395 -68.636373 
L 237.065217 -68.265757 
L 236.33004 -69.463204 
L 235.594862 -69.63506 
L 234.859684 -71.048714 
L 234.124506 -71.805018 
L 233.389328 -72.464723 
L 232.65415 -73.687534 
L 231.918972 -74.351951 
L 231.183794 -75.478162 
L 230.448617 -75.195431 
L 229.713439 -76.519553 
L 228.978261 -75.859848 
L 228.243083 -76.140223 
L 227.507905 -77.459633 
L 226.772727 -79.436391 
L 226.037549 -80.100809 
L 225.302372 -80.758158 
L 224.567194 -80.755801 
L 223.832016 -81.893793 
L 223.096838 -82.266055 
L 222.36166 -83.396977 
L 221.626482 -84.242814 
L 220.891304 -84.150926 
L 220.156126 -86.318528 
L 219.420949 -83.984884 
L 218.685771 -83.629982 
L 217.950593 -85.862067 
L 217.215415 -85.859835 
L 216.480237 -86.752669 
L 215.745059 -85.859835 
L 215.009881 -85.453372 
L 214.274704 -85.027156 
L 213.539526 -86.469082 
L 212.804348 -86.471203 
L 212.06917 -86.382143 
L 211.333992 -84.772698 
L 210.598814 -86.466962 
L 209.863636 -86.469082 
L 209.128458 -87.82619 
L 208.393281 -87.993708 
L 207.658103 -87.060696 
L 206.922925 -87.315154 
L 206.187747 -89.013659 
L 205.452569 -89.607393 
L 204.717391 -89.350815 
L 203.982213 -89.777031 
L 203.247036 -92.325849 
L 202.511858 -94.278811 
L 201.77668 -94.953124 
L 201.041502 -96.221171 
L 200.306324 -97.665218 
L 199.571146 -98.426471 
L 198.835968 -98.352254 
L 198.100791 -99.022326 
L 197.365613 -99.785699 
L 196.630435 -100.292493 
L 195.895257 -101.569022 
L 195.160079 -103.010949 
L 194.424901 -104.365936 
L 193.689723 -105.977501 
L 192.954545 -106.575476 
L 192.219368 -109.368149 
L 191.48419 -111.49075 
L 190.749012 -113.100194 
L 190.013834 -114.461543 
L 189.278656 -117.345396 
L 188.543478 -116.9213 
L 187.8083 -120.481586 
L 187.073123 -120.063852 
L 186.337945 -119.889972 
L 185.602767 -120.140189 
L 184.867589 -120.649104 
L 184.132411 -119.383178 
L 183.397233 -120.988381 
L 182.662055 -122.177971 
L 181.926877 -123.448138 
L 181.1917 -124.896426 
L 180.456522 -126.166594 
L 179.721344 -127.773918 
L 178.986166 -127.271364 
L 178.250988 -129.809579 
L 177.51581 -131.764662 
L 176.780632 -134.309238 
L 176.045455 -136.344899 
L 175.310277 -136.344899 
L 174.575099 -140.074824 
L 173.839921 -141.264414 
L 173.104743 -145.420555 
L 172.369565 -146.096988 
L 171.634387 -147.543156 
L 170.899209 -146.688602 
L 170.164032 -149.235299 
L 169.428854 -153.306621 
L 168.693676 -155.766379 
L 167.958498 -155.768499 
L 167.22332 -157.121366 
L 166.488142 -157.377944 
L 165.752964 -159.241846 
L 165.017787 -160.93823 
L 164.282609 -164.2483 
L 163.547431 -167.810707 
L 162.812253 -169.434995 
L 162.077075 -173.067377 
L 161.341897 -174.594123 
L 160.606719 -177.569157 
L 159.871542 -180.561155 
L 159.136364 -184.520092 
L 158.401186 -187.317005 
L 157.666008 -190.200858 
L 156.93083 -196.903697 
L 156.195652 -198.780322 
L 155.460474 -201.827452 
L 154.725296 -204.450486 
L 153.990119 -206.403448 
L 153.254941 -203.432655 
L 152.519763 -208.099833 
L 151.784585 -207.762676 
L 151.049407 -210.048554 
L 150.314229 -216.581754 
L 149.579051 -218.532596 
L 148.843874 -218.787053 
L 148.108696 -224.896157 
L 147.373518 -227.436492 
L 146.63834 -228.539142 
L 145.903162 -231.764393 
L 145.167984 -233.036681 
L 144.432806 -237.194943 
L 143.697628 -238.634749 
L 142.962451 -240.75735 
L 142.227273 -241.268385 
L 141.492095 -241.266265 
L 140.756917 -244.063179 
L 140.021739 -243.299806 
L 139.286561 -245.842262 
L 138.551383 -246.620478 
L 137.816206 -251.44245 
L 137.081028 -249.743945 
L 136.34585 -249.578548 
L 135.610672 -246.440237 
L 134.875494 -247.033971 
L 134.140316 -247.284188 
L 133.405138 -247.20573 
L 132.66996 -247.209971 
L 131.934783 -252.203702 
L 131.199605 -251.870787 
L 130.464427 -253.56081 
L 129.729249 -257.125337 
L 128.994071 -258.99348 
L 128.258893 -264.506729 
L 127.523715 -262.810345 
L 126.788538 -264.926584 
L 126.05336 -266.455451 
L 125.318182 -265.522439 
L 124.583004 -264.846006 
L 123.847826 -264.604271 
L 123.112648 -265.626343 
L 122.37747 -261.372659 
L 121.642292 -262.473189 
L 120.907115 -256.957819 
L 120.171937 -255.004857 
L 119.436759 -252.884377 
L 118.701581 -258.319168 
L 117.966403 -260.520226 
L 117.231225 -259.841672 
L 116.496047 -255.596471 
L 115.76087 -255.433194 
L 115.025692 -256.788181 
L 114.290514 -258.569384 
L 113.555336 -260.176708 
L 112.820158 -260.944322 
L 112.08498 -262.388369 
L 111.349802 -264.419789 
L 110.614625 -268.575931 
L 109.879447 -271.205326 
L 109.144269 -274.852553 
L 108.409091 -276.381419 
L 107.673913 -279.006573 
L 106.938735 -282.153366 
L 106.203557 -285.310761 
L 105.468379 -286.131387 
L 104.733202 -287.072881 
L 103.998024 -288.769265 
L 103.262846 -289.297264 
L 102.527668 -288.762903 
L 101.79249 -296.394512 
L 101.057312 -297.26815 
L 100.322134 -297.592583 
L 99.586957 -301.657544 
L 98.851779 -304.2 
L 98.116601 -302.249158 
L 97.381423 -302.25552 
L 96.646245 -300.635473 
L 95.911067 -300.465834 
L 95.175889 -299.793642 
L 94.440711 -302.333977 
L 93.705534 -302.164339 
L 92.970356 -300.900533 
L 92.235178 -296.907668 
L 91.5 -295.550561 
L 90.764822 -293.003864 
L 90.029644 -291.067865 
L 89.294466 -290.883384 
L 88.559289 -288.258229 
L 87.824111 -285.465556 
L 87.088933 -278.164743 
L 86.353755 -276.892455 
L 85.618577 -275.204552 
L 84.883399 -272.483976 
L 84.148221 -270.702773 
L 83.413043 -268.073377 
L 82.677866 -257.381915 
L 81.942688 -252.460281 
L 81.20751 -251.016233 
L 80.472332 -252.292763 
L 79.737154 -253.056136 
L 79.001976 -248.817295 
L 78.266798 -246.707417 
L 77.531621 -246.370261 
L 76.796443 -242.114457 
L 76.061265 -237.8014 
L 75.326087 -237.553304 
L 74.590909 -233.630415 
L 73.855731 -229.98531 
L 73.120553 -226.76218 
L 72.385375 -224.302423 
L 71.650198 -219.633125 
L 70.91502 -213.532503 
L 70.179842 -209.121904 
L 69.444664 -201.579356 
L 68.709486 -193.25435 
L 67.974308 -183.500141 
L 67.23913 -174.596244 
L 66.503953 -164.33524 
L 65.768775 -158.987388 
L 65.033597 -151.35578 
L 64.298419 -141.853907 
L 63.563241 -134.818154 
L 62.828063 -126.673389 
L 62.092885 -119.122358 
L 61.357708 -111.49075 
L 60.62253 -101.649601 
L 59.887352 -89.185417 
L 59.152174 -76.797572 
L 58.416996 -60.681921 
L 57.681818 -52.2 
z
" id="m3bcadf22ee" style="stroke:#ff7f0e;stroke-opacity:0.2;"/>
    </defs>
    <g clip-path="url(#peeb9e2a6f9)">
     <use style="fill:#ff7f0e;fill-opacity:0.2;stroke:#ff7f0e;stroke-opacity:0.2;" x="0" xlink:href="#m3bcadf22ee" y="360"/>
    </g>
   </g>
   <g id="matplotlib.axis_1">
    <g id="xtick_1">
     <g id="line2d_1">
      <defs>
       <path d="M 0 0 
L 0 3.5 
" id="mf378c1b8e0" style="stroke:#000000;stroke-width:0.8;"/>
      </defs>
      <g>
       <use style="stroke:#000000;stroke-width:0.8;" x="57.681818" xlink:href="#mf378c1b8e0" y="320.4"/>
      </g>
     </g>
     <g id="text_1">
      <!-- 0 -->
      <defs>
       <path d="M 31.78125 66.40625 
Q 24.171875 66.40625 20.328125 58.90625 
Q 16.5 51.421875 16.5 36.375 
Q 16.5 21.390625 20.328125 13.890625 
Q 24.171875 6.390625 31.78125 6.390625 
Q 39.453125 6.390625 43.28125 13.890625 
Q 47.125 21.390625 47.125 36.375 
Q 47.125 51.421875 43.28125 58.90625 
Q 39.453125 66.40625 31.78125 66.40625 
z
M 31.78125 74.21875 
Q 44.046875 74.21875 50.515625 64.515625 
Q 56.984375 54.828125 56.984375 36.375 
Q 56.984375 17.96875 50.515625 8.265625 
Q 44.046875 -1.421875 31.78125 -1.421875 
Q 19.53125 -1.421875 13.0625 8.265625 
Q 6.59375 17.96875 6.59375 36.375 
Q 6.59375 54.828125 13.0625 64.515625 
Q 19.53125 74.21875 31.78125 74.21875 
z
" id="DejaVuSans-48"/>
      </defs>
      <g transform="translate(54.500568 334.998438)scale(0.1 -0.1)">
       <use xlink:href="#DejaVuSans-48"/>
      </g>
     </g>
    </g>
    <g id="xtick_2">
     <g id="line2d_2">
      <g>
       <use style="stroke:#000000;stroke-width:0.8;" x="94.440711" xlink:href="#mf378c1b8e0" y="320.4"/>
      </g>
     </g>
     <g id="text_2">
      <!-- 50 -->
      <defs>
       <path d="M 10.796875 72.90625 
L 49.515625 72.90625 
L 49.515625 64.59375 
L 19.828125 64.59375 
L 19.828125 46.734375 
Q 21.96875 47.46875 24.109375 47.828125 
Q 26.265625 48.1875 28.421875 48.1875 
Q 40.625 48.1875 47.75 41.5 
Q 54.890625 34.8125 54.890625 23.390625 
Q 54.890625 11.625 47.5625 5.09375 
Q 40.234375 -1.421875 26.90625 -1.421875 
Q 22.3125 -1.421875 17.546875 -0.640625 
Q 12.796875 0.140625 7.71875 1.703125 
L 7.71875 11.625 
Q 12.109375 9.234375 16.796875 8.0625 
Q 21.484375 6.890625 26.703125 6.890625 
Q 35.15625 6.890625 40.078125 11.328125 
Q 45.015625 15.765625 45.015625 23.390625 
Q 45.015625 31 40.078125 35.4375 
Q 35.15625 39.890625 26.703125 39.890625 
Q 22.75 39.890625 18.8125 39.015625 
Q 14.890625 38.140625 10.796875 36.28125 
z
" id="DejaVuSans-53"/>
      </defs>
      <g transform="translate(88.078211 334.998438)scale(0.1 -0.1)">
       <use xlink:href="#DejaVuSans-53"/>
       <use x="63.623047" xlink:href="#DejaVuSans-48"/>
      </g>
     </g>
    </g>
    <g id="xtick_3">
     <g id="line2d_3">
      <g>
       <use style="stroke:#000000;stroke-width:0.8;" x="131.199605" xlink:href="#mf378c1b8e0" y="320.4"/>
      </g>
     </g>
     <g id="text_3">
      <!-- 100 -->
      <defs>
       <path d="M 12.40625 8.296875 
L 28.515625 8.296875 
L 28.515625 63.921875 
L 10.984375 60.40625 
L 10.984375 69.390625 
L 28.421875 72.90625 
L 38.28125 72.90625 
L 38.28125 8.296875 
L 54.390625 8.296875 
L 54.390625 0 
L 12.40625 0 
z
" id="DejaVuSans-49"/>
      </defs>
      <g transform="translate(121.655855 334.998438)scale(0.1 -0.1)">
       <use xlink:href="#DejaVuSans-49"/>
       <use x="63.623047" xlink:href="#DejaVuSans-48"/>
       <use x="127.246094" xlink:href="#DejaVuSans-48"/>
      </g>
     </g>
    </g>
    <g id="xtick_4">
     <g id="line2d_4">
      <g>
       <use style="stroke:#000000;stroke-width:0.8;" x="167.958498" xlink:href="#mf378c1b8e0" y="320.4"/>
      </g>
     </g>
     <g id="text_4">
      <!-- 150 -->
      <g transform="translate(158.414748 334.998438)scale(0.1 -0.1)">
       <use xlink:href="#DejaVuSans-49"/>
       <use x="63.623047" xlink:href="#DejaVuSans-53"/>
       <use x="127.246094" xlink:href="#DejaVuSans-48"/>
      </g>
     </g>
    </g>
    <g id="xtick_5">
     <g id="line2d_5">
      <g>
       <use style="stroke:#000000;stroke-width:0.8;" x="204.717391" xlink:href="#mf378c1b8e0" y="320.4"/>
      </g>
     </g>
     <g id="text_5">
      <!-- 200 -->
      <defs>
       <path d="M 19.1875 8.296875 
L 53.609375 8.296875 
L 53.609375 0 
L 7.328125 0 
L 7.328125 8.296875 
Q 12.9375 14.109375 22.625 23.890625 
Q 32.328125 33.6875 34.8125 36.53125 
Q 39.546875 41.84375 41.421875 45.53125 
Q 43.3125 49.21875 43.3125 52.78125 
Q 43.3125 58.59375 39.234375 62.25 
Q 35.15625 65.921875 28.609375 65.921875 
Q 23.96875 65.921875 18.8125 64.3125 
Q 13.671875 62.703125 7.8125 59.421875 
L 7.8125 69.390625 
Q 13.765625 71.78125 18.9375 73 
Q 24.125 74.21875 28.421875 74.21875 
Q 39.75 74.21875 46.484375 68.546875 
Q 53.21875 62.890625 53.21875 53.421875 
Q 53.21875 48.921875 51.53125 44.890625 
Q 49.859375 40.875 45.40625 35.40625 
Q 44.1875 33.984375 37.640625 27.21875 
Q 31.109375 20.453125 19.1875 8.296875 
z
" id="DejaVuSans-50"/>
      </defs>
      <g transform="translate(195.173641 334.998438)scale(0.1 -0.1)">
       <use xlink:href="#DejaVuSans-50"/>
       <use x="63.623047" xlink:href="#DejaVuSans-48"/>
       <use x="127.246094" xlink:href="#DejaVuSans-48"/>
      </g>
     </g>
    </g>
    <g id="xtick_6">
     <g id="line2d_6">
      <g>
       <use style="stroke:#000000;stroke-width:0.8;" x="241.476285" xlink:href="#mf378c1b8e0" y="320.4"/>
      </g>
     </g>
     <g id="text_6">
      <!-- 250 -->
      <g transform="translate(231.932535 334.998438)scale(0.1 -0.1)">
       <use xlink:href="#DejaVuSans-50"/>
       <use x="63.623047" xlink:href="#DejaVuSans-53"/>
       <use x="127.246094" xlink:href="#DejaVuSans-48"/>
      </g>
     </g>
    </g>
    <g id="xtick_7">
     <g id="line2d_7">
      <g>
       <use style="stroke:#000000;stroke-width:0.8;" x="278.235178" xlink:href="#mf378c1b8e0" y="320.4"/>
      </g>
     </g>
     <g id="text_7">
      <!-- 300 -->
      <defs>
       <path d="M 40.578125 39.3125 
Q 47.65625 37.796875 51.625 33 
Q 55.609375 28.21875 55.609375 21.1875 
Q 55.609375 10.40625 48.1875 4.484375 
Q 40.765625 -1.421875 27.09375 -1.421875 
Q 22.515625 -1.421875 17.65625 -0.515625 
Q 12.796875 0.390625 7.625 2.203125 
L 7.625 11.71875 
Q 11.71875 9.328125 16.59375 8.109375 
Q 21.484375 6.890625 26.8125 6.890625 
Q 36.078125 6.890625 40.9375 10.546875 
Q 45.796875 14.203125 45.796875 21.1875 
Q 45.796875 27.640625 41.28125 31.265625 
Q 36.765625 34.90625 28.71875 34.90625 
L 20.21875 34.90625 
L 20.21875 43.015625 
L 29.109375 43.015625 
Q 36.375 43.015625 40.234375 45.921875 
Q 44.09375 48.828125 44.09375 54.296875 
Q 44.09375 59.90625 40.109375 62.90625 
Q 36.140625 65.921875 28.71875 65.921875 
Q 24.65625 65.921875 20.015625 65.03125 
Q 15.375 64.15625 9.8125 62.3125 
L 9.8125 71.09375 
Q 15.4375 72.65625 20.34375 73.4375 
Q 25.25 74.21875 29.59375 74.21875 
Q 40.828125 74.21875 47.359375 69.109375 
Q 53.90625 64.015625 53.90625 55.328125 
Q 53.90625 49.265625 50.4375 45.09375 
Q 46.96875 40.921875 40.578125 39.3125 
z
" id="DejaVuSans-51"/>
      </defs>
      <g transform="translate(268.691428 334.998438)scale(0.1 -0.1)">
       <use xlink:href="#DejaVuSans-51"/>
       <use x="63.623047" xlink:href="#DejaVuSans-48"/>
       <use x="127.246094" xlink:href="#DejaVuSans-48"/>
      </g>
     </g>
    </g>
    <g id="xtick_8">
     <g id="line2d_8">
      <g>
       <use style="stroke:#000000;stroke-width:0.8;" x="314.994071" xlink:href="#mf378c1b8e0" y="320.4"/>
      </g>
     </g>
     <g id="text_8">
      <!-- 350 -->
      <g transform="translate(305.450321 334.998438)scale(0.1 -0.1)">
       <use xlink:href="#DejaVuSans-51"/>
       <use x="63.623047" xlink:href="#DejaVuSans-53"/>
       <use x="127.246094" xlink:href="#DejaVuSans-48"/>
      </g>
     </g>
    </g>
    <g id="text_9">
     <!-- Temps -->
     <defs>
      <path d="M -0.296875 72.90625 
L 61.375 72.90625 
L 61.375 64.59375 
L 35.5 64.59375 
L 35.5 0 
L 25.59375 0 
L 25.59375 64.59375 
L -0.296875 64.59375 
z
" id="DejaVuSans-84"/>
      <path d="M 56.203125 29.59375 
L 56.203125 25.203125 
L 14.890625 25.203125 
Q 15.484375 15.921875 20.484375 11.0625 
Q 25.484375 6.203125 34.421875 6.203125 
Q 39.59375 6.203125 44.453125 7.46875 
Q 49.3125 8.734375 54.109375 11.28125 
L 54.109375 2.78125 
Q 49.265625 0.734375 44.1875 -0.34375 
Q 39.109375 -1.421875 33.890625 -1.421875 
Q 20.796875 -1.421875 13.15625 6.1875 
Q 5.515625 13.8125 5.515625 26.8125 
Q 5.515625 40.234375 12.765625 48.109375 
Q 20.015625 56 32.328125 56 
Q 43.359375 56 49.78125 48.890625 
Q 56.203125 41.796875 56.203125 29.59375 
z
M 47.21875 32.234375 
Q 47.125 39.59375 43.09375 43.984375 
Q 39.0625 48.390625 32.421875 48.390625 
Q 24.90625 48.390625 20.390625 44.140625 
Q 15.875 39.890625 15.1875 32.171875 
z
" id="DejaVuSans-101"/>
      <path d="M 52 44.1875 
Q 55.375 50.25 60.0625 53.125 
Q 64.75 56 71.09375 56 
Q 79.640625 56 84.28125 50.015625 
Q 88.921875 44.046875 88.921875 33.015625 
L 88.921875 0 
L 79.890625 0 
L 79.890625 32.71875 
Q 79.890625 40.578125 77.09375 44.375 
Q 74.3125 48.1875 68.609375 48.1875 
Q 61.625 48.1875 57.5625 43.546875 
Q 53.515625 38.921875 53.515625 30.90625 
L 53.515625 0 
L 44.484375 0 
L 44.484375 32.71875 
Q 44.484375 40.625 41.703125 44.40625 
Q 38.921875 48.1875 33.109375 48.1875 
Q 26.21875 48.1875 22.15625 43.53125 
Q 18.109375 38.875 18.109375 30.90625 
L 18.109375 0 
L 9.078125 0 
L 9.078125 54.6875 
L 18.109375 54.6875 
L 18.109375 46.1875 
Q 21.1875 51.21875 25.484375 53.609375 
Q 29.78125 56 35.6875 56 
Q 41.65625 56 45.828125 52.96875 
Q 50 49.953125 52 44.1875 
z
" id="DejaVuSans-109"/>
      <path d="M 18.109375 8.203125 
L 18.109375 -20.796875 
L 9.078125 -20.796875 
L 9.078125 54.6875 
L 18.109375 54.6875 
L 18.109375 46.390625 
Q 20.953125 51.265625 25.265625 53.625 
Q 29.59375 56 35.59375 56 
Q 45.5625 56 51.78125 48.09375 
Q 58.015625 40.1875 58.015625 27.296875 
Q 58.015625 14.40625 51.78125 6.484375 
Q 45.5625 -1.421875 35.59375 -1.421875 
Q 29.59375 -1.421875 25.265625 0.953125 
Q 20.953125 3.328125 18.109375 8.203125 
z
M 48.6875 27.296875 
Q 48.6875 37.203125 44.609375 42.84375 
Q 40.53125 48.484375 33.40625 48.484375 
Q 26.265625 48.484375 22.1875 42.84375 
Q 18.109375 37.203125 18.109375 27.296875 
Q 18.109375 17.390625 22.1875 11.75 
Q 26.265625 6.109375 33.40625 6.109375 
Q 40.53125 6.109375 44.609375 11.75 
Q 48.6875 17.390625 48.6875 27.296875 
z
" id="DejaVuSans-112"/>
      <path d="M 44.28125 53.078125 
L 44.28125 44.578125 
Q 40.484375 46.53125 36.375 47.5 
Q 32.28125 48.484375 27.875 48.484375 
Q 21.1875 48.484375 17.84375 46.4375 
Q 14.5 44.390625 14.5 40.28125 
Q 14.5 37.15625 16.890625 35.375 
Q 19.28125 33.59375 26.515625 31.984375 
L 29.59375 31.296875 
Q 39.15625 29.25 43.1875 25.515625 
Q 47.21875 21.78125 47.21875 15.09375 
Q 47.21875 7.46875 41.1875 3.015625 
Q 35.15625 -1.421875 24.609375 -1.421875 
Q 20.21875 -1.421875 15.453125 -0.5625 
Q 10.6875 0.296875 5.421875 2 
L 5.421875 11.28125 
Q 10.40625 8.6875 15.234375 7.390625 
Q 20.0625 6.109375 24.8125 6.109375 
Q 31.15625 6.109375 34.5625 8.28125 
Q 37.984375 10.453125 37.984375 14.40625 
Q 37.984375 18.0625 35.515625 20.015625 
Q 33.0625 21.96875 24.703125 23.78125 
L 21.578125 24.515625 
Q 13.234375 26.265625 9.515625 29.90625 
Q 5.8125 33.546875 5.8125 39.890625 
Q 5.8125 47.609375 11.28125 51.796875 
Q 16.75 56 26.8125 56 
Q 31.78125 56 36.171875 55.265625 
Q 40.578125 54.546875 44.28125 53.078125 
z
" id="DejaVuSans-115"/>
     </defs>
     <g transform="translate(167.733594 348.676562)scale(0.1 -0.1)">
      <use xlink:href="#DejaVuSans-84"/>
      <use x="60.818359" xlink:href="#DejaVuSans-101"/>
      <use x="122.341797" xlink:href="#DejaVuSans-109"/>
      <use x="219.753906" xlink:href="#DejaVuSans-112"/>
      <use x="283.230469" xlink:href="#DejaVuSans-115"/>
     </g>
    </g>
   </g>
   <g id="matplotlib.axis_2">
    <g id="ytick_1">
     <g id="line2d_9">
      <defs>
       <path d="M 0 0 
L -3.5 0 
" id="md3cf8640a0" style="stroke:#000000;stroke-width:0.8;"/>
      </defs>
      <g>
       <use style="stroke:#000000;stroke-width:0.8;" x="45" xlink:href="#md3cf8640a0" y="307.8"/>
      </g>
     </g>
     <g id="text_10">
      <!-- 0 -->
      <g transform="translate(31.6375 311.599219)scale(0.1 -0.1)">
       <use xlink:href="#DejaVuSans-48"/>
      </g>
     </g>
    </g>
    <g id="ytick_2">
     <g id="line2d_10">
      <g>
       <use style="stroke:#000000;stroke-width:0.8;" x="45" xlink:href="#md3cf8640a0" y="273.872315"/>
      </g>
     </g>
     <g id="text_11">
      <!-- 20 -->
      <g transform="translate(25.275 277.671534)scale(0.1 -0.1)">
       <use xlink:href="#DejaVuSans-50"/>
       <use x="63.623047" xlink:href="#DejaVuSans-48"/>
      </g>
     </g>
    </g>
    <g id="ytick_3">
     <g id="line2d_11">
      <g>
       <use style="stroke:#000000;stroke-width:0.8;" x="45" xlink:href="#md3cf8640a0" y="239.94463"/>
      </g>
     </g>
     <g id="text_12">
      <!-- 40 -->
      <defs>
       <path d="M 37.796875 64.3125 
L 12.890625 25.390625 
L 37.796875 25.390625 
z
M 35.203125 72.90625 
L 47.609375 72.90625 
L 47.609375 25.390625 
L 58.015625 25.390625 
L 58.015625 17.1875 
L 47.609375 17.1875 
L 47.609375 0 
L 37.796875 0 
L 37.796875 17.1875 
L 4.890625 17.1875 
L 4.890625 26.703125 
z
" id="DejaVuSans-52"/>
      </defs>
      <g transform="translate(25.275 243.743849)scale(0.1 -0.1)">
       <use xlink:href="#DejaVuSans-52"/>
       <use x="63.623047" xlink:href="#DejaVuSans-48"/>
      </g>
     </g>
    </g>
    <g id="ytick_4">
     <g id="line2d_12">
      <g>
       <use style="stroke:#000000;stroke-width:0.8;" x="45" xlink:href="#md3cf8640a0" y="206.016945"/>
      </g>
     </g>
     <g id="text_13">
      <!-- 60 -->
      <defs>
       <path d="M 33.015625 40.375 
Q 26.375 40.375 22.484375 35.828125 
Q 18.609375 31.296875 18.609375 23.390625 
Q 18.609375 15.53125 22.484375 10.953125 
Q 26.375 6.390625 33.015625 6.390625 
Q 39.65625 6.390625 43.53125 10.953125 
Q 47.40625 15.53125 47.40625 23.390625 
Q 47.40625 31.296875 43.53125 35.828125 
Q 39.65625 40.375 33.015625 40.375 
z
M 52.59375 71.296875 
L 52.59375 62.3125 
Q 48.875 64.0625 45.09375 64.984375 
Q 41.3125 65.921875 37.59375 65.921875 
Q 27.828125 65.921875 22.671875 59.328125 
Q 17.53125 52.734375 16.796875 39.40625 
Q 19.671875 43.65625 24.015625 45.921875 
Q 28.375 48.1875 33.59375 48.1875 
Q 44.578125 48.1875 50.953125 41.515625 
Q 57.328125 34.859375 57.328125 23.390625 
Q 57.328125 12.15625 50.6875 5.359375 
Q 44.046875 -1.421875 33.015625 -1.421875 
Q 20.359375 -1.421875 13.671875 8.265625 
Q 6.984375 17.96875 6.984375 36.375 
Q 6.984375 53.65625 15.1875 63.9375 
Q 23.390625 74.21875 37.203125 74.21875 
Q 40.921875 74.21875 44.703125 73.484375 
Q 48.484375 72.75 52.59375 71.296875 
z
" id="DejaVuSans-54"/>
      </defs>
      <g transform="translate(25.275 209.816164)scale(0.1 -0.1)">
       <use xlink:href="#DejaVuSans-54"/>
       <use x="63.623047" xlink:href="#DejaVuSans-48"/>
      </g>
     </g>
    </g>
    <g id="ytick_5">
     <g id="line2d_13">
      <g>
       <use style="stroke:#000000;stroke-width:0.8;" x="45" xlink:href="#md3cf8640a0" y="172.08926"/>
      </g>
     </g>
     <g id="text_14">
      <!-- 80 -->
      <defs>
       <path d="M 31.78125 34.625 
Q 24.75 34.625 20.71875 30.859375 
Q 16.703125 27.09375 16.703125 20.515625 
Q 16.703125 13.921875 20.71875 10.15625 
Q 24.75 6.390625 31.78125 6.390625 
Q 38.8125 6.390625 42.859375 10.171875 
Q 46.921875 13.96875 46.921875 20.515625 
Q 46.921875 27.09375 42.890625 30.859375 
Q 38.875 34.625 31.78125 34.625 
z
M 21.921875 38.8125 
Q 15.578125 40.375 12.03125 44.71875 
Q 8.5 49.078125 8.5 55.328125 
Q 8.5 64.0625 14.71875 69.140625 
Q 20.953125 74.21875 31.78125 74.21875 
Q 42.671875 74.21875 48.875 69.140625 
Q 55.078125 64.0625 55.078125 55.328125 
Q 55.078125 49.078125 51.53125 44.71875 
Q 48 40.375 41.703125 38.8125 
Q 48.828125 37.15625 52.796875 32.3125 
Q 56.78125 27.484375 56.78125 20.515625 
Q 56.78125 9.90625 50.3125 4.234375 
Q 43.84375 -1.421875 31.78125 -1.421875 
Q 19.734375 -1.421875 13.25 4.234375 
Q 6.78125 9.90625 6.78125 20.515625 
Q 6.78125 27.484375 10.78125 32.3125 
Q 14.796875 37.15625 21.921875 38.8125 
z
M 18.3125 54.390625 
Q 18.3125 48.734375 21.84375 45.5625 
Q 25.390625 42.390625 31.78125 42.390625 
Q 38.140625 42.390625 41.71875 45.5625 
Q 45.3125 48.734375 45.3125 54.390625 
Q 45.3125 60.0625 41.71875 63.234375 
Q 38.140625 66.40625 31.78125 66.40625 
Q 25.390625 66.40625 21.84375 63.234375 
Q 18.3125 60.0625 18.3125 54.390625 
z
" id="DejaVuSans-56"/>
      </defs>
      <g transform="translate(25.275 175.888479)scale(0.1 -0.1)">
       <use xlink:href="#DejaVuSans-56"/>
       <use x="63.623047" xlink:href="#DejaVuSans-48"/>
      </g>
     </g>
    </g>
    <g id="ytick_6">
     <g id="line2d_14">
      <g>
       <use style="stroke:#000000;stroke-width:0.8;" x="45" xlink:href="#md3cf8640a0" y="138.161576"/>
      </g>
     </g>
     <g id="text_15">
      <!-- 100 -->
      <g transform="translate(18.9125 141.960794)scale(0.1 -0.1)">
       <use xlink:href="#DejaVuSans-49"/>
       <use x="63.623047" xlink:href="#DejaVuSans-48"/>
       <use x="127.246094" xlink:href="#DejaVuSans-48"/>
      </g>
     </g>
    </g>
    <g id="ytick_7">
     <g id="line2d_15">
      <g>
       <use style="stroke:#000000;stroke-width:0.8;" x="45" xlink:href="#md3cf8640a0" y="104.233891"/>
      </g>
     </g>
     <g id="text_16">
      <!-- 120 -->
      <g transform="translate(18.9125 108.033109)scale(0.1 -0.1)">
       <use xlink:href="#DejaVuSans-49"/>
       <use x="63.623047" xlink:href="#DejaVuSans-50"/>
       <use x="127.246094" xlink:href="#DejaVuSans-48"/>
      </g>
     </g>
    </g>
    <g id="ytick_8">
     <g id="line2d_16">
      <g>
       <use style="stroke:#000000;stroke-width:0.8;" x="45" xlink:href="#md3cf8640a0" y="70.306206"/>
      </g>
     </g>
     <g id="text_17">
      <!-- 140 -->
      <g transform="translate(18.9125 74.105425)scale(0.1 -0.1)">
       <use xlink:href="#DejaVuSans-49"/>
       <use x="63.623047" xlink:href="#DejaVuSans-52"/>
       <use x="127.246094" xlink:href="#DejaVuSans-48"/>
      </g>
     </g>
    </g>
    <g id="text_18">
     <!-- Nombre d'agents -->
     <defs>
      <path d="M 9.8125 72.90625 
L 23.09375 72.90625 
L 55.421875 11.921875 
L 55.421875 72.90625 
L 64.984375 72.90625 
L 64.984375 0 
L 51.703125 0 
L 19.390625 60.984375 
L 19.390625 0 
L 9.8125 0 
z
" id="DejaVuSans-78"/>
      <path d="M 30.609375 48.390625 
Q 23.390625 48.390625 19.1875 42.75 
Q 14.984375 37.109375 14.984375 27.296875 
Q 14.984375 17.484375 19.15625 11.84375 
Q 23.34375 6.203125 30.609375 6.203125 
Q 37.796875 6.203125 41.984375 11.859375 
Q 46.1875 17.53125 46.1875 27.296875 
Q 46.1875 37.015625 41.984375 42.703125 
Q 37.796875 48.390625 30.609375 48.390625 
z
M 30.609375 56 
Q 42.328125 56 49.015625 48.375 
Q 55.71875 40.765625 55.71875 27.296875 
Q 55.71875 13.875 49.015625 6.21875 
Q 42.328125 -1.421875 30.609375 -1.421875 
Q 18.84375 -1.421875 12.171875 6.21875 
Q 5.515625 13.875 5.515625 27.296875 
Q 5.515625 40.765625 12.171875 48.375 
Q 18.84375 56 30.609375 56 
z
" id="DejaVuSans-111"/>
      <path d="M 48.6875 27.296875 
Q 48.6875 37.203125 44.609375 42.84375 
Q 40.53125 48.484375 33.40625 48.484375 
Q 26.265625 48.484375 22.1875 42.84375 
Q 18.109375 37.203125 18.109375 27.296875 
Q 18.109375 17.390625 22.1875 11.75 
Q 26.265625 6.109375 33.40625 6.109375 
Q 40.53125 6.109375 44.609375 11.75 
Q 48.6875 17.390625 48.6875 27.296875 
z
M 18.109375 46.390625 
Q 20.953125 51.265625 25.265625 53.625 
Q 29.59375 56 35.59375 56 
Q 45.5625 56 51.78125 48.09375 
Q 58.015625 40.1875 58.015625 27.296875 
Q 58.015625 14.40625 51.78125 6.484375 
Q 45.5625 -1.421875 35.59375 -1.421875 
Q 29.59375 -1.421875 25.265625 0.953125 
Q 20.953125 3.328125 18.109375 8.203125 
L 18.109375 0 
L 9.078125 0 
L 9.078125 75.984375 
L 18.109375 75.984375 
z
" id="DejaVuSans-98"/>
      <path d="M 41.109375 46.296875 
Q 39.59375 47.171875 37.8125 47.578125 
Q 36.03125 48 33.890625 48 
Q 26.265625 48 22.1875 43.046875 
Q 18.109375 38.09375 18.109375 28.8125 
L 18.109375 0 
L 9.078125 0 
L 9.078125 54.6875 
L 18.109375 54.6875 
L 18.109375 46.1875 
Q 20.953125 51.171875 25.484375 53.578125 
Q 30.03125 56 36.53125 56 
Q 37.453125 56 38.578125 55.875 
Q 39.703125 55.765625 41.0625 55.515625 
z
" id="DejaVuSans-114"/>
      <path id="DejaVuSans-32"/>
      <path d="M 45.40625 46.390625 
L 45.40625 75.984375 
L 54.390625 75.984375 
L 54.390625 0 
L 45.40625 0 
L 45.40625 8.203125 
Q 42.578125 3.328125 38.25 0.953125 
Q 33.9375 -1.421875 27.875 -1.421875 
Q 17.96875 -1.421875 11.734375 6.484375 
Q 5.515625 14.40625 5.515625 27.296875 
Q 5.515625 40.1875 11.734375 48.09375 
Q 17.96875 56 27.875 56 
Q 33.9375 56 38.25 53.625 
Q 42.578125 51.265625 45.40625 46.390625 
z
M 14.796875 27.296875 
Q 14.796875 17.390625 18.875 11.75 
Q 22.953125 6.109375 30.078125 6.109375 
Q 37.203125 6.109375 41.296875 11.75 
Q 45.40625 17.390625 45.40625 27.296875 
Q 45.40625 37.203125 41.296875 42.84375 
Q 37.203125 48.484375 30.078125 48.484375 
Q 22.953125 48.484375 18.875 42.84375 
Q 14.796875 37.203125 14.796875 27.296875 
z
" id="DejaVuSans-100"/>
      <path d="M 17.921875 72.90625 
L 17.921875 45.796875 
L 9.625 45.796875 
L 9.625 72.90625 
z
" id="DejaVuSans-39"/>
      <path d="M 34.28125 27.484375 
Q 23.390625 27.484375 19.1875 25 
Q 14.984375 22.515625 14.984375 16.5 
Q 14.984375 11.71875 18.140625 8.90625 
Q 21.296875 6.109375 26.703125 6.109375 
Q 34.1875 6.109375 38.703125 11.40625 
Q 43.21875 16.703125 43.21875 25.484375 
L 43.21875 27.484375 
z
M 52.203125 31.203125 
L 52.203125 0 
L 43.21875 0 
L 43.21875 8.296875 
Q 40.140625 3.328125 35.546875 0.953125 
Q 30.953125 -1.421875 24.3125 -1.421875 
Q 15.921875 -1.421875 10.953125 3.296875 
Q 6 8.015625 6 15.921875 
Q 6 25.140625 12.171875 29.828125 
Q 18.359375 34.515625 30.609375 34.515625 
L 43.21875 34.515625 
L 43.21875 35.40625 
Q 43.21875 41.609375 39.140625 45 
Q 35.0625 48.390625 27.6875 48.390625 
Q 23 48.390625 18.546875 47.265625 
Q 14.109375 46.140625 10.015625 43.890625 
L 10.015625 52.203125 
Q 14.9375 54.109375 19.578125 55.046875 
Q 24.21875 56 28.609375 56 
Q 40.484375 56 46.34375 49.84375 
Q 52.203125 43.703125 52.203125 31.203125 
z
" id="DejaVuSans-97"/>
      <path d="M 45.40625 27.984375 
Q 45.40625 37.75 41.375 43.109375 
Q 37.359375 48.484375 30.078125 48.484375 
Q 22.859375 48.484375 18.828125 43.109375 
Q 14.796875 37.75 14.796875 27.984375 
Q 14.796875 18.265625 18.828125 12.890625 
Q 22.859375 7.515625 30.078125 7.515625 
Q 37.359375 7.515625 41.375 12.890625 
Q 45.40625 18.265625 45.40625 27.984375 
z
M 54.390625 6.78125 
Q 54.390625 -7.171875 48.1875 -13.984375 
Q 42 -20.796875 29.203125 -20.796875 
Q 24.46875 -20.796875 20.265625 -20.09375 
Q 16.0625 -19.390625 12.109375 -17.921875 
L 12.109375 -9.1875 
Q 16.0625 -11.328125 19.921875 -12.34375 
Q 23.78125 -13.375 27.78125 -13.375 
Q 36.625 -13.375 41.015625 -8.765625 
Q 45.40625 -4.15625 45.40625 5.171875 
L 45.40625 9.625 
Q 42.625 4.78125 38.28125 2.390625 
Q 33.9375 0 27.875 0 
Q 17.828125 0 11.671875 7.65625 
Q 5.515625 15.328125 5.515625 27.984375 
Q 5.515625 40.671875 11.671875 48.328125 
Q 17.828125 56 27.875 56 
Q 33.9375 56 38.28125 53.609375 
Q 42.625 51.21875 45.40625 46.390625 
L 45.40625 54.6875 
L 54.390625 54.6875 
z
" id="DejaVuSans-103"/>
      <path d="M 54.890625 33.015625 
L 54.890625 0 
L 45.90625 0 
L 45.90625 32.71875 
Q 45.90625 40.484375 42.875 44.328125 
Q 39.84375 48.1875 33.796875 48.1875 
Q 26.515625 48.1875 22.3125 43.546875 
Q 18.109375 38.921875 18.109375 30.90625 
L 18.109375 0 
L 9.078125 0 
L 9.078125 54.6875 
L 18.109375 54.6875 
L 18.109375 46.1875 
Q 21.34375 51.125 25.703125 53.5625 
Q 30.078125 56 35.796875 56 
Q 45.21875 56 50.046875 50.171875 
Q 54.890625 44.34375 54.890625 33.015625 
z
" id="DejaVuSans-110"/>
      <path d="M 18.3125 70.21875 
L 18.3125 54.6875 
L 36.8125 54.6875 
L 36.8125 47.703125 
L 18.3125 47.703125 
L 18.3125 18.015625 
Q 18.3125 11.328125 20.140625 9.421875 
Q 21.96875 7.515625 27.59375 7.515625 
L 36.8125 7.515625 
L 36.8125 0 
L 27.59375 0 
Q 17.1875 0 13.234375 3.875 
Q 9.28125 7.765625 9.28125 18.015625 
L 9.28125 47.703125 
L 2.6875 47.703125 
L 2.6875 54.6875 
L 9.28125 54.6875 
L 9.28125 70.21875 
z
" id="DejaVuSans-116"/>
     </defs>
     <g transform="translate(12.832812 224.960938)rotate(-90)scale(0.1 -0.1)">
      <use xlink:href="#DejaVuSans-78"/>
      <use x="74.804688" xlink:href="#DejaVuSans-111"/>
      <use x="135.986328" xlink:href="#DejaVuSans-109"/>
      <use x="233.398438" xlink:href="#DejaVuSans-98"/>
      <use x="296.875" xlink:href="#DejaVuSans-114"/>
      <use x="337.957031" xlink:href="#DejaVuSans-101"/>
      <use x="399.480469" xlink:href="#DejaVuSans-32"/>
      <use x="431.267578" xlink:href="#DejaVuSans-100"/>
      <use x="494.744141" xlink:href="#DejaVuSans-39"/>
      <use x="522.234375" xlink:href="#DejaVuSans-97"/>
      <use x="583.513672" xlink:href="#DejaVuSans-103"/>
      <use x="646.990234" xlink:href="#DejaVuSans-101"/>
      <use x="708.513672" xlink:href="#DejaVuSans-110"/>
      <use x="771.892578" xlink:href="#DejaVuSans-116"/>
      <use x="811.101562" xlink:href="#DejaVuSans-115"/>
     </g>
    </g>
   </g>
   <g id="line2d_17">
    <path clip-path="url(#peeb9e2a6f9)" d="M 57.681818 307.8 
L 58.416996 307.121446 
L 59.152174 305.340243 
L 60.62253 300.081452 
L 61.357708 296.349406 
L 62.092885 293.550372 
L 62.828063 288.46122 
L 63.563241 284.813993 
L 64.298419 279.894479 
L 65.033597 275.907976 
L 65.768775 271.1581 
L 66.503953 267.850151 
L 67.23913 262.421721 
L 67.974308 260.725337 
L 68.709486 255.975461 
L 69.444664 252.243416 
L 70.179842 249.444382 
L 70.91502 247.747998 
L 72.385375 242.828483 
L 73.855731 237.315235 
L 74.590909 233.837647 
L 75.326087 231.208251 
L 76.061265 229.17259 
L 76.796443 226.712833 
L 77.531621 225.355726 
L 79.737154 219.672838 
L 80.472332 220.521031 
L 81.20751 219.842477 
L 81.942688 217.552358 
L 82.677866 215.940793 
L 83.413043 215.601516 
L 84.148221 211.869471 
L 84.883399 209.664171 
L 85.618577 208.052606 
L 86.353755 207.967787 
L 87.088933 206.780318 
L 87.824111 205.168753 
L 88.559289 204.575019 
L 89.294466 204.150923 
L 90.029644 204.066103 
L 90.764822 201.945623 
L 91.5 200.673335 
L 92.235178 199.146589 
L 92.970356 200.16442 
L 93.705534 197.95912 
L 94.440711 198.298397 
L 95.175889 197.280566 
L 95.911067 195.414544 
L 96.646245 195.923459 
L 97.381423 198.213578 
L 98.116601 197.026109 
L 98.851779 196.347555 
L 99.586957 194.73599 
L 100.322134 195.075267 
L 101.057312 196.686832 
L 101.79249 196.602013 
L 102.527668 195.075267 
L 103.262846 195.923459 
L 103.998024 198.298397 
L 104.733202 196.177917 
L 105.468379 195.244905 
L 106.203557 193.039606 
L 106.938735 191.852137 
L 107.673913 192.361052 
L 108.409091 191.003945 
L 109.144269 191.682498 
L 109.879447 189.562018 
L 110.614625 191.173583 
L 111.349802 193.463702 
L 112.08498 193.548521 
L 112.820158 190.325391 
L 113.555336 192.61551 
L 114.290514 192.61551 
L 115.025692 192.021775 
L 115.76087 192.530691 
L 116.496047 194.481532 
L 117.231225 194.990448 
L 117.966403 196.262736 
L 118.701581 196.432374 
L 119.436759 198.807312 
L 120.171937 200.758154 
L 120.907115 202.200081 
L 121.642292 201.097431 
L 122.37747 201.521527 
L 123.112648 202.115262 
L 123.847826 204.066103 
L 125.318182 206.186584 
L 126.05336 207.119595 
L 126.788538 208.307064 
L 127.523715 210.512364 
L 128.258893 212.123929 
L 128.994071 211.615013 
L 129.729249 214.753324 
L 130.464427 216.704166 
L 131.199605 215.940793 
L 131.934783 216.958624 
L 133.405138 219.842477 
L 134.140316 220.690669 
L 134.875494 223.150426 
L 135.610672 222.387053 
L 136.34585 222.217415 
L 137.081028 223.574522 
L 137.816206 224.168257 
L 139.286561 227.476206 
L 140.021739 229.935963 
L 141.492095 231.547528 
L 143.697628 236.806319 
L 144.432806 236.551862 
L 145.167984 238.9268 
L 145.903162 240.792822 
L 146.63834 240.538365 
L 147.373518 240.623184 
L 148.108696 241.471376 
L 148.843874 244.609687 
L 149.579051 246.560529 
L 150.314229 248.087275 
L 151.049407 248.681009 
L 151.784585 250.71667 
L 152.519763 251.649682 
L 153.254941 252.243416 
L 153.990119 253.685343 
L 156.195652 255.296908 
L 156.93083 255.975461 
L 157.666008 256.484377 
L 158.401186 256.060281 
L 159.136364 256.484377 
L 159.871542 258.689676 
L 161.341897 260.131603 
L 162.077075 262.930637 
L 162.812253 262.760998 
L 163.547431 263.439552 
L 164.282609 265.220755 
L 165.017787 264.627021 
L 165.752964 264.457383 
L 166.488142 265.220755 
L 167.22332 267.086778 
L 168.693676 269.461716 
L 169.428854 269.207258 
L 170.164032 269.292078 
L 171.634387 273.787496 
L 172.369565 273.533038 
L 173.104743 274.296411 
L 173.839921 275.314242 
L 174.575099 276.671349 
L 175.310277 276.671349 
L 176.045455 276.247253 
L 177.51581 277.773999 
L 178.250988 277.265084 
L 179.721344 277.773999 
L 180.456522 278.282914 
L 181.1917 278.113276 
L 181.926877 278.70701 
L 182.662055 278.961468 
L 183.397233 279.724841 
L 184.132411 280.657852 
L 184.867589 280.573033 
L 186.337945 281.251587 
L 187.073123 281.166767 
L 187.8083 280.657852 
L 190.013834 282.947971 
L 190.749012 283.287248 
L 192.954545 283.880982 
L 193.689723 284.644355 
L 194.424901 284.474717 
L 195.160079 285.831824 
L 195.895257 286.680016 
L 196.630435 287.104112 
L 197.365613 286.934474 
L 198.100791 286.595197 
L 198.835968 287.867485 
L 199.571146 288.630858 
L 200.306324 288.885316 
L 201.041502 289.563869 
L 201.77668 291.005796 
L 202.511858 292.108446 
L 203.247036 291.938807 
L 204.717391 292.871819 
L 205.452569 293.126276 
L 206.187747 292.786999 
L 206.922925 293.041457 
L 208.393281 293.126276 
L 209.128458 292.70218 
L 211.333992 293.211095 
L 212.06917 293.720011 
L 213.539526 294.139643 
L 214.274704 294.050359 
L 215.009881 294.58606 
L 216.480237 294.943193 
L 217.215415 295.38961 
L 218.685771 295.226799 
L 219.420949 295.625948 
L 220.156126 294.86507 
L 220.891304 295.39519 
L 221.626482 295.607238 
L 222.36166 295.183142 
L 223.096838 293.663465 
L 223.832016 293.43728 
L 224.567194 293.550372 
L 225.302372 293.43728 
L 226.037549 293.098003 
L 226.772727 294.002741 
L 227.507905 293.776557 
L 228.243083 293.776557 
L 228.978261 293.43728 
L 229.713439 292.141069 
L 230.448617 292.27156 
L 231.183794 293.445979 
L 231.918972 293.967944 
L 232.65415 292.815273 
L 233.389328 292.686759 
L 234.124506 292.069892 
L 234.859684 292.378325 
L 235.594862 292.532542 
L 237.065217 289.818327 
L 237.800395 291.345073 
L 238.535573 290.327242 
L 239.270751 290.666519 
L 240.005929 290.496881 
L 240.741107 290.157604 
L 242.211462 291.853988 
L 242.94664 292.193265 
L 244.416996 294.737841 
L 245.152174 295.077118 
L 245.887352 294.6059 
L 246.62253 292.74459 
L 247.357708 291.896398 
L 248.092885 292.532542 
L 248.828063 292.532542 
L 250.298419 292.047861 
L 251.033597 290.836158 
L 251.768775 291.401619 
L 252.503953 292.532542 
L 253.23913 292.815273 
L 253.974308 291.96708 
L 255.444664 291.96708 
L 256.179842 293.380734 
L 256.91502 293.946195 
L 257.650198 293.380734 
L 258.385375 295.077118 
L 259.120553 296.490772 
L 259.855731 296.208041 
L 260.590909 297.338964 
L 261.326087 296.943141 
L 262.061265 296.264587 
L 262.796443 295.92531 
L 264.266798 297.960971 
L 265.001976 300.335909 
L 265.737154 300.335909 
L 266.472332 299.996632 
L 267.20751 299.996632 
L 267.942688 299.657356 
L 268.677866 299.657356 
L 269.413043 299.996632 
L 270.148221 300.675186 
L 270.883399 300.675186 
L 271.618577 298.893983 
L 272.353755 300.166271 
L 273.088933 301.014463 
L 274.559289 301.014463 
L 275.294466 301.862655 
L 276.764822 302.710847 
L 277.5 301.579924 
L 278.970356 302.710847 
L 279.705534 302.710847 
L 281.175889 303.84177 
L 281.911067 303.84177 
L 282.646245 302.710847 
L 284.116601 304.407232 
L 285.586957 304.407232 
L 286.322134 305.255424 
L 287.79249 305.255424 
L 288.527668 306.103616 
L 303.231225 306.103616 
L 303.231225 306.103616 
" style="fill:none;stroke:#1f77b4;stroke-linecap:square;stroke-width:1.5;"/>
   </g>
   <g id="line2d_18">
    <path clip-path="url(#peeb9e2a6f9)" d="M 57.681818 307.8 
L 58.416996 299.318079 
L 59.152174 286.086282 
L 60.62253 265.475213 
L 61.357708 256.993292 
L 62.092885 250.462213 
L 62.828063 242.658845 
L 63.563241 236.467043 
L 65.033597 220.690669 
L 65.768775 213.481036 
L 66.503953 207.458872 
L 67.23913 198.383216 
L 68.709486 183.115758 
L 69.444664 177.432871 
L 70.179842 168.781311 
L 70.91502 165.303723 
L 71.650198 159.875294 
L 72.385375 155.97361 
L 73.120553 154.87096 
L 73.855731 151.308553 
L 75.326087 145.880124 
L 76.061265 144.692655 
L 76.796443 141.045429 
L 77.531621 138.670491 
L 78.266798 137.143745 
L 79.001976 135.023265 
L 79.737154 132.054592 
L 80.472332 131.291219 
L 81.20751 131.969773 
L 81.942688 130.10375 
L 82.677866 125.523513 
L 83.413043 119.246891 
L 84.148221 117.804965 
L 84.883399 115.514846 
L 85.618577 114.327377 
L 86.353755 111.952439 
L 87.824111 106.015094 
L 88.559289 103.21606 
L 89.294466 99.144738 
L 90.029644 98.466184 
L 90.764822 96.854619 
L 91.5 95.66715 
L 92.235178 94.055585 
L 92.970356 91.765466 
L 93.705534 91.935105 
L 94.440711 91.34137 
L 95.175889 91.42619 
L 95.911067 90.832455 
L 96.646245 89.899444 
L 98.116601 89.305709 
L 98.851779 88.457517 
L 99.586957 89.560167 
L 101.057312 96.684981 
L 101.79249 97.617992 
L 102.527668 101.350037 
L 103.262846 101.858953 
L 103.998024 102.537506 
L 104.733202 101.434857 
L 105.468379 100.671484 
L 107.673913 105.251721 
L 108.409091 106.099913 
L 109.144269 107.54184 
L 109.879447 108.64449 
L 110.614625 110.76497 
L 111.349802 114.242558 
L 112.08498 115.514846 
L 112.820158 116.10858 
L 113.555336 117.720145 
L 114.290514 118.737976 
L 115.025692 120.519179 
L 115.76087 121.621829 
L 117.231225 119.246891 
L 117.966403 120.349541 
L 118.701581 120.858456 
L 119.436759 124.166406 
L 120.171937 124.166406 
L 120.907115 122.045925 
L 121.642292 119.501349 
L 122.37747 120.010264 
L 123.112648 119.33171 
L 123.847826 120.095083 
L 124.583004 120.179903 
L 126.05336 121.282552 
L 126.788538 121.282552 
L 127.523715 122.300383 
L 128.258893 121.53701 
L 128.994071 124.251225 
L 129.729249 126.117247 
L 130.464427 129.934112 
L 131.199605 131.630496 
L 132.66996 134.514349 
L 133.405138 136.295553 
L 134.140316 136.295553 
L 134.875494 136.63483 
L 135.610672 135.616999 
L 136.34585 136.125914 
L 137.081028 136.380372 
L 137.816206 136.380372 
L 138.551383 138.500852 
L 140.756917 142.996271 
L 141.492095 144.18374 
L 142.227273 143.590005 
L 142.962451 143.420367 
L 143.697628 146.473858 
L 144.432806 148.848796 
L 145.167984 152.665661 
L 145.903162 154.022768 
L 146.63834 155.888791 
L 147.373518 156.312887 
L 148.843874 164.031435 
L 149.579051 165.134085 
L 152.519763 175.736487 
L 153.254941 176.584679 
L 153.990119 176.754317 
L 154.725296 177.602509 
L 156.195652 182.8613 
L 157.666008 190.664668 
L 158.401186 193.463702 
L 159.871542 199.825143 
L 161.341897 203.472369 
L 162.077075 204.4902 
L 162.812253 206.101765 
L 163.547431 208.391883 
L 164.282609 211.445375 
L 165.017787 213.735494 
L 165.752964 214.668505 
L 166.488142 216.025612 
L 167.22332 216.28007 
L 167.958498 218.40055 
L 168.693676 219.248742 
L 169.428854 221.284404 
L 170.899209 226.967291 
L 171.634387 227.900302 
L 172.369565 228.578856 
L 174.575099 233.583189 
L 175.310277 235.788489 
L 176.780632 239.350896 
L 177.51581 241.471376 
L 178.250988 242.574026 
L 178.986166 244.524868 
L 179.721344 244.948964 
L 183.397233 252.328235 
L 184.132411 254.024619 
L 184.867589 254.533535 
L 185.602767 254.194258 
L 186.337945 254.957631 
L 187.073123 255.551365 
L 187.8083 257.078111 
L 189.278656 259.283411 
L 190.013834 260.725337 
L 190.749012 262.506541 
L 191.48419 263.948467 
L 192.219368 264.966298 
L 193.689723 267.850151 
L 194.424901 268.528705 
L 195.160079 268.783162 
L 195.895257 269.546535 
L 196.630435 270.564366 
L 198.835968 272.515208 
L 199.571146 272.515208 
L 200.306324 272.684846 
L 201.77668 276.162434 
L 202.511858 276.840988 
L 203.247036 277.943637 
L 203.982213 279.555202 
L 204.717391 280.148937 
L 206.187747 280.403394 
L 207.658103 281.93014 
L 208.393281 282.014959 
L 209.128458 282.354236 
L 209.863636 283.541705 
L 210.598814 283.796163 
L 211.333992 284.305078 
L 212.06917 284.220259 
L 213.539526 284.813993 
L 214.274704 285.407728 
L 215.009881 285.492547 
L 215.745059 284.943454 
L 216.480237 285.032738 
L 217.215415 285.389871 
L 217.950593 286.193422 
L 218.685771 286.371988 
L 219.420949 286.996972 
L 220.156126 285.841248 
L 220.891304 286.689441 
L 221.626482 287.066415 
L 222.36166 287.631876 
L 223.832016 287.914607 
L 224.567194 288.574312 
L 225.302372 288.762799 
L 226.772727 289.987965 
L 227.507905 291.024645 
L 228.243083 291.778593 
L 228.978261 291.495863 
L 229.713439 291.590106 
L 230.448617 292.249811 
L 231.183794 292.626785 
L 231.918972 292.721029 
L 233.389328 294.040439 
L 234.124506 294.888631 
L 234.859684 295.454092 
L 235.594862 296.208041 
L 236.33004 295.92531 
L 237.065217 296.923183 
L 237.800395 296.561454 
L 239.270751 297.091574 
L 240.005929 297.621695 
L 240.741107 296.830049 
L 241.476285 297.621695 
L 242.94664 297.379354 
L 244.416996 298.348716 
L 245.152174 298.227546 
L 248.092885 299.80276 
L 248.828063 300.408612 
L 249.563241 300.650952 
L 251.033597 301.741485 
L 251.768775 301.741485 
L 253.23913 302.226166 
L 254.709486 302.226166 
L 255.444664 302.468507 
L 256.179842 302.832018 
L 256.91502 302.953188 
L 257.650198 303.195528 
L 258.385375 303.316699 
L 259.120553 303.68021 
L 259.855731 303.624285 
L 260.590909 303.417674 
L 262.061265 302.710847 
L 264.266798 303.173498 
L 265.001976 303.173498 
L 265.737154 303.327714 
L 266.472332 303.173498 
L 267.20751 303.327714 
L 268.677866 303.327714 
L 269.413043 303.050124 
L 270.148221 303.050124 
L 270.883399 302.880486 
L 271.618577 303.389401 
L 272.353755 303.559039 
L 273.088933 303.559039 
L 273.824111 303.728678 
L 274.559289 303.464796 
L 276.029644 304.218744 
L 276.764822 303.983135 
L 277.5 303.983135 
L 278.235178 304.407232 
L 278.970356 304.61928 
L 279.705534 305.043376 
L 280.440711 304.891913 
L 281.175889 304.891913 
L 281.911067 304.689962 
L 282.646245 304.689962 
L 283.381423 304.972693 
L 285.586957 304.972693 
L 286.322134 305.085785 
L 287.057312 305.085785 
L 287.79249 305.425062 
L 288.527668 305.425062 
L 289.998024 304.972693 
L 290.733202 305.538154 
L 292.203557 305.538154 
L 292.938735 305.255424 
L 293.673913 305.255424 
L 294.409091 306.103616 
L 311.318182 306.103616 
L 311.318182 306.103616 
" style="fill:none;stroke:#ff7f0e;stroke-linecap:square;stroke-width:1.5;"/>
   </g>
   <g id="patch_3">
    <path d="M 45 320.4 
L 45 43.2 
" style="fill:none;stroke:#000000;stroke-linecap:square;stroke-linejoin:miter;stroke-width:0.8;"/>
   </g>
   <g id="patch_4">
    <path d="M 324 320.4 
L 324 43.2 
" style="fill:none;stroke:#000000;stroke-linecap:square;stroke-linejoin:miter;stroke-width:0.8;"/>
   </g>
   <g id="patch_5">
    <path d="M 45 320.4 
L 324 320.4 
" style="fill:none;stroke:#000000;stroke-linecap:square;stroke-linejoin:miter;stroke-width:0.8;"/>
   </g>
   <g id="patch_6">
    <path d="M 45 43.2 
L 324 43.2 
" style="fill:none;stroke:#000000;stroke-linecap:square;stroke-linejoin:miter;stroke-width:0.8;"/>
   </g>
   <g id="legend_1">
    <g id="patch_7">
     <path d="M 151.29375 80.55625 
L 317 80.55625 
Q 319 80.55625 319 78.55625 
L 319 50.2 
Q 319 48.2 317 48.2 
L 151.29375 48.2 
Q 149.29375 48.2 149.29375 50.2 
L 149.29375 78.55625 
Q 149.29375 80.55625 151.29375 80.55625 
z
" style="fill:#ffffff;opacity:0.8;stroke:#cccccc;stroke-linejoin:miter;"/>
    </g>
    <g id="line2d_19">
     <path d="M 153.29375 56.298437 
L 173.29375 56.298437 
" style="fill:none;stroke:#1f77b4;stroke-linecap:square;stroke-width:1.5;"/>
    </g>
    <g id="line2d_20"/>
    <g id="text_19">
     <!-- pop-asymptomatique -->
     <defs>
      <path d="M 4.890625 31.390625 
L 31.203125 31.390625 
L 31.203125 23.390625 
L 4.890625 23.390625 
z
" id="DejaVuSans-45"/>
      <path d="M 32.171875 -5.078125 
Q 28.375 -14.84375 24.75 -17.8125 
Q 21.140625 -20.796875 15.09375 -20.796875 
L 7.90625 -20.796875 
L 7.90625 -13.28125 
L 13.1875 -13.28125 
Q 16.890625 -13.28125 18.9375 -11.515625 
Q 21 -9.765625 23.484375 -3.21875 
L 25.09375 0.875 
L 2.984375 54.6875 
L 12.5 54.6875 
L 29.59375 11.921875 
L 46.6875 54.6875 
L 56.203125 54.6875 
z
" id="DejaVuSans-121"/>
      <path d="M 9.421875 54.6875 
L 18.40625 54.6875 
L 18.40625 0 
L 9.421875 0 
z
M 9.421875 75.984375 
L 18.40625 75.984375 
L 18.40625 64.59375 
L 9.421875 64.59375 
z
" id="DejaVuSans-105"/>
      <path d="M 14.796875 27.296875 
Q 14.796875 17.390625 18.875 11.75 
Q 22.953125 6.109375 30.078125 6.109375 
Q 37.203125 6.109375 41.296875 11.75 
Q 45.40625 17.390625 45.40625 27.296875 
Q 45.40625 37.203125 41.296875 42.84375 
Q 37.203125 48.484375 30.078125 48.484375 
Q 22.953125 48.484375 18.875 42.84375 
Q 14.796875 37.203125 14.796875 27.296875 
z
M 45.40625 8.203125 
Q 42.578125 3.328125 38.25 0.953125 
Q 33.9375 -1.421875 27.875 -1.421875 
Q 17.96875 -1.421875 11.734375 6.484375 
Q 5.515625 14.40625 5.515625 27.296875 
Q 5.515625 40.1875 11.734375 48.09375 
Q 17.96875 56 27.875 56 
Q 33.9375 56 38.25 53.625 
Q 42.578125 51.265625 45.40625 46.390625 
L 45.40625 54.6875 
L 54.390625 54.6875 
L 54.390625 -20.796875 
L 45.40625 -20.796875 
z
" id="DejaVuSans-113"/>
      <path d="M 8.5 21.578125 
L 8.5 54.6875 
L 17.484375 54.6875 
L 17.484375 21.921875 
Q 17.484375 14.15625 20.5 10.265625 
Q 23.53125 6.390625 29.59375 6.390625 
Q 36.859375 6.390625 41.078125 11.03125 
Q 45.3125 15.671875 45.3125 23.6875 
L 45.3125 54.6875 
L 54.296875 54.6875 
L 54.296875 0 
L 45.3125 0 
L 45.3125 8.40625 
Q 42.046875 3.421875 37.71875 1 
Q 33.40625 -1.421875 27.6875 -1.421875 
Q 18.265625 -1.421875 13.375 4.4375 
Q 8.5 10.296875 8.5 21.578125 
z
M 31.109375 56 
z
" id="DejaVuSans-117"/>
     </defs>
     <g transform="translate(181.29375 59.798437)scale(0.1 -0.1)">
      <use xlink:href="#DejaVuSans-112"/>
      <use x="63.476562" xlink:href="#DejaVuSans-111"/>
      <use x="124.658203" xlink:href="#DejaVuSans-112"/>
      <use x="188.134766" xlink:href="#DejaVuSans-45"/>
      <use x="224.21875" xlink:href="#DejaVuSans-97"/>
      <use x="285.498047" xlink:href="#DejaVuSans-115"/>
      <use x="337.597656" xlink:href="#DejaVuSans-121"/>
      <use x="396.777344" xlink:href="#DejaVuSans-109"/>
      <use x="494.189453" xlink:href="#DejaVuSans-112"/>
      <use x="557.666016" xlink:href="#DejaVuSans-116"/>
      <use x="596.875" xlink:href="#DejaVuSans-111"/>
      <use x="658.056641" xlink:href="#DejaVuSans-109"/>
      <use x="755.46875" xlink:href="#DejaVuSans-97"/>
      <use x="816.748047" xlink:href="#DejaVuSans-116"/>
      <use x="855.957031" xlink:href="#DejaVuSans-105"/>
      <use x="883.740234" xlink:href="#DejaVuSans-113"/>
      <use x="947.216797" xlink:href="#DejaVuSans-117"/>
      <use x="1010.595703" xlink:href="#DejaVuSans-101"/>
     </g>
    </g>
    <g id="line2d_21">
     <path d="M 153.29375 70.976562 
L 173.29375 70.976562 
" style="fill:none;stroke:#ff7f0e;stroke-linecap:square;stroke-width:1.5;"/>
    </g>
    <g id="line2d_22"/>
    <g id="text_20">
     <!-- pop-sans-asymptomatique -->
     <g transform="translate(181.29375 74.476562)scale(0.1 -0.1)">
      <use xlink:href="#DejaVuSans-112"/>
      <use x="63.476562" xlink:href="#DejaVuSans-111"/>
      <use x="124.658203" xlink:href="#DejaVuSans-112"/>
      <use x="188.134766" xlink:href="#DejaVuSans-45"/>
      <use x="224.21875" xlink:href="#DejaVuSans-115"/>
      <use x="276.318359" xlink:href="#DejaVuSans-97"/>
      <use x="337.597656" xlink:href="#DejaVuSans-110"/>
      <use x="400.976562" xlink:href="#DejaVuSans-115"/>
      <use x="453.076172" xlink:href="#DejaVuSans-45"/>
      <use x="489.160156" xlink:href="#DejaVuSans-97"/>
      <use x="550.439453" xlink:href="#DejaVuSans-115"/>
      <use x="602.539062" xlink:href="#DejaVuSans-121"/>
      <use x="661.71875" xlink:href="#DejaVuSans-109"/>
      <use x="759.130859" xlink:href="#DejaVuSans-112"/>
      <use x="822.607422" xlink:href="#DejaVuSans-116"/>
      <use x="861.816406" xlink:href="#DejaVuSans-111"/>
      <use x="922.998047" xlink:href="#DejaVuSans-109"/>
      <use x="1020.410156" xlink:href="#DejaVuSans-97"/>
      <use x="1081.689453" xlink:href="#DejaVuSans-116"/>
      <use x="1120.898438" xlink:href="#DejaVuSans-105"/>
      <use x="1148.681641" xlink:href="#DejaVuSans-113"/>
      <use x="1212.158203" xlink:href="#DejaVuSans-117"/>
      <use x="1275.537109" xlink:href="#DejaVuSans-101"/>
     </g>
    </g>
   </g>
  </g>
 </g>
 <defs>
  <clipPath id="peeb9e2a6f9">
   <rect height="277.2" width="279" x="45" y="43.2"/>
  </clipPath>
 </defs>
</svg>
