<?xml version="1.0" encoding="UTF-8" standalone="no"?>
<!DOCTYPE svg PUBLIC "-//W3C//DTD SVG 1.1//EN"
"http://www.w3.org/Graphics/SVG/1.1/DTD/svg11.dtd">


<!-- Page 1 -->
<svg x="0" y="0" width="433" height="433" viewBox="0 0 433 433" version="1.1" xmlns="http://www.w3.org/2000/svg" xmlns:xlink="http://www.w3.org/1999/xlink"
style="display: block;margin-left: auto;margin-right: auto;">
<defs>
<clipPath id="c_1"><path d="M0,0H433V433H0Z" /></clipPath>
<style type="text/css"><![CDATA[
text { white-space: pre; }
path, image { pointer-events: none; }
text::-moz-selection {
	color: transparent;
	background: rgba(0, 106, 173, 0.4);
}
text::selection {
	color: transparent;
	background: rgba(0, 106, 173, 0.4);
}

.s1_1{
font-size: 15.22px;
font-family: LMRoman10-Regular_7;
fill: TRANSPARENT;
}
.s2_1{
font-size: 15.22px;
font-family: LMMathItalic10-Regular_8;
fill: TRANSPARENT;
}
.s3_1{
font-size: 15.22px;
font-family: LMMathSymbols10-Regular_9;
fill: TRANSPARENT;
}
.s4_1{
font-size: 10.65px;
font-family: LMRoman7-Regular_a;
fill: TRANSPARENT;
}
.s5_1{
font-size: 15.22px;
font-family: LMRoman10-Regular_b;
fill: TRANSPARENT;
}

.g0_1{
fill: none;
stroke: #D8D8D8;
stroke-width: 0.6088194;
stroke-linecap: butt;
stroke-linejoin: miter;
stroke-dasharray: 5,5;
}
.g1_1{
fill: none;
stroke: #7F7F7F;
stroke-width: 0.3044097;
stroke-linecap: butt;
stroke-linejoin: miter;
}
.g2_1{
fill: none;
stroke: #000000;
stroke-width: 0.6088194;
stroke-linecap: butt;
stroke-linejoin: miter;
}
.g3_1{
fill: none;
stroke: #0000FF;
stroke-width: 0.6088194;
stroke-linecap: butt;
stroke-linejoin: miter;
}
.g4_1{
fill: #0000CC;
stroke: #0000FF;
stroke-width: 0.6088194;
stroke-linecap: butt;
stroke-linejoin: miter;
}

]]></style>

</defs>
<g clip-path="url(#c_1)">
<path d="M0,0
L0,433
L433,433
L433,0 Z " 
fill="#FFFFFF" stroke="none" />
<path d="M139.1,368.1V25.1m63.5,343V25.1m63.5,343V25.1m63.5,343V25.1m63.5,343V25.1M78.8,352.6H421.7M78.8,288.7H421.7M78.8,224.9H421.7M78.8,161H421.7M78.8,97.1H421.7M78.8,33.2H421.7" class="g0_1" />
<path d="M139.1,368.1v-6.5m63.5,6.5v-6.5m63.5,6.5v-6.5m63.5,6.5v-6.5m63.5,6.5v-6.5M139.1,25.1v6.5m63.5,-6.5v6.5m63.5,-6.5v6.5m63.5,-6.5v6.5m63.5,-6.5v6.5M78.8,352.6h6.5M78.8,288.7h6.5M78.8,224.9h6.5M78.8,161h6.5M78.8,97.1h6.5M78.8,33.2h6.5M421.7,352.6h-6.5m6.5,-63.9h-6.5m6.5,-63.8h-6.5M421.7,161h-6.5m6.5,-63.9h-6.5m6.5,-63.9h-6.5" class="g1_1" />
<path d="M78.8,368.1V25.1H421.7v343H78.8Z" class="g2_1" />
<g fill="#000000" >
<use xlink:href="#f0_j" transform="matrix(10,0,0,10,127.7,383)" />
<use xlink:href="#f0_m" transform="matrix(10,0,0,10,135.3,383)" />
<use xlink:href="#f0_m" transform="matrix(10,0,0,10,142.9,383)" />
<use xlink:href="#f0_7" transform="matrix(10,0,0,10,191.2,383)" />
<use xlink:href="#f0_m" transform="matrix(10,0,0,10,198.8,383)" />
<use xlink:href="#f0_m" transform="matrix(10,0,0,10,206.4,383)" />
<use xlink:href="#f0_h" transform="matrix(10,0,0,10,254.7,383)" />
<use xlink:href="#f0_m" transform="matrix(10,0,0,10,262.3,383)" />
<use xlink:href="#f0_m" transform="matrix(10,0,0,10,269.9,383)" />
<use xlink:href="#f0_5" transform="matrix(10,0,0,10,318.2,383)" />
<use xlink:href="#f0_m" transform="matrix(10,0,0,10,325.8,383)" />
<use xlink:href="#f0_m" transform="matrix(10,0,0,10,333.4,383)" />
<use xlink:href="#f0_d" transform="matrix(10,0,0,10,375.8,383)" />
<use xlink:href="#f1_2" transform="matrix(10,0,0,10,383.4,383)" />
</g>
<text x="127" y="383" class="s1_1">200</text>
<text x="191" y="383" class="s1_1">400</text>
<text x="254" y="383" class="s1_1">600</text>
<text x="318" y="383" class="s1_1">800</text>
<text x="375" y="383" class="s1_1">1</text>
<g fill="#000000" >
<use xlink:href="#f0_m" transform="matrix(10,0,0,10,387.6,383)" />
</g>
<text x="383" y="383" class="s2_1">,</text>
<g fill="#000000" >
<use xlink:href="#f0_m" transform="matrix(10,0,0,10,395.2,383)" />
<use xlink:href="#f0_m" transform="matrix(10,0,0,10,402.8,383)" />
<use xlink:href="#f0_m" transform="matrix(10,0,0,10,65.8,357.4)" />
</g>
<text x="387" y="383" class="s1_1">000</text>
<g fill="#000000" >
<use xlink:href="#f0_m" transform="matrix(10,0,0,10,54,293.5)" />
</g>
<text x="65" y="357" class="s1_1">0</text>
<g fill="#000000" >
<use xlink:href="#f1_1" transform="matrix(10,0,0,10,61.6,293.5)" />
</g>
<text x="53" y="293" class="s1_1">0</text>
<g fill="#000000" >
<use xlink:href="#f0_j" transform="matrix(10,0,0,10,65.8,293.5)" />
</g>
<text x="61" y="293" class="s2_1">.</text>
<g fill="#000000" >
<use xlink:href="#f0_m" transform="matrix(10,0,0,10,54,229.7)" />
</g>
<text x="65" y="293" class="s1_1">2</text>
<g fill="#000000" >
<use xlink:href="#f1_1" transform="matrix(10,0,0,10,61.6,229.7)" />
</g>
<text x="53" y="229" class="s1_1">0</text>
<g fill="#000000" >
<use xlink:href="#f0_7" transform="matrix(10,0,0,10,65.8,229.7)" />
</g>
<text x="61" y="229" class="s2_1">.</text>
<g fill="#000000" >
<use xlink:href="#f0_m" transform="matrix(10,0,0,10,54,165.8)" />
</g>
<text x="65" y="229" class="s1_1">4</text>
<g fill="#000000" >
<use xlink:href="#f1_1" transform="matrix(10,0,0,10,61.6,165.8)" />
</g>
<text x="53" y="165" class="s1_1">0</text>
<g fill="#000000" >
<use xlink:href="#f0_h" transform="matrix(10,0,0,10,65.8,165.8)" />
</g>
<text x="61" y="165" class="s2_1">.</text>
<g fill="#000000" >
<use xlink:href="#f0_m" transform="matrix(10,0,0,10,54,101.9)" />
</g>
<text x="65" y="165" class="s1_1">6</text>
<g fill="#000000" >
<use xlink:href="#f1_1" transform="matrix(10,0,0,10,61.6,101.9)" />
</g>
<text x="53" y="101" class="s1_1">0</text>
<g fill="#000000" >
<use xlink:href="#f0_5" transform="matrix(10,0,0,10,65.8,101.9)" />
</g>
<text x="61" y="101" class="s2_1">.</text>
<g fill="#000000" >
<use xlink:href="#f0_d" transform="matrix(10,0,0,10,65.8,38)" />
</g>
<text x="65" y="101" class="s1_1">8</text>
<g fill="#000000" >
<use xlink:href="#f2_1" transform="matrix(10,0,0,10,83.7,14.6)" />
</g>
<text x="65" y="38" class="s1_1">1</text>
<g fill="#000000" >
<use xlink:href="#f0_d" transform="matrix(10,0,0,10,87.9,14.6)" />
</g>
<text x="83" y="14" class="s3_1">·</text>
<g fill="#000000" >
<use xlink:href="#f0_m" transform="matrix(10,0,0,10,95.5,14.6)" />
<use xlink:href="#f3_1" transform="matrix(7,0,0,7,103.1,9)" />
</g>
<text x="87" y="14" class="s1_1">10</text>
<text x="103" y="9" class="s4_1">4</text>
<path d="M107.4,335.3l31.7,-21.8l31.8,-23.6l31.7,-24.7l31.8,-25.5l31.7,-33.2l31.8,-25.2l31.7,-27.7l31.8,-28L393.1,96M107.4,335.3v-4.1m-3.1,0h6.1m-3,4.1v4.2m3,0h-6.1m34.8,-26v-8.3m-3,0h6.1m-3.1,8.3v8.3m3.1,0h-6.1m34.8,-31.9V277.5m-3.1,0h6.1m-3,12.4v12.5m3,0h-6.1m34.8,-37.2V248.6m-3,0h6.1m-3.1,16.6v16.6m3.1,0h-6.1m34.8,-42.1V218.9m-3.1,0h6.1m-3,20.8v20.7m3,0h-6.1m34.8,-53.9V180.1m-3,0h6.1m-3.1,26.4V233m3.1,0h-6.1m34.8,-51.7v-30m-3.1,0h6.1m-3,30v30.1m3,0h-6.1m34.8,-57.8V119.4m-3,.1h6.1m-3.1,34.1v34.2m3.1,0h-6.1m34.8,-62.2V87.4m-3.1,0h6.1m-3,38.2v38.2m3,0h-6.1M393.1,96V53.7m-3,0h6.1M393.1,96v42.3m3.1,0h-6.1" class="g3_1" />
<path d="M110.4,335.3c0,-1.6,-1.4,-3,-3,-3c-1.7,0,-3.1,1.4,-3.1,3c0,1.7,1.4,3.1,3.1,3.1c1.6,0,3,-1.4,3,-3.1Z" class="g4_1" />
<path d="M142.2,313.5c0,-1.7,-1.4,-3,-3.1,-3c-1.7,0,-3,1.3,-3,3c0,1.7,1.3,3.1,3,3.1c1.7,0,3.1,-1.4,3.1,-3.1Z" class="g4_1" />
<path d="M173.9,289.9c0,-1.6,-1.3,-3,-3,-3c-1.7,0,-3.1,1.4,-3.1,3c0,1.7,1.4,3.1,3.1,3.1c1.7,0,3,-1.4,3,-3.1Z" class="g4_1" />
<path d="M205.7,265.2c0,-1.7,-1.4,-3,-3.1,-3c-1.7,0,-3,1.3,-3,3c0,1.7,1.3,3.1,3,3.1c1.7,0,3.1,-1.4,3.1,-3.1Z" class="g4_1" />
<path d="M237.4,239.7c0,-1.7,-1.3,-3.1,-3,-3.1c-1.7,0,-3.1,1.4,-3.1,3.1c0,1.7,1.4,3,3.1,3c1.7,0,3,-1.3,3,-3Z" class="g4_1" />
<path d="M269.2,206.5c0,-1.6,-1.4,-3,-3.1,-3c-1.7,0,-3,1.4,-3,3c0,1.7,1.3,3.1,3,3.1c1.7,0,3.1,-1.4,3.1,-3.1Z" class="g4_1" />
<path d="M300.9,181.3c0,-1.7,-1.3,-3,-3,-3c-1.7,0,-3.1,1.3,-3.1,3c0,1.7,1.4,3.1,3.1,3.1c1.7,0,3,-1.4,3,-3.1Z" class="g4_1" />
<path d="M332.7,153.6c0,-1.6,-1.4,-3,-3.1,-3c-1.7,0,-3,1.4,-3,3c0,1.7,1.3,3.1,3,3.1c1.7,0,3.1,-1.4,3.1,-3.1Z" class="g4_1" />
<path d="M364.4,125.6c0,-1.7,-1.3,-3,-3,-3c-1.7,0,-3.1,1.3,-3.1,3c0,1.7,1.4,3.1,3.1,3.1c1.7,0,3,-1.4,3,-3.1Z" class="g4_1" />
<path d="M396.2,96c0,-1.7,-1.4,-3.1,-3.1,-3.1c-1.7,0,-3,1.4,-3,3.1c0,1.7,1.3,3,3,3c1.7,0,3.1,-1.3,3.1,-3Z" class="g4_1" />
<g fill="#000000" >
<use xlink:href="#f4_a" transform="matrix(10,0,0,10,183.6,406.9)" />
<use xlink:href="#f4_k" transform="matrix(10,0,0,10,195,406.9)" />
<use xlink:href="#f4_9" transform="matrix(10,0,0,10,203.5,406.9)" />
<use xlink:href="#f4_2" transform="matrix(10,0,0,10,215.7,406.9)" />
<use xlink:href="#f4_4" transform="matrix(10,0,0,10,224.6,406.9)" />
<use xlink:href="#f4_f" transform="matrix(10,0,0,10,231.4,406.9)" />
<use xlink:href="#f4_c" transform="matrix(10,0,0,10,242.4,406.9)" />
<use xlink:href="#f4_6" transform="matrix(10,0,0,10,250,406.9)" />
<use xlink:href="#f4_4" transform="matrix(10,0,0,10,259.7,406.9)" />
<use xlink:href="#f4_8" transform="matrix(10,0,0,10,266.5,406.9)" />
<use xlink:href="#f4_4" transform="matrix(10,0,0,10,270.7,406.9)" />
<use xlink:href="#f4_9" transform="matrix(10,0,0,10,277.5,406.9)" />
<use xlink:href="#f4_4" transform="matrix(10,0,0,10,290.2,406.9)" />
<use xlink:href="#f4_b" transform="matrix(10,0,0,10,296.9,406.9)" />
<use xlink:href="#f4_i" transform="matrix(10,0,0,10,305,406.9)" />
<use xlink:href="#f4_g" transform="matrix(10,0,0,10,310.9,406.9)" />
<use xlink:href="#f4_a" transform="matrix(0,-10,10,0,40.6,368.8)" />
</g>
<text x="183" y="406" dx="0,0,0,-0.4,0.4,0,0,1.3,0,0,1.3,0,0,0,0,0,-0.4,0" class="s5_1">Number of elements</text>
<g fill="#000000" >
<use xlink:href="#f4_k" transform="matrix(0,-10,10,0,40.6,357.4)" />
<use xlink:href="#f4_9" transform="matrix(0,-10,10,0,40.6,349)" />
<use xlink:href="#f4_2" transform="matrix(0,-10,10,0,40.6,336.7)" />
<use xlink:href="#f4_4" transform="matrix(0,-10,10,0,40.6,327.8)" />
<use xlink:href="#f4_f" transform="matrix(0,-10,10,0,40.6,321.1)" />
<use xlink:href="#f4_c" transform="matrix(0,-10,10,0,40.6,310)" />
<use xlink:href="#f4_6" transform="matrix(0,-10,10,0,40.6,302.4)" />
<use xlink:href="#f4_n" transform="matrix(0,-10,10,0,40.6,292.7)" />
<use xlink:href="#f4_i" transform="matrix(0,-10,10,0,40.6,288.5)" />
<use xlink:href="#f4_4" transform="matrix(0,-10,10,0,40.6,282.6)" />
<use xlink:href="#f4_f" transform="matrix(0,-10,10,0,40.6,275.8)" />
<use xlink:href="#f4_1" transform="matrix(0,-10,10,0,40.6,269.8)" />
<use xlink:href="#f4_i" transform="matrix(0,-10,10,0,40.6,262.2)" />
<use xlink:href="#f4_n" transform="matrix(0,-10,10,0,40.6,256.3)" />
<use xlink:href="#f4_c" transform="matrix(0,-10,10,0,40.6,252.1)" />
<use xlink:href="#f4_b" transform="matrix(0,-10,10,0,40.6,244.5)" />
<use xlink:href="#f4_g" transform="matrix(0,-10,10,0,40.6,236)" />
<use xlink:href="#f4_b" transform="matrix(0,-10,10,0,40.6,224.9)" />
<use xlink:href="#f4_4" transform="matrix(0,-10,10,0,40.6,216.5)" />
<use xlink:href="#f4_4" transform="matrix(0,-10,10,0,40.6,209.7)" />
<use xlink:href="#f4_3" transform="matrix(0,-10,10,0,40.6,202.9)" />
<use xlink:href="#f4_4" transform="matrix(0,-10,10,0,40.6,194.5)" />
<use xlink:href="#f4_3" transform="matrix(0,-10,10,0,40.6,187.7)" />
<use xlink:href="#f4_i" transform="matrix(0,-10,10,0,40.6,174.2)" />
<use xlink:href="#f4_c" transform="matrix(0,-10,10,0,40.6,168.3)" />
<use xlink:href="#f4_4" transform="matrix(0,-10,10,0,40.6,155.6)" />
<use xlink:href="#f4_l" transform="matrix(0,-10,10,0,40.6,148.8)" />
<use xlink:href="#f4_e" transform="matrix(0,-10,10,0,40.6,140.8)" />
<use xlink:href="#f4_8" transform="matrix(0,-10,10,0,40.6,132.3)" />
<use xlink:href="#f4_c" transform="matrix(0,-10,10,0,40.6,128.1)" />
<use xlink:href="#f4_f" transform="matrix(0,-10,10,0,40.6,120.5)" />
<use xlink:href="#f4_4" transform="matrix(0,-10,10,0,40.6,114.5)" />
<use xlink:href="#f4_1" transform="matrix(0,-10,10,0,40.6,102.7)" />
<use xlink:href="#f4_8" transform="matrix(0,-10,10,0,40.6,95.1)" />
<use xlink:href="#f4_8" transform="matrix(0,-10,10,0,40.6,90.9)" />
<use xlink:href="#f4_4" transform="matrix(0,-10,10,0,40.6,81.6)" />
<use xlink:href="#f4_8" transform="matrix(0,-10,10,0,40.6,74.8)" />
<use xlink:href="#f4_4" transform="matrix(0,-10,10,0,40.6,70.6)" />
<use xlink:href="#f4_9" transform="matrix(0,-10,10,0,40.6,63.8)" />
<use xlink:href="#f4_4" transform="matrix(0,-10,10,0,40.6,51.1)" />
<use xlink:href="#f4_b" transform="matrix(0,-10,10,0,40.6,44.3)" />
<use xlink:href="#f4_i" transform="matrix(0,-10,10,0,40.6,36.3)" />
<use xlink:href="#f4_g" transform="matrix(0,-10,10,0,40.6,30.4)" />
</g>
<text transform="matrix(0, -1, 1, 0, 40, 368)" dx="0,0,0,-0.4,0.4,0,0,1.3,0,0,1.3,0,0,0,0,0,0,0,0,0,0,1.3,0,0,0,0,0,0,1.3,0,0,1.3,0,0,0,0,0,0,0,1.3,0,0,0,1.3,0,0,0,0,0,-0.4,0" class="s5_1">Number of iterations needed to explore all elements</text>

</g>
<defs>
<path d="M76,0c0,37,0,40,17,57L387,383c84,95,160,216,160,338c0,125,-66,249,-205,249C254,970,171,914,136,814c5,2,8,2,20,2c53,0,81,-40,81,-80c0,-62,-54,-81,-80,-81c-4,0,-81,0,-81,86c0,136,113,277,286,277c186,0,324,-123,324,-297C686,568,594,486,356,275L194,118H469c34,0,134,0,145,12c15,23,26,90,34,136h38L643,0Z" 
id="f0_j"
transform="scale(0.001,-0.001)" />

<path d="M380,0c69,0,156,46,179,191c17,98,17,202,17,316c0,96,0,213,-15,298C532,956,431,984,380,984C342,984,228,970,199,788C186,706,186,605,186,507c0,-90,0,-230,17,-322C231,38,321,0,380,0Zm0,-33C306,-33,194,-2,128,121C66,237,60,374,60,489c0,122,7,241,56,347c63,142,174,182,266,182c64,0,189,-25,260,-172C695,733,703,611,703,489C703,368,695,249,646,144C579,-1,463,-33,380,-33Z" 
id="f0_m"
transform="scale(0.001,-0.001)" />

<path d="M458,299V869L86,299ZM301,0V47h32c113,0,116,17,116,72V252H43v47l469,717c12,18,17,18,30,18c25,0,25,-9,25,-39V299H720V252H567V119c0,-55,3,-72,116,-72h32V0C652,5,571,5,507,5C443,5,364,5,301,0Z" 
id="f0_7"
transform="scale(0.001,-0.001)" />

<path d="M383,9c36,0,106,8,152,99c26,55,26,132,26,205c0,75,0,153,-28,210c-47,94,-117,94,-142,94C254,617,205,464,205,345c0,-27,0,-149,27,-221C241,101,287,9,383,9Zm0,-42C241,-33,64,75,64,483c0,337,206,535,402,535c127,0,194,-74,194,-165c0,-60,-46,-74,-70,-74c-34,0,-71,23,-71,70c0,69,62,69,84,69c-33,52,-97,61,-134,61C391,979,202,924,202,538V501c30,73,87,151,191,151C562,652,698,506,698,312C698,110,553,-33,383,-33Z" 
id="f0_h"
transform="scale(0.001,-0.001)" />

<path d="M382,9C507,9,622,89,622,202c0,93,-72,139,-115,168L319,489C189,417,141,319,141,231C141,104,251,9,382,9Zm56,567c92,53,152,127,152,214c0,110,-98,189,-210,189C272,979,173,915,173,822c0,-26,6,-78,76,-124L438,576ZM380,-33C220,-33,64,69,64,231c0,151,132,237,220,281c-38,26,-95,64,-111,82c-65,72,-68,141,-68,168c0,142,124,256,277,256c139,0,275,-88,275,-228C657,689,582,610,472,553C570,492,594,477,623,445c58,-65,75,-133,75,-188C698,93,553,-33,380,-33Z" 
id="f0_5"
transform="scale(0.001,-0.001)" />

<path d="M145,0V47h49c138,0,142,19,142,74V912C257,872,167,872,136,872v48c49,0,183,0,278,98c35,0,35,-4,35,-40V121c0,-57,5,-74,142,-74h49V0C587,5,454,5,393,5C332,5,199,5,145,0Z" 
id="f0_d"
transform="scale(0.001,-0.001)" />

<path d="M171,-294c-8,0,-15,6,-15,17c0,5,0,8,17,24c50,51,104,142,104,255c0,21,-4,22,-4,22c0,0,-3,-1,-7,-4C251,6,231,0,212,0C162,0,131,40,131,81c0,43,31,81,81,81c60,0,98,-60,98,-160C310,-176,188,-294,171,-294Z" 
id="f1_2"
transform="scale(0.001,-0.001)" />

<path d="M212,0C168,0,131,37,131,81c0,44,37,81,81,81c45,0,81,-37,81,-81C293,37,257,0,212,0Z" 
id="f1_1"
transform="scale(0.001,-0.001)" />

<path d="M212,301c-44,0,-81,37,-81,81c0,44,37,81,81,81c45,0,81,-37,81,-81c0,-44,-36,-81,-81,-81Z" 
id="f2_1"
transform="scale(0.001,-0.001)" />

<path d="M519,306V865L116,306ZM344,0V55h41c124,0,124,18,124,70V251H60v55l505,702c16,22,22,22,40,22c34,0,34,-11,34,-43V306H808V251H639V125c0,-52,0,-70,123,-70h42V0L573,6L344,0Z" 
id="f3_1"
transform="scale(0.001,-0.001)" />

<path d="M50,0V47c158,0,158,72,158,113V958c0,29,-2,30,-37,35c-23,2,-53,3,-76,3H50v47H310c29,0,31,-1,44,-19L894,231V883c0,41,0,113,-158,113v47l179,-4l179,4V996C937,996,937,924,937,883V40C937,11,937,0,915,0C904,0,903,2,889,20L266,937c-6,9,-8,10,-15,18V160C251,119,251,47,408,47V0L229,5L50,0Z" 
id="f4_a"
transform="scale(0.001,-0.001)" />

<path d="M400,-16C168,-16,168,122,168,241V471c0,136,0,140,-119,140v47l224,17V168C273,89,280,17,408,17c111,0,185,104,185,237V526c0,74,-12,85,-119,85v47l224,17V133C698,58,710,47,817,47V0L597,-16V121C553,26,486,-16,400,-16Z" 
id="f4_k"
transform="scale(0.001,-0.001)" />

<path d="M49,0V47c102,0,119,0,119,69V526c0,74,-12,85,-119,85v47l215,17V515c43,95,115,160,226,160c69,0,182,-17,204,-149c26,58,93,149,221,149c89,0,139,-30,161,-56c47,-55,47,-103,47,-234V93c1,-46,40,-46,119,-46V0L1071,5L898,0V47c103,0,120,0,120,69V472c0,87,-17,170,-114,170C807,642,698,556,698,397V116C698,47,715,47,817,47V0L646,5L474,0V47c102,0,119,0,119,69V472c0,87,-17,170,-113,170C382,642,273,556,273,397V116C273,47,290,47,393,47V0L222,5L49,0Z" 
id="f4_9"
transform="scale(0.001,-0.001)" />

<path d="M449,17c83,0,141,50,173,98c44,68,47,160,47,217c0,62,-4,149,-44,212c-37,58,-92,98,-161,98C428,642,344,629,284,544C267,519,267,518,267,489V174c0,-27,0,-32,22,-64C325,53,380,17,449,17Zm6,-33C342,-16,278,60,255,95L200,0H162V911c0,74,-12,85,-119,85v47l220,17V576c24,27,90,99,209,99C646,675,796,524,796,330C796,133,637,-16,455,-16Z" 
id="f4_2"
transform="scale(0.001,-0.001)" />

<path d="M533,385c0,60,-15,266,-172,266C309,651,180,613,171,385ZM379,-16C203,-16,43,131,43,336c0,191,140,348,318,348C552,684,634,536,634,385c0,-32,-5,-32,-38,-32H170c0,-55,0,-156,45,-229C251,67,312,21,388,21c15,0,153,0,206,158c3,12,6,21,20,21c8,0,20,-3,20,-18C634,153,565,-16,379,-16Z" 
id="f4_4"
transform="scale(0.001,-0.001)" />

<path d="M43,0V47c102,0,119,0,119,69V526c0,74,-12,85,-119,85v47l212,17V507c22,66,77,168,188,168c66,0,113,-44,113,-93c0,-49,-38,-67,-66,-67c-33,0,-65,23,-65,66c0,39,30,58,35,59c-3,2,-6,2,-17,2C327,642,263,506,263,354V119c0,-55,3,-72,116,-72h32V0C350,5,278,5,217,5L43,0Z" 
id="f4_f"
transform="scale(0.001,-0.001)" />

<path d="M382,21c76,0,144,45,177,113c34,68,34,150,34,205c0,58,0,147,-40,213c-40,65,-105,99,-173,99C319,651,248,619,206,548C170,481,170,399,170,339c0,-55,0,-148,38,-215C249,53,316,21,382,21Zm-2,-37C202,-16,43,130,43,327c0,191,148,357,339,357C567,684,720,523,720,327C720,133,565,-16,380,-16Z" 
id="f4_c"
transform="scale(0.001,-0.001)" />

<path d="M52,0V47c102,0,119,0,119,69V611H50v47H171V834c0,162,130,243,237,243c81,0,137,-50,137,-107c0,-37,-22,-67,-67,-67c-41,0,-65,30,-65,66c0,38,27,58,45,64c-23,10,-45,10,-50,10C341,1043,267,970,267,836V658H446V611H272V119c0,-55,3,-72,116,-72h32V0C359,5,287,5,226,5L52,0Z" 
id="f4_6"
transform="scale(0.001,-0.001)" />

<path d="M50,0V47c103,0,120,0,120,69V911c0,74,-13,85,-120,85v47l220,17V116C270,47,287,47,390,47V0L220,5L50,0Z" 
id="f4_8"
transform="scale(0.001,-0.001)" />

<path d="M49,0V47c102,0,119,0,119,69V526c0,74,-12,85,-119,85v47l215,17V515c43,95,115,160,226,160c89,0,139,-30,161,-56c47,-55,47,-103,47,-234V93C700,47,738,47,817,47V0L646,5L474,0V47c102,0,119,0,119,69V472c0,87,-17,170,-113,170C382,642,273,556,273,397V116C273,47,290,47,393,47V0L222,5L49,0Z" 
id="f4_b"
transform="scale(0.001,-0.001)" />

<path d="M356,-16C301,-16,159,2,159,189V611H29v34c150,6,196,169,197,295h38V658H483V611H264V186C264,160,264,21,367,21c56,0,102,58,102,172v84h38V189C507,92,464,-16,356,-16Z" 
id="f4_i"
transform="scale(0.001,-0.001)" />

<path d="M67,-16C50,-16,50,-5,50,20V222c0,27,0,38,20,38c16,0,17,-6,22,-26C121,104,176,17,304,17c119,0,173,61,173,139C477,266,351,290,318,296C208,318,165,327,116,367C75,400,50,443,50,497c0,85,58,187,245,187c23,0,85,0,143,-42c7,4,22,18,26,24c20,18,23,18,31,18c17,0,17,-10,17,-36V493c0,-29,0,-36,-20,-36c0,0,-17,0,-18,14c-3,47,-11,184,-179,184C163,655,124,593,124,539C124,451,226,431,312,414c64,-12,123,-24,174,-73c18,-19,64,-64,64,-145C550,86,480,-16,304,-16c-32,0,-101,2,-168,65C108,20,108,17,105,14C76,-14,75,-16,67,-16Z" 
id="f4_g"
transform="scale(0.001,-0.001)" />

<path d="M50,0V47c103,0,120,0,120,69V527c0,75,-14,84,-113,84v47l213,17V115c0,-60,7,-68,107,-68V0C325,2,272,5,218,5L50,0ZM211,842c-46,0,-81,40,-81,81c0,38,30,81,82,81c46,0,81,-40,81,-81c0,-38,-30,-81,-82,-81Z" 
id="f4_n"
transform="scale(0.001,-0.001)" />

<path d="M304,17c69,0,179,52,179,197V367C231,358,167,231,167,147C167,70,229,17,304,17ZM293,-16C197,-16,49,21,49,145c0,67,38,147,153,199c96,46,203,50,281,55v56c0,136,-87,196,-162,196C272,651,197,634,156,581c70,-2,78,-52,78,-71c0,-39,-28,-70,-71,-70c-39,0,-70,26,-70,72c0,101,106,172,231,172c73,0,150,-24,209,-84c55,-56,55,-116,55,-180V115c0,-8,6,-77,57,-77c17,0,55,9,55,98v86h38V136C738,12,645,-8,613,-8C541,-8,500,55,493,116C464,44,394,-16,293,-16Z" 
id="f4_1"
transform="scale(0.001,-0.001)" />

<path d="M383,17c66,0,135,33,181,107c17,26,17,29,17,56V493c0,28,0,31,-17,57c-48,69,-112,92,-165,92C316,642,258,591,226,544C182,475,179,383,179,327c0,-63,4,-150,44,-212C260,57,315,17,383,17Zm-7,-33C202,-16,52,134,52,328c0,198,160,347,341,347c82,0,148,-39,192,-94V911c0,74,-12,85,-119,85v47l220,17V133C686,58,698,47,805,47V0L581,-16V84C542,35,474,-16,376,-16Z" 
id="f4_3"
transform="scale(0.001,-0.001)" />

<path d="M18,0V47c32,0,123,3,196,92c72,87,72,90,144,182L206,518c-72,92,-73,93,-180,93v47c41,-3,113,-4,145,-4l165,4V611c-30,-1,-53,-15,-53,-38c0,-9,0,-12,13,-28L416,391l94,119c8,9,23,29,23,54c0,24,-12,44,-44,47v47c20,-1,101,-4,147,-4c39,0,85,1,125,4V611C689,610,626,587,579,532C542,492,484,417,438,359L643,95C678,50,706,47,788,47V0C743,3,683,5,642,5L477,0V47c41,2,55,25,55,39c0,9,-20,33,-32,50L383,289C290,179,246,128,246,95c0,-23,11,-43,44,-48V0L145,5C105,5,58,3,18,0Z" 
id="f4_l"
transform="scale(0.001,-0.001)" />

<path d="M449,17c113,0,220,128,220,313c0,173,-93,307,-205,307C387,637,312,593,267,515V174c0,-30,0,-32,22,-64C330,47,388,17,449,17ZM43,-295v47c102,0,119,0,119,69V535c0,67,-11,76,-119,76v47l220,17V574c30,34,95,101,214,101C648,675,796,524,796,330C796,133,637,-16,455,-16C339,-16,275,66,267,90V-179c0,-69,17,-69,120,-69v-47l-173,4L43,-295Z" 
id="f4_e"
transform="scale(0.001,-0.001)" />


</defs>

<!-- Any embedded fonts defined here -->
<style type="text/css" ><![CDATA[

@font-face {
	font-family: LMMathItalic10-Regular_8;
	src: url("fonts/LMMathItalic10-Regular_8.woff") format("woff");
}

@font-face {
	font-family: LMMathSymbols10-Regular_9;
	src: url("fonts/LMMathSymbols10-Regular_9.woff") format("woff");
}

@font-face {
	font-family: LMRoman10-Regular_7;
	src: url("fonts/LMRoman10-Regular_7.woff") format("woff");
}

@font-face {
	font-family: LMRoman10-Regular_b;
	src: url("fonts/LMRoman10-Regular_b.woff") format("woff");
}

@font-face {
	font-family: LMRoman7-Regular_a;
	src: url("fonts/LMRoman7-Regular_a.woff") format("woff");
}

]]></style>

</svg>
