<?xml version="1.0" encoding="utf-8" standalone="no"?>
<!DOCTYPE svg PUBLIC "-//W3C//DTD SVG 1.1//EN"
  "http://www.w3.org/Graphics/SVG/1.1/DTD/svg11.dtd">
<!-- Created with matplotlib (http://matplotlib.org/) -->
<svg height="314.36825pt" version="1.1" viewBox="0 0 411.60125 314.36825" width="411.60125pt" xmlns="http://www.w3.org/2000/svg" xmlns:xlink="http://www.w3.org/1999/xlink">
 <defs>
  <style type="text/css">
*{stroke-linecap:butt;stroke-linejoin:round;}
  </style>
 </defs>
 <g id="figure_1">
  <g id="patch_1">
   <path d="M 0 314.36825 
L 411.60125 314.36825 
L 411.60125 0 
L 0 0 
z
" style="fill:#ffffff;"/>
  </g>
  <g id="axes_1">
   <g id="patch_2">
    <path d="M 43.78125 276.812 
L 400.90125 276.812 
L 400.90125 10.7 
L 43.78125 10.7 
z
" style="fill:#ffffff;"/>
   </g>
   <g id="matplotlib.axis_1">
    <g id="xtick_1">
     <g id="line2d_1">
      <path clip-path="url(#p58d0f3ab87)" d="M 59.949163 276.812 
L 59.949163 10.7 
" style="fill:none;stroke:#b0b0b0;stroke-linecap:square;stroke-width:0.8;"/>
     </g>
     <g id="line2d_2">
      <defs>
       <path d="M 0 0 
L 0 3.5 
" id="mf674703425" style="stroke:#000000;stroke-width:0.8;"/>
      </defs>
      <g>
       <use style="stroke:#000000;stroke-width:0.8;" x="59.949163" xlink:href="#mf674703425" y="276.812"/>
      </g>
     </g>
     <g id="text_1">
      <!-- 0 -->
      <defs>
       <path d="M 31.78125 66.40625 
Q 24.171875 66.40625 20.328125 58.90625 
Q 16.5 51.421875 16.5 36.375 
Q 16.5 21.390625 20.328125 13.890625 
Q 24.171875 6.390625 31.78125 6.390625 
Q 39.453125 6.390625 43.28125 13.890625 
Q 47.125 21.390625 47.125 36.375 
Q 47.125 51.421875 43.28125 58.90625 
Q 39.453125 66.40625 31.78125 66.40625 
z
M 31.78125 74.21875 
Q 44.046875 74.21875 50.515625 64.515625 
Q 56.984375 54.828125 56.984375 36.375 
Q 56.984375 17.96875 50.515625 8.265625 
Q 44.046875 -1.421875 31.78125 -1.421875 
Q 19.53125 -1.421875 13.0625 8.265625 
Q 6.59375 17.96875 6.59375 36.375 
Q 6.59375 54.828125 13.0625 64.515625 
Q 19.53125 74.21875 31.78125 74.21875 
z
" id="DejaVuSans-30"/>
      </defs>
      <g transform="translate(56.767913 291.410438)scale(0.1 -0.1)">
       <use xlink:href="#DejaVuSans-30"/>
      </g>
     </g>
    </g>
    <g id="xtick_2">
     <g id="line2d_3">
      <path clip-path="url(#p58d0f3ab87)" d="M 92.356285 276.812 
L 92.356285 10.7 
" style="fill:none;stroke:#b0b0b0;stroke-linecap:square;stroke-width:0.8;"/>
     </g>
     <g id="line2d_4">
      <g>
       <use style="stroke:#000000;stroke-width:0.8;" x="92.356285" xlink:href="#mf674703425" y="276.812"/>
      </g>
     </g>
     <g id="text_2">
      <!-- 500 -->
      <defs>
       <path d="M 10.796875 72.90625 
L 49.515625 72.90625 
L 49.515625 64.59375 
L 19.828125 64.59375 
L 19.828125 46.734375 
Q 21.96875 47.46875 24.109375 47.828125 
Q 26.265625 48.1875 28.421875 48.1875 
Q 40.625 48.1875 47.75 41.5 
Q 54.890625 34.8125 54.890625 23.390625 
Q 54.890625 11.625 47.5625 5.09375 
Q 40.234375 -1.421875 26.90625 -1.421875 
Q 22.3125 -1.421875 17.546875 -0.640625 
Q 12.796875 0.140625 7.71875 1.703125 
L 7.71875 11.625 
Q 12.109375 9.234375 16.796875 8.0625 
Q 21.484375 6.890625 26.703125 6.890625 
Q 35.15625 6.890625 40.078125 11.328125 
Q 45.015625 15.765625 45.015625 23.390625 
Q 45.015625 31 40.078125 35.4375 
Q 35.15625 39.890625 26.703125 39.890625 
Q 22.75 39.890625 18.8125 39.015625 
Q 14.890625 38.140625 10.796875 36.28125 
z
" id="DejaVuSans-35"/>
      </defs>
      <g transform="translate(82.812535 291.410438)scale(0.1 -0.1)">
       <use xlink:href="#DejaVuSans-35"/>
       <use x="63.623047" xlink:href="#DejaVuSans-30"/>
       <use x="127.246094" xlink:href="#DejaVuSans-30"/>
      </g>
     </g>
    </g>
    <g id="xtick_3">
     <g id="line2d_5">
      <path clip-path="url(#p58d0f3ab87)" d="M 124.763406 276.812 
L 124.763406 10.7 
" style="fill:none;stroke:#b0b0b0;stroke-linecap:square;stroke-width:0.8;"/>
     </g>
     <g id="line2d_6">
      <g>
       <use style="stroke:#000000;stroke-width:0.8;" x="124.763406" xlink:href="#mf674703425" y="276.812"/>
      </g>
     </g>
     <g id="text_3">
      <!-- 1000 -->
      <defs>
       <path d="M 12.40625 8.296875 
L 28.515625 8.296875 
L 28.515625 63.921875 
L 10.984375 60.40625 
L 10.984375 69.390625 
L 28.421875 72.90625 
L 38.28125 72.90625 
L 38.28125 8.296875 
L 54.390625 8.296875 
L 54.390625 0 
L 12.40625 0 
z
" id="DejaVuSans-31"/>
      </defs>
      <g transform="translate(112.038406 291.410438)scale(0.1 -0.1)">
       <use xlink:href="#DejaVuSans-31"/>
       <use x="63.623047" xlink:href="#DejaVuSans-30"/>
       <use x="127.246094" xlink:href="#DejaVuSans-30"/>
       <use x="190.869141" xlink:href="#DejaVuSans-30"/>
      </g>
     </g>
    </g>
    <g id="xtick_4">
     <g id="line2d_7">
      <path clip-path="url(#p58d0f3ab87)" d="M 157.170528 276.812 
L 157.170528 10.7 
" style="fill:none;stroke:#b0b0b0;stroke-linecap:square;stroke-width:0.8;"/>
     </g>
     <g id="line2d_8">
      <g>
       <use style="stroke:#000000;stroke-width:0.8;" x="157.170528" xlink:href="#mf674703425" y="276.812"/>
      </g>
     </g>
     <g id="text_4">
      <!-- 1500 -->
      <g transform="translate(144.445528 291.410438)scale(0.1 -0.1)">
       <use xlink:href="#DejaVuSans-31"/>
       <use x="63.623047" xlink:href="#DejaVuSans-35"/>
       <use x="127.246094" xlink:href="#DejaVuSans-30"/>
       <use x="190.869141" xlink:href="#DejaVuSans-30"/>
      </g>
     </g>
    </g>
    <g id="xtick_5">
     <g id="line2d_9">
      <path clip-path="url(#p58d0f3ab87)" d="M 189.57765 276.812 
L 189.57765 10.7 
" style="fill:none;stroke:#b0b0b0;stroke-linecap:square;stroke-width:0.8;"/>
     </g>
     <g id="line2d_10">
      <g>
       <use style="stroke:#000000;stroke-width:0.8;" x="189.57765" xlink:href="#mf674703425" y="276.812"/>
      </g>
     </g>
     <g id="text_5">
      <!-- 2000 -->
      <defs>
       <path d="M 19.1875 8.296875 
L 53.609375 8.296875 
L 53.609375 0 
L 7.328125 0 
L 7.328125 8.296875 
Q 12.9375 14.109375 22.625 23.890625 
Q 32.328125 33.6875 34.8125 36.53125 
Q 39.546875 41.84375 41.421875 45.53125 
Q 43.3125 49.21875 43.3125 52.78125 
Q 43.3125 58.59375 39.234375 62.25 
Q 35.15625 65.921875 28.609375 65.921875 
Q 23.96875 65.921875 18.8125 64.3125 
Q 13.671875 62.703125 7.8125 59.421875 
L 7.8125 69.390625 
Q 13.765625 71.78125 18.9375 73 
Q 24.125 74.21875 28.421875 74.21875 
Q 39.75 74.21875 46.484375 68.546875 
Q 53.21875 62.890625 53.21875 53.421875 
Q 53.21875 48.921875 51.53125 44.890625 
Q 49.859375 40.875 45.40625 35.40625 
Q 44.1875 33.984375 37.640625 27.21875 
Q 31.109375 20.453125 19.1875 8.296875 
z
" id="DejaVuSans-32"/>
      </defs>
      <g transform="translate(176.85265 291.410438)scale(0.1 -0.1)">
       <use xlink:href="#DejaVuSans-32"/>
       <use x="63.623047" xlink:href="#DejaVuSans-30"/>
       <use x="127.246094" xlink:href="#DejaVuSans-30"/>
       <use x="190.869141" xlink:href="#DejaVuSans-30"/>
      </g>
     </g>
    </g>
    <g id="xtick_6">
     <g id="line2d_11">
      <path clip-path="url(#p58d0f3ab87)" d="M 221.984772 276.812 
L 221.984772 10.7 
" style="fill:none;stroke:#b0b0b0;stroke-linecap:square;stroke-width:0.8;"/>
     </g>
     <g id="line2d_12">
      <g>
       <use style="stroke:#000000;stroke-width:0.8;" x="221.984772" xlink:href="#mf674703425" y="276.812"/>
      </g>
     </g>
     <g id="text_6">
      <!-- 2500 -->
      <g transform="translate(209.259772 291.410438)scale(0.1 -0.1)">
       <use xlink:href="#DejaVuSans-32"/>
       <use x="63.623047" xlink:href="#DejaVuSans-35"/>
       <use x="127.246094" xlink:href="#DejaVuSans-30"/>
       <use x="190.869141" xlink:href="#DejaVuSans-30"/>
      </g>
     </g>
    </g>
    <g id="xtick_7">
     <g id="line2d_13">
      <path clip-path="url(#p58d0f3ab87)" d="M 254.391893 276.812 
L 254.391893 10.7 
" style="fill:none;stroke:#b0b0b0;stroke-linecap:square;stroke-width:0.8;"/>
     </g>
     <g id="line2d_14">
      <g>
       <use style="stroke:#000000;stroke-width:0.8;" x="254.391893" xlink:href="#mf674703425" y="276.812"/>
      </g>
     </g>
     <g id="text_7">
      <!-- 3000 -->
      <defs>
       <path d="M 40.578125 39.3125 
Q 47.65625 37.796875 51.625 33 
Q 55.609375 28.21875 55.609375 21.1875 
Q 55.609375 10.40625 48.1875 4.484375 
Q 40.765625 -1.421875 27.09375 -1.421875 
Q 22.515625 -1.421875 17.65625 -0.515625 
Q 12.796875 0.390625 7.625 2.203125 
L 7.625 11.71875 
Q 11.71875 9.328125 16.59375 8.109375 
Q 21.484375 6.890625 26.8125 6.890625 
Q 36.078125 6.890625 40.9375 10.546875 
Q 45.796875 14.203125 45.796875 21.1875 
Q 45.796875 27.640625 41.28125 31.265625 
Q 36.765625 34.90625 28.71875 34.90625 
L 20.21875 34.90625 
L 20.21875 43.015625 
L 29.109375 43.015625 
Q 36.375 43.015625 40.234375 45.921875 
Q 44.09375 48.828125 44.09375 54.296875 
Q 44.09375 59.90625 40.109375 62.90625 
Q 36.140625 65.921875 28.71875 65.921875 
Q 24.65625 65.921875 20.015625 65.03125 
Q 15.375 64.15625 9.8125 62.3125 
L 9.8125 71.09375 
Q 15.4375 72.65625 20.34375 73.4375 
Q 25.25 74.21875 29.59375 74.21875 
Q 40.828125 74.21875 47.359375 69.109375 
Q 53.90625 64.015625 53.90625 55.328125 
Q 53.90625 49.265625 50.4375 45.09375 
Q 46.96875 40.921875 40.578125 39.3125 
z
" id="DejaVuSans-33"/>
      </defs>
      <g transform="translate(241.666893 291.410438)scale(0.1 -0.1)">
       <use xlink:href="#DejaVuSans-33"/>
       <use x="63.623047" xlink:href="#DejaVuSans-30"/>
       <use x="127.246094" xlink:href="#DejaVuSans-30"/>
       <use x="190.869141" xlink:href="#DejaVuSans-30"/>
      </g>
     </g>
    </g>
    <g id="xtick_8">
     <g id="line2d_15">
      <path clip-path="url(#p58d0f3ab87)" d="M 286.799015 276.812 
L 286.799015 10.7 
" style="fill:none;stroke:#b0b0b0;stroke-linecap:square;stroke-width:0.8;"/>
     </g>
     <g id="line2d_16">
      <g>
       <use style="stroke:#000000;stroke-width:0.8;" x="286.799015" xlink:href="#mf674703425" y="276.812"/>
      </g>
     </g>
     <g id="text_8">
      <!-- 3500 -->
      <g transform="translate(274.074015 291.410438)scale(0.1 -0.1)">
       <use xlink:href="#DejaVuSans-33"/>
       <use x="63.623047" xlink:href="#DejaVuSans-35"/>
       <use x="127.246094" xlink:href="#DejaVuSans-30"/>
       <use x="190.869141" xlink:href="#DejaVuSans-30"/>
      </g>
     </g>
    </g>
    <g id="xtick_9">
     <g id="line2d_17">
      <path clip-path="url(#p58d0f3ab87)" d="M 319.206137 276.812 
L 319.206137 10.7 
" style="fill:none;stroke:#b0b0b0;stroke-linecap:square;stroke-width:0.8;"/>
     </g>
     <g id="line2d_18">
      <g>
       <use style="stroke:#000000;stroke-width:0.8;" x="319.206137" xlink:href="#mf674703425" y="276.812"/>
      </g>
     </g>
     <g id="text_9">
      <!-- 4000 -->
      <defs>
       <path d="M 37.796875 64.3125 
L 12.890625 25.390625 
L 37.796875 25.390625 
z
M 35.203125 72.90625 
L 47.609375 72.90625 
L 47.609375 25.390625 
L 58.015625 25.390625 
L 58.015625 17.1875 
L 47.609375 17.1875 
L 47.609375 0 
L 37.796875 0 
L 37.796875 17.1875 
L 4.890625 17.1875 
L 4.890625 26.703125 
z
" id="DejaVuSans-34"/>
      </defs>
      <g transform="translate(306.481137 291.410438)scale(0.1 -0.1)">
       <use xlink:href="#DejaVuSans-34"/>
       <use x="63.623047" xlink:href="#DejaVuSans-30"/>
       <use x="127.246094" xlink:href="#DejaVuSans-30"/>
       <use x="190.869141" xlink:href="#DejaVuSans-30"/>
      </g>
     </g>
    </g>
    <g id="xtick_10">
     <g id="line2d_19">
      <path clip-path="url(#p58d0f3ab87)" d="M 351.613259 276.812 
L 351.613259 10.7 
" style="fill:none;stroke:#b0b0b0;stroke-linecap:square;stroke-width:0.8;"/>
     </g>
     <g id="line2d_20">
      <g>
       <use style="stroke:#000000;stroke-width:0.8;" x="351.613259" xlink:href="#mf674703425" y="276.812"/>
      </g>
     </g>
     <g id="text_10">
      <!-- 4500 -->
      <g transform="translate(338.888259 291.410438)scale(0.1 -0.1)">
       <use xlink:href="#DejaVuSans-34"/>
       <use x="63.623047" xlink:href="#DejaVuSans-35"/>
       <use x="127.246094" xlink:href="#DejaVuSans-30"/>
       <use x="190.869141" xlink:href="#DejaVuSans-30"/>
      </g>
     </g>
    </g>
    <g id="xtick_11">
     <g id="line2d_21">
      <path clip-path="url(#p58d0f3ab87)" d="M 384.02038 276.812 
L 384.02038 10.7 
" style="fill:none;stroke:#b0b0b0;stroke-linecap:square;stroke-width:0.8;"/>
     </g>
     <g id="line2d_22">
      <g>
       <use style="stroke:#000000;stroke-width:0.8;" x="384.02038" xlink:href="#mf674703425" y="276.812"/>
      </g>
     </g>
     <g id="text_11">
      <!-- 5000 -->
      <g transform="translate(371.29538 291.410438)scale(0.1 -0.1)">
       <use xlink:href="#DejaVuSans-35"/>
       <use x="63.623047" xlink:href="#DejaVuSans-30"/>
       <use x="127.246094" xlink:href="#DejaVuSans-30"/>
       <use x="190.869141" xlink:href="#DejaVuSans-30"/>
      </g>
     </g>
    </g>
    <g id="text_12">
     <!-- Steps -->
     <defs>
      <path d="M 53.515625 70.515625 
L 53.515625 60.890625 
Q 47.90625 63.578125 42.921875 64.890625 
Q 37.9375 66.21875 33.296875 66.21875 
Q 25.25 66.21875 20.875 63.09375 
Q 16.5 59.96875 16.5 54.203125 
Q 16.5 49.359375 19.40625 46.890625 
Q 22.3125 44.4375 30.421875 42.921875 
L 36.375 41.703125 
Q 47.40625 39.59375 52.65625 34.296875 
Q 57.90625 29 57.90625 20.125 
Q 57.90625 9.515625 50.796875 4.046875 
Q 43.703125 -1.421875 29.984375 -1.421875 
Q 24.8125 -1.421875 18.96875 -0.25 
Q 13.140625 0.921875 6.890625 3.21875 
L 6.890625 13.375 
Q 12.890625 10.015625 18.65625 8.296875 
Q 24.421875 6.59375 29.984375 6.59375 
Q 38.421875 6.59375 43.015625 9.90625 
Q 47.609375 13.234375 47.609375 19.390625 
Q 47.609375 24.75 44.3125 27.78125 
Q 41.015625 30.8125 33.5 32.328125 
L 27.484375 33.5 
Q 16.453125 35.6875 11.515625 40.375 
Q 6.59375 45.0625 6.59375 53.421875 
Q 6.59375 63.09375 13.40625 68.65625 
Q 20.21875 74.21875 32.171875 74.21875 
Q 37.3125 74.21875 42.625 73.28125 
Q 47.953125 72.359375 53.515625 70.515625 
z
" id="DejaVuSans-53"/>
      <path d="M 18.3125 70.21875 
L 18.3125 54.6875 
L 36.8125 54.6875 
L 36.8125 47.703125 
L 18.3125 47.703125 
L 18.3125 18.015625 
Q 18.3125 11.328125 20.140625 9.421875 
Q 21.96875 7.515625 27.59375 7.515625 
L 36.8125 7.515625 
L 36.8125 0 
L 27.59375 0 
Q 17.1875 0 13.234375 3.875 
Q 9.28125 7.765625 9.28125 18.015625 
L 9.28125 47.703125 
L 2.6875 47.703125 
L 2.6875 54.6875 
L 9.28125 54.6875 
L 9.28125 70.21875 
z
" id="DejaVuSans-74"/>
      <path d="M 56.203125 29.59375 
L 56.203125 25.203125 
L 14.890625 25.203125 
Q 15.484375 15.921875 20.484375 11.0625 
Q 25.484375 6.203125 34.421875 6.203125 
Q 39.59375 6.203125 44.453125 7.46875 
Q 49.3125 8.734375 54.109375 11.28125 
L 54.109375 2.78125 
Q 49.265625 0.734375 44.1875 -0.34375 
Q 39.109375 -1.421875 33.890625 -1.421875 
Q 20.796875 -1.421875 13.15625 6.1875 
Q 5.515625 13.8125 5.515625 26.8125 
Q 5.515625 40.234375 12.765625 48.109375 
Q 20.015625 56 32.328125 56 
Q 43.359375 56 49.78125 48.890625 
Q 56.203125 41.796875 56.203125 29.59375 
z
M 47.21875 32.234375 
Q 47.125 39.59375 43.09375 43.984375 
Q 39.0625 48.390625 32.421875 48.390625 
Q 24.90625 48.390625 20.390625 44.140625 
Q 15.875 39.890625 15.1875 32.171875 
z
" id="DejaVuSans-65"/>
      <path d="M 18.109375 8.203125 
L 18.109375 -20.796875 
L 9.078125 -20.796875 
L 9.078125 54.6875 
L 18.109375 54.6875 
L 18.109375 46.390625 
Q 20.953125 51.265625 25.265625 53.625 
Q 29.59375 56 35.59375 56 
Q 45.5625 56 51.78125 48.09375 
Q 58.015625 40.1875 58.015625 27.296875 
Q 58.015625 14.40625 51.78125 6.484375 
Q 45.5625 -1.421875 35.59375 -1.421875 
Q 29.59375 -1.421875 25.265625 0.953125 
Q 20.953125 3.328125 18.109375 8.203125 
z
M 48.6875 27.296875 
Q 48.6875 37.203125 44.609375 42.84375 
Q 40.53125 48.484375 33.40625 48.484375 
Q 26.265625 48.484375 22.1875 42.84375 
Q 18.109375 37.203125 18.109375 27.296875 
Q 18.109375 17.390625 22.1875 11.75 
Q 26.265625 6.109375 33.40625 6.109375 
Q 40.53125 6.109375 44.609375 11.75 
Q 48.6875 17.390625 48.6875 27.296875 
z
" id="DejaVuSans-70"/>
      <path d="M 44.28125 53.078125 
L 44.28125 44.578125 
Q 40.484375 46.53125 36.375 47.5 
Q 32.28125 48.484375 27.875 48.484375 
Q 21.1875 48.484375 17.84375 46.4375 
Q 14.5 44.390625 14.5 40.28125 
Q 14.5 37.15625 16.890625 35.375 
Q 19.28125 33.59375 26.515625 31.984375 
L 29.59375 31.296875 
Q 39.15625 29.25 43.1875 25.515625 
Q 47.21875 21.78125 47.21875 15.09375 
Q 47.21875 7.46875 41.1875 3.015625 
Q 35.15625 -1.421875 24.609375 -1.421875 
Q 20.21875 -1.421875 15.453125 -0.5625 
Q 10.6875 0.296875 5.421875 2 
L 5.421875 11.28125 
Q 10.40625 8.6875 15.234375 7.390625 
Q 20.0625 6.109375 24.8125 6.109375 
Q 31.15625 6.109375 34.5625 8.28125 
Q 37.984375 10.453125 37.984375 14.40625 
Q 37.984375 18.0625 35.515625 20.015625 
Q 33.0625 21.96875 24.703125 23.78125 
L 21.578125 24.515625 
Q 13.234375 26.265625 9.515625 29.90625 
Q 5.8125 33.546875 5.8125 39.890625 
Q 5.8125 47.609375 11.28125 51.796875 
Q 16.75 56 26.8125 56 
Q 31.78125 56 36.171875 55.265625 
Q 40.578125 54.546875 44.28125 53.078125 
z
" id="DejaVuSans-73"/>
     </defs>
     <g transform="translate(208.351406 305.088562)scale(0.1 -0.1)">
      <use xlink:href="#DejaVuSans-53"/>
      <use x="63.476562" xlink:href="#DejaVuSans-74"/>
      <use x="102.685547" xlink:href="#DejaVuSans-65"/>
      <use x="164.208984" xlink:href="#DejaVuSans-70"/>
      <use x="227.685547" xlink:href="#DejaVuSans-73"/>
     </g>
    </g>
   </g>
   <g id="matplotlib.axis_2">
    <g id="ytick_1">
     <g id="line2d_23">
      <path clip-path="url(#p58d0f3ab87)" d="M 43.78125 227.902087 
L 400.90125 227.902087 
" style="fill:none;stroke:#b0b0b0;stroke-linecap:square;stroke-width:0.8;"/>
     </g>
     <g id="line2d_24">
      <defs>
       <path d="M 0 0 
L -3.5 0 
" id="mc4cca1e42a" style="stroke:#000000;stroke-width:0.8;"/>
      </defs>
      <g>
       <use style="stroke:#000000;stroke-width:0.8;" x="43.78125" xlink:href="#mc4cca1e42a" y="227.902087"/>
      </g>
     </g>
     <g id="text_13">
      <!-- 3.2 -->
      <defs>
       <path d="M 10.6875 12.40625 
L 21 12.40625 
L 21 0 
L 10.6875 0 
z
" id="DejaVuSans-2e"/>
      </defs>
      <g transform="translate(20.878125 231.701306)scale(0.1 -0.1)">
       <use xlink:href="#DejaVuSans-33"/>
       <use x="63.623047" xlink:href="#DejaVuSans-2e"/>
       <use x="95.410156" xlink:href="#DejaVuSans-32"/>
      </g>
     </g>
    </g>
    <g id="ytick_2">
     <g id="line2d_25">
      <path clip-path="url(#p58d0f3ab87)" d="M 43.78125 176.625565 
L 400.90125 176.625565 
" style="fill:none;stroke:#b0b0b0;stroke-linecap:square;stroke-width:0.8;"/>
     </g>
     <g id="line2d_26">
      <g>
       <use style="stroke:#000000;stroke-width:0.8;" x="43.78125" xlink:href="#mc4cca1e42a" y="176.625565"/>
      </g>
     </g>
     <g id="text_14">
      <!-- 3.4 -->
      <g transform="translate(20.878125 180.424784)scale(0.1 -0.1)">
       <use xlink:href="#DejaVuSans-33"/>
       <use x="63.623047" xlink:href="#DejaVuSans-2e"/>
       <use x="95.410156" xlink:href="#DejaVuSans-34"/>
      </g>
     </g>
    </g>
    <g id="ytick_3">
     <g id="line2d_27">
      <path clip-path="url(#p58d0f3ab87)" d="M 43.78125 125.349043 
L 400.90125 125.349043 
" style="fill:none;stroke:#b0b0b0;stroke-linecap:square;stroke-width:0.8;"/>
     </g>
     <g id="line2d_28">
      <g>
       <use style="stroke:#000000;stroke-width:0.8;" x="43.78125" xlink:href="#mc4cca1e42a" y="125.349043"/>
      </g>
     </g>
     <g id="text_15">
      <!-- 3.6 -->
      <defs>
       <path d="M 33.015625 40.375 
Q 26.375 40.375 22.484375 35.828125 
Q 18.609375 31.296875 18.609375 23.390625 
Q 18.609375 15.53125 22.484375 10.953125 
Q 26.375 6.390625 33.015625 6.390625 
Q 39.65625 6.390625 43.53125 10.953125 
Q 47.40625 15.53125 47.40625 23.390625 
Q 47.40625 31.296875 43.53125 35.828125 
Q 39.65625 40.375 33.015625 40.375 
z
M 52.59375 71.296875 
L 52.59375 62.3125 
Q 48.875 64.0625 45.09375 64.984375 
Q 41.3125 65.921875 37.59375 65.921875 
Q 27.828125 65.921875 22.671875 59.328125 
Q 17.53125 52.734375 16.796875 39.40625 
Q 19.671875 43.65625 24.015625 45.921875 
Q 28.375 48.1875 33.59375 48.1875 
Q 44.578125 48.1875 50.953125 41.515625 
Q 57.328125 34.859375 57.328125 23.390625 
Q 57.328125 12.15625 50.6875 5.359375 
Q 44.046875 -1.421875 33.015625 -1.421875 
Q 20.359375 -1.421875 13.671875 8.265625 
Q 6.984375 17.96875 6.984375 36.375 
Q 6.984375 53.65625 15.1875 63.9375 
Q 23.390625 74.21875 37.203125 74.21875 
Q 40.921875 74.21875 44.703125 73.484375 
Q 48.484375 72.75 52.59375 71.296875 
z
" id="DejaVuSans-36"/>
      </defs>
      <g transform="translate(20.878125 129.148262)scale(0.1 -0.1)">
       <use xlink:href="#DejaVuSans-33"/>
       <use x="63.623047" xlink:href="#DejaVuSans-2e"/>
       <use x="95.410156" xlink:href="#DejaVuSans-36"/>
      </g>
     </g>
    </g>
    <g id="ytick_4">
     <g id="line2d_29">
      <path clip-path="url(#p58d0f3ab87)" d="M 43.78125 74.072522 
L 400.90125 74.072522 
" style="fill:none;stroke:#b0b0b0;stroke-linecap:square;stroke-width:0.8;"/>
     </g>
     <g id="line2d_30">
      <g>
       <use style="stroke:#000000;stroke-width:0.8;" x="43.78125" xlink:href="#mc4cca1e42a" y="74.072522"/>
      </g>
     </g>
     <g id="text_16">
      <!-- 3.8 -->
      <defs>
       <path d="M 31.78125 34.625 
Q 24.75 34.625 20.71875 30.859375 
Q 16.703125 27.09375 16.703125 20.515625 
Q 16.703125 13.921875 20.71875 10.15625 
Q 24.75 6.390625 31.78125 6.390625 
Q 38.8125 6.390625 42.859375 10.171875 
Q 46.921875 13.96875 46.921875 20.515625 
Q 46.921875 27.09375 42.890625 30.859375 
Q 38.875 34.625 31.78125 34.625 
z
M 21.921875 38.8125 
Q 15.578125 40.375 12.03125 44.71875 
Q 8.5 49.078125 8.5 55.328125 
Q 8.5 64.0625 14.71875 69.140625 
Q 20.953125 74.21875 31.78125 74.21875 
Q 42.671875 74.21875 48.875 69.140625 
Q 55.078125 64.0625 55.078125 55.328125 
Q 55.078125 49.078125 51.53125 44.71875 
Q 48 40.375 41.703125 38.8125 
Q 48.828125 37.15625 52.796875 32.3125 
Q 56.78125 27.484375 56.78125 20.515625 
Q 56.78125 9.90625 50.3125 4.234375 
Q 43.84375 -1.421875 31.78125 -1.421875 
Q 19.734375 -1.421875 13.25 4.234375 
Q 6.78125 9.90625 6.78125 20.515625 
Q 6.78125 27.484375 10.78125 32.3125 
Q 14.796875 37.15625 21.921875 38.8125 
z
M 18.3125 54.390625 
Q 18.3125 48.734375 21.84375 45.5625 
Q 25.390625 42.390625 31.78125 42.390625 
Q 38.140625 42.390625 41.71875 45.5625 
Q 45.3125 48.734375 45.3125 54.390625 
Q 45.3125 60.0625 41.71875 63.234375 
Q 38.140625 66.40625 31.78125 66.40625 
Q 25.390625 66.40625 21.84375 63.234375 
Q 18.3125 60.0625 18.3125 54.390625 
z
" id="DejaVuSans-38"/>
      </defs>
      <g transform="translate(20.878125 77.87174)scale(0.1 -0.1)">
       <use xlink:href="#DejaVuSans-33"/>
       <use x="63.623047" xlink:href="#DejaVuSans-2e"/>
       <use x="95.410156" xlink:href="#DejaVuSans-38"/>
      </g>
     </g>
    </g>
    <g id="ytick_5">
     <g id="line2d_31">
      <path clip-path="url(#p58d0f3ab87)" d="M 43.78125 22.796 
L 400.90125 22.796 
" style="fill:none;stroke:#b0b0b0;stroke-linecap:square;stroke-width:0.8;"/>
     </g>
     <g id="line2d_32">
      <g>
       <use style="stroke:#000000;stroke-width:0.8;" x="43.78125" xlink:href="#mc4cca1e42a" y="22.796"/>
      </g>
     </g>
     <g id="text_17">
      <!-- 4.0 -->
      <g transform="translate(20.878125 26.595219)scale(0.1 -0.1)">
       <use xlink:href="#DejaVuSans-34"/>
       <use x="63.623047" xlink:href="#DejaVuSans-2e"/>
       <use x="95.410156" xlink:href="#DejaVuSans-30"/>
      </g>
     </g>
    </g>
    <g id="text_18">
     <!-- Value -->
     <defs>
      <path d="M 28.609375 0 
L 0.78125 72.90625 
L 11.078125 72.90625 
L 34.1875 11.53125 
L 57.328125 72.90625 
L 67.578125 72.90625 
L 39.796875 0 
z
" id="DejaVuSans-56"/>
      <path d="M 34.28125 27.484375 
Q 23.390625 27.484375 19.1875 25 
Q 14.984375 22.515625 14.984375 16.5 
Q 14.984375 11.71875 18.140625 8.90625 
Q 21.296875 6.109375 26.703125 6.109375 
Q 34.1875 6.109375 38.703125 11.40625 
Q 43.21875 16.703125 43.21875 25.484375 
L 43.21875 27.484375 
z
M 52.203125 31.203125 
L 52.203125 0 
L 43.21875 0 
L 43.21875 8.296875 
Q 40.140625 3.328125 35.546875 0.953125 
Q 30.953125 -1.421875 24.3125 -1.421875 
Q 15.921875 -1.421875 10.953125 3.296875 
Q 6 8.015625 6 15.921875 
Q 6 25.140625 12.171875 29.828125 
Q 18.359375 34.515625 30.609375 34.515625 
L 43.21875 34.515625 
L 43.21875 35.40625 
Q 43.21875 41.609375 39.140625 45 
Q 35.0625 48.390625 27.6875 48.390625 
Q 23 48.390625 18.546875 47.265625 
Q 14.109375 46.140625 10.015625 43.890625 
L 10.015625 52.203125 
Q 14.9375 54.109375 19.578125 55.046875 
Q 24.21875 56 28.609375 56 
Q 40.484375 56 46.34375 49.84375 
Q 52.203125 43.703125 52.203125 31.203125 
z
" id="DejaVuSans-61"/>
      <path d="M 9.421875 75.984375 
L 18.40625 75.984375 
L 18.40625 0 
L 9.421875 0 
z
" id="DejaVuSans-6c"/>
      <path d="M 8.5 21.578125 
L 8.5 54.6875 
L 17.484375 54.6875 
L 17.484375 21.921875 
Q 17.484375 14.15625 20.5 10.265625 
Q 23.53125 6.390625 29.59375 6.390625 
Q 36.859375 6.390625 41.078125 11.03125 
Q 45.3125 15.671875 45.3125 23.6875 
L 45.3125 54.6875 
L 54.296875 54.6875 
L 54.296875 0 
L 45.3125 0 
L 45.3125 8.40625 
Q 42.046875 3.421875 37.71875 1 
Q 33.40625 -1.421875 27.6875 -1.421875 
Q 18.265625 -1.421875 13.375 4.4375 
Q 8.5 10.296875 8.5 21.578125 
z
M 31.109375 56 
z
" id="DejaVuSans-75"/>
     </defs>
     <g transform="translate(14.798438 157.869281)rotate(-90)scale(0.1 -0.1)">
      <use xlink:href="#DejaVuSans-56"/>
      <use x="68.298828" xlink:href="#DejaVuSans-61"/>
      <use x="129.578125" xlink:href="#DejaVuSans-6c"/>
      <use x="157.361328" xlink:href="#DejaVuSans-75"/>
      <use x="220.740234" xlink:href="#DejaVuSans-65"/>
     </g>
    </g>
   </g>
   <g id="line2d_33">
    <path clip-path="url(#p58d0f3ab87)" d="M 60.013977 242.876715 
L 384.668523 242.876715 
L 384.668523 242.876715 
" style="fill:none;stroke:#000000;stroke-linecap:square;"/>
   </g>
   <g id="line2d_34">
    <path clip-path="url(#p58d0f3ab87)" d="M 60.013977 22.796 
L 60.467677 22.796 
L 60.532491 136.743826 
L 60.597305 125.349043 
L 60.921377 91.164696 
L 61.310262 71.630783 
L 61.634333 62.239478 
L 61.699148 98.761217 
L 61.763962 96.048174 
L 62.023219 86.891652 
L 62.152847 143.446639 
L 62.217662 139.999478 
L 62.606547 122.84775 
L 62.865804 182.322957 
L 62.930618 178.854979 
L 63.254689 243.988839 
L 63.838018 210.809913 
L 64.097275 247.130783 
L 64.162089 243.679478 
L 64.226903 255.871099 
L 64.291717 252.392366 
L 64.745417 230.673791 
L 64.810231 241.575826 
L 64.875046 238.697144 
L 65.199117 225.369913 
L 65.328745 245.200191 
L 65.393559 242.552522 
L 65.912073 223.443259 
L 66.17133 247.130783 
L 66.495402 236.0251 
L 66.560216 243.988839 
L 66.62503 241.841336 
L 66.754659 237.669043 
L 67.013916 258.009402 
L 67.143544 253.771323 
L 67.208358 260.865565 
L 67.273173 258.758755 
L 67.856501 241.351666 
L 67.921315 247.912437 
L 67.986129 246.096982 
L 68.050943 244.310574 
L 68.3102 261.29145 
L 68.569457 254.118654 
L 68.7639 264.097279 
L 68.958343 258.889338 
L 69.023157 264.528174 
L 69.087971 262.813761 
L 69.476857 253.017118 
L 69.541671 258.39083 
L 69.606485 256.809656 
L 70.319442 240.721217 
L 70.513885 249.293519 
L 70.837956 242.552522 
L 70.90277 247.320415 
L 70.967584 245.999683 
L 71.291656 239.622435 
L 71.35647 244.217344 
L 71.421284 242.966376 
L 71.486098 241.729464 
L 71.680541 249.43256 
L 72.134241 240.993965 
L 72.199055 245.265565 
L 72.263869 244.094673 
L 72.393498 241.789478 
L 72.458312 245.968426 
L 72.523126 244.818053 
L 73.106454 234.974711 
L 73.171269 238.961729 
L 73.236083 237.907262 
L 73.430526 234.804696 
L 73.560154 242.552522 
L 73.624968 241.511022 
L 73.689783 240.479347 
L 73.884225 246.981723 
L 74.402739 238.939186 
L 74.467554 242.552522 
L 74.532368 241.575826 
L 74.661996 239.648251 
L 74.791625 246.710942 
L 74.856439 245.737399 
L 74.921253 244.772285 
L 75.050882 251.669745 
L 75.115696 250.691652 
L 75.18051 249.721883 
L 75.245324 253.105801 
L 75.310139 252.13403 
L 75.504581 249.267304 
L 75.569396 252.582902 
L 75.63421 251.63337 
L 75.699024 250.691652 
L 75.893467 256.250083 
L 75.958281 255.304924 
L 76.08791 261.674575 
L 76.152724 260.719061 
L 76.541609 255.142739 
L 76.606424 258.229057 
L 76.671238 257.316526 
L 76.800866 255.512522 
L 76.865681 258.550123 
L 76.930495 257.650298 
L 77.384195 251.538848 
L 77.513823 257.419199 
L 77.578637 256.556614 
L 77.902708 252.337108 
L 77.967523 255.200379 
L 78.032337 254.367388 
L 78.680479 246.354538 
L 78.745294 249.119958 
L 78.810108 248.342212 
L 79.069365 245.283959 
L 79.198993 250.691652 
L 79.263808 249.926902 
L 79.328622 249.167267 
L 79.393436 251.83113 
L 79.45825 251.070216 
L 79.717507 248.076456 
L 79.91195 252.541455 
L 80.560092 245.316755 
L 80.754535 252.821518 
L 80.819349 252.107153 
L 81.337863 246.548095 
L 81.402678 248.970386 
L 81.467492 248.289138 
L 81.726749 245.604696 
L 81.856377 250.354528 
L 81.921192 249.683264 
L 82.180449 247.037349 
L 82.245263 249.366677 
L 82.310077 248.709951 
L 82.374891 248.05702 
L 82.439706 250.363272 
L 82.50452 249.709343 
L 82.634148 248.412696 
L 82.763777 252.95766 
L 82.828591 252.305644 
L 83.347105 247.219558 
L 83.476733 251.63337 
L 83.541548 251.004696 
L 83.606362 250.379466 
L 83.995247 260.520036 
L 84.254504 257.984313 
L 84.513761 263.61977 
L 84.64339 262.355603 
L 84.708204 264.413118 
L 84.773018 263.782264 
L 85.097089 260.676771 
L 85.226718 264.716 
L 85.291532 264.097279 
L 85.939675 258.079791 
L 86.134117 261.409517 
L 86.458189 258.492481 
L 86.523003 260.418906 
L 86.587817 259.840748 
L 86.652631 259.265396 
L 86.717446 261.175956 
L 86.78226 260.600159 
L 87.041517 258.324521 
L 87.171145 262.086435 
L 87.23596 261.518049 
L 87.300774 260.952357 
L 87.365588 262.813761 
L 87.430402 262.247682 
L 87.624845 260.565351 
L 87.754473 264.237897 
L 87.819288 263.676404 
L 88.208173 260.361536 
L 88.272987 262.16466 
L 88.337802 261.618156 
L 88.402616 261.074142 
L 88.46743 262.863352 
L 88.532244 262.318981 
L 88.597059 261.777074 
L 88.661873 263.552581 
L 88.726687 263.010336 
L 89.698901 255.160194 
L 89.763715 256.884469 
L 89.828529 256.376685 
L 90.217415 253.375648 
L 90.282229 255.074261 
L 90.347043 254.578998 
L 91.772957 244.193609 
L 91.902585 247.455811 
L 91.967399 247.001034 
L 92.161842 245.647684 
L 92.226656 247.259489 
L 92.291471 246.809662 
L 92.356285 246.361635 
L 92.615542 250.691652 
L 92.680356 250.240374 
L 92.74517 251.817619 
L 92.809984 251.3659 
L 92.939613 250.467786 
L 93.004427 252.032215 
L 93.069241 251.583612 
L 93.19887 250.691652 
L 93.263684 252.243471 
L 93.328498 251.797942 
L 93.393313 251.35414 
L 93.717384 257.034238 
L 93.911827 255.693179 
L 93.976641 257.202957 
L 94.041455 256.757316 
L 94.106269 256.313367 
L 94.171084 257.813391 
L 94.235898 257.369124 
L 94.430341 256.046343 
L 94.559969 259.013684 
L 94.624783 258.572156 
L 94.88404 256.822426 
L 95.013669 259.748503 
L 95.078483 259.311322 
L 95.726625 255.026624 
L 95.856254 257.890522 
L 95.921068 257.466928 
L 96.245139 255.371652 
L 96.309954 256.785119 
L 96.374768 256.368768 
L 96.634025 254.718077 
L 96.698839 256.117739 
L 96.763653 255.706961 
L 96.958096 254.483261 
L 97.02291 255.871099 
L 97.087725 255.464336 
L 97.217353 254.655055 
L 97.282167 256.032957 
L 97.346982 255.628733 
L 97.47661 254.824475 
L 97.541424 256.192582 
L 97.606238 255.790866 
L 97.735867 254.99157 
L 97.800681 256.35002 
L 97.865495 255.950783 
L 97.93031 255.552908 
L 97.995124 256.903459 
L 98.059938 256.505317 
L 98.384009 254.534749 
L 98.448824 255.871099 
L 98.513638 255.479376 
L 98.902523 253.156414 
L 98.967338 254.477294 
L 99.032152 254.09308 
L 99.096966 253.710138 
L 99.291409 255.947895 
L 99.550666 254.421532 
L 99.680294 257.01176 
L 99.745109 256.630301 
L 99.939551 255.493343 
L 100.004365 256.776245 
L 100.06918 256.398248 
L 100.522879 253.786082 
L 100.587694 255.053291 
L 100.652508 254.683455 
L 101.235836 251.40718 
L 101.30065 252.65627 
L 101.365465 252.296551 
L 101.624722 250.868865 
L 101.689536 252.107153 
L 101.75435 251.751632 
L 101.883979 251.043887 
L 101.948793 252.274261 
L 102.013607 251.920673 
L 102.272864 250.517153 
L 102.337678 251.737045 
L 102.402492 251.387517 
L 102.596935 250.345306 
L 102.661749 251.556203 
L 102.726564 251.209597 
L 102.856192 250.519526 
L 102.921006 251.722854 
L 102.985821 251.378085 
L 103.245078 250.00933 
L 103.374706 252.392366 
L 103.43952 252.050196 
L 104.995062 244.133504 
L 105.059876 245.288954 
L 105.124691 244.969738 
L 105.189505 244.651438 
L 105.254319 245.801188 
L 105.319133 245.482609 
L 105.383948 245.164939 
L 105.448762 246.309043 
L 105.513576 245.991102 
L 106.874675 239.517211 
L 107.069118 241.444167 
L 108.300589 235.87538 
L 108.365403 236.962998 
L 108.430217 236.676679 
L 108.883917 234.693679 
L 109.07836 236.560919 
L 109.532059 234.6049 
L 109.596874 235.6672 
L 109.661688 235.389662 
L 110.180202 233.195147 
L 110.245016 234.245574 
L 110.30983 233.973438 
L 110.374644 233.702002 
L 110.439459 234.747733 
L 110.504273 234.476 
L 110.828344 233.12772 
L 110.957973 235.199381 
L 111.022787 234.929834 
L 111.087601 234.660969 
L 111.152415 235.690926 
L 111.21723 235.421779 
L 111.411672 234.618407 
L 111.541301 236.6629 
L 111.606115 236.39456 
L 111.800558 235.593565 
L 112.059815 238.361477 
L 112.254257 237.560118 
L 112.319072 238.563542 
L 112.383886 238.296833 
L 112.578329 237.500648 
L 112.707957 239.492849 
L 112.772771 239.226963 
L 112.967214 238.433206 
L 113.032028 239.422087 
L 113.096843 239.157909 
L 114.133871 235.017011 
L 114.198685 235.988707 
L 114.263499 235.7343 
L 114.393128 235.227304 
L 114.457942 236.194129 
L 114.522756 235.940687 
L 114.58757 235.687846 
L 114.652385 236.650688 
L 114.717199 236.397605 
L 114.782013 236.145121 
L 114.846827 237.104013 
L 114.911641 236.851291 
L 115.754227 233.61933 
L 115.948669 235.261217 
L 116.143112 234.526044 
L 116.207926 235.463602 
L 116.272741 235.218875 
L 116.402369 234.731107 
L 116.531998 236.595014 
L 116.596812 236.350393 
L 116.661626 236.10633 
L 116.791255 237.9586 
L 116.856069 237.71354 
L 117.244954 236.254824 
L 117.309768 237.172419 
L 117.374583 236.930459 
L 117.439397 236.689044 
L 117.63384 238.272619 
L 118.087539 236.591085 
L 118.281982 238.157391 
L 118.541239 237.204465 
L 118.606053 238.100732 
L 118.670868 237.863089 
L 119.383824 235.283222 
L 119.578267 236.819743 
L 119.77271 236.124108 
L 119.837524 237.003115 
L 119.902338 236.771539 
L 119.967152 236.540464 
L 120.096781 238.290003 
L 120.161595 238.05804 
L 120.226409 237.826575 
L 120.420852 239.333509 
L 120.550481 238.870327 
L 120.615295 239.73513 
L 120.680109 239.503605 
L 120.744923 239.272574 
L 120.809738 240.134186 
L 120.874552 239.902975 
L 121.00418 239.442026 
L 121.068995 240.299804 
L 121.133809 240.069397 
L 121.522694 238.697144 
L 121.587509 239.548489 
L 121.652323 239.320808 
L 121.846766 238.640626 
L 121.91158 239.487577 
L 121.976394 239.261149 
L 122.170837 238.584696 
L 122.235651 239.427299 
L 122.300465 239.20211 
L 122.624536 238.083154 
L 122.689351 238.920183 
L 122.754165 238.697144 
L 122.818979 238.474566 
L 123.013422 239.917551 
L 123.467122 238.366683 
L 123.661564 240.838585 
L 123.726379 240.616997 
L 123.920821 239.954927 
L 123.985636 240.773117 
L 124.05045 240.552715 
L 124.115264 240.332759 
L 124.244893 241.961778 
L 124.309707 241.741068 
L 124.50415 241.081595 
L 124.568964 241.891268 
L 124.633778 241.671734 
L 124.828221 241.015763 
L 124.957849 242.625555 
L 125.022663 242.406601 
L 125.087478 242.188083 
L 125.152292 242.989413 
L 125.217106 242.770751 
L 125.476363 241.900425 
L 125.541177 242.697289 
L 125.605992 242.48021 
L 125.670806 242.263559 
L 125.73562 243.057709 
L 125.800434 242.840916 
L 126.254134 241.335232 
L 126.318948 242.12331 
L 126.383763 241.909332 
L 126.578205 241.269896 
L 126.64302 242.054208 
L 126.707834 241.841336 
L 126.967091 240.993965 
L 127.161533 243.329546 
L 127.226348 243.117086 
L 127.291162 242.905035 
L 127.355976 243.679478 
L 127.42079 243.467294 
L 127.485605 243.255518 
L 127.550419 244.027398 
L 127.615233 243.81549 
L 127.680047 243.603988 
L 127.744862 244.373321 
L 127.809676 244.161691 
L 128.004119 243.529217 
L 128.198561 244.848174 
L 128.457818 244.007863 
L 128.717075 246.073597 
L 129.235589 244.40267 
L 129.430032 245.695805 
L 129.883732 244.249745 
L 129.948546 244.994261 
L 130.01336 244.788712 
L 130.337431 243.766646 
L 130.46706 245.245616 
L 130.531874 245.041347 
L 130.661503 244.633931 
L 130.726317 245.369913 
L 130.791131 245.166277 
L 131.115202 244.153662 
L 131.180017 244.885394 
L 131.244831 244.683494 
L 131.374459 244.280794 
L 131.439274 245.009757 
L 131.504088 244.808476 
L 131.633716 244.407007 
L 131.698531 245.133222 
L 131.763345 244.932556 
L 132.735558 241.965461 
L 132.800373 242.682864 
L 132.865187 242.487409 
L 133.05963 241.903123 
L 133.318887 243.84673 
L 133.642958 242.874651 
L 133.837401 244.094673 
L 133.902215 243.900721 
L 133.967029 244.605122 
L 134.031843 244.411063 
L 134.096658 244.217344 
L 134.420729 246.823971 
L 134.550357 246.434696 
L 134.615171 247.130783 
L 134.679986 246.936216 
L 134.939243 246.161315 
L 135.004057 246.854031 
L 135.068871 246.660711 
L 135.587385 245.126077 
L 135.911456 247.677674 
L 136.105899 247.103508 
L 136.365156 248.951991 
L 136.494785 248.569 
L 136.559599 249.245614 
L 136.624413 249.054194 
L 137.142927 247.534408 
L 137.207741 248.206213 
L 137.272555 248.017269 
L 137.33737 247.828641 
L 137.402184 248.498514 
L 137.466998 248.3098 
L 137.661441 247.745545 
L 137.726255 248.412696 
L 137.791069 248.224838 
L 138.892912 245.078459 
L 138.957726 245.737399 
L 139.02254 245.55466 
L 139.087354 245.37222 
L 139.216983 246.68531 
L 139.281797 246.502394 
L 139.541054 245.773709 
L 139.605868 246.426721 
L 139.670682 246.244908 
L 139.865125 245.701236 
L 139.994754 247.001034 
L 140.059568 246.819639 
L 140.124382 246.638536 
L 140.189196 247.286103 
L 140.254011 247.104917 
L 140.383639 246.74342 
L 140.448453 247.388817 
L 140.513268 247.208131 
L 140.578082 247.027735 
L 140.642896 247.671348 
L 140.70771 247.490871 
L 140.837339 247.130783 
L 140.902153 247.772252 
L 140.966967 247.592271 
L 141.420667 246.340423 
L 141.485481 246.977931 
L 141.550296 246.799868 
L 141.61511 246.622087 
L 141.679924 247.257856 
L 141.744738 247.079994 
L 142.068809 246.194895 
L 142.133624 246.827491 
L 142.198438 246.650949 
L 142.263252 246.474685 
L 142.328066 247.105568 
L 142.392881 246.929224 
L 142.976209 245.354517 
L 143.041023 245.980861 
L 143.105837 245.806905 
L 143.365094 245.113787 
L 143.429909 245.737399 
L 143.494723 245.564442 
L 143.689166 245.047178 
L 143.75398 245.66843 
L 143.818794 245.496195 
L 144.142865 244.638996 
L 144.272494 245.874488 
L 144.337308 245.703153 
L 144.466936 245.361271 
L 144.531751 245.97657 
L 144.596565 245.805681 
L 144.661379 245.635054 
L 144.726193 246.248732 
L 144.791008 246.078027 
L 144.920636 245.737399 
L 144.98545 246.349128 
L 145.050265 246.178867 
L 145.115079 246.008865 
L 145.179893 246.618992 
L 145.244707 246.448914 
L 145.43915 245.940227 
L 145.698407 247.591031 
L 145.828036 247.251718 
L 145.89285 247.855847 
L 145.957664 247.686246 
L 146.34655 246.673987 
L 146.411364 247.274926 
L 146.476178 247.106777 
L 146.735435 246.436692 
L 146.800249 247.035117 
L 146.865063 246.8679 
L 146.929878 246.700931 
L 147.189135 248.321266 
L 147.513206 247.486606 
L 147.57802 248.078943 
L 147.642834 247.912437 
L 147.837277 247.414392 
L 148.161348 249.603245 
L 148.355791 249.104402 
L 148.615048 250.691652 
L 149.71689 247.894377 
L 149.846519 249.048569 
L 149.911333 248.885563 
L 149.976147 248.722791 
L 150.040961 249.298046 
L 150.105776 249.135212 
L 150.300218 248.648112 
L 150.365033 249.221358 
L 150.429847 249.059162 
L 150.689104 248.412696 
L 150.753918 248.983655 
L 150.818732 248.822323 
L 151.013175 248.339704 
L 151.077989 248.908685 
L 151.142804 248.747979 
L 151.272432 248.427253 
L 151.337246 248.994557 
L 151.402061 248.834246 
L 151.726132 248.036088 
L 151.790946 248.600866 
L 151.85576 248.441625 
L 152.568717 246.704674 
L 152.892788 248.784576 
L 153.022417 248.469828 
L 153.087231 249.026444 
L 153.152045 248.869121 
L 153.800188 247.307842 
L 153.865002 247.86065 
L 153.929816 247.705433 
L 154.318701 246.778609 
L 154.383516 247.328744 
L 154.44833 247.174744 
L 154.577958 246.867376 
L 154.642773 247.415945 
L 154.707587 247.262306 
L 155.031658 246.497254 
L 155.096472 247.043459 
L 155.161287 246.890806 
L 155.614986 245.828025 
L 155.809429 246.762417 
L 155.874243 246.611088 
L 155.939058 247.152422 
L 156.003872 247.001034 
L 156.327943 246.247151 
L 156.522386 247.862075 
L 156.5872 247.711126 
L 156.652014 247.560378 
L 156.716829 248.096725 
L 156.781643 247.945921 
L 157.364971 246.597718 
L 157.429785 247.130783 
L 157.494599 246.981723 
L 157.624228 246.684197 
L 157.753856 247.746679 
L 157.818671 247.597705 
L 158.013113 247.151964 
L 158.077928 247.681142 
L 158.142742 247.532703 
L 158.337185 247.088559 
L 158.401999 247.616036 
L 158.466813 247.468128 
L 158.661256 247.02557 
L 158.855699 247.928828 
L 159.17977 247.19358 
L 159.244584 247.716513 
L 159.309398 247.569794 
L 159.503841 247.130783 
L 159.698284 248.026206 
L 159.763098 247.879953 
L 159.827912 248.399386 
L 159.892726 248.25308 
L 159.957541 248.106964 
L 160.022355 248.625241 
L 160.087169 248.479073 
L 160.216798 248.187304 
L 160.281612 248.70419 
L 160.346426 248.558349 
L 160.735312 247.68724 
L 160.800126 248.20179 
L 160.86494 248.05702 
L 161.189011 247.335954 
L 161.253826 247.848424 
L 161.31864 247.704529 
L 161.642711 246.987803 
L 161.707525 247.49821 
L 161.772339 247.355179 
L 162.614925 245.512206 
L 163.00381 247.896705 
L 164.040838 245.654108 
L 164.105652 246.153593 
L 164.170467 246.014689 
L 164.364909 245.599012 
L 164.429723 246.096982 
L 164.494538 245.958543 
L 164.68898 245.544257 
L 164.818609 246.536571 
L 164.883423 246.398374 
L 164.948237 246.260348 
L 165.013052 246.755145 
L 165.077866 246.617069 
L 165.14268 246.479163 
L 165.207494 246.972912 
L 165.272309 246.834957 
L 165.401937 246.559555 
L 165.531566 247.543922 
L 165.59638 247.40604 
L 165.726008 247.130783 
L 165.855637 248.111438 
L 165.920451 247.973631 
L 166.114894 247.561217 
L 166.179708 248.049787 
L 166.244522 247.912437 
L 166.374151 247.638239 
L 166.503779 248.612312 
L 166.568594 248.475038 
L 166.82785 247.927605 
L 166.892665 248.412696 
L 166.957479 248.276041 
L 167.216736 247.731074 
L 167.411179 249.179679 
L 167.475993 249.043221 
L 167.864878 248.227915 
L 168.059321 249.052115 
L 168.18895 248.78115 
L 168.253764 249.259633 
L 168.318578 249.124188 
L 168.448207 248.853784 
L 168.513021 249.331081 
L 168.577835 249.195917 
L 169.679677 246.922557 
L 169.87412 248.340135 
L 169.938934 248.207227 
L 171.105591 245.841395 
L 171.170405 246.309043 
L 171.235219 246.178867 
L 171.494476 245.659674 
L 171.55929 246.125799 
L 171.624104 245.996182 
L 172.077804 245.09306 
L 172.272247 245.891773 
L 172.337061 245.763113 
L 172.401875 246.225686 
L 172.46669 246.096982 
L 172.531504 245.968426 
L 172.596318 246.430082 
L 172.661132 246.301483 
L 172.855575 245.916571 
L 173.050018 246.708376 
L 173.244461 246.324087 
L 173.309275 246.782636 
L 173.374089 246.654643 
L 173.827789 245.762776 
L 173.892603 246.219297 
L 173.957417 246.09228 
L 174.022232 245.965407 
L 174.087046 246.421035 
L 174.15186 246.29412 
L 174.281488 246.04072 
L 174.346303 246.495273 
L 174.411117 246.368603 
L 174.864817 245.485914 
L 174.929631 245.938473 
L 174.994445 245.812759 
L 175.318516 245.186308 
L 175.383331 245.637257 
L 175.448145 245.512206 
L 175.577773 245.262524 
L 175.642588 245.712419 
L 175.707402 245.587606 
L 175.901845 245.214004 
L 176.031473 246.110835 
L 176.096287 245.986217 
L 176.225916 245.737399 
L 176.29073 246.184524 
L 176.355544 246.060143 
L 176.420359 245.9359 
L 176.485173 246.382168 
L 176.549987 246.257885 
L 176.614801 246.133739 
L 176.74443 247.024075 
L 176.809244 246.899711 
L 176.938872 246.651397 
L 177.133315 247.414392 
L 177.651829 246.424883 
L 177.9759 248.063531 
L 178.040715 247.939893 
L 178.105529 248.378943 
L 178.170343 248.255268 
L 178.364786 247.885055 
L 178.4296 248.322934 
L 178.494414 248.199628 
L 178.559229 248.076456 
L 178.753671 248.826712 
L 178.818486 248.703468 
L 178.8833 249.139229 
L 178.948114 249.015949 
L 179.336999 248.279076 
L 179.401814 248.713177 
L 179.466628 248.590662 
L 179.531442 248.46828 
L 179.596256 248.901573 
L 179.661071 248.779155 
L 179.790699 248.534717 
L 179.855513 248.967036 
L 179.920328 248.844848 
L 180.049956 248.600866 
L 180.179585 249.463104 
L 180.244399 249.340978 
L 181.086984 247.765223 
L 181.151798 248.193331 
L 181.216613 248.072862 
L 181.281427 247.952522 
L 181.346241 248.379844 
L 181.411055 248.259468 
L 181.864755 247.420423 
L 181.929569 247.845984 
L 181.994383 247.726467 
L 182.059198 247.607077 
L 182.124012 248.031862 
L 182.188826 247.912437 
L 182.383269 247.55492 
L 182.577712 248.282607 
L 182.772154 247.925636 
L 182.836969 248.347789 
L 182.901783 248.228889 
L 182.966597 248.110116 
L 183.16104 248.833481 
L 183.938811 247.415578 
L 184.133253 248.134368 
L 184.911024 246.731847 
L 184.975839 247.147396 
L 185.040653 247.031152 
L 185.105467 246.915028 
L 185.235096 247.744217 
L 185.29991 247.627905 
L 185.429538 247.395641 
L 185.623981 248.105936 
L 185.75361 247.873777 
L 185.883238 248.697712 
L 185.948052 248.581507 
L 186.012867 248.465422 
L 186.077681 248.87645 
L 186.142495 248.760333 
L 186.207309 248.644335 
L 186.466566 249.757654 
L 186.661009 249.409375 
L 186.790637 250.225846 
L 186.855452 250.109692 
L 187.373966 249.184712 
L 187.43878 249.590987 
L 187.503594 249.475745 
L 187.568408 249.360621 
L 187.633223 249.766188 
L 187.698037 249.651033 
L 187.762851 249.535995 
L 187.827665 249.940856 
L 187.89248 249.825787 
L 187.957294 249.710835 
L 188.022108 250.114993 
L 188.086922 250.000011 
L 188.864693 248.629248 
L 188.929508 249.031106 
L 188.994322 248.917477 
L 189.253579 248.464101 
L 189.318393 248.864833 
L 189.383207 248.751629 
L 189.512836 248.52556 
L 189.642464 249.324962 
L 189.707278 249.21181 
L 189.772093 249.098772 
L 189.836907 249.497588 
L 189.901721 249.38452 
L 189.966535 249.271565 
L 190.160978 249.954309 
L 190.290607 249.728394 
L 190.679492 251.595552 
L 190.809121 251.368905 
L 190.938749 252.157582 
L 191.003563 252.044149 
L 191.327635 251.478662 
L 191.586891 252.543094 
L 191.975777 251.866372 
L 192.17022 252.534926 
L 192.299848 252.309912 
L 192.364662 252.699543 
L 192.429477 252.587066 
L 192.753548 252.026327 
L 192.818362 252.414766 
L 192.883176 252.302811 
L 192.947991 252.190966 
L 193.012805 252.578757 
L 193.077619 252.466886 
L 193.272062 252.131926 
L 193.336876 252.518804 
L 193.40169 252.407234 
L 194.438718 250.636738 
L 194.503532 251.020981 
L 194.568347 250.911099 
L 194.633161 250.801323 
L 194.697975 251.184933 
L 194.762789 251.07513 
L 195.151675 250.418527 
L 195.281303 251.182807 
L 195.346118 251.073478 
L 195.670189 250.528403 
L 195.735003 250.909214 
L 195.799817 250.800381 
L 195.864632 250.691652 
L 195.929446 251.07184 
L 195.99426 250.963086 
L 196.318331 250.420864 
L 196.383145 250.799916 
L 196.44796 250.691652 
L 196.772031 250.151871 
L 196.901659 250.90736 
L 196.966474 250.799455 
L 197.160916 250.476352 
L 197.225731 250.853051 
L 197.290545 250.745427 
L 197.484988 250.423161 
L 197.549802 250.798998 
L 197.614616 250.691652 
L 197.938687 250.156435 
L 198.197944 251.172445 
L 198.651644 250.425419 
L 198.716458 250.798096 
L 198.781273 250.691652 
L 199.299786 249.843668 
L 199.429415 250.585753 
L 199.494229 250.479952 
L 199.623858 250.268644 
L 199.688672 250.638801 
L 199.753486 250.533171 
L 199.883115 250.322206 
L 199.947929 250.691652 
L 200.012743 250.586194 
L 200.207186 250.270403 
L 200.272 250.63902 
L 200.336814 250.53383 
L 200.531257 250.21884 
L 200.596071 250.586631 
L 200.660886 250.481707 
L 200.7257 250.376879 
L 200.855328 251.110963 
L 200.920143 251.005991 
L 201.827542 249.546448 
L 201.892356 249.911188 
L 201.95717 249.807529 
L 202.475684 248.981658 
L 202.734941 249.967517 
L 202.929384 249.65858 
L 203.059013 250.382011 
L 203.123827 250.278985 
L 203.31827 249.970463 
L 203.383084 250.331221 
L 203.447898 250.22845 
L 203.512712 250.125771 
L 203.836783 251.46157 
L 204.420112 250.53829 
L 204.484926 250.896043 
L 204.54974 250.793802 
L 204.938626 250.182274 
L 205.00344 250.538907 
L 205.068254 250.437191 
L 205.197883 250.23403 
L 205.262697 250.590004 
L 205.327511 250.488446 
L 205.45714 250.285602 
L 205.586768 250.995919 
L 205.651582 250.894406 
L 205.781211 250.691652 
L 205.846025 251.045999 
L 205.910839 250.944645 
L 206.429353 250.137039 
L 206.494167 250.490064 
L 206.558982 250.389403 
L 206.818239 249.98765 
L 206.883053 250.339806 
L 206.947867 250.239478 
L 207.855267 248.844119 
L 207.984895 249.544192 
L 208.049709 249.444958 
L 208.179338 249.246752 
L 208.244152 249.596 
L 208.308966 249.496917 
L 208.438595 249.299012 
L 208.503409 249.647628 
L 208.568223 249.548695 
L 208.762666 249.252416 
L 208.957109 249.849063 
L 209.345994 249.258035 
L 209.410808 249.604552 
L 209.475623 249.506239 
L 209.994137 248.722791 
L 210.123765 249.412997 
L 210.188579 249.315233 
L 210.253394 249.217554 
L 210.318208 249.561997 
L 210.383022 249.464295 
L 210.901536 248.685701 
L 210.96635 249.028894 
L 211.031165 248.93184 
L 211.808935 247.773654 
L 211.87375 248.115187 
L 211.938564 248.019102 
L 212.262635 247.539904 
L 212.457078 248.560881 
L 212.521892 248.464974 
L 213.429292 247.130783 
L 213.494106 247.468983 
L 213.55892 247.374184 
L 213.882991 246.901388 
L 213.947805 247.238688 
L 214.01262 247.144265 
L 214.207062 246.861473 
L 214.466319 247.776041 
L 214.531134 247.68171 
L 214.595948 248.017269 
L 214.660762 247.922916 
L 214.790391 247.734446 
L 215.049648 248.644115 
L 215.24409 248.361334 
L 215.308905 248.695069 
L 215.373719 248.600866 
L 215.503347 248.412696 
L 215.69779 248.984569 
L 215.827419 248.79647 
L 215.892233 249.128777 
L 215.957047 249.034746 
L 216.410747 248.37871 
L 216.670004 249.277907 
L 216.734818 249.184281 
L 216.929261 249.750712 
L 217.188518 249.376508 
L 217.38296 249.94107 
L 217.771846 249.381369 
L 217.901474 250.037048 
L 217.966289 249.94384 
L 218.031103 249.850709 
L 218.095917 250.177953 
L 218.160731 250.084802 
L 218.29036 249.898728 
L 218.549617 250.784785 
L 218.679245 250.598596 
L 218.873688 251.156366 
L 219.327388 250.506296 
L 219.457016 251.154667 
L 219.52183 251.061913 
L 219.586645 250.969235 
L 219.651459 251.292838 
L 219.716273 251.200141 
L 219.910716 250.922503 
L 220.105159 251.475591 
L 220.234787 251.29065 
L 220.299601 251.612815 
L 220.364416 251.520364 
L 220.753301 250.967221 
L 220.947744 251.517361 
L 221.336629 250.966225 
L 221.401443 251.286322 
L 221.466258 251.194632 
L 221.855143 250.646037 
L 221.919957 250.965236 
L 221.984772 250.873969 
L 222.049586 250.782774 
L 222.244029 251.328741 
L 222.632914 250.782447 
L 222.697728 251.100067 
L 222.762543 251.009182 
L 223.086614 250.555838 
L 223.151428 250.872665 
L 223.216242 250.782123 
L 223.475499 250.42067 
L 223.734756 251.27785 
L 223.79957 251.187469 
L 223.864385 251.502669 
L 223.929199 251.412271 
L 224.123642 251.141505 
L 224.25327 251.770448 
L 224.318084 251.680159 
L 225.549555 249.978085 
L 225.614369 250.290427 
L 225.679184 250.201458 
L 225.808812 250.023728 
L 226.003255 250.958509 
L 226.068069 250.869487 
L 226.262512 250.602839 
L 226.456954 251.135202 
L 226.586583 250.957575 
L 226.651397 251.267594 
L 226.716211 251.178798 
L 227.040283 250.735852 
L 227.105097 251.045116 
L 227.169911 250.956647 
L 227.947682 249.900348 
L 228.142125 250.428189 
L 228.336568 250.165334 
L 228.401382 250.472437 
L 228.466196 250.38487 
L 228.595824 250.209936 
L 228.855081 251.43498 
L 228.919896 251.347278 
L 229.762481 250.213245 
L 229.892109 250.822027 
L 229.956924 250.735094 
L 230.151366 250.474691 
L 230.345809 250.995051 
L 230.993952 250.130333 
L 231.253208 250.950331 
L 231.512465 250.605556 
L 231.57728 250.90681 
L 231.642094 250.820698 
L 231.966165 250.391112 
L 232.095794 250.991966 
L 232.160608 250.906082 
L 232.290236 250.734506 
L 232.355051 251.034352 
L 232.419865 250.948581 
L 233.456893 249.584949 
L 233.521707 249.88321 
L 233.586521 249.798444 
L 234.105035 249.12259 
L 234.299478 250.013896 
L 234.364292 249.929459 
L 234.817992 249.340158 
L 235.142063 250.438716 
L 235.919834 249.43256 
L 235.984648 249.726704 
L 236.049462 249.643181 
L 236.632791 248.894236 
L 236.697605 249.18739 
L 236.762419 249.104402 
L 237.669819 247.948926 
L 237.734633 248.240715 
L 237.799447 248.158555 
L 238.123518 247.748656 
L 238.317961 248.24873 
L 238.447589 248.085003 
L 238.642032 248.955777 
L 238.706846 248.873775 
L 239.095732 248.383013 
L 239.160546 248.672324 
L 239.22536 248.590662 
L 239.290175 248.509059 
L 239.354989 248.798011 
L 239.419803 248.716392 
L 239.614246 248.471889 
L 239.808689 249.336597 
L 239.873503 249.25499 
L 240.327203 248.685384 
L 240.456831 249.259633 
L 240.521645 249.178347 
L 240.845717 248.772789 
L 240.910531 249.059162 
L 240.975345 248.978151 
L 241.169788 248.735466 
L 241.234602 249.021341 
L 241.299416 248.940488 
L 241.493859 248.698277 
L 241.558673 248.983655 
L 241.623487 248.90296 
L 241.688302 248.822323 
L 241.753116 249.107351 
L 241.81793 249.026698 
L 242.336444 248.383541 
L 242.401258 248.667712 
L 242.466073 248.587502 
L 242.72533 248.26723 
L 242.854958 248.834246 
L 242.919772 248.754176 
L 243.049401 248.594205 
L 243.114215 248.877196 
L 243.179029 248.797224 
L 243.438286 248.477901 
L 243.5031 248.760333 
L 243.567915 248.680572 
L 243.632729 248.600866 
L 243.697543 248.882957 
L 243.762357 248.803236 
L 244.604943 247.771964 
L 244.929014 248.815146 
L 245.058642 248.65687 
L 245.253085 249.137275 
L 245.317899 249.058134 
L 245.382714 249.337501 
L 245.447528 249.258346 
L 245.512342 249.179247 
L 245.641971 249.737115 
L 245.706785 249.657931 
L 245.836413 249.499729 
L 246.030856 249.977246 
L 246.484556 249.424685 
L 246.614184 249.979478 
L 246.678998 249.900622 
L 247.132698 249.350161 
L 247.391955 250.100636 
L 247.716026 249.708326 
L 247.780841 249.983902 
L 247.845655 249.905534 
L 248.104912 249.592603 
L 248.364169 250.338873 
L 248.623426 250.026206 
L 248.817868 250.496134 
L 248.947497 250.339961 
L 249.012311 250.613525 
L 249.077125 250.535452 
L 249.14194 250.457433 
L 249.206754 250.730675 
L 249.271568 250.652642 
L 249.336382 250.574663 
L 249.401197 250.847585 
L 249.466011 250.769592 
L 249.854896 250.302752 
L 249.919711 250.575022 
L 249.984525 250.497335 
L 250.178968 250.26459 
L 250.37341 250.730436 
L 250.503039 250.575379 
L 250.567853 250.846631 
L 250.632667 250.769115 
L 251.28081 249.996848 
L 251.475252 250.807335 
L 251.540067 250.7302 
L 251.604881 250.653117 
L 251.669695 250.922784 
L 251.734509 250.845688 
L 251.799324 250.768644 
L 251.864138 251.037998 
L 251.928952 250.960941 
L 252.317838 250.499692 
L 252.447466 251.036949 
L 252.51228 250.960126 
L 252.641909 250.806635 
L 252.771537 251.342783 
L 252.836352 251.265986 
L 253.095609 250.959315 
L 253.160423 251.226798 
L 253.225237 251.150195 
L 253.290051 251.073643 
L 253.354865 251.340819 
L 253.41968 251.264254 
L 253.484494 251.187741 
L 253.549308 251.454611 
L 253.614122 251.378085 
L 253.743751 251.225187 
L 253.938194 251.68151 
L 254.067822 251.528665 
L 254.132636 251.794618 
L 254.197451 251.718209 
L 254.391893 251.489287 
L 254.456708 251.754811 
L 254.521522 251.678542 
L 255.299293 250.767265 
L 255.428921 251.29615 
L 255.493736 251.220412 
L 255.817807 250.842477 
L 255.882621 251.106282 
L 255.947435 251.030783 
L 256.012249 250.955333 
L 256.141878 251.482172 
L 256.206692 251.406648 
L 256.401135 251.180376 
L 256.465949 251.443287 
L 256.530763 251.3679 
L 256.79002 251.066851 
L 256.854835 251.32928 
L 256.919649 251.25408 
L 257.178906 250.953773 
L 257.24372 251.215722 
L 257.308534 251.140708 
L 257.438163 250.990826 
L 257.502977 251.252419 
L 257.567791 251.177491 
L 257.956677 250.728951 
L 258.215934 251.436653 
L 258.475191 251.138069 
L 258.669633 251.918096 
L 258.734448 251.843391 
L 259.058519 251.470592 
L 259.252962 251.914507 
L 259.771476 251.319973 
L 259.83629 251.578406 
L 259.901104 251.504246 
L 260.678875 250.618066 
L 260.743689 250.875558 
L 260.808503 250.80196 
L 260.938132 250.654907 
L 261.327017 251.865238 
L 261.391832 251.791535 
L 261.586274 252.230003 
L 261.780717 252.008968 
L 261.845531 252.264608 
L 261.910346 252.190966 
L 262.104788 251.970323 
L 262.169603 252.225565 
L 262.234417 252.152054 
L 262.42886 251.931801 
L 262.623302 252.367891 
L 263.20663 251.709043 
L 263.336259 252.216766 
L 263.401073 252.143679 
L 263.919587 251.560654 
L 263.984401 251.813756 
L 264.049216 251.741029 
L 264.243658 251.523124 
L 264.308473 251.775837 
L 264.373287 251.703237 
L 265.086244 250.907667 
L 265.280686 251.339083 
L 265.345501 251.266965 
L 265.410315 251.518403 
L 265.475129 251.446274 
L 265.604758 251.302151 
L 265.669572 251.553261 
L 265.734386 251.481212 
L 265.7992 251.409208 
L 265.864014 251.660047 
L 265.928829 251.588032 
L 265.993643 251.516062 
L 266.058457 251.766632 
L 266.123271 251.694651 
L 266.188086 251.622715 
L 266.317714 252.123158 
L 266.382528 252.051155 
L 266.512157 251.907286 
L 266.576971 252.157104 
L 266.641785 252.085182 
L 266.7066 252.013304 
L 266.836228 252.512247 
L 266.901042 252.440303 
L 267.095485 252.224742 
L 267.160299 252.473758 
L 267.225114 252.401938 
L 267.354742 252.258435 
L 267.419556 252.507128 
L 267.484371 252.435388 
L 267.808442 252.07736 
L 267.873256 252.325567 
L 267.93807 252.254041 
L 268.715841 251.399183 
L 268.780655 251.646522 
L 268.84547 251.575517 
L 269.104727 251.291935 
L 269.169541 251.538848 
L 269.234355 251.468008 
L 269.493612 251.185085 
L 269.558426 251.431573 
L 269.623241 251.360898 
L 269.752869 251.219677 
L 269.817683 251.46585 
L 269.882498 251.395251 
L 270.012126 251.254184 
L 270.141755 251.745749 
L 270.206569 251.675172 
L 270.660268 251.182353 
L 270.725083 251.427478 
L 270.789897 251.357194 
L 271.049154 251.076493 
L 271.178782 251.565753 
L 271.243597 251.495579 
L 271.502854 251.215309 
L 271.567668 251.459448 
L 271.632482 251.389434 
L 272.150996 250.830868 
L 272.21581 251.074378 
L 272.280625 251.004696 
L 272.345439 250.935056 
L 272.410253 251.178312 
L 272.475067 251.108662 
L 272.863953 250.691652 
L 272.993581 251.176979 
L 273.058396 251.10752 
L 273.706538 250.415248 
L 273.771352 250.657112 
L 273.836166 250.588063 
L 273.965795 250.450091 
L 274.160238 250.864039 
L 274.35468 250.657206 
L 274.419495 250.898267 
L 274.484309 250.829353 
L 274.549123 250.760482 
L 274.613937 251.001293 
L 274.678752 250.932411 
L 275.326894 250.245874 
L 275.521337 250.657392 
L 275.975036 250.178836 
L 276.104665 250.657485 
L 276.169479 250.589181 
L 276.363922 250.384515 
L 276.49355 250.862182 
L 276.558365 250.793939 
L 277.530578 249.775182 
L 277.595393 250.012987 
L 277.660207 249.945343 
L 277.85465 249.742652 
L 277.919464 249.980114 
L 277.984278 249.91258 
L 278.697235 249.172348 
L 278.762049 249.409064 
L 278.826863 249.341959 
L 279.08612 249.073937 
L 279.150934 249.310262 
L 279.215749 249.243306 
L 279.604634 248.842396 
L 279.669448 249.078232 
L 279.734263 249.011501 
L 279.799077 248.944811 
L 279.863891 249.180408 
L 279.928705 249.113706 
L 279.99352 249.047044 
L 280.058334 249.282403 
L 280.123148 249.215731 
L 280.512033 248.816519 
L 280.576848 249.051393 
L 280.641662 248.984945 
L 280.965733 248.653289 
L 281.160176 249.055718 
L 281.419433 248.790854 
L 281.549061 249.258556 
L 281.613876 249.192339 
L 282.391647 248.400743 
L 282.521275 248.866629 
L 282.586089 248.800815 
L 282.650904 248.735039 
L 282.715718 248.967682 
L 282.780532 248.901896 
L 283.299046 248.376984 
L 283.493489 248.775452 
L 284.012003 248.252503 
L 284.206445 248.649813 
L 284.465702 248.389011 
L 284.530517 248.619874 
L 284.595331 248.554719 
L 285.113845 248.034838 
L 285.178659 248.265137 
L 285.243473 248.200273 
L 286.280501 247.167493 
L 286.345315 247.396854 
L 286.41013 247.332572 
L 286.539758 247.204119 
L 286.863829 248.055327 
L 287.058272 247.862468 
L 287.252715 248.254787 
L 287.706415 247.805666 
L 287.771229 248.03341 
L 287.836043 247.969349 
L 288.678628 247.139864 
L 288.743442 247.366829 
L 288.808257 247.303229 
L 289.002699 247.112646 
L 289.132328 247.565821 
L 289.197142 247.502273 
L 289.650842 247.05844 
L 289.715656 247.284468 
L 289.78047 247.22116 
L 289.910099 247.094652 
L 289.974913 247.320415 
L 290.039727 247.257168 
L 290.23417 247.067643 
L 290.428613 247.455226 
L 290.752684 247.139782 
L 290.947127 247.526435 
L 291.011941 247.463397 
L 291.206384 247.849344 
L 291.724898 247.345869 
L 291.91934 247.730728 
L 292.243412 247.416924 
L 292.308226 247.64033 
L 292.37304 247.577629 
L 292.437854 247.514963 
L 292.697111 248.1214 
L 292.761926 248.058671 
L 292.82674 248.2814 
L 292.891554 248.218661 
L 292.956368 248.155956 
L 293.021182 248.378473 
L 293.085997 248.315759 
L 293.669325 247.752898 
L 293.734139 247.974848 
L 293.798953 247.912437 
L 293.863768 247.850061 
L 293.928582 248.071799 
L 293.993396 248.009413 
L 294.51191 247.511566 
L 294.576724 247.732786 
L 294.641539 247.670666 
L 296.067452 246.312653 
L 296.132266 246.532744 
L 296.19708 246.471362 
L 296.261895 246.410014 
L 296.456337 246.78826 
L 296.521152 246.726892 
L 296.585966 246.946448 
L 296.65078 246.885071 
L 297.039666 246.517511 
L 297.10448 246.736644 
L 297.169294 246.675458 
L 297.493365 246.370029 
L 297.622994 246.80742 
L 297.687808 246.746348 
L 298.33595 246.137457 
L 298.530393 246.791238 
L 298.595207 246.730402 
L 299.113721 246.244908 
L 299.24335 246.679405 
L 299.308164 246.618781 
L 299.761864 246.195333 
L 299.826678 246.412066 
L 299.891492 246.351662 
L 300.215564 246.05013 
L 300.280378 246.266494 
L 300.345192 246.206243 
L 300.539635 246.025685 
L 300.734077 246.397521 
L 301.252591 245.917045 
L 301.317406 246.132515 
L 301.38222 246.072559 
L 301.447034 246.012635 
L 301.511848 246.227906 
L 301.576663 246.167972 
L 301.771105 245.988365 
L 301.83592 246.203354 
L 301.900734 246.143507 
L 302.419248 245.665886 
L 302.484062 245.880386 
L 302.548876 245.820786 
L 302.808133 245.582702 
L 302.872947 245.796882 
L 302.937762 245.737399 
L 303.197019 245.499785 
L 303.326647 245.927389 
L 303.391461 245.867982 
L 303.456276 245.808607 
L 303.52109 246.022156 
L 303.585904 245.962772 
L 303.780347 245.784808 
L 303.909975 246.211238 
L 303.97479 246.151898 
L 304.169232 245.974067 
L 304.234047 246.186949 
L 304.298861 246.127694 
L 304.558118 245.890989 
L 304.687746 246.316007 
L 304.752561 246.256828 
L 304.947003 246.079478 
L 305.011818 246.291657 
L 305.076632 246.232562 
L 305.919217 245.467167 
L 305.984031 245.678668 
L 306.048845 245.619969 
L 307.021059 244.743169 
L 307.085873 244.953917 
L 307.150688 244.895669 
L 307.215502 244.837452 
L 307.409945 245.468795 
L 307.474759 245.410488 
L 307.539573 245.352212 
L 307.604387 245.56236 
L 307.669202 245.504075 
L 308.317344 244.922895 
L 308.382158 245.132497 
L 308.446972 245.074506 
L 308.706229 244.842845 
L 308.771044 245.05214 
L 308.835858 244.994261 
L 309.484 244.417123 
L 309.548815 244.625876 
L 309.613629 244.568288 
L 310.002514 244.223385 
L 310.132143 244.640019 
L 310.196957 244.582561 
L 310.3914 244.410367 
L 310.650657 244.976585 
L 310.909914 244.74706 
L 311.233985 245.518885 
L 311.298799 245.461453 
L 311.493242 245.817821 
L 311.558056 245.760371 
L 311.62287 245.967058 
L 311.687685 245.909599 
L 312.07657 245.565465 
L 312.141384 245.771777 
L 312.206199 245.714486 
L 312.659898 245.314273 
L 312.724712 245.520174 
L 312.789527 245.46308 
L 314.020997 244.383826 
L 314.21544 244.737203 
L 314.539511 244.454691 
L 314.604326 244.659291 
L 314.66914 244.602837 
L 314.928397 244.377309 
L 315.12284 244.729434 
L 315.382096 244.504178 
L 315.511725 244.911899 
L 315.576539 244.855582 
L 315.90061 244.574423 
L 315.965425 244.777904 
L 316.030239 244.721721 
L 316.289496 244.49727 
L 316.35431 244.700462 
L 316.419124 244.644383 
L 317.26171 243.917927 
L 317.326524 244.120498 
L 317.391338 244.064777 
L 317.715409 243.786592 
L 318.03948 244.539271 
L 318.428366 244.205655 
L 318.622809 244.553145 
L 318.817251 244.386577 
L 318.882066 244.587814 
L 318.94688 244.53231 
L 319.011694 244.476835 
L 319.141323 244.87886 
L 319.206137 244.823339 
L 319.789465 244.324899 
L 319.854279 244.525398 
L 319.919094 244.470118 
L 319.983908 244.414865 
L 320.048722 244.615192 
L 320.113536 244.559931 
L 320.307979 244.394312 
L 320.502422 244.739154 
L 321.150564 244.188426 
L 321.474635 244.930721 
L 321.53945 244.875683 
L 321.669078 245.273628 
L 321.733892 245.218545 
L 322.706106 244.395571 
L 322.77092 244.593828 
L 322.835734 244.539144 
L 323.030177 244.375254 
L 323.289434 245.166739 
L 323.354248 245.112022 
L 323.67832 244.838839 
L 323.743134 245.036256 
L 323.807948 244.981665 
L 324.002391 244.818053 
L 324.067205 245.015233 
L 324.132019 244.960714 
L 324.326462 244.797317 
L 324.520905 245.136626 
L 324.844976 244.864616 
L 325.039419 245.203212 
L 325.493118 244.823214 
L 325.622747 245.215262 
L 325.687561 245.161014 
L 325.752375 245.106792 
L 325.81719 245.302603 
L 325.882004 245.248373 
L 326.465332 244.761488 
L 326.530146 244.95686 
L 326.594961 244.902859 
L 327.307917 244.310574 
L 327.372732 244.50544 
L 327.437546 244.451718 
L 328.280131 243.755698 
L 328.344945 243.949991 
L 328.409759 243.896598 
L 328.474574 243.843231 
L 328.539388 244.037363 
L 328.604202 243.983988 
L 328.863459 243.770743 
L 329.057902 244.105073 
L 329.511602 243.732588 
L 329.706044 244.066142 
L 330.030115 243.800639 
L 330.159744 244.186595 
L 330.224558 244.133504 
L 330.872701 243.603988 
L 331.002329 243.988839 
L 331.067143 243.93596 
L 331.131958 243.883106 
L 331.196772 244.075327 
L 331.261586 244.022465 
L 331.456029 243.864031 
L 331.650472 244.195104 
L 331.715286 244.142302 
L 331.844914 244.525703 
L 331.909729 244.47286 
L 331.974543 244.420042 
L 332.039357 244.611539 
L 332.104171 244.558714 
L 333.076385 243.769335 
L 333.206013 244.151004 
L 333.270828 244.098513 
L 333.46527 243.941189 
L 333.530085 244.131756 
L 333.594899 244.079332 
L 333.659713 244.026932 
L 333.724527 244.217344 
L 333.789342 244.164936 
L 334.243041 243.798778 
L 334.37267 244.17881 
L 334.437484 244.126535 
L 334.631927 243.96986 
L 334.696741 244.159611 
L 334.761555 244.107403 
L 334.82637 244.055219 
L 334.891184 244.244816 
L 334.955998 244.192625 
L 335.020812 244.140458 
L 335.280069 244.65628 
L 335.928212 244.135237 
L 336.252283 244.837893 
L 336.381911 244.733771 
L 336.446726 244.922142 
L 336.51154 244.870085 
L 336.770797 244.662102 
L 336.835611 244.850226 
L 336.900425 244.798259 
L 336.96524 244.746316 
L 337.159682 245.070191 
L 337.807825 244.551706 
L 337.872639 244.739154 
L 337.937453 244.687407 
L 338.002267 244.635684 
L 338.131896 245.01019 
L 338.19671 244.958428 
L 338.65041 244.596768 
L 338.844853 244.91879 
L 339.881881 244.095922 
L 339.946695 244.282087 
L 340.011509 244.230829 
L 340.983723 243.464795 
L 341.113351 243.83587 
L 341.178165 243.784928 
L 341.502237 243.530566 
L 341.696679 244.085981 
L 341.761494 244.035086 
L 341.955936 243.882543 
L 342.020751 244.067387 
L 342.085565 244.016556 
L 342.215193 243.914962 
L 342.280008 244.099629 
L 342.344822 244.048837 
L 342.604079 243.845899 
L 342.668893 244.030328 
L 342.733707 243.979621 
L 342.863336 243.878277 
L 343.057778 244.196 
L 343.641107 243.740757 
L 343.705921 243.924536 
L 343.770735 243.874038 
L 343.965178 243.722684 
L 344.029992 243.906258 
L 344.094806 243.855822 
L 344.159621 243.80541 
L 344.289249 244.172185 
L 344.354063 244.121734 
L 344.483692 244.020902 
L 344.678135 244.33672 
L 345.326277 243.833561 
L 345.391091 244.016235 
L 345.455905 243.966014 
L 346.168862 243.415093 
L 346.233676 243.597323 
L 346.298491 243.547345 
L 346.687376 243.247954 
L 346.75219 243.429892 
L 346.817005 243.380043 
L 347.400333 242.932409 
L 347.529961 243.295444 
L 347.594775 243.24576 
L 347.65959 243.196098 
L 347.789218 243.558688 
L 347.854032 243.508989 
L 348.113289 243.310416 
L 348.178104 243.491441 
L 348.242918 243.441824 
L 348.372546 243.342658 
L 348.631803 243.835339 
L 349.150317 243.439034 
L 349.215132 243.619381 
L 349.279946 243.569913 
L 349.409574 243.471044 
L 349.474389 243.651222 
L 349.539203 243.601792 
L 349.668831 243.502997 
L 349.733646 243.683007 
L 349.79846 243.633614 
L 349.863274 243.584242 
L 349.928088 243.764113 
L 349.992902 243.714735 
L 350.381788 243.418928 
L 350.641045 243.908136 
L 350.705859 243.858847 
L 350.770673 244.038135 
L 350.835488 243.988839 
L 351.094745 243.791873 
L 351.159559 243.970937 
L 351.224373 243.921721 
L 351.872516 243.430767 
L 351.93733 243.609434 
L 352.002144 243.56043 
L 352.455844 243.218008 
L 352.520658 243.396366 
L 352.585472 243.347507 
L 352.650286 243.298669 
L 352.715101 243.476891 
L 352.779915 243.428046 
L 352.974358 243.281641 
L 353.039172 243.459669 
L 353.103986 243.410882 
L 353.363243 243.21595 
L 353.428057 243.393757 
L 353.492872 243.345049 
L 353.752129 243.150433 
L 353.816943 243.328019 
L 353.881757 243.27939 
L 354.335457 242.939587 
L 354.5299 243.245557 
L 354.853971 243.003304 
L 354.918785 243.18026 
L 354.983599 243.131845 
L 355.178042 242.986728 
L 355.242856 243.163492 
L 355.30767 243.115134 
L 355.826184 242.729033 
L 355.955813 243.081824 
L 356.020627 243.0336 
L 356.863212 242.408608 
L 356.928027 242.584496 
L 356.992841 242.536538 
L 357.057655 242.488602 
L 357.252098 242.792064 
L 358.159497 242.122657 
L 358.289126 242.472952 
L 358.35394 242.425237 
L 358.418754 242.377544 
L 358.613197 242.679696 
L 359.066897 242.346178 
L 359.131711 242.520783 
L 359.196525 242.473193 
L 359.390968 242.330545 
L 359.715039 242.980156 
L 359.909482 242.837426 
L 359.974296 243.011436 
L 360.03911 242.963873 
L 360.49281 242.631508 
L 360.557624 242.805224 
L 360.622438 242.757798 
L 361.076138 242.426388 
L 361.140952 242.599812 
L 361.205767 242.552522 
L 361.918723 242.033672 
L 361.983538 242.206696 
L 362.048352 242.159622 
L 362.63168 241.736866 
L 362.696494 241.909546 
L 362.761308 241.862647 
L 363.020565 241.67525 
L 363.08538 241.847722 
L 363.150194 241.800896 
L 363.279822 241.707304 
L 363.344637 241.879622 
L 363.409451 241.832829 
L 363.798336 241.552492 
L 363.863151 241.724549 
L 363.927965 241.677869 
L 364.835364 241.026435 
L 364.964993 241.369529 
L 365.029807 241.323093 
L 365.159435 241.23028 
L 365.22425 241.401638 
L 365.289064 241.355235 
L 365.677949 241.077229 
L 365.742764 241.248329 
L 365.807578 241.202037 
L 366.196463 240.924696 
L 366.390906 241.437006 
L 366.45572 241.390772 
L 367.103863 240.929505 
L 367.168677 241.099841 
L 367.233491 241.053796 
L 367.298305 241.007769 
L 367.36312 241.177982 
L 367.427934 241.131948 
L 367.557562 241.03994 
L 367.752005 241.333966 
L 367.816819 241.287958 
L 368.076076 241.751278 
L 368.140891 241.705231 
L 368.270519 242.044361 
L 368.335333 241.998281 
L 369.04829 241.492677 
L 369.113104 241.661824 
L 369.177919 241.61595 
L 369.307547 241.52426 
L 369.372361 241.693259 
L 369.437176 241.647416 
L 369.761247 241.418492 
L 369.890875 241.755969 
L 369.955689 241.710191 
L 370.409389 241.390274 
L 370.474203 241.558702 
L 370.539018 241.51305 
L 370.73346 241.376209 
L 370.863089 241.712649 
L 370.927903 241.667022 
L 371.122346 241.530256 
L 371.18716 241.698269 
L 371.251974 241.652693 
L 371.446417 241.516078 
L 371.64086 241.806139 
L 371.835303 241.669599 
L 371.900117 241.837198 
L 371.964931 241.791697 
L 372.677888 241.292433 
L 372.742702 241.459659 
L 372.807516 241.414359 
L 372.87233 241.369077 
L 372.937145 241.536184 
L 373.001959 241.490896 
L 373.261216 241.309932 
L 373.390844 241.643686 
L 373.455659 241.598441 
L 373.650101 241.46282 
L 373.844544 241.750877 
L 374.298244 241.43486 
L 374.622315 242.054618 
L 375.0112 241.783984 
L 375.076015 241.949871 
L 375.140829 241.904806 
L 375.529714 241.634801 
L 375.594529 241.800446 
L 375.659343 241.755485 
L 376.3723 241.262131 
L 376.437114 241.427412 
L 376.501928 241.382647 
L 376.696371 241.248462 
L 376.761185 241.413576 
L 376.825999 241.36886 
L 377.020442 241.234821 
L 377.214885 241.519958 
L 377.409327 241.385991 
L 377.60377 241.670686 
L 377.927841 241.447617 
L 378.122284 241.731811 
L 378.381541 241.553561 
L 378.446355 241.717739 
L 378.51117 241.673198 
L 378.575984 241.628674 
L 378.640798 241.792737 
L 378.705612 241.748208 
L 379.677826 241.082429 
L 379.807454 241.40958 
L 379.872269 241.36529 
L 380.001897 241.276765 
L 380.066711 241.440168 
L 380.131526 241.395908 
L 380.909297 240.866183 
L 380.974111 241.029208 
L 381.038925 240.985156 
L 381.233368 240.853107 
L 381.362996 241.178767 
L 381.427811 241.134738 
L 381.687068 240.9588 
L 381.751882 241.121412 
L 381.816696 241.077448 
L 382.011139 240.945662 
L 382.075953 241.108113 
L 382.140767 241.064196 
L 382.464838 240.844875 
L 382.529653 241.007117 
L 382.594467 240.963282 
L 383.112981 240.613234 
L 383.177795 240.775198 
L 383.242609 240.731497 
L 383.307424 240.687814 
L 383.501866 240.967739 
L 383.761123 240.793062 
L 383.825938 240.954666 
L 383.890752 240.911016 
L 384.279637 240.649488 
L 384.344452 240.810862 
L 384.409266 240.767311 
L 384.538894 240.680262 
L 384.603708 240.841501 
L 384.668523 240.797979 
" style="fill:none;stroke:#0000ff;stroke-linecap:square;"/>
   </g>
   <g id="patch_3">
    <path d="M 43.78125 276.812 
L 43.78125 10.7 
" style="fill:none;stroke:#000000;stroke-linecap:square;stroke-linejoin:miter;stroke-width:0.8;"/>
   </g>
   <g id="patch_4">
    <path d="M 400.90125 276.812 
L 400.90125 10.7 
" style="fill:none;stroke:#000000;stroke-linecap:square;stroke-linejoin:miter;stroke-width:0.8;"/>
   </g>
   <g id="patch_5">
    <path d="M 43.78125 276.812 
L 400.90125 276.812 
" style="fill:none;stroke:#000000;stroke-linecap:square;stroke-linejoin:miter;stroke-width:0.8;"/>
   </g>
   <g id="patch_6">
    <path d="M 43.78125 10.7 
L 400.90125 10.7 
" style="fill:none;stroke:#000000;stroke-linecap:square;stroke-linejoin:miter;stroke-width:0.8;"/>
   </g>
   <g id="legend_1">
    <g id="patch_7">
     <path d="M 264.405937 218.5896 
L 395.90125 218.5896 
L 395.90125 186.23335 
L 264.405937 186.23335 
z
" style="fill:#ffffff;opacity:0.8;stroke:#cccccc;stroke-linejoin:miter;"/>
    </g>
    <g id="line2d_35">
     <path d="M 268.405937 194.331787 
L 288.405937 194.331787 
" style="fill:none;stroke:#000000;stroke-linecap:square;"/>
    </g>
    <g id="line2d_36"/>
    <g id="text_19">
     <!--  -->
     <defs>
      <path d="M 3.609375 54.6875 
L 56 54.6875 
L 56 45.703125 
L 49.125 45.703125 
L 49.125 12.109375 
Q 49.125 8.59375 50.3125 7.046875 
Q 51.515625 5.515625 54.203125 5.515625 
Q 54.9375 5.515625 56 5.640625 
Q 57.078125 5.765625 57.421875 5.8125 
L 57.421875 -0.6875 
Q 55.71875 -1.3125 53.90625 -1.609375 
Q 52.09375 -1.90625 50.296875 -1.90625 
Q 44.4375 -1.90625 42.1875 1.296875 
Q 39.9375 4.5 39.9375 13.09375 
L 39.9375 45.703125 
L 19.78125 45.703125 
L 19.78125 0 
L 10.59375 0 
L 10.59375 45.703125 
L 3.609375 45.703125 
z
" id="DejaVuSans-3c0"/>
     </defs>
     <g transform="translate(296.405937 197.831787)scale(0.1 -0.1)">
      <use xlink:href="#DejaVuSans-3c0"/>
     </g>
    </g>
    <g id="line2d_37">
     <path d="M 268.405937 209.009912 
L 288.405937 209.009912 
" style="fill:none;stroke:#0000ff;stroke-linecap:square;"/>
    </g>
    <g id="line2d_38"/>
    <g id="text_20">
     <!-- Approximation of  -->
     <defs>
      <path d="M 34.1875 63.1875 
L 20.796875 26.90625 
L 47.609375 26.90625 
z
M 28.609375 72.90625 
L 39.796875 72.90625 
L 67.578125 0 
L 57.328125 0 
L 50.6875 18.703125 
L 17.828125 18.703125 
L 11.1875 0 
L 0.78125 0 
z
" id="DejaVuSans-41"/>
      <path d="M 41.109375 46.296875 
Q 39.59375 47.171875 37.8125 47.578125 
Q 36.03125 48 33.890625 48 
Q 26.265625 48 22.1875 43.046875 
Q 18.109375 38.09375 18.109375 28.8125 
L 18.109375 0 
L 9.078125 0 
L 9.078125 54.6875 
L 18.109375 54.6875 
L 18.109375 46.1875 
Q 20.953125 51.171875 25.484375 53.578125 
Q 30.03125 56 36.53125 56 
Q 37.453125 56 38.578125 55.875 
Q 39.703125 55.765625 41.0625 55.515625 
z
" id="DejaVuSans-72"/>
      <path d="M 30.609375 48.390625 
Q 23.390625 48.390625 19.1875 42.75 
Q 14.984375 37.109375 14.984375 27.296875 
Q 14.984375 17.484375 19.15625 11.84375 
Q 23.34375 6.203125 30.609375 6.203125 
Q 37.796875 6.203125 41.984375 11.859375 
Q 46.1875 17.53125 46.1875 27.296875 
Q 46.1875 37.015625 41.984375 42.703125 
Q 37.796875 48.390625 30.609375 48.390625 
z
M 30.609375 56 
Q 42.328125 56 49.015625 48.375 
Q 55.71875 40.765625 55.71875 27.296875 
Q 55.71875 13.875 49.015625 6.21875 
Q 42.328125 -1.421875 30.609375 -1.421875 
Q 18.84375 -1.421875 12.171875 6.21875 
Q 5.515625 13.875 5.515625 27.296875 
Q 5.515625 40.765625 12.171875 48.375 
Q 18.84375 56 30.609375 56 
z
" id="DejaVuSans-6f"/>
      <path d="M 54.890625 54.6875 
L 35.109375 28.078125 
L 55.90625 0 
L 45.3125 0 
L 29.390625 21.484375 
L 13.484375 0 
L 2.875 0 
L 24.125 28.609375 
L 4.6875 54.6875 
L 15.28125 54.6875 
L 29.78125 35.203125 
L 44.28125 54.6875 
z
" id="DejaVuSans-78"/>
      <path d="M 9.421875 54.6875 
L 18.40625 54.6875 
L 18.40625 0 
L 9.421875 0 
z
M 9.421875 75.984375 
L 18.40625 75.984375 
L 18.40625 64.59375 
L 9.421875 64.59375 
z
" id="DejaVuSans-69"/>
      <path d="M 52 44.1875 
Q 55.375 50.25 60.0625 53.125 
Q 64.75 56 71.09375 56 
Q 79.640625 56 84.28125 50.015625 
Q 88.921875 44.046875 88.921875 33.015625 
L 88.921875 0 
L 79.890625 0 
L 79.890625 32.71875 
Q 79.890625 40.578125 77.09375 44.375 
Q 74.3125 48.1875 68.609375 48.1875 
Q 61.625 48.1875 57.5625 43.546875 
Q 53.515625 38.921875 53.515625 30.90625 
L 53.515625 0 
L 44.484375 0 
L 44.484375 32.71875 
Q 44.484375 40.625 41.703125 44.40625 
Q 38.921875 48.1875 33.109375 48.1875 
Q 26.21875 48.1875 22.15625 43.53125 
Q 18.109375 38.875 18.109375 30.90625 
L 18.109375 0 
L 9.078125 0 
L 9.078125 54.6875 
L 18.109375 54.6875 
L 18.109375 46.1875 
Q 21.1875 51.21875 25.484375 53.609375 
Q 29.78125 56 35.6875 56 
Q 41.65625 56 45.828125 52.96875 
Q 50 49.953125 52 44.1875 
z
" id="DejaVuSans-6d"/>
      <path d="M 54.890625 33.015625 
L 54.890625 0 
L 45.90625 0 
L 45.90625 32.71875 
Q 45.90625 40.484375 42.875 44.328125 
Q 39.84375 48.1875 33.796875 48.1875 
Q 26.515625 48.1875 22.3125 43.546875 
Q 18.109375 38.921875 18.109375 30.90625 
L 18.109375 0 
L 9.078125 0 
L 9.078125 54.6875 
L 18.109375 54.6875 
L 18.109375 46.1875 
Q 21.34375 51.125 25.703125 53.5625 
Q 30.078125 56 35.796875 56 
Q 45.21875 56 50.046875 50.171875 
Q 54.890625 44.34375 54.890625 33.015625 
z
" id="DejaVuSans-6e"/>
      <path id="DejaVuSans-20"/>
      <path d="M 37.109375 75.984375 
L 37.109375 68.5 
L 28.515625 68.5 
Q 23.6875 68.5 21.796875 66.546875 
Q 19.921875 64.59375 19.921875 59.515625 
L 19.921875 54.6875 
L 34.71875 54.6875 
L 34.71875 47.703125 
L 19.921875 47.703125 
L 19.921875 0 
L 10.890625 0 
L 10.890625 47.703125 
L 2.296875 47.703125 
L 2.296875 54.6875 
L 10.890625 54.6875 
L 10.890625 58.5 
Q 10.890625 67.625 15.140625 71.796875 
Q 19.390625 75.984375 28.609375 75.984375 
z
" id="DejaVuSans-66"/>
     </defs>
     <g transform="translate(296.405937 212.509912)scale(0.1 -0.1)">
      <use xlink:href="#DejaVuSans-41"/>
      <use x="68.408203" xlink:href="#DejaVuSans-70"/>
      <use x="131.884766" xlink:href="#DejaVuSans-70"/>
      <use x="195.361328" xlink:href="#DejaVuSans-72"/>
      <use x="236.443359" xlink:href="#DejaVuSans-6f"/>
      <use x="297.578125" xlink:href="#DejaVuSans-78"/>
      <use x="356.757812" xlink:href="#DejaVuSans-69"/>
      <use x="384.541016" xlink:href="#DejaVuSans-6d"/>
      <use x="481.953125" xlink:href="#DejaVuSans-61"/>
      <use x="543.232422" xlink:href="#DejaVuSans-74"/>
      <use x="582.441406" xlink:href="#DejaVuSans-69"/>
      <use x="610.224609" xlink:href="#DejaVuSans-6f"/>
      <use x="671.40625" xlink:href="#DejaVuSans-6e"/>
      <use x="734.785156" xlink:href="#DejaVuSans-20"/>
      <use x="766.572266" xlink:href="#DejaVuSans-6f"/>
      <use x="827.753906" xlink:href="#DejaVuSans-66"/>
      <use x="862.958984" xlink:href="#DejaVuSans-20"/>
      <use x="894.746094" xlink:href="#DejaVuSans-3c0"/>
     </g>
    </g>
   </g>
  </g>
 </g>
 <defs>
  <clipPath id="p58d0f3ab87">
   <rect height="266.112" width="357.12" x="43.78125" y="10.7"/>
  </clipPath>
 </defs>
</svg>
