<?xml version="1.0" encoding="utf-8" standalone="no"?>
<!DOCTYPE svg PUBLIC "-//W3C//DTD SVG 1.1//EN"
  "http://www.w3.org/Graphics/SVG/1.1/DTD/svg11.dtd">
<!-- Created with matplotlib (https://matplotlib.org/) -->
<svg height="314.36825pt" version="1.1" viewBox="0 0 411.60125 314.36825" width="411.60125pt" xmlns="http://www.w3.org/2000/svg" xmlns:xlink="http://www.w3.org/1999/xlink">
 <defs>
  <style type="text/css">
*{stroke-linecap:butt;stroke-linejoin:round;}
  </style>
 </defs>
 <g id="figure_1">
  <g id="patch_1">
   <path d="M 0 314.36825 
L 411.60125 314.36825 
L 411.60125 0 
L 0 0 
z
" style="fill:#ffffff;"/>
  </g>
  <g id="axes_1">
   <g id="patch_2">
    <path d="M 43.78125 276.812 
L 400.90125 276.812 
L 400.90125 10.7 
L 43.78125 10.7 
z
" style="fill:#ffffff;"/>
   </g>
   <g id="matplotlib.axis_1">
    <g id="xtick_1">
     <g id="line2d_1">
      <path clip-path="url(#p4f5a83fec4)" d="M 60.013977 276.812 
L 60.013977 10.7 
" style="fill:none;stroke:#b0b0b0;stroke-linecap:square;stroke-width:0.8;"/>
     </g>
     <g id="line2d_2">
      <defs>
       <path d="M 0 0 
L 0 3.5 
" id="m54395e2178" style="stroke:#000000;stroke-width:0.8;"/>
      </defs>
      <g>
       <use style="stroke:#000000;stroke-width:0.8;" x="60.013977" xlink:href="#m54395e2178" y="276.812"/>
      </g>
     </g>
     <g id="text_1">
      <!-- 0.00 -->
      <defs>
       <path d="M 31.78125 66.40625 
Q 24.171875 66.40625 20.328125 58.90625 
Q 16.5 51.421875 16.5 36.375 
Q 16.5 21.390625 20.328125 13.890625 
Q 24.171875 6.390625 31.78125 6.390625 
Q 39.453125 6.390625 43.28125 13.890625 
Q 47.125 21.390625 47.125 36.375 
Q 47.125 51.421875 43.28125 58.90625 
Q 39.453125 66.40625 31.78125 66.40625 
z
M 31.78125 74.21875 
Q 44.046875 74.21875 50.515625 64.515625 
Q 56.984375 54.828125 56.984375 36.375 
Q 56.984375 17.96875 50.515625 8.265625 
Q 44.046875 -1.421875 31.78125 -1.421875 
Q 19.53125 -1.421875 13.0625 8.265625 
Q 6.59375 17.96875 6.59375 36.375 
Q 6.59375 54.828125 13.0625 64.515625 
Q 19.53125 74.21875 31.78125 74.21875 
z
" id="DejaVuSans-48"/>
       <path d="M 10.6875 12.40625 
L 21 12.40625 
L 21 0 
L 10.6875 0 
z
" id="DejaVuSans-46"/>
      </defs>
      <g transform="translate(48.881165 291.410438)scale(0.1 -0.1)">
       <use xlink:href="#DejaVuSans-48"/>
       <use x="63.623047" xlink:href="#DejaVuSans-46"/>
       <use x="95.410156" xlink:href="#DejaVuSans-48"/>
       <use x="159.033203" xlink:href="#DejaVuSans-48"/>
      </g>
     </g>
    </g>
    <g id="xtick_2">
     <g id="line2d_3">
      <path clip-path="url(#p4f5a83fec4)" d="M 124.944886 276.812 
L 124.944886 10.7 
" style="fill:none;stroke:#b0b0b0;stroke-linecap:square;stroke-width:0.8;"/>
     </g>
     <g id="line2d_4">
      <g>
       <use style="stroke:#000000;stroke-width:0.8;" x="124.944886" xlink:href="#m54395e2178" y="276.812"/>
      </g>
     </g>
     <g id="text_2">
      <!-- 0.02 -->
      <defs>
       <path d="M 19.1875 8.296875 
L 53.609375 8.296875 
L 53.609375 0 
L 7.328125 0 
L 7.328125 8.296875 
Q 12.9375 14.109375 22.625 23.890625 
Q 32.328125 33.6875 34.8125 36.53125 
Q 39.546875 41.84375 41.421875 45.53125 
Q 43.3125 49.21875 43.3125 52.78125 
Q 43.3125 58.59375 39.234375 62.25 
Q 35.15625 65.921875 28.609375 65.921875 
Q 23.96875 65.921875 18.8125 64.3125 
Q 13.671875 62.703125 7.8125 59.421875 
L 7.8125 69.390625 
Q 13.765625 71.78125 18.9375 73 
Q 24.125 74.21875 28.421875 74.21875 
Q 39.75 74.21875 46.484375 68.546875 
Q 53.21875 62.890625 53.21875 53.421875 
Q 53.21875 48.921875 51.53125 44.890625 
Q 49.859375 40.875 45.40625 35.40625 
Q 44.1875 33.984375 37.640625 27.21875 
Q 31.109375 20.453125 19.1875 8.296875 
z
" id="DejaVuSans-50"/>
      </defs>
      <g transform="translate(113.812074 291.410438)scale(0.1 -0.1)">
       <use xlink:href="#DejaVuSans-48"/>
       <use x="63.623047" xlink:href="#DejaVuSans-46"/>
       <use x="95.410156" xlink:href="#DejaVuSans-48"/>
       <use x="159.033203" xlink:href="#DejaVuSans-50"/>
      </g>
     </g>
    </g>
    <g id="xtick_3">
     <g id="line2d_5">
      <path clip-path="url(#p4f5a83fec4)" d="M 189.875795 276.812 
L 189.875795 10.7 
" style="fill:none;stroke:#b0b0b0;stroke-linecap:square;stroke-width:0.8;"/>
     </g>
     <g id="line2d_6">
      <g>
       <use style="stroke:#000000;stroke-width:0.8;" x="189.875795" xlink:href="#m54395e2178" y="276.812"/>
      </g>
     </g>
     <g id="text_3">
      <!-- 0.04 -->
      <defs>
       <path d="M 37.796875 64.3125 
L 12.890625 25.390625 
L 37.796875 25.390625 
z
M 35.203125 72.90625 
L 47.609375 72.90625 
L 47.609375 25.390625 
L 58.015625 25.390625 
L 58.015625 17.1875 
L 47.609375 17.1875 
L 47.609375 0 
L 37.796875 0 
L 37.796875 17.1875 
L 4.890625 17.1875 
L 4.890625 26.703125 
z
" id="DejaVuSans-52"/>
      </defs>
      <g transform="translate(178.742983 291.410438)scale(0.1 -0.1)">
       <use xlink:href="#DejaVuSans-48"/>
       <use x="63.623047" xlink:href="#DejaVuSans-46"/>
       <use x="95.410156" xlink:href="#DejaVuSans-48"/>
       <use x="159.033203" xlink:href="#DejaVuSans-52"/>
      </g>
     </g>
    </g>
    <g id="xtick_4">
     <g id="line2d_7">
      <path clip-path="url(#p4f5a83fec4)" d="M 254.806705 276.812 
L 254.806705 10.7 
" style="fill:none;stroke:#b0b0b0;stroke-linecap:square;stroke-width:0.8;"/>
     </g>
     <g id="line2d_8">
      <g>
       <use style="stroke:#000000;stroke-width:0.8;" x="254.806705" xlink:href="#m54395e2178" y="276.812"/>
      </g>
     </g>
     <g id="text_4">
      <!-- 0.06 -->
      <defs>
       <path d="M 33.015625 40.375 
Q 26.375 40.375 22.484375 35.828125 
Q 18.609375 31.296875 18.609375 23.390625 
Q 18.609375 15.53125 22.484375 10.953125 
Q 26.375 6.390625 33.015625 6.390625 
Q 39.65625 6.390625 43.53125 10.953125 
Q 47.40625 15.53125 47.40625 23.390625 
Q 47.40625 31.296875 43.53125 35.828125 
Q 39.65625 40.375 33.015625 40.375 
z
M 52.59375 71.296875 
L 52.59375 62.3125 
Q 48.875 64.0625 45.09375 64.984375 
Q 41.3125 65.921875 37.59375 65.921875 
Q 27.828125 65.921875 22.671875 59.328125 
Q 17.53125 52.734375 16.796875 39.40625 
Q 19.671875 43.65625 24.015625 45.921875 
Q 28.375 48.1875 33.59375 48.1875 
Q 44.578125 48.1875 50.953125 41.515625 
Q 57.328125 34.859375 57.328125 23.390625 
Q 57.328125 12.15625 50.6875 5.359375 
Q 44.046875 -1.421875 33.015625 -1.421875 
Q 20.359375 -1.421875 13.671875 8.265625 
Q 6.984375 17.96875 6.984375 36.375 
Q 6.984375 53.65625 15.1875 63.9375 
Q 23.390625 74.21875 37.203125 74.21875 
Q 40.921875 74.21875 44.703125 73.484375 
Q 48.484375 72.75 52.59375 71.296875 
z
" id="DejaVuSans-54"/>
      </defs>
      <g transform="translate(243.673892 291.410438)scale(0.1 -0.1)">
       <use xlink:href="#DejaVuSans-48"/>
       <use x="63.623047" xlink:href="#DejaVuSans-46"/>
       <use x="95.410156" xlink:href="#DejaVuSans-48"/>
       <use x="159.033203" xlink:href="#DejaVuSans-54"/>
      </g>
     </g>
    </g>
    <g id="xtick_5">
     <g id="line2d_9">
      <path clip-path="url(#p4f5a83fec4)" d="M 319.737614 276.812 
L 319.737614 10.7 
" style="fill:none;stroke:#b0b0b0;stroke-linecap:square;stroke-width:0.8;"/>
     </g>
     <g id="line2d_10">
      <g>
       <use style="stroke:#000000;stroke-width:0.8;" x="319.737614" xlink:href="#m54395e2178" y="276.812"/>
      </g>
     </g>
     <g id="text_5">
      <!-- 0.08 -->
      <defs>
       <path d="M 31.78125 34.625 
Q 24.75 34.625 20.71875 30.859375 
Q 16.703125 27.09375 16.703125 20.515625 
Q 16.703125 13.921875 20.71875 10.15625 
Q 24.75 6.390625 31.78125 6.390625 
Q 38.8125 6.390625 42.859375 10.171875 
Q 46.921875 13.96875 46.921875 20.515625 
Q 46.921875 27.09375 42.890625 30.859375 
Q 38.875 34.625 31.78125 34.625 
z
M 21.921875 38.8125 
Q 15.578125 40.375 12.03125 44.71875 
Q 8.5 49.078125 8.5 55.328125 
Q 8.5 64.0625 14.71875 69.140625 
Q 20.953125 74.21875 31.78125 74.21875 
Q 42.671875 74.21875 48.875 69.140625 
Q 55.078125 64.0625 55.078125 55.328125 
Q 55.078125 49.078125 51.53125 44.71875 
Q 48 40.375 41.703125 38.8125 
Q 48.828125 37.15625 52.796875 32.3125 
Q 56.78125 27.484375 56.78125 20.515625 
Q 56.78125 9.90625 50.3125 4.234375 
Q 43.84375 -1.421875 31.78125 -1.421875 
Q 19.734375 -1.421875 13.25 4.234375 
Q 6.78125 9.90625 6.78125 20.515625 
Q 6.78125 27.484375 10.78125 32.3125 
Q 14.796875 37.15625 21.921875 38.8125 
z
M 18.3125 54.390625 
Q 18.3125 48.734375 21.84375 45.5625 
Q 25.390625 42.390625 31.78125 42.390625 
Q 38.140625 42.390625 41.71875 45.5625 
Q 45.3125 48.734375 45.3125 54.390625 
Q 45.3125 60.0625 41.71875 63.234375 
Q 38.140625 66.40625 31.78125 66.40625 
Q 25.390625 66.40625 21.84375 63.234375 
Q 18.3125 60.0625 18.3125 54.390625 
z
" id="DejaVuSans-56"/>
      </defs>
      <g transform="translate(308.604801 291.410438)scale(0.1 -0.1)">
       <use xlink:href="#DejaVuSans-48"/>
       <use x="63.623047" xlink:href="#DejaVuSans-46"/>
       <use x="95.410156" xlink:href="#DejaVuSans-48"/>
       <use x="159.033203" xlink:href="#DejaVuSans-56"/>
      </g>
     </g>
    </g>
    <g id="xtick_6">
     <g id="line2d_11">
      <path clip-path="url(#p4f5a83fec4)" d="M 384.668523 276.812 
L 384.668523 10.7 
" style="fill:none;stroke:#b0b0b0;stroke-linecap:square;stroke-width:0.8;"/>
     </g>
     <g id="line2d_12">
      <g>
       <use style="stroke:#000000;stroke-width:0.8;" x="384.668523" xlink:href="#m54395e2178" y="276.812"/>
      </g>
     </g>
     <g id="text_6">
      <!-- 0.10 -->
      <defs>
       <path d="M 12.40625 8.296875 
L 28.515625 8.296875 
L 28.515625 63.921875 
L 10.984375 60.40625 
L 10.984375 69.390625 
L 28.421875 72.90625 
L 38.28125 72.90625 
L 38.28125 8.296875 
L 54.390625 8.296875 
L 54.390625 0 
L 12.40625 0 
z
" id="DejaVuSans-49"/>
      </defs>
      <g transform="translate(373.53571 291.410438)scale(0.1 -0.1)">
       <use xlink:href="#DejaVuSans-48"/>
       <use x="63.623047" xlink:href="#DejaVuSans-46"/>
       <use x="95.410156" xlink:href="#DejaVuSans-49"/>
       <use x="159.033203" xlink:href="#DejaVuSans-48"/>
      </g>
     </g>
    </g>
    <g id="text_7">
     <!-- Probability to link between of two nodes -->
     <defs>
      <path d="M 19.671875 64.796875 
L 19.671875 37.40625 
L 32.078125 37.40625 
Q 38.96875 37.40625 42.71875 40.96875 
Q 46.484375 44.53125 46.484375 51.125 
Q 46.484375 57.671875 42.71875 61.234375 
Q 38.96875 64.796875 32.078125 64.796875 
z
M 9.8125 72.90625 
L 32.078125 72.90625 
Q 44.34375 72.90625 50.609375 67.359375 
Q 56.890625 61.8125 56.890625 51.125 
Q 56.890625 40.328125 50.609375 34.8125 
Q 44.34375 29.296875 32.078125 29.296875 
L 19.671875 29.296875 
L 19.671875 0 
L 9.8125 0 
z
" id="DejaVuSans-80"/>
      <path d="M 41.109375 46.296875 
Q 39.59375 47.171875 37.8125 47.578125 
Q 36.03125 48 33.890625 48 
Q 26.265625 48 22.1875 43.046875 
Q 18.109375 38.09375 18.109375 28.8125 
L 18.109375 0 
L 9.078125 0 
L 9.078125 54.6875 
L 18.109375 54.6875 
L 18.109375 46.1875 
Q 20.953125 51.171875 25.484375 53.578125 
Q 30.03125 56 36.53125 56 
Q 37.453125 56 38.578125 55.875 
Q 39.703125 55.765625 41.0625 55.515625 
z
" id="DejaVuSans-114"/>
      <path d="M 30.609375 48.390625 
Q 23.390625 48.390625 19.1875 42.75 
Q 14.984375 37.109375 14.984375 27.296875 
Q 14.984375 17.484375 19.15625 11.84375 
Q 23.34375 6.203125 30.609375 6.203125 
Q 37.796875 6.203125 41.984375 11.859375 
Q 46.1875 17.53125 46.1875 27.296875 
Q 46.1875 37.015625 41.984375 42.703125 
Q 37.796875 48.390625 30.609375 48.390625 
z
M 30.609375 56 
Q 42.328125 56 49.015625 48.375 
Q 55.71875 40.765625 55.71875 27.296875 
Q 55.71875 13.875 49.015625 6.21875 
Q 42.328125 -1.421875 30.609375 -1.421875 
Q 18.84375 -1.421875 12.171875 6.21875 
Q 5.515625 13.875 5.515625 27.296875 
Q 5.515625 40.765625 12.171875 48.375 
Q 18.84375 56 30.609375 56 
z
" id="DejaVuSans-111"/>
      <path d="M 48.6875 27.296875 
Q 48.6875 37.203125 44.609375 42.84375 
Q 40.53125 48.484375 33.40625 48.484375 
Q 26.265625 48.484375 22.1875 42.84375 
Q 18.109375 37.203125 18.109375 27.296875 
Q 18.109375 17.390625 22.1875 11.75 
Q 26.265625 6.109375 33.40625 6.109375 
Q 40.53125 6.109375 44.609375 11.75 
Q 48.6875 17.390625 48.6875 27.296875 
z
M 18.109375 46.390625 
Q 20.953125 51.265625 25.265625 53.625 
Q 29.59375 56 35.59375 56 
Q 45.5625 56 51.78125 48.09375 
Q 58.015625 40.1875 58.015625 27.296875 
Q 58.015625 14.40625 51.78125 6.484375 
Q 45.5625 -1.421875 35.59375 -1.421875 
Q 29.59375 -1.421875 25.265625 0.953125 
Q 20.953125 3.328125 18.109375 8.203125 
L 18.109375 0 
L 9.078125 0 
L 9.078125 75.984375 
L 18.109375 75.984375 
z
" id="DejaVuSans-98"/>
      <path d="M 34.28125 27.484375 
Q 23.390625 27.484375 19.1875 25 
Q 14.984375 22.515625 14.984375 16.5 
Q 14.984375 11.71875 18.140625 8.90625 
Q 21.296875 6.109375 26.703125 6.109375 
Q 34.1875 6.109375 38.703125 11.40625 
Q 43.21875 16.703125 43.21875 25.484375 
L 43.21875 27.484375 
z
M 52.203125 31.203125 
L 52.203125 0 
L 43.21875 0 
L 43.21875 8.296875 
Q 40.140625 3.328125 35.546875 0.953125 
Q 30.953125 -1.421875 24.3125 -1.421875 
Q 15.921875 -1.421875 10.953125 3.296875 
Q 6 8.015625 6 15.921875 
Q 6 25.140625 12.171875 29.828125 
Q 18.359375 34.515625 30.609375 34.515625 
L 43.21875 34.515625 
L 43.21875 35.40625 
Q 43.21875 41.609375 39.140625 45 
Q 35.0625 48.390625 27.6875 48.390625 
Q 23 48.390625 18.546875 47.265625 
Q 14.109375 46.140625 10.015625 43.890625 
L 10.015625 52.203125 
Q 14.9375 54.109375 19.578125 55.046875 
Q 24.21875 56 28.609375 56 
Q 40.484375 56 46.34375 49.84375 
Q 52.203125 43.703125 52.203125 31.203125 
z
" id="DejaVuSans-97"/>
      <path d="M 9.421875 54.6875 
L 18.40625 54.6875 
L 18.40625 0 
L 9.421875 0 
z
M 9.421875 75.984375 
L 18.40625 75.984375 
L 18.40625 64.59375 
L 9.421875 64.59375 
z
" id="DejaVuSans-105"/>
      <path d="M 9.421875 75.984375 
L 18.40625 75.984375 
L 18.40625 0 
L 9.421875 0 
z
" id="DejaVuSans-108"/>
      <path d="M 18.3125 70.21875 
L 18.3125 54.6875 
L 36.8125 54.6875 
L 36.8125 47.703125 
L 18.3125 47.703125 
L 18.3125 18.015625 
Q 18.3125 11.328125 20.140625 9.421875 
Q 21.96875 7.515625 27.59375 7.515625 
L 36.8125 7.515625 
L 36.8125 0 
L 27.59375 0 
Q 17.1875 0 13.234375 3.875 
Q 9.28125 7.765625 9.28125 18.015625 
L 9.28125 47.703125 
L 2.6875 47.703125 
L 2.6875 54.6875 
L 9.28125 54.6875 
L 9.28125 70.21875 
z
" id="DejaVuSans-116"/>
      <path d="M 32.171875 -5.078125 
Q 28.375 -14.84375 24.75 -17.8125 
Q 21.140625 -20.796875 15.09375 -20.796875 
L 7.90625 -20.796875 
L 7.90625 -13.28125 
L 13.1875 -13.28125 
Q 16.890625 -13.28125 18.9375 -11.515625 
Q 21 -9.765625 23.484375 -3.21875 
L 25.09375 0.875 
L 2.984375 54.6875 
L 12.5 54.6875 
L 29.59375 11.921875 
L 46.6875 54.6875 
L 56.203125 54.6875 
z
" id="DejaVuSans-121"/>
      <path id="DejaVuSans-32"/>
      <path d="M 54.890625 33.015625 
L 54.890625 0 
L 45.90625 0 
L 45.90625 32.71875 
Q 45.90625 40.484375 42.875 44.328125 
Q 39.84375 48.1875 33.796875 48.1875 
Q 26.515625 48.1875 22.3125 43.546875 
Q 18.109375 38.921875 18.109375 30.90625 
L 18.109375 0 
L 9.078125 0 
L 9.078125 54.6875 
L 18.109375 54.6875 
L 18.109375 46.1875 
Q 21.34375 51.125 25.703125 53.5625 
Q 30.078125 56 35.796875 56 
Q 45.21875 56 50.046875 50.171875 
Q 54.890625 44.34375 54.890625 33.015625 
z
" id="DejaVuSans-110"/>
      <path d="M 9.078125 75.984375 
L 18.109375 75.984375 
L 18.109375 31.109375 
L 44.921875 54.6875 
L 56.390625 54.6875 
L 27.390625 29.109375 
L 57.625 0 
L 45.90625 0 
L 18.109375 26.703125 
L 18.109375 0 
L 9.078125 0 
z
" id="DejaVuSans-107"/>
      <path d="M 56.203125 29.59375 
L 56.203125 25.203125 
L 14.890625 25.203125 
Q 15.484375 15.921875 20.484375 11.0625 
Q 25.484375 6.203125 34.421875 6.203125 
Q 39.59375 6.203125 44.453125 7.46875 
Q 49.3125 8.734375 54.109375 11.28125 
L 54.109375 2.78125 
Q 49.265625 0.734375 44.1875 -0.34375 
Q 39.109375 -1.421875 33.890625 -1.421875 
Q 20.796875 -1.421875 13.15625 6.1875 
Q 5.515625 13.8125 5.515625 26.8125 
Q 5.515625 40.234375 12.765625 48.109375 
Q 20.015625 56 32.328125 56 
Q 43.359375 56 49.78125 48.890625 
Q 56.203125 41.796875 56.203125 29.59375 
z
M 47.21875 32.234375 
Q 47.125 39.59375 43.09375 43.984375 
Q 39.0625 48.390625 32.421875 48.390625 
Q 24.90625 48.390625 20.390625 44.140625 
Q 15.875 39.890625 15.1875 32.171875 
z
" id="DejaVuSans-101"/>
      <path d="M 4.203125 54.6875 
L 13.1875 54.6875 
L 24.421875 12.015625 
L 35.59375 54.6875 
L 46.1875 54.6875 
L 57.421875 12.015625 
L 68.609375 54.6875 
L 77.59375 54.6875 
L 63.28125 0 
L 52.6875 0 
L 40.921875 44.828125 
L 29.109375 0 
L 18.5 0 
z
" id="DejaVuSans-119"/>
      <path d="M 37.109375 75.984375 
L 37.109375 68.5 
L 28.515625 68.5 
Q 23.6875 68.5 21.796875 66.546875 
Q 19.921875 64.59375 19.921875 59.515625 
L 19.921875 54.6875 
L 34.71875 54.6875 
L 34.71875 47.703125 
L 19.921875 47.703125 
L 19.921875 0 
L 10.890625 0 
L 10.890625 47.703125 
L 2.296875 47.703125 
L 2.296875 54.6875 
L 10.890625 54.6875 
L 10.890625 58.5 
Q 10.890625 67.625 15.140625 71.796875 
Q 19.390625 75.984375 28.609375 75.984375 
z
" id="DejaVuSans-102"/>
      <path d="M 45.40625 46.390625 
L 45.40625 75.984375 
L 54.390625 75.984375 
L 54.390625 0 
L 45.40625 0 
L 45.40625 8.203125 
Q 42.578125 3.328125 38.25 0.953125 
Q 33.9375 -1.421875 27.875 -1.421875 
Q 17.96875 -1.421875 11.734375 6.484375 
Q 5.515625 14.40625 5.515625 27.296875 
Q 5.515625 40.1875 11.734375 48.09375 
Q 17.96875 56 27.875 56 
Q 33.9375 56 38.25 53.625 
Q 42.578125 51.265625 45.40625 46.390625 
z
M 14.796875 27.296875 
Q 14.796875 17.390625 18.875 11.75 
Q 22.953125 6.109375 30.078125 6.109375 
Q 37.203125 6.109375 41.296875 11.75 
Q 45.40625 17.390625 45.40625 27.296875 
Q 45.40625 37.203125 41.296875 42.84375 
Q 37.203125 48.484375 30.078125 48.484375 
Q 22.953125 48.484375 18.875 42.84375 
Q 14.796875 37.203125 14.796875 27.296875 
z
" id="DejaVuSans-100"/>
      <path d="M 44.28125 53.078125 
L 44.28125 44.578125 
Q 40.484375 46.53125 36.375 47.5 
Q 32.28125 48.484375 27.875 48.484375 
Q 21.1875 48.484375 17.84375 46.4375 
Q 14.5 44.390625 14.5 40.28125 
Q 14.5 37.15625 16.890625 35.375 
Q 19.28125 33.59375 26.515625 31.984375 
L 29.59375 31.296875 
Q 39.15625 29.25 43.1875 25.515625 
Q 47.21875 21.78125 47.21875 15.09375 
Q 47.21875 7.46875 41.1875 3.015625 
Q 35.15625 -1.421875 24.609375 -1.421875 
Q 20.21875 -1.421875 15.453125 -0.5625 
Q 10.6875 0.296875 5.421875 2 
L 5.421875 11.28125 
Q 10.40625 8.6875 15.234375 7.390625 
Q 20.0625 6.109375 24.8125 6.109375 
Q 31.15625 6.109375 34.5625 8.28125 
Q 37.984375 10.453125 37.984375 14.40625 
Q 37.984375 18.0625 35.515625 20.015625 
Q 33.0625 21.96875 24.703125 23.78125 
L 21.578125 24.515625 
Q 13.234375 26.265625 9.515625 29.90625 
Q 5.8125 33.546875 5.8125 39.890625 
Q 5.8125 47.609375 11.28125 51.796875 
Q 16.75 56 26.8125 56 
Q 31.78125 56 36.171875 55.265625 
Q 40.578125 54.546875 44.28125 53.078125 
z
" id="DejaVuSans-115"/>
     </defs>
     <g transform="translate(121.685 305.088562)scale(0.1 -0.1)">
      <use xlink:href="#DejaVuSans-80"/>
      <use x="60.287109" xlink:href="#DejaVuSans-114"/>
      <use x="101.369141" xlink:href="#DejaVuSans-111"/>
      <use x="162.550781" xlink:href="#DejaVuSans-98"/>
      <use x="226.027344" xlink:href="#DejaVuSans-97"/>
      <use x="287.306641" xlink:href="#DejaVuSans-98"/>
      <use x="350.783203" xlink:href="#DejaVuSans-105"/>
      <use x="378.566406" xlink:href="#DejaVuSans-108"/>
      <use x="406.349609" xlink:href="#DejaVuSans-105"/>
      <use x="434.132812" xlink:href="#DejaVuSans-116"/>
      <use x="473.341797" xlink:href="#DejaVuSans-121"/>
      <use x="532.521484" xlink:href="#DejaVuSans-32"/>
      <use x="564.308594" xlink:href="#DejaVuSans-116"/>
      <use x="603.517578" xlink:href="#DejaVuSans-111"/>
      <use x="664.699219" xlink:href="#DejaVuSans-32"/>
      <use x="696.486328" xlink:href="#DejaVuSans-108"/>
      <use x="724.269531" xlink:href="#DejaVuSans-105"/>
      <use x="752.052734" xlink:href="#DejaVuSans-110"/>
      <use x="815.431641" xlink:href="#DejaVuSans-107"/>
      <use x="873.341797" xlink:href="#DejaVuSans-32"/>
      <use x="905.128906" xlink:href="#DejaVuSans-98"/>
      <use x="968.605469" xlink:href="#DejaVuSans-101"/>
      <use x="1030.128906" xlink:href="#DejaVuSans-116"/>
      <use x="1069.337891" xlink:href="#DejaVuSans-119"/>
      <use x="1151.125" xlink:href="#DejaVuSans-101"/>
      <use x="1212.648438" xlink:href="#DejaVuSans-101"/>
      <use x="1274.171875" xlink:href="#DejaVuSans-110"/>
      <use x="1337.550781" xlink:href="#DejaVuSans-32"/>
      <use x="1369.337891" xlink:href="#DejaVuSans-111"/>
      <use x="1430.519531" xlink:href="#DejaVuSans-102"/>
      <use x="1465.724609" xlink:href="#DejaVuSans-32"/>
      <use x="1497.511719" xlink:href="#DejaVuSans-116"/>
      <use x="1536.720703" xlink:href="#DejaVuSans-119"/>
      <use x="1618.507812" xlink:href="#DejaVuSans-111"/>
      <use x="1679.689453" xlink:href="#DejaVuSans-32"/>
      <use x="1711.476562" xlink:href="#DejaVuSans-110"/>
      <use x="1774.855469" xlink:href="#DejaVuSans-111"/>
      <use x="1836.037109" xlink:href="#DejaVuSans-100"/>
      <use x="1899.513672" xlink:href="#DejaVuSans-101"/>
      <use x="1961.037109" xlink:href="#DejaVuSans-115"/>
     </g>
    </g>
   </g>
   <g id="matplotlib.axis_2">
    <g id="ytick_1">
     <g id="line2d_13">
      <path clip-path="url(#p4f5a83fec4)" d="M 43.78125 264.716 
L 400.90125 264.716 
" style="fill:none;stroke:#b0b0b0;stroke-linecap:square;stroke-width:0.8;"/>
     </g>
     <g id="line2d_14">
      <defs>
       <path d="M 0 0 
L -3.5 0 
" id="m8b3a97d9bd" style="stroke:#000000;stroke-width:0.8;"/>
      </defs>
      <g>
       <use style="stroke:#000000;stroke-width:0.8;" x="43.78125" xlink:href="#m8b3a97d9bd" y="264.716"/>
      </g>
     </g>
     <g id="text_8">
      <!-- 0.0 -->
      <g transform="translate(20.878125 268.515219)scale(0.1 -0.1)">
       <use xlink:href="#DejaVuSans-48"/>
       <use x="63.623047" xlink:href="#DejaVuSans-46"/>
       <use x="95.410156" xlink:href="#DejaVuSans-48"/>
      </g>
     </g>
    </g>
    <g id="ytick_2">
     <g id="line2d_15">
      <path clip-path="url(#p4f5a83fec4)" d="M 43.78125 216.235961 
L 400.90125 216.235961 
" style="fill:none;stroke:#b0b0b0;stroke-linecap:square;stroke-width:0.8;"/>
     </g>
     <g id="line2d_16">
      <g>
       <use style="stroke:#000000;stroke-width:0.8;" x="43.78125" xlink:href="#m8b3a97d9bd" y="216.235961"/>
      </g>
     </g>
     <g id="text_9">
      <!-- 0.2 -->
      <g transform="translate(20.878125 220.03518)scale(0.1 -0.1)">
       <use xlink:href="#DejaVuSans-48"/>
       <use x="63.623047" xlink:href="#DejaVuSans-46"/>
       <use x="95.410156" xlink:href="#DejaVuSans-50"/>
      </g>
     </g>
    </g>
    <g id="ytick_3">
     <g id="line2d_17">
      <path clip-path="url(#p4f5a83fec4)" d="M 43.78125 167.755922 
L 400.90125 167.755922 
" style="fill:none;stroke:#b0b0b0;stroke-linecap:square;stroke-width:0.8;"/>
     </g>
     <g id="line2d_18">
      <g>
       <use style="stroke:#000000;stroke-width:0.8;" x="43.78125" xlink:href="#m8b3a97d9bd" y="167.755922"/>
      </g>
     </g>
     <g id="text_10">
      <!-- 0.4 -->
      <g transform="translate(20.878125 171.555141)scale(0.1 -0.1)">
       <use xlink:href="#DejaVuSans-48"/>
       <use x="63.623047" xlink:href="#DejaVuSans-46"/>
       <use x="95.410156" xlink:href="#DejaVuSans-52"/>
      </g>
     </g>
    </g>
    <g id="ytick_4">
     <g id="line2d_19">
      <path clip-path="url(#p4f5a83fec4)" d="M 43.78125 119.275884 
L 400.90125 119.275884 
" style="fill:none;stroke:#b0b0b0;stroke-linecap:square;stroke-width:0.8;"/>
     </g>
     <g id="line2d_20">
      <g>
       <use style="stroke:#000000;stroke-width:0.8;" x="43.78125" xlink:href="#m8b3a97d9bd" y="119.275884"/>
      </g>
     </g>
     <g id="text_11">
      <!-- 0.6 -->
      <g transform="translate(20.878125 123.075102)scale(0.1 -0.1)">
       <use xlink:href="#DejaVuSans-48"/>
       <use x="63.623047" xlink:href="#DejaVuSans-46"/>
       <use x="95.410156" xlink:href="#DejaVuSans-54"/>
      </g>
     </g>
    </g>
    <g id="ytick_5">
     <g id="line2d_21">
      <path clip-path="url(#p4f5a83fec4)" d="M 43.78125 70.795845 
L 400.90125 70.795845 
" style="fill:none;stroke:#b0b0b0;stroke-linecap:square;stroke-width:0.8;"/>
     </g>
     <g id="line2d_22">
      <g>
       <use style="stroke:#000000;stroke-width:0.8;" x="43.78125" xlink:href="#m8b3a97d9bd" y="70.795845"/>
      </g>
     </g>
     <g id="text_12">
      <!-- 0.8 -->
      <g transform="translate(20.878125 74.595064)scale(0.1 -0.1)">
       <use xlink:href="#DejaVuSans-48"/>
       <use x="63.623047" xlink:href="#DejaVuSans-46"/>
       <use x="95.410156" xlink:href="#DejaVuSans-56"/>
      </g>
     </g>
    </g>
    <g id="ytick_6">
     <g id="line2d_23">
      <path clip-path="url(#p4f5a83fec4)" d="M 43.78125 22.315806 
L 400.90125 22.315806 
" style="fill:none;stroke:#b0b0b0;stroke-linecap:square;stroke-width:0.8;"/>
     </g>
     <g id="line2d_24">
      <g>
       <use style="stroke:#000000;stroke-width:0.8;" x="43.78125" xlink:href="#m8b3a97d9bd" y="22.315806"/>
      </g>
     </g>
     <g id="text_13">
      <!-- 1.0 -->
      <g transform="translate(20.878125 26.115025)scale(0.1 -0.1)">
       <use xlink:href="#DejaVuSans-49"/>
       <use x="63.623047" xlink:href="#DejaVuSans-46"/>
       <use x="95.410156" xlink:href="#DejaVuSans-48"/>
      </g>
     </g>
    </g>
    <g id="text_14">
     <!-- Ratio of connected component -->
     <defs>
      <path d="M 44.390625 34.1875 
Q 47.5625 33.109375 50.5625 29.59375 
Q 53.5625 26.078125 56.59375 19.921875 
L 66.609375 0 
L 56 0 
L 46.6875 18.703125 
Q 43.0625 26.03125 39.671875 28.421875 
Q 36.28125 30.8125 30.421875 30.8125 
L 19.671875 30.8125 
L 19.671875 0 
L 9.8125 0 
L 9.8125 72.90625 
L 32.078125 72.90625 
Q 44.578125 72.90625 50.734375 67.671875 
Q 56.890625 62.453125 56.890625 51.90625 
Q 56.890625 45.015625 53.6875 40.46875 
Q 50.484375 35.9375 44.390625 34.1875 
z
M 19.671875 64.796875 
L 19.671875 38.921875 
L 32.078125 38.921875 
Q 39.203125 38.921875 42.84375 42.21875 
Q 46.484375 45.515625 46.484375 51.90625 
Q 46.484375 58.296875 42.84375 61.546875 
Q 39.203125 64.796875 32.078125 64.796875 
z
" id="DejaVuSans-82"/>
      <path d="M 48.78125 52.59375 
L 48.78125 44.1875 
Q 44.96875 46.296875 41.140625 47.34375 
Q 37.3125 48.390625 33.40625 48.390625 
Q 24.65625 48.390625 19.8125 42.84375 
Q 14.984375 37.3125 14.984375 27.296875 
Q 14.984375 17.28125 19.8125 11.734375 
Q 24.65625 6.203125 33.40625 6.203125 
Q 37.3125 6.203125 41.140625 7.25 
Q 44.96875 8.296875 48.78125 10.40625 
L 48.78125 2.09375 
Q 45.015625 0.34375 40.984375 -0.53125 
Q 36.96875 -1.421875 32.421875 -1.421875 
Q 20.0625 -1.421875 12.78125 6.34375 
Q 5.515625 14.109375 5.515625 27.296875 
Q 5.515625 40.671875 12.859375 48.328125 
Q 20.21875 56 33.015625 56 
Q 37.15625 56 41.109375 55.140625 
Q 45.0625 54.296875 48.78125 52.59375 
z
" id="DejaVuSans-99"/>
      <path d="M 52 44.1875 
Q 55.375 50.25 60.0625 53.125 
Q 64.75 56 71.09375 56 
Q 79.640625 56 84.28125 50.015625 
Q 88.921875 44.046875 88.921875 33.015625 
L 88.921875 0 
L 79.890625 0 
L 79.890625 32.71875 
Q 79.890625 40.578125 77.09375 44.375 
Q 74.3125 48.1875 68.609375 48.1875 
Q 61.625 48.1875 57.5625 43.546875 
Q 53.515625 38.921875 53.515625 30.90625 
L 53.515625 0 
L 44.484375 0 
L 44.484375 32.71875 
Q 44.484375 40.625 41.703125 44.40625 
Q 38.921875 48.1875 33.109375 48.1875 
Q 26.21875 48.1875 22.15625 43.53125 
Q 18.109375 38.875 18.109375 30.90625 
L 18.109375 0 
L 9.078125 0 
L 9.078125 54.6875 
L 18.109375 54.6875 
L 18.109375 46.1875 
Q 21.1875 51.21875 25.484375 53.609375 
Q 29.78125 56 35.6875 56 
Q 41.65625 56 45.828125 52.96875 
Q 50 49.953125 52 44.1875 
z
" id="DejaVuSans-109"/>
      <path d="M 18.109375 8.203125 
L 18.109375 -20.796875 
L 9.078125 -20.796875 
L 9.078125 54.6875 
L 18.109375 54.6875 
L 18.109375 46.390625 
Q 20.953125 51.265625 25.265625 53.625 
Q 29.59375 56 35.59375 56 
Q 45.5625 56 51.78125 48.09375 
Q 58.015625 40.1875 58.015625 27.296875 
Q 58.015625 14.40625 51.78125 6.484375 
Q 45.5625 -1.421875 35.59375 -1.421875 
Q 29.59375 -1.421875 25.265625 0.953125 
Q 20.953125 3.328125 18.109375 8.203125 
z
M 48.6875 27.296875 
Q 48.6875 37.203125 44.609375 42.84375 
Q 40.53125 48.484375 33.40625 48.484375 
Q 26.265625 48.484375 22.1875 42.84375 
Q 18.109375 37.203125 18.109375 27.296875 
Q 18.109375 17.390625 22.1875 11.75 
Q 26.265625 6.109375 33.40625 6.109375 
Q 40.53125 6.109375 44.609375 11.75 
Q 48.6875 17.390625 48.6875 27.296875 
z
" id="DejaVuSans-112"/>
     </defs>
     <g transform="translate(14.798438 220.757563)rotate(-90)scale(0.1 -0.1)">
      <use xlink:href="#DejaVuSans-82"/>
      <use x="69.451172" xlink:href="#DejaVuSans-97"/>
      <use x="130.730469" xlink:href="#DejaVuSans-116"/>
      <use x="169.939453" xlink:href="#DejaVuSans-105"/>
      <use x="197.722656" xlink:href="#DejaVuSans-111"/>
      <use x="258.904297" xlink:href="#DejaVuSans-32"/>
      <use x="290.691406" xlink:href="#DejaVuSans-111"/>
      <use x="351.873047" xlink:href="#DejaVuSans-102"/>
      <use x="387.078125" xlink:href="#DejaVuSans-32"/>
      <use x="418.865234" xlink:href="#DejaVuSans-99"/>
      <use x="473.845703" xlink:href="#DejaVuSans-111"/>
      <use x="535.027344" xlink:href="#DejaVuSans-110"/>
      <use x="598.40625" xlink:href="#DejaVuSans-110"/>
      <use x="661.785156" xlink:href="#DejaVuSans-101"/>
      <use x="723.308594" xlink:href="#DejaVuSans-99"/>
      <use x="778.289062" xlink:href="#DejaVuSans-116"/>
      <use x="817.498047" xlink:href="#DejaVuSans-101"/>
      <use x="879.021484" xlink:href="#DejaVuSans-100"/>
      <use x="942.498047" xlink:href="#DejaVuSans-32"/>
      <use x="974.285156" xlink:href="#DejaVuSans-99"/>
      <use x="1029.265625" xlink:href="#DejaVuSans-111"/>
      <use x="1090.447266" xlink:href="#DejaVuSans-109"/>
      <use x="1187.859375" xlink:href="#DejaVuSans-112"/>
      <use x="1251.335938" xlink:href="#DejaVuSans-111"/>
      <use x="1312.517578" xlink:href="#DejaVuSans-110"/>
      <use x="1375.896484" xlink:href="#DejaVuSans-101"/>
      <use x="1437.419922" xlink:href="#DejaVuSans-110"/>
      <use x="1500.798828" xlink:href="#DejaVuSans-116"/>
     </g>
    </g>
   </g>
   <g id="LineCollection_1">
    <path clip-path="url(#p4f5a83fec4)" d="M 60.013977 264.716 
L 60.013977 264.716 
" style="fill:none;stroke:#000000;"/>
    <path clip-path="url(#p4f5a83fec4)" d="M 63.260523 254.081793 
L 63.260523 251.691948 
" style="fill:none;stroke:#000000;"/>
    <path clip-path="url(#p4f5a83fec4)" d="M 66.507068 242.68217 
L 66.507068 239.869632 
" style="fill:none;stroke:#000000;"/>
    <path clip-path="url(#p4f5a83fec4)" d="M 69.753614 230.891309 
L 69.753614 227.371994 
" style="fill:none;stroke:#000000;"/>
    <path clip-path="url(#p4f5a83fec4)" d="M 73.000159 217.95227 
L 73.000159 213.743972 
" style="fill:none;stroke:#000000;"/>
    <path clip-path="url(#p4f5a83fec4)" d="M 76.246705 207.879543 
L 76.246705 203.212683 
" style="fill:none;stroke:#000000;"/>
    <path clip-path="url(#p4f5a83fec4)" d="M 79.49325 195.759434 
L 79.49325 191.044292 
" style="fill:none;stroke:#000000;"/>
    <path clip-path="url(#p4f5a83fec4)" d="M 82.739795 183.193811 
L 82.739795 177.624614 
" style="fill:none;stroke:#000000;"/>
    <path clip-path="url(#p4f5a83fec4)" d="M 85.986341 170.005421 
L 85.986341 164.730744 
" style="fill:none;stroke:#000000;"/>
    <path clip-path="url(#p4f5a83fec4)" d="M 89.232886 161.629603 
L 89.232886 155.459828 
" style="fill:none;stroke:#000000;"/>
    <path clip-path="url(#p4f5a83fec4)" d="M 92.479432 149.816943 
L 92.479432 143.177907 
" style="fill:none;stroke:#000000;"/>
    <path clip-path="url(#p4f5a83fec4)" d="M 95.725977 137.344971 
L 95.725977 130.246339 
" style="fill:none;stroke:#000000;"/>
    <path clip-path="url(#p4f5a83fec4)" d="M 98.972523 127.599591 
L 98.972523 121.811705 
" style="fill:none;stroke:#000000;"/>
    <path clip-path="url(#p4f5a83fec4)" d="M 102.219068 119.075226 
L 102.219068 112.980216 
" style="fill:none;stroke:#000000;"/>
    <path clip-path="url(#p4f5a83fec4)" d="M 105.465614 106.167209 
L 105.465614 100.339253 
" style="fill:none;stroke:#000000;"/>
    <path clip-path="url(#p4f5a83fec4)" d="M 108.712159 97.435573 
L 108.712159 90.987834 
" style="fill:none;stroke:#000000;"/>
    <path clip-path="url(#p4f5a83fec4)" d="M 111.958705 89.407668 
L 111.958705 84.035407 
" style="fill:none;stroke:#000000;"/>
    <path clip-path="url(#p4f5a83fec4)" d="M 115.20525 84.741123 
L 115.20525 79.587705 
" style="fill:none;stroke:#000000;"/>
    <path clip-path="url(#p4f5a83fec4)" d="M 118.451795 77.378242 
L 118.451795 71.873293 
" style="fill:none;stroke:#000000;"/>
    <path clip-path="url(#p4f5a83fec4)" d="M 121.698341 70.792369 
L 121.698341 66.145237 
" style="fill:none;stroke:#000000;"/>
    <path clip-path="url(#p4f5a83fec4)" d="M 124.944886 66.42083 
L 124.944886 62.032769 
" style="fill:none;stroke:#000000;"/>
    <path clip-path="url(#p4f5a83fec4)" d="M 157.410341 38.995534 
L 157.410341 36.566343 
" style="fill:none;stroke:#000000;"/>
    <path clip-path="url(#p4f5a83fec4)" d="M 189.875795 29.604202 
L 189.875795 28.310941 
" style="fill:none;stroke:#000000;"/>
    <path clip-path="url(#p4f5a83fec4)" d="M 222.34125 26.997234 
L 222.34125 26.215345 
" style="fill:none;stroke:#000000;"/>
    <path clip-path="url(#p4f5a83fec4)" d="M 254.806705 25.453695 
L 254.806705 25.044002 
" style="fill:none;stroke:#000000;"/>
    <path clip-path="url(#p4f5a83fec4)" d="M 287.272159 25.093934 
L 287.272159 24.822002 
" style="fill:none;stroke:#000000;"/>
    <path clip-path="url(#p4f5a83fec4)" d="M 319.737614 24.81132 
L 319.737614 24.716776 
" style="fill:none;stroke:#000000;"/>
    <path clip-path="url(#p4f5a83fec4)" d="M 352.203068 24.739808 
L 352.203068 24.739808 
" style="fill:none;stroke:#000000;"/>
    <path clip-path="url(#p4f5a83fec4)" d="M 384.668523 24.739808 
L 384.668523 24.739808 
" style="fill:none;stroke:#000000;"/>
   </g>
   <g id="LineCollection_2">
    <path clip-path="url(#p4f5a83fec4)" d="M 60.013977 264.716 
L 60.013977 264.716 
" style="fill:none;stroke:#0000ff;"/>
    <path clip-path="url(#p4f5a83fec4)" d="M 63.260523 241.622515 
L 63.260523 239.571846 
" style="fill:none;stroke:#0000ff;"/>
    <path clip-path="url(#p4f5a83fec4)" d="M 66.507068 217.395978 
L 66.507068 214.421464 
" style="fill:none;stroke:#0000ff;"/>
    <path clip-path="url(#p4f5a83fec4)" d="M 69.753614 195.097009 
L 69.753614 191.488557 
" style="fill:none;stroke:#0000ff;"/>
    <path clip-path="url(#p4f5a83fec4)" d="M 73.000159 169.44089 
L 73.000159 165.125595 
" style="fill:none;stroke:#0000ff;"/>
    <path clip-path="url(#p4f5a83fec4)" d="M 76.246705 146.42165 
L 76.246705 141.749437 
" style="fill:none;stroke:#0000ff;"/>
    <path clip-path="url(#p4f5a83fec4)" d="M 79.49325 124.267492 
L 79.49325 119.42316 
" style="fill:none;stroke:#0000ff;"/>
    <path clip-path="url(#p4f5a83fec4)" d="M 82.739795 105.345666 
L 82.739795 101.475916 
" style="fill:none;stroke:#0000ff;"/>
    <path clip-path="url(#p4f5a83fec4)" d="M 85.986341 87.370643 
L 85.986341 83.52723 
" style="fill:none;stroke:#0000ff;"/>
    <path clip-path="url(#p4f5a83fec4)" d="M 89.232886 74.340789 
L 89.232886 70.911144 
" style="fill:none;stroke:#0000ff;"/>
    <path clip-path="url(#p4f5a83fec4)" d="M 92.479432 64.587075 
L 92.479432 61.781882 
" style="fill:none;stroke:#0000ff;"/>
    <path clip-path="url(#p4f5a83fec4)" d="M 95.725977 56.643688 
L 95.725977 53.896537 
" style="fill:none;stroke:#0000ff;"/>
    <path clip-path="url(#p4f5a83fec4)" d="M 98.972523 49.054265 
L 98.972523 46.820748 
" style="fill:none;stroke:#0000ff;"/>
    <path clip-path="url(#p4f5a83fec4)" d="M 102.219068 44.406857 
L 102.219068 42.402389 
" style="fill:none;stroke:#0000ff;"/>
    <path clip-path="url(#p4f5a83fec4)" d="M 105.465614 41.304029 
L 105.465614 39.251292 
" style="fill:none;stroke:#0000ff;"/>
    <path clip-path="url(#p4f5a83fec4)" d="M 108.712159 36.926512 
L 108.712159 35.435683 
" style="fill:none;stroke:#0000ff;"/>
    <path clip-path="url(#p4f5a83fec4)" d="M 111.958705 34.344632 
L 111.958705 32.781719 
" style="fill:none;stroke:#0000ff;"/>
    <path clip-path="url(#p4f5a83fec4)" d="M 115.20525 33.290977 
L 115.20525 31.847692 
" style="fill:none;stroke:#0000ff;"/>
    <path clip-path="url(#p4f5a83fec4)" d="M 118.451795 31.123013 
L 118.451795 29.894852 
" style="fill:none;stroke:#0000ff;"/>
    <path clip-path="url(#p4f5a83fec4)" d="M 121.698341 29.323574 
L 121.698341 28.421889 
" style="fill:none;stroke:#0000ff;"/>
    <path clip-path="url(#p4f5a83fec4)" d="M 124.944886 28.352656 
L 124.944886 27.380885 
" style="fill:none;stroke:#0000ff;"/>
    <path clip-path="url(#p4f5a83fec4)" d="M 157.410341 24.062378 
L 157.410341 23.793157 
" style="fill:none;stroke:#0000ff;"/>
    <path clip-path="url(#p4f5a83fec4)" d="M 189.875795 23.656943 
L 189.875795 23.544112 
" style="fill:none;stroke:#0000ff;"/>
    <path clip-path="url(#p4f5a83fec4)" d="M 222.34125 23.563563 
L 222.34125 23.516291 
" style="fill:none;stroke:#0000ff;"/>
    <path clip-path="url(#p4f5a83fec4)" d="M 254.806705 23.527807 
L 254.806705 23.527807 
" style="fill:none;stroke:#0000ff;"/>
    <path clip-path="url(#p4f5a83fec4)" d="M 287.272159 23.527807 
L 287.272159 23.527807 
" style="fill:none;stroke:#0000ff;"/>
    <path clip-path="url(#p4f5a83fec4)" d="M 319.737614 23.527807 
L 319.737614 23.527807 
" style="fill:none;stroke:#0000ff;"/>
    <path clip-path="url(#p4f5a83fec4)" d="M 352.203068 23.527807 
L 352.203068 23.527807 
" style="fill:none;stroke:#0000ff;"/>
    <path clip-path="url(#p4f5a83fec4)" d="M 384.668523 23.527807 
L 384.668523 23.527807 
" style="fill:none;stroke:#0000ff;"/>
   </g>
   <g id="LineCollection_3">
    <path clip-path="url(#p4f5a83fec4)" d="M 60.013977 264.716 
L 60.013977 264.716 
" style="fill:none;stroke:#008000;"/>
    <path clip-path="url(#p4f5a83fec4)" d="M 63.260523 229.688322 
L 63.260523 227.6377 
" style="fill:none;stroke:#008000;"/>
    <path clip-path="url(#p4f5a83fec4)" d="M 66.507068 194.387312 
L 66.507068 191.042813 
" style="fill:none;stroke:#008000;"/>
    <path clip-path="url(#p4f5a83fec4)" d="M 69.753614 155.631414 
L 69.753614 151.972088 
" style="fill:none;stroke:#008000;"/>
    <path clip-path="url(#p4f5a83fec4)" d="M 73.000159 124.951064 
L 73.000159 121.01815 
" style="fill:none;stroke:#008000;"/>
    <path clip-path="url(#p4f5a83fec4)" d="M 76.246705 94.793319 
L 76.246705 91.206086 
" style="fill:none;stroke:#008000;"/>
    <path clip-path="url(#p4f5a83fec4)" d="M 79.49325 73.138724 
L 79.49325 70.521447 
" style="fill:none;stroke:#008000;"/>
    <path clip-path="url(#p4f5a83fec4)" d="M 82.739795 59.723219 
L 82.739795 57.030531 
" style="fill:none;stroke:#008000;"/>
    <path clip-path="url(#p4f5a83fec4)" d="M 85.986341 48.769888 
L 85.986341 46.927365 
" style="fill:none;stroke:#008000;"/>
    <path clip-path="url(#p4f5a83fec4)" d="M 89.232886 42.292449 
L 89.232886 40.573753 
" style="fill:none;stroke:#008000;"/>
    <path clip-path="url(#p4f5a83fec4)" d="M 92.479432 36.558373 
L 92.479432 35.222061 
" style="fill:none;stroke:#008000;"/>
    <path clip-path="url(#p4f5a83fec4)" d="M 95.725977 33.74959 
L 95.725977 32.552599 
" style="fill:none;stroke:#008000;"/>
    <path clip-path="url(#p4f5a83fec4)" d="M 98.972523 30.46832 
L 98.972523 29.547625 
" style="fill:none;stroke:#008000;"/>
    <path clip-path="url(#p4f5a83fec4)" d="M 102.219068 28.732845 
L 102.219068 27.808697 
" style="fill:none;stroke:#008000;"/>
    <path clip-path="url(#p4f5a83fec4)" d="M 105.465614 27.023656 
L 105.465614 26.447483 
" style="fill:none;stroke:#008000;"/>
    <path clip-path="url(#p4f5a83fec4)" d="M 108.712159 26.028982 
L 108.712159 25.470636 
" style="fill:none;stroke:#008000;"/>
    <path clip-path="url(#p4f5a83fec4)" d="M 111.958705 25.394286 
L 111.958705 24.844851 
" style="fill:none;stroke:#008000;"/>
    <path clip-path="url(#p4f5a83fec4)" d="M 115.20525 24.70892 
L 115.20525 24.318216 
" style="fill:none;stroke:#008000;"/>
    <path clip-path="url(#p4f5a83fec4)" d="M 118.451795 24.405354 
L 118.451795 24.040021 
" style="fill:none;stroke:#008000;"/>
    <path clip-path="url(#p4f5a83fec4)" d="M 121.698341 24.047915 
L 121.698341 23.75106 
" style="fill:none;stroke:#008000;"/>
    <path clip-path="url(#p4f5a83fec4)" d="M 124.944886 23.919395 
L 124.944886 23.63718 
" style="fill:none;stroke:#008000;"/>
    <path clip-path="url(#p4f5a83fec4)" d="M 157.410341 23.162138 
L 157.410341 23.117795 
" style="fill:none;stroke:#008000;"/>
    <path clip-path="url(#p4f5a83fec4)" d="M 189.875795 23.123807 
L 189.875795 23.123807 
" style="fill:none;stroke:#008000;"/>
    <path clip-path="url(#p4f5a83fec4)" d="M 222.34125 23.123807 
L 222.34125 23.123807 
" style="fill:none;stroke:#008000;"/>
    <path clip-path="url(#p4f5a83fec4)" d="M 254.806705 23.123807 
L 254.806705 23.123807 
" style="fill:none;stroke:#008000;"/>
    <path clip-path="url(#p4f5a83fec4)" d="M 287.272159 23.123807 
L 287.272159 23.123807 
" style="fill:none;stroke:#008000;"/>
    <path clip-path="url(#p4f5a83fec4)" d="M 319.737614 23.123807 
L 319.737614 23.123807 
" style="fill:none;stroke:#008000;"/>
    <path clip-path="url(#p4f5a83fec4)" d="M 352.203068 23.123807 
L 352.203068 23.123807 
" style="fill:none;stroke:#008000;"/>
    <path clip-path="url(#p4f5a83fec4)" d="M 384.668523 23.123807 
L 384.668523 23.123807 
" style="fill:none;stroke:#008000;"/>
   </g>
   <g id="LineCollection_4">
    <path clip-path="url(#p4f5a83fec4)" d="M 60.013977 264.716 
L 60.013977 264.716 
" style="fill:none;stroke:#ff0000;"/>
    <path clip-path="url(#p4f5a83fec4)" d="M 63.260523 218.687149 
L 63.260523 216.414815 
" style="fill:none;stroke:#ff0000;"/>
    <path clip-path="url(#p4f5a83fec4)" d="M 66.507068 168.562909 
L 66.507068 165.652094 
" style="fill:none;stroke:#ff0000;"/>
    <path clip-path="url(#p4f5a83fec4)" d="M 69.753614 124.534173 
L 69.753614 121.67744 
" style="fill:none;stroke:#ff0000;"/>
    <path clip-path="url(#p4f5a83fec4)" d="M 73.000159 85.773245 
L 73.000159 83.391466 
" style="fill:none;stroke:#ff0000;"/>
    <path clip-path="url(#p4f5a83fec4)" d="M 76.246705 63.11737 
L 76.246705 60.960905 
" style="fill:none;stroke:#ff0000;"/>
    <path clip-path="url(#p4f5a83fec4)" d="M 79.49325 49.380682 
L 79.49325 47.524532 
" style="fill:none;stroke:#ff0000;"/>
    <path clip-path="url(#p4f5a83fec4)" d="M 82.739795 40.001543 
L 82.739795 38.650936 
" style="fill:none;stroke:#ff0000;"/>
    <path clip-path="url(#p4f5a83fec4)" d="M 85.986341 34.130158 
L 85.986341 33.044672 
" style="fill:none;stroke:#ff0000;"/>
    <path clip-path="url(#p4f5a83fec4)" d="M 89.232886 30.596149 
L 89.232886 29.742996 
" style="fill:none;stroke:#ff0000;"/>
    <path clip-path="url(#p4f5a83fec4)" d="M 92.479432 27.764429 
L 92.479432 27.132831 
" style="fill:none;stroke:#ff0000;"/>
    <path clip-path="url(#p4f5a83fec4)" d="M 95.725977 26.044369 
L 95.725977 25.483529 
" style="fill:none;stroke:#ff0000;"/>
    <path clip-path="url(#p4f5a83fec4)" d="M 98.972523 25.174356 
L 98.972523 24.72946 
" style="fill:none;stroke:#ff0000;"/>
    <path clip-path="url(#p4f5a83fec4)" d="M 102.219068 24.468992 
L 102.219068 24.137983 
" style="fill:none;stroke:#ff0000;"/>
    <path clip-path="url(#p4f5a83fec4)" d="M 105.465614 23.951462 
L 105.465614 23.685913 
" style="fill:none;stroke:#ff0000;"/>
    <path clip-path="url(#p4f5a83fec4)" d="M 108.712159 23.610656 
L 108.712159 23.384358 
" style="fill:none;stroke:#ff0000;"/>
    <path clip-path="url(#p4f5a83fec4)" d="M 111.958705 23.357576 
L 111.958705 23.188998 
" style="fill:none;stroke:#ff0000;"/>
    <path clip-path="url(#p4f5a83fec4)" d="M 115.20525 23.18474 
L 115.20525 23.046714 
" style="fill:none;stroke:#ff0000;"/>
    <path clip-path="url(#p4f5a83fec4)" d="M 118.451795 23.102963 
L 118.451795 22.995171 
" style="fill:none;stroke:#ff0000;"/>
    <path clip-path="url(#p4f5a83fec4)" d="M 121.698341 23.109764 
L 121.698341 23.00049 
" style="fill:none;stroke:#ff0000;"/>
    <path clip-path="url(#p4f5a83fec4)" d="M 124.944886 23.040531 
L 124.944886 22.960642 
" style="fill:none;stroke:#ff0000;"/>
    <path clip-path="url(#p4f5a83fec4)" d="M 157.410341 22.921807 
L 157.410341 22.921807 
" style="fill:none;stroke:#ff0000;"/>
    <path clip-path="url(#p4f5a83fec4)" d="M 189.875795 22.921807 
L 189.875795 22.921807 
" style="fill:none;stroke:#ff0000;"/>
    <path clip-path="url(#p4f5a83fec4)" d="M 222.34125 22.921807 
L 222.34125 22.921807 
" style="fill:none;stroke:#ff0000;"/>
    <path clip-path="url(#p4f5a83fec4)" d="M 254.806705 22.921807 
L 254.806705 22.921807 
" style="fill:none;stroke:#ff0000;"/>
    <path clip-path="url(#p4f5a83fec4)" d="M 287.272159 22.921807 
L 287.272159 22.921807 
" style="fill:none;stroke:#ff0000;"/>
    <path clip-path="url(#p4f5a83fec4)" d="M 319.737614 22.921807 
L 319.737614 22.921807 
" style="fill:none;stroke:#ff0000;"/>
    <path clip-path="url(#p4f5a83fec4)" d="M 352.203068 22.921807 
L 352.203068 22.921807 
" style="fill:none;stroke:#ff0000;"/>
    <path clip-path="url(#p4f5a83fec4)" d="M 384.668523 22.921807 
L 384.668523 22.921807 
" style="fill:none;stroke:#ff0000;"/>
   </g>
   <g id="LineCollection_5">
    <path clip-path="url(#p4f5a83fec4)" d="M 60.013977 264.716 
L 60.013977 264.716 
" style="fill:none;stroke:#a52a2a;"/>
    <path clip-path="url(#p4f5a83fec4)" d="M 63.260523 205.031252 
L 63.260523 202.95825 
" style="fill:none;stroke:#a52a2a;"/>
    <path clip-path="url(#p4f5a83fec4)" d="M 66.507068 146.3114 
L 66.507068 143.561337 
" style="fill:none;stroke:#a52a2a;"/>
    <path clip-path="url(#p4f5a83fec4)" d="M 69.753614 93.494713 
L 69.753614 90.51701 
" style="fill:none;stroke:#a52a2a;"/>
    <path clip-path="url(#p4f5a83fec4)" d="M 73.000159 64.262977 
L 73.000159 62.455037 
" style="fill:none;stroke:#a52a2a;"/>
    <path clip-path="url(#p4f5a83fec4)" d="M 76.246705 46.388678 
L 76.246705 44.948604 
" style="fill:none;stroke:#a52a2a;"/>
    <path clip-path="url(#p4f5a83fec4)" d="M 79.49325 36.53189 
L 79.49325 35.558816 
" style="fill:none;stroke:#a52a2a;"/>
    <path clip-path="url(#p4f5a83fec4)" d="M 82.739795 31.231336 
L 82.739795 30.358593 
" style="fill:none;stroke:#a52a2a;"/>
    <path clip-path="url(#p4f5a83fec4)" d="M 85.986341 27.709512 
L 85.986341 27.07382 
" style="fill:none;stroke:#a52a2a;"/>
    <path clip-path="url(#p4f5a83fec4)" d="M 89.232886 25.497171 
L 89.232886 25.08779 
" style="fill:none;stroke:#a52a2a;"/>
    <path clip-path="url(#p4f5a83fec4)" d="M 92.479432 24.811007 
L 92.479432 24.484384 
" style="fill:none;stroke:#a52a2a;"/>
    <path clip-path="url(#p4f5a83fec4)" d="M 95.725977 24.039454 
L 95.725977 23.743361 
" style="fill:none;stroke:#a52a2a;"/>
    <path clip-path="url(#p4f5a83fec4)" d="M 98.972523 23.430758 
L 98.972523 23.246712 
" style="fill:none;stroke:#a52a2a;"/>
    <path clip-path="url(#p4f5a83fec4)" d="M 102.219068 23.291474 
L 102.219068 23.1339 
" style="fill:none;stroke:#a52a2a;"/>
    <path clip-path="url(#p4f5a83fec4)" d="M 105.465614 23.075967 
L 105.465614 22.951871 
" style="fill:none;stroke:#a52a2a;"/>
    <path clip-path="url(#p4f5a83fec4)" d="M 108.712159 23.01769 
L 108.712159 22.903491 
" style="fill:none;stroke:#a52a2a;"/>
    <path clip-path="url(#p4f5a83fec4)" d="M 111.958705 22.895586 
L 111.958705 22.831675 
" style="fill:none;stroke:#a52a2a;"/>
    <path clip-path="url(#p4f5a83fec4)" d="M 115.20525 22.852261 
L 115.20525 22.807128 
" style="fill:none;stroke:#a52a2a;"/>
    <path clip-path="url(#p4f5a83fec4)" d="M 118.451795 22.877593 
L 118.451795 22.82058 
" style="fill:none;stroke:#a52a2a;"/>
    <path clip-path="url(#p4f5a83fec4)" d="M 121.698341 22.838619 
L 121.698341 22.801378 
" style="fill:none;stroke:#a52a2a;"/>
    <path clip-path="url(#p4f5a83fec4)" d="M 124.944886 22.814909 
L 124.944886 22.796 
" style="fill:none;stroke:#a52a2a;"/>
    <path clip-path="url(#p4f5a83fec4)" d="M 157.410341 22.800606 
L 157.410341 22.800606 
" style="fill:none;stroke:#a52a2a;"/>
    <path clip-path="url(#p4f5a83fec4)" d="M 189.875795 22.800606 
L 189.875795 22.800606 
" style="fill:none;stroke:#a52a2a;"/>
    <path clip-path="url(#p4f5a83fec4)" d="M 222.34125 22.800606 
L 222.34125 22.800606 
" style="fill:none;stroke:#a52a2a;"/>
    <path clip-path="url(#p4f5a83fec4)" d="M 254.806705 22.800606 
L 254.806705 22.800606 
" style="fill:none;stroke:#a52a2a;"/>
    <path clip-path="url(#p4f5a83fec4)" d="M 287.272159 22.800606 
L 287.272159 22.800606 
" style="fill:none;stroke:#a52a2a;"/>
    <path clip-path="url(#p4f5a83fec4)" d="M 319.737614 22.800606 
L 319.737614 22.800606 
" style="fill:none;stroke:#a52a2a;"/>
    <path clip-path="url(#p4f5a83fec4)" d="M 352.203068 22.800606 
L 352.203068 22.800606 
" style="fill:none;stroke:#a52a2a;"/>
    <path clip-path="url(#p4f5a83fec4)" d="M 384.668523 22.800606 
L 384.668523 22.800606 
" style="fill:none;stroke:#a52a2a;"/>
   </g>
   <g id="line2d_25">
    <path clip-path="url(#p4f5a83fec4)" d="M 60.013977 264.716 
L 63.260523 252.886871 
L 66.507068 241.275901 
L 69.753614 229.131652 
L 73.000159 215.848121 
L 76.246705 205.546113 
L 79.49325 193.401863 
L 82.739795 180.409213 
L 85.986341 167.368082 
L 89.232886 158.544715 
L 92.479432 146.497425 
L 95.725977 133.795655 
L 98.972523 124.705648 
L 102.219068 116.027721 
L 105.465614 103.253231 
L 108.712159 94.211704 
L 111.958705 86.721538 
L 115.20525 82.164414 
L 118.451795 74.625768 
L 121.698341 68.468803 
L 124.944886 64.2268 
L 157.410341 37.780938 
L 189.875795 28.957571 
L 222.34125 26.606289 
L 254.806705 25.248848 
L 287.272159 24.957968 
L 319.737614 24.764048 
L 352.203068 24.739808 
L 384.668523 24.739808 
" style="fill:none;stroke:#000000;stroke-linecap:square;"/>
    <defs>
     <path d="M 0 1 
C 0.265203 1 0.51958 0.894634 0.707107 0.707107 
C 0.894634 0.51958 1 0.265203 1 0 
C 1 -0.265203 0.894634 -0.51958 0.707107 -0.707107 
C 0.51958 -0.894634 0.265203 -1 0 -1 
C -0.265203 -1 -0.51958 -0.894634 -0.707107 -0.707107 
C -0.894634 -0.51958 -1 -0.265203 -1 0 
C -1 0.265203 -0.894634 0.51958 -0.707107 0.707107 
C -0.51958 0.894634 -0.265203 1 0 1 
z
" id="m09bbc89646" style="stroke:#000000;"/>
    </defs>
    <g clip-path="url(#p4f5a83fec4)">
     <use style="stroke:#000000;" x="60.013977" xlink:href="#m09bbc89646" y="264.716"/>
     <use style="stroke:#000000;" x="63.260523" xlink:href="#m09bbc89646" y="252.886871"/>
     <use style="stroke:#000000;" x="66.507068" xlink:href="#m09bbc89646" y="241.275901"/>
     <use style="stroke:#000000;" x="69.753614" xlink:href="#m09bbc89646" y="229.131652"/>
     <use style="stroke:#000000;" x="73.000159" xlink:href="#m09bbc89646" y="215.848121"/>
     <use style="stroke:#000000;" x="76.246705" xlink:href="#m09bbc89646" y="205.546113"/>
     <use style="stroke:#000000;" x="79.49325" xlink:href="#m09bbc89646" y="193.401863"/>
     <use style="stroke:#000000;" x="82.739795" xlink:href="#m09bbc89646" y="180.409213"/>
     <use style="stroke:#000000;" x="85.986341" xlink:href="#m09bbc89646" y="167.368082"/>
     <use style="stroke:#000000;" x="89.232886" xlink:href="#m09bbc89646" y="158.544715"/>
     <use style="stroke:#000000;" x="92.479432" xlink:href="#m09bbc89646" y="146.497425"/>
     <use style="stroke:#000000;" x="95.725977" xlink:href="#m09bbc89646" y="133.795655"/>
     <use style="stroke:#000000;" x="98.972523" xlink:href="#m09bbc89646" y="124.705648"/>
     <use style="stroke:#000000;" x="102.219068" xlink:href="#m09bbc89646" y="116.027721"/>
     <use style="stroke:#000000;" x="105.465614" xlink:href="#m09bbc89646" y="103.253231"/>
     <use style="stroke:#000000;" x="108.712159" xlink:href="#m09bbc89646" y="94.211704"/>
     <use style="stroke:#000000;" x="111.958705" xlink:href="#m09bbc89646" y="86.721538"/>
     <use style="stroke:#000000;" x="115.20525" xlink:href="#m09bbc89646" y="82.164414"/>
     <use style="stroke:#000000;" x="118.451795" xlink:href="#m09bbc89646" y="74.625768"/>
     <use style="stroke:#000000;" x="121.698341" xlink:href="#m09bbc89646" y="68.468803"/>
     <use style="stroke:#000000;" x="124.944886" xlink:href="#m09bbc89646" y="64.2268"/>
     <use style="stroke:#000000;" x="157.410341" xlink:href="#m09bbc89646" y="37.780938"/>
     <use style="stroke:#000000;" x="189.875795" xlink:href="#m09bbc89646" y="28.957571"/>
     <use style="stroke:#000000;" x="222.34125" xlink:href="#m09bbc89646" y="26.606289"/>
     <use style="stroke:#000000;" x="254.806705" xlink:href="#m09bbc89646" y="25.248848"/>
     <use style="stroke:#000000;" x="287.272159" xlink:href="#m09bbc89646" y="24.957968"/>
     <use style="stroke:#000000;" x="319.737614" xlink:href="#m09bbc89646" y="24.764048"/>
     <use style="stroke:#000000;" x="352.203068" xlink:href="#m09bbc89646" y="24.739808"/>
     <use style="stroke:#000000;" x="384.668523" xlink:href="#m09bbc89646" y="24.739808"/>
    </g>
   </g>
   <g id="line2d_26">
    <path clip-path="url(#p4f5a83fec4)" d="M 60.013977 264.716 
L 63.260523 240.597181 
L 66.507068 215.908721 
L 69.753614 193.292783 
L 73.000159 167.283242 
L 76.246705 144.085543 
L 79.49325 121.845326 
L 82.739795 103.410791 
L 85.986341 85.448937 
L 89.232886 72.625966 
L 92.479432 63.184479 
L 95.725977 55.270112 
L 98.972523 47.937507 
L 102.219068 43.404623 
L 105.465614 40.27766 
L 108.712159 36.181097 
L 111.958705 33.563175 
L 115.20525 32.569334 
L 118.451795 30.508933 
L 121.698341 28.872731 
L 124.944886 27.866771 
L 157.410341 23.927767 
L 189.875795 23.600527 
L 222.34125 23.539927 
L 254.806705 23.527807 
L 287.272159 23.527807 
L 319.737614 23.527807 
L 352.203068 23.527807 
L 384.668523 23.527807 
" style="fill:none;stroke:#0000ff;stroke-linecap:square;"/>
    <defs>
     <path d="M -0 1 
L 1 -1 
L -1 -1 
z
" id="mf37483801d" style="stroke:#0000ff;stroke-linejoin:miter;"/>
    </defs>
    <g clip-path="url(#p4f5a83fec4)">
     <use style="fill:#0000ff;stroke:#0000ff;stroke-linejoin:miter;" x="60.013977" xlink:href="#mf37483801d" y="264.716"/>
     <use style="fill:#0000ff;stroke:#0000ff;stroke-linejoin:miter;" x="63.260523" xlink:href="#mf37483801d" y="240.597181"/>
     <use style="fill:#0000ff;stroke:#0000ff;stroke-linejoin:miter;" x="66.507068" xlink:href="#mf37483801d" y="215.908721"/>
     <use style="fill:#0000ff;stroke:#0000ff;stroke-linejoin:miter;" x="69.753614" xlink:href="#mf37483801d" y="193.292783"/>
     <use style="fill:#0000ff;stroke:#0000ff;stroke-linejoin:miter;" x="73.000159" xlink:href="#mf37483801d" y="167.283242"/>
     <use style="fill:#0000ff;stroke:#0000ff;stroke-linejoin:miter;" x="76.246705" xlink:href="#mf37483801d" y="144.085543"/>
     <use style="fill:#0000ff;stroke:#0000ff;stroke-linejoin:miter;" x="79.49325" xlink:href="#mf37483801d" y="121.845326"/>
     <use style="fill:#0000ff;stroke:#0000ff;stroke-linejoin:miter;" x="82.739795" xlink:href="#mf37483801d" y="103.410791"/>
     <use style="fill:#0000ff;stroke:#0000ff;stroke-linejoin:miter;" x="85.986341" xlink:href="#mf37483801d" y="85.448937"/>
     <use style="fill:#0000ff;stroke:#0000ff;stroke-linejoin:miter;" x="89.232886" xlink:href="#mf37483801d" y="72.625966"/>
     <use style="fill:#0000ff;stroke:#0000ff;stroke-linejoin:miter;" x="92.479432" xlink:href="#mf37483801d" y="63.184479"/>
     <use style="fill:#0000ff;stroke:#0000ff;stroke-linejoin:miter;" x="95.725977" xlink:href="#mf37483801d" y="55.270112"/>
     <use style="fill:#0000ff;stroke:#0000ff;stroke-linejoin:miter;" x="98.972523" xlink:href="#mf37483801d" y="47.937507"/>
     <use style="fill:#0000ff;stroke:#0000ff;stroke-linejoin:miter;" x="102.219068" xlink:href="#mf37483801d" y="43.404623"/>
     <use style="fill:#0000ff;stroke:#0000ff;stroke-linejoin:miter;" x="105.465614" xlink:href="#mf37483801d" y="40.27766"/>
     <use style="fill:#0000ff;stroke:#0000ff;stroke-linejoin:miter;" x="108.712159" xlink:href="#mf37483801d" y="36.181097"/>
     <use style="fill:#0000ff;stroke:#0000ff;stroke-linejoin:miter;" x="111.958705" xlink:href="#mf37483801d" y="33.563175"/>
     <use style="fill:#0000ff;stroke:#0000ff;stroke-linejoin:miter;" x="115.20525" xlink:href="#mf37483801d" y="32.569334"/>
     <use style="fill:#0000ff;stroke:#0000ff;stroke-linejoin:miter;" x="118.451795" xlink:href="#mf37483801d" y="30.508933"/>
     <use style="fill:#0000ff;stroke:#0000ff;stroke-linejoin:miter;" x="121.698341" xlink:href="#mf37483801d" y="28.872731"/>
     <use style="fill:#0000ff;stroke:#0000ff;stroke-linejoin:miter;" x="124.944886" xlink:href="#mf37483801d" y="27.866771"/>
     <use style="fill:#0000ff;stroke:#0000ff;stroke-linejoin:miter;" x="157.410341" xlink:href="#mf37483801d" y="23.927767"/>
     <use style="fill:#0000ff;stroke:#0000ff;stroke-linejoin:miter;" x="189.875795" xlink:href="#mf37483801d" y="23.600527"/>
     <use style="fill:#0000ff;stroke:#0000ff;stroke-linejoin:miter;" x="222.34125" xlink:href="#mf37483801d" y="23.539927"/>
     <use style="fill:#0000ff;stroke:#0000ff;stroke-linejoin:miter;" x="254.806705" xlink:href="#mf37483801d" y="23.527807"/>
     <use style="fill:#0000ff;stroke:#0000ff;stroke-linejoin:miter;" x="287.272159" xlink:href="#mf37483801d" y="23.527807"/>
     <use style="fill:#0000ff;stroke:#0000ff;stroke-linejoin:miter;" x="319.737614" xlink:href="#mf37483801d" y="23.527807"/>
     <use style="fill:#0000ff;stroke:#0000ff;stroke-linejoin:miter;" x="352.203068" xlink:href="#mf37483801d" y="23.527807"/>
     <use style="fill:#0000ff;stroke:#0000ff;stroke-linejoin:miter;" x="384.668523" xlink:href="#mf37483801d" y="23.527807"/>
    </g>
   </g>
   <g id="line2d_27">
    <path clip-path="url(#p4f5a83fec4)" d="M 60.013977 264.716 
L 63.260523 228.663011 
L 66.507068 192.715062 
L 69.753614 153.801751 
L 73.000159 122.984607 
L 76.246705 92.999703 
L 79.49325 71.830086 
L 82.739795 58.376875 
L 85.986341 47.848626 
L 89.232886 41.433101 
L 92.479432 35.890217 
L 95.725977 33.151095 
L 98.972523 30.007972 
L 102.219068 28.270771 
L 105.465614 26.73557 
L 108.712159 25.749809 
L 111.958705 25.119568 
L 115.20525 24.513568 
L 118.451795 24.222688 
L 121.698341 23.899487 
L 124.944886 23.778287 
L 157.410341 23.139967 
L 189.875795 23.123807 
L 222.34125 23.123807 
L 254.806705 23.123807 
L 287.272159 23.123807 
L 319.737614 23.123807 
L 352.203068 23.123807 
L 384.668523 23.123807 
" style="fill:none;stroke:#008000;stroke-linecap:square;"/>
    <defs>
     <path d="M 0 -1 
L -1 1 
L 1 1 
z
" id="mc7957586e7" style="stroke:#008000;stroke-linejoin:miter;"/>
    </defs>
    <g clip-path="url(#p4f5a83fec4)">
     <use style="fill:#008000;stroke:#008000;stroke-linejoin:miter;" x="60.013977" xlink:href="#mc7957586e7" y="264.716"/>
     <use style="fill:#008000;stroke:#008000;stroke-linejoin:miter;" x="63.260523" xlink:href="#mc7957586e7" y="228.663011"/>
     <use style="fill:#008000;stroke:#008000;stroke-linejoin:miter;" x="66.507068" xlink:href="#mc7957586e7" y="192.715062"/>
     <use style="fill:#008000;stroke:#008000;stroke-linejoin:miter;" x="69.753614" xlink:href="#mc7957586e7" y="153.801751"/>
     <use style="fill:#008000;stroke:#008000;stroke-linejoin:miter;" x="73.000159" xlink:href="#mc7957586e7" y="122.984607"/>
     <use style="fill:#008000;stroke:#008000;stroke-linejoin:miter;" x="76.246705" xlink:href="#mc7957586e7" y="92.999703"/>
     <use style="fill:#008000;stroke:#008000;stroke-linejoin:miter;" x="79.49325" xlink:href="#mc7957586e7" y="71.830086"/>
     <use style="fill:#008000;stroke:#008000;stroke-linejoin:miter;" x="82.739795" xlink:href="#mc7957586e7" y="58.376875"/>
     <use style="fill:#008000;stroke:#008000;stroke-linejoin:miter;" x="85.986341" xlink:href="#mc7957586e7" y="47.848626"/>
     <use style="fill:#008000;stroke:#008000;stroke-linejoin:miter;" x="89.232886" xlink:href="#mc7957586e7" y="41.433101"/>
     <use style="fill:#008000;stroke:#008000;stroke-linejoin:miter;" x="92.479432" xlink:href="#mc7957586e7" y="35.890217"/>
     <use style="fill:#008000;stroke:#008000;stroke-linejoin:miter;" x="95.725977" xlink:href="#mc7957586e7" y="33.151095"/>
     <use style="fill:#008000;stroke:#008000;stroke-linejoin:miter;" x="98.972523" xlink:href="#mc7957586e7" y="30.007972"/>
     <use style="fill:#008000;stroke:#008000;stroke-linejoin:miter;" x="102.219068" xlink:href="#mc7957586e7" y="28.270771"/>
     <use style="fill:#008000;stroke:#008000;stroke-linejoin:miter;" x="105.465614" xlink:href="#mc7957586e7" y="26.73557"/>
     <use style="fill:#008000;stroke:#008000;stroke-linejoin:miter;" x="108.712159" xlink:href="#mc7957586e7" y="25.749809"/>
     <use style="fill:#008000;stroke:#008000;stroke-linejoin:miter;" x="111.958705" xlink:href="#mc7957586e7" y="25.119568"/>
     <use style="fill:#008000;stroke:#008000;stroke-linejoin:miter;" x="115.20525" xlink:href="#mc7957586e7" y="24.513568"/>
     <use style="fill:#008000;stroke:#008000;stroke-linejoin:miter;" x="118.451795" xlink:href="#mc7957586e7" y="24.222688"/>
     <use style="fill:#008000;stroke:#008000;stroke-linejoin:miter;" x="121.698341" xlink:href="#mc7957586e7" y="23.899487"/>
     <use style="fill:#008000;stroke:#008000;stroke-linejoin:miter;" x="124.944886" xlink:href="#mc7957586e7" y="23.778287"/>
     <use style="fill:#008000;stroke:#008000;stroke-linejoin:miter;" x="157.410341" xlink:href="#mc7957586e7" y="23.139967"/>
     <use style="fill:#008000;stroke:#008000;stroke-linejoin:miter;" x="189.875795" xlink:href="#mc7957586e7" y="23.123807"/>
     <use style="fill:#008000;stroke:#008000;stroke-linejoin:miter;" x="222.34125" xlink:href="#mc7957586e7" y="23.123807"/>
     <use style="fill:#008000;stroke:#008000;stroke-linejoin:miter;" x="254.806705" xlink:href="#mc7957586e7" y="23.123807"/>
     <use style="fill:#008000;stroke:#008000;stroke-linejoin:miter;" x="287.272159" xlink:href="#mc7957586e7" y="23.123807"/>
     <use style="fill:#008000;stroke:#008000;stroke-linejoin:miter;" x="319.737614" xlink:href="#mc7957586e7" y="23.123807"/>
     <use style="fill:#008000;stroke:#008000;stroke-linejoin:miter;" x="352.203068" xlink:href="#mc7957586e7" y="23.123807"/>
     <use style="fill:#008000;stroke:#008000;stroke-linejoin:miter;" x="384.668523" xlink:href="#mc7957586e7" y="23.123807"/>
    </g>
   </g>
   <g id="line2d_28">
    <path clip-path="url(#p4f5a83fec4)" d="M 60.013977 264.716 
L 63.260523 217.550982 
L 66.507068 167.107502 
L 69.753614 123.105807 
L 73.000159 84.582356 
L 76.246705 62.039138 
L 79.49325 48.452607 
L 82.739795 39.32624 
L 85.986341 33.587415 
L 89.232886 30.169572 
L 92.479432 27.44863 
L 95.725977 25.763949 
L 98.972523 24.951908 
L 102.219068 24.303488 
L 105.465614 23.818687 
L 108.712159 23.497507 
L 111.958705 23.273287 
L 115.20525 23.115727 
L 118.451795 23.049067 
L 121.698341 23.055127 
L 124.944886 23.000587 
L 157.410341 22.921807 
L 189.875795 22.921807 
L 222.34125 22.921807 
L 254.806705 22.921807 
L 287.272159 22.921807 
L 319.737614 22.921807 
L 352.203068 22.921807 
L 384.668523 22.921807 
" style="fill:none;stroke:#ff0000;stroke-linecap:square;"/>
    <defs>
     <path d="M 0 -1 
L -1 1 
L 1 1 
z
" id="mfbc5cc4aaa" style="stroke:#ff0000;stroke-linejoin:miter;"/>
    </defs>
    <g clip-path="url(#p4f5a83fec4)">
     <use style="fill:#ff0000;stroke:#ff0000;stroke-linejoin:miter;" x="60.013977" xlink:href="#mfbc5cc4aaa" y="264.716"/>
     <use style="fill:#ff0000;stroke:#ff0000;stroke-linejoin:miter;" x="63.260523" xlink:href="#mfbc5cc4aaa" y="217.550982"/>
     <use style="fill:#ff0000;stroke:#ff0000;stroke-linejoin:miter;" x="66.507068" xlink:href="#mfbc5cc4aaa" y="167.107502"/>
     <use style="fill:#ff0000;stroke:#ff0000;stroke-linejoin:miter;" x="69.753614" xlink:href="#mfbc5cc4aaa" y="123.105807"/>
     <use style="fill:#ff0000;stroke:#ff0000;stroke-linejoin:miter;" x="73.000159" xlink:href="#mfbc5cc4aaa" y="84.582356"/>
     <use style="fill:#ff0000;stroke:#ff0000;stroke-linejoin:miter;" x="76.246705" xlink:href="#mfbc5cc4aaa" y="62.039138"/>
     <use style="fill:#ff0000;stroke:#ff0000;stroke-linejoin:miter;" x="79.49325" xlink:href="#mfbc5cc4aaa" y="48.452607"/>
     <use style="fill:#ff0000;stroke:#ff0000;stroke-linejoin:miter;" x="82.739795" xlink:href="#mfbc5cc4aaa" y="39.32624"/>
     <use style="fill:#ff0000;stroke:#ff0000;stroke-linejoin:miter;" x="85.986341" xlink:href="#mfbc5cc4aaa" y="33.587415"/>
     <use style="fill:#ff0000;stroke:#ff0000;stroke-linejoin:miter;" x="89.232886" xlink:href="#mfbc5cc4aaa" y="30.169572"/>
     <use style="fill:#ff0000;stroke:#ff0000;stroke-linejoin:miter;" x="92.479432" xlink:href="#mfbc5cc4aaa" y="27.44863"/>
     <use style="fill:#ff0000;stroke:#ff0000;stroke-linejoin:miter;" x="95.725977" xlink:href="#mfbc5cc4aaa" y="25.763949"/>
     <use style="fill:#ff0000;stroke:#ff0000;stroke-linejoin:miter;" x="98.972523" xlink:href="#mfbc5cc4aaa" y="24.951908"/>
     <use style="fill:#ff0000;stroke:#ff0000;stroke-linejoin:miter;" x="102.219068" xlink:href="#mfbc5cc4aaa" y="24.303488"/>
     <use style="fill:#ff0000;stroke:#ff0000;stroke-linejoin:miter;" x="105.465614" xlink:href="#mfbc5cc4aaa" y="23.818687"/>
     <use style="fill:#ff0000;stroke:#ff0000;stroke-linejoin:miter;" x="108.712159" xlink:href="#mfbc5cc4aaa" y="23.497507"/>
     <use style="fill:#ff0000;stroke:#ff0000;stroke-linejoin:miter;" x="111.958705" xlink:href="#mfbc5cc4aaa" y="23.273287"/>
     <use style="fill:#ff0000;stroke:#ff0000;stroke-linejoin:miter;" x="115.20525" xlink:href="#mfbc5cc4aaa" y="23.115727"/>
     <use style="fill:#ff0000;stroke:#ff0000;stroke-linejoin:miter;" x="118.451795" xlink:href="#mfbc5cc4aaa" y="23.049067"/>
     <use style="fill:#ff0000;stroke:#ff0000;stroke-linejoin:miter;" x="121.698341" xlink:href="#mfbc5cc4aaa" y="23.055127"/>
     <use style="fill:#ff0000;stroke:#ff0000;stroke-linejoin:miter;" x="124.944886" xlink:href="#mfbc5cc4aaa" y="23.000587"/>
     <use style="fill:#ff0000;stroke:#ff0000;stroke-linejoin:miter;" x="157.410341" xlink:href="#mfbc5cc4aaa" y="22.921807"/>
     <use style="fill:#ff0000;stroke:#ff0000;stroke-linejoin:miter;" x="189.875795" xlink:href="#mfbc5cc4aaa" y="22.921807"/>
     <use style="fill:#ff0000;stroke:#ff0000;stroke-linejoin:miter;" x="222.34125" xlink:href="#mfbc5cc4aaa" y="22.921807"/>
     <use style="fill:#ff0000;stroke:#ff0000;stroke-linejoin:miter;" x="254.806705" xlink:href="#mfbc5cc4aaa" y="22.921807"/>
     <use style="fill:#ff0000;stroke:#ff0000;stroke-linejoin:miter;" x="287.272159" xlink:href="#mfbc5cc4aaa" y="22.921807"/>
     <use style="fill:#ff0000;stroke:#ff0000;stroke-linejoin:miter;" x="319.737614" xlink:href="#mfbc5cc4aaa" y="22.921807"/>
     <use style="fill:#ff0000;stroke:#ff0000;stroke-linejoin:miter;" x="352.203068" xlink:href="#mfbc5cc4aaa" y="22.921807"/>
     <use style="fill:#ff0000;stroke:#ff0000;stroke-linejoin:miter;" x="384.668523" xlink:href="#mfbc5cc4aaa" y="22.921807"/>
    </g>
   </g>
   <g id="line2d_29">
    <path clip-path="url(#p4f5a83fec4)" d="M 60.013977 264.716 
L 63.260523 203.994751 
L 66.507068 144.936368 
L 69.753614 92.005862 
L 73.000159 63.359007 
L 76.246705 45.668641 
L 79.49325 36.045353 
L 82.739795 30.794965 
L 85.986341 27.391666 
L 89.232886 25.29248 
L 92.479432 24.647696 
L 95.725977 23.891407 
L 98.972523 23.338735 
L 102.219068 23.212687 
L 105.465614 23.013919 
L 108.712159 22.960591 
L 111.958705 22.863631 
L 115.20525 22.829694 
L 118.451795 22.849086 
L 121.698341 22.819998 
L 124.944886 22.805454 
L 157.410341 22.800606 
L 189.875795 22.800606 
L 222.34125 22.800606 
L 254.806705 22.800606 
L 287.272159 22.800606 
L 319.737614 22.800606 
L 352.203068 22.800606 
L 384.668523 22.800606 
" style="fill:none;stroke:#a52a2a;stroke-linecap:square;"/>
    <defs>
     <path d="M 1 0 
L -1 -1 
L -1 1 
z
" id="m5edc757946" style="stroke:#a52a2a;stroke-linejoin:miter;"/>
    </defs>
    <g clip-path="url(#p4f5a83fec4)">
     <use style="fill:#a52a2a;stroke:#a52a2a;stroke-linejoin:miter;" x="60.013977" xlink:href="#m5edc757946" y="264.716"/>
     <use style="fill:#a52a2a;stroke:#a52a2a;stroke-linejoin:miter;" x="63.260523" xlink:href="#m5edc757946" y="203.994751"/>
     <use style="fill:#a52a2a;stroke:#a52a2a;stroke-linejoin:miter;" x="66.507068" xlink:href="#m5edc757946" y="144.936368"/>
     <use style="fill:#a52a2a;stroke:#a52a2a;stroke-linejoin:miter;" x="69.753614" xlink:href="#m5edc757946" y="92.005862"/>
     <use style="fill:#a52a2a;stroke:#a52a2a;stroke-linejoin:miter;" x="73.000159" xlink:href="#m5edc757946" y="63.359007"/>
     <use style="fill:#a52a2a;stroke:#a52a2a;stroke-linejoin:miter;" x="76.246705" xlink:href="#m5edc757946" y="45.668641"/>
     <use style="fill:#a52a2a;stroke:#a52a2a;stroke-linejoin:miter;" x="79.49325" xlink:href="#m5edc757946" y="36.045353"/>
     <use style="fill:#a52a2a;stroke:#a52a2a;stroke-linejoin:miter;" x="82.739795" xlink:href="#m5edc757946" y="30.794965"/>
     <use style="fill:#a52a2a;stroke:#a52a2a;stroke-linejoin:miter;" x="85.986341" xlink:href="#m5edc757946" y="27.391666"/>
     <use style="fill:#a52a2a;stroke:#a52a2a;stroke-linejoin:miter;" x="89.232886" xlink:href="#m5edc757946" y="25.29248"/>
     <use style="fill:#a52a2a;stroke:#a52a2a;stroke-linejoin:miter;" x="92.479432" xlink:href="#m5edc757946" y="24.647696"/>
     <use style="fill:#a52a2a;stroke:#a52a2a;stroke-linejoin:miter;" x="95.725977" xlink:href="#m5edc757946" y="23.891407"/>
     <use style="fill:#a52a2a;stroke:#a52a2a;stroke-linejoin:miter;" x="98.972523" xlink:href="#m5edc757946" y="23.338735"/>
     <use style="fill:#a52a2a;stroke:#a52a2a;stroke-linejoin:miter;" x="102.219068" xlink:href="#m5edc757946" y="23.212687"/>
     <use style="fill:#a52a2a;stroke:#a52a2a;stroke-linejoin:miter;" x="105.465614" xlink:href="#m5edc757946" y="23.013919"/>
     <use style="fill:#a52a2a;stroke:#a52a2a;stroke-linejoin:miter;" x="108.712159" xlink:href="#m5edc757946" y="22.960591"/>
     <use style="fill:#a52a2a;stroke:#a52a2a;stroke-linejoin:miter;" x="111.958705" xlink:href="#m5edc757946" y="22.863631"/>
     <use style="fill:#a52a2a;stroke:#a52a2a;stroke-linejoin:miter;" x="115.20525" xlink:href="#m5edc757946" y="22.829694"/>
     <use style="fill:#a52a2a;stroke:#a52a2a;stroke-linejoin:miter;" x="118.451795" xlink:href="#m5edc757946" y="22.849086"/>
     <use style="fill:#a52a2a;stroke:#a52a2a;stroke-linejoin:miter;" x="121.698341" xlink:href="#m5edc757946" y="22.819998"/>
     <use style="fill:#a52a2a;stroke:#a52a2a;stroke-linejoin:miter;" x="124.944886" xlink:href="#m5edc757946" y="22.805454"/>
     <use style="fill:#a52a2a;stroke:#a52a2a;stroke-linejoin:miter;" x="157.410341" xlink:href="#m5edc757946" y="22.800606"/>
     <use style="fill:#a52a2a;stroke:#a52a2a;stroke-linejoin:miter;" x="189.875795" xlink:href="#m5edc757946" y="22.800606"/>
     <use style="fill:#a52a2a;stroke:#a52a2a;stroke-linejoin:miter;" x="222.34125" xlink:href="#m5edc757946" y="22.800606"/>
     <use style="fill:#a52a2a;stroke:#a52a2a;stroke-linejoin:miter;" x="254.806705" xlink:href="#m5edc757946" y="22.800606"/>
     <use style="fill:#a52a2a;stroke:#a52a2a;stroke-linejoin:miter;" x="287.272159" xlink:href="#m5edc757946" y="22.800606"/>
     <use style="fill:#a52a2a;stroke:#a52a2a;stroke-linejoin:miter;" x="319.737614" xlink:href="#m5edc757946" y="22.800606"/>
     <use style="fill:#a52a2a;stroke:#a52a2a;stroke-linejoin:miter;" x="352.203068" xlink:href="#m5edc757946" y="22.800606"/>
     <use style="fill:#a52a2a;stroke:#a52a2a;stroke-linejoin:miter;" x="384.668523" xlink:href="#m5edc757946" y="22.800606"/>
    </g>
   </g>
   <g id="patch_3">
    <path d="M 43.78125 276.812 
L 43.78125 10.7 
" style="fill:none;stroke:#000000;stroke-linecap:square;stroke-linejoin:miter;stroke-width:0.8;"/>
   </g>
   <g id="patch_4">
    <path d="M 400.90125 276.812 
L 400.90125 10.7 
" style="fill:none;stroke:#000000;stroke-linecap:square;stroke-linejoin:miter;stroke-width:0.8;"/>
   </g>
   <g id="patch_5">
    <path d="M 43.78125 276.812 
L 400.90125 276.812 
" style="fill:none;stroke:#000000;stroke-linecap:square;stroke-linejoin:miter;stroke-width:0.8;"/>
   </g>
   <g id="patch_6">
    <path d="M 43.78125 10.7 
L 400.90125 10.7 
" style="fill:none;stroke:#000000;stroke-linecap:square;stroke-linejoin:miter;stroke-width:0.8;"/>
   </g>
   <g id="legend_1">
    <g id="patch_7">
     <path d="M 311.779375 218.5896 
L 395.90125 218.5896 
L 395.90125 142.198975 
L 311.779375 142.198975 
z
" style="fill:#ffffff;opacity:0.8;stroke:#cccccc;stroke-linejoin:miter;"/>
    </g>
    <g id="LineCollection_6">
     <path d="M 325.779375 155.297413 
L 325.779375 145.297413 
" style="fill:none;stroke:#000000;"/>
    </g>
    <g id="line2d_30">
     <path d="M 315.779375 150.297413 
L 335.779375 150.297413 
" style="fill:none;stroke:#000000;stroke-linecap:square;"/>
    </g>
    <g id="line2d_31">
     <g>
      <use style="stroke:#000000;" x="325.779375" xlink:href="#m09bbc89646" y="150.297413"/>
     </g>
    </g>
    <g id="text_15">
     <!-- #v = 100 -->
     <defs>
      <path d="M 51.125 44 
L 36.921875 44 
L 32.8125 27.6875 
L 47.125 27.6875 
z
M 43.796875 71.78125 
L 38.71875 51.515625 
L 52.984375 51.515625 
L 58.109375 71.78125 
L 65.921875 71.78125 
L 60.890625 51.515625 
L 76.125 51.515625 
L 76.125 44 
L 58.984375 44 
L 54.984375 27.6875 
L 70.515625 27.6875 
L 70.515625 20.21875 
L 53.078125 20.21875 
L 48 0 
L 40.1875 0 
L 45.21875 20.21875 
L 30.90625 20.21875 
L 25.875 0 
L 18.015625 0 
L 23.09375 20.21875 
L 7.71875 20.21875 
L 7.71875 27.6875 
L 24.90625 27.6875 
L 29 44 
L 13.28125 44 
L 13.28125 51.515625 
L 30.90625 51.515625 
L 35.890625 71.78125 
z
" id="DejaVuSans-35"/>
      <path d="M 2.984375 54.6875 
L 12.5 54.6875 
L 29.59375 8.796875 
L 46.6875 54.6875 
L 56.203125 54.6875 
L 35.6875 0 
L 23.484375 0 
z
" id="DejaVuSans-118"/>
      <path d="M 10.59375 45.40625 
L 73.1875 45.40625 
L 73.1875 37.203125 
L 10.59375 37.203125 
z
M 10.59375 25.484375 
L 73.1875 25.484375 
L 73.1875 17.1875 
L 10.59375 17.1875 
z
" id="DejaVuSans-61"/>
     </defs>
     <g transform="translate(343.779375 153.797413)scale(0.1 -0.1)">
      <use xlink:href="#DejaVuSans-35"/>
      <use x="83.789062" xlink:href="#DejaVuSans-118"/>
      <use x="142.96875" xlink:href="#DejaVuSans-32"/>
      <use x="174.755859" xlink:href="#DejaVuSans-61"/>
      <use x="258.544922" xlink:href="#DejaVuSans-32"/>
      <use x="290.332031" xlink:href="#DejaVuSans-49"/>
      <use x="353.955078" xlink:href="#DejaVuSans-48"/>
      <use x="417.578125" xlink:href="#DejaVuSans-48"/>
     </g>
    </g>
    <g id="LineCollection_7">
     <path d="M 325.779375 169.975538 
L 325.779375 159.975538 
" style="fill:none;stroke:#0000ff;"/>
    </g>
    <g id="line2d_32">
     <path d="M 315.779375 164.975538 
L 335.779375 164.975538 
" style="fill:none;stroke:#0000ff;stroke-linecap:square;"/>
    </g>
    <g id="line2d_33">
     <g>
      <use style="fill:#0000ff;stroke:#0000ff;stroke-linejoin:miter;" x="325.779375" xlink:href="#mf37483801d" y="164.975538"/>
     </g>
    </g>
    <g id="text_16">
     <!-- #v = 200 -->
     <g transform="translate(343.779375 168.475538)scale(0.1 -0.1)">
      <use xlink:href="#DejaVuSans-35"/>
      <use x="83.789062" xlink:href="#DejaVuSans-118"/>
      <use x="142.96875" xlink:href="#DejaVuSans-32"/>
      <use x="174.755859" xlink:href="#DejaVuSans-61"/>
      <use x="258.544922" xlink:href="#DejaVuSans-32"/>
      <use x="290.332031" xlink:href="#DejaVuSans-50"/>
      <use x="353.955078" xlink:href="#DejaVuSans-48"/>
      <use x="417.578125" xlink:href="#DejaVuSans-48"/>
     </g>
    </g>
    <g id="LineCollection_8">
     <path d="M 325.779375 184.653662 
L 325.779375 174.653662 
" style="fill:none;stroke:#008000;"/>
    </g>
    <g id="line2d_34">
     <path d="M 315.779375 179.653662 
L 335.779375 179.653662 
" style="fill:none;stroke:#008000;stroke-linecap:square;"/>
    </g>
    <g id="line2d_35">
     <g>
      <use style="fill:#008000;stroke:#008000;stroke-linejoin:miter;" x="325.779375" xlink:href="#mc7957586e7" y="179.653662"/>
     </g>
    </g>
    <g id="text_17">
     <!-- #v = 300 -->
     <defs>
      <path d="M 40.578125 39.3125 
Q 47.65625 37.796875 51.625 33 
Q 55.609375 28.21875 55.609375 21.1875 
Q 55.609375 10.40625 48.1875 4.484375 
Q 40.765625 -1.421875 27.09375 -1.421875 
Q 22.515625 -1.421875 17.65625 -0.515625 
Q 12.796875 0.390625 7.625 2.203125 
L 7.625 11.71875 
Q 11.71875 9.328125 16.59375 8.109375 
Q 21.484375 6.890625 26.8125 6.890625 
Q 36.078125 6.890625 40.9375 10.546875 
Q 45.796875 14.203125 45.796875 21.1875 
Q 45.796875 27.640625 41.28125 31.265625 
Q 36.765625 34.90625 28.71875 34.90625 
L 20.21875 34.90625 
L 20.21875 43.015625 
L 29.109375 43.015625 
Q 36.375 43.015625 40.234375 45.921875 
Q 44.09375 48.828125 44.09375 54.296875 
Q 44.09375 59.90625 40.109375 62.90625 
Q 36.140625 65.921875 28.71875 65.921875 
Q 24.65625 65.921875 20.015625 65.03125 
Q 15.375 64.15625 9.8125 62.3125 
L 9.8125 71.09375 
Q 15.4375 72.65625 20.34375 73.4375 
Q 25.25 74.21875 29.59375 74.21875 
Q 40.828125 74.21875 47.359375 69.109375 
Q 53.90625 64.015625 53.90625 55.328125 
Q 53.90625 49.265625 50.4375 45.09375 
Q 46.96875 40.921875 40.578125 39.3125 
z
" id="DejaVuSans-51"/>
     </defs>
     <g transform="translate(343.779375 183.153662)scale(0.1 -0.1)">
      <use xlink:href="#DejaVuSans-35"/>
      <use x="83.789062" xlink:href="#DejaVuSans-118"/>
      <use x="142.96875" xlink:href="#DejaVuSans-32"/>
      <use x="174.755859" xlink:href="#DejaVuSans-61"/>
      <use x="258.544922" xlink:href="#DejaVuSans-32"/>
      <use x="290.332031" xlink:href="#DejaVuSans-51"/>
      <use x="353.955078" xlink:href="#DejaVuSans-48"/>
      <use x="417.578125" xlink:href="#DejaVuSans-48"/>
     </g>
    </g>
    <g id="LineCollection_9">
     <path d="M 325.779375 199.331788 
L 325.779375 189.331788 
" style="fill:none;stroke:#ff0000;"/>
    </g>
    <g id="line2d_36">
     <path d="M 315.779375 194.331788 
L 335.779375 194.331788 
" style="fill:none;stroke:#ff0000;stroke-linecap:square;"/>
    </g>
    <g id="line2d_37">
     <g>
      <use style="fill:#ff0000;stroke:#ff0000;stroke-linejoin:miter;" x="325.779375" xlink:href="#mfbc5cc4aaa" y="194.331788"/>
     </g>
    </g>
    <g id="text_18">
     <!-- #v = 400 -->
     <g transform="translate(343.779375 197.831788)scale(0.1 -0.1)">
      <use xlink:href="#DejaVuSans-35"/>
      <use x="83.789062" xlink:href="#DejaVuSans-118"/>
      <use x="142.96875" xlink:href="#DejaVuSans-32"/>
      <use x="174.755859" xlink:href="#DejaVuSans-61"/>
      <use x="258.544922" xlink:href="#DejaVuSans-32"/>
      <use x="290.332031" xlink:href="#DejaVuSans-52"/>
      <use x="353.955078" xlink:href="#DejaVuSans-48"/>
      <use x="417.578125" xlink:href="#DejaVuSans-48"/>
     </g>
    </g>
    <g id="LineCollection_10">
     <path d="M 325.779375 214.009913 
L 325.779375 204.009913 
" style="fill:none;stroke:#a52a2a;"/>
    </g>
    <g id="line2d_38">
     <path d="M 315.779375 209.009913 
L 335.779375 209.009913 
" style="fill:none;stroke:#a52a2a;stroke-linecap:square;"/>
    </g>
    <g id="line2d_39">
     <g>
      <use style="fill:#a52a2a;stroke:#a52a2a;stroke-linejoin:miter;" x="325.779375" xlink:href="#m5edc757946" y="209.009913"/>
     </g>
    </g>
    <g id="text_19">
     <!-- #v = 500 -->
     <defs>
      <path d="M 10.796875 72.90625 
L 49.515625 72.90625 
L 49.515625 64.59375 
L 19.828125 64.59375 
L 19.828125 46.734375 
Q 21.96875 47.46875 24.109375 47.828125 
Q 26.265625 48.1875 28.421875 48.1875 
Q 40.625 48.1875 47.75 41.5 
Q 54.890625 34.8125 54.890625 23.390625 
Q 54.890625 11.625 47.5625 5.09375 
Q 40.234375 -1.421875 26.90625 -1.421875 
Q 22.3125 -1.421875 17.546875 -0.640625 
Q 12.796875 0.140625 7.71875 1.703125 
L 7.71875 11.625 
Q 12.109375 9.234375 16.796875 8.0625 
Q 21.484375 6.890625 26.703125 6.890625 
Q 35.15625 6.890625 40.078125 11.328125 
Q 45.015625 15.765625 45.015625 23.390625 
Q 45.015625 31 40.078125 35.4375 
Q 35.15625 39.890625 26.703125 39.890625 
Q 22.75 39.890625 18.8125 39.015625 
Q 14.890625 38.140625 10.796875 36.28125 
z
" id="DejaVuSans-53"/>
     </defs>
     <g transform="translate(343.779375 212.509913)scale(0.1 -0.1)">
      <use xlink:href="#DejaVuSans-35"/>
      <use x="83.789062" xlink:href="#DejaVuSans-118"/>
      <use x="142.96875" xlink:href="#DejaVuSans-32"/>
      <use x="174.755859" xlink:href="#DejaVuSans-61"/>
      <use x="258.544922" xlink:href="#DejaVuSans-32"/>
      <use x="290.332031" xlink:href="#DejaVuSans-53"/>
      <use x="353.955078" xlink:href="#DejaVuSans-48"/>
      <use x="417.578125" xlink:href="#DejaVuSans-48"/>
     </g>
    </g>
   </g>
  </g>
 </g>
 <defs>
  <clipPath id="p4f5a83fec4">
   <rect height="266.112" width="357.12" x="43.78125" y="10.7"/>
  </clipPath>
 </defs>
</svg>
