<?xml version="1.0" encoding="utf-8" standalone="no"?>
<!DOCTYPE svg PUBLIC "-//W3C//DTD SVG 1.1//EN"
  "http://www.w3.org/Graphics/SVG/1.1/DTD/svg11.dtd">
<!-- Created with matplotlib (http://matplotlib.org/) -->
<svg height="314.36825pt" version="1.1" viewBox="0 0 424.32625 314.36825" width="424.32625pt" xmlns="http://www.w3.org/2000/svg" xmlns:xlink="http://www.w3.org/1999/xlink">
 <defs>
  <style type="text/css">
*{stroke-linecap:butt;stroke-linejoin:round;}
  </style>
 </defs>
 <g id="figure_1">
  <g id="patch_1">
   <path d="M 0 314.36825 
L 424.32625 314.36825 
L 424.32625 0 
L 0 0 
z
" style="fill:#ffffff;"/>
  </g>
  <g id="axes_1">
   <g id="patch_2">
    <path d="M 56.50625 276.812 
L 413.62625 276.812 
L 413.62625 10.7 
L 56.50625 10.7 
z
" style="fill:#ffffff;"/>
   </g>
   <g id="matplotlib.axis_1">
    <g id="xtick_1">
     <g id="line2d_1">
      <path clip-path="url(#p2a74015dfe)" d="M 64.195437 276.812 
L 64.195437 10.7 
" style="fill:none;stroke:#b0b0b0;stroke-linecap:square;stroke-width:0.8;"/>
     </g>
     <g id="line2d_2">
      <defs>
       <path d="M 0 0 
L 0 3.5 
" id="m2c7cbc7439" style="stroke:#000000;stroke-width:0.8;"/>
      </defs>
      <g>
       <use style="stroke:#000000;stroke-width:0.8;" x="64.195437" xlink:href="#m2c7cbc7439" y="276.812"/>
      </g>
     </g>
     <g id="text_1">
      <!-- 0 -->
      <defs>
       <path d="M 31.78125 66.40625 
Q 24.171875 66.40625 20.328125 58.90625 
Q 16.5 51.421875 16.5 36.375 
Q 16.5 21.390625 20.328125 13.890625 
Q 24.171875 6.390625 31.78125 6.390625 
Q 39.453125 6.390625 43.28125 13.890625 
Q 47.125 21.390625 47.125 36.375 
Q 47.125 51.421875 43.28125 58.90625 
Q 39.453125 66.40625 31.78125 66.40625 
z
M 31.78125 74.21875 
Q 44.046875 74.21875 50.515625 64.515625 
Q 56.984375 54.828125 56.984375 36.375 
Q 56.984375 17.96875 50.515625 8.265625 
Q 44.046875 -1.421875 31.78125 -1.421875 
Q 19.53125 -1.421875 13.0625 8.265625 
Q 6.59375 17.96875 6.59375 36.375 
Q 6.59375 54.828125 13.0625 64.515625 
Q 19.53125 74.21875 31.78125 74.21875 
z
" id="DejaVuSans-30"/>
      </defs>
      <g transform="translate(61.014187 291.410438)scale(0.1 -0.1)">
       <use xlink:href="#DejaVuSans-30"/>
      </g>
     </g>
    </g>
    <g id="xtick_2">
     <g id="line2d_3">
      <path clip-path="url(#p2a74015dfe)" d="M 106.91314 276.812 
L 106.91314 10.7 
" style="fill:none;stroke:#b0b0b0;stroke-linecap:square;stroke-width:0.8;"/>
     </g>
     <g id="line2d_4">
      <g>
       <use style="stroke:#000000;stroke-width:0.8;" x="106.91314" xlink:href="#m2c7cbc7439" y="276.812"/>
      </g>
     </g>
     <g id="text_2">
      <!-- 5 -->
      <defs>
       <path d="M 10.796875 72.90625 
L 49.515625 72.90625 
L 49.515625 64.59375 
L 19.828125 64.59375 
L 19.828125 46.734375 
Q 21.96875 47.46875 24.109375 47.828125 
Q 26.265625 48.1875 28.421875 48.1875 
Q 40.625 48.1875 47.75 41.5 
Q 54.890625 34.8125 54.890625 23.390625 
Q 54.890625 11.625 47.5625 5.09375 
Q 40.234375 -1.421875 26.90625 -1.421875 
Q 22.3125 -1.421875 17.546875 -0.640625 
Q 12.796875 0.140625 7.71875 1.703125 
L 7.71875 11.625 
Q 12.109375 9.234375 16.796875 8.0625 
Q 21.484375 6.890625 26.703125 6.890625 
Q 35.15625 6.890625 40.078125 11.328125 
Q 45.015625 15.765625 45.015625 23.390625 
Q 45.015625 31 40.078125 35.4375 
Q 35.15625 39.890625 26.703125 39.890625 
Q 22.75 39.890625 18.8125 39.015625 
Q 14.890625 38.140625 10.796875 36.28125 
z
" id="DejaVuSans-35"/>
      </defs>
      <g transform="translate(103.73189 291.410438)scale(0.1 -0.1)">
       <use xlink:href="#DejaVuSans-35"/>
      </g>
     </g>
    </g>
    <g id="xtick_3">
     <g id="line2d_5">
      <path clip-path="url(#p2a74015dfe)" d="M 149.630843 276.812 
L 149.630843 10.7 
" style="fill:none;stroke:#b0b0b0;stroke-linecap:square;stroke-width:0.8;"/>
     </g>
     <g id="line2d_6">
      <g>
       <use style="stroke:#000000;stroke-width:0.8;" x="149.630843" xlink:href="#m2c7cbc7439" y="276.812"/>
      </g>
     </g>
     <g id="text_3">
      <!-- 10 -->
      <defs>
       <path d="M 12.40625 8.296875 
L 28.515625 8.296875 
L 28.515625 63.921875 
L 10.984375 60.40625 
L 10.984375 69.390625 
L 28.421875 72.90625 
L 38.28125 72.90625 
L 38.28125 8.296875 
L 54.390625 8.296875 
L 54.390625 0 
L 12.40625 0 
z
" id="DejaVuSans-31"/>
      </defs>
      <g transform="translate(143.268343 291.410438)scale(0.1 -0.1)">
       <use xlink:href="#DejaVuSans-31"/>
       <use x="63.623047" xlink:href="#DejaVuSans-30"/>
      </g>
     </g>
    </g>
    <g id="xtick_4">
     <g id="line2d_7">
      <path clip-path="url(#p2a74015dfe)" d="M 192.348547 276.812 
L 192.348547 10.7 
" style="fill:none;stroke:#b0b0b0;stroke-linecap:square;stroke-width:0.8;"/>
     </g>
     <g id="line2d_8">
      <g>
       <use style="stroke:#000000;stroke-width:0.8;" x="192.348547" xlink:href="#m2c7cbc7439" y="276.812"/>
      </g>
     </g>
     <g id="text_4">
      <!-- 15 -->
      <g transform="translate(185.986047 291.410438)scale(0.1 -0.1)">
       <use xlink:href="#DejaVuSans-31"/>
       <use x="63.623047" xlink:href="#DejaVuSans-35"/>
      </g>
     </g>
    </g>
    <g id="xtick_5">
     <g id="line2d_9">
      <path clip-path="url(#p2a74015dfe)" d="M 235.06625 276.812 
L 235.06625 10.7 
" style="fill:none;stroke:#b0b0b0;stroke-linecap:square;stroke-width:0.8;"/>
     </g>
     <g id="line2d_10">
      <g>
       <use style="stroke:#000000;stroke-width:0.8;" x="235.06625" xlink:href="#m2c7cbc7439" y="276.812"/>
      </g>
     </g>
     <g id="text_5">
      <!-- 20 -->
      <defs>
       <path d="M 19.1875 8.296875 
L 53.609375 8.296875 
L 53.609375 0 
L 7.328125 0 
L 7.328125 8.296875 
Q 12.9375 14.109375 22.625 23.890625 
Q 32.328125 33.6875 34.8125 36.53125 
Q 39.546875 41.84375 41.421875 45.53125 
Q 43.3125 49.21875 43.3125 52.78125 
Q 43.3125 58.59375 39.234375 62.25 
Q 35.15625 65.921875 28.609375 65.921875 
Q 23.96875 65.921875 18.8125 64.3125 
Q 13.671875 62.703125 7.8125 59.421875 
L 7.8125 69.390625 
Q 13.765625 71.78125 18.9375 73 
Q 24.125 74.21875 28.421875 74.21875 
Q 39.75 74.21875 46.484375 68.546875 
Q 53.21875 62.890625 53.21875 53.421875 
Q 53.21875 48.921875 51.53125 44.890625 
Q 49.859375 40.875 45.40625 35.40625 
Q 44.1875 33.984375 37.640625 27.21875 
Q 31.109375 20.453125 19.1875 8.296875 
z
" id="DejaVuSans-32"/>
      </defs>
      <g transform="translate(228.70375 291.410438)scale(0.1 -0.1)">
       <use xlink:href="#DejaVuSans-32"/>
       <use x="63.623047" xlink:href="#DejaVuSans-30"/>
      </g>
     </g>
    </g>
    <g id="xtick_6">
     <g id="line2d_11">
      <path clip-path="url(#p2a74015dfe)" d="M 277.783953 276.812 
L 277.783953 10.7 
" style="fill:none;stroke:#b0b0b0;stroke-linecap:square;stroke-width:0.8;"/>
     </g>
     <g id="line2d_12">
      <g>
       <use style="stroke:#000000;stroke-width:0.8;" x="277.783953" xlink:href="#m2c7cbc7439" y="276.812"/>
      </g>
     </g>
     <g id="text_6">
      <!-- 25 -->
      <g transform="translate(271.421453 291.410438)scale(0.1 -0.1)">
       <use xlink:href="#DejaVuSans-32"/>
       <use x="63.623047" xlink:href="#DejaVuSans-35"/>
      </g>
     </g>
    </g>
    <g id="xtick_7">
     <g id="line2d_13">
      <path clip-path="url(#p2a74015dfe)" d="M 320.501657 276.812 
L 320.501657 10.7 
" style="fill:none;stroke:#b0b0b0;stroke-linecap:square;stroke-width:0.8;"/>
     </g>
     <g id="line2d_14">
      <g>
       <use style="stroke:#000000;stroke-width:0.8;" x="320.501657" xlink:href="#m2c7cbc7439" y="276.812"/>
      </g>
     </g>
     <g id="text_7">
      <!-- 30 -->
      <defs>
       <path d="M 40.578125 39.3125 
Q 47.65625 37.796875 51.625 33 
Q 55.609375 28.21875 55.609375 21.1875 
Q 55.609375 10.40625 48.1875 4.484375 
Q 40.765625 -1.421875 27.09375 -1.421875 
Q 22.515625 -1.421875 17.65625 -0.515625 
Q 12.796875 0.390625 7.625 2.203125 
L 7.625 11.71875 
Q 11.71875 9.328125 16.59375 8.109375 
Q 21.484375 6.890625 26.8125 6.890625 
Q 36.078125 6.890625 40.9375 10.546875 
Q 45.796875 14.203125 45.796875 21.1875 
Q 45.796875 27.640625 41.28125 31.265625 
Q 36.765625 34.90625 28.71875 34.90625 
L 20.21875 34.90625 
L 20.21875 43.015625 
L 29.109375 43.015625 
Q 36.375 43.015625 40.234375 45.921875 
Q 44.09375 48.828125 44.09375 54.296875 
Q 44.09375 59.90625 40.109375 62.90625 
Q 36.140625 65.921875 28.71875 65.921875 
Q 24.65625 65.921875 20.015625 65.03125 
Q 15.375 64.15625 9.8125 62.3125 
L 9.8125 71.09375 
Q 15.4375 72.65625 20.34375 73.4375 
Q 25.25 74.21875 29.59375 74.21875 
Q 40.828125 74.21875 47.359375 69.109375 
Q 53.90625 64.015625 53.90625 55.328125 
Q 53.90625 49.265625 50.4375 45.09375 
Q 46.96875 40.921875 40.578125 39.3125 
z
" id="DejaVuSans-33"/>
      </defs>
      <g transform="translate(314.139157 291.410438)scale(0.1 -0.1)">
       <use xlink:href="#DejaVuSans-33"/>
       <use x="63.623047" xlink:href="#DejaVuSans-30"/>
      </g>
     </g>
    </g>
    <g id="xtick_8">
     <g id="line2d_15">
      <path clip-path="url(#p2a74015dfe)" d="M 363.21936 276.812 
L 363.21936 10.7 
" style="fill:none;stroke:#b0b0b0;stroke-linecap:square;stroke-width:0.8;"/>
     </g>
     <g id="line2d_16">
      <g>
       <use style="stroke:#000000;stroke-width:0.8;" x="363.21936" xlink:href="#m2c7cbc7439" y="276.812"/>
      </g>
     </g>
     <g id="text_8">
      <!-- 35 -->
      <g transform="translate(356.85686 291.410438)scale(0.1 -0.1)">
       <use xlink:href="#DejaVuSans-33"/>
       <use x="63.623047" xlink:href="#DejaVuSans-35"/>
      </g>
     </g>
    </g>
    <g id="xtick_9">
     <g id="line2d_17">
      <path clip-path="url(#p2a74015dfe)" d="M 405.937063 276.812 
L 405.937063 10.7 
" style="fill:none;stroke:#b0b0b0;stroke-linecap:square;stroke-width:0.8;"/>
     </g>
     <g id="line2d_18">
      <g>
       <use style="stroke:#000000;stroke-width:0.8;" x="405.937063" xlink:href="#m2c7cbc7439" y="276.812"/>
      </g>
     </g>
     <g id="text_9">
      <!-- 40 -->
      <defs>
       <path d="M 37.796875 64.3125 
L 12.890625 25.390625 
L 37.796875 25.390625 
z
M 35.203125 72.90625 
L 47.609375 72.90625 
L 47.609375 25.390625 
L 58.015625 25.390625 
L 58.015625 17.1875 
L 47.609375 17.1875 
L 47.609375 0 
L 37.796875 0 
L 37.796875 17.1875 
L 4.890625 17.1875 
L 4.890625 26.703125 
z
" id="DejaVuSans-34"/>
      </defs>
      <g transform="translate(399.574563 291.410438)scale(0.1 -0.1)">
       <use xlink:href="#DejaVuSans-34"/>
       <use x="63.623047" xlink:href="#DejaVuSans-30"/>
      </g>
     </g>
    </g>
    <g id="text_10">
     <!-- Word size -->
     <defs>
      <path d="M 3.328125 72.90625 
L 13.28125 72.90625 
L 28.609375 11.28125 
L 43.890625 72.90625 
L 54.984375 72.90625 
L 70.3125 11.28125 
L 85.59375 72.90625 
L 95.609375 72.90625 
L 77.296875 0 
L 64.890625 0 
L 49.515625 63.28125 
L 33.984375 0 
L 21.578125 0 
z
" id="DejaVuSans-57"/>
      <path d="M 30.609375 48.390625 
Q 23.390625 48.390625 19.1875 42.75 
Q 14.984375 37.109375 14.984375 27.296875 
Q 14.984375 17.484375 19.15625 11.84375 
Q 23.34375 6.203125 30.609375 6.203125 
Q 37.796875 6.203125 41.984375 11.859375 
Q 46.1875 17.53125 46.1875 27.296875 
Q 46.1875 37.015625 41.984375 42.703125 
Q 37.796875 48.390625 30.609375 48.390625 
z
M 30.609375 56 
Q 42.328125 56 49.015625 48.375 
Q 55.71875 40.765625 55.71875 27.296875 
Q 55.71875 13.875 49.015625 6.21875 
Q 42.328125 -1.421875 30.609375 -1.421875 
Q 18.84375 -1.421875 12.171875 6.21875 
Q 5.515625 13.875 5.515625 27.296875 
Q 5.515625 40.765625 12.171875 48.375 
Q 18.84375 56 30.609375 56 
z
" id="DejaVuSans-6f"/>
      <path d="M 41.109375 46.296875 
Q 39.59375 47.171875 37.8125 47.578125 
Q 36.03125 48 33.890625 48 
Q 26.265625 48 22.1875 43.046875 
Q 18.109375 38.09375 18.109375 28.8125 
L 18.109375 0 
L 9.078125 0 
L 9.078125 54.6875 
L 18.109375 54.6875 
L 18.109375 46.1875 
Q 20.953125 51.171875 25.484375 53.578125 
Q 30.03125 56 36.53125 56 
Q 37.453125 56 38.578125 55.875 
Q 39.703125 55.765625 41.0625 55.515625 
z
" id="DejaVuSans-72"/>
      <path d="M 45.40625 46.390625 
L 45.40625 75.984375 
L 54.390625 75.984375 
L 54.390625 0 
L 45.40625 0 
L 45.40625 8.203125 
Q 42.578125 3.328125 38.25 0.953125 
Q 33.9375 -1.421875 27.875 -1.421875 
Q 17.96875 -1.421875 11.734375 6.484375 
Q 5.515625 14.40625 5.515625 27.296875 
Q 5.515625 40.1875 11.734375 48.09375 
Q 17.96875 56 27.875 56 
Q 33.9375 56 38.25 53.625 
Q 42.578125 51.265625 45.40625 46.390625 
z
M 14.796875 27.296875 
Q 14.796875 17.390625 18.875 11.75 
Q 22.953125 6.109375 30.078125 6.109375 
Q 37.203125 6.109375 41.296875 11.75 
Q 45.40625 17.390625 45.40625 27.296875 
Q 45.40625 37.203125 41.296875 42.84375 
Q 37.203125 48.484375 30.078125 48.484375 
Q 22.953125 48.484375 18.875 42.84375 
Q 14.796875 37.203125 14.796875 27.296875 
z
" id="DejaVuSans-64"/>
      <path id="DejaVuSans-20"/>
      <path d="M 44.28125 53.078125 
L 44.28125 44.578125 
Q 40.484375 46.53125 36.375 47.5 
Q 32.28125 48.484375 27.875 48.484375 
Q 21.1875 48.484375 17.84375 46.4375 
Q 14.5 44.390625 14.5 40.28125 
Q 14.5 37.15625 16.890625 35.375 
Q 19.28125 33.59375 26.515625 31.984375 
L 29.59375 31.296875 
Q 39.15625 29.25 43.1875 25.515625 
Q 47.21875 21.78125 47.21875 15.09375 
Q 47.21875 7.46875 41.1875 3.015625 
Q 35.15625 -1.421875 24.609375 -1.421875 
Q 20.21875 -1.421875 15.453125 -0.5625 
Q 10.6875 0.296875 5.421875 2 
L 5.421875 11.28125 
Q 10.40625 8.6875 15.234375 7.390625 
Q 20.0625 6.109375 24.8125 6.109375 
Q 31.15625 6.109375 34.5625 8.28125 
Q 37.984375 10.453125 37.984375 14.40625 
Q 37.984375 18.0625 35.515625 20.015625 
Q 33.0625 21.96875 24.703125 23.78125 
L 21.578125 24.515625 
Q 13.234375 26.265625 9.515625 29.90625 
Q 5.8125 33.546875 5.8125 39.890625 
Q 5.8125 47.609375 11.28125 51.796875 
Q 16.75 56 26.8125 56 
Q 31.78125 56 36.171875 55.265625 
Q 40.578125 54.546875 44.28125 53.078125 
z
" id="DejaVuSans-73"/>
      <path d="M 9.421875 54.6875 
L 18.40625 54.6875 
L 18.40625 0 
L 9.421875 0 
z
M 9.421875 75.984375 
L 18.40625 75.984375 
L 18.40625 64.59375 
L 9.421875 64.59375 
z
" id="DejaVuSans-69"/>
      <path d="M 5.515625 54.6875 
L 48.1875 54.6875 
L 48.1875 46.484375 
L 14.40625 7.171875 
L 48.1875 7.171875 
L 48.1875 0 
L 4.296875 0 
L 4.296875 8.203125 
L 38.09375 47.515625 
L 5.515625 47.515625 
z
" id="DejaVuSans-7a"/>
      <path d="M 56.203125 29.59375 
L 56.203125 25.203125 
L 14.890625 25.203125 
Q 15.484375 15.921875 20.484375 11.0625 
Q 25.484375 6.203125 34.421875 6.203125 
Q 39.59375 6.203125 44.453125 7.46875 
Q 49.3125 8.734375 54.109375 11.28125 
L 54.109375 2.78125 
Q 49.265625 0.734375 44.1875 -0.34375 
Q 39.109375 -1.421875 33.890625 -1.421875 
Q 20.796875 -1.421875 13.15625 6.1875 
Q 5.515625 13.8125 5.515625 26.8125 
Q 5.515625 40.234375 12.765625 48.109375 
Q 20.015625 56 32.328125 56 
Q 43.359375 56 49.78125 48.890625 
Q 56.203125 41.796875 56.203125 29.59375 
z
M 47.21875 32.234375 
Q 47.125 39.59375 43.09375 43.984375 
Q 39.0625 48.390625 32.421875 48.390625 
Q 24.90625 48.390625 20.390625 44.140625 
Q 15.875 39.890625 15.1875 32.171875 
z
" id="DejaVuSans-65"/>
     </defs>
     <g transform="translate(210.554531 305.088562)scale(0.1 -0.1)">
      <use xlink:href="#DejaVuSans-57"/>
      <use x="98.798828" xlink:href="#DejaVuSans-6f"/>
      <use x="159.980469" xlink:href="#DejaVuSans-72"/>
      <use x="201.078125" xlink:href="#DejaVuSans-64"/>
      <use x="264.554688" xlink:href="#DejaVuSans-20"/>
      <use x="296.341797" xlink:href="#DejaVuSans-73"/>
      <use x="348.441406" xlink:href="#DejaVuSans-69"/>
      <use x="376.224609" xlink:href="#DejaVuSans-7a"/>
      <use x="428.714844" xlink:href="#DejaVuSans-65"/>
     </g>
    </g>
   </g>
   <g id="matplotlib.axis_2">
    <g id="ytick_1">
     <g id="line2d_19">
      <path clip-path="url(#p2a74015dfe)" d="M 56.50625 264.716 
L 413.62625 264.716 
" style="fill:none;stroke:#b0b0b0;stroke-linecap:square;stroke-width:0.8;"/>
     </g>
     <g id="line2d_20">
      <defs>
       <path d="M 0 0 
L -3.5 0 
" id="mb4d2243ffe" style="stroke:#000000;stroke-width:0.8;"/>
      </defs>
      <g>
       <use style="stroke:#000000;stroke-width:0.8;" x="56.50625" xlink:href="#mb4d2243ffe" y="264.716"/>
      </g>
     </g>
     <g id="text_11">
      <!-- 0.000 -->
      <defs>
       <path d="M 10.6875 12.40625 
L 21 12.40625 
L 21 0 
L 10.6875 0 
z
" id="DejaVuSans-2e"/>
      </defs>
      <g transform="translate(20.878125 268.515219)scale(0.1 -0.1)">
       <use xlink:href="#DejaVuSans-30"/>
       <use x="63.623047" xlink:href="#DejaVuSans-2e"/>
       <use x="95.410156" xlink:href="#DejaVuSans-30"/>
       <use x="159.033203" xlink:href="#DejaVuSans-30"/>
       <use x="222.65625" xlink:href="#DejaVuSans-30"/>
      </g>
     </g>
    </g>
    <g id="ytick_2">
     <g id="line2d_21">
      <path clip-path="url(#p2a74015dfe)" d="M 56.50625 230.285476 
L 413.62625 230.285476 
" style="fill:none;stroke:#b0b0b0;stroke-linecap:square;stroke-width:0.8;"/>
     </g>
     <g id="line2d_22">
      <g>
       <use style="stroke:#000000;stroke-width:0.8;" x="56.50625" xlink:href="#mb4d2243ffe" y="230.285476"/>
      </g>
     </g>
     <g id="text_12">
      <!-- 0.025 -->
      <g transform="translate(20.878125 234.084694)scale(0.1 -0.1)">
       <use xlink:href="#DejaVuSans-30"/>
       <use x="63.623047" xlink:href="#DejaVuSans-2e"/>
       <use x="95.410156" xlink:href="#DejaVuSans-30"/>
       <use x="159.033203" xlink:href="#DejaVuSans-32"/>
       <use x="222.65625" xlink:href="#DejaVuSans-35"/>
      </g>
     </g>
    </g>
    <g id="ytick_3">
     <g id="line2d_23">
      <path clip-path="url(#p2a74015dfe)" d="M 56.50625 195.854951 
L 413.62625 195.854951 
" style="fill:none;stroke:#b0b0b0;stroke-linecap:square;stroke-width:0.8;"/>
     </g>
     <g id="line2d_24">
      <g>
       <use style="stroke:#000000;stroke-width:0.8;" x="56.50625" xlink:href="#mb4d2243ffe" y="195.854951"/>
      </g>
     </g>
     <g id="text_13">
      <!-- 0.050 -->
      <g transform="translate(20.878125 199.65417)scale(0.1 -0.1)">
       <use xlink:href="#DejaVuSans-30"/>
       <use x="63.623047" xlink:href="#DejaVuSans-2e"/>
       <use x="95.410156" xlink:href="#DejaVuSans-30"/>
       <use x="159.033203" xlink:href="#DejaVuSans-35"/>
       <use x="222.65625" xlink:href="#DejaVuSans-30"/>
      </g>
     </g>
    </g>
    <g id="ytick_4">
     <g id="line2d_25">
      <path clip-path="url(#p2a74015dfe)" d="M 56.50625 161.424427 
L 413.62625 161.424427 
" style="fill:none;stroke:#b0b0b0;stroke-linecap:square;stroke-width:0.8;"/>
     </g>
     <g id="line2d_26">
      <g>
       <use style="stroke:#000000;stroke-width:0.8;" x="56.50625" xlink:href="#mb4d2243ffe" y="161.424427"/>
      </g>
     </g>
     <g id="text_14">
      <!-- 0.075 -->
      <defs>
       <path d="M 8.203125 72.90625 
L 55.078125 72.90625 
L 55.078125 68.703125 
L 28.609375 0 
L 18.3125 0 
L 43.21875 64.59375 
L 8.203125 64.59375 
z
" id="DejaVuSans-37"/>
      </defs>
      <g transform="translate(20.878125 165.223646)scale(0.1 -0.1)">
       <use xlink:href="#DejaVuSans-30"/>
       <use x="63.623047" xlink:href="#DejaVuSans-2e"/>
       <use x="95.410156" xlink:href="#DejaVuSans-30"/>
       <use x="159.033203" xlink:href="#DejaVuSans-37"/>
       <use x="222.65625" xlink:href="#DejaVuSans-35"/>
      </g>
     </g>
    </g>
    <g id="ytick_5">
     <g id="line2d_27">
      <path clip-path="url(#p2a74015dfe)" d="M 56.50625 126.993903 
L 413.62625 126.993903 
" style="fill:none;stroke:#b0b0b0;stroke-linecap:square;stroke-width:0.8;"/>
     </g>
     <g id="line2d_28">
      <g>
       <use style="stroke:#000000;stroke-width:0.8;" x="56.50625" xlink:href="#mb4d2243ffe" y="126.993903"/>
      </g>
     </g>
     <g id="text_15">
      <!-- 0.100 -->
      <g transform="translate(20.878125 130.793122)scale(0.1 -0.1)">
       <use xlink:href="#DejaVuSans-30"/>
       <use x="63.623047" xlink:href="#DejaVuSans-2e"/>
       <use x="95.410156" xlink:href="#DejaVuSans-31"/>
       <use x="159.033203" xlink:href="#DejaVuSans-30"/>
       <use x="222.65625" xlink:href="#DejaVuSans-30"/>
      </g>
     </g>
    </g>
    <g id="ytick_6">
     <g id="line2d_29">
      <path clip-path="url(#p2a74015dfe)" d="M 56.50625 92.563379 
L 413.62625 92.563379 
" style="fill:none;stroke:#b0b0b0;stroke-linecap:square;stroke-width:0.8;"/>
     </g>
     <g id="line2d_30">
      <g>
       <use style="stroke:#000000;stroke-width:0.8;" x="56.50625" xlink:href="#mb4d2243ffe" y="92.563379"/>
      </g>
     </g>
     <g id="text_16">
      <!-- 0.125 -->
      <g transform="translate(20.878125 96.362597)scale(0.1 -0.1)">
       <use xlink:href="#DejaVuSans-30"/>
       <use x="63.623047" xlink:href="#DejaVuSans-2e"/>
       <use x="95.410156" xlink:href="#DejaVuSans-31"/>
       <use x="159.033203" xlink:href="#DejaVuSans-32"/>
       <use x="222.65625" xlink:href="#DejaVuSans-35"/>
      </g>
     </g>
    </g>
    <g id="ytick_7">
     <g id="line2d_31">
      <path clip-path="url(#p2a74015dfe)" d="M 56.50625 58.132854 
L 413.62625 58.132854 
" style="fill:none;stroke:#b0b0b0;stroke-linecap:square;stroke-width:0.8;"/>
     </g>
     <g id="line2d_32">
      <g>
       <use style="stroke:#000000;stroke-width:0.8;" x="56.50625" xlink:href="#mb4d2243ffe" y="58.132854"/>
      </g>
     </g>
     <g id="text_17">
      <!-- 0.150 -->
      <g transform="translate(20.878125 61.932073)scale(0.1 -0.1)">
       <use xlink:href="#DejaVuSans-30"/>
       <use x="63.623047" xlink:href="#DejaVuSans-2e"/>
       <use x="95.410156" xlink:href="#DejaVuSans-31"/>
       <use x="159.033203" xlink:href="#DejaVuSans-35"/>
       <use x="222.65625" xlink:href="#DejaVuSans-30"/>
      </g>
     </g>
    </g>
    <g id="ytick_8">
     <g id="line2d_33">
      <path clip-path="url(#p2a74015dfe)" d="M 56.50625 23.70233 
L 413.62625 23.70233 
" style="fill:none;stroke:#b0b0b0;stroke-linecap:square;stroke-width:0.8;"/>
     </g>
     <g id="line2d_34">
      <g>
       <use style="stroke:#000000;stroke-width:0.8;" x="56.50625" xlink:href="#mb4d2243ffe" y="23.70233"/>
      </g>
     </g>
     <g id="text_18">
      <!-- 0.175 -->
      <g transform="translate(20.878125 27.501549)scale(0.1 -0.1)">
       <use xlink:href="#DejaVuSans-30"/>
       <use x="63.623047" xlink:href="#DejaVuSans-2e"/>
       <use x="95.410156" xlink:href="#DejaVuSans-31"/>
       <use x="159.033203" xlink:href="#DejaVuSans-37"/>
       <use x="222.65625" xlink:href="#DejaVuSans-35"/>
      </g>
     </g>
    </g>
    <g id="text_19">
     <!-- Proportion of words -->
     <defs>
      <path d="M 19.671875 64.796875 
L 19.671875 37.40625 
L 32.078125 37.40625 
Q 38.96875 37.40625 42.71875 40.96875 
Q 46.484375 44.53125 46.484375 51.125 
Q 46.484375 57.671875 42.71875 61.234375 
Q 38.96875 64.796875 32.078125 64.796875 
z
M 9.8125 72.90625 
L 32.078125 72.90625 
Q 44.34375 72.90625 50.609375 67.359375 
Q 56.890625 61.8125 56.890625 51.125 
Q 56.890625 40.328125 50.609375 34.8125 
Q 44.34375 29.296875 32.078125 29.296875 
L 19.671875 29.296875 
L 19.671875 0 
L 9.8125 0 
z
" id="DejaVuSans-50"/>
      <path d="M 18.109375 8.203125 
L 18.109375 -20.796875 
L 9.078125 -20.796875 
L 9.078125 54.6875 
L 18.109375 54.6875 
L 18.109375 46.390625 
Q 20.953125 51.265625 25.265625 53.625 
Q 29.59375 56 35.59375 56 
Q 45.5625 56 51.78125 48.09375 
Q 58.015625 40.1875 58.015625 27.296875 
Q 58.015625 14.40625 51.78125 6.484375 
Q 45.5625 -1.421875 35.59375 -1.421875 
Q 29.59375 -1.421875 25.265625 0.953125 
Q 20.953125 3.328125 18.109375 8.203125 
z
M 48.6875 27.296875 
Q 48.6875 37.203125 44.609375 42.84375 
Q 40.53125 48.484375 33.40625 48.484375 
Q 26.265625 48.484375 22.1875 42.84375 
Q 18.109375 37.203125 18.109375 27.296875 
Q 18.109375 17.390625 22.1875 11.75 
Q 26.265625 6.109375 33.40625 6.109375 
Q 40.53125 6.109375 44.609375 11.75 
Q 48.6875 17.390625 48.6875 27.296875 
z
" id="DejaVuSans-70"/>
      <path d="M 18.3125 70.21875 
L 18.3125 54.6875 
L 36.8125 54.6875 
L 36.8125 47.703125 
L 18.3125 47.703125 
L 18.3125 18.015625 
Q 18.3125 11.328125 20.140625 9.421875 
Q 21.96875 7.515625 27.59375 7.515625 
L 36.8125 7.515625 
L 36.8125 0 
L 27.59375 0 
Q 17.1875 0 13.234375 3.875 
Q 9.28125 7.765625 9.28125 18.015625 
L 9.28125 47.703125 
L 2.6875 47.703125 
L 2.6875 54.6875 
L 9.28125 54.6875 
L 9.28125 70.21875 
z
" id="DejaVuSans-74"/>
      <path d="M 54.890625 33.015625 
L 54.890625 0 
L 45.90625 0 
L 45.90625 32.71875 
Q 45.90625 40.484375 42.875 44.328125 
Q 39.84375 48.1875 33.796875 48.1875 
Q 26.515625 48.1875 22.3125 43.546875 
Q 18.109375 38.921875 18.109375 30.90625 
L 18.109375 0 
L 9.078125 0 
L 9.078125 54.6875 
L 18.109375 54.6875 
L 18.109375 46.1875 
Q 21.34375 51.125 25.703125 53.5625 
Q 30.078125 56 35.796875 56 
Q 45.21875 56 50.046875 50.171875 
Q 54.890625 44.34375 54.890625 33.015625 
z
" id="DejaVuSans-6e"/>
      <path d="M 37.109375 75.984375 
L 37.109375 68.5 
L 28.515625 68.5 
Q 23.6875 68.5 21.796875 66.546875 
Q 19.921875 64.59375 19.921875 59.515625 
L 19.921875 54.6875 
L 34.71875 54.6875 
L 34.71875 47.703125 
L 19.921875 47.703125 
L 19.921875 0 
L 10.890625 0 
L 10.890625 47.703125 
L 2.296875 47.703125 
L 2.296875 54.6875 
L 10.890625 54.6875 
L 10.890625 58.5 
Q 10.890625 67.625 15.140625 71.796875 
Q 19.390625 75.984375 28.609375 75.984375 
z
" id="DejaVuSans-66"/>
      <path d="M 4.203125 54.6875 
L 13.1875 54.6875 
L 24.421875 12.015625 
L 35.59375 54.6875 
L 46.1875 54.6875 
L 57.421875 12.015625 
L 68.609375 54.6875 
L 77.59375 54.6875 
L 63.28125 0 
L 52.6875 0 
L 40.921875 44.828125 
L 29.109375 0 
L 18.5 0 
z
" id="DejaVuSans-77"/>
     </defs>
     <g transform="translate(14.798438 192.729438)rotate(-90)scale(0.1 -0.1)">
      <use xlink:href="#DejaVuSans-50"/>
      <use x="60.287109" xlink:href="#DejaVuSans-72"/>
      <use x="101.369141" xlink:href="#DejaVuSans-6f"/>
      <use x="162.550781" xlink:href="#DejaVuSans-70"/>
      <use x="226.027344" xlink:href="#DejaVuSans-6f"/>
      <use x="287.208984" xlink:href="#DejaVuSans-72"/>
      <use x="328.322266" xlink:href="#DejaVuSans-74"/>
      <use x="367.53125" xlink:href="#DejaVuSans-69"/>
      <use x="395.314453" xlink:href="#DejaVuSans-6f"/>
      <use x="456.496094" xlink:href="#DejaVuSans-6e"/>
      <use x="519.875" xlink:href="#DejaVuSans-20"/>
      <use x="551.662109" xlink:href="#DejaVuSans-6f"/>
      <use x="612.84375" xlink:href="#DejaVuSans-66"/>
      <use x="648.048828" xlink:href="#DejaVuSans-20"/>
      <use x="679.835938" xlink:href="#DejaVuSans-77"/>
      <use x="761.623047" xlink:href="#DejaVuSans-6f"/>
      <use x="822.804688" xlink:href="#DejaVuSans-72"/>
      <use x="863.902344" xlink:href="#DejaVuSans-64"/>
      <use x="927.378906" xlink:href="#DejaVuSans-73"/>
     </g>
    </g>
   </g>
   <g id="line2d_35">
    <path clip-path="url(#p2a74015dfe)" d="M 72.738977 264.666715 
L 81.282518 263.888006 
L 89.826059 261.591307 
L 98.369599 253.685931 
L 106.91314 234.582915 
L 115.456681 196.505026 
L 124.000221 150.65976 
L 132.543762 98.831248 
L 141.087303 64.331477 
L 149.630843 52.305843 
L 158.174384 76.702109 
L 166.717925 114.74057 
L 175.261465 161.817971 
L 183.805006 201.857419 
L 192.348547 229.802233 
L 200.892087 246.963404 
L 209.435628 256.495198 
L 217.979169 261.049167 
L 226.522709 263.188153 
L 235.06625 264.026005 
L 243.609791 264.380859 
L 252.153331 264.617429 
L 260.696872 264.637143 
L 269.240413 264.666715 
L 277.783953 264.686429 
" style="fill:none;stroke:#000000;stroke-linecap:square;"/>
    <defs>
     <path d="M 0 1 
C 0.265203 1 0.51958 0.894634 0.707107 0.707107 
C 0.894634 0.51958 1 0.265203 1 0 
C 1 -0.265203 0.894634 -0.51958 0.707107 -0.707107 
C 0.51958 -0.894634 0.265203 -1 0 -1 
C -0.265203 -1 -0.51958 -0.894634 -0.707107 -0.707107 
C -0.894634 -0.51958 -1 -0.265203 -1 0 
C -1 0.265203 -0.894634 0.51958 -0.707107 0.707107 
C -0.51958 0.894634 -0.265203 1 0 1 
z
" id="me4217f00b5" style="stroke:#000000;"/>
    </defs>
    <g clip-path="url(#p2a74015dfe)">
     <use style="stroke:#000000;" x="72.738977" xlink:href="#me4217f00b5" y="264.666715"/>
     <use style="stroke:#000000;" x="81.282518" xlink:href="#me4217f00b5" y="263.888006"/>
     <use style="stroke:#000000;" x="89.826059" xlink:href="#me4217f00b5" y="261.591307"/>
     <use style="stroke:#000000;" x="98.369599" xlink:href="#me4217f00b5" y="253.685931"/>
     <use style="stroke:#000000;" x="106.91314" xlink:href="#me4217f00b5" y="234.582915"/>
     <use style="stroke:#000000;" x="115.456681" xlink:href="#me4217f00b5" y="196.505026"/>
     <use style="stroke:#000000;" x="124.000221" xlink:href="#me4217f00b5" y="150.65976"/>
     <use style="stroke:#000000;" x="132.543762" xlink:href="#me4217f00b5" y="98.831248"/>
     <use style="stroke:#000000;" x="141.087303" xlink:href="#me4217f00b5" y="64.331477"/>
     <use style="stroke:#000000;" x="149.630843" xlink:href="#me4217f00b5" y="52.305843"/>
     <use style="stroke:#000000;" x="158.174384" xlink:href="#me4217f00b5" y="76.702109"/>
     <use style="stroke:#000000;" x="166.717925" xlink:href="#me4217f00b5" y="114.74057"/>
     <use style="stroke:#000000;" x="175.261465" xlink:href="#me4217f00b5" y="161.817971"/>
     <use style="stroke:#000000;" x="183.805006" xlink:href="#me4217f00b5" y="201.857419"/>
     <use style="stroke:#000000;" x="192.348547" xlink:href="#me4217f00b5" y="229.802233"/>
     <use style="stroke:#000000;" x="200.892087" xlink:href="#me4217f00b5" y="246.963404"/>
     <use style="stroke:#000000;" x="209.435628" xlink:href="#me4217f00b5" y="256.495198"/>
     <use style="stroke:#000000;" x="217.979169" xlink:href="#me4217f00b5" y="261.049167"/>
     <use style="stroke:#000000;" x="226.522709" xlink:href="#me4217f00b5" y="263.188153"/>
     <use style="stroke:#000000;" x="235.06625" xlink:href="#me4217f00b5" y="264.026005"/>
     <use style="stroke:#000000;" x="243.609791" xlink:href="#me4217f00b5" y="264.380859"/>
     <use style="stroke:#000000;" x="252.153331" xlink:href="#me4217f00b5" y="264.617429"/>
     <use style="stroke:#000000;" x="260.696872" xlink:href="#me4217f00b5" y="264.637143"/>
     <use style="stroke:#000000;" x="269.240413" xlink:href="#me4217f00b5" y="264.666715"/>
     <use style="stroke:#000000;" x="277.783953" xlink:href="#me4217f00b5" y="264.686429"/>
    </g>
   </g>
   <g id="line2d_36">
    <path clip-path="url(#p2a74015dfe)" d="M 72.738977 263.993859 
L 81.282518 262.188505 
L 89.826059 252.981201 
L 98.369599 218.248975 
L 106.91314 170.448765 
L 115.456681 108.094628 
L 124.000221 59.363967 
L 132.543762 47.0459 
L 141.087303 66.654818 
L 149.630843 104.372822 
L 158.174384 147.85407 
L 166.717925 188.224555 
L 175.261465 219.776582 
L 183.805006 241.399163 
L 192.348547 252.314609 
L 200.892087 259.411038 
L 209.435628 262.271829 
L 217.979169 263.716112 
L 226.522709 264.285493 
L 235.06625 264.577127 
L 243.609791 264.674338 
L 252.153331 264.646563 
L 260.696872 264.702113 
" style="fill:none;stroke:#0000ff;stroke-linecap:square;"/>
    <defs>
     <path d="M -0 1 
L 1 -1 
L -1 -1 
z
" id="mf5200cf05d" style="stroke:#0000ff;stroke-linejoin:miter;"/>
    </defs>
    <g clip-path="url(#p2a74015dfe)">
     <use style="fill:#0000ff;stroke:#0000ff;stroke-linejoin:miter;" x="72.738977" xlink:href="#mf5200cf05d" y="263.993859"/>
     <use style="fill:#0000ff;stroke:#0000ff;stroke-linejoin:miter;" x="81.282518" xlink:href="#mf5200cf05d" y="262.188505"/>
     <use style="fill:#0000ff;stroke:#0000ff;stroke-linejoin:miter;" x="89.826059" xlink:href="#mf5200cf05d" y="252.981201"/>
     <use style="fill:#0000ff;stroke:#0000ff;stroke-linejoin:miter;" x="98.369599" xlink:href="#mf5200cf05d" y="218.248975"/>
     <use style="fill:#0000ff;stroke:#0000ff;stroke-linejoin:miter;" x="106.91314" xlink:href="#mf5200cf05d" y="170.448765"/>
     <use style="fill:#0000ff;stroke:#0000ff;stroke-linejoin:miter;" x="115.456681" xlink:href="#mf5200cf05d" y="108.094628"/>
     <use style="fill:#0000ff;stroke:#0000ff;stroke-linejoin:miter;" x="124.000221" xlink:href="#mf5200cf05d" y="59.363967"/>
     <use style="fill:#0000ff;stroke:#0000ff;stroke-linejoin:miter;" x="132.543762" xlink:href="#mf5200cf05d" y="47.0459"/>
     <use style="fill:#0000ff;stroke:#0000ff;stroke-linejoin:miter;" x="141.087303" xlink:href="#mf5200cf05d" y="66.654818"/>
     <use style="fill:#0000ff;stroke:#0000ff;stroke-linejoin:miter;" x="149.630843" xlink:href="#mf5200cf05d" y="104.372822"/>
     <use style="fill:#0000ff;stroke:#0000ff;stroke-linejoin:miter;" x="158.174384" xlink:href="#mf5200cf05d" y="147.85407"/>
     <use style="fill:#0000ff;stroke:#0000ff;stroke-linejoin:miter;" x="166.717925" xlink:href="#mf5200cf05d" y="188.224555"/>
     <use style="fill:#0000ff;stroke:#0000ff;stroke-linejoin:miter;" x="175.261465" xlink:href="#mf5200cf05d" y="219.776582"/>
     <use style="fill:#0000ff;stroke:#0000ff;stroke-linejoin:miter;" x="183.805006" xlink:href="#mf5200cf05d" y="241.399163"/>
     <use style="fill:#0000ff;stroke:#0000ff;stroke-linejoin:miter;" x="192.348547" xlink:href="#mf5200cf05d" y="252.314609"/>
     <use style="fill:#0000ff;stroke:#0000ff;stroke-linejoin:miter;" x="200.892087" xlink:href="#mf5200cf05d" y="259.411038"/>
     <use style="fill:#0000ff;stroke:#0000ff;stroke-linejoin:miter;" x="209.435628" xlink:href="#mf5200cf05d" y="262.271829"/>
     <use style="fill:#0000ff;stroke:#0000ff;stroke-linejoin:miter;" x="217.979169" xlink:href="#mf5200cf05d" y="263.716112"/>
     <use style="fill:#0000ff;stroke:#0000ff;stroke-linejoin:miter;" x="226.522709" xlink:href="#mf5200cf05d" y="264.285493"/>
     <use style="fill:#0000ff;stroke:#0000ff;stroke-linejoin:miter;" x="235.06625" xlink:href="#mf5200cf05d" y="264.577127"/>
     <use style="fill:#0000ff;stroke:#0000ff;stroke-linejoin:miter;" x="243.609791" xlink:href="#mf5200cf05d" y="264.674338"/>
     <use style="fill:#0000ff;stroke:#0000ff;stroke-linejoin:miter;" x="252.153331" xlink:href="#mf5200cf05d" y="264.646563"/>
     <use style="fill:#0000ff;stroke:#0000ff;stroke-linejoin:miter;" x="260.696872" xlink:href="#mf5200cf05d" y="264.702113"/>
    </g>
   </g>
   <g id="line2d_37">
    <path clip-path="url(#p2a74015dfe)" d="M 72.738977 263.993749 
L 81.282518 262.202012 
L 89.826059 252.993316 
L 98.369599 218.283614 
L 106.91314 170.531731 
L 115.456681 107.973709 
L 124.000221 59.471796 
L 132.543762 47.499102 
L 141.087303 66.847087 
L 149.630843 104.362455 
L 158.174384 147.391929 
L 166.717925 188.240762 
L 175.261465 219.686447 
L 183.805006 241.312299 
L 192.348547 252.215507 
L 200.892087 259.438014 
L 209.435628 262.215901 
L 217.979169 263.715961 
L 226.522709 264.271538 
L 235.06625 264.577106 
L 243.609791 264.674332 
L 252.153331 264.646553 
L 260.696872 264.702111 
" style="fill:none;stroke:#008000;stroke-linecap:square;"/>
    <defs>
     <path d="M 0 -1 
L -1 1 
L 1 1 
z
" id="m7833a0460f" style="stroke:#008000;stroke-linejoin:miter;"/>
    </defs>
    <g clip-path="url(#p2a74015dfe)">
     <use style="fill:#008000;stroke:#008000;stroke-linejoin:miter;" x="72.738977" xlink:href="#m7833a0460f" y="263.993749"/>
     <use style="fill:#008000;stroke:#008000;stroke-linejoin:miter;" x="81.282518" xlink:href="#m7833a0460f" y="262.202012"/>
     <use style="fill:#008000;stroke:#008000;stroke-linejoin:miter;" x="89.826059" xlink:href="#m7833a0460f" y="252.993316"/>
     <use style="fill:#008000;stroke:#008000;stroke-linejoin:miter;" x="98.369599" xlink:href="#m7833a0460f" y="218.283614"/>
     <use style="fill:#008000;stroke:#008000;stroke-linejoin:miter;" x="106.91314" xlink:href="#m7833a0460f" y="170.531731"/>
     <use style="fill:#008000;stroke:#008000;stroke-linejoin:miter;" x="115.456681" xlink:href="#m7833a0460f" y="107.973709"/>
     <use style="fill:#008000;stroke:#008000;stroke-linejoin:miter;" x="124.000221" xlink:href="#m7833a0460f" y="59.471796"/>
     <use style="fill:#008000;stroke:#008000;stroke-linejoin:miter;" x="132.543762" xlink:href="#m7833a0460f" y="47.499102"/>
     <use style="fill:#008000;stroke:#008000;stroke-linejoin:miter;" x="141.087303" xlink:href="#m7833a0460f" y="66.847087"/>
     <use style="fill:#008000;stroke:#008000;stroke-linejoin:miter;" x="149.630843" xlink:href="#m7833a0460f" y="104.362455"/>
     <use style="fill:#008000;stroke:#008000;stroke-linejoin:miter;" x="158.174384" xlink:href="#m7833a0460f" y="147.391929"/>
     <use style="fill:#008000;stroke:#008000;stroke-linejoin:miter;" x="166.717925" xlink:href="#m7833a0460f" y="188.240762"/>
     <use style="fill:#008000;stroke:#008000;stroke-linejoin:miter;" x="175.261465" xlink:href="#m7833a0460f" y="219.686447"/>
     <use style="fill:#008000;stroke:#008000;stroke-linejoin:miter;" x="183.805006" xlink:href="#m7833a0460f" y="241.312299"/>
     <use style="fill:#008000;stroke:#008000;stroke-linejoin:miter;" x="192.348547" xlink:href="#m7833a0460f" y="252.215507"/>
     <use style="fill:#008000;stroke:#008000;stroke-linejoin:miter;" x="200.892087" xlink:href="#m7833a0460f" y="259.438014"/>
     <use style="fill:#008000;stroke:#008000;stroke-linejoin:miter;" x="209.435628" xlink:href="#m7833a0460f" y="262.215901"/>
     <use style="fill:#008000;stroke:#008000;stroke-linejoin:miter;" x="217.979169" xlink:href="#m7833a0460f" y="263.715961"/>
     <use style="fill:#008000;stroke:#008000;stroke-linejoin:miter;" x="226.522709" xlink:href="#m7833a0460f" y="264.271538"/>
     <use style="fill:#008000;stroke:#008000;stroke-linejoin:miter;" x="235.06625" xlink:href="#m7833a0460f" y="264.577106"/>
     <use style="fill:#008000;stroke:#008000;stroke-linejoin:miter;" x="243.609791" xlink:href="#m7833a0460f" y="264.674332"/>
     <use style="fill:#008000;stroke:#008000;stroke-linejoin:miter;" x="252.153331" xlink:href="#m7833a0460f" y="264.646553"/>
     <use style="fill:#008000;stroke:#008000;stroke-linejoin:miter;" x="260.696872" xlink:href="#m7833a0460f" y="264.702111"/>
    </g>
   </g>
   <g id="line2d_38">
    <path clip-path="url(#p2a74015dfe)" d="M 72.738977 264.716 
L 81.282518 264.185293 
L 89.826059 262.569584 
L 98.369599 252.863536 
L 106.91314 228.073605 
L 115.456681 197.575623 
L 124.000221 138.00667 
L 132.543762 83.414574 
L 141.087303 39.342276 
L 149.630843 22.796 
L 158.174384 76.14978 
L 166.717925 132.463727 
L 175.261465 183.128589 
L 183.805006 223.226478 
L 192.348547 240.975691 
L 200.892087 256.153921 
L 209.435628 260.718005 
L 217.979169 262.840834 
L 226.522709 263.866868 
L 235.06625 264.24426 
L 243.609791 264.598065 
L 252.153331 264.692413 
L 260.696872 264.657033 
L 269.240413 264.704207 
" style="fill:none;stroke:#ff0000;stroke-linecap:square;"/>
    <defs>
     <path d="M 0 -1 
L -1 1 
L 1 1 
z
" id="mc92743de5d" style="stroke:#ff0000;stroke-linejoin:miter;"/>
    </defs>
    <g clip-path="url(#p2a74015dfe)">
     <use style="fill:#ff0000;stroke:#ff0000;stroke-linejoin:miter;" x="72.738977" xlink:href="#mc92743de5d" y="264.716"/>
     <use style="fill:#ff0000;stroke:#ff0000;stroke-linejoin:miter;" x="81.282518" xlink:href="#mc92743de5d" y="264.185293"/>
     <use style="fill:#ff0000;stroke:#ff0000;stroke-linejoin:miter;" x="89.826059" xlink:href="#mc92743de5d" y="262.569584"/>
     <use style="fill:#ff0000;stroke:#ff0000;stroke-linejoin:miter;" x="98.369599" xlink:href="#mc92743de5d" y="252.863536"/>
     <use style="fill:#ff0000;stroke:#ff0000;stroke-linejoin:miter;" x="106.91314" xlink:href="#mc92743de5d" y="228.073605"/>
     <use style="fill:#ff0000;stroke:#ff0000;stroke-linejoin:miter;" x="115.456681" xlink:href="#mc92743de5d" y="197.575623"/>
     <use style="fill:#ff0000;stroke:#ff0000;stroke-linejoin:miter;" x="124.000221" xlink:href="#mc92743de5d" y="138.00667"/>
     <use style="fill:#ff0000;stroke:#ff0000;stroke-linejoin:miter;" x="132.543762" xlink:href="#mc92743de5d" y="83.414574"/>
     <use style="fill:#ff0000;stroke:#ff0000;stroke-linejoin:miter;" x="141.087303" xlink:href="#mc92743de5d" y="39.342276"/>
     <use style="fill:#ff0000;stroke:#ff0000;stroke-linejoin:miter;" x="149.630843" xlink:href="#mc92743de5d" y="22.796"/>
     <use style="fill:#ff0000;stroke:#ff0000;stroke-linejoin:miter;" x="158.174384" xlink:href="#mc92743de5d" y="76.14978"/>
     <use style="fill:#ff0000;stroke:#ff0000;stroke-linejoin:miter;" x="166.717925" xlink:href="#mc92743de5d" y="132.463727"/>
     <use style="fill:#ff0000;stroke:#ff0000;stroke-linejoin:miter;" x="175.261465" xlink:href="#mc92743de5d" y="183.128589"/>
     <use style="fill:#ff0000;stroke:#ff0000;stroke-linejoin:miter;" x="183.805006" xlink:href="#mc92743de5d" y="223.226478"/>
     <use style="fill:#ff0000;stroke:#ff0000;stroke-linejoin:miter;" x="192.348547" xlink:href="#mc92743de5d" y="240.975691"/>
     <use style="fill:#ff0000;stroke:#ff0000;stroke-linejoin:miter;" x="200.892087" xlink:href="#mc92743de5d" y="256.153921"/>
     <use style="fill:#ff0000;stroke:#ff0000;stroke-linejoin:miter;" x="209.435628" xlink:href="#mc92743de5d" y="260.718005"/>
     <use style="fill:#ff0000;stroke:#ff0000;stroke-linejoin:miter;" x="217.979169" xlink:href="#mc92743de5d" y="262.840834"/>
     <use style="fill:#ff0000;stroke:#ff0000;stroke-linejoin:miter;" x="226.522709" xlink:href="#mc92743de5d" y="263.866868"/>
     <use style="fill:#ff0000;stroke:#ff0000;stroke-linejoin:miter;" x="235.06625" xlink:href="#mc92743de5d" y="264.24426"/>
     <use style="fill:#ff0000;stroke:#ff0000;stroke-linejoin:miter;" x="243.609791" xlink:href="#mc92743de5d" y="264.598065"/>
     <use style="fill:#ff0000;stroke:#ff0000;stroke-linejoin:miter;" x="252.153331" xlink:href="#mc92743de5d" y="264.692413"/>
     <use style="fill:#ff0000;stroke:#ff0000;stroke-linejoin:miter;" x="260.696872" xlink:href="#mc92743de5d" y="264.657033"/>
     <use style="fill:#ff0000;stroke:#ff0000;stroke-linejoin:miter;" x="269.240413" xlink:href="#mc92743de5d" y="264.704207"/>
    </g>
   </g>
   <g id="line2d_39">
    <path clip-path="url(#p2a74015dfe)" d="M 72.738977 264.665709 
L 81.282518 264.294331 
L 89.826059 262.626998 
L 98.369599 258.383229 
L 106.91314 249.11425 
L 115.456681 233.640161 
L 124.000221 213.674719 
L 132.543762 186.618275 
L 141.087303 152.033686 
L 149.630843 123.905662 
L 158.174384 103.503076 
L 166.717925 97.591974 
L 175.261465 114.114432 
L 183.805006 139.530623 
L 192.348547 166.478748 
L 200.892087 190.216 
L 209.435628 210.60698 
L 217.979169 226.773535 
L 226.522709 239.098646 
L 235.06625 248.046538 
L 243.609791 253.915086 
L 252.153331 258.085353 
L 260.696872 260.429677 
L 269.240413 261.99256 
L 277.783953 263.331069 
L 286.327494 263.861057 
L 294.871035 264.205355 
L 303.414575 264.495494 
L 311.958116 264.553522 
L 320.501657 264.619287 
L 329.045197 264.669578 
L 337.588738 264.677315 
L 346.132279 264.692789 
L 354.675819 264.68892 
L 363.21936 264.712131 
L 371.762901 264.716 
L 380.306441 264.716 
L 388.849982 264.712131 
L 397.393523 264.712131 
" style="fill:none;stroke:#a52a2a;stroke-linecap:square;"/>
    <defs>
     <path d="M 1 0 
L -1 -1 
L -1 1 
z
" id="m2f27984314" style="stroke:#a52a2a;stroke-linejoin:miter;"/>
    </defs>
    <g clip-path="url(#p2a74015dfe)">
     <use style="fill:#a52a2a;stroke:#a52a2a;stroke-linejoin:miter;" x="72.738977" xlink:href="#m2f27984314" y="264.665709"/>
     <use style="fill:#a52a2a;stroke:#a52a2a;stroke-linejoin:miter;" x="81.282518" xlink:href="#m2f27984314" y="264.294331"/>
     <use style="fill:#a52a2a;stroke:#a52a2a;stroke-linejoin:miter;" x="89.826059" xlink:href="#m2f27984314" y="262.626998"/>
     <use style="fill:#a52a2a;stroke:#a52a2a;stroke-linejoin:miter;" x="98.369599" xlink:href="#m2f27984314" y="258.383229"/>
     <use style="fill:#a52a2a;stroke:#a52a2a;stroke-linejoin:miter;" x="106.91314" xlink:href="#m2f27984314" y="249.11425"/>
     <use style="fill:#a52a2a;stroke:#a52a2a;stroke-linejoin:miter;" x="115.456681" xlink:href="#m2f27984314" y="233.640161"/>
     <use style="fill:#a52a2a;stroke:#a52a2a;stroke-linejoin:miter;" x="124.000221" xlink:href="#m2f27984314" y="213.674719"/>
     <use style="fill:#a52a2a;stroke:#a52a2a;stroke-linejoin:miter;" x="132.543762" xlink:href="#m2f27984314" y="186.618275"/>
     <use style="fill:#a52a2a;stroke:#a52a2a;stroke-linejoin:miter;" x="141.087303" xlink:href="#m2f27984314" y="152.033686"/>
     <use style="fill:#a52a2a;stroke:#a52a2a;stroke-linejoin:miter;" x="149.630843" xlink:href="#m2f27984314" y="123.905662"/>
     <use style="fill:#a52a2a;stroke:#a52a2a;stroke-linejoin:miter;" x="158.174384" xlink:href="#m2f27984314" y="103.503076"/>
     <use style="fill:#a52a2a;stroke:#a52a2a;stroke-linejoin:miter;" x="166.717925" xlink:href="#m2f27984314" y="97.591974"/>
     <use style="fill:#a52a2a;stroke:#a52a2a;stroke-linejoin:miter;" x="175.261465" xlink:href="#m2f27984314" y="114.114432"/>
     <use style="fill:#a52a2a;stroke:#a52a2a;stroke-linejoin:miter;" x="183.805006" xlink:href="#m2f27984314" y="139.530623"/>
     <use style="fill:#a52a2a;stroke:#a52a2a;stroke-linejoin:miter;" x="192.348547" xlink:href="#m2f27984314" y="166.478748"/>
     <use style="fill:#a52a2a;stroke:#a52a2a;stroke-linejoin:miter;" x="200.892087" xlink:href="#m2f27984314" y="190.216"/>
     <use style="fill:#a52a2a;stroke:#a52a2a;stroke-linejoin:miter;" x="209.435628" xlink:href="#m2f27984314" y="210.60698"/>
     <use style="fill:#a52a2a;stroke:#a52a2a;stroke-linejoin:miter;" x="217.979169" xlink:href="#m2f27984314" y="226.773535"/>
     <use style="fill:#a52a2a;stroke:#a52a2a;stroke-linejoin:miter;" x="226.522709" xlink:href="#m2f27984314" y="239.098646"/>
     <use style="fill:#a52a2a;stroke:#a52a2a;stroke-linejoin:miter;" x="235.06625" xlink:href="#m2f27984314" y="248.046538"/>
     <use style="fill:#a52a2a;stroke:#a52a2a;stroke-linejoin:miter;" x="243.609791" xlink:href="#m2f27984314" y="253.915086"/>
     <use style="fill:#a52a2a;stroke:#a52a2a;stroke-linejoin:miter;" x="252.153331" xlink:href="#m2f27984314" y="258.085353"/>
     <use style="fill:#a52a2a;stroke:#a52a2a;stroke-linejoin:miter;" x="260.696872" xlink:href="#m2f27984314" y="260.429677"/>
     <use style="fill:#a52a2a;stroke:#a52a2a;stroke-linejoin:miter;" x="269.240413" xlink:href="#m2f27984314" y="261.99256"/>
     <use style="fill:#a52a2a;stroke:#a52a2a;stroke-linejoin:miter;" x="277.783953" xlink:href="#m2f27984314" y="263.331069"/>
     <use style="fill:#a52a2a;stroke:#a52a2a;stroke-linejoin:miter;" x="286.327494" xlink:href="#m2f27984314" y="263.861057"/>
     <use style="fill:#a52a2a;stroke:#a52a2a;stroke-linejoin:miter;" x="294.871035" xlink:href="#m2f27984314" y="264.205355"/>
     <use style="fill:#a52a2a;stroke:#a52a2a;stroke-linejoin:miter;" x="303.414575" xlink:href="#m2f27984314" y="264.495494"/>
     <use style="fill:#a52a2a;stroke:#a52a2a;stroke-linejoin:miter;" x="311.958116" xlink:href="#m2f27984314" y="264.553522"/>
     <use style="fill:#a52a2a;stroke:#a52a2a;stroke-linejoin:miter;" x="320.501657" xlink:href="#m2f27984314" y="264.619287"/>
     <use style="fill:#a52a2a;stroke:#a52a2a;stroke-linejoin:miter;" x="329.045197" xlink:href="#m2f27984314" y="264.669578"/>
     <use style="fill:#a52a2a;stroke:#a52a2a;stroke-linejoin:miter;" x="337.588738" xlink:href="#m2f27984314" y="264.677315"/>
     <use style="fill:#a52a2a;stroke:#a52a2a;stroke-linejoin:miter;" x="346.132279" xlink:href="#m2f27984314" y="264.692789"/>
     <use style="fill:#a52a2a;stroke:#a52a2a;stroke-linejoin:miter;" x="354.675819" xlink:href="#m2f27984314" y="264.68892"/>
     <use style="fill:#a52a2a;stroke:#a52a2a;stroke-linejoin:miter;" x="363.21936" xlink:href="#m2f27984314" y="264.712131"/>
     <use style="fill:#a52a2a;stroke:#a52a2a;stroke-linejoin:miter;" x="371.762901" xlink:href="#m2f27984314" y="264.716"/>
     <use style="fill:#a52a2a;stroke:#a52a2a;stroke-linejoin:miter;" x="380.306441" xlink:href="#m2f27984314" y="264.716"/>
     <use style="fill:#a52a2a;stroke:#a52a2a;stroke-linejoin:miter;" x="388.849982" xlink:href="#m2f27984314" y="264.712131"/>
     <use style="fill:#a52a2a;stroke:#a52a2a;stroke-linejoin:miter;" x="397.393523" xlink:href="#m2f27984314" y="264.712131"/>
    </g>
   </g>
   <g id="line2d_40">
    <path clip-path="url(#p2a74015dfe)" d="M 72.738977 264.635944 
L 81.282518 263.451114 
L 89.826059 259.640444 
L 98.369599 240.13878 
L 106.91314 198.061297 
L 115.456681 144.199558 
L 124.000221 71.892896 
L 132.543762 43.264837 
L 141.087303 38.013157 
L 149.630843 77.86508 
L 158.174384 130.638056 
L 166.717925 178.78379 
L 175.261465 212.439372 
L 183.805006 235.895807 
L 192.348547 248.640737 
L 200.892087 256.550279 
L 209.435628 261.30561 
L 217.979169 263.210945 
L 226.522709 264.05954 
L 235.06625 264.523865 
L 243.609791 264.619933 
L 252.153331 264.699989 
" style="fill:none;stroke:#ff00ff;stroke-linecap:square;"/>
    <defs>
     <path d="M 0 0 
L 0 1 
M 0 0 
L 0.8 -0.5 
M 0 0 
L -0.8 -0.5 
" id="m166bc4b455" style="stroke:#ff00ff;"/>
    </defs>
    <g clip-path="url(#p2a74015dfe)">
     <use style="fill:#ff00ff;stroke:#ff00ff;" x="72.738977" xlink:href="#m166bc4b455" y="264.635944"/>
     <use style="fill:#ff00ff;stroke:#ff00ff;" x="81.282518" xlink:href="#m166bc4b455" y="263.451114"/>
     <use style="fill:#ff00ff;stroke:#ff00ff;" x="89.826059" xlink:href="#m166bc4b455" y="259.640444"/>
     <use style="fill:#ff00ff;stroke:#ff00ff;" x="98.369599" xlink:href="#m166bc4b455" y="240.13878"/>
     <use style="fill:#ff00ff;stroke:#ff00ff;" x="106.91314" xlink:href="#m166bc4b455" y="198.061297"/>
     <use style="fill:#ff00ff;stroke:#ff00ff;" x="115.456681" xlink:href="#m166bc4b455" y="144.199558"/>
     <use style="fill:#ff00ff;stroke:#ff00ff;" x="124.000221" xlink:href="#m166bc4b455" y="71.892896"/>
     <use style="fill:#ff00ff;stroke:#ff00ff;" x="132.543762" xlink:href="#m166bc4b455" y="43.264837"/>
     <use style="fill:#ff00ff;stroke:#ff00ff;" x="141.087303" xlink:href="#m166bc4b455" y="38.013157"/>
     <use style="fill:#ff00ff;stroke:#ff00ff;" x="149.630843" xlink:href="#m166bc4b455" y="77.86508"/>
     <use style="fill:#ff00ff;stroke:#ff00ff;" x="158.174384" xlink:href="#m166bc4b455" y="130.638056"/>
     <use style="fill:#ff00ff;stroke:#ff00ff;" x="166.717925" xlink:href="#m166bc4b455" y="178.78379"/>
     <use style="fill:#ff00ff;stroke:#ff00ff;" x="175.261465" xlink:href="#m166bc4b455" y="212.439372"/>
     <use style="fill:#ff00ff;stroke:#ff00ff;" x="183.805006" xlink:href="#m166bc4b455" y="235.895807"/>
     <use style="fill:#ff00ff;stroke:#ff00ff;" x="192.348547" xlink:href="#m166bc4b455" y="248.640737"/>
     <use style="fill:#ff00ff;stroke:#ff00ff;" x="200.892087" xlink:href="#m166bc4b455" y="256.550279"/>
     <use style="fill:#ff00ff;stroke:#ff00ff;" x="209.435628" xlink:href="#m166bc4b455" y="261.30561"/>
     <use style="fill:#ff00ff;stroke:#ff00ff;" x="217.979169" xlink:href="#m166bc4b455" y="263.210945"/>
     <use style="fill:#ff00ff;stroke:#ff00ff;" x="226.522709" xlink:href="#m166bc4b455" y="264.05954"/>
     <use style="fill:#ff00ff;stroke:#ff00ff;" x="235.06625" xlink:href="#m166bc4b455" y="264.523865"/>
     <use style="fill:#ff00ff;stroke:#ff00ff;" x="243.609791" xlink:href="#m166bc4b455" y="264.619933"/>
     <use style="fill:#ff00ff;stroke:#ff00ff;" x="252.153331" xlink:href="#m166bc4b455" y="264.699989"/>
    </g>
   </g>
   <g id="patch_3">
    <path d="M 56.50625 276.812 
L 56.50625 10.7 
" style="fill:none;stroke:#000000;stroke-linecap:square;stroke-linejoin:miter;stroke-width:0.8;"/>
   </g>
   <g id="patch_4">
    <path d="M 413.62625 276.812 
L 413.62625 10.7 
" style="fill:none;stroke:#000000;stroke-linecap:square;stroke-linejoin:miter;stroke-width:0.8;"/>
   </g>
   <g id="patch_5">
    <path d="M 56.50625 276.812 
L 413.62625 276.812 
" style="fill:none;stroke:#000000;stroke-linecap:square;stroke-linejoin:miter;stroke-width:0.8;"/>
   </g>
   <g id="patch_6">
    <path d="M 56.50625 10.7 
L 413.62625 10.7 
" style="fill:none;stroke:#000000;stroke-linecap:square;stroke-linejoin:miter;stroke-width:0.8;"/>
   </g>
   <g id="legend_1">
    <g id="patch_7">
     <path d="M 286.20125 218.5896 
L 408.62625 218.5896 
L 408.62625 127.52085 
L 286.20125 127.52085 
z
" style="fill:#ffffff;opacity:0.8;stroke:#cccccc;stroke-linejoin:miter;"/>
    </g>
    <g id="line2d_41">
     <path d="M 290.20125 135.619287 
L 310.20125 135.619287 
" style="fill:none;stroke:#000000;stroke-linecap:square;"/>
    </g>
    <g id="line2d_42">
     <g>
      <use style="stroke:#000000;" x="300.20125" xlink:href="#me4217f00b5" y="135.619287"/>
     </g>
    </g>
    <g id="text_20">
     <!-- french -->
     <defs>
      <path d="M 48.78125 52.59375 
L 48.78125 44.1875 
Q 44.96875 46.296875 41.140625 47.34375 
Q 37.3125 48.390625 33.40625 48.390625 
Q 24.65625 48.390625 19.8125 42.84375 
Q 14.984375 37.3125 14.984375 27.296875 
Q 14.984375 17.28125 19.8125 11.734375 
Q 24.65625 6.203125 33.40625 6.203125 
Q 37.3125 6.203125 41.140625 7.25 
Q 44.96875 8.296875 48.78125 10.40625 
L 48.78125 2.09375 
Q 45.015625 0.34375 40.984375 -0.53125 
Q 36.96875 -1.421875 32.421875 -1.421875 
Q 20.0625 -1.421875 12.78125 6.34375 
Q 5.515625 14.109375 5.515625 27.296875 
Q 5.515625 40.671875 12.859375 48.328125 
Q 20.21875 56 33.015625 56 
Q 37.15625 56 41.109375 55.140625 
Q 45.0625 54.296875 48.78125 52.59375 
z
" id="DejaVuSans-63"/>
      <path d="M 54.890625 33.015625 
L 54.890625 0 
L 45.90625 0 
L 45.90625 32.71875 
Q 45.90625 40.484375 42.875 44.328125 
Q 39.84375 48.1875 33.796875 48.1875 
Q 26.515625 48.1875 22.3125 43.546875 
Q 18.109375 38.921875 18.109375 30.90625 
L 18.109375 0 
L 9.078125 0 
L 9.078125 75.984375 
L 18.109375 75.984375 
L 18.109375 46.1875 
Q 21.34375 51.125 25.703125 53.5625 
Q 30.078125 56 35.796875 56 
Q 45.21875 56 50.046875 50.171875 
Q 54.890625 44.34375 54.890625 33.015625 
z
" id="DejaVuSans-68"/>
     </defs>
     <g transform="translate(318.20125 139.119287)scale(0.1 -0.1)">
      <use xlink:href="#DejaVuSans-66"/>
      <use x="35.205078" xlink:href="#DejaVuSans-72"/>
      <use x="76.287109" xlink:href="#DejaVuSans-65"/>
      <use x="137.810547" xlink:href="#DejaVuSans-6e"/>
      <use x="201.189453" xlink:href="#DejaVuSans-63"/>
      <use x="256.169922" xlink:href="#DejaVuSans-68"/>
     </g>
    </g>
    <g id="line2d_43">
     <path d="M 290.20125 150.297412 
L 310.20125 150.297412 
" style="fill:none;stroke:#0000ff;stroke-linecap:square;"/>
    </g>
    <g id="line2d_44">
     <g>
      <use style="fill:#0000ff;stroke:#0000ff;stroke-linejoin:miter;" x="300.20125" xlink:href="#mf5200cf05d" y="150.297412"/>
     </g>
    </g>
    <g id="text_21">
     <!-- american-english -->
     <defs>
      <path d="M 34.28125 27.484375 
Q 23.390625 27.484375 19.1875 25 
Q 14.984375 22.515625 14.984375 16.5 
Q 14.984375 11.71875 18.140625 8.90625 
Q 21.296875 6.109375 26.703125 6.109375 
Q 34.1875 6.109375 38.703125 11.40625 
Q 43.21875 16.703125 43.21875 25.484375 
L 43.21875 27.484375 
z
M 52.203125 31.203125 
L 52.203125 0 
L 43.21875 0 
L 43.21875 8.296875 
Q 40.140625 3.328125 35.546875 0.953125 
Q 30.953125 -1.421875 24.3125 -1.421875 
Q 15.921875 -1.421875 10.953125 3.296875 
Q 6 8.015625 6 15.921875 
Q 6 25.140625 12.171875 29.828125 
Q 18.359375 34.515625 30.609375 34.515625 
L 43.21875 34.515625 
L 43.21875 35.40625 
Q 43.21875 41.609375 39.140625 45 
Q 35.0625 48.390625 27.6875 48.390625 
Q 23 48.390625 18.546875 47.265625 
Q 14.109375 46.140625 10.015625 43.890625 
L 10.015625 52.203125 
Q 14.9375 54.109375 19.578125 55.046875 
Q 24.21875 56 28.609375 56 
Q 40.484375 56 46.34375 49.84375 
Q 52.203125 43.703125 52.203125 31.203125 
z
" id="DejaVuSans-61"/>
      <path d="M 52 44.1875 
Q 55.375 50.25 60.0625 53.125 
Q 64.75 56 71.09375 56 
Q 79.640625 56 84.28125 50.015625 
Q 88.921875 44.046875 88.921875 33.015625 
L 88.921875 0 
L 79.890625 0 
L 79.890625 32.71875 
Q 79.890625 40.578125 77.09375 44.375 
Q 74.3125 48.1875 68.609375 48.1875 
Q 61.625 48.1875 57.5625 43.546875 
Q 53.515625 38.921875 53.515625 30.90625 
L 53.515625 0 
L 44.484375 0 
L 44.484375 32.71875 
Q 44.484375 40.625 41.703125 44.40625 
Q 38.921875 48.1875 33.109375 48.1875 
Q 26.21875 48.1875 22.15625 43.53125 
Q 18.109375 38.875 18.109375 30.90625 
L 18.109375 0 
L 9.078125 0 
L 9.078125 54.6875 
L 18.109375 54.6875 
L 18.109375 46.1875 
Q 21.1875 51.21875 25.484375 53.609375 
Q 29.78125 56 35.6875 56 
Q 41.65625 56 45.828125 52.96875 
Q 50 49.953125 52 44.1875 
z
" id="DejaVuSans-6d"/>
      <path d="M 4.890625 31.390625 
L 31.203125 31.390625 
L 31.203125 23.390625 
L 4.890625 23.390625 
z
" id="DejaVuSans-2d"/>
      <path d="M 45.40625 27.984375 
Q 45.40625 37.75 41.375 43.109375 
Q 37.359375 48.484375 30.078125 48.484375 
Q 22.859375 48.484375 18.828125 43.109375 
Q 14.796875 37.75 14.796875 27.984375 
Q 14.796875 18.265625 18.828125 12.890625 
Q 22.859375 7.515625 30.078125 7.515625 
Q 37.359375 7.515625 41.375 12.890625 
Q 45.40625 18.265625 45.40625 27.984375 
z
M 54.390625 6.78125 
Q 54.390625 -7.171875 48.1875 -13.984375 
Q 42 -20.796875 29.203125 -20.796875 
Q 24.46875 -20.796875 20.265625 -20.09375 
Q 16.0625 -19.390625 12.109375 -17.921875 
L 12.109375 -9.1875 
Q 16.0625 -11.328125 19.921875 -12.34375 
Q 23.78125 -13.375 27.78125 -13.375 
Q 36.625 -13.375 41.015625 -8.765625 
Q 45.40625 -4.15625 45.40625 5.171875 
L 45.40625 9.625 
Q 42.625 4.78125 38.28125 2.390625 
Q 33.9375 0 27.875 0 
Q 17.828125 0 11.671875 7.65625 
Q 5.515625 15.328125 5.515625 27.984375 
Q 5.515625 40.671875 11.671875 48.328125 
Q 17.828125 56 27.875 56 
Q 33.9375 56 38.28125 53.609375 
Q 42.625 51.21875 45.40625 46.390625 
L 45.40625 54.6875 
L 54.390625 54.6875 
z
" id="DejaVuSans-67"/>
      <path d="M 9.421875 75.984375 
L 18.40625 75.984375 
L 18.40625 0 
L 9.421875 0 
z
" id="DejaVuSans-6c"/>
     </defs>
     <g transform="translate(318.20125 153.797412)scale(0.1 -0.1)">
      <use xlink:href="#DejaVuSans-61"/>
      <use x="61.279297" xlink:href="#DejaVuSans-6d"/>
      <use x="158.691406" xlink:href="#DejaVuSans-65"/>
      <use x="220.214844" xlink:href="#DejaVuSans-72"/>
      <use x="261.328125" xlink:href="#DejaVuSans-69"/>
      <use x="289.111328" xlink:href="#DejaVuSans-63"/>
      <use x="344.091797" xlink:href="#DejaVuSans-61"/>
      <use x="405.371094" xlink:href="#DejaVuSans-6e"/>
      <use x="468.75" xlink:href="#DejaVuSans-2d"/>
      <use x="504.833984" xlink:href="#DejaVuSans-65"/>
      <use x="566.357422" xlink:href="#DejaVuSans-6e"/>
      <use x="629.736328" xlink:href="#DejaVuSans-67"/>
      <use x="693.212891" xlink:href="#DejaVuSans-6c"/>
      <use x="720.996094" xlink:href="#DejaVuSans-69"/>
      <use x="748.779297" xlink:href="#DejaVuSans-73"/>
      <use x="800.878906" xlink:href="#DejaVuSans-68"/>
     </g>
    </g>
    <g id="line2d_45">
     <path d="M 290.20125 164.975537 
L 310.20125 164.975537 
" style="fill:none;stroke:#008000;stroke-linecap:square;"/>
    </g>
    <g id="line2d_46">
     <g>
      <use style="fill:#008000;stroke:#008000;stroke-linejoin:miter;" x="300.20125" xlink:href="#m7833a0460f" y="164.975537"/>
     </g>
    </g>
    <g id="text_22">
     <!-- british-english -->
     <defs>
      <path d="M 48.6875 27.296875 
Q 48.6875 37.203125 44.609375 42.84375 
Q 40.53125 48.484375 33.40625 48.484375 
Q 26.265625 48.484375 22.1875 42.84375 
Q 18.109375 37.203125 18.109375 27.296875 
Q 18.109375 17.390625 22.1875 11.75 
Q 26.265625 6.109375 33.40625 6.109375 
Q 40.53125 6.109375 44.609375 11.75 
Q 48.6875 17.390625 48.6875 27.296875 
z
M 18.109375 46.390625 
Q 20.953125 51.265625 25.265625 53.625 
Q 29.59375 56 35.59375 56 
Q 45.5625 56 51.78125 48.09375 
Q 58.015625 40.1875 58.015625 27.296875 
Q 58.015625 14.40625 51.78125 6.484375 
Q 45.5625 -1.421875 35.59375 -1.421875 
Q 29.59375 -1.421875 25.265625 0.953125 
Q 20.953125 3.328125 18.109375 8.203125 
L 18.109375 0 
L 9.078125 0 
L 9.078125 75.984375 
L 18.109375 75.984375 
z
" id="DejaVuSans-62"/>
     </defs>
     <g transform="translate(318.20125 168.475537)scale(0.1 -0.1)">
      <use xlink:href="#DejaVuSans-62"/>
      <use x="63.476562" xlink:href="#DejaVuSans-72"/>
      <use x="104.589844" xlink:href="#DejaVuSans-69"/>
      <use x="132.373047" xlink:href="#DejaVuSans-74"/>
      <use x="171.582031" xlink:href="#DejaVuSans-69"/>
      <use x="199.365234" xlink:href="#DejaVuSans-73"/>
      <use x="251.464844" xlink:href="#DejaVuSans-68"/>
      <use x="314.84375" xlink:href="#DejaVuSans-2d"/>
      <use x="350.927734" xlink:href="#DejaVuSans-65"/>
      <use x="412.451172" xlink:href="#DejaVuSans-6e"/>
      <use x="475.830078" xlink:href="#DejaVuSans-67"/>
      <use x="539.306641" xlink:href="#DejaVuSans-6c"/>
      <use x="567.089844" xlink:href="#DejaVuSans-69"/>
      <use x="594.873047" xlink:href="#DejaVuSans-73"/>
      <use x="646.972656" xlink:href="#DejaVuSans-68"/>
     </g>
    </g>
    <g id="line2d_47">
     <path d="M 290.20125 179.653662 
L 310.20125 179.653662 
" style="fill:none;stroke:#ff0000;stroke-linecap:square;"/>
    </g>
    <g id="line2d_48">
     <g>
      <use style="fill:#ff0000;stroke:#ff0000;stroke-linejoin:miter;" x="300.20125" xlink:href="#mc92743de5d" y="179.653662"/>
     </g>
    </g>
    <g id="text_23">
     <!-- italian -->
     <g transform="translate(318.20125 183.153662)scale(0.1 -0.1)">
      <use xlink:href="#DejaVuSans-69"/>
      <use x="27.783203" xlink:href="#DejaVuSans-74"/>
      <use x="66.992188" xlink:href="#DejaVuSans-61"/>
      <use x="128.271484" xlink:href="#DejaVuSans-6c"/>
      <use x="156.054688" xlink:href="#DejaVuSans-69"/>
      <use x="183.837891" xlink:href="#DejaVuSans-61"/>
      <use x="245.117188" xlink:href="#DejaVuSans-6e"/>
     </g>
    </g>
    <g id="line2d_49">
     <path d="M 290.20125 194.331787 
L 310.20125 194.331787 
" style="fill:none;stroke:#a52a2a;stroke-linecap:square;"/>
    </g>
    <g id="line2d_50">
     <g>
      <use style="fill:#a52a2a;stroke:#a52a2a;stroke-linejoin:miter;" x="300.20125" xlink:href="#m2f27984314" y="194.331787"/>
     </g>
    </g>
    <g id="text_24">
     <!-- ngerman -->
     <g transform="translate(318.20125 197.831787)scale(0.1 -0.1)">
      <use xlink:href="#DejaVuSans-6e"/>
      <use x="63.378906" xlink:href="#DejaVuSans-67"/>
      <use x="126.855469" xlink:href="#DejaVuSans-65"/>
      <use x="188.378906" xlink:href="#DejaVuSans-72"/>
      <use x="229.476562" xlink:href="#DejaVuSans-6d"/>
      <use x="326.888672" xlink:href="#DejaVuSans-61"/>
      <use x="388.167969" xlink:href="#DejaVuSans-6e"/>
     </g>
    </g>
    <g id="line2d_51">
     <path d="M 290.20125 209.009912 
L 310.20125 209.009912 
" style="fill:none;stroke:#ff00ff;stroke-linecap:square;"/>
    </g>
    <g id="line2d_52">
     <g>
      <use style="fill:#ff00ff;stroke:#ff00ff;" x="300.20125" xlink:href="#m166bc4b455" y="209.009912"/>
     </g>
    </g>
    <g id="text_25">
     <!-- spanish -->
     <g transform="translate(318.20125 212.509912)scale(0.1 -0.1)">
      <use xlink:href="#DejaVuSans-73"/>
      <use x="52.099609" xlink:href="#DejaVuSans-70"/>
      <use x="115.576172" xlink:href="#DejaVuSans-61"/>
      <use x="176.855469" xlink:href="#DejaVuSans-6e"/>
      <use x="240.234375" xlink:href="#DejaVuSans-69"/>
      <use x="268.017578" xlink:href="#DejaVuSans-73"/>
      <use x="320.117188" xlink:href="#DejaVuSans-68"/>
     </g>
    </g>
   </g>
  </g>
 </g>
 <defs>
  <clipPath id="p2a74015dfe">
   <rect height="266.112" width="357.12" x="56.50625" y="10.7"/>
  </clipPath>
 </defs>
</svg>
