<?xml version="1.0" encoding="utf-8" standalone="no"?>
<!DOCTYPE svg PUBLIC "-//W3C//DTD SVG 1.1//EN"
  "http://www.w3.org/Graphics/SVG/1.1/DTD/svg11.dtd">
<!-- Created with matplotlib (https://matplotlib.org/) -->
<svg height="360pt" version="1.1" viewBox="0 0 360 360" width="360pt" xmlns="http://www.w3.org/2000/svg" xmlns:xlink="http://www.w3.org/1999/xlink">
 <defs>
  <style type="text/css">
*{stroke-linecap:butt;stroke-linejoin:round;}
  </style>
 </defs>
 <g id="figure_1">
  <g id="patch_1">
   <path d="M 0 360 
L 360 360 
L 360 0 
L 0 0 
z
" style="fill:#ffffff;"/>
  </g>
  <g id="axes_1">
   <g id="patch_2">
    <path d="M 45 320.4 
L 324 320.4 
L 324 43.2 
L 45 43.2 
z
" style="fill:#ffffff;"/>
   </g>
   <g id="PolyCollection_1">
    <defs>
     <path d="M 57.681818 -52.2 
L 57.681818 -52.2 
L 58.416996 -52.53678 
L 59.152174 -53.797601 
L 59.887352 -56.072972 
L 60.62253 -58.344134 
L 61.357708 -61.377261 
L 62.092885 -63.145357 
L 62.828063 -68.194955 
L 63.563241 -70.638716 
L 64.298419 -74.762169 
L 65.033597 -78.553051 
L 65.768775 -82.423919 
L 66.503953 -85.958006 
L 67.23913 -90.845529 
L 67.974308 -92.445235 
L 68.709486 -96.989663 
L 69.444664 -100.862635 
L 70.179842 -103.390592 
L 70.91502 -103.977852 
L 71.650198 -105.992219 
L 72.385375 -108.60858 
L 73.120553 -111.555407 
L 73.855731 -112.904632 
L 74.590909 -116.186135 
L 75.326087 -117.954231 
L 76.061265 -119.636027 
L 76.796443 -122.502868 
L 77.531621 -123.344819 
L 78.266798 -125.11081 
L 79.001976 -125.61598 
L 79.737154 -128.226027 
L 80.472332 -127.720857 
L 81.20751 -128.647002 
L 81.942688 -131.257049 
L 82.677866 -131.760114 
L 83.413043 -132.183194 
L 84.148221 -135.721491 
L 84.883399 -137.483273 
L 85.618577 -138.497823 
L 86.353755 -137.824263 
L 87.088933 -139.337669 
L 87.824111 -141.10787 
L 88.559289 -142.288706 
L 89.294466 -142.960161 
L 90.029644 -143.292731 
L 90.764822 -144.980842 
L 91.5 -145.563893 
L 92.235178 -147.256214 
L 92.970356 -146.833133 
L 93.705534 -147.085719 
L 94.440711 -146.999419 
L 95.175889 -146.664743 
L 95.911067 -150.613491 
L 96.646245 -149.77996 
L 97.381423 -146.582653 
L 98.116601 -148.350749 
L 98.851779 -148.853815 
L 99.586957 -149.69787 
L 100.322134 -149.52948 
L 101.057312 -148.85592 
L 101.79249 -148.180254 
L 102.527668 -149.108505 
L 103.262846 -149.089561 
L 103.998024 -146.407948 
L 104.733202 -148.763305 
L 105.468379 -149.527375 
L 106.203557 -150.876601 
L 106.938735 -153.318257 
L 107.673913 -151.129186 
L 108.409091 -152.556292 
L 109.144269 -152.808877 
L 109.879447 -154.400164 
L 110.614625 -154.410688 
L 111.349802 -150.200936 
L 112.08498 -152.476307 
L 112.820158 -153.737128 
L 113.555336 -150.287235 
L 114.290514 -151.969032 
L 115.025692 -151.800641 
L 115.76087 -152.135317 
L 116.496047 -149.190595 
L 117.231225 -150.106216 
L 117.966403 -150.20304 
L 118.701581 -148.599125 
L 119.436759 -146.239558 
L 120.171937 -143.968397 
L 120.907115 -144.982947 
L 121.642292 -145.399713 
L 122.37747 -144.220982 
L 123.112648 -143.210641 
L 123.847826 -142.452886 
L 124.583004 -141.865625 
L 125.318182 -141.192065 
L 126.05336 -141.105765 
L 126.788538 -140.68479 
L 127.523715 -139.167174 
L 128.258893 -135.889882 
L 128.994071 -136.898117 
L 129.729249 -134.624851 
L 130.464427 -132.938845 
L 131.199605 -133.361925 
L 131.934783 -132.437884 
L 132.66996 -131.006569 
L 133.405138 -129.827838 
L 134.140316 -129.491058 
L 134.875494 -126.628426 
L 135.610672 -127.468271 
L 136.34585 -127.887142 
L 137.081028 -126.123256 
L 137.816206 -125.026615 
L 138.551383 -123.005934 
L 139.286561 -121.660918 
L 140.021739 -119.638132 
L 140.756917 -118.543596 
L 141.492095 -118.545701 
L 142.227273 -115.933549 
L 142.962451 -115.428379 
L 143.697628 -113.491893 
L 144.432806 -114.836909 
L 145.167984 -112.904632 
L 145.903162 -110.881846 
L 146.63834 -110.545066 
L 147.373518 -110.374571 
L 148.108696 -110.542961 
L 148.843874 -107.008874 
L 149.579051 -104.146242 
L 150.314229 -103.302187 
L 151.049407 -102.790702 
L 151.784585 -100.948935 
L 152.519763 -99.852294 
L 153.254941 -99.178734 
L 153.990119 -96.991768 
L 154.725296 -97.240143 
L 155.460474 -95.642542 
L 156.195652 -95.810932 
L 156.93083 -95.474152 
L 157.666008 -94.632201 
L 158.401186 -95.055281 
L 159.136364 -94.213331 
L 159.871542 -91.687479 
L 160.606719 -91.93796 
L 161.341897 -89.664693 
L 162.077075 -88.062882 
L 162.812253 -87.730312 
L 163.547431 -86.804166 
L 164.282609 -85.958006 
L 165.017787 -86.130606 
L 165.752964 -86.298996 
L 166.488142 -86.208486 
L 167.22332 -85.033965 
L 167.958498 -83.604754 
L 168.693676 -83.013284 
L 169.428854 -83.352169 
L 170.164032 -82.341829 
L 170.899209 -80.740018 
L 171.634387 -78.045776 
L 172.369565 -78.889831 
L 173.104743 -77.793191 
L 173.839921 -77.458516 
L 174.575099 -75.943005 
L 175.310277 -76.279785 
L 176.045455 -76.86915 
L 176.780632 -76.193485 
L 177.51581 -75.353639 
L 178.250988 -75.353639 
L 178.986166 -74.591674 
L 179.721344 -74.174909 
L 180.456522 -74.090713 
L 181.1917 -73.412943 
L 181.926877 -72.907773 
L 182.662055 -72.322617 
L 183.397233 -71.901642 
L 184.132411 -71.480667 
L 184.867589 -71.811132 
L 185.602767 -70.722911 
L 186.337945 -70.973392 
L 187.073123 -70.722911 
L 187.8083 -71.562757 
L 188.543478 -70.129336 
L 189.278656 -69.289491 
L 190.013834 -69.544181 
L 190.749012 -68.868515 
L 191.48419 -69.03901 
L 192.219368 -68.700125 
L 192.954545 -68.449645 
L 193.689723 -68.112865 
L 194.424901 -67.944475 
L 195.160079 -67.270914 
L 195.895257 -66.929924 
L 196.630435 -65.839598 
L 197.365613 -66.763639 
L 198.100791 -66.513159 
L 198.835968 -65.671208 
L 199.571146 -64.825048 
L 200.306324 -64.742958 
L 201.041502 -64.239892 
L 201.77668 -62.974862 
L 202.511858 -61.878221 
L 203.247036 -62.303406 
L 203.982213 -61.375156 
L 204.717391 -61.124675 
L 205.452569 -60.87209 
L 206.187747 -61.457246 
L 206.922925 -60.533205 
L 207.658103 -60.53531 
L 208.393281 -60.44901 
L 209.128458 -60.787895 
L 209.863636 -60.282725 
L 210.598814 -59.86175 
L 211.333992 -59.94384 
L 212.06917 -59.69336 
L 212.804348 -60.03014 
L 213.539526 -59.908279 
L 214.274704 -59.555989 
L 215.009881 -59.467362 
L 215.745059 -59.287894 
L 216.480237 -59.112857 
L 217.215415 -58.758351 
L 217.950593 -58.561404 
L 218.685771 -57.746968 
L 219.420949 -57.548862 
L 220.156126 -57.567435 
L 220.891304 -56.935972 
L 221.626482 -56.725484 
L 222.36166 -56.725484 
L 223.096838 -56.578143 
L 223.832016 -56.912116 
L 224.567194 -56.802663 
L 225.302372 -57.588483 
L 226.037549 -57.139443 
L 226.772727 -57.024376 
L 227.507905 -56.912116 
L 228.243083 -56.802663 
L 228.978261 -56.802663 
L 229.713439 -57.637057 
L 230.448617 -57.637057 
L 231.183794 -57.251703 
L 231.918972 -57.510765 
L 232.65415 -57.532353 
L 233.389328 -57.557867 
L 234.124506 -58.170195 
L 234.859684 -58.013286 
L 235.594862 -58.166368 
L 236.33004 -58.476358 
L 237.065217 -59.945945 
L 237.800395 -59.272384 
L 238.535573 -59.609165 
L 239.270751 -59.272384 
L 240.005929 -59.268175 
L 240.741107 -58.262044 
L 241.476285 -58.257834 
L 242.211462 -57.247493 
L 242.94664 -56.910713 
L 243.681818 -56.746533 
L 244.416996 -56.746533 
L 245.152174 -56.409753 
L 245.887352 -56.690403 
L 246.62253 -57.041215 
L 247.357708 -57.462191 
L 248.092885 -56.830728 
L 248.828063 -57.251703 
L 249.563241 -57.251703 
L 250.298419 -57.732818 
L 251.033597 -58.093654 
L 251.768775 -58.093654 
L 252.503953 -57.251703 
L 253.23913 -57.251703 
L 253.974308 -57.251703 
L 254.709486 -57.532353 
L 255.444664 -57.251703 
L 256.179842 -56.690403 
L 256.91502 -55.567802 
L 257.650198 -56.129102 
L 258.385375 -55.567802 
L 259.120553 -55.287152 
L 259.855731 -54.999485 
L 260.590909 -56.129102 
L 261.326087 -55.904582 
L 262.061265 -56.241362 
L 262.796443 -56.241362 
L 263.531621 -56.578143 
L 264.266798 -56.578143 
L 265.001976 -55.231022 
L 265.737154 -55.231022 
L 266.472332 -54.894242 
L 267.20751 -55.904582 
L 267.942688 -55.904582 
L 268.677866 -55.567802 
L 269.413043 -55.231022 
L 270.148221 -55.231022 
L 270.883399 -55.231022 
L 271.618577 -56.409753 
L 272.353755 -55.567802 
L 273.088933 -54.725852 
L 273.824111 -53.883901 
L 274.559289 -53.883901 
L 275.294466 -53.041951 
L 276.029644 -53.041951 
L 276.764822 -53.041951 
L 277.5 -52.2 
L 278.235178 -52.2 
L 278.970356 -53.883901 
L 279.705534 -55.006502 
L 280.440711 -53.883901 
L 281.175889 -53.883901 
L 281.911067 -53.883901 
L 282.646245 -55.567802 
L 283.381423 -53.883901 
L 284.116601 -53.883901 
L 284.851779 -53.883901 
L 285.586957 -53.883901 
L 286.322134 -53.883901 
L 287.057312 -53.883901 
L 287.79249 -53.883901 
L 288.527668 -53.883901 
L 289.262846 -53.883901 
L 289.998024 -53.883901 
L 290.733202 -53.883901 
L 291.468379 -53.883901 
L 292.203557 -53.883901 
L 292.938735 -53.883901 
L 292.938735 -53.883901 
L 292.938735 -53.883901 
L 292.203557 -53.883901 
L 291.468379 -53.883901 
L 290.733202 -53.883901 
L 289.998024 -53.883901 
L 289.262846 -53.883901 
L 288.527668 -53.883901 
L 287.79249 -55.567802 
L 287.057312 -55.567802 
L 286.322134 -55.567802 
L 285.586957 -57.251703 
L 284.851779 -57.251703 
L 284.116601 -57.251703 
L 283.381423 -58.935604 
L 282.646245 -58.935604 
L 281.911067 -58.935604 
L 281.175889 -60.619505 
L 280.440711 -60.619505 
L 279.705534 -60.619505 
L 278.970356 -60.619505 
L 278.235178 -62.303406 
L 277.5 -63.987307 
L 276.764822 -61.461456 
L 276.029644 -62.303406 
L 275.294466 -63.145357 
L 274.559289 -63.987307 
L 273.824111 -63.987307 
L 273.088933 -63.145357 
L 272.353755 -63.145357 
L 271.618577 -64.829258 
L 270.883399 -63.313747 
L 270.148221 -63.313747 
L 269.413043 -64.660868 
L 268.677866 -66.007989 
L 267.942688 -65.679628 
L 267.20751 -64.997648 
L 266.472332 -64.997648 
L 265.737154 -64.997648 
L 265.001976 -65.671208 
L 264.266798 -68.36545 
L 263.531621 -71.733252 
L 262.796443 -75.437834 
L 262.061265 -74.099133 
L 261.326087 -71.733252 
L 260.590909 -71.003562 
L 259.855731 -74.93968 
L 259.120553 -73.810063 
L 258.385375 -76.055265 
L 257.650198 -80.265017 
L 256.91502 -80.265017 
L 256.179842 -79.423067 
L 255.444664 -81.106968 
L 254.709486 -81.675284 
L 253.974308 -82.790869 
L 253.23913 -80.265017 
L 252.503953 -80.833334 
L 251.768775 -82.229569 
L 251.033597 -83.352169 
L 250.298419 -81.072889 
L 249.563241 -81.066875 
L 248.828063 -82.094506 
L 248.092885 -82.304993 
L 247.357708 -82.720706 
L 246.62253 -81.247293 
L 245.887352 -77.088993 
L 245.152174 -76.279785 
L 244.416996 -78.300466 
L 243.681818 -81.335698 
L 242.94664 -83.520559 
L 242.211462 -86.383191 
L 241.476285 -85.04028 
L 240.741107 -87.902912 
L 240.005929 -85.20867 
L 239.270751 -85.37285 
L 238.535573 -85.882231 
L 237.800395 -84.5309 
L 237.065217 -86.888361 
L 236.33004 -84.963356 
L 235.594862 -83.122546 
L 234.859684 -83.279455 
L 234.124506 -83.746355 
L 233.389328 -84.19412 
L 232.65415 -83.359185 
L 231.918972 -80.567256 
L 231.183794 -80.826318 
L 230.448617 -84.197358 
L 229.713439 -84.845012 
L 228.978261 -82.510219 
L 228.243083 -82.625285 
L 227.507905 -80.49515 
L 226.772727 -80.722477 
L 226.037549 -82.964872 
L 225.302372 -80.829124 
L 224.567194 -81.393231 
L 223.832016 -80.152757 
L 223.096838 -80.944191 
L 222.36166 -78.200484 
L 221.626482 -75.458883 
L 220.891304 -75.037908 
L 220.156126 -76.511321 
L 219.420949 -74.387872 
L 218.685771 -73.796031 
L 217.950593 -73.157552 
L 217.215415 -71.965896 
L 216.480237 -72.406812 
L 215.745059 -72.849944 
L 215.009881 -73.381703 
L 214.274704 -74.358808 
L 213.539526 -74.101792 
L 212.804348 -74.850574 
L 212.06917 -74.259104 
L 211.333992 -75.439939 
L 210.598814 -76.029305 
L 209.863636 -76.36398 
L 209.128458 -74.595884 
L 208.393281 -74.764274 
L 207.658103 -75.016859 
L 206.922925 -74.852679 
L 206.187747 -75.103159 
L 205.452569 -73.505558 
L 204.717391 -74.092818 
L 203.982213 -74.680079 
L 203.247036 -74.345404 
L 202.511858 -74.682184 
L 201.77668 -75.522029 
L 201.041502 -77.711101 
L 200.306324 -77.376425 
L 199.571146 -77.795296 
L 198.835968 -78.386766 
L 198.100791 -80.407447 
L 197.365613 -80.068562 
L 196.630435 -79.563392 
L 195.895257 -79.731782 
L 195.160079 -81.419893 
L 194.424901 -82.762804 
L 193.689723 -82.257634 
L 192.954545 -83.438469 
L 192.219368 -83.943639 
L 191.48419 -83.941535 
L 190.749012 -84.02573 
L 190.013834 -84.446705 
L 189.278656 -86.890466 
L 188.543478 -86.972556 
L 187.8083 -87.140947 
L 187.073123 -86.551581 
L 186.337945 -87.140947 
L 185.602767 -87.648222 
L 184.867589 -87.147261 
L 184.132411 -87.315651 
L 183.397233 -88.153392 
L 182.662055 -89.330018 
L 181.926877 -89.919383 
L 181.1917 -90.094088 
L 180.456522 -88.662772 
L 179.721344 -89.500513 
L 178.986166 -89.416318 
L 178.250988 -89.416318 
L 177.51581 -88.319677 
L 176.780632 -89.666798 
L 176.045455 -90.005683 
L 175.310277 -89.753098 
L 174.575099 -90.007788 
L 173.839921 -92.27895 
L 173.104743 -92.782015 
L 172.369565 -94.213331 
L 171.634387 -93.20299 
L 170.899209 -96.490807 
L 170.164032 -98.507279 
L 169.428854 -97.751628 
L 168.693676 -97.496938 
L 167.958498 -98.427293 
L 167.22332 -100.612155 
L 166.488142 -102.889631 
L 165.752964 -104.575637 
L 165.017787 -104.234647 
L 164.282609 -102.717031 
L 163.547431 -104.754551 
L 162.812253 -105.668068 
L 162.077075 -105.670173 
L 161.341897 -109.461055 
L 160.606719 -109.62313 
L 159.871542 -110.631366 
L 159.136364 -112.146877 
L 158.401186 -112.483657 
L 157.666008 -111.559616 
L 156.93083 -111.978487 
L 156.195652 -113.748688 
L 155.460474 -113.411908 
L 154.725296 -114.001273 
L 153.990119 -114.672728 
L 153.254941 -114.929523 
L 152.519763 -115.769369 
L 151.784585 -115.683069 
L 151.049407 -118.042635 
L 150.314229 -119.473951 
L 149.579051 -121.155747 
L 148.843874 -121.997698 
L 148.108696 -126.03906 
L 147.373518 -126.889431 
L 146.63834 -126.883116 
L 145.903162 -126.291646 
L 145.167984 -128.061847 
L 144.432806 -130.166723 
L 143.697628 -131.012883 
L 142.962451 -133.871305 
L 142.227273 -135.805687 
L 141.492095 -136.731832 
L 140.756917 -138.249448 
L 140.021739 -138.923008 
L 139.286561 -141.87194 
L 138.551383 -144.143102 
L 137.816206 -146.245873 
L 137.081028 -147.683503 
L 136.34585 -147.012048 
L 135.610672 -147.178333 
L 134.875494 -146.330068 
L 134.140316 -148.689634 
L 133.405138 -149.112714 
L 132.66996 -152.145841 
L 131.934783 -153.827637 
L 131.199605 -155.338939 
L 130.464427 -152.728892 
L 129.729249 -155.174758 
L 128.994071 -158.37417 
L 128.258893 -157.780595 
L 127.523715 -159.382406 
L 126.788538 -162.581818 
L 126.05336 -164.518304 
L 125.318182 -164.857189 
L 124.583004 -166.36849 
L 123.847826 -168.643862 
L 123.112648 -170.999218 
L 122.37747 -170.580348 
L 121.642292 -169.906787 
L 120.907115 -169.654202 
L 120.171937 -171.674883 
L 119.436759 -174.37123 
L 118.701581 -176.394016 
L 117.966403 -176.728691 
L 117.231225 -178.073707 
L 116.496047 -177.905317 
L 115.76087 -181.525705 
L 115.025692 -182.199265 
L 114.290514 -180.094389 
L 113.555336 -180.770054 
L 112.820158 -182.53815 
L 112.08498 -179.081943 
L 111.349802 -178.997748 
L 110.614625 -182.281355 
L 109.879447 -186.160642 
L 109.144269 -181.279434 
L 108.409091 -182.28346 
L 107.673913 -180.610083 
L 106.938735 -181.69199 
L 106.203557 -181.271015 
L 105.468379 -178.242098 
L 104.733202 -176.391911 
L 103.998024 -173.44298 
L 103.262846 -177.398042 
L 102.527668 -178.660968 
L 101.79249 -177.402252 
L 101.057312 -177.147562 
L 100.322134 -178.336817 
L 99.586957 -179.589218 
L 98.851779 -175.040581 
L 98.116601 -174.958491 
L 97.381423 -173.946045 
L 96.646245 -176.724482 
L 95.911067 -176.471897 
L 95.175889 -175.463661 
L 94.440711 -173.950255 
L 93.705534 -176.568721 
L 92.970356 -172.009559 
L 92.235178 -172.350549 
L 91.5 -171.089728 
L 90.764822 -170.075177 
L 90.029644 -168.309186 
L 89.294466 -166.793675 
L 88.559289 -167.884001 
L 87.824111 -166.789466 
L 87.088933 -165.52654 
L 86.353755 -163.926834 
L 85.618577 -163.173288 
L 84.883399 -161.992453 
L 84.148221 -158.117375 
L 83.413043 -155.846214 
L 82.677866 -156.606074 
L 81.942688 -153.402452 
L 81.20751 -151.971136 
L 80.472332 -150.541925 
L 79.737154 -151.973241 
L 79.001976 -149.954665 
L 78.266798 -148.100269 
L 77.531621 -145.911198 
L 76.796443 -143.888411 
L 76.061265 -140.438519 
L 75.326087 -138.163148 
L 74.590909 -135.468906 
L 73.855731 -131.174959 
L 73.120553 -128.061847 
L 72.385375 -124.698254 
L 71.650198 -122.589168 
L 70.91502 -119.892822 
L 70.179842 -118.379416 
L 69.444664 -114.083363 
L 68.709486 -110.801861 
L 67.974308 -105.244988 
L 67.23913 -103.979957 
L 66.503953 -98.172603 
L 65.768775 -95.055281 
L 65.033597 -90.089878 
L 64.298419 -85.543345 
L 63.563241 -79.647587 
L 62.828063 -74.848469 
L 62.092885 -69.965156 
L 61.357708 -66.094288 
L 60.62253 -61.714041 
L 59.887352 -58.685124 
L 59.152174 -55.567802 
L 58.416996 -53.210341 
L 57.681818 -52.2 
z
" id="m30abdc0f50" style="stroke:#1f77b4;stroke-opacity:0.2;"/>
    </defs>
    <g clip-path="url(#pddbc301ab1)">
     <use style="fill:#1f77b4;fill-opacity:0.2;stroke:#1f77b4;stroke-opacity:0.2;" x="0" xlink:href="#m30abdc0f50" y="360"/>
    </g>
   </g>
   <g id="PolyCollection_2">
    <defs>
     <path d="M 57.681818 -52.2 
L 57.681818 -52.2 
L 58.416996 -60.619505 
L 59.152174 -71.396472 
L 59.887352 -80.150652 
L 60.62253 -88.235482 
L 61.357708 -94.971086 
L 62.092885 -100.44166 
L 62.828063 -107.684539 
L 63.563241 -112.820437 
L 64.298419 -120.646367 
L 65.033597 -127.299881 
L 65.768775 -134.121785 
L 66.503953 -140.432205 
L 67.23913 -148.348644 
L 67.974308 -153.655038 
L 68.709486 -160.220147 
L 69.444664 -165.105565 
L 70.179842 -172.849404 
L 70.91502 -176.219311 
L 71.650198 -179.755504 
L 72.385375 -182.776001 
L 73.120553 -185.049267 
L 73.855731 -186.821573 
L 74.590909 -188.92224 
L 75.326087 -189.856805 
L 76.061265 -189.099049 
L 76.796443 -193.054112 
L 77.531621 -196.415599 
L 78.266798 -199.433992 
L 79.001976 -200.884252 
L 79.737154 -201.644112 
L 80.472332 -205.350799 
L 81.20751 -202.656558 
L 81.942688 -206.52953 
L 82.677866 -208.876467 
L 83.413043 -213.178834 
L 84.148221 -213.938695 
L 84.883399 -217.125477 
L 85.618577 -212.412659 
L 86.353755 -216.967612 
L 87.088933 -220.590104 
L 87.824111 -221.84461 
L 88.559289 -226.309053 
L 89.294466 -229.514779 
L 90.029644 -231.352336 
L 90.764822 -235.570508 
L 91.5 -233.638232 
L 92.235178 -234.143402 
L 92.970356 -237.843775 
L 93.705534 -234.812753 
L 94.440711 -236.248279 
L 95.175889 -236.494549 
L 95.911067 -235.658913 
L 96.646245 -237.839565 
L 97.381423 -239.19721 
L 98.116601 -236.587164 
L 98.851779 -239.266671 
L 99.586957 -237.427009 
L 100.322134 -234.810648 
L 101.057312 -232.966776 
L 101.79249 -234.730663 
L 102.527668 -226.056467 
L 103.262846 -227.323603 
L 103.998024 -227.494098 
L 104.733202 -229.009609 
L 105.468379 -230.931361 
L 106.203557 -230.35673 
L 106.938735 -228.839114 
L 107.673913 -229.596869 
L 108.409091 -230.52091 
L 109.144269 -227.146793 
L 109.879447 -227.403588 
L 110.614625 -228.504439 
L 111.349802 -223.448526 
L 112.08498 -224.039996 
L 112.820158 -223.610601 
L 113.555336 -220.497489 
L 114.290514 -219.409268 
L 115.025692 -217.805352 
L 115.76087 -217.131792 
L 116.496047 -217.807457 
L 117.231225 -218.561003 
L 117.966403 -216.546636 
L 118.701581 -216.961297 
L 119.436759 -214.10498 
L 120.171937 -214.44176 
L 120.907115 -217.138107 
L 121.642292 -215.866761 
L 122.37747 -216.795012 
L 123.112648 -217.053912 
L 123.847826 -214.694345 
L 124.583004 -214.02289 
L 125.318182 -211.661218 
L 126.05336 -209.895227 
L 126.788538 -211.650694 
L 127.523715 -210.467754 
L 128.258893 -211.497038 
L 128.994071 -208.375507 
L 129.729249 -207.114686 
L 130.464427 -207.030491 
L 131.199605 -202.730228 
L 131.934783 -200.208587 
L 132.66996 -201.726202 
L 133.405138 -200.124392 
L 134.140316 -200.884252 
L 134.875494 -199.956001 
L 135.610672 -200.966342 
L 136.34585 -198.524686 
L 137.081028 -198.943556 
L 137.816206 -198.61309 
L 138.551383 -196.000939 
L 139.286561 -194.992703 
L 140.021739 -192.801527 
L 140.756917 -193.395102 
L 141.492095 -189.6821 
L 142.227273 -192.805737 
L 142.962451 -192.123757 
L 143.697628 -188.501265 
L 144.432806 -187.057319 
L 145.167984 -182.432906 
L 145.903162 -182.529731 
L 146.63834 -179.246124 
L 147.373518 -178.061078 
L 148.108696 -176.804467 
L 148.843874 -171.495969 
L 149.579051 -170.828723 
L 150.314229 -168.464947 
L 151.049407 -167.625101 
L 151.784585 -163.924729 
L 152.519763 -161.569372 
L 153.254941 -159.548691 
L 153.990119 -158.784621 
L 154.725296 -159.373986 
L 155.460474 -156.85024 
L 156.195652 -155.503119 
L 156.93083 -150.872391 
L 157.666008 -146.835238 
L 158.401186 -146.161678 
L 159.136364 -143.296941 
L 159.871542 -140.34801 
L 160.606719 -138.834603 
L 161.341897 -138.750408 
L 162.077075 -137.569573 
L 162.812253 -136.051957 
L 163.547431 -134.370161 
L 164.282609 -132.26318 
L 165.017787 -131.252839 
L 165.752964 -131.593829 
L 166.488142 -130.078318 
L 167.22332 -129.320563 
L 167.958498 -126.626321 
L 168.693676 -126.123256 
L 169.428854 -123.597404 
L 170.164032 -120.818967 
L 170.899209 -118.796181 
L 171.634387 -117.950021 
L 172.369565 -116.8618 
L 173.104743 -113.573983 
L 173.839921 -112.736242 
L 174.575099 -112.984618 
L 175.310277 -110.208286 
L 176.045455 -109.284245 
L 176.780632 -107.347759 
L 177.51581 -105.661753 
L 178.250988 -104.737712 
L 178.986166 -103.723162 
L 179.721344 -102.967511 
L 180.456522 -101.03313 
L 181.1917 -99.854399 
L 181.926877 -99.010344 
L 182.662055 -97.244353 
L 183.397233 -94.886891 
L 184.132411 -93.708161 
L 184.867589 -92.69782 
L 185.602767 -92.613625 
L 186.337945 -91.601179 
L 187.073123 -90.675034 
L 187.8083 -89.496303 
L 188.543478 -88.233377 
L 189.278656 -87.728207 
L 190.013834 -85.791721 
L 190.749012 -85.120265 
L 191.48419 -83.602649 
L 192.219368 -83.26166 
L 192.954545 -82.583889 
L 193.689723 -80.657928 
L 194.424901 -81.163098 
L 195.160079 -80.489537 
L 195.895257 -80.234847 
L 196.630435 -78.889831 
L 197.365613 -79.142417 
L 198.100791 -78.045776 
L 198.835968 -77.711101 
L 199.571146 -77.372216 
L 200.306324 -77.121735 
L 201.041502 -76.0272 
L 201.77668 -74.425389 
L 202.511858 -74.168594 
L 203.247036 -73.753933 
L 203.982213 -71.899537 
L 204.717391 -71.983732 
L 205.452569 -71.644847 
L 206.187747 -71.228082 
L 206.922925 -71.141782 
L 207.658103 -69.963051 
L 208.393281 -69.291596 
L 209.128458 -68.700125 
L 209.863636 -68.112865 
L 210.598814 -67.689785 
L 211.333992 -67.439304 
L 212.06917 -66.597354 
L 212.804348 -66.090079 
L 213.539526 -65.923793 
L 214.274704 -65.755403 
L 215.009881 -65.250233 
L 215.745059 -65.671208 
L 216.480237 -65.662346 
L 217.215415 -64.696318 
L 217.950593 -64.073718 
L 218.685771 -64.250971 
L 219.420949 -63.632802 
L 220.156126 -64.546269 
L 220.891304 -64.546269 
L 221.626482 -63.704318 
L 222.36166 -63.800207 
L 223.096838 -63.987307 
L 223.832016 -63.517218 
L 224.567194 -62.396956 
L 225.302372 -62.675268 
L 226.037549 -62.864707 
L 226.772727 -62.020417 
L 227.507905 -62.116306 
L 228.243083 -61.178467 
L 228.978261 -61.274356 
L 229.713439 -61.555006 
L 230.448617 -60.619505 
L 231.183794 -60.806605 
L 231.918972 -60.806605 
L 232.65415 -60.525955 
L 233.389328 -59.684005 
L 234.124506 -59.213916 
L 234.859684 -58.748504 
L 235.594862 -58.933265 
L 236.33004 -59.032181 
L 237.065217 -58.242233 
L 237.800395 -58.514629 
L 238.535573 -58.514629 
L 239.270751 -58.304141 
L 240.005929 -58.514629 
L 240.741107 -58.711084 
L 241.476285 -58.371497 
L 242.211462 -59.055883 
L 242.94664 -59.055883 
L 243.681818 -58.935604 
L 244.416996 -58.574768 
L 245.152174 -58.451483 
L 245.887352 -58.093654 
L 246.62253 -57.853096 
L 247.357708 -57.609532 
L 248.092885 -57.251703 
L 248.828063 -57.011146 
L 249.563241 -56.770589 
L 250.298419 -56.65031 
L 251.033597 -56.289474 
L 251.768775 -56.169195 
L 252.503953 -56.048917 
L 253.23913 -55.928638 
L 253.974308 -56.048917 
L 254.709486 -55.928638 
L 255.444664 -55.808359 
L 256.179842 -55.567802 
L 256.91502 -55.447523 
L 257.650198 -55.327245 
L 258.385375 -55.203959 
L 259.120553 -55.086687 
L 259.855731 -55.049679 
L 260.590909 -55.287152 
L 261.326087 -55.41472 
L 262.061265 -55.563975 
L 262.796443 -55.261638 
L 263.531621 -55.108556 
L 264.266798 -54.955474 
L 265.001976 -55.108556 
L 265.737154 -54.955474 
L 266.472332 -55.257811 
L 267.20751 -54.802393 
L 267.942688 -54.955474 
L 268.677866 -55.108556 
L 269.413043 -55.231022 
L 270.148221 -55.231022 
L 270.883399 -55.231022 
L 271.618577 -55.231022 
L 272.353755 -55.058422 
L 273.088933 -55.062632 
L 273.824111 -55.062632 
L 274.559289 -55.193602 
L 275.294466 -54.819402 
L 276.029644 -54.627624 
L 276.764822 -54.725852 
L 277.5 -54.725852 
L 278.235178 -54.515364 
L 278.970356 -54.515364 
L 279.705534 -53.883901 
L 280.440711 -54.124458 
L 281.175889 -54.124458 
L 281.911067 -54.164551 
L 282.646245 -54.164551 
L 283.381423 -54.164551 
L 284.116601 -54.164551 
L 284.851779 -54.164551 
L 285.586957 -54.164551 
L 286.322134 -53.883901 
L 287.057312 -53.883901 
L 287.79249 -53.883901 
L 288.527668 -53.883901 
L 289.262846 -53.883901 
L 289.998024 -53.883901 
L 290.733202 -53.883901 
L 291.468379 -53.883901 
L 292.203557 -53.883901 
L 292.938735 -53.883901 
L 293.673913 -53.883901 
L 294.409091 -53.883901 
L 294.409091 -53.883901 
L 294.409091 -53.883901 
L 293.673913 -55.567802 
L 292.938735 -55.567802 
L 292.203557 -55.567802 
L 291.468379 -55.567802 
L 290.733202 -55.567802 
L 289.998024 -57.251703 
L 289.262846 -56.409753 
L 288.527668 -55.904582 
L 287.79249 -55.904582 
L 287.057312 -56.241362 
L 286.322134 -56.241362 
L 285.586957 -56.129102 
L 284.851779 -55.848452 
L 284.116601 -56.129102 
L 283.381423 -56.129102 
L 282.646245 -56.690403 
L 281.911067 -56.416769 
L 281.175889 -56.289474 
L 280.440711 -56.289474 
L 279.705534 -55.988777 
L 278.970356 -56.199265 
L 278.235178 -56.62024 
L 277.5 -57.251703 
L 276.764822 -57.251703 
L 276.029644 -57.064603 
L 275.294466 -57.438803 
L 274.559289 -57.625903 
L 273.824111 -57.420093 
L 273.088933 -57.925264 
L 272.353755 -57.925264 
L 271.618577 -57.925264 
L 270.883399 -58.767214 
L 270.148221 -58.767214 
L 269.413043 -58.767214 
L 268.677866 -58.476358 
L 267.942688 -58.476358 
L 267.20751 -58.480185 
L 266.472332 -58.62944 
L 265.737154 -58.323276 
L 265.001976 -58.62944 
L 264.266798 -58.935604 
L 263.531621 -58.935604 
L 262.796443 -58.935604 
L 262.061265 -58.935604 
L 261.326087 -58.476358 
L 260.590909 -57.813003 
L 259.855731 -57.640296 
L 259.120553 -57.495267 
L 258.385375 -58.213932 
L 257.650198 -58.334211 
L 256.91502 -58.574768 
L 256.179842 -58.815326 
L 255.444664 -59.416719 
L 254.709486 -59.777555 
L 253.974308 -59.657276 
L 253.23913 -59.540004 
L 252.503953 -60.138391 
L 251.768775 -60.378948 
L 251.033597 -60.499227 
L 250.298419 -60.860062 
L 249.563241 -61.584741 
L 248.828063 -62.303406 
L 248.092885 -62.904799 
L 247.357708 -63.74675 
L 246.62253 -64.107586 
L 245.887352 -64.708979 
L 245.152174 -64.829258 
L 244.416996 -64.829258 
L 243.681818 -65.310372 
L 242.94664 -65.791487 
L 242.211462 -65.911766 
L 241.476285 -66.232509 
L 240.741107 -67.582436 
L 240.005929 -66.726278 
L 239.270751 -67.355109 
L 238.535573 -68.19706 
L 237.800395 -68.407547 
L 237.065217 -67.751321 
L 236.33004 -69.635805 
L 235.594862 -69.97685 
L 234.859684 -70.91235 
L 234.124506 -71.658412 
L 233.389328 -72.222051 
L 232.65415 -73.810063 
L 231.918972 -74.654353 
L 231.183794 -74.184264 
L 230.448617 -75.405092 
L 229.713439 -76.148815 
L 228.978261 -76.901893 
L 228.243083 -76.623581 
L 227.507905 -77.554404 
L 226.772727 -79.989045 
L 226.037549 -79.993722 
L 225.302372 -80.830995 
L 224.567194 -81.200518 
L 223.832016 -81.764157 
L 223.096838 -82.977969 
L 222.36166 -83.448058 
L 221.626482 -83.822258 
L 220.891304 -84.009358 
L 220.156126 -84.84897 
L 219.420949 -83.573735 
L 218.685771 -85.080383 
L 217.950593 -84.291609 
L 217.215415 -86.232526 
L 216.480237 -86.502837 
L 215.745059 -86.41421 
L 215.009881 -84.53511 
L 214.274704 -84.78559 
L 213.539526 -85.038175 
L 212.804348 -85.80014 
L 212.06917 -85.878021 
L 211.333992 -85.120265 
L 210.598814 -85.62754 
L 209.863636 -85.962216 
L 209.128458 -87.732417 
L 208.393281 -88.746967 
L 207.658103 -87.058856 
L 206.922925 -87.395637 
L 206.187747 -88.323887 
L 205.452569 -89.079538 
L 204.717391 -88.237587 
L 203.982213 -89.165838 
L 203.247036 -92.52943 
L 202.511858 -92.449445 
L 201.77668 -94.133346 
L 201.041502 -95.730947 
L 200.306324 -97.665328 
L 199.571146 -98.176813 
L 198.835968 -98.511488 
L 198.100791 -99.269244 
L 197.365613 -99.873343 
L 196.630435 -102.550746 
L 195.895257 -101.6246 
L 195.160079 -103.476891 
L 194.424901 -102.973826 
L 193.689723 -104.325157 
L 192.954545 -107.019398 
L 192.219368 -108.696985 
L 191.48419 -110.467186 
L 190.749012 -112.906737 
L 190.013834 -113.752898 
L 189.278656 -117.28488 
L 188.543478 -117.964755 
L 187.8083 -117.28488 
L 187.073123 -119.899136 
L 186.337945 -119.223471 
L 185.602767 -118.463611 
L 184.867589 -118.295221 
L 184.132411 -117.705855 
L 183.397233 -119.983331 
L 182.662055 -121.412542 
L 181.926877 -122.338688 
L 181.1917 -125.129754 
L 180.456522 -126.041165 
L 179.721344 -127.133596 
L 178.986166 -127.228316 
L 178.250988 -129.493162 
L 177.51581 -131.174959 
L 176.780632 -133.53242 
L 176.045455 -135.216321 
L 175.310277 -137.152807 
L 174.575099 -140.695314 
L 173.839921 -141.615145 
L 173.104743 -143.974711 
L 172.369565 -145.742808 
L 171.634387 -147.087823 
L 170.899209 -147.344618 
L 170.164032 -149.1927 
L 169.428854 -152.150051 
L 168.693676 -155.172653 
L 167.958498 -155.936723 
L 167.22332 -155.599943 
L 166.488142 -157.443815 
L 165.752964 -158.207885 
L 165.017787 -160.815827 
L 164.282609 -163.000688 
L 163.547431 -166.87787 
L 162.812253 -170.243568 
L 162.077075 -173.104094 
L 161.341897 -174.036555 
L 160.606719 -175.2216 
L 159.871542 -178.751478 
L 159.136364 -181.862485 
L 158.401186 -185.903847 
L 157.666008 -189.69052 
L 156.93083 -194.323352 
L 156.195652 -200.22753 
L 155.460474 -201.982997 
L 154.725296 -204.005783 
L 153.990119 -204.174174 
L 153.254941 -202.751277 
L 152.519763 -203.330118 
L 151.784585 -207.38832 
L 151.049407 -211.671743 
L 150.314229 -214.199699 
L 149.579051 -215.538401 
L 148.843874 -220.425923 
L 148.108696 -220.432238 
L 147.373518 -225.812302 
L 146.63834 -225.982797 
L 145.903162 -228.759129 
L 145.167984 -231.036605 
L 144.432806 -233.821356 
L 143.697628 -236.766078 
L 142.962451 -239.113015 
L 142.227273 -241.472581 
L 141.492095 -238.86043 
L 140.756917 -238.86885 
L 140.021739 -241.979857 
L 139.286561 -243.350131 
L 138.551383 -244.842488 
L 137.816206 -246.189609 
L 137.081028 -248.039796 
L 136.34585 -247.19574 
L 135.610672 -246.616899 
L 134.875494 -245.345554 
L 134.140316 -243.493263 
L 133.405138 -245.600244 
L 132.66996 -247.78721 
L 131.934783 -249.050136 
L 131.199605 -249.892087 
L 130.464427 -253.270413 
L 129.729249 -256.290911 
L 128.994071 -258.229502 
L 128.258893 -261.761484 
L 127.523715 -261.931979 
L 126.788538 -263.037039 
L 126.05336 -261.769904 
L 125.318182 -263.535895 
L 124.583004 -264.291545 
L 123.847826 -262.100369 
L 123.112648 -262.611854 
L 122.37747 -261.342614 
L 121.642292 -261.681499 
L 120.907115 -256.122521 
L 120.171937 -253.600879 
L 119.436759 -251.418122 
L 118.701581 -256.962366 
L 117.966403 -259.490323 
L 117.231225 -258.311592 
L 116.496047 -254.7754 
L 115.76087 -252.584223 
L 115.025692 -254.604905 
L 114.290514 -257.223371 
L 113.555336 -258.985152 
L 112.820158 -259.917612 
L 112.08498 -261.931979 
L 111.349802 -262.437149 
L 110.614625 -266.733202 
L 109.879447 -270.273604 
L 109.144269 -272.961531 
L 108.409091 -276.243033 
L 107.673913 -275.579997 
L 106.938735 -280.5454 
L 106.203557 -283.414347 
L 105.468379 -285.424503 
L 104.733202 -287.786175 
L 103.998024 -288.215569 
L 103.262846 -287.781965 
L 102.527668 -285.938093 
L 101.79249 -292.242198 
L 101.057312 -290.055231 
L 100.322134 -298.314766 
L 99.586957 -300.261776 
L 98.851779 -304.2 
L 98.116601 -302.097229 
L 97.381423 -302.934969 
L 96.646245 -301.762553 
L 95.911067 -301.360522 
L 95.175889 -302.259304 
L 94.440711 -298.643127 
L 93.705534 -295.961514 
L 92.970356 -300.154428 
L 92.235178 -295.445819 
L 91.5 -292.749473 
L 90.764822 -291.242382 
L 90.029644 -291.061362 
L 89.294466 -288.577608 
L 88.559289 -286.937909 
L 87.824111 -280.452786 
L 87.088933 -278.688899 
L 86.353755 -276.167257 
L 85.618577 -272.207985 
L 84.883399 -272.21851 
L 84.148221 -267.488853 
L 83.413043 -265.053511 
L 82.677866 -257.892721 
L 81.942688 -252.333743 
L 81.20751 -251.668602 
L 80.472332 -249.475321 
L 79.737154 -250.226762 
L 79.001976 -247.53673 
L 78.266798 -245.015088 
L 77.531621 -244.671993 
L 76.796443 -238.60995 
L 76.061265 -236.420878 
L 75.326087 -234.913787 
L 74.590909 -231.032395 
L 73.855731 -228.514963 
L 73.120553 -224.721976 
L 72.385375 -222.196124 
L 71.650198 -217.900072 
L 70.91502 -210.570893 
L 70.179842 -208.886992 
L 69.444664 -199.543446 
L 68.709486 -192.386866 
L 67.974308 -183.039111 
L 67.23913 -173.274589 
L 66.503953 -164.604604 
L 65.768775 -158.46047 
L 65.033597 -149.87468 
L 64.298419 -141.783535 
L 63.563241 -133.957605 
L 62.828063 -127.219896 
L 62.092885 -118.051055 
L 61.357708 -111.391226 
L 60.62253 -100.443765 
L 59.887352 -88.911147 
L 59.152174 -76.534475 
L 58.416996 -60.619505 
L 57.681818 -52.2 
z
" id="m11e32bbf46" style="stroke:#ff7f0e;stroke-opacity:0.2;"/>
    </defs>
    <g clip-path="url(#pddbc301ab1)">
     <use style="fill:#ff7f0e;fill-opacity:0.2;stroke:#ff7f0e;stroke-opacity:0.2;" x="0" xlink:href="#m11e32bbf46" y="360"/>
    </g>
   </g>
   <g id="matplotlib.axis_1">
    <g id="xtick_1">
     <g id="line2d_1">
      <defs>
       <path d="M 0 0 
L 0 3.5 
" id="mbe1d0435ec" style="stroke:#000000;stroke-width:0.8;"/>
      </defs>
      <g>
       <use style="stroke:#000000;stroke-width:0.8;" x="57.681818" xlink:href="#mbe1d0435ec" y="320.4"/>
      </g>
     </g>
     <g id="text_1">
      <!-- 0 -->
      <defs>
       <path d="M 31.78125 66.40625 
Q 24.171875 66.40625 20.328125 58.90625 
Q 16.5 51.421875 16.5 36.375 
Q 16.5 21.390625 20.328125 13.890625 
Q 24.171875 6.390625 31.78125 6.390625 
Q 39.453125 6.390625 43.28125 13.890625 
Q 47.125 21.390625 47.125 36.375 
Q 47.125 51.421875 43.28125 58.90625 
Q 39.453125 66.40625 31.78125 66.40625 
z
M 31.78125 74.21875 
Q 44.046875 74.21875 50.515625 64.515625 
Q 56.984375 54.828125 56.984375 36.375 
Q 56.984375 17.96875 50.515625 8.265625 
Q 44.046875 -1.421875 31.78125 -1.421875 
Q 19.53125 -1.421875 13.0625 8.265625 
Q 6.59375 17.96875 6.59375 36.375 
Q 6.59375 54.828125 13.0625 64.515625 
Q 19.53125 74.21875 31.78125 74.21875 
z
" id="DejaVuSans-48"/>
      </defs>
      <g transform="translate(54.500568 334.998438)scale(0.1 -0.1)">
       <use xlink:href="#DejaVuSans-48"/>
      </g>
     </g>
    </g>
    <g id="xtick_2">
     <g id="line2d_2">
      <g>
       <use style="stroke:#000000;stroke-width:0.8;" x="94.440711" xlink:href="#mbe1d0435ec" y="320.4"/>
      </g>
     </g>
     <g id="text_2">
      <!-- 50 -->
      <defs>
       <path d="M 10.796875 72.90625 
L 49.515625 72.90625 
L 49.515625 64.59375 
L 19.828125 64.59375 
L 19.828125 46.734375 
Q 21.96875 47.46875 24.109375 47.828125 
Q 26.265625 48.1875 28.421875 48.1875 
Q 40.625 48.1875 47.75 41.5 
Q 54.890625 34.8125 54.890625 23.390625 
Q 54.890625 11.625 47.5625 5.09375 
Q 40.234375 -1.421875 26.90625 -1.421875 
Q 22.3125 -1.421875 17.546875 -0.640625 
Q 12.796875 0.140625 7.71875 1.703125 
L 7.71875 11.625 
Q 12.109375 9.234375 16.796875 8.0625 
Q 21.484375 6.890625 26.703125 6.890625 
Q 35.15625 6.890625 40.078125 11.328125 
Q 45.015625 15.765625 45.015625 23.390625 
Q 45.015625 31 40.078125 35.4375 
Q 35.15625 39.890625 26.703125 39.890625 
Q 22.75 39.890625 18.8125 39.015625 
Q 14.890625 38.140625 10.796875 36.28125 
z
" id="DejaVuSans-53"/>
      </defs>
      <g transform="translate(88.078211 334.998438)scale(0.1 -0.1)">
       <use xlink:href="#DejaVuSans-53"/>
       <use x="63.623047" xlink:href="#DejaVuSans-48"/>
      </g>
     </g>
    </g>
    <g id="xtick_3">
     <g id="line2d_3">
      <g>
       <use style="stroke:#000000;stroke-width:0.8;" x="131.199605" xlink:href="#mbe1d0435ec" y="320.4"/>
      </g>
     </g>
     <g id="text_3">
      <!-- 100 -->
      <defs>
       <path d="M 12.40625 8.296875 
L 28.515625 8.296875 
L 28.515625 63.921875 
L 10.984375 60.40625 
L 10.984375 69.390625 
L 28.421875 72.90625 
L 38.28125 72.90625 
L 38.28125 8.296875 
L 54.390625 8.296875 
L 54.390625 0 
L 12.40625 0 
z
" id="DejaVuSans-49"/>
      </defs>
      <g transform="translate(121.655855 334.998438)scale(0.1 -0.1)">
       <use xlink:href="#DejaVuSans-49"/>
       <use x="63.623047" xlink:href="#DejaVuSans-48"/>
       <use x="127.246094" xlink:href="#DejaVuSans-48"/>
      </g>
     </g>
    </g>
    <g id="xtick_4">
     <g id="line2d_4">
      <g>
       <use style="stroke:#000000;stroke-width:0.8;" x="167.958498" xlink:href="#mbe1d0435ec" y="320.4"/>
      </g>
     </g>
     <g id="text_4">
      <!-- 150 -->
      <g transform="translate(158.414748 334.998438)scale(0.1 -0.1)">
       <use xlink:href="#DejaVuSans-49"/>
       <use x="63.623047" xlink:href="#DejaVuSans-53"/>
       <use x="127.246094" xlink:href="#DejaVuSans-48"/>
      </g>
     </g>
    </g>
    <g id="xtick_5">
     <g id="line2d_5">
      <g>
       <use style="stroke:#000000;stroke-width:0.8;" x="204.717391" xlink:href="#mbe1d0435ec" y="320.4"/>
      </g>
     </g>
     <g id="text_5">
      <!-- 200 -->
      <defs>
       <path d="M 19.1875 8.296875 
L 53.609375 8.296875 
L 53.609375 0 
L 7.328125 0 
L 7.328125 8.296875 
Q 12.9375 14.109375 22.625 23.890625 
Q 32.328125 33.6875 34.8125 36.53125 
Q 39.546875 41.84375 41.421875 45.53125 
Q 43.3125 49.21875 43.3125 52.78125 
Q 43.3125 58.59375 39.234375 62.25 
Q 35.15625 65.921875 28.609375 65.921875 
Q 23.96875 65.921875 18.8125 64.3125 
Q 13.671875 62.703125 7.8125 59.421875 
L 7.8125 69.390625 
Q 13.765625 71.78125 18.9375 73 
Q 24.125 74.21875 28.421875 74.21875 
Q 39.75 74.21875 46.484375 68.546875 
Q 53.21875 62.890625 53.21875 53.421875 
Q 53.21875 48.921875 51.53125 44.890625 
Q 49.859375 40.875 45.40625 35.40625 
Q 44.1875 33.984375 37.640625 27.21875 
Q 31.109375 20.453125 19.1875 8.296875 
z
" id="DejaVuSans-50"/>
      </defs>
      <g transform="translate(195.173641 334.998438)scale(0.1 -0.1)">
       <use xlink:href="#DejaVuSans-50"/>
       <use x="63.623047" xlink:href="#DejaVuSans-48"/>
       <use x="127.246094" xlink:href="#DejaVuSans-48"/>
      </g>
     </g>
    </g>
    <g id="xtick_6">
     <g id="line2d_6">
      <g>
       <use style="stroke:#000000;stroke-width:0.8;" x="241.476285" xlink:href="#mbe1d0435ec" y="320.4"/>
      </g>
     </g>
     <g id="text_6">
      <!-- 250 -->
      <g transform="translate(231.932535 334.998438)scale(0.1 -0.1)">
       <use xlink:href="#DejaVuSans-50"/>
       <use x="63.623047" xlink:href="#DejaVuSans-53"/>
       <use x="127.246094" xlink:href="#DejaVuSans-48"/>
      </g>
     </g>
    </g>
    <g id="xtick_7">
     <g id="line2d_7">
      <g>
       <use style="stroke:#000000;stroke-width:0.8;" x="278.235178" xlink:href="#mbe1d0435ec" y="320.4"/>
      </g>
     </g>
     <g id="text_7">
      <!-- 300 -->
      <defs>
       <path d="M 40.578125 39.3125 
Q 47.65625 37.796875 51.625 33 
Q 55.609375 28.21875 55.609375 21.1875 
Q 55.609375 10.40625 48.1875 4.484375 
Q 40.765625 -1.421875 27.09375 -1.421875 
Q 22.515625 -1.421875 17.65625 -0.515625 
Q 12.796875 0.390625 7.625 2.203125 
L 7.625 11.71875 
Q 11.71875 9.328125 16.59375 8.109375 
Q 21.484375 6.890625 26.8125 6.890625 
Q 36.078125 6.890625 40.9375 10.546875 
Q 45.796875 14.203125 45.796875 21.1875 
Q 45.796875 27.640625 41.28125 31.265625 
Q 36.765625 34.90625 28.71875 34.90625 
L 20.21875 34.90625 
L 20.21875 43.015625 
L 29.109375 43.015625 
Q 36.375 43.015625 40.234375 45.921875 
Q 44.09375 48.828125 44.09375 54.296875 
Q 44.09375 59.90625 40.109375 62.90625 
Q 36.140625 65.921875 28.71875 65.921875 
Q 24.65625 65.921875 20.015625 65.03125 
Q 15.375 64.15625 9.8125 62.3125 
L 9.8125 71.09375 
Q 15.4375 72.65625 20.34375 73.4375 
Q 25.25 74.21875 29.59375 74.21875 
Q 40.828125 74.21875 47.359375 69.109375 
Q 53.90625 64.015625 53.90625 55.328125 
Q 53.90625 49.265625 50.4375 45.09375 
Q 46.96875 40.921875 40.578125 39.3125 
z
" id="DejaVuSans-51"/>
      </defs>
      <g transform="translate(268.691428 334.998438)scale(0.1 -0.1)">
       <use xlink:href="#DejaVuSans-51"/>
       <use x="63.623047" xlink:href="#DejaVuSans-48"/>
       <use x="127.246094" xlink:href="#DejaVuSans-48"/>
      </g>
     </g>
    </g>
    <g id="xtick_8">
     <g id="line2d_8">
      <g>
       <use style="stroke:#000000;stroke-width:0.8;" x="314.994071" xlink:href="#mbe1d0435ec" y="320.4"/>
      </g>
     </g>
     <g id="text_8">
      <!-- 350 -->
      <g transform="translate(305.450321 334.998438)scale(0.1 -0.1)">
       <use xlink:href="#DejaVuSans-51"/>
       <use x="63.623047" xlink:href="#DejaVuSans-53"/>
       <use x="127.246094" xlink:href="#DejaVuSans-48"/>
      </g>
     </g>
    </g>
    <g id="text_9">
     <!-- Temps (ticks) -->
     <defs>
      <path d="M -0.296875 72.90625 
L 61.375 72.90625 
L 61.375 64.59375 
L 35.5 64.59375 
L 35.5 0 
L 25.59375 0 
L 25.59375 64.59375 
L -0.296875 64.59375 
z
" id="DejaVuSans-84"/>
      <path d="M 56.203125 29.59375 
L 56.203125 25.203125 
L 14.890625 25.203125 
Q 15.484375 15.921875 20.484375 11.0625 
Q 25.484375 6.203125 34.421875 6.203125 
Q 39.59375 6.203125 44.453125 7.46875 
Q 49.3125 8.734375 54.109375 11.28125 
L 54.109375 2.78125 
Q 49.265625 0.734375 44.1875 -0.34375 
Q 39.109375 -1.421875 33.890625 -1.421875 
Q 20.796875 -1.421875 13.15625 6.1875 
Q 5.515625 13.8125 5.515625 26.8125 
Q 5.515625 40.234375 12.765625 48.109375 
Q 20.015625 56 32.328125 56 
Q 43.359375 56 49.78125 48.890625 
Q 56.203125 41.796875 56.203125 29.59375 
z
M 47.21875 32.234375 
Q 47.125 39.59375 43.09375 43.984375 
Q 39.0625 48.390625 32.421875 48.390625 
Q 24.90625 48.390625 20.390625 44.140625 
Q 15.875 39.890625 15.1875 32.171875 
z
" id="DejaVuSans-101"/>
      <path d="M 52 44.1875 
Q 55.375 50.25 60.0625 53.125 
Q 64.75 56 71.09375 56 
Q 79.640625 56 84.28125 50.015625 
Q 88.921875 44.046875 88.921875 33.015625 
L 88.921875 0 
L 79.890625 0 
L 79.890625 32.71875 
Q 79.890625 40.578125 77.09375 44.375 
Q 74.3125 48.1875 68.609375 48.1875 
Q 61.625 48.1875 57.5625 43.546875 
Q 53.515625 38.921875 53.515625 30.90625 
L 53.515625 0 
L 44.484375 0 
L 44.484375 32.71875 
Q 44.484375 40.625 41.703125 44.40625 
Q 38.921875 48.1875 33.109375 48.1875 
Q 26.21875 48.1875 22.15625 43.53125 
Q 18.109375 38.875 18.109375 30.90625 
L 18.109375 0 
L 9.078125 0 
L 9.078125 54.6875 
L 18.109375 54.6875 
L 18.109375 46.1875 
Q 21.1875 51.21875 25.484375 53.609375 
Q 29.78125 56 35.6875 56 
Q 41.65625 56 45.828125 52.96875 
Q 50 49.953125 52 44.1875 
z
" id="DejaVuSans-109"/>
      <path d="M 18.109375 8.203125 
L 18.109375 -20.796875 
L 9.078125 -20.796875 
L 9.078125 54.6875 
L 18.109375 54.6875 
L 18.109375 46.390625 
Q 20.953125 51.265625 25.265625 53.625 
Q 29.59375 56 35.59375 56 
Q 45.5625 56 51.78125 48.09375 
Q 58.015625 40.1875 58.015625 27.296875 
Q 58.015625 14.40625 51.78125 6.484375 
Q 45.5625 -1.421875 35.59375 -1.421875 
Q 29.59375 -1.421875 25.265625 0.953125 
Q 20.953125 3.328125 18.109375 8.203125 
z
M 48.6875 27.296875 
Q 48.6875 37.203125 44.609375 42.84375 
Q 40.53125 48.484375 33.40625 48.484375 
Q 26.265625 48.484375 22.1875 42.84375 
Q 18.109375 37.203125 18.109375 27.296875 
Q 18.109375 17.390625 22.1875 11.75 
Q 26.265625 6.109375 33.40625 6.109375 
Q 40.53125 6.109375 44.609375 11.75 
Q 48.6875 17.390625 48.6875 27.296875 
z
" id="DejaVuSans-112"/>
      <path d="M 44.28125 53.078125 
L 44.28125 44.578125 
Q 40.484375 46.53125 36.375 47.5 
Q 32.28125 48.484375 27.875 48.484375 
Q 21.1875 48.484375 17.84375 46.4375 
Q 14.5 44.390625 14.5 40.28125 
Q 14.5 37.15625 16.890625 35.375 
Q 19.28125 33.59375 26.515625 31.984375 
L 29.59375 31.296875 
Q 39.15625 29.25 43.1875 25.515625 
Q 47.21875 21.78125 47.21875 15.09375 
Q 47.21875 7.46875 41.1875 3.015625 
Q 35.15625 -1.421875 24.609375 -1.421875 
Q 20.21875 -1.421875 15.453125 -0.5625 
Q 10.6875 0.296875 5.421875 2 
L 5.421875 11.28125 
Q 10.40625 8.6875 15.234375 7.390625 
Q 20.0625 6.109375 24.8125 6.109375 
Q 31.15625 6.109375 34.5625 8.28125 
Q 37.984375 10.453125 37.984375 14.40625 
Q 37.984375 18.0625 35.515625 20.015625 
Q 33.0625 21.96875 24.703125 23.78125 
L 21.578125 24.515625 
Q 13.234375 26.265625 9.515625 29.90625 
Q 5.8125 33.546875 5.8125 39.890625 
Q 5.8125 47.609375 11.28125 51.796875 
Q 16.75 56 26.8125 56 
Q 31.78125 56 36.171875 55.265625 
Q 40.578125 54.546875 44.28125 53.078125 
z
" id="DejaVuSans-115"/>
      <path id="DejaVuSans-32"/>
      <path d="M 31 75.875 
Q 24.46875 64.65625 21.28125 53.65625 
Q 18.109375 42.671875 18.109375 31.390625 
Q 18.109375 20.125 21.3125 9.0625 
Q 24.515625 -2 31 -13.1875 
L 23.1875 -13.1875 
Q 15.875 -1.703125 12.234375 9.375 
Q 8.59375 20.453125 8.59375 31.390625 
Q 8.59375 42.28125 12.203125 53.3125 
Q 15.828125 64.359375 23.1875 75.875 
z
" id="DejaVuSans-40"/>
      <path d="M 18.3125 70.21875 
L 18.3125 54.6875 
L 36.8125 54.6875 
L 36.8125 47.703125 
L 18.3125 47.703125 
L 18.3125 18.015625 
Q 18.3125 11.328125 20.140625 9.421875 
Q 21.96875 7.515625 27.59375 7.515625 
L 36.8125 7.515625 
L 36.8125 0 
L 27.59375 0 
Q 17.1875 0 13.234375 3.875 
Q 9.28125 7.765625 9.28125 18.015625 
L 9.28125 47.703125 
L 2.6875 47.703125 
L 2.6875 54.6875 
L 9.28125 54.6875 
L 9.28125 70.21875 
z
" id="DejaVuSans-116"/>
      <path d="M 9.421875 54.6875 
L 18.40625 54.6875 
L 18.40625 0 
L 9.421875 0 
z
M 9.421875 75.984375 
L 18.40625 75.984375 
L 18.40625 64.59375 
L 9.421875 64.59375 
z
" id="DejaVuSans-105"/>
      <path d="M 48.78125 52.59375 
L 48.78125 44.1875 
Q 44.96875 46.296875 41.140625 47.34375 
Q 37.3125 48.390625 33.40625 48.390625 
Q 24.65625 48.390625 19.8125 42.84375 
Q 14.984375 37.3125 14.984375 27.296875 
Q 14.984375 17.28125 19.8125 11.734375 
Q 24.65625 6.203125 33.40625 6.203125 
Q 37.3125 6.203125 41.140625 7.25 
Q 44.96875 8.296875 48.78125 10.40625 
L 48.78125 2.09375 
Q 45.015625 0.34375 40.984375 -0.53125 
Q 36.96875 -1.421875 32.421875 -1.421875 
Q 20.0625 -1.421875 12.78125 6.34375 
Q 5.515625 14.109375 5.515625 27.296875 
Q 5.515625 40.671875 12.859375 48.328125 
Q 20.21875 56 33.015625 56 
Q 37.15625 56 41.109375 55.140625 
Q 45.0625 54.296875 48.78125 52.59375 
z
" id="DejaVuSans-99"/>
      <path d="M 9.078125 75.984375 
L 18.109375 75.984375 
L 18.109375 31.109375 
L 44.921875 54.6875 
L 56.390625 54.6875 
L 27.390625 29.109375 
L 57.625 0 
L 45.90625 0 
L 18.109375 26.703125 
L 18.109375 0 
L 9.078125 0 
z
" id="DejaVuSans-107"/>
      <path d="M 8.015625 75.875 
L 15.828125 75.875 
Q 23.140625 64.359375 26.78125 53.3125 
Q 30.421875 42.28125 30.421875 31.390625 
Q 30.421875 20.453125 26.78125 9.375 
Q 23.140625 -1.703125 15.828125 -13.1875 
L 8.015625 -13.1875 
Q 14.5 -2 17.703125 9.0625 
Q 20.90625 20.125 20.90625 31.390625 
Q 20.90625 42.671875 17.703125 53.65625 
Q 14.5 64.65625 8.015625 75.875 
z
" id="DejaVuSans-41"/>
     </defs>
     <g transform="translate(150.644531 348.676562)scale(0.1 -0.1)">
      <use xlink:href="#DejaVuSans-84"/>
      <use x="60.818359" xlink:href="#DejaVuSans-101"/>
      <use x="122.341797" xlink:href="#DejaVuSans-109"/>
      <use x="219.753906" xlink:href="#DejaVuSans-112"/>
      <use x="283.230469" xlink:href="#DejaVuSans-115"/>
      <use x="335.330078" xlink:href="#DejaVuSans-32"/>
      <use x="367.117188" xlink:href="#DejaVuSans-40"/>
      <use x="406.130859" xlink:href="#DejaVuSans-116"/>
      <use x="445.339844" xlink:href="#DejaVuSans-105"/>
      <use x="473.123047" xlink:href="#DejaVuSans-99"/>
      <use x="528.103516" xlink:href="#DejaVuSans-107"/>
      <use x="586.013672" xlink:href="#DejaVuSans-115"/>
      <use x="638.113281" xlink:href="#DejaVuSans-41"/>
     </g>
    </g>
   </g>
   <g id="matplotlib.axis_2">
    <g id="ytick_1">
     <g id="line2d_9">
      <defs>
       <path d="M 0 0 
L -3.5 0 
" id="m5046b3af67" style="stroke:#000000;stroke-width:0.8;"/>
      </defs>
      <g>
       <use style="stroke:#000000;stroke-width:0.8;" x="45" xlink:href="#m5046b3af67" y="307.8"/>
      </g>
     </g>
     <g id="text_10">
      <!-- 0 -->
      <g transform="translate(31.6375 311.599219)scale(0.1 -0.1)">
       <use xlink:href="#DejaVuSans-48"/>
      </g>
     </g>
    </g>
    <g id="ytick_2">
     <g id="line2d_10">
      <g>
       <use style="stroke:#000000;stroke-width:0.8;" x="45" xlink:href="#m5046b3af67" y="274.121979"/>
      </g>
     </g>
     <g id="text_11">
      <!-- 20 -->
      <g transform="translate(25.275 277.921198)scale(0.1 -0.1)">
       <use xlink:href="#DejaVuSans-50"/>
       <use x="63.623047" xlink:href="#DejaVuSans-48"/>
      </g>
     </g>
    </g>
    <g id="ytick_3">
     <g id="line2d_11">
      <g>
       <use style="stroke:#000000;stroke-width:0.8;" x="45" xlink:href="#m5046b3af67" y="240.443959"/>
      </g>
     </g>
     <g id="text_12">
      <!-- 40 -->
      <defs>
       <path d="M 37.796875 64.3125 
L 12.890625 25.390625 
L 37.796875 25.390625 
z
M 35.203125 72.90625 
L 47.609375 72.90625 
L 47.609375 25.390625 
L 58.015625 25.390625 
L 58.015625 17.1875 
L 47.609375 17.1875 
L 47.609375 0 
L 37.796875 0 
L 37.796875 17.1875 
L 4.890625 17.1875 
L 4.890625 26.703125 
z
" id="DejaVuSans-52"/>
      </defs>
      <g transform="translate(25.275 244.243177)scale(0.1 -0.1)">
       <use xlink:href="#DejaVuSans-52"/>
       <use x="63.623047" xlink:href="#DejaVuSans-48"/>
      </g>
     </g>
    </g>
    <g id="ytick_4">
     <g id="line2d_12">
      <g>
       <use style="stroke:#000000;stroke-width:0.8;" x="45" xlink:href="#m5046b3af67" y="206.765938"/>
      </g>
     </g>
     <g id="text_13">
      <!-- 60 -->
      <defs>
       <path d="M 33.015625 40.375 
Q 26.375 40.375 22.484375 35.828125 
Q 18.609375 31.296875 18.609375 23.390625 
Q 18.609375 15.53125 22.484375 10.953125 
Q 26.375 6.390625 33.015625 6.390625 
Q 39.65625 6.390625 43.53125 10.953125 
Q 47.40625 15.53125 47.40625 23.390625 
Q 47.40625 31.296875 43.53125 35.828125 
Q 39.65625 40.375 33.015625 40.375 
z
M 52.59375 71.296875 
L 52.59375 62.3125 
Q 48.875 64.0625 45.09375 64.984375 
Q 41.3125 65.921875 37.59375 65.921875 
Q 27.828125 65.921875 22.671875 59.328125 
Q 17.53125 52.734375 16.796875 39.40625 
Q 19.671875 43.65625 24.015625 45.921875 
Q 28.375 48.1875 33.59375 48.1875 
Q 44.578125 48.1875 50.953125 41.515625 
Q 57.328125 34.859375 57.328125 23.390625 
Q 57.328125 12.15625 50.6875 5.359375 
Q 44.046875 -1.421875 33.015625 -1.421875 
Q 20.359375 -1.421875 13.671875 8.265625 
Q 6.984375 17.96875 6.984375 36.375 
Q 6.984375 53.65625 15.1875 63.9375 
Q 23.390625 74.21875 37.203125 74.21875 
Q 40.921875 74.21875 44.703125 73.484375 
Q 48.484375 72.75 52.59375 71.296875 
z
" id="DejaVuSans-54"/>
      </defs>
      <g transform="translate(25.275 210.565157)scale(0.1 -0.1)">
       <use xlink:href="#DejaVuSans-54"/>
       <use x="63.623047" xlink:href="#DejaVuSans-48"/>
      </g>
     </g>
    </g>
    <g id="ytick_5">
     <g id="line2d_13">
      <g>
       <use style="stroke:#000000;stroke-width:0.8;" x="45" xlink:href="#m5046b3af67" y="173.087917"/>
      </g>
     </g>
     <g id="text_14">
      <!-- 80 -->
      <defs>
       <path d="M 31.78125 34.625 
Q 24.75 34.625 20.71875 30.859375 
Q 16.703125 27.09375 16.703125 20.515625 
Q 16.703125 13.921875 20.71875 10.15625 
Q 24.75 6.390625 31.78125 6.390625 
Q 38.8125 6.390625 42.859375 10.171875 
Q 46.921875 13.96875 46.921875 20.515625 
Q 46.921875 27.09375 42.890625 30.859375 
Q 38.875 34.625 31.78125 34.625 
z
M 21.921875 38.8125 
Q 15.578125 40.375 12.03125 44.71875 
Q 8.5 49.078125 8.5 55.328125 
Q 8.5 64.0625 14.71875 69.140625 
Q 20.953125 74.21875 31.78125 74.21875 
Q 42.671875 74.21875 48.875 69.140625 
Q 55.078125 64.0625 55.078125 55.328125 
Q 55.078125 49.078125 51.53125 44.71875 
Q 48 40.375 41.703125 38.8125 
Q 48.828125 37.15625 52.796875 32.3125 
Q 56.78125 27.484375 56.78125 20.515625 
Q 56.78125 9.90625 50.3125 4.234375 
Q 43.84375 -1.421875 31.78125 -1.421875 
Q 19.734375 -1.421875 13.25 4.234375 
Q 6.78125 9.90625 6.78125 20.515625 
Q 6.78125 27.484375 10.78125 32.3125 
Q 14.796875 37.15625 21.921875 38.8125 
z
M 18.3125 54.390625 
Q 18.3125 48.734375 21.84375 45.5625 
Q 25.390625 42.390625 31.78125 42.390625 
Q 38.140625 42.390625 41.71875 45.5625 
Q 45.3125 48.734375 45.3125 54.390625 
Q 45.3125 60.0625 41.71875 63.234375 
Q 38.140625 66.40625 31.78125 66.40625 
Q 25.390625 66.40625 21.84375 63.234375 
Q 18.3125 60.0625 18.3125 54.390625 
z
" id="DejaVuSans-56"/>
      </defs>
      <g transform="translate(25.275 176.887136)scale(0.1 -0.1)">
       <use xlink:href="#DejaVuSans-56"/>
       <use x="63.623047" xlink:href="#DejaVuSans-48"/>
      </g>
     </g>
    </g>
    <g id="ytick_6">
     <g id="line2d_14">
      <g>
       <use style="stroke:#000000;stroke-width:0.8;" x="45" xlink:href="#m5046b3af67" y="139.409896"/>
      </g>
     </g>
     <g id="text_15">
      <!-- 100 -->
      <g transform="translate(18.9125 143.209115)scale(0.1 -0.1)">
       <use xlink:href="#DejaVuSans-49"/>
       <use x="63.623047" xlink:href="#DejaVuSans-48"/>
       <use x="127.246094" xlink:href="#DejaVuSans-48"/>
      </g>
     </g>
    </g>
    <g id="ytick_7">
     <g id="line2d_15">
      <g>
       <use style="stroke:#000000;stroke-width:0.8;" x="45" xlink:href="#m5046b3af67" y="105.731876"/>
      </g>
     </g>
     <g id="text_16">
      <!-- 120 -->
      <g transform="translate(18.9125 109.531094)scale(0.1 -0.1)">
       <use xlink:href="#DejaVuSans-49"/>
       <use x="63.623047" xlink:href="#DejaVuSans-50"/>
       <use x="127.246094" xlink:href="#DejaVuSans-48"/>
      </g>
     </g>
    </g>
    <g id="ytick_8">
     <g id="line2d_16">
      <g>
       <use style="stroke:#000000;stroke-width:0.8;" x="45" xlink:href="#m5046b3af67" y="72.053855"/>
      </g>
     </g>
     <g id="text_17">
      <!-- 140 -->
      <g transform="translate(18.9125 75.853074)scale(0.1 -0.1)">
       <use xlink:href="#DejaVuSans-49"/>
       <use x="63.623047" xlink:href="#DejaVuSans-52"/>
       <use x="127.246094" xlink:href="#DejaVuSans-48"/>
      </g>
     </g>
    </g>
    <g id="text_18">
     <!-- Nombre d'agents symptomatique -->
     <defs>
      <path d="M 9.8125 72.90625 
L 23.09375 72.90625 
L 55.421875 11.921875 
L 55.421875 72.90625 
L 64.984375 72.90625 
L 64.984375 0 
L 51.703125 0 
L 19.390625 60.984375 
L 19.390625 0 
L 9.8125 0 
z
" id="DejaVuSans-78"/>
      <path d="M 30.609375 48.390625 
Q 23.390625 48.390625 19.1875 42.75 
Q 14.984375 37.109375 14.984375 27.296875 
Q 14.984375 17.484375 19.15625 11.84375 
Q 23.34375 6.203125 30.609375 6.203125 
Q 37.796875 6.203125 41.984375 11.859375 
Q 46.1875 17.53125 46.1875 27.296875 
Q 46.1875 37.015625 41.984375 42.703125 
Q 37.796875 48.390625 30.609375 48.390625 
z
M 30.609375 56 
Q 42.328125 56 49.015625 48.375 
Q 55.71875 40.765625 55.71875 27.296875 
Q 55.71875 13.875 49.015625 6.21875 
Q 42.328125 -1.421875 30.609375 -1.421875 
Q 18.84375 -1.421875 12.171875 6.21875 
Q 5.515625 13.875 5.515625 27.296875 
Q 5.515625 40.765625 12.171875 48.375 
Q 18.84375 56 30.609375 56 
z
" id="DejaVuSans-111"/>
      <path d="M 48.6875 27.296875 
Q 48.6875 37.203125 44.609375 42.84375 
Q 40.53125 48.484375 33.40625 48.484375 
Q 26.265625 48.484375 22.1875 42.84375 
Q 18.109375 37.203125 18.109375 27.296875 
Q 18.109375 17.390625 22.1875 11.75 
Q 26.265625 6.109375 33.40625 6.109375 
Q 40.53125 6.109375 44.609375 11.75 
Q 48.6875 17.390625 48.6875 27.296875 
z
M 18.109375 46.390625 
Q 20.953125 51.265625 25.265625 53.625 
Q 29.59375 56 35.59375 56 
Q 45.5625 56 51.78125 48.09375 
Q 58.015625 40.1875 58.015625 27.296875 
Q 58.015625 14.40625 51.78125 6.484375 
Q 45.5625 -1.421875 35.59375 -1.421875 
Q 29.59375 -1.421875 25.265625 0.953125 
Q 20.953125 3.328125 18.109375 8.203125 
L 18.109375 0 
L 9.078125 0 
L 9.078125 75.984375 
L 18.109375 75.984375 
z
" id="DejaVuSans-98"/>
      <path d="M 41.109375 46.296875 
Q 39.59375 47.171875 37.8125 47.578125 
Q 36.03125 48 33.890625 48 
Q 26.265625 48 22.1875 43.046875 
Q 18.109375 38.09375 18.109375 28.8125 
L 18.109375 0 
L 9.078125 0 
L 9.078125 54.6875 
L 18.109375 54.6875 
L 18.109375 46.1875 
Q 20.953125 51.171875 25.484375 53.578125 
Q 30.03125 56 36.53125 56 
Q 37.453125 56 38.578125 55.875 
Q 39.703125 55.765625 41.0625 55.515625 
z
" id="DejaVuSans-114"/>
      <path d="M 45.40625 46.390625 
L 45.40625 75.984375 
L 54.390625 75.984375 
L 54.390625 0 
L 45.40625 0 
L 45.40625 8.203125 
Q 42.578125 3.328125 38.25 0.953125 
Q 33.9375 -1.421875 27.875 -1.421875 
Q 17.96875 -1.421875 11.734375 6.484375 
Q 5.515625 14.40625 5.515625 27.296875 
Q 5.515625 40.1875 11.734375 48.09375 
Q 17.96875 56 27.875 56 
Q 33.9375 56 38.25 53.625 
Q 42.578125 51.265625 45.40625 46.390625 
z
M 14.796875 27.296875 
Q 14.796875 17.390625 18.875 11.75 
Q 22.953125 6.109375 30.078125 6.109375 
Q 37.203125 6.109375 41.296875 11.75 
Q 45.40625 17.390625 45.40625 27.296875 
Q 45.40625 37.203125 41.296875 42.84375 
Q 37.203125 48.484375 30.078125 48.484375 
Q 22.953125 48.484375 18.875 42.84375 
Q 14.796875 37.203125 14.796875 27.296875 
z
" id="DejaVuSans-100"/>
      <path d="M 17.921875 72.90625 
L 17.921875 45.796875 
L 9.625 45.796875 
L 9.625 72.90625 
z
" id="DejaVuSans-39"/>
      <path d="M 34.28125 27.484375 
Q 23.390625 27.484375 19.1875 25 
Q 14.984375 22.515625 14.984375 16.5 
Q 14.984375 11.71875 18.140625 8.90625 
Q 21.296875 6.109375 26.703125 6.109375 
Q 34.1875 6.109375 38.703125 11.40625 
Q 43.21875 16.703125 43.21875 25.484375 
L 43.21875 27.484375 
z
M 52.203125 31.203125 
L 52.203125 0 
L 43.21875 0 
L 43.21875 8.296875 
Q 40.140625 3.328125 35.546875 0.953125 
Q 30.953125 -1.421875 24.3125 -1.421875 
Q 15.921875 -1.421875 10.953125 3.296875 
Q 6 8.015625 6 15.921875 
Q 6 25.140625 12.171875 29.828125 
Q 18.359375 34.515625 30.609375 34.515625 
L 43.21875 34.515625 
L 43.21875 35.40625 
Q 43.21875 41.609375 39.140625 45 
Q 35.0625 48.390625 27.6875 48.390625 
Q 23 48.390625 18.546875 47.265625 
Q 14.109375 46.140625 10.015625 43.890625 
L 10.015625 52.203125 
Q 14.9375 54.109375 19.578125 55.046875 
Q 24.21875 56 28.609375 56 
Q 40.484375 56 46.34375 49.84375 
Q 52.203125 43.703125 52.203125 31.203125 
z
" id="DejaVuSans-97"/>
      <path d="M 45.40625 27.984375 
Q 45.40625 37.75 41.375 43.109375 
Q 37.359375 48.484375 30.078125 48.484375 
Q 22.859375 48.484375 18.828125 43.109375 
Q 14.796875 37.75 14.796875 27.984375 
Q 14.796875 18.265625 18.828125 12.890625 
Q 22.859375 7.515625 30.078125 7.515625 
Q 37.359375 7.515625 41.375 12.890625 
Q 45.40625 18.265625 45.40625 27.984375 
z
M 54.390625 6.78125 
Q 54.390625 -7.171875 48.1875 -13.984375 
Q 42 -20.796875 29.203125 -20.796875 
Q 24.46875 -20.796875 20.265625 -20.09375 
Q 16.0625 -19.390625 12.109375 -17.921875 
L 12.109375 -9.1875 
Q 16.0625 -11.328125 19.921875 -12.34375 
Q 23.78125 -13.375 27.78125 -13.375 
Q 36.625 -13.375 41.015625 -8.765625 
Q 45.40625 -4.15625 45.40625 5.171875 
L 45.40625 9.625 
Q 42.625 4.78125 38.28125 2.390625 
Q 33.9375 0 27.875 0 
Q 17.828125 0 11.671875 7.65625 
Q 5.515625 15.328125 5.515625 27.984375 
Q 5.515625 40.671875 11.671875 48.328125 
Q 17.828125 56 27.875 56 
Q 33.9375 56 38.28125 53.609375 
Q 42.625 51.21875 45.40625 46.390625 
L 45.40625 54.6875 
L 54.390625 54.6875 
z
" id="DejaVuSans-103"/>
      <path d="M 54.890625 33.015625 
L 54.890625 0 
L 45.90625 0 
L 45.90625 32.71875 
Q 45.90625 40.484375 42.875 44.328125 
Q 39.84375 48.1875 33.796875 48.1875 
Q 26.515625 48.1875 22.3125 43.546875 
Q 18.109375 38.921875 18.109375 30.90625 
L 18.109375 0 
L 9.078125 0 
L 9.078125 54.6875 
L 18.109375 54.6875 
L 18.109375 46.1875 
Q 21.34375 51.125 25.703125 53.5625 
Q 30.078125 56 35.796875 56 
Q 45.21875 56 50.046875 50.171875 
Q 54.890625 44.34375 54.890625 33.015625 
z
" id="DejaVuSans-110"/>
      <path d="M 32.171875 -5.078125 
Q 28.375 -14.84375 24.75 -17.8125 
Q 21.140625 -20.796875 15.09375 -20.796875 
L 7.90625 -20.796875 
L 7.90625 -13.28125 
L 13.1875 -13.28125 
Q 16.890625 -13.28125 18.9375 -11.515625 
Q 21 -9.765625 23.484375 -3.21875 
L 25.09375 0.875 
L 2.984375 54.6875 
L 12.5 54.6875 
L 29.59375 11.921875 
L 46.6875 54.6875 
L 56.203125 54.6875 
z
" id="DejaVuSans-121"/>
      <path d="M 14.796875 27.296875 
Q 14.796875 17.390625 18.875 11.75 
Q 22.953125 6.109375 30.078125 6.109375 
Q 37.203125 6.109375 41.296875 11.75 
Q 45.40625 17.390625 45.40625 27.296875 
Q 45.40625 37.203125 41.296875 42.84375 
Q 37.203125 48.484375 30.078125 48.484375 
Q 22.953125 48.484375 18.875 42.84375 
Q 14.796875 37.203125 14.796875 27.296875 
z
M 45.40625 8.203125 
Q 42.578125 3.328125 38.25 0.953125 
Q 33.9375 -1.421875 27.875 -1.421875 
Q 17.96875 -1.421875 11.734375 6.484375 
Q 5.515625 14.40625 5.515625 27.296875 
Q 5.515625 40.1875 11.734375 48.09375 
Q 17.96875 56 27.875 56 
Q 33.9375 56 38.25 53.625 
Q 42.578125 51.265625 45.40625 46.390625 
L 45.40625 54.6875 
L 54.390625 54.6875 
L 54.390625 -20.796875 
L 45.40625 -20.796875 
z
" id="DejaVuSans-113"/>
      <path d="M 8.5 21.578125 
L 8.5 54.6875 
L 17.484375 54.6875 
L 17.484375 21.921875 
Q 17.484375 14.15625 20.5 10.265625 
Q 23.53125 6.390625 29.59375 6.390625 
Q 36.859375 6.390625 41.078125 11.03125 
Q 45.3125 15.671875 45.3125 23.6875 
L 45.3125 54.6875 
L 54.296875 54.6875 
L 54.296875 0 
L 45.3125 0 
L 45.3125 8.40625 
Q 42.046875 3.421875 37.71875 1 
Q 33.40625 -1.421875 27.6875 -1.421875 
Q 18.265625 -1.421875 13.375 4.4375 
Q 8.5 10.296875 8.5 21.578125 
z
M 31.109375 56 
z
" id="DejaVuSans-117"/>
     </defs>
     <g transform="translate(12.832812 265.88125)rotate(-90)scale(0.1 -0.1)">
      <use xlink:href="#DejaVuSans-78"/>
      <use x="74.804688" xlink:href="#DejaVuSans-111"/>
      <use x="135.986328" xlink:href="#DejaVuSans-109"/>
      <use x="233.398438" xlink:href="#DejaVuSans-98"/>
      <use x="296.875" xlink:href="#DejaVuSans-114"/>
      <use x="337.957031" xlink:href="#DejaVuSans-101"/>
      <use x="399.480469" xlink:href="#DejaVuSans-32"/>
      <use x="431.267578" xlink:href="#DejaVuSans-100"/>
      <use x="494.744141" xlink:href="#DejaVuSans-39"/>
      <use x="522.234375" xlink:href="#DejaVuSans-97"/>
      <use x="583.513672" xlink:href="#DejaVuSans-103"/>
      <use x="646.990234" xlink:href="#DejaVuSans-101"/>
      <use x="708.513672" xlink:href="#DejaVuSans-110"/>
      <use x="771.892578" xlink:href="#DejaVuSans-116"/>
      <use x="811.101562" xlink:href="#DejaVuSans-115"/>
      <use x="863.201172" xlink:href="#DejaVuSans-32"/>
      <use x="894.988281" xlink:href="#DejaVuSans-115"/>
      <use x="947.087891" xlink:href="#DejaVuSans-121"/>
      <use x="1006.267578" xlink:href="#DejaVuSans-109"/>
      <use x="1103.679688" xlink:href="#DejaVuSans-112"/>
      <use x="1167.15625" xlink:href="#DejaVuSans-116"/>
      <use x="1206.365234" xlink:href="#DejaVuSans-111"/>
      <use x="1267.546875" xlink:href="#DejaVuSans-109"/>
      <use x="1364.958984" xlink:href="#DejaVuSans-97"/>
      <use x="1426.238281" xlink:href="#DejaVuSans-116"/>
      <use x="1465.447266" xlink:href="#DejaVuSans-105"/>
      <use x="1493.230469" xlink:href="#DejaVuSans-113"/>
      <use x="1556.707031" xlink:href="#DejaVuSans-117"/>
      <use x="1620.085938" xlink:href="#DejaVuSans-101"/>
     </g>
    </g>
   </g>
   <g id="line2d_17">
    <path clip-path="url(#pddbc301ab1)" d="M 57.681818 307.8 
L 58.416996 307.12644 
L 59.152174 305.358343 
L 60.62253 300.13825 
L 61.357708 296.433668 
L 62.092885 293.655231 
L 62.828063 288.603528 
L 63.563241 284.983141 
L 64.298419 280.099828 
L 65.033597 276.14266 
L 65.768775 271.427738 
L 66.503953 268.144131 
L 67.23913 262.755647 
L 67.974308 261.071746 
L 68.709486 256.356823 
L 69.444664 252.652241 
L 70.179842 249.873804 
L 70.91502 248.189903 
L 72.385375 243.30659 
L 73.855731 237.833912 
L 74.590909 234.381915 
L 75.326087 231.771868 
L 76.061265 229.751187 
L 76.796443 227.30953 
L 77.531621 225.96241 
L 79.737154 220.321341 
L 80.472332 221.163292 
L 81.20751 220.489731 
L 81.942688 218.216465 
L 82.677866 216.616759 
L 83.413043 216.279979 
L 84.148221 212.575396 
L 84.883399 210.386325 
L 85.618577 208.786619 
L 86.353755 208.702424 
L 87.088933 207.523693 
L 87.824111 205.923987 
L 88.559289 205.334622 
L 89.294466 204.913647 
L 90.029644 204.829452 
L 90.764822 202.724575 
L 91.5 201.461649 
L 92.235178 199.946139 
L 92.970356 200.956479 
L 93.705534 198.767408 
L 94.440711 199.104188 
L 95.175889 198.093847 
L 95.911067 196.241556 
L 96.646245 196.746727 
L 97.381423 199.019993 
L 98.116601 197.841262 
L 98.851779 197.167702 
L 99.586957 195.567996 
L 100.322134 195.904776 
L 101.057312 197.504482 
L 101.79249 197.420287 
L 102.527668 195.904776 
L 103.262846 196.746727 
L 103.998024 199.104188 
L 104.733202 196.999312 
L 105.468379 196.073166 
L 106.203557 193.884095 
L 106.938735 192.705364 
L 107.673913 193.210534 
L 108.409091 191.863414 
L 109.144269 192.536974 
L 109.879447 190.432098 
L 110.614625 192.031804 
L 111.349802 194.30507 
L 112.08498 194.389265 
L 112.820158 191.189853 
L 113.555336 193.46312 
L 114.290514 193.46312 
L 115.025692 192.873754 
L 115.76087 193.378925 
L 116.496047 195.315411 
L 117.231225 195.820581 
L 117.966403 197.083507 
L 118.701581 197.251897 
L 119.436759 199.609358 
L 120.171937 201.545845 
L 120.907115 202.97716 
L 121.642292 201.882625 
L 122.37747 202.3036 
L 123.112648 202.892965 
L 123.847826 204.829452 
L 125.318182 206.934328 
L 126.05336 207.860473 
L 126.788538 209.039204 
L 127.523715 211.228276 
L 128.258893 212.827981 
L 128.994071 212.322811 
L 129.729249 215.438028 
L 130.464427 217.374514 
L 131.199605 216.616759 
L 131.934783 217.627099 
L 133.405138 220.489731 
L 134.140316 221.331682 
L 134.875494 223.773338 
L 135.610672 223.015583 
L 136.34585 222.847193 
L 137.081028 224.194313 
L 137.816206 224.783679 
L 139.286561 228.067286 
L 140.021739 230.508942 
L 141.492095 232.108648 
L 143.697628 237.328742 
L 144.432806 237.076156 
L 145.167984 239.433618 
L 145.903162 241.285909 
L 146.63834 241.033324 
L 147.373518 241.117519 
L 148.108696 241.959469 
L 148.843874 245.074686 
L 149.579051 247.011173 
L 150.314229 248.526683 
L 151.049407 249.116049 
L 151.784585 251.13673 
L 152.519763 252.062876 
L 153.254941 252.652241 
L 153.990119 254.083557 
L 156.195652 255.683263 
L 156.93083 256.356823 
L 157.666008 256.861994 
L 158.401186 256.441018 
L 159.136364 256.861994 
L 159.871542 259.051065 
L 161.341897 260.482381 
L 162.077075 263.260818 
L 162.812253 263.092427 
L 163.547431 263.765988 
L 164.282609 265.534084 
L 165.017787 264.944719 
L 165.752964 264.776328 
L 166.488142 265.534084 
L 167.22332 267.386375 
L 168.693676 269.743837 
L 169.428854 269.491251 
L 170.164032 269.575446 
L 171.634387 274.037784 
L 172.369565 273.785199 
L 173.104743 274.542955 
L 173.839921 275.553295 
L 174.575099 276.900416 
L 175.310277 276.900416 
L 176.045455 276.479441 
L 177.51581 277.994952 
L 178.250988 277.489781 
L 179.721344 277.994952 
L 180.456522 278.500122 
L 181.1917 278.331732 
L 181.926877 278.921097 
L 182.662055 279.173682 
L 183.397233 279.931438 
L 184.132411 280.857583 
L 184.867589 280.773388 
L 186.337945 281.446949 
L 187.073123 281.362754 
L 187.8083 280.857583 
L 190.013834 283.13085 
L 190.749012 283.46763 
L 192.954545 284.056995 
L 193.689723 284.814751 
L 194.424901 284.646361 
L 195.160079 285.993482 
L 195.895257 286.835432 
L 196.630435 287.256407 
L 197.365613 287.088017 
L 198.100791 286.751237 
L 198.835968 288.014163 
L 199.571146 288.771918 
L 200.306324 289.024503 
L 201.041502 289.698064 
L 201.77668 291.12938 
L 202.511858 292.223915 
L 203.247036 292.055525 
L 204.717391 292.981671 
L 205.452569 293.234256 
L 206.187747 292.897476 
L 206.922925 293.150061 
L 208.393281 293.234256 
L 209.128458 292.813281 
L 211.333992 293.318451 
L 212.06917 293.823621 
L 213.539526 294.240165 
L 214.274704 294.151539 
L 215.009881 294.683297 
L 216.480237 295.037803 
L 217.215415 295.480935 
L 218.685771 295.319322 
L 219.420949 295.715534 
L 220.156126 294.960255 
L 220.891304 295.486474 
L 221.626482 295.696961 
L 222.36166 295.275986 
L 223.096838 293.767491 
L 223.832016 293.542971 
L 224.567194 293.655231 
L 225.302372 293.542971 
L 226.037549 293.206191 
L 226.772727 294.104272 
L 227.507905 293.879751 
L 228.243083 293.879751 
L 228.978261 293.542971 
L 229.713439 292.256298 
L 230.448617 292.385829 
L 231.183794 293.551607 
L 231.918972 294.06973 
L 232.65415 292.925541 
L 233.389328 292.797973 
L 234.124506 292.185645 
L 234.859684 292.491809 
L 235.594862 292.644891 
L 237.065217 289.950649 
L 237.800395 291.46616 
L 238.535573 290.455819 
L 239.270751 290.7926 
L 240.005929 290.624209 
L 240.741107 290.287429 
L 242.211462 291.97133 
L 242.94664 292.30811 
L 244.416996 294.833962 
L 245.152174 295.170742 
L 245.887352 294.702992 
L 246.62253 292.855378 
L 247.357708 292.013428 
L 248.092885 292.644891 
L 248.828063 292.644891 
L 250.298419 292.163776 
L 251.033597 290.96099 
L 251.768775 291.52229 
L 252.503953 292.644891 
L 253.23913 292.925541 
L 253.974308 292.08359 
L 255.444664 292.08359 
L 256.179842 293.486841 
L 256.91502 294.048142 
L 257.650198 293.486841 
L 258.385375 295.170742 
L 259.120553 296.573993 
L 259.855731 296.293343 
L 260.590909 297.415944 
L 261.326087 297.023033 
L 262.061265 296.349473 
L 262.796443 296.012693 
L 264.266798 298.033374 
L 265.001976 300.390835 
L 265.737154 300.390835 
L 266.472332 300.054055 
L 267.20751 300.054055 
L 267.942688 299.717275 
L 268.677866 299.717275 
L 269.413043 300.054055 
L 270.148221 300.727616 
L 270.883399 300.727616 
L 271.618577 298.95952 
L 272.353755 300.222445 
L 273.088933 301.064396 
L 274.559289 301.064396 
L 275.294466 301.906346 
L 276.764822 302.748297 
L 277.5 301.625696 
L 278.970356 302.748297 
L 279.705534 302.748297 
L 281.175889 303.870898 
L 281.911067 303.870898 
L 282.646245 302.748297 
L 284.116601 304.432198 
L 285.586957 304.432198 
L 286.322134 305.274148 
L 287.79249 305.274148 
L 288.527668 306.116099 
L 303.231225 306.116099 
L 303.231225 306.116099 
" style="fill:none;stroke:#1f77b4;stroke-linecap:square;stroke-width:1.5;"/>
   </g>
   <g id="line2d_18">
    <path clip-path="url(#pddbc301ab1)" d="M 57.681818 307.8 
L 58.416996 299.380495 
L 59.152174 286.246067 
L 60.62253 265.786669 
L 61.357708 257.367164 
L 62.092885 250.884145 
L 62.828063 243.1382 
L 63.563241 236.991961 
L 65.033597 221.331682 
L 65.768775 214.175102 
L 66.503953 208.197254 
L 67.23913 199.188383 
L 68.709486 184.033274 
L 69.444664 178.392205 
L 70.179842 169.80431 
L 70.91502 166.352313 
L 71.650198 160.96383 
L 72.385375 157.090857 
L 73.120553 155.996321 
L 73.855731 152.460129 
L 75.326087 147.071646 
L 76.061265 145.892915 
L 76.796443 142.272528 
L 77.531621 139.915067 
L 78.266798 138.399556 
L 79.001976 136.294679 
L 79.737154 133.347853 
L 80.472332 132.590097 
L 81.20751 133.263657 
L 81.942688 131.411366 
L 82.677866 126.864834 
L 83.413043 120.6344 
L 84.148221 119.203084 
L 84.883399 116.929817 
L 85.618577 115.751087 
L 86.353755 113.393625 
L 87.824111 107.499972 
L 88.559289 104.721535 
L 89.294466 100.680172 
L 90.029644 100.006612 
L 90.764822 98.406906 
L 91.5 97.228175 
L 92.235178 95.628469 
L 92.970356 93.355203 
L 93.705534 93.523593 
L 94.440711 92.934228 
L 95.175889 93.018423 
L 95.911067 92.429057 
L 96.646245 91.502912 
L 98.116601 90.913546 
L 98.851779 90.071596 
L 99.586957 91.166132 
L 101.057312 98.238516 
L 101.79249 99.164661 
L 102.527668 102.869244 
L 103.262846 103.374414 
L 103.998024 104.047974 
L 104.733202 102.953439 
L 105.468379 102.195683 
L 107.673913 106.742216 
L 108.409091 107.584167 
L 109.144269 109.015483 
L 109.879447 110.110018 
L 110.614625 112.214895 
L 111.349802 115.666892 
L 112.08498 116.929817 
L 112.820158 117.519183 
L 113.555336 119.118889 
L 114.290514 120.129229 
L 115.025692 121.897325 
L 115.76087 122.991861 
L 117.231225 120.6344 
L 117.966403 121.728935 
L 118.701581 122.234106 
L 119.436759 125.517713 
L 120.171937 125.517713 
L 120.907115 123.412836 
L 121.642292 120.886985 
L 122.37747 121.392155 
L 123.112648 120.718595 
L 123.847826 121.47635 
L 124.583004 121.560545 
L 126.05336 122.655081 
L 126.788538 122.655081 
L 127.523715 123.665422 
L 128.258893 122.907666 
L 128.994071 125.601908 
L 129.729249 127.454199 
L 130.464427 131.242976 
L 131.199605 132.926877 
L 132.66996 135.789509 
L 133.405138 137.557605 
L 134.140316 137.557605 
L 134.875494 137.894385 
L 135.610672 136.884045 
L 136.34585 137.389215 
L 137.081028 137.6418 
L 137.816206 137.6418 
L 138.551383 139.746676 
L 140.756917 144.209014 
L 141.492095 145.387745 
L 142.227273 144.79838 
L 142.962451 144.629989 
L 143.697628 147.661011 
L 144.432806 150.018473 
L 145.167984 153.80725 
L 145.903162 155.154371 
L 146.63834 157.006662 
L 147.373518 157.427637 
L 148.843874 165.089387 
L 149.579051 166.183923 
L 152.519763 176.708304 
L 153.254941 177.550255 
L 153.990119 177.718645 
L 154.725296 178.560595 
L 156.195652 183.780689 
L 157.666008 191.526633 
L 158.401186 194.30507 
L 159.871542 200.619699 
L 161.341897 204.240086 
L 162.077075 205.250427 
L 162.812253 206.850133 
L 163.547431 209.123399 
L 164.282609 212.154421 
L 165.017787 214.427687 
L 165.752964 215.353833 
L 166.488142 216.700954 
L 167.22332 216.953539 
L 167.958498 219.058415 
L 168.693676 219.900366 
L 169.428854 221.921047 
L 170.899209 227.562116 
L 171.634387 228.488261 
L 172.369565 229.161822 
L 174.575099 234.12933 
L 175.310277 236.318401 
L 176.780632 239.854593 
L 177.51581 241.959469 
L 178.250988 243.054005 
L 178.986166 244.990491 
L 179.721344 245.411467 
L 183.397233 252.736436 
L 184.132411 254.420337 
L 184.867589 254.925507 
L 185.602767 254.588727 
L 186.337945 255.346483 
L 187.073123 255.935848 
L 187.8083 257.451359 
L 189.278656 259.64043 
L 190.013834 261.071746 
L 190.749012 262.839842 
L 191.48419 264.271158 
L 192.219368 265.281499 
L 193.689723 268.144131 
L 194.424901 268.817691 
L 195.160079 269.070276 
L 195.895257 269.828032 
L 196.630435 270.838372 
L 198.835968 272.774858 
L 199.571146 272.774858 
L 200.306324 272.943249 
L 201.77668 276.395246 
L 202.511858 277.068806 
L 203.247036 278.163342 
L 203.982213 279.763048 
L 204.717391 280.352413 
L 206.187747 280.604998 
L 207.658103 282.120509 
L 208.393281 282.204704 
L 209.128458 282.541484 
L 209.863636 283.720215 
L 210.598814 283.9728 
L 211.333992 284.477971 
L 212.06917 284.393776 
L 213.539526 284.983141 
L 214.274704 285.572506 
L 215.009881 285.656701 
L 215.745059 285.111649 
L 216.480237 285.200276 
L 217.215415 285.554781 
L 217.950593 286.352418 
L 218.685771 286.529671 
L 219.420949 287.150056 
L 220.156126 286.002837 
L 220.891304 286.844787 
L 221.626482 287.218987 
L 222.36166 287.780288 
L 223.832016 288.060938 
L 224.567194 288.715788 
L 225.302372 288.902888 
L 226.772727 290.119039 
L 227.507905 291.14809 
L 228.243083 291.89649 
L 228.978261 291.61584 
L 229.713439 291.70939 
L 230.448617 292.36424 
L 231.183794 292.738441 
L 231.918972 292.831991 
L 233.389328 294.141692 
L 234.124506 294.983642 
L 234.859684 295.544942 
L 235.594862 296.293343 
L 236.33004 296.012693 
L 237.065217 297.003223 
L 237.800395 296.644156 
L 239.270751 297.170375 
L 240.005929 297.696594 
L 240.741107 296.910773 
L 241.476285 297.696594 
L 242.94664 297.456036 
L 244.416996 298.418266 
L 245.152174 298.297987 
L 248.092885 299.861609 
L 248.828063 300.463003 
L 249.563241 300.70356 
L 251.033597 301.786068 
L 251.768775 301.786068 
L 253.23913 302.267182 
L 254.709486 302.267182 
L 255.444664 302.50774 
L 256.179842 302.868576 
L 256.91502 302.988854 
L 257.650198 303.229411 
L 258.385375 303.34969 
L 259.120553 303.710526 
L 259.855731 303.655013 
L 260.590909 303.449922 
L 262.061265 302.748297 
L 264.266798 303.207543 
L 265.001976 303.207543 
L 265.737154 303.360625 
L 266.472332 303.207543 
L 267.20751 303.360625 
L 268.677866 303.360625 
L 269.413043 303.085077 
L 270.148221 303.085077 
L 270.883399 302.916687 
L 271.618577 303.421857 
L 272.353755 303.590247 
L 273.088933 303.590247 
L 273.824111 303.758638 
L 274.559289 303.496697 
L 276.029644 304.245098 
L 276.764822 304.011223 
L 277.5 304.011223 
L 278.235178 304.432198 
L 278.970356 304.642686 
L 279.705534 305.063661 
L 280.440711 304.913313 
L 281.175889 304.913313 
L 281.911067 304.712848 
L 282.646245 304.712848 
L 283.381423 304.993498 
L 285.586957 304.993498 
L 288.527668 305.442539 
L 289.998024 304.993498 
L 290.733202 305.554799 
L 292.203557 305.554799 
L 292.938735 305.274148 
L 293.673913 305.274148 
L 294.409091 306.116099 
L 311.318182 306.116099 
L 311.318182 306.116099 
" style="fill:none;stroke:#ff7f0e;stroke-linecap:square;stroke-width:1.5;"/>
   </g>
   <g id="patch_3">
    <path d="M 45 320.4 
L 45 43.2 
" style="fill:none;stroke:#000000;stroke-linecap:square;stroke-linejoin:miter;stroke-width:0.8;"/>
   </g>
   <g id="patch_4">
    <path d="M 324 320.4 
L 324 43.2 
" style="fill:none;stroke:#000000;stroke-linecap:square;stroke-linejoin:miter;stroke-width:0.8;"/>
   </g>
   <g id="patch_5">
    <path d="M 45 320.4 
L 324 320.4 
" style="fill:none;stroke:#000000;stroke-linecap:square;stroke-linejoin:miter;stroke-width:0.8;"/>
   </g>
   <g id="patch_6">
    <path d="M 45 43.2 
L 324 43.2 
" style="fill:none;stroke:#000000;stroke-linecap:square;stroke-linejoin:miter;stroke-width:0.8;"/>
   </g>
   <g id="legend_1">
    <g id="patch_7">
     <path d="M 151.29375 80.55625 
L 317 80.55625 
Q 319 80.55625 319 78.55625 
L 319 50.2 
Q 319 48.2 317 48.2 
L 151.29375 48.2 
Q 149.29375 48.2 149.29375 50.2 
L 149.29375 78.55625 
Q 149.29375 80.55625 151.29375 80.55625 
z
" style="fill:#ffffff;opacity:0.8;stroke:#cccccc;stroke-linejoin:miter;"/>
    </g>
    <g id="line2d_19">
     <path d="M 153.29375 56.298437 
L 173.29375 56.298437 
" style="fill:none;stroke:#1f77b4;stroke-linecap:square;stroke-width:1.5;"/>
    </g>
    <g id="line2d_20"/>
    <g id="text_19">
     <!-- pop-asymptomatique -->
     <defs>
      <path d="M 4.890625 31.390625 
L 31.203125 31.390625 
L 31.203125 23.390625 
L 4.890625 23.390625 
z
" id="DejaVuSans-45"/>
     </defs>
     <g transform="translate(181.29375 59.798437)scale(0.1 -0.1)">
      <use xlink:href="#DejaVuSans-112"/>
      <use x="63.476562" xlink:href="#DejaVuSans-111"/>
      <use x="124.658203" xlink:href="#DejaVuSans-112"/>
      <use x="188.134766" xlink:href="#DejaVuSans-45"/>
      <use x="224.21875" xlink:href="#DejaVuSans-97"/>
      <use x="285.498047" xlink:href="#DejaVuSans-115"/>
      <use x="337.597656" xlink:href="#DejaVuSans-121"/>
      <use x="396.777344" xlink:href="#DejaVuSans-109"/>
      <use x="494.189453" xlink:href="#DejaVuSans-112"/>
      <use x="557.666016" xlink:href="#DejaVuSans-116"/>
      <use x="596.875" xlink:href="#DejaVuSans-111"/>
      <use x="658.056641" xlink:href="#DejaVuSans-109"/>
      <use x="755.46875" xlink:href="#DejaVuSans-97"/>
      <use x="816.748047" xlink:href="#DejaVuSans-116"/>
      <use x="855.957031" xlink:href="#DejaVuSans-105"/>
      <use x="883.740234" xlink:href="#DejaVuSans-113"/>
      <use x="947.216797" xlink:href="#DejaVuSans-117"/>
      <use x="1010.595703" xlink:href="#DejaVuSans-101"/>
     </g>
    </g>
    <g id="line2d_21">
     <path d="M 153.29375 70.976562 
L 173.29375 70.976562 
" style="fill:none;stroke:#ff7f0e;stroke-linecap:square;stroke-width:1.5;"/>
    </g>
    <g id="line2d_22"/>
    <g id="text_20">
     <!-- pop-sans-asymptomatique -->
     <g transform="translate(181.29375 74.476562)scale(0.1 -0.1)">
      <use xlink:href="#DejaVuSans-112"/>
      <use x="63.476562" xlink:href="#DejaVuSans-111"/>
      <use x="124.658203" xlink:href="#DejaVuSans-112"/>
      <use x="188.134766" xlink:href="#DejaVuSans-45"/>
      <use x="224.21875" xlink:href="#DejaVuSans-115"/>
      <use x="276.318359" xlink:href="#DejaVuSans-97"/>
      <use x="337.597656" xlink:href="#DejaVuSans-110"/>
      <use x="400.976562" xlink:href="#DejaVuSans-115"/>
      <use x="453.076172" xlink:href="#DejaVuSans-45"/>
      <use x="489.160156" xlink:href="#DejaVuSans-97"/>
      <use x="550.439453" xlink:href="#DejaVuSans-115"/>
      <use x="602.539062" xlink:href="#DejaVuSans-121"/>
      <use x="661.71875" xlink:href="#DejaVuSans-109"/>
      <use x="759.130859" xlink:href="#DejaVuSans-112"/>
      <use x="822.607422" xlink:href="#DejaVuSans-116"/>
      <use x="861.816406" xlink:href="#DejaVuSans-111"/>
      <use x="922.998047" xlink:href="#DejaVuSans-109"/>
      <use x="1020.410156" xlink:href="#DejaVuSans-97"/>
      <use x="1081.689453" xlink:href="#DejaVuSans-116"/>
      <use x="1120.898438" xlink:href="#DejaVuSans-105"/>
      <use x="1148.681641" xlink:href="#DejaVuSans-113"/>
      <use x="1212.158203" xlink:href="#DejaVuSans-117"/>
      <use x="1275.537109" xlink:href="#DejaVuSans-101"/>
     </g>
    </g>
   </g>
  </g>
 </g>
 <defs>
  <clipPath id="pddbc301ab1">
   <rect height="277.2" width="279" x="45" y="43.2"/>
  </clipPath>
 </defs>
</svg>
