<?xml version="1.0" encoding="utf-8" standalone="no"?>
<!DOCTYPE svg PUBLIC "-//W3C//DTD SVG 1.1//EN"
  "http://www.w3.org/Graphics/SVG/1.1/DTD/svg11.dtd">
<!-- Created with matplotlib (https://matplotlib.org/) -->
<svg height="360pt" version="1.1" viewBox="0 0 360 360" width="360pt" xmlns="http://www.w3.org/2000/svg" xmlns:xlink="http://www.w3.org/1999/xlink">
 <defs>
  <style type="text/css">
*{stroke-linecap:butt;stroke-linejoin:round;}
  </style>
 </defs>
 <g id="figure_1">
  <g id="patch_1">
   <path d="M 0 360 
L 360 360 
L 360 0 
L 0 0 
z
" style="fill:#ffffff;"/>
  </g>
  <g id="axes_1">
   <g id="patch_2">
    <path d="M 45 320.4 
L 324 320.4 
L 324 43.2 
L 45 43.2 
z
" style="fill:#ffffff;"/>
   </g>
   <g id="PolyCollection_1">
    <defs>
     <path d="M 57.681818 -67.146176 
L 57.681818 -67.146176 
L 58.441208 -79.09938 
L 59.200599 -102.116491 
L 59.959989 -111.980967 
L 60.719379 -119.756715 
L 61.47877 -128.720684 
L 62.23816 -141.574396 
L 62.99755 -147.253943 
L 63.756941 -153.23615 
L 64.516331 -157.271617 
L 65.275721 -162.797966 
L 66.035112 -170.708229 
L 66.794502 -176.847371 
L 67.553892 -179.989805 
L 68.313283 -183.124765 
L 69.072673 -189.697346 
L 69.832063 -188.505388 
L 70.591453 -187.459156 
L 71.350844 -191.789811 
L 72.110234 -194.483859 
L 72.869624 -197.925216 
L 73.629015 -197.626292 
L 74.388405 -201.362836 
L 75.147795 -203.156377 
L 75.907186 -201.949474 
L 76.666576 -199.416097 
L 77.425966 -203.754224 
L 78.185357 -202.853717 
L 78.944747 -208.380066 
L 79.704137 -208.084879 
L 80.463527 -208.835924 
L 81.222918 -212.124083 
L 81.982308 -211.675698 
L 82.741698 -214.055876 
L 83.501089 -217.202046 
L 84.260479 -216.006352 
L 85.019869 -216.600463 
L 85.77926 -213.614964 
L 86.53865 -216.454737 
L 87.29804 -217.80363 
L 88.057431 -221.685899 
L 88.816821 -223.031055 
L 89.576211 -223.625165 
L 90.335602 -228.703129 
L 91.094992 -227.369182 
L 91.854382 -227.514908 
L 92.613772 -223.632638 
L 93.373163 -222.870383 
L 94.132553 -227.963293 
L 94.891943 -226.920797 
L 95.651334 -225.258035 
L 96.410724 -221.24125 
L 97.170114 -217.486024 
L 97.929505 -218.677981 
L 98.688895 -219.896094 
L 99.448285 -220.486468 
L 100.207676 -221.824151 
L 100.967066 -229.607372 
L 101.726456 -227.070259 
L 102.485846 -228.404205 
L 103.245237 -231.699837 
L 104.004627 -224.970321 
L 104.764017 -232.585398 
L 105.523408 -234.692809 
L 106.282798 -230.952528 
L 107.042188 -235.286919 
L 107.801579 -234.244423 
L 108.560969 -231.6961 
L 109.320359 -232.589134 
L 110.07975 -230.205219 
L 110.83914 -231.243979 
L 111.59853 -226.169752 
L 112.357921 -228.116491 
L 113.117311 -226.472412 
L 113.876701 -226.913324 
L 114.636091 -222.138021 
L 115.395482 -223.184253 
L 116.154872 -218.7004 
L 116.914262 -218.248279 
L 117.673653 -213.764426 
L 118.433043 -206.291338 
L 119.192433 -203.89995 
L 119.951824 -204.034465 
L 120.711214 -198.668788 
L 121.470604 -197.170434 
L 122.229995 -197.461884 
L 122.989385 -199.259162 
L 123.748775 -195.978476 
L 124.508165 -195.081706 
L 125.267556 -191.348898 
L 126.026946 -189.992533 
L 126.786336 -186.861309 
L 127.545727 -184.025272 
L 128.305117 -181.181762 
L 129.064507 -180.434453 
L 129.823898 -178.185054 
L 130.583288 -176.242051 
L 131.342678 -173.409751 
L 132.102069 -174.452246 
L 132.861459 -176.253261 
L 133.620849 -171.765671 
L 134.38024 -169.228558 
L 135.13963 -166.83717 
L 135.89902 -168.780173 
L 136.65841 -167.136093 
L 137.417801 -164.139385 
L 138.177191 -160.858699 
L 138.936581 -155.776999 
L 139.695972 -153.23615 
L 140.455362 -152.634566 
L 141.214752 -151.887257 
L 141.974143 -148.599098 
L 142.733533 -144.268444 
L 143.492923 -142.773826 
L 144.252314 -143.069013 
L 145.011704 -139.631393 
L 145.771094 -138.286237 
L 146.530484 -136.941081 
L 147.289875 -135.745387 
L 148.049265 -133.353999 
L 148.808655 -133.948109 
L 149.568046 -130.364764 
L 150.327436 -126.93088 
L 151.086826 -127.076605 
L 151.846217 -124.08737 
L 152.605607 -123.343798 
L 153.364997 -119.304594 
L 154.124388 -118.557285 
L 154.883778 -116.158424 
L 155.643168 -117.664251 
L 156.402559 -115.269126 
L 157.161949 -115.713775 
L 157.921339 -112.582551 
L 158.680729 -110.490086 
L 159.44012 -107.650313 
L 160.19951 -106.006234 
L 160.9589 -105.258925 
L 161.718291 -106.006234 
L 162.477681 -105.105726 
L 163.237071 -105.554112 
L 163.996462 -103.315922 
L 164.755852 -102.265953 
L 165.515242 -101.821304 
L 166.274633 -101.970766 
L 167.034023 -100.173488 
L 167.793413 -100.472412 
L 168.552803 -98.981531 
L 169.312194 -97.935298 
L 170.071584 -96.586406 
L 170.830974 -93.742896 
L 171.590365 -91.205783 
L 172.349755 -90.309012 
L 173.109145 -88.519208 
L 173.868536 -87.622437 
L 174.627926 -87.02459 
L 175.387316 -89.714902 
L 176.146707 -87.913887 
L 176.906097 -86.124083 
L 177.665487 -86.124083 
L 178.424878 -86.871392 
L 179.184268 -87.614964 
L 179.943658 -86.426743 
L 180.703048 -84.035355 
L 181.462439 -86.415533 
L 182.221829 -85.227312 
L 182.981219 -84.778927 
L 183.74061 -85.380511 
L 184.5 -84.18108 
L 185.25939 -82.989123 
L 186.018781 -81.785955 
L 186.778171 -80.448273 
L 187.537561 -80.448273 
L 188.296952 -79.398304 
L 189.056342 -77.305839 
L 189.815732 -76.711729 
L 190.575122 -75.3591 
L 191.334513 -73.565559 
L 192.093903 -73.419833 
L 192.853293 -72.672525 
L 193.612684 -74.01768 
L 194.372074 -73.569295 
L 195.131464 -74.316604 
L 195.890855 -72.676261 
L 196.650245 -72.676261 
L 197.409635 -72.227876 
L 198.169026 -71.181643 
L 198.928416 -69.687026 
L 199.687806 -69.234904 
L 200.447197 -68.935981 
L 201.206587 -68.491332 
L 201.965977 -67.744023 
L 202.725367 -66.398867 
L 203.484758 -65.950482 
L 204.244148 -65.203173 
L 205.003538 -64.003742 
L 205.762929 -64.302666 
L 206.522319 -64.003742 
L 207.281709 -64.003742 
L 208.0411 -63.409632 
L 208.80049 -63.555357 
L 209.55988 -62.811785 
L 210.319271 -62.961247 
L 211.078661 -62.210201 
L 211.838051 -63.256434 
L 212.597441 -62.662323 
L 213.356832 -61.765553 
L 214.116222 -60.270935 
L 214.875612 -60.267198 
L 215.635003 -60.270935 
L 216.394393 -59.968275 
L 217.153783 -58.029009 
L 217.913174 -58.776317 
L 218.672564 -59.590491 
L 219.431954 -59.433163 
L 220.191345 -59.122439 
L 220.950735 -58.965111 
L 221.710125 -58.331865 
L 222.469516 -56.915912 
L 223.228906 -57.01599 
L 223.988296 -57.650958 
L 224.747686 -58.002633 
L 225.507077 -57.991643 
L 226.266467 -57.991643 
L 227.025857 -57.613318 
L 227.785248 -57.991643 
L 228.544638 -58.9756 
L 229.304028 -58.17847 
L 230.063419 -57.575641 
L 230.822809 -56.778512 
L 231.582199 -56.57923 
L 232.34159 -56.57923 
L 233.10098 -55.5878 
L 233.86037 -55.787082 
L 234.61976 -55.388518 
L 235.379151 -56.109 
L 236.138541 -56.798823 
L 236.897931 -56.798823 
L 237.657322 -57.71284 
L 238.416712 -59.174882 
L 239.176102 -60.080711 
L 239.935493 -60.080711 
L 240.694883 -61.982952 
L 241.454273 -60.895957 
L 242.213664 -59.53042 
L 242.973054 -60.263462 
L 243.732444 -58.776317 
L 244.491835 -58.170997 
L 245.251225 -59.374164 
L 246.010615 -58.469921 
L 246.770005 -58.17847 
L 247.529396 -57.879547 
L 248.288786 -59.366691 
L 249.048176 -57.2817 
L 249.807567 -56.078533 
L 250.566957 -55.189235 
L 251.326347 -55.779609 
L 252.085738 -55.189235 
L 252.845128 -55.936544 
L 253.604518 -55.927203 
L 254.363909 -55.936544 
L 255.123299 -55.189235 
L 255.882689 -56.032627 
L 256.642079 -57.324403 
L 257.40147 -59.673088 
L 258.16086 -61.167706 
L 258.92025 -60.171294 
L 259.679641 -59.660633 
L 260.439031 -58.17847 
L 261.198421 -57.680265 
L 261.957812 -57.182059 
L 262.717202 -56.683853 
L 263.476592 -56.683853 
L 264.235983 -55.687441 
L 264.995373 -55.687441 
L 265.754763 -56.185647 
L 266.514154 -56.185647 
L 267.273544 -55.189235 
L 268.032934 -57.580623 
L 268.792324 -56.982776 
L 269.551715 -56.384929 
L 270.311105 -56.982776 
L 271.070495 -55.787082 
L 271.829886 -56.982776 
L 272.589276 -56.96783 
L 273.348666 -55.787082 
L 274.108057 -53.993541 
L 274.867447 -53.993541 
L 275.626837 -53.993541 
L 276.386228 -52.797847 
L 277.145618 -53.395694 
L 277.905008 -53.395694 
L 278.664398 -55.189235 
L 279.423789 -54.441926 
L 280.183179 -53.694618 
L 280.942569 -53.694618 
L 281.70196 -53.694618 
L 282.46135 -53.694618 
L 283.22074 -53.694618 
L 283.980131 -53.694618 
L 284.739521 -58.17847 
L 285.498911 -55.189235 
L 286.258302 -55.189235 
L 287.017692 -55.189235 
L 287.777082 -55.189235 
L 288.536473 -55.189235 
L 289.295863 -52.2 
L 290.055253 -52.2 
L 290.814643 -52.2 
L 291.574034 -52.2 
L 292.333424 -52.2 
L 293.092814 -52.2 
L 293.852205 -52.2 
L 294.611595 -52.2 
L 295.370985 -52.2 
L 296.130376 -52.2 
L 296.889766 -52.2 
L 297.649156 -52.2 
L 298.408547 -52.2 
L 299.167937 -52.2 
L 299.927327 -52.2 
L 300.686717 -52.2 
L 300.686717 -52.2 
L 300.686717 -52.2 
L 299.927327 -52.2 
L 299.167937 -52.2 
L 298.408547 -52.2 
L 297.649156 -52.2 
L 296.889766 -52.2 
L 296.130376 -52.2 
L 295.370985 -52.2 
L 294.611595 -55.189235 
L 293.852205 -55.189235 
L 293.092814 -55.189235 
L 292.333424 -55.189235 
L 291.574034 -55.189235 
L 290.814643 -55.189235 
L 290.055253 -55.189235 
L 289.295863 -55.189235 
L 288.536473 -55.189235 
L 287.777082 -55.189235 
L 287.017692 -55.189235 
L 286.258302 -58.17847 
L 285.498911 -58.17847 
L 284.739521 -58.17847 
L 283.980131 -58.17847 
L 283.22074 -60.420397 
L 282.46135 -60.420397 
L 281.70196 -60.420397 
L 280.942569 -60.420397 
L 280.183179 -62.662323 
L 279.423789 -64.90425 
L 278.664398 -65.651558 
L 277.905008 -65.950482 
L 277.145618 -66.548329 
L 276.386228 -65.950482 
L 275.626837 -65.950482 
L 274.867447 -66.548329 
L 274.108057 -67.146176 
L 273.348666 -67.146176 
L 272.589276 -67.744023 
L 271.829886 -69.537564 
L 271.070495 -68.939717 
L 270.311105 -74.32034 
L 269.551715 -75.516035 
L 268.792324 -76.113882 
L 268.032934 -80.896658 
L 267.273544 -74.619264 
L 266.514154 -72.128235 
L 265.754763 -72.62644 
L 264.995373 -73.622852 
L 264.235983 -73.137102 
L 263.476592 -72.62644 
L 262.717202 -74.121058 
L 261.957812 -76.113882 
L 261.198421 -79.613778 
L 260.439031 -83.088764 
L 259.679641 -90.561852 
L 258.92025 -91.558263 
L 258.16086 -95.045704 
L 257.40147 -91.558263 
L 256.642079 -90.654376 
L 255.882689 -91.188168 
L 255.123299 -86.585546 
L 254.363909 -89.56544 
L 253.604518 -90.312749 
L 252.845128 -99.289796 
L 252.085738 -97.370665 
L 251.326347 -89.572913 
L 250.566957 -95.25246 
L 249.807567 -92.861072 
L 249.048176 -89.871837 
L 248.288786 -96.141757 
L 247.529396 -94.355689 
L 246.770005 -94.056766 
L 246.010615 -97.053474 
L 245.251225 -98.555565 
L 244.491835 -97.337451 
L 243.732444 -99.153412 
L 242.973054 -102.419151 
L 242.213664 -96.501824 
L 241.454273 -100.849803 
L 240.694883 -102.74525 
L 239.935493 -101.930004 
L 239.176102 -104.375742 
L 238.416712 -91.564491 
L 237.657322 -86.691175 
L 236.897931 -86.932614 
L 236.138541 -87.151058 
L 235.379151 -89.002084 
L 234.61976 -85.878717 
L 233.86037 -92.061451 
L 233.10098 -92.654316 
L 232.34159 -96.644945 
L 231.582199 -96.644945 
L 230.822809 -97.437093 
L 230.063419 -100.630592 
L 229.304028 -104.611257 
L 228.544638 -109.000451 
L 227.785248 -108.24816 
L 227.025857 -112.3677 
L 226.266467 -106.762884 
L 225.507077 -107.514863 
L 224.747686 -108.125074 
L 223.988296 -105.658955 
L 223.228906 -102.684861 
L 222.469516 -95.323651 
L 221.710125 -93.891965 
L 220.950735 -91.38258 
L 220.191345 -91.229185 
L 219.431954 -89.494642 
L 218.672564 -90.749334 
L 217.913174 -84.491213 
L 217.153783 -83.590706 
L 216.394393 -81.946627 
L 215.635003 -81.662649 
L 214.875612 -81.049856 
L 214.116222 -83.288046 
L 213.356832 -84.487477 
L 212.597441 -85.828896 
L 211.838051 -87.472975 
L 211.078661 -87.02459 
L 210.319271 -89.714902 
L 209.55988 -89.722375 
L 208.80049 -90.312749 
L 208.0411 -89.117055 
L 207.281709 -87.174052 
L 206.522319 -85.529972 
L 205.762929 -86.587414 
L 205.003538 -85.529972 
L 204.244148 -83.736431 
L 203.484758 -82.391275 
L 202.725367 -81.804638 
L 201.965977 -84.035355 
L 201.206587 -86.43048 
L 200.447197 -86.729403 
L 199.687806 -85.081587 
L 198.928416 -86.277281 
L 198.169026 -89.117055 
L 197.409635 -90.167024 
L 196.650245 -91.060058 
L 195.890855 -93.608381 
L 195.131464 -95.401922 
L 194.372074 -95.992296 
L 193.612684 -96.593879 
L 192.853293 -97.49065 
L 192.093903 -97.18799 
L 191.334513 -99.437389 
L 190.575122 -101.526117 
L 189.815732 -104.511616 
L 189.056342 -106.914214 
L 188.296952 -108.999205 
L 187.537561 -110.938472 
L 186.778171 -112.134166 
L 186.018781 -112.582551 
L 185.25939 -114.985149 
L 184.5 -116.468557 
L 183.74061 -118.419033 
L 182.981219 -118.71422 
L 182.221829 -117.963174 
L 181.462439 -117.813713 
L 180.703048 -114.675016 
L 179.943658 -113.333596 
L 179.184268 -115.272863 
L 178.424878 -114.977676 
L 177.665487 -113.927707 
L 176.906097 -114.379829 
L 176.146707 -117.219602 
L 175.387316 -119.162605 
L 174.627926 -116.924415 
L 173.868536 -117.664251 
L 173.109145 -119.771662 
L 172.349755 -121.699718 
L 171.590365 -120.653486 
L 170.830974 -124.397503 
L 170.071584 -124.539492 
L 169.312194 -126.639429 
L 168.552803 -128.728158 
L 167.793413 -130.816886 
L 167.034023 -130.529172 
L 166.274633 -132.614163 
L 165.515242 -130.517962 
L 164.755852 -129.030818 
L 163.996462 -129.621192 
L 163.237071 -133.656659 
L 162.477681 -135.304475 
L 161.718291 -137.692127 
L 160.9589 -135.603398 
L 160.19951 -139.041019 
L 159.44012 -141.282945 
L 158.680729 -144.118982 
L 157.921339 -146.667305 
L 157.161949 -149.05122 
L 156.402559 -150.396376 
L 155.643168 -153.684535 
L 154.883778 -155.481813 
L 154.124388 -155.332351 
L 153.364997 -154.282382 
L 152.605607 -154.282382 
L 151.846217 -155.496759 
L 151.086826 -156.677507 
L 150.327436 -157.574277 
L 149.568046 -163.250087 
L 148.808655 -165.353762 
L 148.049265 -167.435017 
L 147.289875 -170.27479 
L 146.530484 -175.068776 
L 145.771094 -174.313994 
L 145.011704 -174.766116 
L 144.252314 -176.253261 
L 143.492923 -177.303229 
L 142.733533 -177.303229 
L 141.974143 -175.958074 
L 141.214752 -181.04351 
L 140.455362 -182.235468 
L 139.695972 -184.029009 
L 138.936581 -189.704819 
L 138.177191 -194.786519 
L 137.417801 -198.523063 
L 136.65841 -201.96442 
L 135.89902 -202.416542 
L 135.13963 -201.96442 
L 134.38024 -204.367018 
L 133.620849 -211.526236 
L 132.861459 -217.358981 
L 132.102069 -219.615854 
L 131.342678 -220.206228 
L 130.583288 -223.356134 
L 129.823898 -222.287483 
L 129.064507 -223.352398 
L 128.305117 -225.429916 
L 127.545727 -227.081469 
L 126.786336 -224.682607 
L 126.026946 -227.518644 
L 125.267556 -228.718075 
L 124.508165 -231.109463 
L 123.748775 -236.045438 
L 122.989385 -240.973939 
L 122.229995 -236.635812 
L 121.470604 -235.298129 
L 120.711214 -243.062667 
L 119.951824 -248.895412 
L 119.192433 -250.244305 
L 118.433043 -255.621192 
L 117.673653 -261.599662 
L 116.914262 -265.20169 
L 116.154872 -266.980285 
L 115.395482 -271.012016 
L 114.636091 -269.222212 
L 113.876701 -280.585042 
L 113.117311 -286.705501 
L 112.357921 -290.897903 
L 111.59853 -292.243059 
L 110.83914 -299.122037 
L 110.07975 -295.082833 
L 109.320359 -294.783909 
L 108.560969 -297.616209 
L 107.801579 -298.82685 
L 107.042188 -304.2 
L 106.282798 -298.673651 
L 105.523408 -302.406459 
L 104.764017 -293.603161 
L 104.004627 -289.545274 
L 103.245237 -296.27479 
L 102.485846 -293.591952 
L 101.726456 -291.936663 
L 100.967066 -287.602272 
L 100.207676 -282.247804 
L 99.448285 -278.051665 
L 98.688895 -278.488841 
L 97.929505 -277.012906 
L 97.170114 -274.606572 
L 96.410724 -280.293592 
L 95.651334 -284.175861 
L 94.891943 -280.278645 
L 94.132553 -281.179152 
L 93.373163 -275.944254 
L 92.613772 -276.246914 
L 91.854382 -281.773263 
L 91.094992 -278.492577 
L 90.335602 -279.53881 
L 89.576211 -271.314676 
L 88.816821 -271.464138 
L 88.057431 -268.919552 
L 87.29804 -265.650076 
L 86.53865 -261.001815 
L 85.77926 -261.4502 
L 85.019869 -261.898585 
L 84.260479 -264.443172 
L 83.501089 -265.635129 
L 82.741698 -263.987314 
L 81.982308 -262.791619 
L 81.222918 -259.055075 
L 80.463527 -253.379265 
L 79.704137 -252.333033 
L 78.944747 -255.770653 
L 78.185357 -251.750132 
L 77.425966 -251.294274 
L 76.666576 -248.312511 
L 75.907186 -249.190599 
L 75.147795 -248.297565 
L 74.388405 -248.04348 
L 73.629015 -245.465265 
L 72.869624 -244.867418 
L 72.110234 -240.981412 
L 71.350844 -234.554557 
L 70.591453 -228.415415 
L 69.832063 -225.72884 
L 69.072673 -221.54391 
L 68.313283 -219.447709 
L 67.553892 -212.124083 
L 66.794502 -212.277281 
L 66.035112 -201.512298 
L 65.275721 -197.626292 
L 64.516331 -191.049975 
L 63.756941 -182.680116 
L 62.99755 -177.448955 
L 62.23816 -171.171561 
L 61.47877 -155.190362 
L 60.719379 -146.81303 
L 59.959989 -137.400676 
L 59.200599 -119.756715 
L 58.441208 -88.668669 
L 57.681818 -67.146176 
z
" id="m8b96ecbb85" style="stroke:#1f77b4;stroke-opacity:0.2;"/>
    </defs>
    <g clip-path="url(#p131f4e0eca)">
     <use style="fill:#1f77b4;fill-opacity:0.2;stroke:#1f77b4;stroke-opacity:0.2;" x="0" xlink:href="#m8b96ecbb85" y="360"/>
    </g>
   </g>
   <g id="PolyCollection_2">
    <defs>
     <path d="M 57.681818 -52.2 
L 57.681818 -52.2 
L 58.441208 -52.797847 
L 59.200599 -55.039773 
L 59.959989 -58.925779 
L 60.719379 -63.106972 
L 61.47877 -68.491332 
L 62.23816 -71.928952 
L 62.99755 -80.298811 
L 63.756941 -85.828896 
L 64.516331 -92.704137 
L 65.275721 -98.981531 
L 66.035112 -106.753542 
L 66.794502 -113.326123 
L 67.553892 -120.205101 
L 68.313283 -124.539492 
L 69.072673 -131.410996 
L 69.832063 -138.286237 
L 70.591453 -142.919552 
L 71.350844 -144.866291 
L 72.110234 -148.453373 
L 72.869624 -152.634566 
L 73.629015 -157.570541 
L 74.388405 -160.260852 
L 75.147795 -166.078651 
L 75.907186 -171.164088 
L 76.666576 -172.81564 
L 77.425966 -176.245787 
L 78.185357 -178.043065 
L 78.944747 -182.381193 
L 79.704137 -184.167261 
L 80.463527 -185.818813 
L 81.222918 -186.865046 
L 81.982308 -188.359663 
L 82.741698 -191.345162 
L 83.501089 -194.181199 
L 84.260479 -194.913561 
L 85.019869 -201.646814 
L 85.77926 -204.049411 
L 86.53865 -204.938709 
L 87.29804 -203.003179 
L 88.057431 -205.237632 
L 88.816821 -209.572023 
L 89.576211 -211.668225 
L 90.335602 -213.764426 
L 91.094992 -214.366009 
L 91.854382 -216.600463 
L 92.613772 -217.949355 
L 93.373163 -219.884885 
L 94.132553 -219.137576 
L 94.891943 -220.93859 
L 95.651334 -221.088052 
L 96.410724 -223.333715 
L 97.170114 -224.678871 
L 97.929505 -223.034791 
L 98.688895 -220.789128 
L 99.448285 -224.230485 
L 100.207676 -222.881593 
L 100.967066 -224.518199 
L 101.726456 -224.824596 
L 102.485846 -221.685899 
L 103.245237 -221.088052 
L 104.004627 -223.924089 
L 104.764017 -224.974058 
L 105.523408 -220.931117 
L 106.282798 -225.571905 
L 107.042188 -224.230485 
L 107.801579 -227.511171 
L 108.560969 -231.991287 
L 109.320359 -228.564876 
L 110.07975 -231.849299 
L 110.83914 -231.838089 
L 111.59853 -230.657341 
L 112.357921 -230.059494 
L 113.117311 -226.920797 
L 113.876701 -231.251452 
L 114.636091 -234.53961 
L 115.395482 -228.564876 
L 116.154872 -230.055758 
L 116.914262 -229.446701 
L 117.673653 -225.575641 
L 118.433043 -224.073551 
L 119.192433 -225.571905 
L 119.951824 -225.721367 
L 120.711214 -223.184253 
L 121.470604 -219.443973 
L 122.229995 -217.642958 
L 122.989385 -214.209074 
L 123.748775 -216.899386 
L 124.508165 -214.511735 
L 125.267556 -214.795712 
L 126.026946 -211.376774 
L 126.786336 -210.476267 
L 127.545727 -209.870947 
L 128.305117 -208.533264 
L 129.064507 -207.333834 
L 129.823898 -205.248842 
L 130.583288 -202.55853 
L 131.342678 -200.604318 
L 132.102069 -196.725785 
L 132.861459 -196.875247 
L 133.620849 -195.653397 
L 134.38024 -193.886012 
L 135.13963 -191.046238 
L 135.89902 -190.003742 
L 136.65841 -188.355927 
L 137.417801 -184.017799 
L 138.177191 -187.156496 
L 138.936581 -186.263462 
L 139.695972 -182.074796 
L 140.455362 -183.124765 
L 141.214752 -179.687145 
L 141.974143 -176.100062 
L 142.733533 -172.808167 
L 143.492923 -170.267317 
L 144.252314 -170.117855 
L 145.011704 -166.089861 
L 145.771094 -164.146858 
L 146.530484 -161.602272 
L 147.289875 -163.392076 
L 148.049265 -158.762498 
L 148.808655 -156.221648 
L 149.568046 -155.029691 
L 150.327436 -156.374847 
L 151.086826 -154.278645 
L 151.846217 -148.901759 
L 152.605607 -145.609863 
L 153.364997 -142.923288 
L 154.124388 -142.773826 
L 154.883778 -139.635129 
L 155.643168 -136.492696 
L 156.402559 -136.044311 
L 157.161949 -132.307767 
L 157.921339 -131.859381 
L 158.680729 -130.813149 
L 159.44012 -128.86641 
L 160.19951 -129.172806 
L 160.9589 -127.674452 
L 161.718291 -127.076605 
L 162.477681 -126.172361 
L 163.237071 -122.738478 
L 163.996462 -121.845443 
L 164.755852 -119.151395 
L 165.515242 -116.016435 
L 166.274633 -116.319095 
L 167.034023 -115.418588 
L 167.793413 -112.279891 
L 168.552803 -111.980967 
L 169.312194 -113.180398 
L 170.071584 -111.38312 
L 170.830974 -110.340625 
L 171.590365 -108.397622 
L 172.349755 -106.155695 
L 173.109145 -107.347653 
L 173.868536 -106.006234 
L 174.627926 -101.821304 
L 175.387316 -98.234222 
L 176.146707 -100.016553 
L 176.906097 -97.632638 
L 177.665487 -95.383239 
L 178.424878 -95.095525 
L 179.184268 -94.946063 
L 179.943658 -95.984823 
L 180.703048 -94.942327 
L 181.462439 -92.405213 
L 182.221829 -93.298247 
L 182.981219 -91.80363 
L 183.74061 -91.956828 
L 184.5 -90.910596 
L 185.25939 -90.15955 
L 186.018781 -88.96012 
L 186.778171 -86.875128 
L 187.537561 -87.622437 
L 188.296952 -86.423006 
L 189.056342 -85.978358 
L 189.815732 -85.679434 
L 190.575122 -84.480004 
L 191.334513 -85.231049 
L 192.093903 -85.227312 
L 192.853293 -84.48374 
L 193.612684 -82.985386 
L 194.372074 -83.882157 
L 195.131464 -80.448273 
L 195.890855 -81.789692 
L 196.650245 -81.94289 
L 197.409635 -82.241814 
L 198.169026 -80.74346 
L 198.928416 -80.889185 
L 199.687806 -79.252579 
L 200.447197 -77.903686 
L 201.206587 -77.459037 
L 201.965977 -77.156377 
L 202.725367 -77.160114 
L 203.484758 -75.814958 
L 204.244148 -75.067649 
L 205.003538 -74.32034 
L 205.762929 -73.722493 
L 206.522319 -70.88272 
L 207.281709 -69.687026 
L 208.0411 -70.281136 
L 208.80049 -68.640794 
L 209.55988 -68.34187 
L 210.319271 -67.441363 
L 211.078661 -67.893485 
L 211.838051 -67.445099 
L 212.597441 -67.740286 
L 213.356832 -66.249405 
L 214.116222 -68.03921 
L 214.875612 -66.694054 
L 215.635003 -66.245669 
L 216.394393 -65.348898 
L 217.153783 -65.502097 
L 217.913174 -65.352635 
L 218.672564 -65.730222 
L 219.431954 -65.10091 
L 220.191345 -65.10091 
L 220.950735 -64.153008 
L 221.710125 -63.999613 
L 222.469516 -63.999613 
L 223.228906 -63.492666 
L 223.988296 -62.570009 
L 224.747686 -62.046892 
L 225.507077 -62.283998 
L 226.266467 -60.607224 
L 227.025857 -60.420397 
L 227.785248 -60.046742 
L 228.544638 -60.370576 
L 229.304028 -60.968423 
L 230.063419 -60.569859 
L 230.822809 -61.366988 
L 231.582199 -60.569859 
L 232.34159 -60.569859 
L 233.10098 -60.569859 
L 233.86037 -59.972012 
L 234.61976 -60.370576 
L 235.379151 -61.851781 
L 236.138541 -61.857529 
L 236.897931 -61.397647 
L 237.657322 -61.161957 
L 238.416712 -61.416809 
L 239.176102 -62.247906 
L 239.935493 -62.526449 
L 240.694883 -62.2547 
L 241.454273 -62.2547 
L 242.213664 -63.60665 
L 242.973054 -65.950482 
L 243.732444 -64.455864 
L 244.491835 -65.053711 
L 245.251225 -64.455864 
L 246.010615 -64.747315 
L 246.770005 -62.961247 
L 247.529396 -62.3634 
L 248.288786 -61.167706 
L 249.048176 -59.964538 
L 249.807567 -60.270935 
L 250.566957 -60.270935 
L 251.326347 -59.374164 
L 252.085738 -60.503431 
L 252.845128 -60.794051 
L 253.604518 -61.915014 
L 254.363909 -60.420397 
L 255.123299 -60.037401 
L 255.882689 -61.594739 
L 256.642079 -61.167706 
L 257.40147 -62.662323 
L 258.16086 -62.662323 
L 258.92025 -61.167706 
L 259.679641 -61.167706 
L 260.439031 -61.167706 
L 261.198421 -61.665911 
L 261.957812 -61.167706 
L 262.717202 -59.174882 
L 263.476592 -58.676676 
L 264.235983 -59.660633 
L 264.995373 -59.149972 
L 265.754763 -57.680265 
L 266.514154 -57.680265 
L 267.273544 -58.17847 
L 268.032934 -59.972012 
L 268.792324 -60.554912 
L 269.551715 -59.374164 
L 270.311105 -59.972012 
L 271.070495 -59.374164 
L 271.829886 -57.580623 
L 272.589276 -57.580623 
L 273.348666 -56.982776 
L 274.108057 -59.374164 
L 274.867447 -59.374164 
L 275.626837 -58.17847 
L 276.386228 -57.580623 
L 277.145618 -57.580623 
L 277.905008 -57.580623 
L 278.664398 -59.673088 
L 279.423789 -58.17847 
L 280.183179 -56.683853 
L 280.942569 -55.189235 
L 281.70196 -55.189235 
L 282.46135 -53.694618 
L 283.22074 -52.947309 
L 283.980131 -52.947309 
L 284.739521 -52.2 
L 285.498911 -52.2 
L 286.258302 -55.189235 
L 287.017692 -55.189235 
L 287.777082 -55.189235 
L 288.536473 -55.189235 
L 289.295863 -55.189235 
L 290.055253 -58.17847 
L 290.814643 -55.189235 
L 291.574034 -55.189235 
L 292.333424 -55.189235 
L 293.092814 -55.189235 
L 293.852205 -55.189235 
L 294.611595 -55.189235 
L 295.370985 -55.189235 
L 296.130376 -55.189235 
L 296.889766 -55.189235 
L 297.649156 -55.189235 
L 298.408547 -55.189235 
L 299.167937 -55.189235 
L 299.927327 -55.189235 
L 300.686717 -55.189235 
L 300.686717 -55.189235 
L 300.686717 -55.189235 
L 299.927327 -55.189235 
L 299.167937 -55.189235 
L 298.408547 -55.189235 
L 297.649156 -55.189235 
L 296.889766 -55.189235 
L 296.130376 -55.189235 
L 295.370985 -58.17847 
L 294.611595 -58.17847 
L 293.852205 -58.17847 
L 293.092814 -61.167706 
L 292.333424 -61.167706 
L 291.574034 -61.167706 
L 290.814643 -64.156941 
L 290.055253 -64.156941 
L 289.295863 -64.156941 
L 288.536473 -67.146176 
L 287.777082 -64.156941 
L 287.017692 -67.146176 
L 286.258302 -67.146176 
L 285.498911 -68.192408 
L 284.739521 -73.124646 
L 283.980131 -68.640794 
L 283.22074 -70.135411 
L 282.46135 -71.630029 
L 281.70196 -73.124646 
L 280.942569 -73.124646 
L 280.183179 -71.630029 
L 279.423789 -71.630029 
L 278.664398 -74.637947 
L 277.905008 -71.928952 
L 277.145618 -71.928952 
L 276.386228 -76.711729 
L 275.626837 -76.113882 
L 274.867447 -76.113882 
L 274.108057 -74.918187 
L 273.348666 -74.918187 
L 272.589276 -74.32034 
L 271.829886 -75.516035 
L 271.070495 -80.896658 
L 270.311105 -86.875128 
L 269.551715 -92.853599 
L 268.792324 -91.060058 
L 268.032934 -85.679434 
L 267.273544 -86.576205 
L 266.514154 -91.570719 
L 265.754763 -90.574307 
L 264.995373 -94.061748 
L 264.235983 -100.525969 
L 263.476592 -100.027763 
L 262.717202 -102.518792 
L 261.957812 -104.01341 
L 261.198421 -103.016998 
L 260.439031 -104.025865 
L 259.679641 -101.024175 
L 258.92025 -103.515204 
L 258.16086 -105.508028 
L 257.40147 -107.500851 
L 256.642079 -104.308775 
L 255.882689 -103.465384 
L 255.123299 -103.773648 
L 254.363909 -104.137962 
L 253.604518 -108.631156 
L 252.845128 -102.652685 
L 252.085738 -97.370665 
L 251.326347 -98.832069 
L 250.566957 -99.130993 
L 249.807567 -105.714783 
L 249.048176 -109.593316 
L 248.288786 -111.095406 
L 247.529396 -112.582551 
L 246.770005 -116.177106 
L 246.010615 -113.486795 
L 245.251225 -109.892239 
L 244.491835 -111.68578 
L 243.732444 -109.301865 
L 242.973054 -111.087933 
L 242.213664 -110.625961 
L 241.454273 -107.093228 
L 240.694883 -107.915268 
L 239.935493 -108.995469 
L 239.176102 -106.828273 
L 238.416712 -107.999057 
L 237.657322 -103.016998 
L 236.897931 -104.166704 
L 236.138541 -111.605301 
L 235.379151 -109.4611 
L 234.61976 -105.612651 
L 233.86037 -105.009822 
L 233.10098 -104.411975 
L 232.34159 -102.020587 
L 231.582199 -104.227639 
L 230.822809 -103.216281 
L 230.063419 -103.619827 
L 229.304028 -103.619827 
L 228.544638 -105.413369 
L 227.785248 -97.412182 
L 227.025857 -95.174927 
L 226.266467 -92.554675 
L 225.507077 -95.361754 
L 224.747686 -91.235895 
L 223.988296 -90.361104 
L 223.228906 -88.739249 
L 222.469516 -87.126853 
L 221.710125 -88.228151 
L 220.950735 -88.700135 
L 220.191345 -89.95876 
L 219.431954 -91.535975 
L 218.672564 -91.221319 
L 217.913174 -93.010533 
L 217.153783 -91.209519 
L 216.394393 -93.907304 
L 215.635003 -93.754106 
L 214.875612 -95.244987 
L 214.116222 -93.757842 
L 213.356832 -93.152522 
L 212.597441 -92.861072 
L 211.838051 -91.811103 
L 211.078661 -91.358981 
L 210.319271 -89.423451 
L 209.55988 -91.213256 
L 208.80049 -92.255752 
L 208.0411 -91.216992 
L 207.281709 -92.255752 
L 206.522319 -93.899831 
L 205.762929 -98.088497 
L 205.003538 -98.536882 
L 204.244148 -96.889066 
L 203.484758 -99.72884 
L 202.725367 -102.419151 
L 201.965977 -101.970766 
L 201.206587 -100.027763 
L 200.447197 -100.62561 
L 199.687806 -103.614845 
L 198.928416 -105.561585 
L 198.169026 -104.960001 
L 197.409635 -108.397622 
L 196.650245 -108.401358 
L 195.890855 -107.504588 
L 195.131464 -110.351834 
L 194.372074 -108.85348 
L 193.612684 -112.433089 
L 192.853293 -113.63252 
L 192.093903 -114.675016 
L 191.334513 -113.63252 
L 190.575122 -114.077169 
L 189.815732 -114.379829 
L 189.056342 -115.130874 
L 188.296952 -113.93518 
L 187.537561 -116.027644 
L 186.778171 -119.465265 
L 186.018781 -118.265834 
L 185.25939 -119.158868 
L 184.5 -116.618018 
L 183.74061 -117.821186 
L 182.981219 -118.71422 
L 182.221829 -117.518526 
L 181.462439 -116.468557 
L 180.703048 -117.966911 
L 179.943658 -120.507761 
L 179.184268 -119.461528 
L 178.424878 -118.561021 
L 177.665487 -123.343798 
L 176.906097 -124.240568 
L 176.146707 -126.336769 
L 175.387316 -124.700163 
L 174.627926 -130.069577 
L 173.868536 -133.660396 
L 173.109145 -132.460965 
L 172.349755 -132.614163 
L 171.590365 -134.55343 
L 170.830974 -136.795356 
L 170.071584 -143.076486 
L 169.312194 -145.475348 
L 168.552803 -144.870028 
L 167.793413 -143.229685 
L 167.034023 -147.709801 
L 166.274633 -148.307648 
L 165.515242 -148.606572 
L 164.755852 -153.385611 
L 163.996462 -152.488841 
L 163.237071 -155.635011 
L 162.477681 -160.563512 
L 161.718291 -159.21462 
L 160.9589 -156.97643 
L 160.19951 -157.720002 
L 159.44012 -160.858699 
L 158.680729 -161.008161 
L 157.921339 -161.609745 
L 157.161949 -162.502779 
L 156.402559 -163.997396 
L 155.643168 -163.997396 
L 154.883778 -165.49575 
L 154.124388 -169.232294 
L 153.364997 -171.022099 
L 152.605607 -173.716147 
L 151.846217 -176.552184 
L 151.086826 -183.427425 
L 150.327436 -183.427425 
L 149.568046 -184.324196 
L 148.808655 -184.174734 
L 148.049265 -186.71932 
L 147.289875 -191.210646 
L 146.530484 -191.348898 
L 145.771094 -195.391839 
L 145.011704 -200.316604 
L 144.252314 -202.86119 
L 143.492923 -204.210083 
L 142.733533 -206.295074 
L 141.974143 -211.077851 
L 141.214752 -215.714902 
L 140.455362 -221.099262 
L 139.695972 -221.24125 
L 138.936581 -222.590143 
L 138.177191 -221.099262 
L 137.417801 -218.550939 
L 136.65841 -225.429916 
L 135.89902 -226.027763 
L 135.13963 -230.063231 
L 134.38024 -232.159432 
L 133.620849 -233.351389 
L 132.861459 -231.258925 
L 132.102069 -235.002942 
L 131.342678 -239.92397 
L 130.583288 -239.774508 
L 129.823898 -242.614282 
L 129.064507 -249.044874 
L 128.305117 -249.638985 
L 127.545727 -251.137339 
L 126.786336 -255.766917 
L 126.026946 -256.517962 
L 125.267556 -261.599662 
L 124.508165 -261.894849 
L 123.748775 -262.048047 
L 122.989385 -260.852353 
L 122.229995 -264.895294 
L 121.470604 -266.991495 
L 120.711214 -271.766798 
L 119.951824 -272.357172 
L 119.192433 -275.798529 
L 118.433043 -275.204419 
L 117.673653 -280.278645 
L 116.914262 -281.190362 
L 116.154872 -281.627538 
L 115.395482 -279.833997 
L 114.636091 -282.67377 
L 113.876701 -277.59207 
L 113.117311 -278.638303 
L 112.357921 -284.762498 
L 111.59853 -290.012342 
L 110.83914 -283.421079 
L 110.07975 -282.393529 
L 109.320359 -281.037164 
L 108.560969 -280.585042 
L 107.801579 -279.837733 
L 107.042188 -275.802266 
L 106.282798 -272.514107 
L 105.523408 -267.723858 
L 104.764017 -273.552866 
L 104.004627 -276.855971 
L 103.245237 -273.272625 
L 102.485846 -274.901759 
L 101.726456 -277.438872 
L 100.967066 -276.6953 
L 100.207676 -271.766798 
L 99.448285 -269.96952 
L 98.688895 -268.329178 
L 97.929505 -273.713538 
L 97.170114 -275.054957 
L 96.410724 -270.578577 
L 95.651334 -269.521135 
L 94.891943 -273.552866 
L 94.132553 -264.884084 
L 93.373163 -264.742095 
L 92.613772 -263.987314 
L 91.854382 -261.603398 
L 91.094992 -257.859381 
L 90.335602 -256.226512 
L 89.576211 -256.816886 
L 88.816821 -255.326005 
L 88.057431 -253.080342 
L 87.29804 -252.340506 
L 86.53865 -248.895412 
L 85.77926 -244.710483 
L 85.019869 -242.916942 
L 84.260479 -236.48635 
L 83.501089 -236.344361 
L 82.741698 -233.048729 
L 81.982308 -230.362154 
L 81.222918 -227.070259 
L 80.463527 -230.507879 
L 79.704137 -228.568613 
L 78.944747 -221.390712 
L 78.185357 -220.045556 
L 77.425966 -216.013825 
L 76.666576 -209.284309 
L 75.907186 -204.056884 
L 75.147795 -198.975185 
L 74.388405 -191.20691 
L 73.629015 -186.42787 
L 72.869624 -182.683853 
L 72.110234 -177.157504 
L 71.350844 -173.267762 
L 70.591453 -170.282263 
L 69.832063 -163.104362 
L 69.072673 -156.232858 
L 68.313283 -146.663569 
L 67.553892 -144.571104 
L 66.794502 -132.311503 
L 66.035112 -128.429234 
L 65.275721 -118.561021 
L 64.516331 -111.237395 
L 63.756941 -101.223457 
L 62.99755 -92.255752 
L 62.23816 -84.035355 
L 61.47877 -77.160114 
L 60.719379 -68.790255 
L 59.959989 -63.559094 
L 59.200599 -58.17847 
L 58.441208 -53.993541 
L 57.681818 -52.2 
z
" id="mfe3d45d67c" style="stroke:#ff7f0e;stroke-opacity:0.2;"/>
    </defs>
    <g clip-path="url(#p131f4e0eca)">
     <use style="fill:#ff7f0e;fill-opacity:0.2;stroke:#ff7f0e;stroke-opacity:0.2;" x="0" xlink:href="#mfe3d45d67c" y="360"/>
    </g>
   </g>
   <g id="matplotlib.axis_1">
    <g id="xtick_1">
     <g id="line2d_1">
      <defs>
       <path d="M 0 0 
L 0 3.5 
" id="m60f9012c9b" style="stroke:#000000;stroke-width:0.8;"/>
      </defs>
      <g>
       <use style="stroke:#000000;stroke-width:0.8;" x="57.681818" xlink:href="#m60f9012c9b" y="320.4"/>
      </g>
     </g>
     <g id="text_1">
      <!-- 0 -->
      <defs>
       <path d="M 31.78125 66.40625 
Q 24.171875 66.40625 20.328125 58.90625 
Q 16.5 51.421875 16.5 36.375 
Q 16.5 21.390625 20.328125 13.890625 
Q 24.171875 6.390625 31.78125 6.390625 
Q 39.453125 6.390625 43.28125 13.890625 
Q 47.125 21.390625 47.125 36.375 
Q 47.125 51.421875 43.28125 58.90625 
Q 39.453125 66.40625 31.78125 66.40625 
z
M 31.78125 74.21875 
Q 44.046875 74.21875 50.515625 64.515625 
Q 56.984375 54.828125 56.984375 36.375 
Q 56.984375 17.96875 50.515625 8.265625 
Q 44.046875 -1.421875 31.78125 -1.421875 
Q 19.53125 -1.421875 13.0625 8.265625 
Q 6.59375 17.96875 6.59375 36.375 
Q 6.59375 54.828125 13.0625 64.515625 
Q 19.53125 74.21875 31.78125 74.21875 
z
" id="DejaVuSans-48"/>
      </defs>
      <g transform="translate(54.500568 334.998438)scale(0.1 -0.1)">
       <use xlink:href="#DejaVuSans-48"/>
      </g>
     </g>
    </g>
    <g id="xtick_2">
     <g id="line2d_2">
      <g>
       <use style="stroke:#000000;stroke-width:0.8;" x="95.651334" xlink:href="#m60f9012c9b" y="320.4"/>
      </g>
     </g>
     <g id="text_2">
      <!-- 50 -->
      <defs>
       <path d="M 10.796875 72.90625 
L 49.515625 72.90625 
L 49.515625 64.59375 
L 19.828125 64.59375 
L 19.828125 46.734375 
Q 21.96875 47.46875 24.109375 47.828125 
Q 26.265625 48.1875 28.421875 48.1875 
Q 40.625 48.1875 47.75 41.5 
Q 54.890625 34.8125 54.890625 23.390625 
Q 54.890625 11.625 47.5625 5.09375 
Q 40.234375 -1.421875 26.90625 -1.421875 
Q 22.3125 -1.421875 17.546875 -0.640625 
Q 12.796875 0.140625 7.71875 1.703125 
L 7.71875 11.625 
Q 12.109375 9.234375 16.796875 8.0625 
Q 21.484375 6.890625 26.703125 6.890625 
Q 35.15625 6.890625 40.078125 11.328125 
Q 45.015625 15.765625 45.015625 23.390625 
Q 45.015625 31 40.078125 35.4375 
Q 35.15625 39.890625 26.703125 39.890625 
Q 22.75 39.890625 18.8125 39.015625 
Q 14.890625 38.140625 10.796875 36.28125 
z
" id="DejaVuSans-53"/>
      </defs>
      <g transform="translate(89.288834 334.998438)scale(0.1 -0.1)">
       <use xlink:href="#DejaVuSans-53"/>
       <use x="63.623047" xlink:href="#DejaVuSans-48"/>
      </g>
     </g>
    </g>
    <g id="xtick_3">
     <g id="line2d_3">
      <g>
       <use style="stroke:#000000;stroke-width:0.8;" x="133.620849" xlink:href="#m60f9012c9b" y="320.4"/>
      </g>
     </g>
     <g id="text_3">
      <!-- 100 -->
      <defs>
       <path d="M 12.40625 8.296875 
L 28.515625 8.296875 
L 28.515625 63.921875 
L 10.984375 60.40625 
L 10.984375 69.390625 
L 28.421875 72.90625 
L 38.28125 72.90625 
L 38.28125 8.296875 
L 54.390625 8.296875 
L 54.390625 0 
L 12.40625 0 
z
" id="DejaVuSans-49"/>
      </defs>
      <g transform="translate(124.077099 334.998438)scale(0.1 -0.1)">
       <use xlink:href="#DejaVuSans-49"/>
       <use x="63.623047" xlink:href="#DejaVuSans-48"/>
       <use x="127.246094" xlink:href="#DejaVuSans-48"/>
      </g>
     </g>
    </g>
    <g id="xtick_4">
     <g id="line2d_4">
      <g>
       <use style="stroke:#000000;stroke-width:0.8;" x="171.590365" xlink:href="#m60f9012c9b" y="320.4"/>
      </g>
     </g>
     <g id="text_4">
      <!-- 150 -->
      <g transform="translate(162.046615 334.998438)scale(0.1 -0.1)">
       <use xlink:href="#DejaVuSans-49"/>
       <use x="63.623047" xlink:href="#DejaVuSans-53"/>
       <use x="127.246094" xlink:href="#DejaVuSans-48"/>
      </g>
     </g>
    </g>
    <g id="xtick_5">
     <g id="line2d_5">
      <g>
       <use style="stroke:#000000;stroke-width:0.8;" x="209.55988" xlink:href="#m60f9012c9b" y="320.4"/>
      </g>
     </g>
     <g id="text_5">
      <!-- 200 -->
      <defs>
       <path d="M 19.1875 8.296875 
L 53.609375 8.296875 
L 53.609375 0 
L 7.328125 0 
L 7.328125 8.296875 
Q 12.9375 14.109375 22.625 23.890625 
Q 32.328125 33.6875 34.8125 36.53125 
Q 39.546875 41.84375 41.421875 45.53125 
Q 43.3125 49.21875 43.3125 52.78125 
Q 43.3125 58.59375 39.234375 62.25 
Q 35.15625 65.921875 28.609375 65.921875 
Q 23.96875 65.921875 18.8125 64.3125 
Q 13.671875 62.703125 7.8125 59.421875 
L 7.8125 69.390625 
Q 13.765625 71.78125 18.9375 73 
Q 24.125 74.21875 28.421875 74.21875 
Q 39.75 74.21875 46.484375 68.546875 
Q 53.21875 62.890625 53.21875 53.421875 
Q 53.21875 48.921875 51.53125 44.890625 
Q 49.859375 40.875 45.40625 35.40625 
Q 44.1875 33.984375 37.640625 27.21875 
Q 31.109375 20.453125 19.1875 8.296875 
z
" id="DejaVuSans-50"/>
      </defs>
      <g transform="translate(200.01613 334.998438)scale(0.1 -0.1)">
       <use xlink:href="#DejaVuSans-50"/>
       <use x="63.623047" xlink:href="#DejaVuSans-48"/>
       <use x="127.246094" xlink:href="#DejaVuSans-48"/>
      </g>
     </g>
    </g>
    <g id="xtick_6">
     <g id="line2d_6">
      <g>
       <use style="stroke:#000000;stroke-width:0.8;" x="247.529396" xlink:href="#m60f9012c9b" y="320.4"/>
      </g>
     </g>
     <g id="text_6">
      <!-- 250 -->
      <g transform="translate(237.985646 334.998438)scale(0.1 -0.1)">
       <use xlink:href="#DejaVuSans-50"/>
       <use x="63.623047" xlink:href="#DejaVuSans-53"/>
       <use x="127.246094" xlink:href="#DejaVuSans-48"/>
      </g>
     </g>
    </g>
    <g id="xtick_7">
     <g id="line2d_7">
      <g>
       <use style="stroke:#000000;stroke-width:0.8;" x="285.498911" xlink:href="#m60f9012c9b" y="320.4"/>
      </g>
     </g>
     <g id="text_7">
      <!-- 300 -->
      <defs>
       <path d="M 40.578125 39.3125 
Q 47.65625 37.796875 51.625 33 
Q 55.609375 28.21875 55.609375 21.1875 
Q 55.609375 10.40625 48.1875 4.484375 
Q 40.765625 -1.421875 27.09375 -1.421875 
Q 22.515625 -1.421875 17.65625 -0.515625 
Q 12.796875 0.390625 7.625 2.203125 
L 7.625 11.71875 
Q 11.71875 9.328125 16.59375 8.109375 
Q 21.484375 6.890625 26.8125 6.890625 
Q 36.078125 6.890625 40.9375 10.546875 
Q 45.796875 14.203125 45.796875 21.1875 
Q 45.796875 27.640625 41.28125 31.265625 
Q 36.765625 34.90625 28.71875 34.90625 
L 20.21875 34.90625 
L 20.21875 43.015625 
L 29.109375 43.015625 
Q 36.375 43.015625 40.234375 45.921875 
Q 44.09375 48.828125 44.09375 54.296875 
Q 44.09375 59.90625 40.109375 62.90625 
Q 36.140625 65.921875 28.71875 65.921875 
Q 24.65625 65.921875 20.015625 65.03125 
Q 15.375 64.15625 9.8125 62.3125 
L 9.8125 71.09375 
Q 15.4375 72.65625 20.34375 73.4375 
Q 25.25 74.21875 29.59375 74.21875 
Q 40.828125 74.21875 47.359375 69.109375 
Q 53.90625 64.015625 53.90625 55.328125 
Q 53.90625 49.265625 50.4375 45.09375 
Q 46.96875 40.921875 40.578125 39.3125 
z
" id="DejaVuSans-51"/>
      </defs>
      <g transform="translate(275.955161 334.998438)scale(0.1 -0.1)">
       <use xlink:href="#DejaVuSans-51"/>
       <use x="63.623047" xlink:href="#DejaVuSans-48"/>
       <use x="127.246094" xlink:href="#DejaVuSans-48"/>
      </g>
     </g>
    </g>
    <g id="xtick_8">
     <g id="line2d_8">
      <g>
       <use style="stroke:#000000;stroke-width:0.8;" x="323.468427" xlink:href="#m60f9012c9b" y="320.4"/>
      </g>
     </g>
     <g id="text_8">
      <!-- 350 -->
      <g transform="translate(313.924677 334.998438)scale(0.1 -0.1)">
       <use xlink:href="#DejaVuSans-51"/>
       <use x="63.623047" xlink:href="#DejaVuSans-53"/>
       <use x="127.246094" xlink:href="#DejaVuSans-48"/>
      </g>
     </g>
    </g>
    <g id="text_9">
     <!-- Temps (ticks) -->
     <defs>
      <path d="M -0.296875 72.90625 
L 61.375 72.90625 
L 61.375 64.59375 
L 35.5 64.59375 
L 35.5 0 
L 25.59375 0 
L 25.59375 64.59375 
L -0.296875 64.59375 
z
" id="DejaVuSans-84"/>
      <path d="M 56.203125 29.59375 
L 56.203125 25.203125 
L 14.890625 25.203125 
Q 15.484375 15.921875 20.484375 11.0625 
Q 25.484375 6.203125 34.421875 6.203125 
Q 39.59375 6.203125 44.453125 7.46875 
Q 49.3125 8.734375 54.109375 11.28125 
L 54.109375 2.78125 
Q 49.265625 0.734375 44.1875 -0.34375 
Q 39.109375 -1.421875 33.890625 -1.421875 
Q 20.796875 -1.421875 13.15625 6.1875 
Q 5.515625 13.8125 5.515625 26.8125 
Q 5.515625 40.234375 12.765625 48.109375 
Q 20.015625 56 32.328125 56 
Q 43.359375 56 49.78125 48.890625 
Q 56.203125 41.796875 56.203125 29.59375 
z
M 47.21875 32.234375 
Q 47.125 39.59375 43.09375 43.984375 
Q 39.0625 48.390625 32.421875 48.390625 
Q 24.90625 48.390625 20.390625 44.140625 
Q 15.875 39.890625 15.1875 32.171875 
z
" id="DejaVuSans-101"/>
      <path d="M 52 44.1875 
Q 55.375 50.25 60.0625 53.125 
Q 64.75 56 71.09375 56 
Q 79.640625 56 84.28125 50.015625 
Q 88.921875 44.046875 88.921875 33.015625 
L 88.921875 0 
L 79.890625 0 
L 79.890625 32.71875 
Q 79.890625 40.578125 77.09375 44.375 
Q 74.3125 48.1875 68.609375 48.1875 
Q 61.625 48.1875 57.5625 43.546875 
Q 53.515625 38.921875 53.515625 30.90625 
L 53.515625 0 
L 44.484375 0 
L 44.484375 32.71875 
Q 44.484375 40.625 41.703125 44.40625 
Q 38.921875 48.1875 33.109375 48.1875 
Q 26.21875 48.1875 22.15625 43.53125 
Q 18.109375 38.875 18.109375 30.90625 
L 18.109375 0 
L 9.078125 0 
L 9.078125 54.6875 
L 18.109375 54.6875 
L 18.109375 46.1875 
Q 21.1875 51.21875 25.484375 53.609375 
Q 29.78125 56 35.6875 56 
Q 41.65625 56 45.828125 52.96875 
Q 50 49.953125 52 44.1875 
z
" id="DejaVuSans-109"/>
      <path d="M 18.109375 8.203125 
L 18.109375 -20.796875 
L 9.078125 -20.796875 
L 9.078125 54.6875 
L 18.109375 54.6875 
L 18.109375 46.390625 
Q 20.953125 51.265625 25.265625 53.625 
Q 29.59375 56 35.59375 56 
Q 45.5625 56 51.78125 48.09375 
Q 58.015625 40.1875 58.015625 27.296875 
Q 58.015625 14.40625 51.78125 6.484375 
Q 45.5625 -1.421875 35.59375 -1.421875 
Q 29.59375 -1.421875 25.265625 0.953125 
Q 20.953125 3.328125 18.109375 8.203125 
z
M 48.6875 27.296875 
Q 48.6875 37.203125 44.609375 42.84375 
Q 40.53125 48.484375 33.40625 48.484375 
Q 26.265625 48.484375 22.1875 42.84375 
Q 18.109375 37.203125 18.109375 27.296875 
Q 18.109375 17.390625 22.1875 11.75 
Q 26.265625 6.109375 33.40625 6.109375 
Q 40.53125 6.109375 44.609375 11.75 
Q 48.6875 17.390625 48.6875 27.296875 
z
" id="DejaVuSans-112"/>
      <path d="M 44.28125 53.078125 
L 44.28125 44.578125 
Q 40.484375 46.53125 36.375 47.5 
Q 32.28125 48.484375 27.875 48.484375 
Q 21.1875 48.484375 17.84375 46.4375 
Q 14.5 44.390625 14.5 40.28125 
Q 14.5 37.15625 16.890625 35.375 
Q 19.28125 33.59375 26.515625 31.984375 
L 29.59375 31.296875 
Q 39.15625 29.25 43.1875 25.515625 
Q 47.21875 21.78125 47.21875 15.09375 
Q 47.21875 7.46875 41.1875 3.015625 
Q 35.15625 -1.421875 24.609375 -1.421875 
Q 20.21875 -1.421875 15.453125 -0.5625 
Q 10.6875 0.296875 5.421875 2 
L 5.421875 11.28125 
Q 10.40625 8.6875 15.234375 7.390625 
Q 20.0625 6.109375 24.8125 6.109375 
Q 31.15625 6.109375 34.5625 8.28125 
Q 37.984375 10.453125 37.984375 14.40625 
Q 37.984375 18.0625 35.515625 20.015625 
Q 33.0625 21.96875 24.703125 23.78125 
L 21.578125 24.515625 
Q 13.234375 26.265625 9.515625 29.90625 
Q 5.8125 33.546875 5.8125 39.890625 
Q 5.8125 47.609375 11.28125 51.796875 
Q 16.75 56 26.8125 56 
Q 31.78125 56 36.171875 55.265625 
Q 40.578125 54.546875 44.28125 53.078125 
z
" id="DejaVuSans-115"/>
      <path id="DejaVuSans-32"/>
      <path d="M 31 75.875 
Q 24.46875 64.65625 21.28125 53.65625 
Q 18.109375 42.671875 18.109375 31.390625 
Q 18.109375 20.125 21.3125 9.0625 
Q 24.515625 -2 31 -13.1875 
L 23.1875 -13.1875 
Q 15.875 -1.703125 12.234375 9.375 
Q 8.59375 20.453125 8.59375 31.390625 
Q 8.59375 42.28125 12.203125 53.3125 
Q 15.828125 64.359375 23.1875 75.875 
z
" id="DejaVuSans-40"/>
      <path d="M 18.3125 70.21875 
L 18.3125 54.6875 
L 36.8125 54.6875 
L 36.8125 47.703125 
L 18.3125 47.703125 
L 18.3125 18.015625 
Q 18.3125 11.328125 20.140625 9.421875 
Q 21.96875 7.515625 27.59375 7.515625 
L 36.8125 7.515625 
L 36.8125 0 
L 27.59375 0 
Q 17.1875 0 13.234375 3.875 
Q 9.28125 7.765625 9.28125 18.015625 
L 9.28125 47.703125 
L 2.6875 47.703125 
L 2.6875 54.6875 
L 9.28125 54.6875 
L 9.28125 70.21875 
z
" id="DejaVuSans-116"/>
      <path d="M 9.421875 54.6875 
L 18.40625 54.6875 
L 18.40625 0 
L 9.421875 0 
z
M 9.421875 75.984375 
L 18.40625 75.984375 
L 18.40625 64.59375 
L 9.421875 64.59375 
z
" id="DejaVuSans-105"/>
      <path d="M 48.78125 52.59375 
L 48.78125 44.1875 
Q 44.96875 46.296875 41.140625 47.34375 
Q 37.3125 48.390625 33.40625 48.390625 
Q 24.65625 48.390625 19.8125 42.84375 
Q 14.984375 37.3125 14.984375 27.296875 
Q 14.984375 17.28125 19.8125 11.734375 
Q 24.65625 6.203125 33.40625 6.203125 
Q 37.3125 6.203125 41.140625 7.25 
Q 44.96875 8.296875 48.78125 10.40625 
L 48.78125 2.09375 
Q 45.015625 0.34375 40.984375 -0.53125 
Q 36.96875 -1.421875 32.421875 -1.421875 
Q 20.0625 -1.421875 12.78125 6.34375 
Q 5.515625 14.109375 5.515625 27.296875 
Q 5.515625 40.671875 12.859375 48.328125 
Q 20.21875 56 33.015625 56 
Q 37.15625 56 41.109375 55.140625 
Q 45.0625 54.296875 48.78125 52.59375 
z
" id="DejaVuSans-99"/>
      <path d="M 9.078125 75.984375 
L 18.109375 75.984375 
L 18.109375 31.109375 
L 44.921875 54.6875 
L 56.390625 54.6875 
L 27.390625 29.109375 
L 57.625 0 
L 45.90625 0 
L 18.109375 26.703125 
L 18.109375 0 
L 9.078125 0 
z
" id="DejaVuSans-107"/>
      <path d="M 8.015625 75.875 
L 15.828125 75.875 
Q 23.140625 64.359375 26.78125 53.3125 
Q 30.421875 42.28125 30.421875 31.390625 
Q 30.421875 20.453125 26.78125 9.375 
Q 23.140625 -1.703125 15.828125 -13.1875 
L 8.015625 -13.1875 
Q 14.5 -2 17.703125 9.0625 
Q 20.90625 20.125 20.90625 31.390625 
Q 20.90625 42.671875 17.703125 53.65625 
Q 14.5 64.65625 8.015625 75.875 
z
" id="DejaVuSans-41"/>
     </defs>
     <g transform="translate(150.644531 348.676562)scale(0.1 -0.1)">
      <use xlink:href="#DejaVuSans-84"/>
      <use x="60.818359" xlink:href="#DejaVuSans-101"/>
      <use x="122.341797" xlink:href="#DejaVuSans-109"/>
      <use x="219.753906" xlink:href="#DejaVuSans-112"/>
      <use x="283.230469" xlink:href="#DejaVuSans-115"/>
      <use x="335.330078" xlink:href="#DejaVuSans-32"/>
      <use x="367.117188" xlink:href="#DejaVuSans-40"/>
      <use x="406.130859" xlink:href="#DejaVuSans-116"/>
      <use x="445.339844" xlink:href="#DejaVuSans-105"/>
      <use x="473.123047" xlink:href="#DejaVuSans-99"/>
      <use x="528.103516" xlink:href="#DejaVuSans-107"/>
      <use x="586.013672" xlink:href="#DejaVuSans-115"/>
      <use x="638.113281" xlink:href="#DejaVuSans-41"/>
     </g>
    </g>
   </g>
   <g id="matplotlib.axis_2">
    <g id="ytick_1">
     <g id="line2d_9">
      <defs>
       <path d="M 0 0 
L -3.5 0 
" id="m3eef2465b2" style="stroke:#000000;stroke-width:0.8;"/>
      </defs>
      <g>
       <use style="stroke:#000000;stroke-width:0.8;" x="45" xlink:href="#m3eef2465b2" y="307.8"/>
      </g>
     </g>
     <g id="text_10">
      <!-- 0 -->
      <g transform="translate(31.6375 311.599219)scale(0.1 -0.1)">
       <use xlink:href="#DejaVuSans-48"/>
      </g>
     </g>
    </g>
    <g id="ytick_2">
     <g id="line2d_10">
      <g>
       <use style="stroke:#000000;stroke-width:0.8;" x="45" xlink:href="#m3eef2465b2" y="248.015296"/>
      </g>
     </g>
     <g id="text_11">
      <!-- 20 -->
      <g transform="translate(25.275 251.814515)scale(0.1 -0.1)">
       <use xlink:href="#DejaVuSans-50"/>
       <use x="63.623047" xlink:href="#DejaVuSans-48"/>
      </g>
     </g>
    </g>
    <g id="ytick_3">
     <g id="line2d_11">
      <g>
       <use style="stroke:#000000;stroke-width:0.8;" x="45" xlink:href="#m3eef2465b2" y="188.230592"/>
      </g>
     </g>
     <g id="text_12">
      <!-- 40 -->
      <defs>
       <path d="M 37.796875 64.3125 
L 12.890625 25.390625 
L 37.796875 25.390625 
z
M 35.203125 72.90625 
L 47.609375 72.90625 
L 47.609375 25.390625 
L 58.015625 25.390625 
L 58.015625 17.1875 
L 47.609375 17.1875 
L 47.609375 0 
L 37.796875 0 
L 37.796875 17.1875 
L 4.890625 17.1875 
L 4.890625 26.703125 
z
" id="DejaVuSans-52"/>
      </defs>
      <g transform="translate(25.275 192.029811)scale(0.1 -0.1)">
       <use xlink:href="#DejaVuSans-52"/>
       <use x="63.623047" xlink:href="#DejaVuSans-48"/>
      </g>
     </g>
    </g>
    <g id="ytick_4">
     <g id="line2d_12">
      <g>
       <use style="stroke:#000000;stroke-width:0.8;" x="45" xlink:href="#m3eef2465b2" y="128.445888"/>
      </g>
     </g>
     <g id="text_13">
      <!-- 60 -->
      <defs>
       <path d="M 33.015625 40.375 
Q 26.375 40.375 22.484375 35.828125 
Q 18.609375 31.296875 18.609375 23.390625 
Q 18.609375 15.53125 22.484375 10.953125 
Q 26.375 6.390625 33.015625 6.390625 
Q 39.65625 6.390625 43.53125 10.953125 
Q 47.40625 15.53125 47.40625 23.390625 
Q 47.40625 31.296875 43.53125 35.828125 
Q 39.65625 40.375 33.015625 40.375 
z
M 52.59375 71.296875 
L 52.59375 62.3125 
Q 48.875 64.0625 45.09375 64.984375 
Q 41.3125 65.921875 37.59375 65.921875 
Q 27.828125 65.921875 22.671875 59.328125 
Q 17.53125 52.734375 16.796875 39.40625 
Q 19.671875 43.65625 24.015625 45.921875 
Q 28.375 48.1875 33.59375 48.1875 
Q 44.578125 48.1875 50.953125 41.515625 
Q 57.328125 34.859375 57.328125 23.390625 
Q 57.328125 12.15625 50.6875 5.359375 
Q 44.046875 -1.421875 33.015625 -1.421875 
Q 20.359375 -1.421875 13.671875 8.265625 
Q 6.984375 17.96875 6.984375 36.375 
Q 6.984375 53.65625 15.1875 63.9375 
Q 23.390625 74.21875 37.203125 74.21875 
Q 40.921875 74.21875 44.703125 73.484375 
Q 48.484375 72.75 52.59375 71.296875 
z
" id="DejaVuSans-54"/>
      </defs>
      <g transform="translate(25.275 132.245107)scale(0.1 -0.1)">
       <use xlink:href="#DejaVuSans-54"/>
       <use x="63.623047" xlink:href="#DejaVuSans-48"/>
      </g>
     </g>
    </g>
    <g id="ytick_5">
     <g id="line2d_13">
      <g>
       <use style="stroke:#000000;stroke-width:0.8;" x="45" xlink:href="#m3eef2465b2" y="68.661184"/>
      </g>
     </g>
     <g id="text_14">
      <!-- 80 -->
      <defs>
       <path d="M 31.78125 34.625 
Q 24.75 34.625 20.71875 30.859375 
Q 16.703125 27.09375 16.703125 20.515625 
Q 16.703125 13.921875 20.71875 10.15625 
Q 24.75 6.390625 31.78125 6.390625 
Q 38.8125 6.390625 42.859375 10.171875 
Q 46.921875 13.96875 46.921875 20.515625 
Q 46.921875 27.09375 42.890625 30.859375 
Q 38.875 34.625 31.78125 34.625 
z
M 21.921875 38.8125 
Q 15.578125 40.375 12.03125 44.71875 
Q 8.5 49.078125 8.5 55.328125 
Q 8.5 64.0625 14.71875 69.140625 
Q 20.953125 74.21875 31.78125 74.21875 
Q 42.671875 74.21875 48.875 69.140625 
Q 55.078125 64.0625 55.078125 55.328125 
Q 55.078125 49.078125 51.53125 44.71875 
Q 48 40.375 41.703125 38.8125 
Q 48.828125 37.15625 52.796875 32.3125 
Q 56.78125 27.484375 56.78125 20.515625 
Q 56.78125 9.90625 50.3125 4.234375 
Q 43.84375 -1.421875 31.78125 -1.421875 
Q 19.734375 -1.421875 13.25 4.234375 
Q 6.78125 9.90625 6.78125 20.515625 
Q 6.78125 27.484375 10.78125 32.3125 
Q 14.796875 37.15625 21.921875 38.8125 
z
M 18.3125 54.390625 
Q 18.3125 48.734375 21.84375 45.5625 
Q 25.390625 42.390625 31.78125 42.390625 
Q 38.140625 42.390625 41.71875 45.5625 
Q 45.3125 48.734375 45.3125 54.390625 
Q 45.3125 60.0625 41.71875 63.234375 
Q 38.140625 66.40625 31.78125 66.40625 
Q 25.390625 66.40625 21.84375 63.234375 
Q 18.3125 60.0625 18.3125 54.390625 
z
" id="DejaVuSans-56"/>
      </defs>
      <g transform="translate(25.275 72.460403)scale(0.1 -0.1)">
       <use xlink:href="#DejaVuSans-56"/>
       <use x="63.623047" xlink:href="#DejaVuSans-48"/>
      </g>
     </g>
    </g>
    <g id="text_15">
     <!-- Nombre d'agents -->
     <defs>
      <path d="M 9.8125 72.90625 
L 23.09375 72.90625 
L 55.421875 11.921875 
L 55.421875 72.90625 
L 64.984375 72.90625 
L 64.984375 0 
L 51.703125 0 
L 19.390625 60.984375 
L 19.390625 0 
L 9.8125 0 
z
" id="DejaVuSans-78"/>
      <path d="M 30.609375 48.390625 
Q 23.390625 48.390625 19.1875 42.75 
Q 14.984375 37.109375 14.984375 27.296875 
Q 14.984375 17.484375 19.15625 11.84375 
Q 23.34375 6.203125 30.609375 6.203125 
Q 37.796875 6.203125 41.984375 11.859375 
Q 46.1875 17.53125 46.1875 27.296875 
Q 46.1875 37.015625 41.984375 42.703125 
Q 37.796875 48.390625 30.609375 48.390625 
z
M 30.609375 56 
Q 42.328125 56 49.015625 48.375 
Q 55.71875 40.765625 55.71875 27.296875 
Q 55.71875 13.875 49.015625 6.21875 
Q 42.328125 -1.421875 30.609375 -1.421875 
Q 18.84375 -1.421875 12.171875 6.21875 
Q 5.515625 13.875 5.515625 27.296875 
Q 5.515625 40.765625 12.171875 48.375 
Q 18.84375 56 30.609375 56 
z
" id="DejaVuSans-111"/>
      <path d="M 48.6875 27.296875 
Q 48.6875 37.203125 44.609375 42.84375 
Q 40.53125 48.484375 33.40625 48.484375 
Q 26.265625 48.484375 22.1875 42.84375 
Q 18.109375 37.203125 18.109375 27.296875 
Q 18.109375 17.390625 22.1875 11.75 
Q 26.265625 6.109375 33.40625 6.109375 
Q 40.53125 6.109375 44.609375 11.75 
Q 48.6875 17.390625 48.6875 27.296875 
z
M 18.109375 46.390625 
Q 20.953125 51.265625 25.265625 53.625 
Q 29.59375 56 35.59375 56 
Q 45.5625 56 51.78125 48.09375 
Q 58.015625 40.1875 58.015625 27.296875 
Q 58.015625 14.40625 51.78125 6.484375 
Q 45.5625 -1.421875 35.59375 -1.421875 
Q 29.59375 -1.421875 25.265625 0.953125 
Q 20.953125 3.328125 18.109375 8.203125 
L 18.109375 0 
L 9.078125 0 
L 9.078125 75.984375 
L 18.109375 75.984375 
z
" id="DejaVuSans-98"/>
      <path d="M 41.109375 46.296875 
Q 39.59375 47.171875 37.8125 47.578125 
Q 36.03125 48 33.890625 48 
Q 26.265625 48 22.1875 43.046875 
Q 18.109375 38.09375 18.109375 28.8125 
L 18.109375 0 
L 9.078125 0 
L 9.078125 54.6875 
L 18.109375 54.6875 
L 18.109375 46.1875 
Q 20.953125 51.171875 25.484375 53.578125 
Q 30.03125 56 36.53125 56 
Q 37.453125 56 38.578125 55.875 
Q 39.703125 55.765625 41.0625 55.515625 
z
" id="DejaVuSans-114"/>
      <path d="M 45.40625 46.390625 
L 45.40625 75.984375 
L 54.390625 75.984375 
L 54.390625 0 
L 45.40625 0 
L 45.40625 8.203125 
Q 42.578125 3.328125 38.25 0.953125 
Q 33.9375 -1.421875 27.875 -1.421875 
Q 17.96875 -1.421875 11.734375 6.484375 
Q 5.515625 14.40625 5.515625 27.296875 
Q 5.515625 40.1875 11.734375 48.09375 
Q 17.96875 56 27.875 56 
Q 33.9375 56 38.25 53.625 
Q 42.578125 51.265625 45.40625 46.390625 
z
M 14.796875 27.296875 
Q 14.796875 17.390625 18.875 11.75 
Q 22.953125 6.109375 30.078125 6.109375 
Q 37.203125 6.109375 41.296875 11.75 
Q 45.40625 17.390625 45.40625 27.296875 
Q 45.40625 37.203125 41.296875 42.84375 
Q 37.203125 48.484375 30.078125 48.484375 
Q 22.953125 48.484375 18.875 42.84375 
Q 14.796875 37.203125 14.796875 27.296875 
z
" id="DejaVuSans-100"/>
      <path d="M 17.921875 72.90625 
L 17.921875 45.796875 
L 9.625 45.796875 
L 9.625 72.90625 
z
" id="DejaVuSans-39"/>
      <path d="M 34.28125 27.484375 
Q 23.390625 27.484375 19.1875 25 
Q 14.984375 22.515625 14.984375 16.5 
Q 14.984375 11.71875 18.140625 8.90625 
Q 21.296875 6.109375 26.703125 6.109375 
Q 34.1875 6.109375 38.703125 11.40625 
Q 43.21875 16.703125 43.21875 25.484375 
L 43.21875 27.484375 
z
M 52.203125 31.203125 
L 52.203125 0 
L 43.21875 0 
L 43.21875 8.296875 
Q 40.140625 3.328125 35.546875 0.953125 
Q 30.953125 -1.421875 24.3125 -1.421875 
Q 15.921875 -1.421875 10.953125 3.296875 
Q 6 8.015625 6 15.921875 
Q 6 25.140625 12.171875 29.828125 
Q 18.359375 34.515625 30.609375 34.515625 
L 43.21875 34.515625 
L 43.21875 35.40625 
Q 43.21875 41.609375 39.140625 45 
Q 35.0625 48.390625 27.6875 48.390625 
Q 23 48.390625 18.546875 47.265625 
Q 14.109375 46.140625 10.015625 43.890625 
L 10.015625 52.203125 
Q 14.9375 54.109375 19.578125 55.046875 
Q 24.21875 56 28.609375 56 
Q 40.484375 56 46.34375 49.84375 
Q 52.203125 43.703125 52.203125 31.203125 
z
" id="DejaVuSans-97"/>
      <path d="M 45.40625 27.984375 
Q 45.40625 37.75 41.375 43.109375 
Q 37.359375 48.484375 30.078125 48.484375 
Q 22.859375 48.484375 18.828125 43.109375 
Q 14.796875 37.75 14.796875 27.984375 
Q 14.796875 18.265625 18.828125 12.890625 
Q 22.859375 7.515625 30.078125 7.515625 
Q 37.359375 7.515625 41.375 12.890625 
Q 45.40625 18.265625 45.40625 27.984375 
z
M 54.390625 6.78125 
Q 54.390625 -7.171875 48.1875 -13.984375 
Q 42 -20.796875 29.203125 -20.796875 
Q 24.46875 -20.796875 20.265625 -20.09375 
Q 16.0625 -19.390625 12.109375 -17.921875 
L 12.109375 -9.1875 
Q 16.0625 -11.328125 19.921875 -12.34375 
Q 23.78125 -13.375 27.78125 -13.375 
Q 36.625 -13.375 41.015625 -8.765625 
Q 45.40625 -4.15625 45.40625 5.171875 
L 45.40625 9.625 
Q 42.625 4.78125 38.28125 2.390625 
Q 33.9375 0 27.875 0 
Q 17.828125 0 11.671875 7.65625 
Q 5.515625 15.328125 5.515625 27.984375 
Q 5.515625 40.671875 11.671875 48.328125 
Q 17.828125 56 27.875 56 
Q 33.9375 56 38.28125 53.609375 
Q 42.625 51.21875 45.40625 46.390625 
L 45.40625 54.6875 
L 54.390625 54.6875 
z
" id="DejaVuSans-103"/>
      <path d="M 54.890625 33.015625 
L 54.890625 0 
L 45.90625 0 
L 45.90625 32.71875 
Q 45.90625 40.484375 42.875 44.328125 
Q 39.84375 48.1875 33.796875 48.1875 
Q 26.515625 48.1875 22.3125 43.546875 
Q 18.109375 38.921875 18.109375 30.90625 
L 18.109375 0 
L 9.078125 0 
L 9.078125 54.6875 
L 18.109375 54.6875 
L 18.109375 46.1875 
Q 21.34375 51.125 25.703125 53.5625 
Q 30.078125 56 35.796875 56 
Q 45.21875 56 50.046875 50.171875 
Q 54.890625 44.34375 54.890625 33.015625 
z
" id="DejaVuSans-110"/>
     </defs>
     <g transform="translate(19.195312 224.960938)rotate(-90)scale(0.1 -0.1)">
      <use xlink:href="#DejaVuSans-78"/>
      <use x="74.804688" xlink:href="#DejaVuSans-111"/>
      <use x="135.986328" xlink:href="#DejaVuSans-109"/>
      <use x="233.398438" xlink:href="#DejaVuSans-98"/>
      <use x="296.875" xlink:href="#DejaVuSans-114"/>
      <use x="337.957031" xlink:href="#DejaVuSans-101"/>
      <use x="399.480469" xlink:href="#DejaVuSans-32"/>
      <use x="431.267578" xlink:href="#DejaVuSans-100"/>
      <use x="494.744141" xlink:href="#DejaVuSans-39"/>
      <use x="522.234375" xlink:href="#DejaVuSans-97"/>
      <use x="583.513672" xlink:href="#DejaVuSans-103"/>
      <use x="646.990234" xlink:href="#DejaVuSans-101"/>
      <use x="708.513672" xlink:href="#DejaVuSans-110"/>
      <use x="771.892578" xlink:href="#DejaVuSans-116"/>
      <use x="811.101562" xlink:href="#DejaVuSans-115"/>
     </g>
    </g>
   </g>
   <g id="line2d_14">
    <path clip-path="url(#p131f4e0eca)" d="M 57.681818 292.853824 
L 58.441208 276.41303 
L 59.200599 249.360452 
L 59.959989 236.656202 
L 61.47877 217.824021 
L 62.23816 205.269233 
L 62.99755 198.24453 
L 66.035112 173.732802 
L 66.794502 165.811328 
L 67.553892 164.615634 
L 68.313283 158.936087 
L 69.072673 154.452235 
L 69.832063 152.957617 
L 70.591453 152.35977 
L 71.350844 148.772688 
L 72.110234 143.989911 
L 72.869624 139.954444 
L 73.629015 139.057673 
L 74.388405 137.11467 
L 75.147795 136.2179 
L 75.907186 138.011441 
L 77.425966 133.67705 
L 78.185357 133.67705 
L 78.944747 129.342659 
L 79.704137 129.940506 
L 80.463527 128.296427 
L 81.222918 124.559883 
L 81.982308 121.869571 
L 82.741698 121.271724 
L 84.260479 118.880336 
L 85.019869 120.823339 
L 85.77926 120.9728 
L 86.53865 120.823339 
L 87.29804 117.53518 
L 88.057431 113.350251 
L 88.816821 112.901865 
L 89.576211 110.809401 
L 90.335602 106.624471 
L 91.094992 106.624471 
L 91.854382 105.129854 
L 92.613772 108.866398 
L 93.373163 109.763168 
L 94.132553 106.624471 
L 94.891943 107.521242 
L 95.651334 104.83093 
L 97.170114 112.602942 
L 97.929505 112.304018 
L 98.688895 111.108324 
L 99.448285 112.304018 
L 100.207676 108.268551 
L 100.967066 103.186851 
L 102.485846 100.197616 
L 103.245237 98.404075 
L 104.004627 102.29008 
L 105.523408 92.87399 
L 106.282798 94.518069 
L 107.042188 90.781525 
L 107.801579 94.816992 
L 108.560969 95.414839 
L 109.320359 95.863225 
L 110.07975 97.208381 
L 110.83914 97.507304 
L 111.59853 101.692233 
L 112.357921 101.991157 
L 113.117311 104.382545 
L 113.876701 107.521242 
L 114.636091 113.649174 
L 115.395482 113.051327 
L 116.154872 116.937333 
L 116.914262 118.581412 
L 118.433043 129.043735 
L 119.192433 133.378126 
L 119.951824 133.67705 
L 121.470604 143.093141 
L 122.229995 143.690988 
L 122.989385 140.851214 
L 123.748775 144.288835 
L 124.508165 147.128608 
L 125.267556 149.519996 
L 126.026946 152.35977 
L 126.786336 154.452235 
L 127.545727 155.199543 
L 128.305117 158.487702 
L 129.064507 160.87909 
L 129.823898 161.626399 
L 130.583288 162.971555 
L 131.342678 165.213481 
L 132.102069 163.868325 
L 132.861459 164.316711 
L 134.38024 172.985493 
L 135.13963 174.928496 
L 135.89902 174.031725 
L 136.65841 174.928496 
L 138.177191 182.401584 
L 138.936581 187.18436 
L 139.695972 190.472519 
L 140.455362 192.415521 
L 141.214752 193.760677 
L 141.974143 197.646683 
L 142.733533 198.095068 
L 143.492923 200.038071 
L 144.252314 200.187533 
L 145.011704 202.728383 
L 145.771094 203.475692 
L 146.530484 203.625153 
L 148.049265 209.603624 
L 148.808655 210.500394 
L 150.327436 217.375635 
L 151.086826 218.571329 
L 151.846217 220.065947 
L 153.364997 223.802491 
L 154.124388 223.951953 
L 154.883778 224.699262 
L 155.643168 225.147647 
L 156.402559 227.240112 
L 157.161949 228.286344 
L 157.921339 230.079885 
L 158.680729 233.816429 
L 160.9589 239.944361 
L 161.718291 239.346514 
L 162.477681 240.392746 
L 163.237071 240.990593 
L 163.996462 243.680905 
L 164.755852 244.278752 
L 165.515242 243.680905 
L 166.274633 242.933596 
L 167.034023 244.428214 
L 167.793413 245.175523 
L 168.552803 245.623908 
L 169.312194 248.613143 
L 170.830974 250.85507 
L 171.590365 253.096996 
L 173.109145 255.787308 
L 173.868536 258.029234 
L 174.627926 258.328158 
L 175.387316 256.534616 
L 176.906097 260.27116 
L 177.665487 260.121699 
L 178.424878 258.627081 
L 179.184268 258.328158 
L 179.943658 260.27116 
L 180.703048 261.167931 
L 181.462439 259.673313 
L 182.221829 258.926005 
L 182.981219 259.523852 
L 183.74061 259.523852 
L 184.5 260.420622 
L 185.25939 261.91524 
L 186.018781 262.513087 
L 186.778171 264.306628 
L 187.537561 265.801246 
L 188.296952 266.847478 
L 189.056342 268.939942 
L 189.815732 269.687251 
L 192.093903 275.665722 
L 192.853293 276.114107 
L 193.612684 275.217336 
L 194.372074 275.815183 
L 195.131464 275.067875 
L 196.650245 278.206572 
L 197.409635 279.402266 
L 198.169026 280.299036 
L 198.928416 282.242039 
L 199.687806 282.989348 
L 200.447197 282.690424 
L 201.206587 282.989348 
L 202.725367 286.426968 
L 203.484758 286.128045 
L 204.244148 286.725892 
L 205.003538 286.875354 
L 205.762929 286.426968 
L 206.522319 286.426968 
L 207.281709 285.829121 
L 208.0411 285.829121 
L 208.80049 284.932351 
L 209.55988 285.380736 
L 210.319271 285.530198 
L 211.078661 286.875354 
L 211.838051 286.57643 
L 212.597441 287.622662 
L 213.356832 288.220509 
L 214.116222 289.864589 
L 214.875612 290.462436 
L 215.635003 290.312974 
L 216.394393 290.761359 
L 217.153783 290.611898 
L 217.913174 290.312974 
L 218.672564 288.605963 
L 219.431954 288.763292 
L 220.191345 288.605963 
L 221.710125 287.661994 
L 222.469516 287.347338 
L 223.228906 285.214667 
L 223.988296 283.886118 
L 224.747686 283.358606 
L 225.507077 283.13881 
L 226.266467 283.886118 
L 227.025857 282.951982 
L 227.785248 282.951982 
L 228.544638 282.690424 
L 229.304028 284.284683 
L 230.063419 286.277507 
L 231.582199 288.469612 
L 232.34159 288.668895 
L 233.10098 290.063871 
L 233.86037 290.661718 
L 234.61976 292.255977 
L 235.379151 291.014295 
L 236.138541 291.244236 
L 236.897931 291.244236 
L 237.657322 290.554412 
L 238.416712 287.37356 
L 239.176102 281.983878 
L 239.935493 282.255627 
L 240.694883 281.440381 
L 241.454273 283.070872 
L 242.213664 285.51661 
L 242.973054 282.092577 
L 243.732444 284.185042 
L 244.491835 285.380736 
L 245.251225 284.483965 
L 246.770005 286.277507 
L 247.529396 285.67966 
L 248.288786 285.67966 
L 249.048176 287.473201 
L 249.807567 288.071048 
L 250.566957 287.174277 
L 251.326347 288.369971 
L 252.845128 285.380736 
L 253.604518 287.249008 
L 254.363909 287.996317 
L 255.123299 289.490934 
L 255.882689 286.875354 
L 256.642079 288.583488 
L 257.40147 284.88253 
L 258.16086 283.387913 
L 258.92025 284.384324 
L 259.679641 285.878942 
L 260.439031 289.864589 
L 261.957812 293.850236 
L 262.717202 294.846647 
L 263.476592 295.344853 
L 264.235983 296.341265 
L 264.995373 295.843059 
L 265.754763 296.341265 
L 266.514154 296.341265 
L 267.273544 295.344853 
L 268.032934 290.462436 
L 268.792324 293.451671 
L 269.551715 294.647365 
L 270.311105 295.245212 
L 271.070495 297.038753 
L 271.829886 297.038753 
L 273.348666 298.234447 
L 274.108057 299.430141 
L 274.867447 299.430141 
L 276.386228 300.625836 
L 277.145618 300.027988 
L 277.905008 300.027988 
L 278.664398 299.579603 
L 279.423789 300.326912 
L 280.183179 301.82153 
L 280.942569 302.568838 
L 283.22074 302.568838 
L 283.980131 303.316147 
L 284.739521 301.82153 
L 287.017692 304.810765 
L 288.536473 304.810765 
L 289.295863 305.807177 
L 290.055253 306.305382 
L 294.611595 306.305382 
L 295.370985 307.8 
L 311.318182 307.8 
L 311.318182 307.8 
" style="fill:none;stroke:#1f77b4;stroke-linecap:square;stroke-width:1.5;"/>
   </g>
   <g id="line2d_15">
    <path clip-path="url(#p131f4e0eca)" d="M 57.681818 307.8 
L 58.441208 306.604306 
L 59.200599 303.465609 
L 60.719379 294.19898 
L 61.47877 287.622662 
L 62.23816 282.690424 
L 62.99755 273.722719 
L 63.756941 267.295863 
L 64.516331 258.627081 
L 65.275721 251.602378 
L 66.035112 243.23252 
L 66.794502 237.403511 
L 67.553892 227.837959 
L 68.313283 224.848723 
L 69.072673 216.478865 
L 69.832063 209.902547 
L 70.591453 204.970309 
L 71.350844 201.981074 
L 72.869624 193.312292 
L 74.388405 183.597278 
L 75.147795 177.469346 
L 75.907186 172.836031 
L 76.666576 169.248949 
L 77.425966 164.914558 
L 78.185357 162.52317 
L 80.463527 152.509232 
L 81.222918 154.003849 
L 81.982308 152.808155 
L 82.741698 148.772688 
L 83.501089 145.932914 
L 84.260479 145.335067 
L 85.019869 138.75875 
L 85.77926 134.872744 
L 86.53865 132.032971 
L 87.29804 131.883509 
L 88.057431 129.791044 
L 88.816821 126.951271 
L 89.576211 125.905038 
L 90.335602 125.15773 
L 91.094992 125.008268 
L 91.854382 121.271724 
L 92.613772 119.029797 
L 93.373163 116.339486 
L 94.132553 118.133027 
L 94.891943 114.247021 
L 95.651334 114.844868 
L 96.410724 113.051327 
L 97.170114 109.763168 
L 97.929505 110.659939 
L 98.688895 114.695406 
L 99.448285 112.602942 
L 100.207676 111.407248 
L 100.967066 108.567474 
L 101.726456 109.165321 
L 102.485846 112.005095 
L 103.245237 111.855633 
L 104.004627 109.165321 
L 104.764017 110.659939 
L 105.523408 114.844868 
L 106.282798 111.108324 
L 107.042188 109.464245 
L 107.801579 105.578239 
L 108.560969 103.485774 
L 109.320359 104.382545 
L 110.07975 101.991157 
L 110.83914 103.186851 
L 111.59853 99.450307 
L 112.357921 102.29008 
L 113.117311 106.325548 
L 113.876701 106.47501 
L 114.636091 100.795463 
L 115.395482 104.83093 
L 116.154872 104.83093 
L 116.914262 103.784698 
L 117.673653 104.681469 
L 118.433043 108.119089 
L 119.192433 109.01586 
L 119.951824 111.257786 
L 120.711214 111.556709 
L 121.470604 115.741639 
L 122.229995 119.179259 
L 122.989385 121.720109 
L 123.748775 119.777106 
L 124.508165 120.524415 
L 125.267556 121.570647 
L 126.026946 125.008268 
L 127.545727 128.744812 
L 128.305117 130.388891 
L 129.064507 132.481356 
L 129.823898 136.367362 
L 130.583288 139.207135 
L 131.342678 138.310364 
L 132.102069 143.84045 
L 132.861459 147.27807 
L 133.620849 145.932914 
L 134.38024 147.726455 
L 135.89902 152.808155 
L 136.65841 154.302773 
L 137.417801 158.637164 
L 138.177191 157.292008 
L 138.936581 156.993084 
L 139.695972 159.384473 
L 140.455362 160.430705 
L 141.974143 166.259714 
L 142.733533 170.594105 
L 144.252314 173.433878 
L 146.530484 182.700507 
L 147.289875 182.252122 
L 148.049265 186.437051 
L 148.808655 189.72521 
L 149.568046 189.276825 
L 150.327436 189.426286 
L 151.086826 190.920904 
L 151.846217 196.450989 
L 152.605607 199.888609 
L 153.364997 202.578921 
L 154.124388 203.625153 
L 154.883778 207.212236 
L 155.643168 208.856315 
L 156.402559 209.902547 
L 157.161949 212.443397 
L 159.44012 215.283171 
L 160.19951 216.478865 
L 160.9589 217.375635 
L 161.718291 216.628327 
L 162.477681 217.375635 
L 163.237071 221.261641 
L 164.755852 223.802491 
L 165.515242 228.734729 
L 166.274633 228.435806 
L 167.034023 229.6315 
L 167.793413 232.770197 
L 168.552803 231.723964 
L 169.312194 231.425041 
L 170.071584 232.770197 
L 170.830974 236.058355 
L 172.349755 240.243285 
L 173.109145 239.794899 
L 173.868536 239.944361 
L 175.387316 247.865834 
L 176.146707 247.417449 
L 176.906097 248.762605 
L 177.665487 250.556146 
L 178.424878 252.947534 
L 179.184268 252.947534 
L 179.943658 252.200225 
L 181.462439 254.890537 
L 182.221829 253.993766 
L 183.74061 254.890537 
L 184.5 255.787308 
L 185.25939 255.488384 
L 186.018781 256.534616 
L 186.778171 256.983002 
L 187.537561 258.328158 
L 188.296952 259.972237 
L 189.056342 259.822775 
L 190.575122 261.018469 
L 191.334513 260.869007 
L 192.093903 259.972237 
L 194.372074 264.007704 
L 195.131464 264.605551 
L 195.890855 264.904475 
L 196.650245 265.35286 
L 197.409635 265.651784 
L 198.169026 266.99694 
L 198.928416 266.698016 
L 199.687806 269.089404 
L 200.447197 270.584022 
L 201.206587 271.331331 
L 201.965977 271.032407 
L 202.725367 270.43456 
L 203.484758 272.676486 
L 204.244148 274.021642 
L 205.003538 274.470028 
L 205.762929 275.665722 
L 206.522319 278.206572 
L 207.281709 280.149574 
L 208.0411 279.850651 
L 209.55988 281.49473 
L 210.319271 281.943116 
L 211.078661 281.345269 
L 211.838051 281.793654 
L 212.597441 281.793654 
L 213.356832 281.943116 
L 214.116222 281.195807 
L 214.875612 281.49473 
L 215.635003 281.943116 
L 216.394393 282.092577 
L 217.153783 282.989348 
L 217.913174 283.288271 
L 218.672564 283.72879 
L 219.431954 283.571462 
L 220.191345 284.515431 
L 221.710125 285.144744 
L 222.469516 285.931385 
L 223.228906 285.712873 
L 223.988296 285.644492 
L 224.747686 286.347842 
L 225.507077 285.007082 
L 226.266467 285.941218 
L 227.025857 286.314872 
L 227.785248 285.567563 
L 228.544638 282.889707 
L 229.304028 282.491142 
L 230.063419 282.690424 
L 230.822809 282.491142 
L 231.582199 281.893295 
L 232.34159 283.487554 
L 233.10098 283.088989 
L 233.86037 283.088989 
L 234.61976 282.491142 
L 235.379151 280.20706 
L 236.138541 280.437001 
L 236.897931 282.506471 
L 237.657322 283.426236 
L 238.416712 281.395089 
L 239.176102 281.168632 
L 239.935493 280.081637 
L 240.694883 280.625135 
L 241.454273 280.896883 
L 242.973054 276.114107 
L 243.732444 278.804419 
L 244.491835 277.010877 
L 245.251225 277.608725 
L 246.010615 277.309801 
L 246.770005 276.711954 
L 248.288786 279.701189 
L 249.048176 280.299036 
L 250.566957 284.782889 
L 251.326347 285.380736 
L 252.085738 284.550393 
L 252.845128 281.270538 
L 253.604518 279.77592 
L 254.363909 280.896883 
L 255.123299 280.896883 
L 256.642079 280.042816 
L 257.40147 277.907648 
L 258.16086 278.90406 
L 258.92025 280.896883 
L 259.679641 281.395089 
L 260.439031 279.900472 
L 261.957812 279.900472 
L 262.717202 282.391501 
L 263.476592 283.387913 
L 264.235983 282.391501 
L 264.995373 285.380736 
L 265.754763 287.871765 
L 266.514154 287.37356 
L 267.273544 289.366383 
L 268.032934 288.668895 
L 268.792324 287.473201 
L 269.551715 286.875354 
L 271.070495 290.462436 
L 271.829886 294.647365 
L 272.589276 294.647365 
L 273.348666 294.049518 
L 274.108057 294.049518 
L 274.867447 293.451671 
L 275.626837 293.451671 
L 276.386228 294.049518 
L 277.145618 295.245212 
L 277.905008 295.245212 
L 278.664398 292.106515 
L 279.423789 294.348442 
L 280.183179 295.843059 
L 281.70196 295.843059 
L 282.46135 297.337677 
L 283.980131 298.832294 
L 284.739521 296.839471 
L 286.258302 298.832294 
L 287.017692 298.832294 
L 288.536473 300.825118 
L 289.295863 300.825118 
L 290.055253 298.832294 
L 291.574034 301.82153 
L 293.092814 301.82153 
L 293.852205 303.316147 
L 295.370985 303.316147 
L 296.130376 304.810765 
L 311.318182 304.810765 
L 311.318182 304.810765 
" style="fill:none;stroke:#ff7f0e;stroke-linecap:square;stroke-width:1.5;"/>
   </g>
   <g id="patch_3">
    <path d="M 45 320.4 
L 45 43.2 
" style="fill:none;stroke:#000000;stroke-linecap:square;stroke-linejoin:miter;stroke-width:0.8;"/>
   </g>
   <g id="patch_4">
    <path d="M 324 320.4 
L 324 43.2 
" style="fill:none;stroke:#000000;stroke-linecap:square;stroke-linejoin:miter;stroke-width:0.8;"/>
   </g>
   <g id="patch_5">
    <path d="M 45 320.4 
L 324 320.4 
" style="fill:none;stroke:#000000;stroke-linecap:square;stroke-linejoin:miter;stroke-width:0.8;"/>
   </g>
   <g id="patch_6">
    <path d="M 45 43.2 
L 324 43.2 
" style="fill:none;stroke:#000000;stroke-linecap:square;stroke-linejoin:miter;stroke-width:0.8;"/>
   </g>
   <g id="legend_1">
    <g id="patch_7">
     <path d="M 199.496875 80.55625 
L 317 80.55625 
Q 319 80.55625 319 78.55625 
L 319 50.2 
Q 319 48.2 317 48.2 
L 199.496875 48.2 
Q 197.496875 48.2 197.496875 50.2 
L 197.496875 78.55625 
Q 197.496875 80.55625 199.496875 80.55625 
z
" style="fill:#ffffff;opacity:0.8;stroke:#cccccc;stroke-linejoin:miter;"/>
    </g>
    <g id="line2d_16">
     <path d="M 201.496875 56.298437 
L 221.496875 56.298437 
" style="fill:none;stroke:#1f77b4;stroke-linecap:square;stroke-width:1.5;"/>
    </g>
    <g id="line2d_17"/>
    <g id="text_16">
     <!-- Asymptomatique -->
     <defs>
      <path d="M 34.1875 63.1875 
L 20.796875 26.90625 
L 47.609375 26.90625 
z
M 28.609375 72.90625 
L 39.796875 72.90625 
L 67.578125 0 
L 57.328125 0 
L 50.6875 18.703125 
L 17.828125 18.703125 
L 11.1875 0 
L 0.78125 0 
z
" id="DejaVuSans-65"/>
      <path d="M 32.171875 -5.078125 
Q 28.375 -14.84375 24.75 -17.8125 
Q 21.140625 -20.796875 15.09375 -20.796875 
L 7.90625 -20.796875 
L 7.90625 -13.28125 
L 13.1875 -13.28125 
Q 16.890625 -13.28125 18.9375 -11.515625 
Q 21 -9.765625 23.484375 -3.21875 
L 25.09375 0.875 
L 2.984375 54.6875 
L 12.5 54.6875 
L 29.59375 11.921875 
L 46.6875 54.6875 
L 56.203125 54.6875 
z
" id="DejaVuSans-121"/>
      <path d="M 14.796875 27.296875 
Q 14.796875 17.390625 18.875 11.75 
Q 22.953125 6.109375 30.078125 6.109375 
Q 37.203125 6.109375 41.296875 11.75 
Q 45.40625 17.390625 45.40625 27.296875 
Q 45.40625 37.203125 41.296875 42.84375 
Q 37.203125 48.484375 30.078125 48.484375 
Q 22.953125 48.484375 18.875 42.84375 
Q 14.796875 37.203125 14.796875 27.296875 
z
M 45.40625 8.203125 
Q 42.578125 3.328125 38.25 0.953125 
Q 33.9375 -1.421875 27.875 -1.421875 
Q 17.96875 -1.421875 11.734375 6.484375 
Q 5.515625 14.40625 5.515625 27.296875 
Q 5.515625 40.1875 11.734375 48.09375 
Q 17.96875 56 27.875 56 
Q 33.9375 56 38.25 53.625 
Q 42.578125 51.265625 45.40625 46.390625 
L 45.40625 54.6875 
L 54.390625 54.6875 
L 54.390625 -20.796875 
L 45.40625 -20.796875 
z
" id="DejaVuSans-113"/>
      <path d="M 8.5 21.578125 
L 8.5 54.6875 
L 17.484375 54.6875 
L 17.484375 21.921875 
Q 17.484375 14.15625 20.5 10.265625 
Q 23.53125 6.390625 29.59375 6.390625 
Q 36.859375 6.390625 41.078125 11.03125 
Q 45.3125 15.671875 45.3125 23.6875 
L 45.3125 54.6875 
L 54.296875 54.6875 
L 54.296875 0 
L 45.3125 0 
L 45.3125 8.40625 
Q 42.046875 3.421875 37.71875 1 
Q 33.40625 -1.421875 27.6875 -1.421875 
Q 18.265625 -1.421875 13.375 4.4375 
Q 8.5 10.296875 8.5 21.578125 
z
M 31.109375 56 
z
" id="DejaVuSans-117"/>
     </defs>
     <g transform="translate(229.496875 59.798437)scale(0.1 -0.1)">
      <use xlink:href="#DejaVuSans-65"/>
      <use x="68.408203" xlink:href="#DejaVuSans-115"/>
      <use x="120.507812" xlink:href="#DejaVuSans-121"/>
      <use x="179.6875" xlink:href="#DejaVuSans-109"/>
      <use x="277.099609" xlink:href="#DejaVuSans-112"/>
      <use x="340.576172" xlink:href="#DejaVuSans-116"/>
      <use x="379.785156" xlink:href="#DejaVuSans-111"/>
      <use x="440.966797" xlink:href="#DejaVuSans-109"/>
      <use x="538.378906" xlink:href="#DejaVuSans-97"/>
      <use x="599.658203" xlink:href="#DejaVuSans-116"/>
      <use x="638.867188" xlink:href="#DejaVuSans-105"/>
      <use x="666.650391" xlink:href="#DejaVuSans-113"/>
      <use x="730.126953" xlink:href="#DejaVuSans-117"/>
      <use x="793.505859" xlink:href="#DejaVuSans-101"/>
     </g>
    </g>
    <g id="line2d_18">
     <path d="M 201.496875 70.976562 
L 221.496875 70.976562 
" style="fill:none;stroke:#ff7f0e;stroke-linecap:square;stroke-width:1.5;"/>
    </g>
    <g id="line2d_19"/>
    <g id="text_17">
     <!-- Symptomatique -->
     <defs>
      <path d="M 53.515625 70.515625 
L 53.515625 60.890625 
Q 47.90625 63.578125 42.921875 64.890625 
Q 37.9375 66.21875 33.296875 66.21875 
Q 25.25 66.21875 20.875 63.09375 
Q 16.5 59.96875 16.5 54.203125 
Q 16.5 49.359375 19.40625 46.890625 
Q 22.3125 44.4375 30.421875 42.921875 
L 36.375 41.703125 
Q 47.40625 39.59375 52.65625 34.296875 
Q 57.90625 29 57.90625 20.125 
Q 57.90625 9.515625 50.796875 4.046875 
Q 43.703125 -1.421875 29.984375 -1.421875 
Q 24.8125 -1.421875 18.96875 -0.25 
Q 13.140625 0.921875 6.890625 3.21875 
L 6.890625 13.375 
Q 12.890625 10.015625 18.65625 8.296875 
Q 24.421875 6.59375 29.984375 6.59375 
Q 38.421875 6.59375 43.015625 9.90625 
Q 47.609375 13.234375 47.609375 19.390625 
Q 47.609375 24.75 44.3125 27.78125 
Q 41.015625 30.8125 33.5 32.328125 
L 27.484375 33.5 
Q 16.453125 35.6875 11.515625 40.375 
Q 6.59375 45.0625 6.59375 53.421875 
Q 6.59375 63.09375 13.40625 68.65625 
Q 20.21875 74.21875 32.171875 74.21875 
Q 37.3125 74.21875 42.625 73.28125 
Q 47.953125 72.359375 53.515625 70.515625 
z
" id="DejaVuSans-83"/>
     </defs>
     <g transform="translate(229.496875 74.476562)scale(0.1 -0.1)">
      <use xlink:href="#DejaVuSans-83"/>
      <use x="63.476562" xlink:href="#DejaVuSans-121"/>
      <use x="122.65625" xlink:href="#DejaVuSans-109"/>
      <use x="220.068359" xlink:href="#DejaVuSans-112"/>
      <use x="283.544922" xlink:href="#DejaVuSans-116"/>
      <use x="322.753906" xlink:href="#DejaVuSans-111"/>
      <use x="383.935547" xlink:href="#DejaVuSans-109"/>
      <use x="481.347656" xlink:href="#DejaVuSans-97"/>
      <use x="542.626953" xlink:href="#DejaVuSans-116"/>
      <use x="581.835938" xlink:href="#DejaVuSans-105"/>
      <use x="609.619141" xlink:href="#DejaVuSans-113"/>
      <use x="673.095703" xlink:href="#DejaVuSans-117"/>
      <use x="736.474609" xlink:href="#DejaVuSans-101"/>
     </g>
    </g>
   </g>
  </g>
 </g>
 <defs>
  <clipPath id="p131f4e0eca">
   <rect height="277.2" width="279" x="45" y="43.2"/>
  </clipPath>
 </defs>
</svg>
