<?xml version="1.0" encoding="utf-8" standalone="no"?>
<!DOCTYPE svg PUBLIC "-//W3C//DTD SVG 1.1//EN"
  "http://www.w3.org/Graphics/SVG/1.1/DTD/svg11.dtd">
<!-- Created with matplotlib (https://matplotlib.org/) -->
<svg height="345.615625pt" version="1.1" viewBox="0 0 404.021875 345.615625" width="404.021875pt" xmlns="http://www.w3.org/2000/svg" xmlns:xlink="http://www.w3.org/1999/xlink">
 <defs>
  <style type="text/css">
*{stroke-linecap:butt;stroke-linejoin:round;}
  </style>
 </defs>
 <g id="figure_1">
  <g id="patch_1">
   <path d="M 0 345.615625 
L 404.021875 345.615625 
L 404.021875 0 
L 0 0 
z
" style="fill:#ffffff;"/>
  </g>
  <g id="axes_1">
   <g id="patch_2">
    <path d="M 45.716875 306.12375 
L 324.716875 306.12375 
L 324.716875 28.92375 
L 45.716875 28.92375 
z
" style="fill:#ffffff;"/>
   </g>
   <g id="matplotlib.axis_1">
    <g id="xtick_1">
     <g id="line2d_1">
      <path clip-path="url(#p76feb0e5b3)" d="M 58.398693 306.12375 
L 58.398693 28.92375 
" style="fill:none;stroke:#b0b0b0;stroke-dasharray:0.37,0.16;stroke-dashoffset:0;stroke-opacity:0.7;stroke-width:0.1;"/>
     </g>
     <g id="line2d_2">
      <defs>
       <path d="M 0 0 
L 0 3.5 
" id="m1af6fb3c28" style="stroke:#000000;stroke-width:0.8;"/>
      </defs>
      <g>
       <use style="stroke:#000000;stroke-width:0.8;" x="58.398693" xlink:href="#m1af6fb3c28" y="306.12375"/>
      </g>
     </g>
     <g id="text_1">
      <!-- 0.0 -->
      <defs>
       <path d="M 31.78125 66.40625 
Q 24.171875 66.40625 20.328125 58.90625 
Q 16.5 51.421875 16.5 36.375 
Q 16.5 21.390625 20.328125 13.890625 
Q 24.171875 6.390625 31.78125 6.390625 
Q 39.453125 6.390625 43.28125 13.890625 
Q 47.125 21.390625 47.125 36.375 
Q 47.125 51.421875 43.28125 58.90625 
Q 39.453125 66.40625 31.78125 66.40625 
z
M 31.78125 74.21875 
Q 44.046875 74.21875 50.515625 64.515625 
Q 56.984375 54.828125 56.984375 36.375 
Q 56.984375 17.96875 50.515625 8.265625 
Q 44.046875 -1.421875 31.78125 -1.421875 
Q 19.53125 -1.421875 13.0625 8.265625 
Q 6.59375 17.96875 6.59375 36.375 
Q 6.59375 54.828125 13.0625 64.515625 
Q 19.53125 74.21875 31.78125 74.21875 
z
" id="DejaVuSans-48"/>
       <path d="M 10.6875 12.40625 
L 21 12.40625 
L 21 0 
L 10.6875 0 
z
" id="DejaVuSans-46"/>
      </defs>
      <g transform="translate(50.447131 320.722188)scale(0.1 -0.1)">
       <use xlink:href="#DejaVuSans-48"/>
       <use x="63.623047" xlink:href="#DejaVuSans-46"/>
       <use x="95.410156" xlink:href="#DejaVuSans-48"/>
      </g>
     </g>
    </g>
    <g id="xtick_2">
     <g id="line2d_3">
      <path clip-path="url(#p76feb0e5b3)" d="M 91.771899 306.12375 
L 91.771899 28.92375 
" style="fill:none;stroke:#b0b0b0;stroke-dasharray:0.37,0.16;stroke-dashoffset:0;stroke-opacity:0.7;stroke-width:0.1;"/>
     </g>
     <g id="line2d_4">
      <g>
       <use style="stroke:#000000;stroke-width:0.8;" x="91.771899" xlink:href="#m1af6fb3c28" y="306.12375"/>
      </g>
     </g>
     <g id="text_2">
      <!-- 2.5 -->
      <defs>
       <path d="M 19.1875 8.296875 
L 53.609375 8.296875 
L 53.609375 0 
L 7.328125 0 
L 7.328125 8.296875 
Q 12.9375 14.109375 22.625 23.890625 
Q 32.328125 33.6875 34.8125 36.53125 
Q 39.546875 41.84375 41.421875 45.53125 
Q 43.3125 49.21875 43.3125 52.78125 
Q 43.3125 58.59375 39.234375 62.25 
Q 35.15625 65.921875 28.609375 65.921875 
Q 23.96875 65.921875 18.8125 64.3125 
Q 13.671875 62.703125 7.8125 59.421875 
L 7.8125 69.390625 
Q 13.765625 71.78125 18.9375 73 
Q 24.125 74.21875 28.421875 74.21875 
Q 39.75 74.21875 46.484375 68.546875 
Q 53.21875 62.890625 53.21875 53.421875 
Q 53.21875 48.921875 51.53125 44.890625 
Q 49.859375 40.875 45.40625 35.40625 
Q 44.1875 33.984375 37.640625 27.21875 
Q 31.109375 20.453125 19.1875 8.296875 
z
" id="DejaVuSans-50"/>
       <path d="M 10.796875 72.90625 
L 49.515625 72.90625 
L 49.515625 64.59375 
L 19.828125 64.59375 
L 19.828125 46.734375 
Q 21.96875 47.46875 24.109375 47.828125 
Q 26.265625 48.1875 28.421875 48.1875 
Q 40.625 48.1875 47.75 41.5 
Q 54.890625 34.8125 54.890625 23.390625 
Q 54.890625 11.625 47.5625 5.09375 
Q 40.234375 -1.421875 26.90625 -1.421875 
Q 22.3125 -1.421875 17.546875 -0.640625 
Q 12.796875 0.140625 7.71875 1.703125 
L 7.71875 11.625 
Q 12.109375 9.234375 16.796875 8.0625 
Q 21.484375 6.890625 26.703125 6.890625 
Q 35.15625 6.890625 40.078125 11.328125 
Q 45.015625 15.765625 45.015625 23.390625 
Q 45.015625 31 40.078125 35.4375 
Q 35.15625 39.890625 26.703125 39.890625 
Q 22.75 39.890625 18.8125 39.015625 
Q 14.890625 38.140625 10.796875 36.28125 
z
" id="DejaVuSans-53"/>
      </defs>
      <g transform="translate(83.820336 320.722188)scale(0.1 -0.1)">
       <use xlink:href="#DejaVuSans-50"/>
       <use x="63.623047" xlink:href="#DejaVuSans-46"/>
       <use x="95.410156" xlink:href="#DejaVuSans-53"/>
      </g>
     </g>
    </g>
    <g id="xtick_3">
     <g id="line2d_5">
      <path clip-path="url(#p76feb0e5b3)" d="M 125.145105 306.12375 
L 125.145105 28.92375 
" style="fill:none;stroke:#b0b0b0;stroke-dasharray:0.37,0.16;stroke-dashoffset:0;stroke-opacity:0.7;stroke-width:0.1;"/>
     </g>
     <g id="line2d_6">
      <g>
       <use style="stroke:#000000;stroke-width:0.8;" x="125.145105" xlink:href="#m1af6fb3c28" y="306.12375"/>
      </g>
     </g>
     <g id="text_3">
      <!-- 5.0 -->
      <g transform="translate(117.193542 320.722188)scale(0.1 -0.1)">
       <use xlink:href="#DejaVuSans-53"/>
       <use x="63.623047" xlink:href="#DejaVuSans-46"/>
       <use x="95.410156" xlink:href="#DejaVuSans-48"/>
      </g>
     </g>
    </g>
    <g id="xtick_4">
     <g id="line2d_7">
      <path clip-path="url(#p76feb0e5b3)" d="M 158.51831 306.12375 
L 158.51831 28.92375 
" style="fill:none;stroke:#b0b0b0;stroke-dasharray:0.37,0.16;stroke-dashoffset:0;stroke-opacity:0.7;stroke-width:0.1;"/>
     </g>
     <g id="line2d_8">
      <g>
       <use style="stroke:#000000;stroke-width:0.8;" x="158.51831" xlink:href="#m1af6fb3c28" y="306.12375"/>
      </g>
     </g>
     <g id="text_4">
      <!-- 7.5 -->
      <defs>
       <path d="M 8.203125 72.90625 
L 55.078125 72.90625 
L 55.078125 68.703125 
L 28.609375 0 
L 18.3125 0 
L 43.21875 64.59375 
L 8.203125 64.59375 
z
" id="DejaVuSans-55"/>
      </defs>
      <g transform="translate(150.566748 320.722188)scale(0.1 -0.1)">
       <use xlink:href="#DejaVuSans-55"/>
       <use x="63.623047" xlink:href="#DejaVuSans-46"/>
       <use x="95.410156" xlink:href="#DejaVuSans-53"/>
      </g>
     </g>
    </g>
    <g id="xtick_5">
     <g id="line2d_9">
      <path clip-path="url(#p76feb0e5b3)" d="M 191.891516 306.12375 
L 191.891516 28.92375 
" style="fill:none;stroke:#b0b0b0;stroke-dasharray:0.37,0.16;stroke-dashoffset:0;stroke-opacity:0.7;stroke-width:0.1;"/>
     </g>
     <g id="line2d_10">
      <g>
       <use style="stroke:#000000;stroke-width:0.8;" x="191.891516" xlink:href="#m1af6fb3c28" y="306.12375"/>
      </g>
     </g>
     <g id="text_5">
      <!-- 10.0 -->
      <defs>
       <path d="M 12.40625 8.296875 
L 28.515625 8.296875 
L 28.515625 63.921875 
L 10.984375 60.40625 
L 10.984375 69.390625 
L 28.421875 72.90625 
L 38.28125 72.90625 
L 38.28125 8.296875 
L 54.390625 8.296875 
L 54.390625 0 
L 12.40625 0 
z
" id="DejaVuSans-49"/>
      </defs>
      <g transform="translate(180.758704 320.722188)scale(0.1 -0.1)">
       <use xlink:href="#DejaVuSans-49"/>
       <use x="63.623047" xlink:href="#DejaVuSans-48"/>
       <use x="127.246094" xlink:href="#DejaVuSans-46"/>
       <use x="159.033203" xlink:href="#DejaVuSans-48"/>
      </g>
     </g>
    </g>
    <g id="xtick_6">
     <g id="line2d_11">
      <path clip-path="url(#p76feb0e5b3)" d="M 225.264722 306.12375 
L 225.264722 28.92375 
" style="fill:none;stroke:#b0b0b0;stroke-dasharray:0.37,0.16;stroke-dashoffset:0;stroke-opacity:0.7;stroke-width:0.1;"/>
     </g>
     <g id="line2d_12">
      <g>
       <use style="stroke:#000000;stroke-width:0.8;" x="225.264722" xlink:href="#m1af6fb3c28" y="306.12375"/>
      </g>
     </g>
     <g id="text_6">
      <!-- 12.5 -->
      <g transform="translate(214.131909 320.722188)scale(0.1 -0.1)">
       <use xlink:href="#DejaVuSans-49"/>
       <use x="63.623047" xlink:href="#DejaVuSans-50"/>
       <use x="127.246094" xlink:href="#DejaVuSans-46"/>
       <use x="159.033203" xlink:href="#DejaVuSans-53"/>
      </g>
     </g>
    </g>
    <g id="xtick_7">
     <g id="line2d_13">
      <path clip-path="url(#p76feb0e5b3)" d="M 258.637928 306.12375 
L 258.637928 28.92375 
" style="fill:none;stroke:#b0b0b0;stroke-dasharray:0.37,0.16;stroke-dashoffset:0;stroke-opacity:0.7;stroke-width:0.1;"/>
     </g>
     <g id="line2d_14">
      <g>
       <use style="stroke:#000000;stroke-width:0.8;" x="258.637928" xlink:href="#m1af6fb3c28" y="306.12375"/>
      </g>
     </g>
     <g id="text_7">
      <!-- 15.0 -->
      <g transform="translate(247.505115 320.722188)scale(0.1 -0.1)">
       <use xlink:href="#DejaVuSans-49"/>
       <use x="63.623047" xlink:href="#DejaVuSans-53"/>
       <use x="127.246094" xlink:href="#DejaVuSans-46"/>
       <use x="159.033203" xlink:href="#DejaVuSans-48"/>
      </g>
     </g>
    </g>
    <g id="xtick_8">
     <g id="line2d_15">
      <path clip-path="url(#p76feb0e5b3)" d="M 292.011133 306.12375 
L 292.011133 28.92375 
" style="fill:none;stroke:#b0b0b0;stroke-dasharray:0.37,0.16;stroke-dashoffset:0;stroke-opacity:0.7;stroke-width:0.1;"/>
     </g>
     <g id="line2d_16">
      <g>
       <use style="stroke:#000000;stroke-width:0.8;" x="292.011133" xlink:href="#m1af6fb3c28" y="306.12375"/>
      </g>
     </g>
     <g id="text_8">
      <!-- 17.5 -->
      <g transform="translate(280.878321 320.722188)scale(0.1 -0.1)">
       <use xlink:href="#DejaVuSans-49"/>
       <use x="63.623047" xlink:href="#DejaVuSans-55"/>
       <use x="127.246094" xlink:href="#DejaVuSans-46"/>
       <use x="159.033203" xlink:href="#DejaVuSans-53"/>
      </g>
     </g>
    </g>
    <g id="text_9">
     <!-- Rounds -->
     <defs>
      <path d="M 44.390625 34.1875 
Q 47.5625 33.109375 50.5625 29.59375 
Q 53.5625 26.078125 56.59375 19.921875 
L 66.609375 0 
L 56 0 
L 46.6875 18.703125 
Q 43.0625 26.03125 39.671875 28.421875 
Q 36.28125 30.8125 30.421875 30.8125 
L 19.671875 30.8125 
L 19.671875 0 
L 9.8125 0 
L 9.8125 72.90625 
L 32.078125 72.90625 
Q 44.578125 72.90625 50.734375 67.671875 
Q 56.890625 62.453125 56.890625 51.90625 
Q 56.890625 45.015625 53.6875 40.46875 
Q 50.484375 35.9375 44.390625 34.1875 
z
M 19.671875 64.796875 
L 19.671875 38.921875 
L 32.078125 38.921875 
Q 39.203125 38.921875 42.84375 42.21875 
Q 46.484375 45.515625 46.484375 51.90625 
Q 46.484375 58.296875 42.84375 61.546875 
Q 39.203125 64.796875 32.078125 64.796875 
z
" id="DejaVuSans-82"/>
      <path d="M 30.609375 48.390625 
Q 23.390625 48.390625 19.1875 42.75 
Q 14.984375 37.109375 14.984375 27.296875 
Q 14.984375 17.484375 19.15625 11.84375 
Q 23.34375 6.203125 30.609375 6.203125 
Q 37.796875 6.203125 41.984375 11.859375 
Q 46.1875 17.53125 46.1875 27.296875 
Q 46.1875 37.015625 41.984375 42.703125 
Q 37.796875 48.390625 30.609375 48.390625 
z
M 30.609375 56 
Q 42.328125 56 49.015625 48.375 
Q 55.71875 40.765625 55.71875 27.296875 
Q 55.71875 13.875 49.015625 6.21875 
Q 42.328125 -1.421875 30.609375 -1.421875 
Q 18.84375 -1.421875 12.171875 6.21875 
Q 5.515625 13.875 5.515625 27.296875 
Q 5.515625 40.765625 12.171875 48.375 
Q 18.84375 56 30.609375 56 
z
" id="DejaVuSans-111"/>
      <path d="M 8.5 21.578125 
L 8.5 54.6875 
L 17.484375 54.6875 
L 17.484375 21.921875 
Q 17.484375 14.15625 20.5 10.265625 
Q 23.53125 6.390625 29.59375 6.390625 
Q 36.859375 6.390625 41.078125 11.03125 
Q 45.3125 15.671875 45.3125 23.6875 
L 45.3125 54.6875 
L 54.296875 54.6875 
L 54.296875 0 
L 45.3125 0 
L 45.3125 8.40625 
Q 42.046875 3.421875 37.71875 1 
Q 33.40625 -1.421875 27.6875 -1.421875 
Q 18.265625 -1.421875 13.375 4.4375 
Q 8.5 10.296875 8.5 21.578125 
z
M 31.109375 56 
z
" id="DejaVuSans-117"/>
      <path d="M 54.890625 33.015625 
L 54.890625 0 
L 45.90625 0 
L 45.90625 32.71875 
Q 45.90625 40.484375 42.875 44.328125 
Q 39.84375 48.1875 33.796875 48.1875 
Q 26.515625 48.1875 22.3125 43.546875 
Q 18.109375 38.921875 18.109375 30.90625 
L 18.109375 0 
L 9.078125 0 
L 9.078125 54.6875 
L 18.109375 54.6875 
L 18.109375 46.1875 
Q 21.34375 51.125 25.703125 53.5625 
Q 30.078125 56 35.796875 56 
Q 45.21875 56 50.046875 50.171875 
Q 54.890625 44.34375 54.890625 33.015625 
z
" id="DejaVuSans-110"/>
      <path d="M 45.40625 46.390625 
L 45.40625 75.984375 
L 54.390625 75.984375 
L 54.390625 0 
L 45.40625 0 
L 45.40625 8.203125 
Q 42.578125 3.328125 38.25 0.953125 
Q 33.9375 -1.421875 27.875 -1.421875 
Q 17.96875 -1.421875 11.734375 6.484375 
Q 5.515625 14.40625 5.515625 27.296875 
Q 5.515625 40.1875 11.734375 48.09375 
Q 17.96875 56 27.875 56 
Q 33.9375 56 38.25 53.625 
Q 42.578125 51.265625 45.40625 46.390625 
z
M 14.796875 27.296875 
Q 14.796875 17.390625 18.875 11.75 
Q 22.953125 6.109375 30.078125 6.109375 
Q 37.203125 6.109375 41.296875 11.75 
Q 45.40625 17.390625 45.40625 27.296875 
Q 45.40625 37.203125 41.296875 42.84375 
Q 37.203125 48.484375 30.078125 48.484375 
Q 22.953125 48.484375 18.875 42.84375 
Q 14.796875 37.203125 14.796875 27.296875 
z
" id="DejaVuSans-100"/>
      <path d="M 44.28125 53.078125 
L 44.28125 44.578125 
Q 40.484375 46.53125 36.375 47.5 
Q 32.28125 48.484375 27.875 48.484375 
Q 21.1875 48.484375 17.84375 46.4375 
Q 14.5 44.390625 14.5 40.28125 
Q 14.5 37.15625 16.890625 35.375 
Q 19.28125 33.59375 26.515625 31.984375 
L 29.59375 31.296875 
Q 39.15625 29.25 43.1875 25.515625 
Q 47.21875 21.78125 47.21875 15.09375 
Q 47.21875 7.46875 41.1875 3.015625 
Q 35.15625 -1.421875 24.609375 -1.421875 
Q 20.21875 -1.421875 15.453125 -0.5625 
Q 10.6875 0.296875 5.421875 2 
L 5.421875 11.28125 
Q 10.40625 8.6875 15.234375 7.390625 
Q 20.0625 6.109375 24.8125 6.109375 
Q 31.15625 6.109375 34.5625 8.28125 
Q 37.984375 10.453125 37.984375 14.40625 
Q 37.984375 18.0625 35.515625 20.015625 
Q 33.0625 21.96875 24.703125 23.78125 
L 21.578125 24.515625 
Q 13.234375 26.265625 9.515625 29.90625 
Q 5.8125 33.546875 5.8125 39.890625 
Q 5.8125 47.609375 11.28125 51.796875 
Q 16.75 56 26.8125 56 
Q 31.78125 56 36.171875 55.265625 
Q 40.578125 54.546875 44.28125 53.078125 
z
" id="DejaVuSans-115"/>
     </defs>
     <g transform="translate(162.840625 335.92)scale(0.12 -0.12)">
      <use xlink:href="#DejaVuSans-82"/>
      <use x="69.419922" xlink:href="#DejaVuSans-111"/>
      <use x="130.601562" xlink:href="#DejaVuSans-117"/>
      <use x="193.980469" xlink:href="#DejaVuSans-110"/>
      <use x="257.359375" xlink:href="#DejaVuSans-100"/>
      <use x="320.835938" xlink:href="#DejaVuSans-115"/>
     </g>
    </g>
   </g>
   <g id="matplotlib.axis_2">
    <g id="ytick_1">
     <g id="line2d_17">
      <path clip-path="url(#p76feb0e5b3)" d="M 45.716875 293.52375 
L 324.716875 293.52375 
" style="fill:none;stroke:#b0b0b0;stroke-dasharray:0.37,0.16;stroke-dashoffset:0;stroke-opacity:0.7;stroke-width:0.1;"/>
     </g>
     <g id="line2d_18">
      <defs>
       <path d="M 0 0 
L -3.5 0 
" id="meba13fd636" style="stroke:#000000;stroke-width:0.8;"/>
      </defs>
      <g>
       <use style="stroke:#000000;stroke-width:0.8;" x="45.716875" xlink:href="#meba13fd636" y="293.52375"/>
      </g>
     </g>
     <g id="text_10">
      <!-- 0.0 -->
      <g transform="translate(22.81375 297.322969)scale(0.1 -0.1)">
       <use xlink:href="#DejaVuSans-48"/>
       <use x="63.623047" xlink:href="#DejaVuSans-46"/>
       <use x="95.410156" xlink:href="#DejaVuSans-48"/>
      </g>
     </g>
    </g>
    <g id="ytick_2">
     <g id="line2d_19">
      <path clip-path="url(#p76feb0e5b3)" d="M 45.716875 260.607771 
L 324.716875 260.607771 
" style="fill:none;stroke:#b0b0b0;stroke-dasharray:0.37,0.16;stroke-dashoffset:0;stroke-opacity:0.7;stroke-width:0.1;"/>
     </g>
     <g id="line2d_20">
      <g>
       <use style="stroke:#000000;stroke-width:0.8;" x="45.716875" xlink:href="#meba13fd636" y="260.607771"/>
      </g>
     </g>
     <g id="text_11">
      <!-- 0.1 -->
      <g transform="translate(22.81375 264.40699)scale(0.1 -0.1)">
       <use xlink:href="#DejaVuSans-48"/>
       <use x="63.623047" xlink:href="#DejaVuSans-46"/>
       <use x="95.410156" xlink:href="#DejaVuSans-49"/>
      </g>
     </g>
    </g>
    <g id="ytick_3">
     <g id="line2d_21">
      <path clip-path="url(#p76feb0e5b3)" d="M 45.716875 227.691792 
L 324.716875 227.691792 
" style="fill:none;stroke:#b0b0b0;stroke-dasharray:0.37,0.16;stroke-dashoffset:0;stroke-opacity:0.7;stroke-width:0.1;"/>
     </g>
     <g id="line2d_22">
      <g>
       <use style="stroke:#000000;stroke-width:0.8;" x="45.716875" xlink:href="#meba13fd636" y="227.691792"/>
      </g>
     </g>
     <g id="text_12">
      <!-- 0.2 -->
      <g transform="translate(22.81375 231.491011)scale(0.1 -0.1)">
       <use xlink:href="#DejaVuSans-48"/>
       <use x="63.623047" xlink:href="#DejaVuSans-46"/>
       <use x="95.410156" xlink:href="#DejaVuSans-50"/>
      </g>
     </g>
    </g>
    <g id="ytick_4">
     <g id="line2d_23">
      <path clip-path="url(#p76feb0e5b3)" d="M 45.716875 194.775813 
L 324.716875 194.775813 
" style="fill:none;stroke:#b0b0b0;stroke-dasharray:0.37,0.16;stroke-dashoffset:0;stroke-opacity:0.7;stroke-width:0.1;"/>
     </g>
     <g id="line2d_24">
      <g>
       <use style="stroke:#000000;stroke-width:0.8;" x="45.716875" xlink:href="#meba13fd636" y="194.775813"/>
      </g>
     </g>
     <g id="text_13">
      <!-- 0.3 -->
      <defs>
       <path d="M 40.578125 39.3125 
Q 47.65625 37.796875 51.625 33 
Q 55.609375 28.21875 55.609375 21.1875 
Q 55.609375 10.40625 48.1875 4.484375 
Q 40.765625 -1.421875 27.09375 -1.421875 
Q 22.515625 -1.421875 17.65625 -0.515625 
Q 12.796875 0.390625 7.625 2.203125 
L 7.625 11.71875 
Q 11.71875 9.328125 16.59375 8.109375 
Q 21.484375 6.890625 26.8125 6.890625 
Q 36.078125 6.890625 40.9375 10.546875 
Q 45.796875 14.203125 45.796875 21.1875 
Q 45.796875 27.640625 41.28125 31.265625 
Q 36.765625 34.90625 28.71875 34.90625 
L 20.21875 34.90625 
L 20.21875 43.015625 
L 29.109375 43.015625 
Q 36.375 43.015625 40.234375 45.921875 
Q 44.09375 48.828125 44.09375 54.296875 
Q 44.09375 59.90625 40.109375 62.90625 
Q 36.140625 65.921875 28.71875 65.921875 
Q 24.65625 65.921875 20.015625 65.03125 
Q 15.375 64.15625 9.8125 62.3125 
L 9.8125 71.09375 
Q 15.4375 72.65625 20.34375 73.4375 
Q 25.25 74.21875 29.59375 74.21875 
Q 40.828125 74.21875 47.359375 69.109375 
Q 53.90625 64.015625 53.90625 55.328125 
Q 53.90625 49.265625 50.4375 45.09375 
Q 46.96875 40.921875 40.578125 39.3125 
z
" id="DejaVuSans-51"/>
      </defs>
      <g transform="translate(22.81375 198.575031)scale(0.1 -0.1)">
       <use xlink:href="#DejaVuSans-48"/>
       <use x="63.623047" xlink:href="#DejaVuSans-46"/>
       <use x="95.410156" xlink:href="#DejaVuSans-51"/>
      </g>
     </g>
    </g>
    <g id="ytick_5">
     <g id="line2d_25">
      <path clip-path="url(#p76feb0e5b3)" d="M 45.716875 161.859834 
L 324.716875 161.859834 
" style="fill:none;stroke:#b0b0b0;stroke-dasharray:0.37,0.16;stroke-dashoffset:0;stroke-opacity:0.7;stroke-width:0.1;"/>
     </g>
     <g id="line2d_26">
      <g>
       <use style="stroke:#000000;stroke-width:0.8;" x="45.716875" xlink:href="#meba13fd636" y="161.859834"/>
      </g>
     </g>
     <g id="text_14">
      <!-- 0.4 -->
      <defs>
       <path d="M 37.796875 64.3125 
L 12.890625 25.390625 
L 37.796875 25.390625 
z
M 35.203125 72.90625 
L 47.609375 72.90625 
L 47.609375 25.390625 
L 58.015625 25.390625 
L 58.015625 17.1875 
L 47.609375 17.1875 
L 47.609375 0 
L 37.796875 0 
L 37.796875 17.1875 
L 4.890625 17.1875 
L 4.890625 26.703125 
z
" id="DejaVuSans-52"/>
      </defs>
      <g transform="translate(22.81375 165.659052)scale(0.1 -0.1)">
       <use xlink:href="#DejaVuSans-48"/>
       <use x="63.623047" xlink:href="#DejaVuSans-46"/>
       <use x="95.410156" xlink:href="#DejaVuSans-52"/>
      </g>
     </g>
    </g>
    <g id="ytick_6">
     <g id="line2d_27">
      <path clip-path="url(#p76feb0e5b3)" d="M 45.716875 128.943855 
L 324.716875 128.943855 
" style="fill:none;stroke:#b0b0b0;stroke-dasharray:0.37,0.16;stroke-dashoffset:0;stroke-opacity:0.7;stroke-width:0.1;"/>
     </g>
     <g id="line2d_28">
      <g>
       <use style="stroke:#000000;stroke-width:0.8;" x="45.716875" xlink:href="#meba13fd636" y="128.943855"/>
      </g>
     </g>
     <g id="text_15">
      <!-- 0.5 -->
      <g transform="translate(22.81375 132.743073)scale(0.1 -0.1)">
       <use xlink:href="#DejaVuSans-48"/>
       <use x="63.623047" xlink:href="#DejaVuSans-46"/>
       <use x="95.410156" xlink:href="#DejaVuSans-53"/>
      </g>
     </g>
    </g>
    <g id="ytick_7">
     <g id="line2d_29">
      <path clip-path="url(#p76feb0e5b3)" d="M 45.716875 96.027875 
L 324.716875 96.027875 
" style="fill:none;stroke:#b0b0b0;stroke-dasharray:0.37,0.16;stroke-dashoffset:0;stroke-opacity:0.7;stroke-width:0.1;"/>
     </g>
     <g id="line2d_30">
      <g>
       <use style="stroke:#000000;stroke-width:0.8;" x="45.716875" xlink:href="#meba13fd636" y="96.027875"/>
      </g>
     </g>
     <g id="text_16">
      <!-- 0.6 -->
      <defs>
       <path d="M 33.015625 40.375 
Q 26.375 40.375 22.484375 35.828125 
Q 18.609375 31.296875 18.609375 23.390625 
Q 18.609375 15.53125 22.484375 10.953125 
Q 26.375 6.390625 33.015625 6.390625 
Q 39.65625 6.390625 43.53125 10.953125 
Q 47.40625 15.53125 47.40625 23.390625 
Q 47.40625 31.296875 43.53125 35.828125 
Q 39.65625 40.375 33.015625 40.375 
z
M 52.59375 71.296875 
L 52.59375 62.3125 
Q 48.875 64.0625 45.09375 64.984375 
Q 41.3125 65.921875 37.59375 65.921875 
Q 27.828125 65.921875 22.671875 59.328125 
Q 17.53125 52.734375 16.796875 39.40625 
Q 19.671875 43.65625 24.015625 45.921875 
Q 28.375 48.1875 33.59375 48.1875 
Q 44.578125 48.1875 50.953125 41.515625 
Q 57.328125 34.859375 57.328125 23.390625 
Q 57.328125 12.15625 50.6875 5.359375 
Q 44.046875 -1.421875 33.015625 -1.421875 
Q 20.359375 -1.421875 13.671875 8.265625 
Q 6.984375 17.96875 6.984375 36.375 
Q 6.984375 53.65625 15.1875 63.9375 
Q 23.390625 74.21875 37.203125 74.21875 
Q 40.921875 74.21875 44.703125 73.484375 
Q 48.484375 72.75 52.59375 71.296875 
z
" id="DejaVuSans-54"/>
      </defs>
      <g transform="translate(22.81375 99.827094)scale(0.1 -0.1)">
       <use xlink:href="#DejaVuSans-48"/>
       <use x="63.623047" xlink:href="#DejaVuSans-46"/>
       <use x="95.410156" xlink:href="#DejaVuSans-54"/>
      </g>
     </g>
    </g>
    <g id="ytick_8">
     <g id="line2d_31">
      <path clip-path="url(#p76feb0e5b3)" d="M 45.716875 63.111896 
L 324.716875 63.111896 
" style="fill:none;stroke:#b0b0b0;stroke-dasharray:0.37,0.16;stroke-dashoffset:0;stroke-opacity:0.7;stroke-width:0.1;"/>
     </g>
     <g id="line2d_32">
      <g>
       <use style="stroke:#000000;stroke-width:0.8;" x="45.716875" xlink:href="#meba13fd636" y="63.111896"/>
      </g>
     </g>
     <g id="text_17">
      <!-- 0.7 -->
      <g transform="translate(22.81375 66.911115)scale(0.1 -0.1)">
       <use xlink:href="#DejaVuSans-48"/>
       <use x="63.623047" xlink:href="#DejaVuSans-46"/>
       <use x="95.410156" xlink:href="#DejaVuSans-55"/>
      </g>
     </g>
    </g>
    <g id="ytick_9">
     <g id="line2d_33">
      <path clip-path="url(#p76feb0e5b3)" d="M 45.716875 30.195917 
L 324.716875 30.195917 
" style="fill:none;stroke:#b0b0b0;stroke-dasharray:0.37,0.16;stroke-dashoffset:0;stroke-opacity:0.7;stroke-width:0.1;"/>
     </g>
     <g id="line2d_34">
      <g>
       <use style="stroke:#000000;stroke-width:0.8;" x="45.716875" xlink:href="#meba13fd636" y="30.195917"/>
      </g>
     </g>
     <g id="text_18">
      <!-- 0.8 -->
      <defs>
       <path d="M 31.78125 34.625 
Q 24.75 34.625 20.71875 30.859375 
Q 16.703125 27.09375 16.703125 20.515625 
Q 16.703125 13.921875 20.71875 10.15625 
Q 24.75 6.390625 31.78125 6.390625 
Q 38.8125 6.390625 42.859375 10.171875 
Q 46.921875 13.96875 46.921875 20.515625 
Q 46.921875 27.09375 42.890625 30.859375 
Q 38.875 34.625 31.78125 34.625 
z
M 21.921875 38.8125 
Q 15.578125 40.375 12.03125 44.71875 
Q 8.5 49.078125 8.5 55.328125 
Q 8.5 64.0625 14.71875 69.140625 
Q 20.953125 74.21875 31.78125 74.21875 
Q 42.671875 74.21875 48.875 69.140625 
Q 55.078125 64.0625 55.078125 55.328125 
Q 55.078125 49.078125 51.53125 44.71875 
Q 48 40.375 41.703125 38.8125 
Q 48.828125 37.15625 52.796875 32.3125 
Q 56.78125 27.484375 56.78125 20.515625 
Q 56.78125 9.90625 50.3125 4.234375 
Q 43.84375 -1.421875 31.78125 -1.421875 
Q 19.734375 -1.421875 13.25 4.234375 
Q 6.78125 9.90625 6.78125 20.515625 
Q 6.78125 27.484375 10.78125 32.3125 
Q 14.796875 37.15625 21.921875 38.8125 
z
M 18.3125 54.390625 
Q 18.3125 48.734375 21.84375 45.5625 
Q 25.390625 42.390625 31.78125 42.390625 
Q 38.140625 42.390625 41.71875 45.5625 
Q 45.3125 48.734375 45.3125 54.390625 
Q 45.3125 60.0625 41.71875 63.234375 
Q 38.140625 66.40625 31.78125 66.40625 
Q 25.390625 66.40625 21.84375 63.234375 
Q 18.3125 60.0625 18.3125 54.390625 
z
" id="DejaVuSans-56"/>
      </defs>
      <g transform="translate(22.81375 33.995136)scale(0.1 -0.1)">
       <use xlink:href="#DejaVuSans-48"/>
       <use x="63.623047" xlink:href="#DejaVuSans-46"/>
       <use x="95.410156" xlink:href="#DejaVuSans-56"/>
      </g>
     </g>
    </g>
    <g id="text_19">
     <!-- P -->
     <defs>
      <path d="M 19.671875 64.796875 
L 19.671875 37.40625 
L 32.078125 37.40625 
Q 38.96875 37.40625 42.71875 40.96875 
Q 46.484375 44.53125 46.484375 51.125 
Q 46.484375 57.671875 42.71875 61.234375 
Q 38.96875 64.796875 32.078125 64.796875 
z
M 9.8125 72.90625 
L 32.078125 72.90625 
Q 44.34375 72.90625 50.609375 67.359375 
Q 56.890625 61.8125 56.890625 51.125 
Q 56.890625 40.328125 50.609375 34.8125 
Q 44.34375 29.296875 32.078125 29.296875 
L 19.671875 29.296875 
L 19.671875 0 
L 9.8125 0 
z
" id="DejaVuSans-80"/>
     </defs>
     <g transform="translate(16.318125 171.141563)rotate(-90)scale(0.12 -0.12)">
      <use xlink:href="#DejaVuSans-80"/>
     </g>
    </g>
   </g>
   <g id="line2d_35">
    <path clip-path="url(#p76feb0e5b3)" d="M 58.398693 293.52375 
L 71.747975 293.52375 
L 85.097258 293.52375 
L 98.44654 293.52375 
L 111.795822 293.52375 
L 125.145105 293.52375 
L 138.494387 293.52375 
L 151.843669 293.52375 
L 165.192952 293.52375 
L 178.542234 293.52375 
L 191.891516 293.52375 
L 205.240798 293.52375 
L 218.590081 293.52375 
L 231.939363 293.52375 
L 245.288645 293.52375 
L 258.637928 293.52375 
L 271.98721 293.52375 
L 285.336492 293.52375 
L 298.685775 293.52375 
L 312.035057 293.52375 
" style="fill:none;stroke:#000000;stroke-linecap:square;"/>
    <defs>
     <path d="M 0 2.5 
C 0.663008 2.5 1.29895 2.236584 1.767767 1.767767 
C 2.236584 1.29895 2.5 0.663008 2.5 0 
C 2.5 -0.663008 2.236584 -1.29895 1.767767 -1.767767 
C 1.29895 -2.236584 0.663008 -2.5 0 -2.5 
C -0.663008 -2.5 -1.29895 -2.236584 -1.767767 -1.767767 
C -2.236584 -1.29895 -2.5 -0.663008 -2.5 0 
C -2.5 0.663008 -2.236584 1.29895 -1.767767 1.767767 
C -1.29895 2.236584 -0.663008 2.5 0 2.5 
z
" id="m7bacc1fc73"/>
    </defs>
    <g clip-path="url(#p76feb0e5b3)">
     <use x="58.398693" xlink:href="#m7bacc1fc73" y="293.52375"/>
     <use x="71.747975" xlink:href="#m7bacc1fc73" y="293.52375"/>
     <use x="85.097258" xlink:href="#m7bacc1fc73" y="293.52375"/>
     <use x="98.44654" xlink:href="#m7bacc1fc73" y="293.52375"/>
     <use x="111.795822" xlink:href="#m7bacc1fc73" y="293.52375"/>
     <use x="125.145105" xlink:href="#m7bacc1fc73" y="293.52375"/>
     <use x="138.494387" xlink:href="#m7bacc1fc73" y="293.52375"/>
     <use x="151.843669" xlink:href="#m7bacc1fc73" y="293.52375"/>
     <use x="165.192952" xlink:href="#m7bacc1fc73" y="293.52375"/>
     <use x="178.542234" xlink:href="#m7bacc1fc73" y="293.52375"/>
     <use x="191.891516" xlink:href="#m7bacc1fc73" y="293.52375"/>
     <use x="205.240798" xlink:href="#m7bacc1fc73" y="293.52375"/>
     <use x="218.590081" xlink:href="#m7bacc1fc73" y="293.52375"/>
     <use x="231.939363" xlink:href="#m7bacc1fc73" y="293.52375"/>
     <use x="245.288645" xlink:href="#m7bacc1fc73" y="293.52375"/>
     <use x="258.637928" xlink:href="#m7bacc1fc73" y="293.52375"/>
     <use x="271.98721" xlink:href="#m7bacc1fc73" y="293.52375"/>
     <use x="285.336492" xlink:href="#m7bacc1fc73" y="293.52375"/>
     <use x="298.685775" xlink:href="#m7bacc1fc73" y="293.52375"/>
     <use x="312.035057" xlink:href="#m7bacc1fc73" y="293.52375"/>
    </g>
   </g>
   <g id="line2d_36">
    <path clip-path="url(#p76feb0e5b3)" d="M 58.398693 293.52375 
L 71.747975 293.52375 
L 85.097258 293.52375 
L 98.44654 293.52375 
L 111.795822 293.52375 
L 125.145105 293.52375 
L 138.494387 293.52375 
L 151.843669 293.52375 
L 165.192952 293.52375 
L 178.542234 293.52375 
L 191.891516 293.52375 
L 205.240798 293.52375 
L 218.590081 293.52375 
L 231.939363 293.52375 
L 245.288645 293.52375 
L 258.637928 293.52375 
L 271.98721 293.52375 
L 285.336492 293.52375 
L 298.685775 293.52375 
L 312.035057 293.52375 
" style="fill:none;stroke:#0343df;stroke-linecap:square;"/>
    <defs>
     <path d="M -0 2.5 
L 2.5 -2.5 
L -2.5 -2.5 
z
" id="mc383b90bdc"/>
    </defs>
    <g clip-path="url(#p76feb0e5b3)">
     <use style="fill:#0343df;" x="58.398693" xlink:href="#mc383b90bdc" y="293.52375"/>
     <use style="fill:#0343df;" x="71.747975" xlink:href="#mc383b90bdc" y="293.52375"/>
     <use style="fill:#0343df;" x="85.097258" xlink:href="#mc383b90bdc" y="293.52375"/>
     <use style="fill:#0343df;" x="98.44654" xlink:href="#mc383b90bdc" y="293.52375"/>
     <use style="fill:#0343df;" x="111.795822" xlink:href="#mc383b90bdc" y="293.52375"/>
     <use style="fill:#0343df;" x="125.145105" xlink:href="#mc383b90bdc" y="293.52375"/>
     <use style="fill:#0343df;" x="138.494387" xlink:href="#mc383b90bdc" y="293.52375"/>
     <use style="fill:#0343df;" x="151.843669" xlink:href="#mc383b90bdc" y="293.52375"/>
     <use style="fill:#0343df;" x="165.192952" xlink:href="#mc383b90bdc" y="293.52375"/>
     <use style="fill:#0343df;" x="178.542234" xlink:href="#mc383b90bdc" y="293.52375"/>
     <use style="fill:#0343df;" x="191.891516" xlink:href="#mc383b90bdc" y="293.52375"/>
     <use style="fill:#0343df;" x="205.240798" xlink:href="#mc383b90bdc" y="293.52375"/>
     <use style="fill:#0343df;" x="218.590081" xlink:href="#mc383b90bdc" y="293.52375"/>
     <use style="fill:#0343df;" x="231.939363" xlink:href="#mc383b90bdc" y="293.52375"/>
     <use style="fill:#0343df;" x="245.288645" xlink:href="#mc383b90bdc" y="293.52375"/>
     <use style="fill:#0343df;" x="258.637928" xlink:href="#mc383b90bdc" y="293.52375"/>
     <use style="fill:#0343df;" x="271.98721" xlink:href="#mc383b90bdc" y="293.52375"/>
     <use style="fill:#0343df;" x="285.336492" xlink:href="#mc383b90bdc" y="293.52375"/>
     <use style="fill:#0343df;" x="298.685775" xlink:href="#mc383b90bdc" y="293.52375"/>
     <use style="fill:#0343df;" x="312.035057" xlink:href="#mc383b90bdc" y="293.52375"/>
    </g>
   </g>
   <g id="line2d_37">
    <path clip-path="url(#p76feb0e5b3)" d="M 58.398693 293.52375 
L 71.747975 293.52375 
L 85.097258 293.52375 
L 98.44654 293.52375 
L 111.795822 293.52375 
L 125.145105 293.52375 
L 138.494387 293.52375 
L 151.843669 293.52375 
L 165.192952 293.52375 
L 178.542234 293.52375 
L 191.891516 293.52375 
L 205.240798 293.52375 
L 218.590081 293.52375 
L 231.939363 293.52375 
L 245.288645 293.52375 
L 258.637928 293.52375 
L 271.98721 293.52375 
L 285.336492 293.52375 
L 298.685775 293.52375 
L 312.035057 293.52375 
" style="fill:none;stroke:#15b01a;stroke-linecap:square;"/>
    <defs>
     <path d="M 0 -2.5 
L -2.5 2.5 
L 2.5 2.5 
z
" id="mf999c15142"/>
    </defs>
    <g clip-path="url(#p76feb0e5b3)">
     <use style="fill:#15b01a;" x="58.398693" xlink:href="#mf999c15142" y="293.52375"/>
     <use style="fill:#15b01a;" x="71.747975" xlink:href="#mf999c15142" y="293.52375"/>
     <use style="fill:#15b01a;" x="85.097258" xlink:href="#mf999c15142" y="293.52375"/>
     <use style="fill:#15b01a;" x="98.44654" xlink:href="#mf999c15142" y="293.52375"/>
     <use style="fill:#15b01a;" x="111.795822" xlink:href="#mf999c15142" y="293.52375"/>
     <use style="fill:#15b01a;" x="125.145105" xlink:href="#mf999c15142" y="293.52375"/>
     <use style="fill:#15b01a;" x="138.494387" xlink:href="#mf999c15142" y="293.52375"/>
     <use style="fill:#15b01a;" x="151.843669" xlink:href="#mf999c15142" y="293.52375"/>
     <use style="fill:#15b01a;" x="165.192952" xlink:href="#mf999c15142" y="293.52375"/>
     <use style="fill:#15b01a;" x="178.542234" xlink:href="#mf999c15142" y="293.52375"/>
     <use style="fill:#15b01a;" x="191.891516" xlink:href="#mf999c15142" y="293.52375"/>
     <use style="fill:#15b01a;" x="205.240798" xlink:href="#mf999c15142" y="293.52375"/>
     <use style="fill:#15b01a;" x="218.590081" xlink:href="#mf999c15142" y="293.52375"/>
     <use style="fill:#15b01a;" x="231.939363" xlink:href="#mf999c15142" y="293.52375"/>
     <use style="fill:#15b01a;" x="245.288645" xlink:href="#mf999c15142" y="293.52375"/>
     <use style="fill:#15b01a;" x="258.637928" xlink:href="#mf999c15142" y="293.52375"/>
     <use style="fill:#15b01a;" x="271.98721" xlink:href="#mf999c15142" y="293.52375"/>
     <use style="fill:#15b01a;" x="285.336492" xlink:href="#mf999c15142" y="293.52375"/>
     <use style="fill:#15b01a;" x="298.685775" xlink:href="#mf999c15142" y="293.52375"/>
     <use style="fill:#15b01a;" x="312.035057" xlink:href="#mf999c15142" y="293.52375"/>
    </g>
   </g>
   <g id="line2d_38">
    <path clip-path="url(#p76feb0e5b3)" d="M 58.398693 293.52375 
L 71.747975 293.52375 
L 85.097258 293.52375 
L 98.44654 293.52375 
L 111.795822 293.52375 
L 125.145105 293.52375 
L 138.494387 293.52375 
L 151.843669 293.52375 
L 165.192952 293.52375 
L 178.542234 293.52375 
L 191.891516 293.52375 
L 205.240798 293.52375 
L 218.590081 293.52375 
L 231.939363 293.52375 
L 245.288645 293.52375 
L 258.637928 293.52375 
L 271.98721 293.52375 
L 285.336492 293.52375 
L 298.685775 293.52375 
L 312.035057 293.52375 
" style="fill:none;stroke:#e50000;stroke-linecap:square;"/>
    <defs>
     <path d="M 0 -2.5 
L -2.5 2.5 
L 2.5 2.5 
z
" id="me3256358b6"/>
    </defs>
    <g clip-path="url(#p76feb0e5b3)">
     <use style="fill:#e50000;" x="58.398693" xlink:href="#me3256358b6" y="293.52375"/>
     <use style="fill:#e50000;" x="71.747975" xlink:href="#me3256358b6" y="293.52375"/>
     <use style="fill:#e50000;" x="85.097258" xlink:href="#me3256358b6" y="293.52375"/>
     <use style="fill:#e50000;" x="98.44654" xlink:href="#me3256358b6" y="293.52375"/>
     <use style="fill:#e50000;" x="111.795822" xlink:href="#me3256358b6" y="293.52375"/>
     <use style="fill:#e50000;" x="125.145105" xlink:href="#me3256358b6" y="293.52375"/>
     <use style="fill:#e50000;" x="138.494387" xlink:href="#me3256358b6" y="293.52375"/>
     <use style="fill:#e50000;" x="151.843669" xlink:href="#me3256358b6" y="293.52375"/>
     <use style="fill:#e50000;" x="165.192952" xlink:href="#me3256358b6" y="293.52375"/>
     <use style="fill:#e50000;" x="178.542234" xlink:href="#me3256358b6" y="293.52375"/>
     <use style="fill:#e50000;" x="191.891516" xlink:href="#me3256358b6" y="293.52375"/>
     <use style="fill:#e50000;" x="205.240798" xlink:href="#me3256358b6" y="293.52375"/>
     <use style="fill:#e50000;" x="218.590081" xlink:href="#me3256358b6" y="293.52375"/>
     <use style="fill:#e50000;" x="231.939363" xlink:href="#me3256358b6" y="293.52375"/>
     <use style="fill:#e50000;" x="245.288645" xlink:href="#me3256358b6" y="293.52375"/>
     <use style="fill:#e50000;" x="258.637928" xlink:href="#me3256358b6" y="293.52375"/>
     <use style="fill:#e50000;" x="271.98721" xlink:href="#me3256358b6" y="293.52375"/>
     <use style="fill:#e50000;" x="285.336492" xlink:href="#me3256358b6" y="293.52375"/>
     <use style="fill:#e50000;" x="298.685775" xlink:href="#me3256358b6" y="293.52375"/>
     <use style="fill:#e50000;" x="312.035057" xlink:href="#me3256358b6" y="293.52375"/>
    </g>
   </g>
   <g id="line2d_39">
    <path clip-path="url(#p76feb0e5b3)" d="M 58.398693 293.52375 
L 71.747975 293.52375 
L 85.097258 293.52375 
L 98.44654 293.52375 
L 111.795822 293.52375 
L 125.145105 293.52375 
L 138.494387 293.52375 
L 151.843669 293.52375 
L 165.192952 293.52375 
L 178.542234 293.52375 
L 191.891516 293.52375 
L 205.240798 293.52375 
L 218.590081 293.52375 
L 231.939363 293.52375 
L 245.288645 293.52375 
L 258.637928 293.52375 
L 271.98721 293.52375 
L 285.336492 293.52375 
L 298.685775 293.52375 
L 312.035057 293.52375 
" style="fill:none;stroke:#653700;stroke-linecap:square;"/>
    <defs>
     <path d="M 2.5 0 
L -2.5 -2.5 
L -2.5 2.5 
z
" id="m54b82782c9"/>
    </defs>
    <g clip-path="url(#p76feb0e5b3)">
     <use style="fill:#653700;" x="58.398693" xlink:href="#m54b82782c9" y="293.52375"/>
     <use style="fill:#653700;" x="71.747975" xlink:href="#m54b82782c9" y="293.52375"/>
     <use style="fill:#653700;" x="85.097258" xlink:href="#m54b82782c9" y="293.52375"/>
     <use style="fill:#653700;" x="98.44654" xlink:href="#m54b82782c9" y="293.52375"/>
     <use style="fill:#653700;" x="111.795822" xlink:href="#m54b82782c9" y="293.52375"/>
     <use style="fill:#653700;" x="125.145105" xlink:href="#m54b82782c9" y="293.52375"/>
     <use style="fill:#653700;" x="138.494387" xlink:href="#m54b82782c9" y="293.52375"/>
     <use style="fill:#653700;" x="151.843669" xlink:href="#m54b82782c9" y="293.52375"/>
     <use style="fill:#653700;" x="165.192952" xlink:href="#m54b82782c9" y="293.52375"/>
     <use style="fill:#653700;" x="178.542234" xlink:href="#m54b82782c9" y="293.52375"/>
     <use style="fill:#653700;" x="191.891516" xlink:href="#m54b82782c9" y="293.52375"/>
     <use style="fill:#653700;" x="205.240798" xlink:href="#m54b82782c9" y="293.52375"/>
     <use style="fill:#653700;" x="218.590081" xlink:href="#m54b82782c9" y="293.52375"/>
     <use style="fill:#653700;" x="231.939363" xlink:href="#m54b82782c9" y="293.52375"/>
     <use style="fill:#653700;" x="245.288645" xlink:href="#m54b82782c9" y="293.52375"/>
     <use style="fill:#653700;" x="258.637928" xlink:href="#m54b82782c9" y="293.52375"/>
     <use style="fill:#653700;" x="271.98721" xlink:href="#m54b82782c9" y="293.52375"/>
     <use style="fill:#653700;" x="285.336492" xlink:href="#m54b82782c9" y="293.52375"/>
     <use style="fill:#653700;" x="298.685775" xlink:href="#m54b82782c9" y="293.52375"/>
     <use style="fill:#653700;" x="312.035057" xlink:href="#m54b82782c9" y="293.52375"/>
    </g>
   </g>
   <g id="line2d_40">
    <path clip-path="url(#p76feb0e5b3)" d="M 58.398693 293.52375 
L 71.747975 293.52375 
L 85.097258 293.52375 
L 98.44654 293.52375 
L 111.795822 293.52375 
L 125.145105 293.52375 
L 138.494387 293.52375 
L 151.843669 293.52375 
L 165.192952 293.52375 
L 178.542234 293.52375 
L 191.891516 293.52375 
L 205.240798 293.52375 
L 218.590081 293.52375 
L 231.939363 293.52375 
L 245.288645 293.52375 
L 258.637928 293.52375 
L 271.98721 293.52375 
L 285.336492 293.52375 
L 298.685775 293.52375 
L 312.035057 293.52375 
" style="fill:none;stroke:#c20078;stroke-linecap:square;"/>
    <defs>
     <path d="M 0 0 
L 0 2.5 
M 0 0 
L 2 -1.25 
M 0 0 
L -2 -1.25 
" id="m73a6db9602"/>
    </defs>
    <g clip-path="url(#p76feb0e5b3)">
     <use style="fill:#c20078;" x="58.398693" xlink:href="#m73a6db9602" y="293.52375"/>
     <use style="fill:#c20078;" x="71.747975" xlink:href="#m73a6db9602" y="293.52375"/>
     <use style="fill:#c20078;" x="85.097258" xlink:href="#m73a6db9602" y="293.52375"/>
     <use style="fill:#c20078;" x="98.44654" xlink:href="#m73a6db9602" y="293.52375"/>
     <use style="fill:#c20078;" x="111.795822" xlink:href="#m73a6db9602" y="293.52375"/>
     <use style="fill:#c20078;" x="125.145105" xlink:href="#m73a6db9602" y="293.52375"/>
     <use style="fill:#c20078;" x="138.494387" xlink:href="#m73a6db9602" y="293.52375"/>
     <use style="fill:#c20078;" x="151.843669" xlink:href="#m73a6db9602" y="293.52375"/>
     <use style="fill:#c20078;" x="165.192952" xlink:href="#m73a6db9602" y="293.52375"/>
     <use style="fill:#c20078;" x="178.542234" xlink:href="#m73a6db9602" y="293.52375"/>
     <use style="fill:#c20078;" x="191.891516" xlink:href="#m73a6db9602" y="293.52375"/>
     <use style="fill:#c20078;" x="205.240798" xlink:href="#m73a6db9602" y="293.52375"/>
     <use style="fill:#c20078;" x="218.590081" xlink:href="#m73a6db9602" y="293.52375"/>
     <use style="fill:#c20078;" x="231.939363" xlink:href="#m73a6db9602" y="293.52375"/>
     <use style="fill:#c20078;" x="245.288645" xlink:href="#m73a6db9602" y="293.52375"/>
     <use style="fill:#c20078;" x="258.637928" xlink:href="#m73a6db9602" y="293.52375"/>
     <use style="fill:#c20078;" x="271.98721" xlink:href="#m73a6db9602" y="293.52375"/>
     <use style="fill:#c20078;" x="285.336492" xlink:href="#m73a6db9602" y="293.52375"/>
     <use style="fill:#c20078;" x="298.685775" xlink:href="#m73a6db9602" y="293.52375"/>
     <use style="fill:#c20078;" x="312.035057" xlink:href="#m73a6db9602" y="293.52375"/>
    </g>
   </g>
   <g id="line2d_41">
    <path clip-path="url(#p76feb0e5b3)" d="M 58.398693 293.52375 
L 71.747975 293.52375 
L 85.097258 293.52375 
L 98.44654 293.52375 
L 111.795822 293.52375 
L 125.145105 293.52375 
L 138.494387 293.52375 
L 151.843669 293.52375 
L 165.192952 293.52375 
L 178.542234 293.52375 
L 191.891516 293.52375 
L 205.240798 293.52375 
L 218.590081 293.52375 
L 231.939363 293.52375 
L 245.288645 293.52375 
L 258.637928 293.52375 
L 271.98721 293.52375 
L 285.336492 293.52375 
L 298.685775 293.52375 
L 312.035057 293.52375 
" style="fill:none;stroke:#c5c9c7;stroke-linecap:square;"/>
    <defs>
     <path d="M 0 0 
L 0 -2.5 
M 0 0 
L -2 1.25 
M 0 0 
L 2 1.25 
" id="m9b5cc36587"/>
    </defs>
    <g clip-path="url(#p76feb0e5b3)">
     <use style="fill:#c5c9c7;" x="58.398693" xlink:href="#m9b5cc36587" y="293.52375"/>
     <use style="fill:#c5c9c7;" x="71.747975" xlink:href="#m9b5cc36587" y="293.52375"/>
     <use style="fill:#c5c9c7;" x="85.097258" xlink:href="#m9b5cc36587" y="293.52375"/>
     <use style="fill:#c5c9c7;" x="98.44654" xlink:href="#m9b5cc36587" y="293.52375"/>
     <use style="fill:#c5c9c7;" x="111.795822" xlink:href="#m9b5cc36587" y="293.52375"/>
     <use style="fill:#c5c9c7;" x="125.145105" xlink:href="#m9b5cc36587" y="293.52375"/>
     <use style="fill:#c5c9c7;" x="138.494387" xlink:href="#m9b5cc36587" y="293.52375"/>
     <use style="fill:#c5c9c7;" x="151.843669" xlink:href="#m9b5cc36587" y="293.52375"/>
     <use style="fill:#c5c9c7;" x="165.192952" xlink:href="#m9b5cc36587" y="293.52375"/>
     <use style="fill:#c5c9c7;" x="178.542234" xlink:href="#m9b5cc36587" y="293.52375"/>
     <use style="fill:#c5c9c7;" x="191.891516" xlink:href="#m9b5cc36587" y="293.52375"/>
     <use style="fill:#c5c9c7;" x="205.240798" xlink:href="#m9b5cc36587" y="293.52375"/>
     <use style="fill:#c5c9c7;" x="218.590081" xlink:href="#m9b5cc36587" y="293.52375"/>
     <use style="fill:#c5c9c7;" x="231.939363" xlink:href="#m9b5cc36587" y="293.52375"/>
     <use style="fill:#c5c9c7;" x="245.288645" xlink:href="#m9b5cc36587" y="293.52375"/>
     <use style="fill:#c5c9c7;" x="258.637928" xlink:href="#m9b5cc36587" y="293.52375"/>
     <use style="fill:#c5c9c7;" x="271.98721" xlink:href="#m9b5cc36587" y="293.52375"/>
     <use style="fill:#c5c9c7;" x="285.336492" xlink:href="#m9b5cc36587" y="293.52375"/>
     <use style="fill:#c5c9c7;" x="298.685775" xlink:href="#m9b5cc36587" y="293.52375"/>
     <use style="fill:#c5c9c7;" x="312.035057" xlink:href="#m9b5cc36587" y="293.52375"/>
    </g>
   </g>
   <g id="line2d_42">
    <path clip-path="url(#p76feb0e5b3)" d="M 58.398693 239.713767 
L 71.747975 209.420071 
L 85.097258 293.52375 
L 98.44654 293.52375 
L 111.795822 293.52375 
L 125.145105 293.52375 
L 138.494387 293.52375 
L 151.843669 293.52375 
L 165.192952 293.52375 
L 178.542234 293.52375 
L 191.891516 293.52375 
L 205.240798 293.52375 
L 218.590081 293.52375 
L 231.939363 293.52375 
L 245.288645 293.52375 
L 258.637928 293.52375 
L 271.98721 293.52375 
L 285.336492 293.52375 
L 298.685775 293.52375 
L 312.035057 293.52375 
" style="fill:none;stroke:#ff81c0;stroke-linecap:square;"/>
    <defs>
     <path d="M 0 0 
L -2.5 -0 
M 0 0 
L 1.25 2 
M 0 0 
L 1.25 -2 
" id="m0bfdcf5387"/>
    </defs>
    <g clip-path="url(#p76feb0e5b3)">
     <use style="fill:#ff81c0;" x="58.398693" xlink:href="#m0bfdcf5387" y="239.713767"/>
     <use style="fill:#ff81c0;" x="71.747975" xlink:href="#m0bfdcf5387" y="209.420071"/>
     <use style="fill:#ff81c0;" x="85.097258" xlink:href="#m0bfdcf5387" y="293.52375"/>
     <use style="fill:#ff81c0;" x="98.44654" xlink:href="#m0bfdcf5387" y="293.52375"/>
     <use style="fill:#ff81c0;" x="111.795822" xlink:href="#m0bfdcf5387" y="293.52375"/>
     <use style="fill:#ff81c0;" x="125.145105" xlink:href="#m0bfdcf5387" y="293.52375"/>
     <use style="fill:#ff81c0;" x="138.494387" xlink:href="#m0bfdcf5387" y="293.52375"/>
     <use style="fill:#ff81c0;" x="151.843669" xlink:href="#m0bfdcf5387" y="293.52375"/>
     <use style="fill:#ff81c0;" x="165.192952" xlink:href="#m0bfdcf5387" y="293.52375"/>
     <use style="fill:#ff81c0;" x="178.542234" xlink:href="#m0bfdcf5387" y="293.52375"/>
     <use style="fill:#ff81c0;" x="191.891516" xlink:href="#m0bfdcf5387" y="293.52375"/>
     <use style="fill:#ff81c0;" x="205.240798" xlink:href="#m0bfdcf5387" y="293.52375"/>
     <use style="fill:#ff81c0;" x="218.590081" xlink:href="#m0bfdcf5387" y="293.52375"/>
     <use style="fill:#ff81c0;" x="231.939363" xlink:href="#m0bfdcf5387" y="293.52375"/>
     <use style="fill:#ff81c0;" x="245.288645" xlink:href="#m0bfdcf5387" y="293.52375"/>
     <use style="fill:#ff81c0;" x="258.637928" xlink:href="#m0bfdcf5387" y="293.52375"/>
     <use style="fill:#ff81c0;" x="271.98721" xlink:href="#m0bfdcf5387" y="293.52375"/>
     <use style="fill:#ff81c0;" x="285.336492" xlink:href="#m0bfdcf5387" y="293.52375"/>
     <use style="fill:#ff81c0;" x="298.685775" xlink:href="#m0bfdcf5387" y="293.52375"/>
     <use style="fill:#ff81c0;" x="312.035057" xlink:href="#m0bfdcf5387" y="293.52375"/>
    </g>
   </g>
   <g id="line2d_43">
    <path clip-path="url(#p76feb0e5b3)" d="M 58.398693 253.166262 
L 71.747975 246.215431 
L 85.097258 214.901001 
L 98.44654 200.002138 
L 111.795822 185.293121 
L 125.145105 170.855486 
L 138.494387 156.804459 
L 151.843669 143.256556 
L 165.192952 293.52375 
L 178.542234 293.52375 
L 191.891516 293.52375 
L 205.240798 293.52375 
L 218.590081 293.52375 
L 231.939363 293.52375 
L 245.288645 293.52375 
L 258.637928 293.52375 
L 271.98721 293.52375 
L 285.336492 293.52375 
L 298.685775 293.52375 
L 312.035057 293.52375 
" style="fill:none;stroke:#000000;stroke-linecap:square;"/>
    <defs>
     <path d="M 0 0 
L 2.5 0 
M 0 0 
L -1.25 -2 
M 0 0 
L -1.25 2 
" id="m2ac8f4d5ea"/>
    </defs>
    <g clip-path="url(#p76feb0e5b3)">
     <use x="58.398693" xlink:href="#m2ac8f4d5ea" y="253.166262"/>
     <use x="71.747975" xlink:href="#m2ac8f4d5ea" y="246.215431"/>
     <use x="85.097258" xlink:href="#m2ac8f4d5ea" y="214.901001"/>
     <use x="98.44654" xlink:href="#m2ac8f4d5ea" y="200.002138"/>
     <use x="111.795822" xlink:href="#m2ac8f4d5ea" y="185.293121"/>
     <use x="125.145105" xlink:href="#m2ac8f4d5ea" y="170.855486"/>
     <use x="138.494387" xlink:href="#m2ac8f4d5ea" y="156.804459"/>
     <use x="151.843669" xlink:href="#m2ac8f4d5ea" y="143.256556"/>
     <use x="165.192952" xlink:href="#m2ac8f4d5ea" y="293.52375"/>
     <use x="178.542234" xlink:href="#m2ac8f4d5ea" y="293.52375"/>
     <use x="191.891516" xlink:href="#m2ac8f4d5ea" y="293.52375"/>
     <use x="205.240798" xlink:href="#m2ac8f4d5ea" y="293.52375"/>
     <use x="218.590081" xlink:href="#m2ac8f4d5ea" y="293.52375"/>
     <use x="231.939363" xlink:href="#m2ac8f4d5ea" y="293.52375"/>
     <use x="245.288645" xlink:href="#m2ac8f4d5ea" y="293.52375"/>
     <use x="258.637928" xlink:href="#m2ac8f4d5ea" y="293.52375"/>
     <use x="271.98721" xlink:href="#m2ac8f4d5ea" y="293.52375"/>
     <use x="285.336492" xlink:href="#m2ac8f4d5ea" y="293.52375"/>
     <use x="298.685775" xlink:href="#m2ac8f4d5ea" y="293.52375"/>
     <use x="312.035057" xlink:href="#m2ac8f4d5ea" y="293.52375"/>
    </g>
   </g>
   <g id="line2d_44">
    <path clip-path="url(#p76feb0e5b3)" d="M 58.398693 256.270685 
L 71.747975 253.213703 
L 85.097258 231.684829 
L 98.44654 225.624721 
L 111.795822 220.99008 
L 125.145105 217.638113 
L 138.494387 215.451795 
L 151.843669 214.316064 
L 165.192952 136.003288 
L 178.542234 124.699782 
L 191.891516 113.915297 
L 205.240798 103.679981 
L 218.590081 94.010563 
L 231.939363 84.911521 
L 245.288645 76.377079 
L 258.637928 68.393458 
L 271.98721 60.941022 
L 285.336492 53.99616 
L 298.685775 47.532827 
L 312.035057 41.52375 
" style="fill:none;stroke:#0343df;stroke-linecap:square;"/>
    <defs>
     <path d="M -0.956709 -2.309699 
L -2.309699 -0.956709 
L -2.309699 0.956709 
L -0.956709 2.309699 
L 0.956709 2.309699 
L 2.309699 0.956709 
L 2.309699 -0.956709 
L 0.956709 -2.309699 
z
" id="mdf0f382338"/>
    </defs>
    <g clip-path="url(#p76feb0e5b3)">
     <use style="fill:#0343df;" x="58.398693" xlink:href="#mdf0f382338" y="256.270685"/>
     <use style="fill:#0343df;" x="71.747975" xlink:href="#mdf0f382338" y="253.213703"/>
     <use style="fill:#0343df;" x="85.097258" xlink:href="#mdf0f382338" y="231.684829"/>
     <use style="fill:#0343df;" x="98.44654" xlink:href="#mdf0f382338" y="225.624721"/>
     <use style="fill:#0343df;" x="111.795822" xlink:href="#mdf0f382338" y="220.99008"/>
     <use style="fill:#0343df;" x="125.145105" xlink:href="#mdf0f382338" y="217.638113"/>
     <use style="fill:#0343df;" x="138.494387" xlink:href="#mdf0f382338" y="215.451795"/>
     <use style="fill:#0343df;" x="151.843669" xlink:href="#mdf0f382338" y="214.316064"/>
     <use style="fill:#0343df;" x="165.192952" xlink:href="#mdf0f382338" y="136.003288"/>
     <use style="fill:#0343df;" x="178.542234" xlink:href="#mdf0f382338" y="124.699782"/>
     <use style="fill:#0343df;" x="191.891516" xlink:href="#mdf0f382338" y="113.915297"/>
     <use style="fill:#0343df;" x="205.240798" xlink:href="#mdf0f382338" y="103.679981"/>
     <use style="fill:#0343df;" x="218.590081" xlink:href="#mdf0f382338" y="94.010563"/>
     <use style="fill:#0343df;" x="231.939363" xlink:href="#mdf0f382338" y="84.911521"/>
     <use style="fill:#0343df;" x="245.288645" xlink:href="#mdf0f382338" y="76.377079"/>
     <use style="fill:#0343df;" x="258.637928" xlink:href="#mdf0f382338" y="68.393458"/>
     <use style="fill:#0343df;" x="271.98721" xlink:href="#mdf0f382338" y="60.941022"/>
     <use style="fill:#0343df;" x="285.336492" xlink:href="#mdf0f382338" y="53.99616"/>
     <use style="fill:#0343df;" x="298.685775" xlink:href="#mdf0f382338" y="47.532827"/>
     <use style="fill:#0343df;" x="312.035057" xlink:href="#mdf0f382338" y="41.52375"/>
    </g>
   </g>
   <g id="line2d_45">
    <path clip-path="url(#p76feb0e5b3)" d="M 58.398693 258.931618 
L 71.747975 258.766617 
L 85.097258 244.012048 
L 98.44654 243.043113 
L 111.795822 243.449295 
L 125.145105 244.877263 
L 138.494387 247.050583 
L 151.843669 249.742328 
L 165.192952 212.674717 
L 178.542234 213.062408 
L 191.891516 214.036906 
L 205.240798 215.508385 
L 218.590081 217.391139 
L 231.939363 219.605071 
L 245.288645 222.076926 
L 258.637928 224.741085 
L 271.98721 227.539871 
L 285.336492 230.423476 
L 298.685775 233.349582 
L 312.035057 236.282795 
" style="fill:none;stroke:#15b01a;stroke-linecap:square;"/>
    <defs>
     <path d="M -2.5 2.5 
L 2.5 2.5 
L 2.5 -2.5 
L -2.5 -2.5 
z
" id="med2fd7c069"/>
    </defs>
    <g clip-path="url(#p76feb0e5b3)">
     <use style="fill:#15b01a;" x="58.398693" xlink:href="#med2fd7c069" y="258.931618"/>
     <use style="fill:#15b01a;" x="71.747975" xlink:href="#med2fd7c069" y="258.766617"/>
     <use style="fill:#15b01a;" x="85.097258" xlink:href="#med2fd7c069" y="244.012048"/>
     <use style="fill:#15b01a;" x="98.44654" xlink:href="#med2fd7c069" y="243.043113"/>
     <use style="fill:#15b01a;" x="111.795822" xlink:href="#med2fd7c069" y="243.449295"/>
     <use style="fill:#15b01a;" x="125.145105" xlink:href="#med2fd7c069" y="244.877263"/>
     <use style="fill:#15b01a;" x="138.494387" xlink:href="#med2fd7c069" y="247.050583"/>
     <use style="fill:#15b01a;" x="151.843669" xlink:href="#med2fd7c069" y="249.742328"/>
     <use style="fill:#15b01a;" x="165.192952" xlink:href="#med2fd7c069" y="212.674717"/>
     <use style="fill:#15b01a;" x="178.542234" xlink:href="#med2fd7c069" y="213.062408"/>
     <use style="fill:#15b01a;" x="191.891516" xlink:href="#med2fd7c069" y="214.036906"/>
     <use style="fill:#15b01a;" x="205.240798" xlink:href="#med2fd7c069" y="215.508385"/>
     <use style="fill:#15b01a;" x="218.590081" xlink:href="#med2fd7c069" y="217.391139"/>
     <use style="fill:#15b01a;" x="231.939363" xlink:href="#med2fd7c069" y="219.605071"/>
     <use style="fill:#15b01a;" x="245.288645" xlink:href="#med2fd7c069" y="222.076926"/>
     <use style="fill:#15b01a;" x="258.637928" xlink:href="#med2fd7c069" y="224.741085"/>
     <use style="fill:#15b01a;" x="271.98721" xlink:href="#med2fd7c069" y="227.539871"/>
     <use style="fill:#15b01a;" x="285.336492" xlink:href="#med2fd7c069" y="230.423476"/>
     <use style="fill:#15b01a;" x="298.685775" xlink:href="#med2fd7c069" y="233.349582"/>
     <use style="fill:#15b01a;" x="312.035057" xlink:href="#med2fd7c069" y="236.282795"/>
    </g>
   </g>
   <g id="line2d_46">
    <path clip-path="url(#p76feb0e5b3)" d="M 58.398693 261.23776 
L 71.747975 263.246426 
L 85.097258 253.268903 
L 98.44654 255.217298 
L 111.795822 258.058738 
L 125.145105 261.367001 
L 138.494387 264.851636 
L 151.843669 268.313098 
L 165.192952 250.072146 
L 178.542234 253.16339 
L 191.891516 256.310312 
L 205.240798 259.434184 
L 218.590081 262.474664 
L 231.939363 265.387315 
L 245.288645 268.141239 
L 258.637928 270.716789 
L 271.98721 273.103406 
L 285.336492 275.297672 
L 298.685775 277.301584 
L 312.035057 279.1211 
" style="fill:none;stroke:#e50000;stroke-linecap:square;"/>
    <defs>
     <path d="M 0 -2.5 
L -2.377641 -0.772542 
L -1.469463 2.022542 
L 1.469463 2.022542 
L 2.377641 -0.772542 
z
" id="m040f235ecc"/>
    </defs>
    <g clip-path="url(#p76feb0e5b3)">
     <use style="fill:#e50000;" x="58.398693" xlink:href="#m040f235ecc" y="261.23776"/>
     <use style="fill:#e50000;" x="71.747975" xlink:href="#m040f235ecc" y="263.246426"/>
     <use style="fill:#e50000;" x="85.097258" xlink:href="#m040f235ecc" y="253.268903"/>
     <use style="fill:#e50000;" x="98.44654" xlink:href="#m040f235ecc" y="255.217298"/>
     <use style="fill:#e50000;" x="111.795822" xlink:href="#m040f235ecc" y="258.058738"/>
     <use style="fill:#e50000;" x="125.145105" xlink:href="#m040f235ecc" y="261.367001"/>
     <use style="fill:#e50000;" x="138.494387" xlink:href="#m040f235ecc" y="264.851636"/>
     <use style="fill:#e50000;" x="151.843669" xlink:href="#m040f235ecc" y="268.313098"/>
     <use style="fill:#e50000;" x="165.192952" xlink:href="#m040f235ecc" y="250.072146"/>
     <use style="fill:#e50000;" x="178.542234" xlink:href="#m040f235ecc" y="253.16339"/>
     <use style="fill:#e50000;" x="191.891516" xlink:href="#m040f235ecc" y="256.310312"/>
     <use style="fill:#e50000;" x="205.240798" xlink:href="#m040f235ecc" y="259.434184"/>
     <use style="fill:#e50000;" x="218.590081" xlink:href="#m040f235ecc" y="262.474664"/>
     <use style="fill:#e50000;" x="231.939363" xlink:href="#m040f235ecc" y="265.387315"/>
     <use style="fill:#e50000;" x="245.288645" xlink:href="#m040f235ecc" y="268.141239"/>
     <use style="fill:#e50000;" x="258.637928" xlink:href="#m040f235ecc" y="270.716789"/>
     <use style="fill:#e50000;" x="271.98721" xlink:href="#m040f235ecc" y="273.103406"/>
     <use style="fill:#e50000;" x="285.336492" xlink:href="#m040f235ecc" y="275.297672"/>
     <use style="fill:#e50000;" x="298.685775" xlink:href="#m040f235ecc" y="277.301584"/>
     <use style="fill:#e50000;" x="312.035057" xlink:href="#m040f235ecc" y="279.1211"/>
    </g>
   </g>
   <g id="line2d_47">
    <path clip-path="url(#p76feb0e5b3)" d="M 58.398693 263.255634 
L 71.747975 266.91282 
L 85.097258 260.354778 
L 98.44654 263.932927 
L 111.795822 267.840114 
L 125.145105 271.691434 
L 138.494387 275.273928 
L 151.843669 278.480063 
L 165.192952 269.215858 
L 178.542234 272.356336 
L 191.891516 275.226584 
L 205.240798 277.810111 
L 218.590081 280.106132 
L 231.939363 282.124745 
L 245.288645 283.883158 
L 258.637928 285.402781 
L 271.98721 286.707041 
L 285.336492 287.819794 
L 298.685775 288.764231 
L 312.035057 289.562175 
" style="fill:none;stroke:#653700;stroke-linecap:square;"/>
    <defs>
     <path d="M 0 -2.5 
L -0.561285 -0.772542 
L -2.377641 -0.772542 
L -0.908178 0.295085 
L -1.469463 2.022542 
L -0 0.954915 
L 1.469463 2.022542 
L 0.908178 0.295085 
L 2.377641 -0.772542 
L 0.561285 -0.772542 
z
" id="m48efea058e"/>
    </defs>
    <g clip-path="url(#p76feb0e5b3)">
     <use style="fill:#653700;" x="58.398693" xlink:href="#m48efea058e" y="263.255634"/>
     <use style="fill:#653700;" x="71.747975" xlink:href="#m48efea058e" y="266.91282"/>
     <use style="fill:#653700;" x="85.097258" xlink:href="#m48efea058e" y="260.354778"/>
     <use style="fill:#653700;" x="98.44654" xlink:href="#m48efea058e" y="263.932927"/>
     <use style="fill:#653700;" x="111.795822" xlink:href="#m48efea058e" y="267.840114"/>
     <use style="fill:#653700;" x="125.145105" xlink:href="#m48efea058e" y="271.691434"/>
     <use style="fill:#653700;" x="138.494387" xlink:href="#m48efea058e" y="275.273928"/>
     <use style="fill:#653700;" x="151.843669" xlink:href="#m48efea058e" y="278.480063"/>
     <use style="fill:#653700;" x="165.192952" xlink:href="#m48efea058e" y="269.215858"/>
     <use style="fill:#653700;" x="178.542234" xlink:href="#m48efea058e" y="272.356336"/>
     <use style="fill:#653700;" x="191.891516" xlink:href="#m48efea058e" y="275.226584"/>
     <use style="fill:#653700;" x="205.240798" xlink:href="#m48efea058e" y="277.810111"/>
     <use style="fill:#653700;" x="218.590081" xlink:href="#m48efea058e" y="280.106132"/>
     <use style="fill:#653700;" x="231.939363" xlink:href="#m48efea058e" y="282.124745"/>
     <use style="fill:#653700;" x="245.288645" xlink:href="#m48efea058e" y="283.883158"/>
     <use style="fill:#653700;" x="258.637928" xlink:href="#m48efea058e" y="285.402781"/>
     <use style="fill:#653700;" x="271.98721" xlink:href="#m48efea058e" y="286.707041"/>
     <use style="fill:#653700;" x="285.336492" xlink:href="#m48efea058e" y="287.819794"/>
     <use style="fill:#653700;" x="298.685775" xlink:href="#m48efea058e" y="288.764231"/>
     <use style="fill:#653700;" x="312.035057" xlink:href="#m48efea058e" y="289.562175"/>
    </g>
   </g>
   <g id="line2d_48">
    <path clip-path="url(#p76feb0e5b3)" d="M 58.398693 265.036112 
L 71.747975 269.951439 
L 85.097258 265.870563 
L 98.44654 270.304869 
L 111.795822 274.556175 
L 125.145105 278.348838 
L 138.494387 281.585077 
L 151.843669 284.261366 
L 165.192952 279.437777 
L 178.542234 281.979163 
L 191.891516 284.131589 
L 205.240798 285.932216 
L 218.590081 287.422776 
L 231.939363 288.645525 
L 245.288645 289.64073 
L 258.637928 290.44521 
L 271.98721 291.091642 
L 285.336492 291.608368 
L 298.685775 292.019523 
L 312.035057 292.34536 
" style="fill:none;stroke:#c20078;stroke-linecap:square;"/>
    <defs>
     <path d="M 0 -2.5 
L -2.165064 -1.25 
L -2.165064 1.25 
L -0 2.5 
L 2.165064 1.25 
L 2.165064 -1.25 
z
" id="m33243ac5ad"/>
    </defs>
    <g clip-path="url(#p76feb0e5b3)">
     <use style="fill:#c20078;" x="58.398693" xlink:href="#m33243ac5ad" y="265.036112"/>
     <use style="fill:#c20078;" x="71.747975" xlink:href="#m33243ac5ad" y="269.951439"/>
     <use style="fill:#c20078;" x="85.097258" xlink:href="#m33243ac5ad" y="265.870563"/>
     <use style="fill:#c20078;" x="98.44654" xlink:href="#m33243ac5ad" y="270.304869"/>
     <use style="fill:#c20078;" x="111.795822" xlink:href="#m33243ac5ad" y="274.556175"/>
     <use style="fill:#c20078;" x="125.145105" xlink:href="#m33243ac5ad" y="278.348838"/>
     <use style="fill:#c20078;" x="138.494387" xlink:href="#m33243ac5ad" y="281.585077"/>
     <use style="fill:#c20078;" x="151.843669" xlink:href="#m33243ac5ad" y="284.261366"/>
     <use style="fill:#c20078;" x="165.192952" xlink:href="#m33243ac5ad" y="279.437777"/>
     <use style="fill:#c20078;" x="178.542234" xlink:href="#m33243ac5ad" y="281.979163"/>
     <use style="fill:#c20078;" x="191.891516" xlink:href="#m33243ac5ad" y="284.131589"/>
     <use style="fill:#c20078;" x="205.240798" xlink:href="#m33243ac5ad" y="285.932216"/>
     <use style="fill:#c20078;" x="218.590081" xlink:href="#m33243ac5ad" y="287.422776"/>
     <use style="fill:#c20078;" x="231.939363" xlink:href="#m33243ac5ad" y="288.645525"/>
     <use style="fill:#c20078;" x="245.288645" xlink:href="#m33243ac5ad" y="289.64073"/>
     <use style="fill:#c20078;" x="258.637928" xlink:href="#m33243ac5ad" y="290.44521"/>
     <use style="fill:#c20078;" x="271.98721" xlink:href="#m33243ac5ad" y="291.091642"/>
     <use style="fill:#c20078;" x="285.336492" xlink:href="#m33243ac5ad" y="291.608368"/>
     <use style="fill:#c20078;" x="298.685775" xlink:href="#m33243ac5ad" y="292.019523"/>
     <use style="fill:#c20078;" x="312.035057" xlink:href="#m33243ac5ad" y="292.34536"/>
    </g>
   </g>
   <g id="line2d_49">
    <path clip-path="url(#p76feb0e5b3)" d="M 58.398693 266.618758 
L 71.747975 272.49783 
L 85.097258 270.228121 
L 98.44654 275.050345 
L 111.795822 279.271157 
L 125.145105 282.75452 
L 138.494387 285.521889 
L 151.843669 287.660558 
L 165.192952 285.102538 
L 178.542234 287.005326 
L 191.891516 288.515268 
L 205.240798 289.700378 
L 218.590081 290.621782 
L 231.939363 291.3323 
L 245.288645 291.876286 
L 258.637928 292.29017 
L 271.98721 292.603339 
L 285.336492 292.83916 
L 298.685775 293.015982 
L 312.035057 293.148071 
" style="fill:none;stroke:#c5c9c7;stroke-linecap:square;"/>
    <defs>
     <path d="M -1.25 -2.165064 
L -2.5 -0 
L -1.25 2.165064 
L 1.25 2.165064 
L 2.5 0 
L 1.25 -2.165064 
z
" id="mefcf30e9f9"/>
    </defs>
    <g clip-path="url(#p76feb0e5b3)">
     <use style="fill:#c5c9c7;" x="58.398693" xlink:href="#mefcf30e9f9" y="266.618758"/>
     <use style="fill:#c5c9c7;" x="71.747975" xlink:href="#mefcf30e9f9" y="272.49783"/>
     <use style="fill:#c5c9c7;" x="85.097258" xlink:href="#mefcf30e9f9" y="270.228121"/>
     <use style="fill:#c5c9c7;" x="98.44654" xlink:href="#mefcf30e9f9" y="275.050345"/>
     <use style="fill:#c5c9c7;" x="111.795822" xlink:href="#mefcf30e9f9" y="279.271157"/>
     <use style="fill:#c5c9c7;" x="125.145105" xlink:href="#mefcf30e9f9" y="282.75452"/>
     <use style="fill:#c5c9c7;" x="138.494387" xlink:href="#mefcf30e9f9" y="285.521889"/>
     <use style="fill:#c5c9c7;" x="151.843669" xlink:href="#mefcf30e9f9" y="287.660558"/>
     <use style="fill:#c5c9c7;" x="165.192952" xlink:href="#mefcf30e9f9" y="285.102538"/>
     <use style="fill:#c5c9c7;" x="178.542234" xlink:href="#mefcf30e9f9" y="287.005326"/>
     <use style="fill:#c5c9c7;" x="191.891516" xlink:href="#mefcf30e9f9" y="288.515268"/>
     <use style="fill:#c5c9c7;" x="205.240798" xlink:href="#mefcf30e9f9" y="289.700378"/>
     <use style="fill:#c5c9c7;" x="218.590081" xlink:href="#mefcf30e9f9" y="290.621782"/>
     <use style="fill:#c5c9c7;" x="231.939363" xlink:href="#mefcf30e9f9" y="291.3323"/>
     <use style="fill:#c5c9c7;" x="245.288645" xlink:href="#mefcf30e9f9" y="291.876286"/>
     <use style="fill:#c5c9c7;" x="258.637928" xlink:href="#mefcf30e9f9" y="292.29017"/>
     <use style="fill:#c5c9c7;" x="271.98721" xlink:href="#mefcf30e9f9" y="292.603339"/>
     <use style="fill:#c5c9c7;" x="285.336492" xlink:href="#mefcf30e9f9" y="292.83916"/>
     <use style="fill:#c5c9c7;" x="298.685775" xlink:href="#mefcf30e9f9" y="293.015982"/>
     <use style="fill:#c5c9c7;" x="312.035057" xlink:href="#mefcf30e9f9" y="293.148071"/>
    </g>
   </g>
   <g id="line2d_50">
    <path clip-path="url(#p76feb0e5b3)" d="M 58.398693 274.152156 
L 71.747975 282.623913 
L 85.097258 284.828703 
L 98.44654 288.559234 
L 111.795822 290.765991 
L 125.145105 292.023445 
L 138.494387 292.721114 
L 151.843669 293.100308 
L 165.192952 293.085858 
L 178.542234 293.279706 
L 191.891516 293.388741 
L 205.240798 293.449544 
L 218.590081 293.483198 
L 231.939363 293.501701 
L 245.288645 293.511816 
L 258.637928 293.517316 
L 271.98721 293.520294 
L 285.336492 293.521899 
L 298.685775 293.522761 
L 312.035057 293.523223 
" style="fill:none;stroke:#ff81c0;stroke-linecap:square;"/>
    <defs>
     <path d="M -2.5 0 
L 2.5 0 
M 0 2.5 
L 0 -2.5 
" id="m812ad3bf29"/>
    </defs>
    <g clip-path="url(#p76feb0e5b3)">
     <use style="fill:#ff81c0;" x="58.398693" xlink:href="#m812ad3bf29" y="274.152156"/>
     <use style="fill:#ff81c0;" x="71.747975" xlink:href="#m812ad3bf29" y="282.623913"/>
     <use style="fill:#ff81c0;" x="85.097258" xlink:href="#m812ad3bf29" y="284.828703"/>
     <use style="fill:#ff81c0;" x="98.44654" xlink:href="#m812ad3bf29" y="288.559234"/>
     <use style="fill:#ff81c0;" x="111.795822" xlink:href="#m812ad3bf29" y="290.765991"/>
     <use style="fill:#ff81c0;" x="125.145105" xlink:href="#m812ad3bf29" y="292.023445"/>
     <use style="fill:#ff81c0;" x="138.494387" xlink:href="#m812ad3bf29" y="292.721114"/>
     <use style="fill:#ff81c0;" x="151.843669" xlink:href="#m812ad3bf29" y="293.100308"/>
     <use style="fill:#ff81c0;" x="165.192952" xlink:href="#m812ad3bf29" y="293.085858"/>
     <use style="fill:#ff81c0;" x="178.542234" xlink:href="#m812ad3bf29" y="293.279706"/>
     <use style="fill:#ff81c0;" x="191.891516" xlink:href="#m812ad3bf29" y="293.388741"/>
     <use style="fill:#ff81c0;" x="205.240798" xlink:href="#m812ad3bf29" y="293.449544"/>
     <use style="fill:#ff81c0;" x="218.590081" xlink:href="#m812ad3bf29" y="293.483198"/>
     <use style="fill:#ff81c0;" x="231.939363" xlink:href="#m812ad3bf29" y="293.501701"/>
     <use style="fill:#ff81c0;" x="245.288645" xlink:href="#m812ad3bf29" y="293.511816"/>
     <use style="fill:#ff81c0;" x="258.637928" xlink:href="#m812ad3bf29" y="293.517316"/>
     <use style="fill:#ff81c0;" x="271.98721" xlink:href="#m812ad3bf29" y="293.520294"/>
     <use style="fill:#ff81c0;" x="285.336492" xlink:href="#m812ad3bf29" y="293.521899"/>
     <use style="fill:#ff81c0;" x="298.685775" xlink:href="#m812ad3bf29" y="293.522761"/>
     <use style="fill:#ff81c0;" x="312.035057" xlink:href="#m812ad3bf29" y="293.523223"/>
    </g>
   </g>
   <g id="line2d_51">
    <path clip-path="url(#p76feb0e5b3)" d="M 58.398693 277.380755 
L 71.747975 285.954419 
L 85.097258 288.491894 
L 98.44654 291.129597 
L 111.795822 292.415468 
L 125.145105 293.021301 
L 138.494387 293.299749 
L 151.843669 293.425271 
L 165.192952 293.438884 
L 178.542234 293.484336 
L 191.891516 293.505579 
L 205.240798 293.515427 
L 218.590081 293.51996 
L 231.939363 293.522033 
L 245.288645 293.522975 
L 258.637928 293.523402 
L 271.98721 293.523594 
L 285.336492 293.52368 
L 298.685775 293.523719 
L 312.035057 293.523736 
" style="fill:none;stroke:#000000;stroke-linecap:square;"/>
    <defs>
     <path d="M -2.5 -0 
L 2.5 2.5 
L 2.5 -2.5 
z
" id="m61476d8ed2"/>
    </defs>
    <g clip-path="url(#p76feb0e5b3)">
     <use x="58.398693" xlink:href="#m61476d8ed2" y="277.380755"/>
     <use x="71.747975" xlink:href="#m61476d8ed2" y="285.954419"/>
     <use x="85.097258" xlink:href="#m61476d8ed2" y="288.491894"/>
     <use x="98.44654" xlink:href="#m61476d8ed2" y="291.129597"/>
     <use x="111.795822" xlink:href="#m61476d8ed2" y="292.415468"/>
     <use x="125.145105" xlink:href="#m61476d8ed2" y="293.021301"/>
     <use x="138.494387" xlink:href="#m61476d8ed2" y="293.299749"/>
     <use x="151.843669" xlink:href="#m61476d8ed2" y="293.425271"/>
     <use x="165.192952" xlink:href="#m61476d8ed2" y="293.438884"/>
     <use x="178.542234" xlink:href="#m61476d8ed2" y="293.484336"/>
     <use x="191.891516" xlink:href="#m61476d8ed2" y="293.505579"/>
     <use x="205.240798" xlink:href="#m61476d8ed2" y="293.515427"/>
     <use x="218.590081" xlink:href="#m61476d8ed2" y="293.51996"/>
     <use x="231.939363" xlink:href="#m61476d8ed2" y="293.522033"/>
     <use x="245.288645" xlink:href="#m61476d8ed2" y="293.522975"/>
     <use x="258.637928" xlink:href="#m61476d8ed2" y="293.523402"/>
     <use x="271.98721" xlink:href="#m61476d8ed2" y="293.523594"/>
     <use x="285.336492" xlink:href="#m61476d8ed2" y="293.52368"/>
     <use x="298.685775" xlink:href="#m61476d8ed2" y="293.523719"/>
     <use x="312.035057" xlink:href="#m61476d8ed2" y="293.523736"/>
    </g>
   </g>
   <g id="line2d_52">
    <path clip-path="url(#p76feb0e5b3)" d="M 58.398693 283.837953 
L 71.747975 290.798791 
L 85.097258 292.436869 
L 98.44654 293.213468 
L 111.795822 293.43757 
L 125.145105 293.500308 
L 138.494387 293.517479 
L 151.843669 293.522096 
L 165.192952 293.522895 
L 178.542234 293.523512 
L 191.891516 293.523684 
L 205.240798 293.523732 
L 218.590081 293.523745 
L 231.939363 293.523749 
L 245.288645 293.52375 
L 258.637928 293.52375 
L 271.98721 293.52375 
L 285.336492 293.52375 
L 298.685775 293.52375 
L 312.035057 293.52375 
" style="fill:none;stroke:#0343df;stroke-linecap:square;"/>
    <defs>
     <path d="M -0 3.535534 
L 3.535534 0 
L 0 -3.535534 
L -3.535534 -0 
z
" id="mf7bec52b9d"/>
    </defs>
    <g clip-path="url(#p76feb0e5b3)">
     <use style="fill:#0343df;" x="58.398693" xlink:href="#mf7bec52b9d" y="283.837953"/>
     <use style="fill:#0343df;" x="71.747975" xlink:href="#mf7bec52b9d" y="290.798791"/>
     <use style="fill:#0343df;" x="85.097258" xlink:href="#mf7bec52b9d" y="292.436869"/>
     <use style="fill:#0343df;" x="98.44654" xlink:href="#mf7bec52b9d" y="293.213468"/>
     <use style="fill:#0343df;" x="111.795822" xlink:href="#mf7bec52b9d" y="293.43757"/>
     <use style="fill:#0343df;" x="125.145105" xlink:href="#mf7bec52b9d" y="293.500308"/>
     <use style="fill:#0343df;" x="138.494387" xlink:href="#mf7bec52b9d" y="293.517479"/>
     <use style="fill:#0343df;" x="151.843669" xlink:href="#mf7bec52b9d" y="293.522096"/>
     <use style="fill:#0343df;" x="165.192952" xlink:href="#mf7bec52b9d" y="293.522895"/>
     <use style="fill:#0343df;" x="178.542234" xlink:href="#mf7bec52b9d" y="293.523512"/>
     <use style="fill:#0343df;" x="191.891516" xlink:href="#mf7bec52b9d" y="293.523684"/>
     <use style="fill:#0343df;" x="205.240798" xlink:href="#mf7bec52b9d" y="293.523732"/>
     <use style="fill:#0343df;" x="218.590081" xlink:href="#mf7bec52b9d" y="293.523745"/>
     <use style="fill:#0343df;" x="231.939363" xlink:href="#mf7bec52b9d" y="293.523749"/>
     <use style="fill:#0343df;" x="245.288645" xlink:href="#mf7bec52b9d" y="293.52375"/>
     <use style="fill:#0343df;" x="258.637928" xlink:href="#mf7bec52b9d" y="293.52375"/>
     <use style="fill:#0343df;" x="271.98721" xlink:href="#mf7bec52b9d" y="293.52375"/>
     <use style="fill:#0343df;" x="285.336492" xlink:href="#mf7bec52b9d" y="293.52375"/>
     <use style="fill:#0343df;" x="298.685775" xlink:href="#mf7bec52b9d" y="293.52375"/>
     <use style="fill:#0343df;" x="312.035057" xlink:href="#mf7bec52b9d" y="293.52375"/>
    </g>
   </g>
   <g id="patch_3">
    <path d="M 45.716875 306.12375 
L 45.716875 28.92375 
" style="fill:none;stroke:#000000;stroke-linecap:square;stroke-linejoin:miter;stroke-width:0.8;"/>
   </g>
   <g id="patch_4">
    <path d="M 324.716875 306.12375 
L 324.716875 28.92375 
" style="fill:none;stroke:#000000;stroke-linecap:square;stroke-linejoin:miter;stroke-width:0.8;"/>
   </g>
   <g id="patch_5">
    <path d="M 45.716875 306.12375 
L 324.716875 306.12375 
" style="fill:none;stroke:#000000;stroke-linecap:square;stroke-linejoin:miter;stroke-width:0.8;"/>
   </g>
   <g id="patch_6">
    <path d="M 45.716875 28.92375 
L 324.716875 28.92375 
" style="fill:none;stroke:#000000;stroke-linecap:square;stroke-linejoin:miter;stroke-width:0.8;"/>
   </g>
   <g id="legend_1">
    <g id="patch_7">
     <path d="M 333.116875 327.8475 
L 394.421875 327.8475 
Q 396.821875 327.8475 396.821875 325.4475 
L 396.821875 9.6 
Q 396.821875 7.2 394.421875 7.2 
L 333.116875 7.2 
Q 330.716875 7.2 330.716875 9.6 
L 330.716875 325.4475 
Q 330.716875 327.8475 333.116875 327.8475 
z
" style="fill:#ffffff;opacity:0.8;stroke:#cccccc;stroke-linejoin:miter;"/>
    </g>
    <g id="line2d_53">
     <path d="M 335.516875 16.918125 
L 359.516875 16.918125 
" style="fill:none;stroke:#000000;stroke-linecap:square;"/>
    </g>
    <g id="line2d_54">
     <g>
      <use x="347.516875" xlink:href="#m7bacc1fc73" y="16.918125"/>
     </g>
    </g>
    <g id="text_20">
     <!-- 2 -->
     <g transform="translate(369.116875 21.118125)scale(0.12 -0.12)">
      <use xlink:href="#DejaVuSans-50"/>
     </g>
    </g>
    <g id="line2d_55">
     <path d="M 335.516875 34.531875 
L 359.516875 34.531875 
" style="fill:none;stroke:#0343df;stroke-linecap:square;"/>
    </g>
    <g id="line2d_56">
     <g>
      <use style="fill:#0343df;" x="347.516875" xlink:href="#mc383b90bdc" y="34.531875"/>
     </g>
    </g>
    <g id="text_21">
     <!-- 3 -->
     <g transform="translate(369.116875 38.731875)scale(0.12 -0.12)">
      <use xlink:href="#DejaVuSans-51"/>
     </g>
    </g>
    <g id="line2d_57">
     <path d="M 335.516875 52.145625 
L 359.516875 52.145625 
" style="fill:none;stroke:#15b01a;stroke-linecap:square;"/>
    </g>
    <g id="line2d_58">
     <g>
      <use style="fill:#15b01a;" x="347.516875" xlink:href="#mf999c15142" y="52.145625"/>
     </g>
    </g>
    <g id="text_22">
     <!-- 5 -->
     <g transform="translate(369.116875 56.345625)scale(0.12 -0.12)">
      <use xlink:href="#DejaVuSans-53"/>
     </g>
    </g>
    <g id="line2d_59">
     <path d="M 335.516875 69.759375 
L 359.516875 69.759375 
" style="fill:none;stroke:#e50000;stroke-linecap:square;"/>
    </g>
    <g id="line2d_60">
     <g>
      <use style="fill:#e50000;" x="347.516875" xlink:href="#me3256358b6" y="69.759375"/>
     </g>
    </g>
    <g id="text_23">
     <!-- 7 -->
     <g transform="translate(369.116875 73.959375)scale(0.12 -0.12)">
      <use xlink:href="#DejaVuSans-55"/>
     </g>
    </g>
    <g id="line2d_61">
     <path d="M 335.516875 87.373125 
L 359.516875 87.373125 
" style="fill:none;stroke:#653700;stroke-linecap:square;"/>
    </g>
    <g id="line2d_62">
     <g>
      <use style="fill:#653700;" x="347.516875" xlink:href="#m54b82782c9" y="87.373125"/>
     </g>
    </g>
    <g id="text_24">
     <!-- 10 -->
     <g transform="translate(369.116875 91.573125)scale(0.12 -0.12)">
      <use xlink:href="#DejaVuSans-49"/>
      <use x="63.623047" xlink:href="#DejaVuSans-48"/>
     </g>
    </g>
    <g id="line2d_63">
     <path d="M 335.516875 104.986875 
L 359.516875 104.986875 
" style="fill:none;stroke:#c20078;stroke-linecap:square;"/>
    </g>
    <g id="line2d_64">
     <g>
      <use style="fill:#c20078;" x="347.516875" xlink:href="#m73a6db9602" y="104.986875"/>
     </g>
    </g>
    <g id="text_25">
     <!-- 14 -->
     <g transform="translate(369.116875 109.186875)scale(0.12 -0.12)">
      <use xlink:href="#DejaVuSans-49"/>
      <use x="63.623047" xlink:href="#DejaVuSans-52"/>
     </g>
    </g>
    <g id="line2d_65">
     <path d="M 335.516875 122.600625 
L 359.516875 122.600625 
" style="fill:none;stroke:#c5c9c7;stroke-linecap:square;"/>
    </g>
    <g id="line2d_66">
     <g>
      <use style="fill:#c5c9c7;" x="347.516875" xlink:href="#m9b5cc36587" y="122.600625"/>
     </g>
    </g>
    <g id="text_26">
     <!-- 16 -->
     <g transform="translate(369.116875 126.800625)scale(0.12 -0.12)">
      <use xlink:href="#DejaVuSans-49"/>
      <use x="63.623047" xlink:href="#DejaVuSans-54"/>
     </g>
    </g>
    <g id="line2d_67">
     <path d="M 335.516875 140.214375 
L 359.516875 140.214375 
" style="fill:none;stroke:#ff81c0;stroke-linecap:square;"/>
    </g>
    <g id="line2d_68">
     <g>
      <use style="fill:#ff81c0;" x="347.516875" xlink:href="#m0bfdcf5387" y="140.214375"/>
     </g>
    </g>
    <g id="text_27">
     <!-- 18 -->
     <g transform="translate(369.116875 144.414375)scale(0.12 -0.12)">
      <use xlink:href="#DejaVuSans-49"/>
      <use x="63.623047" xlink:href="#DejaVuSans-56"/>
     </g>
    </g>
    <g id="line2d_69">
     <path d="M 335.516875 157.828125 
L 359.516875 157.828125 
" style="fill:none;stroke:#000000;stroke-linecap:square;"/>
    </g>
    <g id="line2d_70">
     <g>
      <use x="347.516875" xlink:href="#m2ac8f4d5ea" y="157.828125"/>
     </g>
    </g>
    <g id="text_28">
     <!-- 24 -->
     <g transform="translate(369.116875 162.028125)scale(0.12 -0.12)">
      <use xlink:href="#DejaVuSans-50"/>
      <use x="63.623047" xlink:href="#DejaVuSans-52"/>
     </g>
    </g>
    <g id="line2d_71">
     <path d="M 335.516875 175.441875 
L 359.516875 175.441875 
" style="fill:none;stroke:#0343df;stroke-linecap:square;"/>
    </g>
    <g id="line2d_72">
     <g>
      <use style="fill:#0343df;" x="347.516875" xlink:href="#mdf0f382338" y="175.441875"/>
     </g>
    </g>
    <g id="text_29">
     <!-- 26 -->
     <g transform="translate(369.116875 179.641875)scale(0.12 -0.12)">
      <use xlink:href="#DejaVuSans-50"/>
      <use x="63.623047" xlink:href="#DejaVuSans-54"/>
     </g>
    </g>
    <g id="line2d_73">
     <path d="M 335.516875 193.055625 
L 359.516875 193.055625 
" style="fill:none;stroke:#15b01a;stroke-linecap:square;"/>
    </g>
    <g id="line2d_74">
     <g>
      <use style="fill:#15b01a;" x="347.516875" xlink:href="#med2fd7c069" y="193.055625"/>
     </g>
    </g>
    <g id="text_30">
     <!-- 28 -->
     <g transform="translate(369.116875 197.255625)scale(0.12 -0.12)">
      <use xlink:href="#DejaVuSans-50"/>
      <use x="63.623047" xlink:href="#DejaVuSans-56"/>
     </g>
    </g>
    <g id="line2d_75">
     <path d="M 335.516875 210.669375 
L 359.516875 210.669375 
" style="fill:none;stroke:#e50000;stroke-linecap:square;"/>
    </g>
    <g id="line2d_76">
     <g>
      <use style="fill:#e50000;" x="347.516875" xlink:href="#m040f235ecc" y="210.669375"/>
     </g>
    </g>
    <g id="text_31">
     <!-- 30 -->
     <g transform="translate(369.116875 214.869375)scale(0.12 -0.12)">
      <use xlink:href="#DejaVuSans-51"/>
      <use x="63.623047" xlink:href="#DejaVuSans-48"/>
     </g>
    </g>
    <g id="line2d_77">
     <path d="M 335.516875 228.283125 
L 359.516875 228.283125 
" style="fill:none;stroke:#653700;stroke-linecap:square;"/>
    </g>
    <g id="line2d_78">
     <g>
      <use style="fill:#653700;" x="347.516875" xlink:href="#m48efea058e" y="228.283125"/>
     </g>
    </g>
    <g id="text_32">
     <!-- 32 -->
     <g transform="translate(369.116875 232.483125)scale(0.12 -0.12)">
      <use xlink:href="#DejaVuSans-51"/>
      <use x="63.623047" xlink:href="#DejaVuSans-50"/>
     </g>
    </g>
    <g id="line2d_79">
     <path d="M 335.516875 245.896875 
L 359.516875 245.896875 
" style="fill:none;stroke:#c20078;stroke-linecap:square;"/>
    </g>
    <g id="line2d_80">
     <g>
      <use style="fill:#c20078;" x="347.516875" xlink:href="#m33243ac5ad" y="245.896875"/>
     </g>
    </g>
    <g id="text_33">
     <!-- 34 -->
     <g transform="translate(369.116875 250.096875)scale(0.12 -0.12)">
      <use xlink:href="#DejaVuSans-51"/>
      <use x="63.623047" xlink:href="#DejaVuSans-52"/>
     </g>
    </g>
    <g id="line2d_81">
     <path d="M 335.516875 263.510625 
L 359.516875 263.510625 
" style="fill:none;stroke:#c5c9c7;stroke-linecap:square;"/>
    </g>
    <g id="line2d_82">
     <g>
      <use style="fill:#c5c9c7;" x="347.516875" xlink:href="#mefcf30e9f9" y="263.510625"/>
     </g>
    </g>
    <g id="text_34">
     <!-- 36 -->
     <g transform="translate(369.116875 267.710625)scale(0.12 -0.12)">
      <use xlink:href="#DejaVuSans-51"/>
      <use x="63.623047" xlink:href="#DejaVuSans-54"/>
     </g>
    </g>
    <g id="line2d_83">
     <path d="M 335.516875 281.124375 
L 359.516875 281.124375 
" style="fill:none;stroke:#ff81c0;stroke-linecap:square;"/>
    </g>
    <g id="line2d_84">
     <g>
      <use style="fill:#ff81c0;" x="347.516875" xlink:href="#m812ad3bf29" y="281.124375"/>
     </g>
    </g>
    <g id="text_35">
     <!-- 50 -->
     <g transform="translate(369.116875 285.324375)scale(0.12 -0.12)">
      <use xlink:href="#DejaVuSans-53"/>
      <use x="63.623047" xlink:href="#DejaVuSans-48"/>
     </g>
    </g>
    <g id="line2d_85">
     <path d="M 335.516875 298.738125 
L 359.516875 298.738125 
" style="fill:none;stroke:#000000;stroke-linecap:square;"/>
    </g>
    <g id="line2d_86">
     <g>
      <use x="347.516875" xlink:href="#m61476d8ed2" y="298.738125"/>
     </g>
    </g>
    <g id="text_36">
     <!-- 60 -->
     <g transform="translate(369.116875 302.938125)scale(0.12 -0.12)">
      <use xlink:href="#DejaVuSans-54"/>
      <use x="63.623047" xlink:href="#DejaVuSans-48"/>
     </g>
    </g>
    <g id="line2d_87">
     <path d="M 335.516875 316.351875 
L 359.516875 316.351875 
" style="fill:none;stroke:#0343df;stroke-linecap:square;"/>
    </g>
    <g id="line2d_88">
     <g>
      <use style="fill:#0343df;" x="347.516875" xlink:href="#mf7bec52b9d" y="316.351875"/>
     </g>
    </g>
    <g id="text_37">
     <!-- 100 -->
     <g transform="translate(369.116875 320.551875)scale(0.12 -0.12)">
      <use xlink:href="#DejaVuSans-49"/>
      <use x="63.623047" xlink:href="#DejaVuSans-48"/>
      <use x="127.246094" xlink:href="#DejaVuSans-48"/>
     </g>
    </g>
   </g>
  </g>
 </g>
 <defs>
  <clipPath id="p76feb0e5b3">
   <rect height="277.2" width="279" x="45.716875" y="28.92375"/>
  </clipPath>
 </defs>
</svg>
